<svg xmlns="http://www.w3.org/2000/svg" viewBox="0 0 128 128" enable-background="new 0 0 128 128"><g><path fill="#FFF200" d="M0 93.8l102.9-42.3-.6-33.1L0 60.8z"/><path fill="none" stroke="#FFF200" stroke-width="18" stroke-miterlimit="10" d="M-365.3 64l128-128M-237.3 0l-164.5-161.5"/></g><path fill="#231F20" d="M66.8 111.6c-6.6 0-12.9-1.1-18.7-3.2-5.8-2.2-10.8-5.3-15.1-9.4-4.2-4-7.5-9-10-14.9-2.4-5.9-3.6-12.4-3.6-19.5 0-7 1.2-13.5 3.7-19.5 2.4-6 5.9-11.2 10.3-15.6 4.3-4.3 9.6-7.6 15.7-10 6.1-2.4 12.6-3.6 19.5-3.6 5 0 9.6.6 13.7 1.9 4.1 1.2 7.6 2.6 10.5 4.2l4-3.5h5.6l.6 33.1h-5.6c-3.2-10.1-7-17.5-11.5-22.3-4.5-4.7-9.9-7.1-16.3-7.1-8 0-14.1 3.5-18.2 10.6-4.2 7.1-6.3 17-6.3 29.7 0 7.2.7 13.4 2.1 18.5 1.4 5.1 3.3 9.2 5.6 12.3 2.5 3.2 5.4 5.6 8.7 7.1 3.4 1.5 7.1 2.3 11.2 2.3 6 0 11.3-1.6 15.9-4.9 4.7-3.2 8.9-8.1 12.7-14.7l5.5 3.3c-1.8 3.7-3.9 7.1-6.3 10.1-2.3 3-5 5.5-8.1 7.6-3.4 2.3-7.1 4.2-11.1 5.5-4.2 1.3-9 2-14.5 2z"/></svg>