<?xml version="1.0" encoding="utf-8"?>
<!-- Generator: Adobe Illustrator 18.0.0, SVG Export Plug-In . SVG Version: 6.00 Build 0)  -->
<!DOCTYPE svg PUBLIC "-//W3C//DTD SVG 1.1//EN" "http://www.w3.org/Graphics/SVG/1.1/DTD/svg11.dtd">
<svg version="1.1" id="Layer_1" xmlns="http://www.w3.org/2000/svg" xmlns:xlink="http://www.w3.org/1999/xlink" x="0px" y="0px"
	 viewBox="0 0 140 32.6" enable-background="new 0 0 140 32.6" xml:space="preserve">
<path fill="#FFF200" d="M4,0c2,0.8,3.6,1.3,5.1,2c4.1,1.5,7.9,2.6,12.3,2.6c3.3,0,6.9,0.3,10.2,0.5c4.4,0,10.7,0,15.1,0
	c9,0,20.2,0,29.1,0c3.8,0,9.7-0.3,13.5-0.3c5.1-0.3,12-0.3,17.1-0.5c3.3,0,6.7-0.5,10.2-0.5c5.6,0,13,0.3,18.6,0.5
	c2.8,0.3,4.4,3.6,3.6,7.4c-0.5,3.3-1.5,6.4-2.3,9.5c-0.8,3.1-1.8,6.1-2.3,9.2c-0.3,1.8-1.3,2.6-2.6,1.8c-0.8-0.5-1.5-1.3-2.6-1.3
	c-4.1-0.3-9.9-0.3-14-0.3c-5.9,0-13.8,0.3-19.4,0.3s-13,0-18.6,0c-7.2,0-16.3,0.3-23.5,0.5c-8.7,0.3-19.4,0.5-28.1,0.8
	c-5.9,0-12,0.5-17.9-1.3c-2.3-0.3-4.1-0.8-5.1-3.3c-0.3-0.8-0.3-1.5-0.3-2.3c0-2.3,0-4.4-0.3-6.7c0-1.3-0.3-2.6,0-3.8
	c0.5-2,0-4.1-0.5-5.9C0.6,6.7,0.6,4.4,1.9,2.6C2.4,1.3,3.2,0.8,4,0z"/>
</svg>
