<?xml version="1.0" encoding="utf-8"?>
<!-- Generator: Adobe Illustrator 18.0.0, SVG Export Plug-In . SVG Version: 6.00 Build 0)  -->
<!DOCTYPE svg PUBLIC "-//W3C//DTD SVG 1.1//EN" "http://www.w3.org/Graphics/SVG/1.1/DTD/svg11.dtd">
<svg version="1.1" id="Layer_1" xmlns="http://www.w3.org/2000/svg" xmlns:xlink="http://www.w3.org/1999/xlink" x="0px" y="0px"
	 viewBox="0 201.2 700 647.5" enable-background="new 0 201.2 700 647.5" xml:space="preserve">
<g>
	<g>
		<polygon points="0,301.9 0,345.6 0,595 0,818.1 74.4,848.8 148.8,818.1 148.8,660.6 301.9,590.6 301.9,481.2 148.8,551.2 
			148.8,411.2 301.9,345.6 301.9,231.9 227.5,201.2 		"/>
		<polygon fill="#FEFF0F" points="148.8,411.2 148.8,481.2 148.8,551.2 301.9,481.2 		"/>
	</g>
	<g>
		<polygon points="398.1,301.9 398.1,345.6 398.1,595 398.1,818.1 472.5,848.8 551.2,818.1 551.2,660.6 700,590.6 700,481.2 
			551.2,551.2 551.2,411.2 700,345.6 700,231.9 625.6,201.2 		"/>
		<polygon fill="#FEFF0F" points="551.2,411.2 551.2,481.2 551.2,551.2 700,481.2 		"/>
	</g>
</g>
</svg>
