<svg xmlns="http://www.w3.org/2000/svg" viewBox="0 0 542 83" enable-background="new 0 0 542 83"><path fill="#000000" d="M.2 12.2V77.6l9.5 4.2 9.6-4.2V57.8l19.1-8.7V35l-19.1 8.7V26.3l19.1-8.6V3.5L28.8-.8z"/><path fill="#00dcec" d="M19.3 26.3v17.4L38.4 35z"/><path fill="#000000" d="M50.7 12.2V77.6l9.6 4.2 9.5-4.2V57.8l19.1-8.7V35l-19.1 8.7V26.3l19.1-8.6V3.5L79.4-.8z"/><path fill="#00dcec" d="M69.8 26.3v17.4L88.9 35z"/><g fill="#00dcec"><path d="M129.3 57.1c0 .3-.3.6-.6.6h-4.3c-.3 0-.5-.2-.5-.5 0-.2 0-.6.2-1.1l3.2-31.5c0-.3.3-.6.6-.6h21.4c.3 0 .6.3.6.6l-.3 3.4c0 .3-.3.6-.6.6h-16.5l-1.1 10.1H148c.3 0 .6.3.6.6l-.3 3.4c0 .3-.5.6-.6.6h-16.5l-1.9 13.8zM172.8 57.1c0 .3-.3.6-.6.6h-4c-.3 0-.5-.2-.5-.5 0 0 .2-.9.6-6.6l-2.4 3.5c-1.7 2.4-3.7 4-7.6 4h-.8c-3.5 0-6.1-2.3-6.1-6.3V51l.6-7c.6-6.4 4.3-10.6 10.9-10.6h.6c2.3 0 4.7.8 6.6 2v-1.1c0-.3.3-.6.6-.6h4c.3 0 .5.2.5.5l-2.4 22.9zm-8.6-6.8l4.7-5.8.6-5c-1.7-1.1-3.4-1.7-5.7-1.7h-.6c-3.7 0-5.8 2.6-6.1 6.3l-.6 6.7v.6c0 1.4.8 2.4 2.1 2.4h.3c2.2 0 3.6-1.5 5.3-3.5zM198.3 37.6c0 .3-.3.6-.6.6h-10.4c-1.7 0-2.9.6-3.1 2.1v.2c0 1.2.9 1.8 2.3 2.1 1.7.5 3.2.6 5.2 1.1 3.7.8 6.6 2.4 6.6 5.8 0 .5 0 .6-.2 1.7-.5 4.3-3.7 6.3-8.9 6.3h-10.9c-.3 0-.5-.3-.5-.5 0 0 .2-1.1.3-3.2 0-.3.3-.6.6-.6h11.2c1.8 0 3.1-.9 3.1-2.6 0-1.7-1.4-2.1-3.4-2.4-1.5-.3-3.4-.6-5-1.1-3.4-.8-5.4-3.1-5.4-6V40c.3-4 3.2-6.3 8.4-6.3H198c.3 0 .5.3.5.5l-.2 3.4zM217.3 57.1c0 .3-.3.6-.6.6h-3.8c-4.1 0-6.6-2.3-6.6-6v-.9l1.2-11.9-4.7-.9c-.3 0-.6-.3-.6-.6l.3-2.9c0-.3.3-.6.6-.6h4.9l.3-2.4c0-.5.2-.8.6-1.1l3.4-2.1c.2-.2.3-.2.5-.2.5 0 .6.3.6.6l-.6 5h6c.3 0 .6.3.6.6l-.5 3.8c0 .3-.3.6-.6.6h-5.4c-.5 4.3-1.2 11.5-1.2 12.4 0 1.2.6 2.1 2.3 2.1h3.4c.3 0 .5.2.5.5l-.6 3.4zM241.8 57.1c0 .3-.3.6-.6.6h-4.3c-.3 0-.5-.2-.5-.5 0-.2 0-.6.2-1.1l3.2-31.5c0-.3.3-.6.6-.6h21.4c.3 0 .6.3.6.6l-.3 3.4c0 .3-.3.6-.6.6H245l-1.1 10.1h16.4c.3 0 .6.3.6.6l-.3 3.4c0 .3-.5.6-.6.6h-16.5l-1.7 13.8zM286.3 47.6c-.6 6.3-4.3 10.6-10.9 10.6h-2.9c-5 0-8.3-2.8-8.3-7.7v-1.1l.5-5.4c.6-6.3 4.3-10.6 10.9-10.6h2.9c5 0 8.3 2.8 8.3 7.6v1.1l-.5 5.5zm-4.6-5.5v-.8c0-2.6-1.4-3.7-4.1-3.7h-1.8c-3.7 0-5.8 2.6-6.1 6.3l-.5 5.5v.8c0 2.4 1.4 3.5 4.1 3.5h1.8c3.7 0 5.8-2.6 6.1-6.3l.5-5.3zM310.3 36.9c0 .2-.2.3-.3.5l-3.5 2.8c-.2.2-.3.2-.5.2s-.3-.2-.5-.3c-.8-.9-1.1-1.8-2-1.8h-.3c-.8 0-1.4.8-2.4 2.1l-5 6.4-1.1 10.4c0 .3-.3.6-.6.6h-4c-.5 0-.5-.3-.5-.6l2.3-22.6c0-.3.3-.6.6-.6h4c.3 0 .5.3.5.6l-.6 5.7 2.8-4c1.4-2 2.9-2.8 5.2-2.8h.6c2.4 0 3.5.9 4.9 2.9.1 0 .4.3.4.5zM314.3 34.4c0-.3.3-.6.6-.6h3.8c.3 0 .6.3.6.6l-1.7 16.5v.9c0 1.1.5 1.8 1.5 1.8h.5c1.8 0 2.9-1.2 4.3-3.2l4.9-7.5.9-8.7c0-.3.3-.6.6-.6h3.8c.3 0 .6.3.6.6L333 49.8c-.2.8-.2 1.4-.2 1.7 0 1.4.9 2 2.1 2h.5c2.8 0 4.4-1.7 5.7-3.7 1.7-2.8 2.3-7.2 2.8-11.9l.5-3.8c0-.3.3-.6.6-.6h4c.3 0 .5.2.5.5 0 .2-.2.9-.5 4.4-.6 6.1-1.4 10.6-3.8 14.2-2.1 3.2-5 5-9.9 5h-1.5c-3.7 0-6-2.1-6-5.8v-1.2l-1.4 2.4c-1.4 2.4-2.9 4.6-6.7 4.6h-1.8c-3.4 0-5.5-1.8-5.5-5.5V51l1.9-16.6zM373.5 57.1c0 .3-.3.6-.6.6h-4c-.3 0-.5-.2-.5-.5 0 0 .2-.9.6-6.6l-2.4 3.5c-1.7 2.4-3.7 4-7.6 4h-.8c-3.5 0-6.1-2.3-6.1-6.3V51l.6-7c.6-6.4 4.3-10.6 10.9-10.6h.6c2.3 0 4.7.8 6.6 2l.2-.9c0-.3.3-.6.6-.6h4c.3 0 .5.2.5.5l-2.6 22.7zm-8.6-6.8l4.7-5.8.6-5c-1.7-1.1-3.4-1.7-5.7-1.7h-.5c-3.7 0-5.8 2.6-6.1 6.3l-.6 6.7v.6c0 1.4.8 2.4 2.1 2.4h.3c2.2 0 3.7-1.5 5.2-3.5zM400 36.9c0 .2-.2.3-.3.5l-3.5 2.8c-.2.2-.3.2-.5.2s-.3-.2-.5-.3c-.8-.9-1.1-1.8-2-1.8h-.3c-.8 0-1.4.8-2.4 2.1l-5 6.4-1.1 10.4c0 .3-.3.6-.6.6h-4c-.5 0-.5-.3-.5-.6l2.3-22.6c0-.3.3-.6.6-.6h4c.3 0 .5.3.5.6l-.6 5.7 2.8-4c1.4-2 2.9-2.8 5.2-2.8h.6c2.4 0 3.5.9 4.9 2.9.2 0 .4.3.4.5zM422.6 57.1c0 .3-.3.6-.6.6h-4c-.3 0-.5-.3-.5-.6l.6-6.4-2.4 3.5c-1.7 2.4-3.7 4-7.6 4h-.9c-3.5 0-6.1-2.3-6.1-6.3v-.8l.6-7c.6-6.4 4.3-10.6 10.9-10.6h.6c2.6 0 4.9.9 6.6 2l1.2-11.8c0-.3.3-.6.6-.6h4c.3 0 .5.2.5.5l-3.5 33.5zm-8.5-6.8l4.7-5.8.6-5c-1.7-1.1-3.4-1.7-5.8-1.7h-.6c-3.7 0-5.8 2.6-6.1 6.3-.2 2.4-.6 6.1-.6 7.3 0 1.4.8 2.4 2.1 2.4h.3c2.3 0 3.8-1.5 5.4-3.5zM461.9 57.1c0 .3-.3.6-.6.6h-19c-.5 0-.5-.3-.5-.6l3.4-32.4c0-.3.3-.6.6-.6h4.3c.3 0 .5.3.5.6l-2.9 28h14.1c.3 0 .6.3.6.6l-.5 3.8zM487.8 57.1c0 .3-.3.6-.6.6h-4c-.3 0-.5-.2-.5-.5 0 0 .2-.9.6-6.6l-2.4 3.5c-1.7 2.4-3.7 4-7.6 4h-.8c-3.5 0-6.1-2.3-6.1-6.3V51l.6-7c.6-6.4 4.3-10.6 10.9-10.6h.6c2.3 0 4.7.8 6.6 2l.2-.9c0-.3.3-.6.6-.6h4c.3 0 .5.2.5.5l-2.6 22.7zm-8.6-6.8l4.7-5.8.6-5c-1.7-1.1-3.4-1.7-5.7-1.7h-.6c-3.7 0-5.8 2.6-6.1 6.3l-.6 6.7v.6c0 1.4.8 2.4 2.1 2.4h.3c2.4 0 3.8-1.5 5.3-3.5zM500.7 40.8l2.4-3.5c1.7-2.4 3.7-4 7.6-4h.8c3.5 0 6.1 2.3 6.1 6.3 0 .2 0 .8-.2 1.4l-.6 6c-.6 6.4-4.3 10.6-10.9 10.6h-11.8c-.3 0-.5-.2-.5-.5 0 0 .2-.9 3.5-33.5 0-.3.3-.6.6-.6h4c.3 0 .5.3.5.6l-1.5 17.2zm-.8 6.2l-.6 6.3h6.6c3.7 0 5.8-2.6 6.1-6.3.2-2.3.6-6.3.6-6.9 0-1.2-.8-2.4-2.1-2.4h-.3c-2.3 0-3.8 1.5-5.4 3.5l-4.9 5.8zM541.5 37.6c0 .3-.3.6-.6.6h-10.4c-1.7 0-2.9.6-3.1 2.1v.2c0 1.2.9 1.8 2.3 2.1 1.7.5 3.2.6 5.2 1.1 3.7.8 6.6 2.4 6.6 5.8 0 .5 0 .6-.2 1.7-.5 4.3-3.7 6.3-8.9 6.3h-10.9c-.3 0-.5-.3-.5-.5 0 0 .2-1.1.3-3.2 0-.3.3-.6.6-.6h11.2c1.8 0 3.1-.9 3.1-2.6 0-1.7-1.4-2.1-3.4-2.4-1.5-.3-3.4-.6-5-1.1-3.4-.8-5.4-3.1-5.4-6V40c.3-4 3.2-6.3 8.4-6.3h10.4c.3 0 .5.3.5.5l-.2 3.4z"/></g></svg>