<?xml version="1.0" encoding="utf-8"?>
<!-- Generator: Adobe Illustrator 18.0.0, SVG Export Plug-In . SVG Version: 6.00 Build 0)  -->
<!DOCTYPE svg PUBLIC "-//W3C//DTD SVG 1.1//EN" "http://www.w3.org/Graphics/SVG/1.1/DTD/svg11.dtd">
<svg version="1.1" id="Layer_1" xmlns="http://www.w3.org/2000/svg" xmlns:xlink="http://www.w3.org/1999/xlink" x="0px" y="0px"
	 viewBox="0 0 324 165" enable-background="new 0 0 324 165" xml:space="preserve">
<g>
	<g>
		<g>
			<polygon points="119.1,35.6 119.1,41.3 119.1,71.7 119.1,98.9 128.3,103.1 137.6,98.9 137.6,79.8 156.1,71.4 156.1,57.7 
				137.6,66.1 137.6,49.3 156.1,41 156.1,27.3 146.8,23.1 			"/>
			<polygon fill="#00DCEC" points="137.6,49.3 137.6,57.7 137.6,66.1 156.1,57.7 			"/>
		</g>
		<g>
			<polygon points="168,35.6 168,41.3 168,71.7 168,98.9 177.3,103.1 186.5,98.9 186.5,79.8 205,71.4 205,57.7 186.5,66.1 
				186.5,49.3 205,41 205,27.3 195.8,23.1 			"/>
			<polygon fill="#00DCEC" points="186.5,49.3 186.5,57.7 186.5,66.1 205,57.7 			"/>
		</g>
	</g>
	<g>
		<path fill="#00DCEC" d="M29,141.2c0,0.2-0.2,0.4-0.4,0.4h-2.8c-0.2,0-0.3-0.1-0.3-0.3c0-0.1,0-0.4,0.1-0.7l2.1-20.6
			c0-0.2,0.2-0.4,0.4-0.4h14c0.2,0,0.4,0.2,0.4,0.4l-0.2,2.2c0,0.2-0.2,0.4-0.4,0.4H30.9l-0.7,6.6h10.8c0.2,0,0.4,0.2,0.4,0.4
			l-0.2,2.2c0,0.2-0.3,0.4-0.4,0.4H29.9L29,141.2z"/>
		<path fill="#00DCEC" d="M57.3,141.2c0,0.2-0.2,0.4-0.4,0.4h-2.6c-0.2,0-0.3-0.1-0.3-0.3c0,0,0.1-0.6,0.4-4.3l-1.6,2.3
			c-1.1,1.6-2.4,2.6-5,2.6h-0.5c-2.3,0-4-1.5-4-4.1c0-0.1,0-0.2,0-0.5l0.4-4.6c0.4-4.2,2.8-6.9,7.1-6.9h0.4c1.5,0,3.1,0.5,4.3,1.3
			l0.1-0.6c0-0.2,0.2-0.4,0.4-0.4h2.6c0.2,0,0.3,0.1,0.3,0.3L57.3,141.2z M51.8,136.8l3.1-3.8l0.4-3.3c-1.1-0.7-2.2-1.1-3.7-1.1
			h-0.4c-2.4,0-3.8,1.7-4,4.1l-0.4,4.4c0,0.3,0,0.4,0,0.4c0,0.9,0.5,1.6,1.4,1.6h0.2C49.8,139.1,50.7,138.1,51.8,136.8z"/>
		<path fill="#00DCEC" d="M74.1,128.5c0,0.2-0.2,0.4-0.4,0.4H67c-1.1,0-1.9,0.4-2,1.4v0.2c0,0.8,0.6,1.2,1.5,1.4
			c1.1,0.3,2.1,0.4,3.4,0.7c2.4,0.5,4.3,1.6,4.3,3.8c0,0.3,0,0.4-0.1,1.1c-0.3,2.8-2.4,4.1-5.8,4.1h-7.1c-0.2,0-0.3-0.2-0.3-0.3
			c0,0,0.1-0.7,0.2-2.1c0-0.2,0.2-0.4,0.4-0.4h7.3c1.2,0,2-0.6,2-1.7c0-1.1-0.9-1.4-2.2-1.6c-1-0.2-2.2-0.4-3.3-0.7
			c-2.2-0.5-3.5-2-3.5-3.9c0-0.1,0-0.2,0-0.7c0.2-2.6,2.1-4.1,5.5-4.1H74c0.2,0,0.3,0.2,0.3,0.3L74.1,128.5z"/>
		<path fill="#00DCEC" d="M86.5,141.2c0,0.2-0.2,0.4-0.4,0.4h-2.5c-2.7,0-4.3-1.5-4.3-3.9c0-0.2,0-0.3,0-0.6l0.8-7.8l-3.1-0.6
			c-0.2,0-0.4-0.2-0.4-0.4l0.2-1.9c0-0.2,0.2-0.4,0.4-0.4h3.2l0.2-1.6c0-0.3,0.1-0.5,0.4-0.7l2.2-1.4c0.1-0.1,0.2-0.1,0.3-0.1
			c0.3,0,0.4,0.2,0.4,0.4l-0.4,3.3h3.9c0.2,0,0.4,0.2,0.4,0.4l-0.3,2.5c0,0.2-0.2,0.4-0.4,0.4h-3.9c-0.3,2.8-0.8,7.5-0.8,8.1
			c0,0.8,0.4,1.4,1.5,1.4h2.2c0.2,0,0.3,0.1,0.3,0.3L86.5,141.2z"/>
		<path fill="#00DCEC" d="M102.5,141.2c0,0.2-0.2,0.4-0.4,0.4h-2.8c-0.2,0-0.3-0.1-0.3-0.3c0-0.1,0-0.4,0.1-0.7l2.1-20.6
			c0-0.2,0.2-0.4,0.4-0.4h14c0.2,0,0.4,0.2,0.4,0.4l-0.2,2.2c0,0.2-0.2,0.4-0.4,0.4h-10.8l-0.7,6.6h10.8c0.2,0,0.4,0.2,0.4,0.4
			l-0.2,2.2c0,0.2-0.3,0.4-0.4,0.4h-10.8L102.5,141.2z"/>
		<path fill="#00DCEC" d="M131.5,135c-0.4,4.1-2.8,6.9-7.1,6.9h-1.9c-3.3,0-5.4-1.8-5.4-5c0-0.2,0-0.6,0-0.7l0.3-3.5
			c0.4-4.1,2.8-6.9,7.1-6.9h1.9c3.3,0,5.4,1.8,5.4,5c0,0.2,0,0.3,0,0.7L131.5,135z M128.6,131.4c0-0.3,0-0.4,0-0.5
			c0-1.7-0.9-2.4-2.7-2.4h-1.2c-2.4,0-3.8,1.7-4,4.1l-0.3,3.6c0,0.3,0,0.4,0,0.5c0,1.6,0.9,2.3,2.7,2.3h1.2c2.4,0,3.8-1.7,4-4.1
			L128.6,131.4z"/>
		<path fill="#00DCEC" d="M147.2,128c0,0.1-0.1,0.2-0.2,0.3l-2.3,1.8c-0.1,0.1-0.2,0.1-0.3,0.1c-0.1,0-0.2-0.1-0.3-0.2
			c-0.5-0.6-0.7-1.2-1.3-1.2h-0.2c-0.5,0-0.9,0.5-1.6,1.4l-3.3,4.2l-0.7,6.8c0,0.2-0.2,0.4-0.4,0.4h-2.6c-0.3,0-0.3-0.2-0.3-0.4
			l1.5-14.8c0-0.2,0.2-0.4,0.4-0.4h2.6c0.2,0,0.3,0.2,0.3,0.4l-0.4,3.7l1.8-2.6c0.9-1.3,1.9-1.8,3.4-1.8h0.4c1.6,0,2.3,0.6,3.2,1.9
			C147.1,127.7,147.2,127.9,147.2,128z"/>
		<path fill="#00DCEC" d="M149.9,126.4c0-0.2,0.2-0.4,0.4-0.4h2.5c0.2,0,0.4,0.2,0.4,0.4l-1.1,10.8c0,0.3,0,0.5,0,0.6
			c0,0.7,0.3,1.2,1,1.2h0.3c1.2,0,1.9-0.8,2.8-2.1l3.2-4.9l0.6-5.7c0-0.2,0.2-0.4,0.4-0.4h2.5c0.2,0,0.4,0.2,0.4,0.4l-1.1,10.2
			c-0.1,0.5-0.1,0.9-0.1,1.1c0,0.9,0.6,1.3,1.4,1.3h0.3c1.8,0,2.9-1.1,3.7-2.4c1.1-1.8,1.5-4.7,1.8-7.8l0.3-2.5
			c0-0.2,0.2-0.4,0.4-0.4h2.6c0.2,0,0.3,0.1,0.3,0.3c0,0.1-0.1,0.6-0.3,2.9c-0.4,4-0.9,6.9-2.5,9.3c-1.4,2.1-3.3,3.3-6.5,3.3h-0.9
			c-2.4,0-3.9-1.4-3.9-3.8c0-0.2,0-0.4,0-0.6l0-0.2l-0.9,1.6c-0.9,1.6-1.9,3-4.4,3h-1.2c-2.2,0-3.6-1.2-3.6-3.6c0-0.2,0-0.5,0-0.7
			L149.9,126.4z"/>
		<path fill="#00DCEC" d="M188.6,141.2c0,0.2-0.2,0.4-0.4,0.4h-2.6c-0.2,0-0.3-0.1-0.3-0.3c0,0,0.1-0.6,0.4-4.3l-1.6,2.3
			c-1.1,1.6-2.4,2.6-5,2.6h-0.5c-2.3,0-4-1.5-4-4.1c0-0.1,0-0.2,0-0.5l0.4-4.6c0.4-4.2,2.8-6.9,7.1-6.9h0.4c1.5,0,3.1,0.5,4.3,1.3
			l0.1-0.6c0-0.2,0.2-0.4,0.4-0.4h2.6c0.2,0,0.3,0.1,0.3,0.3L188.6,141.2z M183,136.8l3.1-3.8l0.4-3.3c-1.1-0.7-2.2-1.1-3.7-1.1
			h-0.4c-2.4,0-3.8,1.7-4,4.1l-0.4,4.4c0,0.3,0,0.4,0,0.4c0,0.9,0.5,1.6,1.4,1.6h0.2C181,139.1,181.9,138.1,183,136.8z"/>
		<path fill="#00DCEC" d="M205.9,128c0,0.1-0.1,0.2-0.2,0.3l-2.3,1.8c-0.1,0.1-0.2,0.1-0.3,0.1c-0.1,0-0.2-0.1-0.3-0.2
			c-0.5-0.6-0.7-1.2-1.3-1.2h-0.2c-0.5,0-0.9,0.5-1.6,1.4l-3.3,4.2l-0.7,6.8c0,0.2-0.2,0.4-0.4,0.4h-2.6c-0.3,0-0.3-0.2-0.3-0.4
			l1.5-14.8c0-0.2,0.2-0.4,0.4-0.4h2.6c0.2,0,0.3,0.2,0.3,0.4l-0.4,3.7l1.8-2.6c0.9-1.3,1.9-1.8,3.4-1.8h0.4c1.6,0,2.3,0.6,3.2,1.9
			C205.7,127.7,205.9,127.9,205.9,128z"/>
		<path fill="#00DCEC" d="M220.7,141.2c0,0.2-0.2,0.4-0.4,0.4h-2.6c-0.2,0-0.3-0.2-0.3-0.4l0.4-4.2l-1.6,2.3c-1.1,1.6-2.4,2.6-5,2.6
			h-0.5c-2.3,0-4-1.5-4-4.1c0-0.1,0-0.3,0-0.5l0.4-4.6c0.4-4.2,2.8-6.9,7.1-6.9h0.4c1.7,0,3.2,0.6,4.3,1.3l0.8-7.7
			c0-0.2,0.2-0.4,0.4-0.4h2.6c0.2,0,0.3,0.1,0.3,0.3L220.7,141.2z M215.1,136.8l3.1-3.8l0.4-3.3c-1.1-0.7-2.2-1.1-3.8-1.1h-0.4
			c-2.4,0-3.8,1.7-4,4.1c-0.1,1.6-0.4,4-0.4,4.8c0,0.9,0.5,1.6,1.4,1.6h0.2C213.1,139.1,214,138.1,215.1,136.8z"/>
		<path fill="#00DCEC" d="M246.4,141.2c0,0.2-0.2,0.4-0.4,0.4h-12.4c-0.3,0-0.3-0.2-0.3-0.4l2.2-21.2c0-0.2,0.2-0.4,0.4-0.4h2.8
			c0.2,0,0.3,0.2,0.3,0.4l-1.9,18.3h9.2c0.2,0,0.4,0.2,0.4,0.4L246.4,141.2z"/>
		<path fill="#00DCEC" d="M263.3,141.2c0,0.2-0.2,0.4-0.4,0.4h-2.6c-0.2,0-0.3-0.1-0.3-0.3c0,0,0.1-0.6,0.4-4.3l-1.6,2.3
			c-1.1,1.6-2.4,2.6-5,2.6h-0.5c-2.3,0-4-1.5-4-4.1c0-0.1,0-0.2,0-0.5l0.4-4.6c0.4-4.2,2.8-6.9,7.1-6.9h0.4c1.5,0,3.1,0.5,4.3,1.3
			l0.1-0.6c0-0.2,0.2-0.4,0.4-0.4h2.6c0.2,0,0.3,0.1,0.3,0.3L263.3,141.2z M257.7,136.8l3.1-3.8l0.4-3.3c-1.1-0.7-2.2-1.1-3.7-1.1
			H257c-2.4,0-3.8,1.7-4,4.1l-0.4,4.4c0,0.3,0,0.4,0,0.4c0,0.9,0.5,1.6,1.4,1.6h0.2C255.7,139.1,256.7,138.1,257.7,136.8z"/>
		<path fill="#00DCEC" d="M271.6,130.7l1.6-2.3c1.1-1.6,2.4-2.6,5-2.6h0.5c2.3,0,4,1.5,4,4.1c0,0.1,0,0.5-0.1,0.9l-0.4,3.9
			c-0.4,4.2-2.8,6.9-7.1,6.9h-7.7c-0.2,0-0.3-0.1-0.3-0.3c0,0,0.1-0.6,2.3-21.9c0-0.2,0.2-0.4,0.4-0.4h2.6c0.2,0,0.3,0.2,0.3,0.4
			L271.6,130.7z M271.1,134.7l-0.4,4.1h4.3c2.4,0,3.8-1.7,4-4.1c0.1-1.5,0.4-4.1,0.4-4.5c0-0.8-0.5-1.6-1.4-1.6h-0.2
			c-1.5,0-2.5,1-3.5,2.3L271.1,134.7z"/>
		<path fill="#00DCEC" d="M298.3,128.5c0,0.2-0.2,0.4-0.4,0.4h-6.8c-1.1,0-1.9,0.4-2,1.4v0.2c0,0.8,0.6,1.2,1.5,1.4
			c1.1,0.3,2.1,0.4,3.4,0.7c2.4,0.5,4.3,1.6,4.3,3.8c0,0.3,0,0.4-0.1,1.1c-0.3,2.8-2.4,4.1-5.8,4.1h-7.1c-0.2,0-0.3-0.2-0.3-0.3
			c0,0,0.1-0.7,0.2-2.1c0-0.2,0.2-0.4,0.4-0.4h7.3c1.2,0,2-0.6,2-1.7c0-1.1-0.9-1.4-2.2-1.6c-1-0.2-2.2-0.4-3.3-0.7
			c-2.2-0.5-3.5-2-3.5-3.9c0-0.1,0-0.2,0-0.7c0.2-2.6,2.1-4.1,5.5-4.1h6.8c0.2,0,0.3,0.2,0.3,0.3L298.3,128.5z"/>
	</g>
</g>
</svg>
