<?xml version="1.0" encoding="utf-8"?>
<!-- Generator: Adobe Illustrator 18.0.0, SVG Export Plug-In . SVG Version: 6.00 Build 0)  -->
<!DOCTYPE svg PUBLIC "-//W3C//DTD SVG 1.1//EN" "http://www.w3.org/Graphics/SVG/1.1/DTD/svg11.dtd">
<svg version="1.1" id="Layer_1" xmlns="http://www.w3.org/2000/svg" xmlns:xlink="http://www.w3.org/1999/xlink" x="0px" y="0px"
	 viewBox="0 0 324 194" enable-background="new 0 0 324 194" xml:space="preserve">
<g>
	<g>
		<g>
			<g>
				<polygon points="119.1,36.3 119.1,42 119.1,72.4 119.1,99.6 128.3,103.8 137.6,99.6 137.6,80.5 156.1,72.1 156.1,58.4 
					137.6,66.8 137.6,50 156.1,41.7 156.1,28 146.8,23.8 				"/>
				<polygon fill="#00DCEC" points="137.6,50 137.6,58.4 137.6,66.8 156.1,58.4 				"/>
			</g>
			<g>
				<polygon points="168,36.3 168,42 168,72.4 168,99.6 177.3,103.8 186.5,99.6 186.5,80.5 205,72.1 205,58.4 186.5,66.8 186.5,50 
					205,41.7 205,28 195.8,23.8 				"/>
				<polygon fill="#00DCEC" points="186.5,50 186.5,58.4 186.5,66.8 205,58.4 				"/>
			</g>
		</g>
		<g>
			<path fill="#00DCEC" d="M29,141.9c0,0.2-0.2,0.4-0.4,0.4h-2.8c-0.2,0-0.3-0.1-0.3-0.3c0-0.1,0-0.4,0.1-0.7l2.1-20.6
				c0-0.2,0.2-0.4,0.4-0.4h14c0.2,0,0.4,0.2,0.4,0.4l-0.2,2.2c0,0.2-0.2,0.4-0.4,0.4h-11l-0.7,6.6H41c0.2,0,0.4,0.2,0.4,0.4
				l-0.2,2.2c0,0.2-0.3,0.4-0.4,0.4H29.9L29,141.9z"/>
			<path fill="#00DCEC" d="M57.3,141.9c0,0.2-0.2,0.4-0.4,0.4h-2.6c-0.2,0-0.3-0.1-0.3-0.3c0,0,0.1-0.6,0.4-4.3l-1.6,2.3
				c-1.1,1.6-2.4,2.6-5,2.6h-0.5c-2.3,0-4-1.5-4-4.1c0-0.1,0-0.2,0-0.5l0.4-4.6c0.4-4.2,2.8-6.9,7.1-6.9h0.4c1.5,0,3.1,0.5,4.3,1.3
				l0.1-0.6c0-0.2,0.2-0.4,0.4-0.4h2.6c0.2,0,0.3,0.1,0.3,0.3L57.3,141.9z M51.8,137.5l3.1-3.8l0.4-3.3c-1.1-0.7-2.2-1.1-3.7-1.1
				h-0.4c-2.4,0-3.8,1.7-4,4.1l-0.4,4.4c0,0.3,0,0.4,0,0.4c0,0.9,0.5,1.6,1.4,1.6h0.2C49.8,139.8,50.7,138.8,51.8,137.5z"/>
			<path fill="#00DCEC" d="M74.1,129.2c0,0.2-0.2,0.4-0.4,0.4H67c-1.1,0-1.9,0.4-2,1.4v0.2c0,0.8,0.6,1.2,1.5,1.4
				c1.1,0.3,2.1,0.4,3.4,0.7c2.4,0.5,4.3,1.6,4.3,3.8c0,0.3,0,0.4-0.1,1.1c-0.3,2.8-2.4,4.1-5.8,4.1h-7.1c-0.2,0-0.3-0.2-0.3-0.3
				c0,0,0.1-0.7,0.2-2.1c0-0.2,0.2-0.4,0.4-0.4h7.3c1.2,0,2-0.6,2-1.7c0-1.1-0.9-1.4-2.2-1.6c-1-0.2-2.2-0.4-3.3-0.7
				c-2.2-0.5-3.5-2-3.5-3.9c0-0.1,0-0.2,0-0.7c0.2-2.6,2.1-4.1,5.5-4.1H74c0.2,0,0.3,0.2,0.3,0.3L74.1,129.2z"/>
			<path fill="#00DCEC" d="M86.5,141.9c0,0.2-0.2,0.4-0.4,0.4h-2.5c-2.7,0-4.3-1.5-4.3-3.9c0-0.2,0-0.3,0-0.6l0.8-7.8l-3.1-0.6
				c-0.2,0-0.4-0.2-0.4-0.4l0.2-1.9c0-0.2,0.2-0.4,0.4-0.4h3.2l0.2-1.6c0-0.3,0.1-0.5,0.4-0.7l2.2-1.4c0.1-0.1,0.2-0.1,0.3-0.1
				c0.3,0,0.4,0.2,0.4,0.4l-0.4,3.3h3.9c0.2,0,0.4,0.2,0.4,0.4l-0.3,2.5c0,0.2-0.2,0.4-0.4,0.4h-3.9c-0.3,2.8-0.8,7.5-0.8,8.1
				c0,0.8,0.4,1.4,1.5,1.4h2.2c0.2,0,0.3,0.1,0.3,0.3L86.5,141.9z"/>
			<path fill="#00DCEC" d="M102.5,141.9c0,0.2-0.2,0.4-0.4,0.4h-2.8c-0.2,0-0.3-0.1-0.3-0.3c0-0.1,0-0.4,0.1-0.7l2.1-20.6
				c0-0.2,0.2-0.4,0.4-0.4h14c0.2,0,0.4,0.2,0.4,0.4l-0.2,2.2c0,0.2-0.2,0.4-0.4,0.4h-10.8l-0.7,6.6h10.8c0.2,0,0.4,0.2,0.4,0.4
				l-0.2,2.2c0,0.2-0.3,0.4-0.4,0.4h-10.8L102.5,141.9z"/>
			<path fill="#00DCEC" d="M131.5,135.7c-0.4,4.1-2.8,6.9-7.1,6.9h-1.9c-3.3,0-5.4-1.8-5.4-5c0-0.2,0-0.6,0-0.7l0.3-3.5
				c0.4-4.1,2.8-6.9,7.1-6.9h1.9c3.3,0,5.4,1.8,5.4,5c0,0.2,0,0.3,0,0.7L131.5,135.7z M128.6,132.1c0-0.3,0-0.4,0-0.5
				c0-1.7-0.9-2.4-2.7-2.4h-1.2c-2.4,0-3.8,1.7-4,4.1l-0.3,3.6c0,0.3,0,0.4,0,0.5c0,1.6,0.9,2.3,2.7,2.3h1.2c2.4,0,3.8-1.7,4-4.1
				L128.6,132.1z"/>
			<path fill="#00DCEC" d="M147.2,128.7c0,0.1-0.1,0.2-0.2,0.3l-2.3,1.8c-0.1,0.1-0.2,0.1-0.3,0.1s-0.2-0.1-0.3-0.2
				c-0.5-0.6-0.7-1.2-1.3-1.2h-0.2c-0.5,0-0.9,0.5-1.6,1.4l-3.3,4.2l-0.7,6.8c0,0.2-0.2,0.4-0.4,0.4H134c-0.3,0-0.3-0.2-0.3-0.4
				l1.5-14.8c0-0.2,0.2-0.4,0.4-0.4h2.6c0.2,0,0.3,0.2,0.3,0.4l-0.4,3.7l1.8-2.6c0.9-1.3,1.9-1.8,3.4-1.8h0.4c1.6,0,2.3,0.6,3.2,1.9
				C147.1,128.4,147.2,128.6,147.2,128.7z"/>
			<path fill="#00DCEC" d="M149.9,127.1c0-0.2,0.2-0.4,0.4-0.4h2.5c0.2,0,0.4,0.2,0.4,0.4l-1.1,10.8c0,0.3,0,0.5,0,0.6
				c0,0.7,0.3,1.2,1,1.2h0.3c1.2,0,1.9-0.8,2.8-2.1l3.2-4.9l0.6-5.7c0-0.2,0.2-0.4,0.4-0.4h2.5c0.2,0,0.4,0.2,0.4,0.4l-1.1,10.2
				c-0.1,0.5-0.1,0.9-0.1,1.1c0,0.9,0.6,1.3,1.4,1.3h0.3c1.8,0,2.9-1.1,3.7-2.4c1.1-1.8,1.5-4.7,1.8-7.8l0.3-2.5
				c0-0.2,0.2-0.4,0.4-0.4h2.6c0.2,0,0.3,0.1,0.3,0.3c0,0.1-0.1,0.6-0.3,2.9c-0.4,4-0.9,6.9-2.5,9.3c-1.4,2.1-3.3,3.3-6.5,3.3h-0.9
				c-2.4,0-3.9-1.4-3.9-3.8c0-0.2,0-0.4,0-0.6v-0.2l-0.9,1.6c-0.9,1.6-1.9,3-4.4,3h-1.2c-2.2,0-3.6-1.2-3.6-3.6c0-0.2,0-0.5,0-0.7
				L149.9,127.1z"/>
			<path fill="#00DCEC" d="M188.6,141.9c0,0.2-0.2,0.4-0.4,0.4h-2.6c-0.2,0-0.3-0.1-0.3-0.3c0,0,0.1-0.6,0.4-4.3l-1.6,2.3
				c-1.1,1.6-2.4,2.6-5,2.6h-0.5c-2.3,0-4-1.5-4-4.1c0-0.1,0-0.2,0-0.5l0.4-4.6c0.4-4.2,2.8-6.9,7.1-6.9h0.4c1.5,0,3.1,0.5,4.3,1.3
				l0.1-0.6c0-0.2,0.2-0.4,0.4-0.4h2.6c0.2,0,0.3,0.1,0.3,0.3L188.6,141.9z M183,137.5l3.1-3.8l0.4-3.3c-1.1-0.7-2.2-1.1-3.7-1.1
				h-0.4c-2.4,0-3.8,1.7-4,4.1l-0.4,4.4c0,0.3,0,0.4,0,0.4c0,0.9,0.5,1.6,1.4,1.6h0.2C181,139.8,181.9,138.8,183,137.5z"/>
			<path fill="#00DCEC" d="M205.9,128.7c0,0.1-0.1,0.2-0.2,0.3l-2.3,1.8c-0.1,0.1-0.2,0.1-0.3,0.1s-0.2-0.1-0.3-0.2
				c-0.5-0.6-0.7-1.2-1.3-1.2h-0.2c-0.5,0-0.9,0.5-1.6,1.4l-3.3,4.2l-0.7,6.8c0,0.2-0.2,0.4-0.4,0.4h-2.6c-0.3,0-0.3-0.2-0.3-0.4
				l1.5-14.8c0-0.2,0.2-0.4,0.4-0.4h2.6c0.2,0,0.3,0.2,0.3,0.4l-0.4,3.7l1.8-2.6c0.9-1.3,1.9-1.8,3.4-1.8h0.4c1.6,0,2.3,0.6,3.2,1.9
				C205.7,128.4,205.9,128.6,205.9,128.7z"/>
			<path fill="#00DCEC" d="M220.7,141.9c0,0.2-0.2,0.4-0.4,0.4h-2.6c-0.2,0-0.3-0.2-0.3-0.4l0.4-4.2l-1.6,2.3
				c-1.1,1.6-2.4,2.6-5,2.6h-0.5c-2.3,0-4-1.5-4-4.1c0-0.1,0-0.3,0-0.5l0.4-4.6c0.4-4.2,2.8-6.9,7.1-6.9h0.4c1.7,0,3.2,0.6,4.3,1.3
				l0.8-7.7c0-0.2,0.2-0.4,0.4-0.4h2.6c0.2,0,0.3,0.1,0.3,0.3L220.7,141.9z M215.1,137.5l3.1-3.8l0.4-3.3c-1.1-0.7-2.2-1.1-3.8-1.1
				h-0.4c-2.4,0-3.8,1.7-4,4.1c-0.1,1.6-0.4,4-0.4,4.8c0,0.9,0.5,1.6,1.4,1.6h0.2C213.1,139.8,214,138.8,215.1,137.5z"/>
			<path fill="#00DCEC" d="M246.4,141.9c0,0.2-0.2,0.4-0.4,0.4h-12.4c-0.3,0-0.3-0.2-0.3-0.4l2.2-21.2c0-0.2,0.2-0.4,0.4-0.4h2.8
				c0.2,0,0.3,0.2,0.3,0.4l-1.9,18.3h9.2c0.2,0,0.4,0.2,0.4,0.4L246.4,141.9z"/>
			<path fill="#00DCEC" d="M263.3,141.9c0,0.2-0.2,0.4-0.4,0.4h-2.6c-0.2,0-0.3-0.1-0.3-0.3c0,0,0.1-0.6,0.4-4.3l-1.6,2.3
				c-1.1,1.6-2.4,2.6-5,2.6h-0.5c-2.3,0-4-1.5-4-4.1c0-0.1,0-0.2,0-0.5l0.4-4.6c0.4-4.2,2.8-6.9,7.1-6.9h0.4c1.5,0,3.1,0.5,4.3,1.3
				l0.1-0.6c0-0.2,0.2-0.4,0.4-0.4h2.6c0.2,0,0.3,0.1,0.3,0.3L263.3,141.9z M257.7,137.5l3.1-3.8l0.4-3.3c-1.1-0.7-2.2-1.1-3.7-1.1
				H257c-2.4,0-3.8,1.7-4,4.1l-0.4,4.4c0,0.3,0,0.4,0,0.4c0,0.9,0.5,1.6,1.4,1.6h0.2C255.7,139.8,256.7,138.8,257.7,137.5z"/>
			<path fill="#00DCEC" d="M271.6,131.4l1.6-2.3c1.1-1.6,2.4-2.6,5-2.6h0.5c2.3,0,4,1.5,4,4.1c0,0.1,0,0.5-0.1,0.9l-0.4,3.9
				c-0.4,4.2-2.8,6.9-7.1,6.9h-7.7c-0.2,0-0.3-0.1-0.3-0.3c0,0,0.1-0.6,2.3-21.9c0-0.2,0.2-0.4,0.4-0.4h2.6c0.2,0,0.3,0.2,0.3,0.4
				L271.6,131.4z M271.1,135.4l-0.4,4.1h4.3c2.4,0,3.8-1.7,4-4.1c0.1-1.5,0.4-4.1,0.4-4.5c0-0.8-0.5-1.6-1.4-1.6h-0.2
				c-1.5,0-2.5,1-3.5,2.3L271.1,135.4z"/>
			<path fill="#00DCEC" d="M298.3,129.2c0,0.2-0.2,0.4-0.4,0.4h-6.8c-1.1,0-1.9,0.4-2,1.4v0.2c0,0.8,0.6,1.2,1.5,1.4
				c1.1,0.3,2.1,0.4,3.4,0.7c2.4,0.5,4.3,1.6,4.3,3.8c0,0.3,0,0.4-0.1,1.1c-0.3,2.8-2.4,4.1-5.8,4.1h-7.1c-0.2,0-0.3-0.2-0.3-0.3
				c0,0,0.1-0.7,0.2-2.1c0-0.2,0.2-0.4,0.4-0.4h7.3c1.2,0,2-0.6,2-1.7c0-1.1-0.9-1.4-2.2-1.6c-1-0.2-2.2-0.4-3.3-0.7
				c-2.2-0.5-3.5-2-3.5-3.9c0-0.1,0-0.2,0-0.7c0.2-2.6,2.1-4.1,5.5-4.1h6.8c0.2,0,0.3,0.2,0.3,0.3L298.3,129.2z"/>
		</g>
	</g>
	<g>
		<path d="M59.5,161.2c0,1.3-0.9,2.2-2.1,2.5l2.2,3.8c0,0,0,0.1,0,0.1c0,0.1,0,0.1-0.1,0.1h-1.3c-0.1,0-0.2-0.1-0.3-0.2l-2-3.7H54
			v3.7c0,0.1-0.1,0.2-0.2,0.2h-1.2c-0.1,0-0.2-0.1-0.2-0.2v-9.3c0-0.1,0.1-0.2,0.2-0.2h4c1.8,0,2.8,1,2.8,2.6V161.2z M58,160.8
			c0-0.9-0.5-1.4-1.5-1.4H54v3.2h2.2c1.1,0,1.8-0.5,1.8-1.4V160.8z"/>
		<path d="M62.1,164.8v0.3c0,0.9,0.6,1.3,1.4,1.3h2.9c0.1,0,0.2,0.1,0.2,0.2v0.9c0,0.1-0.1,0.2-0.2,0.2h-3.1c-1.5,0-2.7-0.9-2.7-2.5
			v-1.8c0-1.7,1.1-2.5,2.7-2.5h0.8c1.5,0,2.7,0.9,2.7,2.4v0.6c0,0.2,0,0.2-0.2,0.3l-0.7,0.6c-0.1,0.1-0.3,0.1-0.4,0.1H62.1z
			 M62.1,163.6h3.3v-0.3c0-0.9-0.6-1.3-1.5-1.3h-0.4c-0.9,0-1.5,0.4-1.5,1.3V163.6z"/>
		<path d="M68.6,160.9h1.1c0.1,0,0.2,0.1,0.2,0.2v1.4l0.5-0.7c0.5-0.6,1-1.1,2-1.1h0.3c1.3,0,2,0.8,2,2.1v2.3c0,1.7-1.1,2.5-2.7,2.5
			h-2.1v2.4c0,0.1-0.1,0.2-0.2,0.2h-1.1c-0.1,0-0.2-0.1-0.2-0.2v-9C68.4,161,68.5,160.9,68.6,160.9z M69.9,166.5h1.9
			c0.9,0,1.5-0.4,1.5-1.3v-2.3c0-0.5-0.3-0.8-0.8-0.8h-0.1c-0.6,0-0.9,0.4-1.3,0.9l-1.2,1.3V166.5z"/>
		<path d="M82.4,165.3c0,1.7-1.1,2.5-2.7,2.5h-0.9c-1.5,0-2.7-0.9-2.7-2.5v-2c0-1.7,1.1-2.5,2.7-2.5h0.9c1.5,0,2.7,0.9,2.7,2.5
			V165.3z M81,163.3c0-0.9-0.6-1.3-1.5-1.3h-0.5c-0.9,0-1.5,0.4-1.5,1.3v2c0,0.9,0.6,1.3,1.5,1.3h0.5c0.9,0,1.5-0.4,1.5-1.3V163.3z"
			/>
		<path d="M89.4,161.7c0,0,0,0.1-0.1,0.1l-0.9,0.8c0,0-0.1,0.1-0.1,0.1c0,0-0.1,0-0.1,0c-0.2-0.2-0.4-0.4-0.6-0.4h-0.1
			c-0.4,0-0.6,0.3-1,0.8l-1,1.3v3.3c0,0.1-0.1,0.2-0.2,0.2h-1.1c-0.1,0-0.2-0.1-0.2-0.2v-6.5c0-0.1,0.1-0.2,0.2-0.2h1.1
			c0.1,0,0.2,0.1,0.2,0.2v1.4l0.5-0.7c0.5-0.6,0.9-1,1.7-1h0.1c0.6,0,1.1,0.3,1.5,0.8C89.4,161.6,89.4,161.6,89.4,161.7z"/>
		<path d="M94.5,167.5c0,0.1-0.1,0.2-0.2,0.2h-1c-1.3,0-2-0.7-2-2v-3.4l-1.2-0.3c-0.1,0-0.2-0.1-0.2-0.2v-0.8c0-0.1,0.1-0.2,0.2-0.2
			h1.2v-0.7c0-0.1,0-0.2,0.2-0.3l0.9-0.6c0,0,0.1,0,0.1,0c0.1,0,0.2,0.1,0.2,0.2v1.4h1.6c0.1,0,0.2,0.1,0.2,0.2v1.1
			c0,0.1-0.1,0.2-0.2,0.2h-1.6v3.4c0,0.5,0.3,0.8,0.7,0.8h0.9c0.1,0,0.2,0.1,0.2,0.2V167.5z"/>
		<path d="M98.1,167.5c0,0.1-0.1,0.2-0.2,0.2h-1.1c-0.1,0-0.2-0.1-0.2-0.2v-5.3l-1.5-0.3c-0.1,0-0.2-0.1-0.2-0.2v-0.7
			c0-0.1,0.1-0.2,0.2-0.2H98c0.1,0,0.2,0.1,0.2,0.2V167.5z M98.3,159.1c0,0.1-0.1,0.2-0.2,0.2h-1.4c-0.1,0-0.2-0.1-0.2-0.2v-1.3
			c0-0.1,0.1-0.2,0.2-0.2h1.4c0.1,0,0.2,0.1,0.2,0.2V159.1z"/>
		<path d="M106.3,167.5c0,0.1-0.1,0.2-0.2,0.2h-1.1c-0.1,0-0.2-0.1-0.2-0.2v-4.7c0-0.5-0.3-0.9-0.8-0.9H104c-0.6,0-0.9,0.4-1.3,0.9
			l-1.2,1.3v3.4c0,0.1-0.1,0.2-0.2,0.2h-1.1c-0.1,0-0.2-0.1-0.2-0.2v-6.5c0-0.1,0.1-0.2,0.2-0.2h1.1c0.1,0,0.2,0.1,0.2,0.2v1.5
			l0.6-0.7c0.6-0.7,1.1-1.1,2-1.1h0.2c1.3,0,2,0.8,2,2.1V167.5z"/>
		<path d="M114.2,167.5c0,1.7-1.1,2.7-3.2,2.7h-2.6c-0.1,0-0.2-0.1-0.2-0.2v-0.9c0-0.1,0.1-0.2,0.2-0.2h2.4c1.1,0,1.9-0.4,1.9-1.4
			v-1.5l-0.5,0.7c-0.5,0.6-1,1.1-2,1.1h-0.3c-1.3,0-2-0.8-2-2.1v-2.4c0-1.8,1.1-2.6,2.6-2.6h0.2c0.8,0,1.6,0.3,2.1,0.6v-0.3
			c0-0.1,0.1-0.2,0.2-0.2h1.1c0.1,0,0.2,0.1,0.2,0.2V167.5z M112.7,162.5c-0.4-0.2-1.1-0.6-1.9-0.6h-0.2c-0.8,0-1.3,0.5-1.3,1.3v2.5
			c0,0.5,0.3,0.8,0.8,0.8h0.1c0.6,0,0.9-0.3,1.3-0.9l1.2-1.3V162.5z"/>
		<path d="M125.6,165.3c0,1.7-1.1,2.5-2.7,2.5H122c-1.5,0-2.7-0.9-2.7-2.5v-2c0-1.7,1.1-2.5,2.7-2.5h0.9c1.5,0,2.7,0.9,2.7,2.5
			V165.3z M124.1,163.3c0-0.9-0.6-1.3-1.5-1.3h-0.5c-0.9,0-1.5,0.4-1.5,1.3v2c0,0.9,0.6,1.3,1.5,1.3h0.5c0.9,0,1.5-0.4,1.5-1.3
			V163.3z"/>
		<path d="M133.5,167.5c0,0.1-0.1,0.2-0.2,0.2h-1.1c-0.1,0-0.2-0.1-0.2-0.2v-4.7c0-0.5-0.3-0.9-0.8-0.9h-0.1c-0.6,0-0.9,0.4-1.3,0.9
			l-1.2,1.3v3.4c0,0.1-0.1,0.2-0.2,0.2h-1.1c-0.1,0-0.2-0.1-0.2-0.2v-6.5c0-0.1,0.1-0.2,0.2-0.2h1.1c0.1,0,0.2,0.1,0.2,0.2v1.5
			l0.6-0.7c0.6-0.7,1.1-1.1,2-1.1h0.2c1.3,0,2,0.8,2,2.1V167.5z"/>
		<path d="M142.4,167.5c0,0.1-0.1,0.2-0.2,0.2h-1c-1.3,0-2-0.7-2-2v-3.4l-1.2-0.3c-0.1,0-0.2-0.1-0.2-0.2v-0.8
			c0-0.1,0.1-0.2,0.2-0.2h1.2v-0.7c0-0.1,0-0.2,0.2-0.3l0.9-0.6c0,0,0.1,0,0.1,0c0.1,0,0.2,0.1,0.2,0.2v1.4h1.6
			c0.1,0,0.2,0.1,0.2,0.2v1.1c0,0.1-0.1,0.2-0.2,0.2h-1.6v3.4c0,0.5,0.3,0.8,0.7,0.8h0.9c0.1,0,0.2,0.1,0.2,0.2V167.5z"/>
		<path d="M150,167.5c0,0.1-0.1,0.2-0.2,0.2h-1.1c-0.1,0-0.2-0.1-0.2-0.2v-4.7c0-0.5-0.3-0.9-0.8-0.9h-0.1c-0.6,0-0.9,0.4-1.3,0.9
			l-1.2,1.3v3.4c0,0.1-0.1,0.2-0.2,0.2h-1.1c-0.1,0-0.2-0.1-0.2-0.2V158c0-0.1,0.1-0.2,0.2-0.2h1.1c0.1,0,0.2,0.1,0.2,0.2v4.6
			l0.6-0.7c0.6-0.7,1.1-1.1,2-1.1h0.2c1.3,0,2,0.8,2,2.1V167.5z"/>
		<path d="M153,164.8v0.3c0,0.9,0.6,1.3,1.4,1.3h2.9c0.1,0,0.2,0.1,0.2,0.2v0.9c0,0.1-0.1,0.2-0.2,0.2h-3.1c-1.5,0-2.7-0.9-2.7-2.5
			v-1.8c0-1.7,1.1-2.5,2.7-2.5h0.8c1.5,0,2.7,0.9,2.7,2.4v0.6c0,0.2,0,0.2-0.2,0.3l-0.7,0.6c-0.1,0.1-0.3,0.1-0.4,0.1H153z
			 M153,163.6h3.3v-0.3c0-0.9-0.6-1.3-1.5-1.3h-0.4c-0.9,0-1.5,0.4-1.5,1.3V163.6z"/>
		<path d="M170,161.2c0,1.3-0.9,2.2-2.1,2.5l2.2,3.8c0,0,0,0.1,0,0.1c0,0.1,0,0.1-0.1,0.1h-1.3c-0.1,0-0.2-0.1-0.3-0.2l-2-3.7h-1.8
			v3.7c0,0.1-0.1,0.2-0.2,0.2h-1.2c-0.1,0-0.2-0.1-0.2-0.2v-9.3c0-0.1,0.1-0.2,0.2-0.2h4c1.8,0,2.8,1,2.8,2.6V161.2z M168.4,160.8
			c0-0.9-0.5-1.4-1.5-1.4h-2.5v3.2h2.2c1.1,0,1.8-0.5,1.8-1.4V160.8z"/>
		<path d="M172.5,164.8v0.3c0,0.9,0.6,1.3,1.4,1.3h2.9c0.1,0,0.2,0.1,0.2,0.2v0.9c0,0.1-0.1,0.2-0.2,0.2h-3.1
			c-1.5,0-2.7-0.9-2.7-2.5v-1.8c0-1.7,1.1-2.5,2.7-2.5h0.8c1.5,0,2.7,0.9,2.7,2.4v0.6c0,0.2,0,0.2-0.2,0.3l-0.7,0.6
			c-0.1,0.1-0.3,0.1-0.4,0.1H172.5z M172.5,163.6h3.3v-0.3c0-0.9-0.6-1.3-1.5-1.3H174c-0.9,0-1.5,0.4-1.5,1.3V163.6z"/>
		<path d="M184.5,163.1c0,0.1-0.1,0.2-0.2,0.2h-1.1c-0.1,0-0.2-0.1-0.2-0.2V163c0-0.7-0.6-1-1.3-1h-0.3c-0.9,0-1.5,0.4-1.5,1.3v1.8
			c0,0.9,0.6,1.3,1.4,1.3h2.8c0.1,0,0.2,0.1,0.2,0.2v0.9c0,0.1-0.1,0.2-0.2,0.2h-3c-1.5,0-2.7-0.9-2.7-2.5v-1.8
			c0-1.7,1.1-2.5,2.7-2.5h0.8C183.4,160.8,184.5,161.6,184.5,163.1L184.5,163.1z"/>
		<path d="M187.1,164.8v0.3c0,0.9,0.6,1.3,1.4,1.3h2.9c0.1,0,0.2,0.1,0.2,0.2v0.9c0,0.1-0.1,0.2-0.2,0.2h-3.1
			c-1.5,0-2.7-0.9-2.7-2.5v-1.8c0-1.7,1.1-2.5,2.7-2.5h0.8c1.5,0,2.7,0.9,2.7,2.4v0.6c0,0.2,0,0.2-0.2,0.3l-0.7,0.6
			c-0.1,0.1-0.3,0.1-0.4,0.1H187.1z M187.1,163.6h3.3v-0.3c0-0.9-0.6-1.3-1.5-1.3h-0.4c-0.9,0-1.5,0.4-1.5,1.3V163.6z"/>
		<path d="M199.6,167.5c0,0.1-0.1,0.2-0.2,0.2h-1.1c-0.1,0-0.2-0.1-0.2-0.2v-4.7c0-0.5-0.3-0.9-0.8-0.9h-0.1c-0.6,0-0.9,0.4-1.3,0.9
			l-1.2,1.3v3.4c0,0.1-0.1,0.2-0.2,0.2h-1.1c-0.1,0-0.2-0.1-0.2-0.2v-6.5c0-0.1,0.1-0.2,0.2-0.2h1.1c0.1,0,0.2,0.1,0.2,0.2v1.5
			l0.6-0.7c0.6-0.7,1.1-1.1,2-1.1h0.2c1.3,0,2,0.8,2,2.1V167.5z"/>
		<path d="M205.2,167.5c0,0.1-0.1,0.2-0.2,0.2h-1c-1.3,0-2-0.7-2-2v-3.4l-1.2-0.3c-0.1,0-0.2-0.1-0.2-0.2v-0.8
			c0-0.1,0.1-0.2,0.2-0.2h1.2v-0.7c0-0.1,0-0.2,0.2-0.3l0.9-0.6c0,0,0.1,0,0.1,0c0.1,0,0.2,0.1,0.2,0.2v1.4h1.6
			c0.1,0,0.2,0.1,0.2,0.2v1.1c0,0.1-0.1,0.2-0.2,0.2h-1.6v3.4c0,0.5,0.3,0.8,0.7,0.8h0.9c0.1,0,0.2,0.1,0.2,0.2V167.5z"/>
		<path d="M209.5,167.5c0,0.1-0.1,0.2-0.2,0.2h-0.9c-1.3,0-2-0.7-2-2V158c0-0.1,0.1-0.2,0.2-0.2h1.1c0.1,0,0.2,0.1,0.2,0.2v7.7
			c0,0.5,0.3,0.8,0.7,0.8h0.7c0.1,0,0.2,0.1,0.2,0.2V167.5z"/>
		<path d="M213.7,167.2c-0.3,0.8-0.8,1.4-1.5,2l-1,0.9c0,0-0.1,0.1-0.1,0.1s-0.1,0-0.1-0.1l-0.7-0.8c0,0-0.1-0.1-0.1-0.1
			s0-0.1,0.1-0.1l1-0.9c0.4-0.4,0.8-0.6,0.9-1.1l0,0l-2.6-6c0,0,0-0.1,0-0.1c0-0.1,0.1-0.1,0.2-0.1h1.2c0.1,0,0.2,0.1,0.3,0.2
			l1.3,3.1c0.2,0.5,0.3,1.1,0.4,1.6l1.5-4.6c0.1-0.2,0.1-0.2,0.3-0.2h1.1c0.1,0,0.2,0.1,0.2,0.2c0,0,0,0.1,0,0.1L213.7,167.2z"/>
		<path d="M227.5,161.3c0,1.7-1.1,2.7-2.8,2.7H222v3.6c0,0.1-0.1,0.2-0.2,0.2h-1.2c-0.1,0-0.2-0.1-0.2-0.2v-9.3
			c0-0.1,0.1-0.2,0.2-0.2h4c1.7,0,2.8,1,2.8,2.6V161.3z M225.9,160.8c0-0.9-0.5-1.4-1.5-1.4H222v3.2h2.5c1,0,1.5-0.5,1.5-1.4V160.8z
			"/>
		<path d="M234.6,165.3c0,1.7-1.1,2.5-2.7,2.5H231c-1.5,0-2.7-0.9-2.7-2.5v-2c0-1.7,1.1-2.5,2.7-2.5h0.9c1.5,0,2.7,0.9,2.7,2.5
			V165.3z M233.1,163.3c0-0.9-0.6-1.3-1.5-1.3h-0.5c-0.9,0-1.5,0.4-1.5,1.3v2c0,0.9,0.6,1.3,1.5,1.3h0.5c0.9,0,1.5-0.4,1.5-1.3
			V163.3z"/>
		<path d="M241.1,162c0,0.1-0.1,0.2-0.2,0.2h-3c-0.4,0-0.7,0.2-0.7,0.6c0,0.4,0.3,0.6,0.7,0.7c0.4,0.1,0.9,0.2,1.4,0.2
			c1.1,0.2,2.1,0.6,2.1,1.9v0.3c0,1.2-0.9,1.8-2.2,1.8h-3.2c-0.1,0-0.2-0.1-0.2-0.2v-0.9c0-0.1,0.1-0.2,0.2-0.2h3.1
			c0.5,0,0.8-0.3,0.8-0.7c0-0.5-0.4-0.6-1-0.7c-0.4-0.1-1-0.2-1.5-0.3c-1.2-0.2-1.8-0.9-1.8-1.9v-0.2c0-1.1,0.9-1.7,2.2-1.7h3
			c0.1,0,0.2,0.1,0.2,0.2V162z"/>
		<path d="M247.8,162c0,0.1-0.1,0.2-0.2,0.2h-3c-0.4,0-0.7,0.2-0.7,0.6c0,0.4,0.3,0.6,0.7,0.7c0.4,0.1,0.9,0.2,1.4,0.2
			c1.1,0.2,2.1,0.6,2.1,1.9v0.3c0,1.2-0.9,1.8-2.2,1.8h-3.2c-0.1,0-0.2-0.1-0.2-0.2v-0.9c0-0.1,0.1-0.2,0.2-0.2h3.1
			c0.5,0,0.8-0.3,0.8-0.7c0-0.5-0.4-0.6-1-0.7c-0.4-0.1-1-0.2-1.5-0.3c-1.2-0.2-1.8-0.9-1.8-1.9v-0.2c0-1.1,0.9-1.7,2.2-1.7h3
			c0.1,0,0.2,0.1,0.2,0.2V162z"/>
		<path d="M251.9,167.5c0,0.1-0.1,0.2-0.2,0.2h-1.1c-0.1,0-0.2-0.1-0.2-0.2v-5.3l-1.5-0.3c-0.1,0-0.2-0.1-0.2-0.2v-0.7
			c0-0.1,0.1-0.2,0.2-0.2h2.8c0.1,0,0.2,0.1,0.2,0.2V167.5z M252,159.1c0,0.1-0.1,0.2-0.2,0.2h-1.4c-0.1,0-0.2-0.1-0.2-0.2v-1.3
			c0-0.1,0.1-0.2,0.2-0.2h1.4c0.1,0,0.2,0.1,0.2,0.2V159.1z"/>
		<path d="M253.8,158c0-0.1,0.1-0.2,0.2-0.2h1.1c0.1,0,0.2,0.1,0.2,0.2v4.5l0.5-0.7c0.5-0.6,1-1.1,2-1.1h0.3c1.3,0,2,0.8,2,2.1v2.3
			c0,1.7-1.1,2.5-2.7,2.5H254c-0.1,0-0.2-0.1-0.2-0.2V158z M255.3,166.5h1.9c0.9,0,1.5-0.4,1.5-1.3v-2.3c0-0.5-0.3-0.8-0.8-0.8h-0.1
			c-0.6,0-0.9,0.4-1.3,0.9l-1.2,1.3V166.5z"/>
		<path d="M264.8,167.5c0,0.1-0.1,0.2-0.2,0.2h-0.9c-1.3,0-2-0.7-2-2V158c0-0.1,0.1-0.2,0.2-0.2h1.1c0.1,0,0.2,0.1,0.2,0.2v7.7
			c0,0.5,0.3,0.8,0.7,0.8h0.7c0.1,0,0.2,0.1,0.2,0.2V167.5z"/>
		<path d="M267.2,164.8v0.3c0,0.9,0.6,1.3,1.4,1.3h2.9c0.1,0,0.2,0.1,0.2,0.2v0.9c0,0.1-0.1,0.2-0.2,0.2h-3.1
			c-1.5,0-2.7-0.9-2.7-2.5v-1.8c0-1.7,1.1-2.5,2.7-2.5h0.8c1.5,0,2.7,0.9,2.7,2.4v0.6c0,0.2,0,0.2-0.2,0.3l-0.7,0.6
			c-0.1,0.1-0.3,0.1-0.4,0.1H267.2z M267.2,163.6h3.3v-0.3c0-0.9-0.6-1.3-1.5-1.3h-0.4c-0.9,0-1.5,0.4-1.5,1.3V163.6z"/>
	</g>
</g>
</svg>
