<?xml version="1.0" encoding="utf-8"?>
<!-- Generator: Adobe Illustrator 18.0.0, SVG Export Plug-In . SVG Version: 6.00 Build 0)  -->
<!DOCTYPE svg PUBLIC "-//W3C//DTD SVG 1.1//EN" "http://www.w3.org/Graphics/SVG/1.1/DTD/svg11.dtd">
<svg version="1.1" id="Layer_1" xmlns="http://www.w3.org/2000/svg" xmlns:xlink="http://www.w3.org/1999/xlink" x="0px" y="0px"
	 viewBox="0 0 16 15" enable-background="new 0 0 16 15" xml:space="preserve">
<g>
	<g>
		<polygon points="0,2.4 0,3.4 0,9.1 0,14.2 1.7,14.9 3.4,14.2 3.4,10.6 6.9,9 6.9,6.5 3.4,8.1 3.4,4.9 6.9,3.4 6.9,0.8 5.2,0.1 		
			"/>
		<polygon fill="#00DCEC" points="3.4,4.9 3.4,6.5 3.4,8.1 6.9,6.5 		"/>
	</g>
	<g>
		<polygon points="9.1,2.4 9.1,3.4 9.1,9.1 9.1,14.2 10.8,14.9 12.6,14.2 12.6,10.6 16,9 16,6.5 12.6,8.1 12.6,4.9 16,3.4 16,0.8 
			14.3,0.1 		"/>
		<polygon fill="#00DCEC" points="12.6,4.9 12.6,6.5 12.6,8.1 16,6.5 		"/>
	</g>
</g>
</svg>
