<?xml version="1.0" encoding="utf-8"?>
<!-- Generator: Adobe Illustrator 18.0.0, SVG Export Plug-In . SVG Version: 6.00 Build 0)  -->
<!DOCTYPE svg PUBLIC "-//W3C//DTD SVG 1.1//EN" "http://www.w3.org/Graphics/SVG/1.1/DTD/svg11.dtd">
<svg version="1.1" id="Layer_1" xmlns="http://www.w3.org/2000/svg" xmlns:xlink="http://www.w3.org/1999/xlink" x="0px" y="0px"
	 viewBox="0 0 400 100" enable-background="new 0 0 400 100" xml:space="preserve">
<g>
	<g>
		<polygon points="23,32.5 23,36.3 23,56.8 23,75.2 29.2,78 35.5,75.2 35.5,62.3 48,56.6 48,47.4 35.5,53.1 35.5,41.7 48,36.1 
			48,26.8 41.7,24 		"/>
		<polygon fill="#00DCEC" points="35.5,41.7 35.5,47.4 35.5,53.1 48,47.4 		"/>
	</g>
	<g>
		<polygon points="56,32.5 56,36.3 56,56.8 56,75.2 62.3,78 68.5,75.2 68.5,62.3 81,56.6 81,47.4 68.5,53.1 68.5,41.7 81,36.1 
			81,26.8 74.8,24 		"/>
		<polygon fill="#00DCEC" points="68.5,41.7 68.5,47.4 68.5,53.1 81,47.4 		"/>
	</g>
</g>
<g>
	<path fill="#00DCEC" d="M107.4,61.8c0,0.2-0.2,0.4-0.4,0.4h-2.8c-0.2,0-0.3-0.1-0.3-0.3c0-0.1,0-0.4,0.1-0.7l2.1-20.6
		c0-0.2,0.2-0.4,0.4-0.4h14c0.2,0,0.4,0.2,0.4,0.4l-0.2,2.2c0,0.2-0.2,0.4-0.4,0.4h-10.8l-0.7,6.6h10.8c0.2,0,0.4,0.2,0.4,0.4
		l-0.2,2.2c0,0.2-0.3,0.4-0.4,0.4h-10.8L107.4,61.8z"/>
	<path fill="#00DCEC" d="M135.8,61.8c0,0.2-0.2,0.4-0.4,0.4h-2.6c-0.2,0-0.3-0.1-0.3-0.3c0,0,0.1-0.6,0.4-4.3l-1.6,2.3
		c-1.1,1.6-2.4,2.6-5,2.6h-0.5c-2.3,0-4-1.5-4-4.1c0-0.1,0-0.2,0-0.5l0.4-4.6c0.4-4.2,2.8-6.9,7.1-6.9h0.4c1.5,0,3.1,0.5,4.3,1.3
		L134,47c0-0.2,0.2-0.4,0.4-0.4h2.6c0.2,0,0.3,0.1,0.3,0.3L135.8,61.8z M130.2,57.4l3.1-3.8l0.4-3.3c-1.1-0.7-2.2-1.1-3.7-1.1h-0.4
		c-2.4,0-3.8,1.7-4,4.1l-0.4,4.4c0,0.3,0,0.4,0,0.4c0,0.9,0.5,1.6,1.4,1.6h0.2C128.2,59.7,129.1,58.7,130.2,57.4z"/>
	<path fill="#00DCEC" d="M152.5,49.1c0,0.2-0.2,0.4-0.4,0.4h-6.8c-1.1,0-1.9,0.4-2,1.4V51c0,0.8,0.6,1.2,1.5,1.4
		c1.1,0.3,2.1,0.4,3.4,0.7c2.4,0.5,4.3,1.6,4.3,3.8c0,0.3,0,0.4-0.1,1.1c-0.3,2.8-2.4,4.1-5.8,4.1h-7.1c-0.2,0-0.3-0.2-0.3-0.3
		c0,0,0.1-0.7,0.2-2.1c0-0.2,0.2-0.4,0.4-0.4h7.3c1.2,0,2-0.6,2-1.7c0-1.1-0.9-1.4-2.2-1.6c-1-0.2-2.2-0.4-3.3-0.7
		c-2.2-0.5-3.5-2-3.5-3.9c0-0.1,0-0.2,0-0.7c0.2-2.6,2.1-4.1,5.5-4.1h6.8c0.2,0,0.3,0.2,0.3,0.3L152.5,49.1z"/>
	<path fill="#00DCEC" d="M164.9,61.8c0,0.2-0.2,0.4-0.4,0.4h-2.5c-2.7,0-4.3-1.5-4.3-3.9c0-0.2,0-0.3,0-0.6l0.8-7.8l-3.1-0.6
		c-0.2,0-0.4-0.2-0.4-0.4l0.2-1.9c0-0.2,0.2-0.4,0.4-0.4h3.2l0.2-1.6c0-0.3,0.1-0.5,0.4-0.7l2.2-1.4c0.1-0.1,0.2-0.1,0.3-0.1
		c0.3,0,0.4,0.2,0.4,0.4l-0.4,3.3h3.9c0.2,0,0.4,0.2,0.4,0.4l-0.3,2.5c0,0.2-0.2,0.4-0.4,0.4H162c-0.3,2.8-0.8,7.5-0.8,8.1
		c0,0.8,0.4,1.4,1.5,1.4h2.2c0.2,0,0.3,0.1,0.3,0.3L164.9,61.8z"/>
	<path fill="#00DCEC" d="M180.9,61.8c0,0.2-0.2,0.4-0.4,0.4h-2.8c-0.2,0-0.3-0.1-0.3-0.3c0-0.1,0-0.4,0.1-0.7l2.1-20.6
		c0-0.2,0.2-0.4,0.4-0.4h14c0.2,0,0.4,0.2,0.4,0.4l-0.2,2.2c0,0.2-0.2,0.4-0.4,0.4h-10.8l-0.7,6.6H193c0.2,0,0.4,0.2,0.4,0.4
		l-0.2,2.2c0,0.2-0.3,0.4-0.4,0.4h-10.8L180.9,61.8z"/>
	<path fill="#00DCEC" d="M210,55.6c-0.4,4.1-2.8,6.9-7.1,6.9h-1.9c-3.3,0-5.4-1.8-5.4-5c0-0.2,0-0.6,0-0.7l0.3-3.5
		c0.4-4.1,2.8-6.9,7.1-6.9h1.9c3.3,0,5.4,1.8,5.4,5c0,0.2,0,0.3,0,0.7L210,55.6z M207,52c0-0.3,0-0.4,0-0.5c0-1.7-0.9-2.4-2.7-2.4
		h-1.2c-2.4,0-3.8,1.7-4,4.1l-0.3,3.6c0,0.3,0,0.4,0,0.5c0,1.6,0.9,2.3,2.7,2.3h1.2c2.4,0,3.8-1.7,4-4.1L207,52z"/>
	<path fill="#00DCEC" d="M225.7,48.6c0,0.1-0.1,0.2-0.2,0.3l-2.3,1.8c-0.1,0.1-0.2,0.1-0.3,0.1c-0.1,0-0.2-0.1-0.3-0.2
		c-0.5-0.6-0.7-1.2-1.3-1.2h-0.2c-0.5,0-0.9,0.5-1.6,1.4l-3.3,4.2l-0.7,6.8c0,0.2-0.2,0.4-0.4,0.4h-2.6c-0.3,0-0.3-0.2-0.3-0.4
		l1.5-14.8c0-0.2,0.2-0.4,0.4-0.4h2.6c0.2,0,0.3,0.2,0.3,0.4l-0.4,3.7l1.8-2.6c0.9-1.3,1.9-1.8,3.4-1.8h0.4c1.6,0,2.3,0.6,3.2,1.9
		C225.5,48.3,225.7,48.5,225.7,48.6z"/>
	<path fill="#00DCEC" d="M228.3,47c0-0.2,0.2-0.4,0.4-0.4h2.5c0.2,0,0.4,0.2,0.4,0.4l-1.1,10.8c0,0.3,0,0.5,0,0.6
		c0,0.7,0.3,1.2,1,1.2h0.3c1.2,0,1.9-0.8,2.8-2.1l3.2-4.9l0.6-5.7c0-0.2,0.2-0.4,0.4-0.4h2.5c0.2,0,0.4,0.2,0.4,0.4l-1.1,10.2
		c-0.1,0.5-0.1,0.9-0.1,1.1c0,0.9,0.6,1.3,1.4,1.3h0.3c1.8,0,2.9-1.1,3.7-2.4c1.1-1.8,1.5-4.7,1.8-7.8l0.3-2.5
		c0-0.2,0.2-0.4,0.4-0.4h2.6c0.2,0,0.3,0.1,0.3,0.3c0,0.1-0.1,0.6-0.3,2.9c-0.4,4-0.9,6.9-2.5,9.3c-1.4,2.1-3.3,3.3-6.5,3.3H241
		c-2.4,0-3.9-1.4-3.9-3.8c0-0.2,0-0.4,0-0.6l0-0.2l-0.9,1.6c-0.9,1.6-1.9,3-4.4,3h-1.2c-2.2,0-3.6-1.2-3.6-3.6c0-0.2,0-0.5,0-0.7
		L228.3,47z"/>
	<path fill="#00DCEC" d="M267,61.8c0,0.2-0.2,0.4-0.4,0.4H264c-0.2,0-0.3-0.1-0.3-0.3c0,0,0.1-0.6,0.4-4.3l-1.6,2.3
		c-1.1,1.6-2.4,2.6-5,2.6h-0.5c-2.3,0-4-1.5-4-4.1c0-0.1,0-0.2,0-0.5l0.4-4.6c0.4-4.2,2.8-6.9,7.1-6.9h0.4c1.5,0,3.1,0.5,4.3,1.3
		l0.1-0.6c0-0.2,0.2-0.4,0.4-0.4h2.6c0.2,0,0.3,0.1,0.3,0.3L267,61.8z M261.4,57.4l3.1-3.8l0.4-3.3c-1.1-0.7-2.2-1.1-3.7-1.1h-0.4
		c-2.4,0-3.8,1.7-4,4.1l-0.4,4.4c0,0.3,0,0.4,0,0.4c0,0.9,0.5,1.6,1.4,1.6h0.2C259.4,59.7,260.4,58.7,261.4,57.4z"/>
	<path fill="#00DCEC" d="M284.3,48.6c0,0.1-0.1,0.2-0.2,0.3l-2.3,1.8c-0.1,0.1-0.2,0.1-0.3,0.1c-0.1,0-0.2-0.1-0.3-0.2
		c-0.5-0.6-0.7-1.2-1.3-1.2h-0.2c-0.5,0-0.9,0.5-1.6,1.4l-3.3,4.2l-0.7,6.8c0,0.2-0.2,0.4-0.4,0.4h-2.6c-0.3,0-0.3-0.2-0.3-0.4
		l1.5-14.8c0-0.2,0.2-0.4,0.4-0.4h2.6c0.2,0,0.3,0.2,0.3,0.4l-0.4,3.7l1.8-2.6c0.9-1.3,1.9-1.8,3.4-1.8h0.4c1.6,0,2.3,0.6,3.2,1.9
		C284.2,48.3,284.3,48.5,284.3,48.6z"/>
	<path fill="#00DCEC" d="M299.1,61.8c0,0.2-0.2,0.4-0.4,0.4h-2.6c-0.2,0-0.3-0.2-0.3-0.4l0.4-4.2l-1.6,2.3c-1.1,1.6-2.4,2.6-5,2.6
		H289c-2.3,0-4-1.5-4-4.1c0-0.1,0-0.3,0-0.5l0.4-4.6c0.4-4.2,2.8-6.9,7.1-6.9h0.4c1.7,0,3.2,0.6,4.3,1.3l0.8-7.7
		c0-0.2,0.2-0.4,0.4-0.4h2.6c0.2,0,0.3,0.1,0.3,0.3L299.1,61.8z M293.5,57.4l3.1-3.8l0.4-3.3c-1.1-0.7-2.2-1.1-3.8-1.1h-0.4
		c-2.4,0-3.8,1.7-4,4.1c-0.1,1.6-0.4,4-0.4,4.8c0,0.9,0.5,1.6,1.4,1.6h0.2C291.5,59.7,292.5,58.7,293.5,57.4z"/>
	<path fill="#00DCEC" d="M324.8,61.8c0,0.2-0.2,0.4-0.4,0.4H312c-0.3,0-0.3-0.2-0.3-0.4l2.2-21.2c0-0.2,0.2-0.4,0.4-0.4h2.8
		c0.2,0,0.3,0.2,0.3,0.4l-1.9,18.3h9.2c0.2,0,0.4,0.2,0.4,0.4L324.8,61.8z"/>
	<path fill="#00DCEC" d="M341.7,61.8c0,0.2-0.2,0.4-0.4,0.4h-2.6c-0.2,0-0.3-0.1-0.3-0.3c0,0,0.1-0.6,0.4-4.3l-1.6,2.3
		c-1.1,1.6-2.4,2.6-5,2.6h-0.5c-2.3,0-4-1.5-4-4.1c0-0.1,0-0.2,0-0.5l0.4-4.6c0.4-4.2,2.8-6.9,7.1-6.9h0.4c1.5,0,3.1,0.5,4.3,1.3
		l0.1-0.6c0-0.2,0.2-0.4,0.4-0.4h2.6c0.2,0,0.3,0.1,0.3,0.3L341.7,61.8z M336.1,57.4l3.1-3.8l0.4-3.3c-1.1-0.7-2.2-1.1-3.7-1.1h-0.4
		c-2.4,0-3.8,1.7-4,4.1l-0.4,4.4c0,0.3,0,0.4,0,0.4c0,0.9,0.5,1.6,1.4,1.6h0.2C334.2,59.7,335.1,58.7,336.1,57.4z"/>
	<path fill="#00DCEC" d="M350.1,51.2l1.6-2.3c1.1-1.6,2.4-2.6,5-2.6h0.5c2.3,0,4,1.5,4,4.1c0,0.1,0,0.5-0.1,0.9l-0.4,3.9
		c-0.4,4.2-2.8,6.9-7.1,6.9h-7.7c-0.2,0-0.3-0.1-0.3-0.3c0,0,0.1-0.6,2.3-21.9c0-0.2,0.2-0.4,0.4-0.4h2.6c0.2,0,0.3,0.2,0.3,0.4
		L350.1,51.2z M349.6,55.2l-0.4,4.1h4.3c2.4,0,3.8-1.7,4-4.1c0.1-1.5,0.4-4.1,0.4-4.5c0-0.8-0.5-1.6-1.4-1.6h-0.2
		c-1.5,0-2.5,1-3.5,2.3L349.6,55.2z"/>
	<path fill="#00DCEC" d="M376.8,49.1c0,0.2-0.2,0.4-0.4,0.4h-6.8c-1.1,0-1.9,0.4-2,1.4V51c0,0.8,0.6,1.2,1.5,1.4
		c1.1,0.3,2.1,0.4,3.4,0.7c2.4,0.5,4.3,1.6,4.3,3.8c0,0.3,0,0.4-0.1,1.1c-0.3,2.8-2.4,4.1-5.8,4.1h-7.1c-0.2,0-0.3-0.2-0.3-0.3
		c0,0,0.1-0.7,0.2-2.1c0-0.2,0.2-0.4,0.4-0.4h7.3c1.2,0,2-0.6,2-1.7c0-1.1-0.9-1.4-2.2-1.6c-1-0.2-2.2-0.4-3.3-0.7
		c-2.2-0.5-3.5-2-3.5-3.9c0-0.1,0-0.2,0-0.7c0.2-2.6,2.1-4.1,5.5-4.1h6.8c0.2,0,0.3,0.2,0.3,0.3L376.8,49.1z"/>
</g>
</svg>
