<?xml version="1.0" encoding="utf-8"?>
<!-- Generator: Adobe Illustrator 18.0.0, SVG Export Plug-In . SVG Version: 6.00 Build 0)  -->
<!DOCTYPE svg PUBLIC "-//W3C//DTD SVG 1.1//EN" "http://www.w3.org/Graphics/SVG/1.1/DTD/svg11.dtd">
<svg version="1.1" id="Layer_1" xmlns="http://www.w3.org/2000/svg" xmlns:xlink="http://www.w3.org/1999/xlink" x="0px" y="0px"
	 viewBox="0 0 74 70" enable-background="new 0 0 74 70" xml:space="preserve">
<g>
	<g>
		<polygon points="8,16.5 8,20.3 8,40.8 8,59.2 14.2,62 20.5,59.2 20.5,46.3 33,40.6 33,31.4 20.5,37.1 20.5,25.7 33,20.1 33,10.8 
			26.7,8 		"/>
		<polygon fill="#00DCEC" points="20.5,25.7 20.5,31.4 20.5,37.1 33,31.4 		"/>
	</g>
	<g>
		<polygon points="41,16.5 41,20.3 41,40.8 41,59.2 47.3,62 53.5,59.2 53.5,46.3 66,40.6 66,31.4 53.5,37.1 53.5,25.7 66,20.1 
			66,10.8 59.8,8 		"/>
		<polygon fill="#00DCEC" points="53.5,25.7 53.5,31.4 53.5,37.1 66,31.4 		"/>
	</g>
</g>
</svg>
