<?xml version="1.0" encoding="utf-8"?>
<!-- Generator: Adobe Illustrator 18.0.0, SVG Export Plug-In . SVG Version: 6.00 Build 0)  -->
<!DOCTYPE svg PUBLIC "-//W3C//DTD SVG 1.1//EN" "http://www.w3.org/Graphics/SVG/1.1/DTD/svg11.dtd">
<svg version="1.1" id="Layer_1" xmlns="http://www.w3.org/2000/svg" xmlns:xlink="http://www.w3.org/1999/xlink" x="0px" y="0px"
	 viewBox="0 0 400 400" enable-background="new 0 0 400 400" xml:space="preserve">
<g>
	<polygon points="58,108 58,127 58,229 58,320 89,334.2 120,320 120,256 182,228 182,182 120,210.3 120,154 182,126 182,80.1 
		151,66 	"/>
	<polygon fill="#76489D" points="120,154 120,182 120,210.3 182,182 	"/>
</g>
<g>
	<polygon points="222,108 222,127 222,229 222,320 253,334.2 284,320 284,256 346,228 346,182 284,210.3 284,154 346,126 346,80.1 
		315,66 	"/>
	<polygon fill="#76489D" points="284,154 284,182 284,210.3 346,182 	"/>
</g>
</svg>
