<?xml version="1.0" encoding="utf-8"?>
<!-- Generator: Adobe Illustrator 18.0.0, SVG Export Plug-In . SVG Version: 6.00 Build 0)  -->
<!DOCTYPE svg PUBLIC "-//W3C//DTD SVG 1.1//EN" "http://www.w3.org/Graphics/SVG/1.1/DTD/svg11.dtd">
<svg version="1.1" xmlns="http://www.w3.org/2000/svg" xmlns:xlink="http://www.w3.org/1999/xlink" x="0px" y="0px"
	 viewBox="0 0 775.1 394.3" enable-background="new 0 0 775.1 394.3" xml:space="preserve">
<g id="Layer_3" display="none">
	
		<text transform="matrix(1 0 0 1 288 773.8799)" display="inline" fill="#010101" font-family="'MyriadPro-Regular'" font-size="12">https://www.google.com/search?q=muxtape&amp;source=lnms&amp;tbm=isch&amp;sa=X&amp;ei=ifAqVPbNF9GmyATzpIHoAg&amp;ved=0CAoQ_AUoAw&amp;biw=1305&amp;bih=733</text>
	<path display="inline" fill="#FFFFFF" stroke="#231F20" stroke-width="2" stroke-miterlimit="10" d="M189.3,335.2
		c-2.9,0-5.3-2.4-5.3-5.3v-87.4c0-2.9,2.4-5.3,5.3-5.3l115.7-0.1c2.9,0,5.3,2.4,5.3,5.3v87.4c0,2.9-2.4,5.3-5.3,5.3L189.3,335.2
		L189.3,335.2z"/>
	<path display="inline" fill="#00B1BE" d="M305,332.2l-115.7,0.1c-1.3,0-2.3-1.1-2.3-2.3v-87.4c0-1.3,1.1-2.3,2.3-2.3L305,240
		c1.3,0,2.3,1.1,2.3,2.3v87.4C307.3,331.1,306.3,332.2,305,332.2z"/>
	<g display="inline">
		<linearGradient id="SVGID_1_" gradientUnits="userSpaceOnUse" x1="228.0255" y1="286.152" x2="245.7036" y2="286.152">
			<stop  offset="0" style="stop-color:#FFFFFF"/>
			<stop  offset="0.5" style="stop-color:#D2D3D4"/>
			<stop  offset="1" style="stop-color:#FFFFFF"/>
		</linearGradient>
		<path fill="url(#SVGID_1_)" d="M228,295.3V293c3.6,0,5.6-4.6,6.6-7.1c0.1-0.3,0.3-0.6,0.4-0.8c1-2.2,5.4-8.1,10.7-8.1v2.3
			c-3.9,0-7.7,4.9-8.6,6.8c-0.1,0.2-0.2,0.5-0.3,0.8C235.5,289.6,233.1,295.3,228,295.3z"/>
		<path fill="none" stroke="#FFFFFF" stroke-width="1.5" stroke-miterlimit="10" d="M255.5,284.3"/>
		<linearGradient id="SVGID_2_" gradientUnits="userSpaceOnUse" x1="245.7036" y1="285.791" x2="266.9188" y2="285.791">
			<stop  offset="0" style="stop-color:#FFFFFF"/>
			<stop  offset="0.5" style="stop-color:#D2D3D4"/>
			<stop  offset="1" style="stop-color:#FFFFFF"/>
		</linearGradient>
		<path fill="url(#SVGID_2_)" d="M266.3,294.6c-4.7,0-9.5-5.9-11.7-8.5l-0.3-0.4c-0.2-0.2-0.4-0.5-0.6-0.8c-1.7-2.1-4.5-5.7-8-5.7
			V277c4.6,0,7.8,4.1,9.8,6.5c0.2,0.3,0.4,0.5,0.6,0.7l0.4,0.4c1.6,2,6.6,8,10.3,7.6l0.2,2.2C266.7,294.6,266.5,294.6,266.3,294.6z"
			/>
		<path fill="#FFFFFF" d="M228,295.3c-4.9,0-9.5-5.1-9.5-9.1c0-2,1.1-4.3,2.9-6c1.9-1.9,4.3-2.9,6.6-2.9c5.3,0,7.8,4.2,9.8,7.6
			c0.6,1,1.2,1.9,1.7,2.7c2.4,3.2,6.3,4.6,7.5,4.6c1.4,0,2.1,0,4-0.9c1.8-0.9,4.1-4.4,5.5-6.5c1.7-2.7,6.5-7.5,10.6-7.3
			c4.2,0.2,8.2,5.1,8.6,8.9c0.4,3.9-3.6,7.6-8.9,8.2l-0.2-2.2c3.9-0.4,7.1-3.1,6.9-5.7c-0.3-2.8-3.5-6.8-6.5-6.9
			c-2.9-0.1-7.1,3.9-8.5,6.2c-1.7,2.6-4.1,6.3-6.5,7.4c-2.4,1.1-3.4,1.1-5,1.1c-1.8,0-6.3-1.6-9.3-5.5c-0.7-0.9-1.3-1.8-1.9-2.9
			c-1.9-3.2-3.9-6.5-7.9-6.5c0,0,0,0-0.1,0c-2.4,0-4.1,1.4-5,2.2c-1.4,1.3-2.2,3.1-2.2,4.4c0,2.6,3.5,6.9,7.3,6.9V295.3z"/>
	</g>
	<path display="inline" fill="#FFFFFF" stroke="#231F20" stroke-width="2" stroke-miterlimit="10" d="M176.7,315.8
		c-16.3,0-29.6-13.3-29.6-29.6s13.3-29.6,29.6-29.6c16.3,0,29.6,13.3,29.6,29.6S193,315.8,176.7,315.8z"/>
	<circle display="inline" fill="#231F20" cx="176.7" cy="286.2" r="26.7"/>
	<radialGradient id="SVGID_3_" cx="176.6964" cy="286.1412" r="20.7497" gradientUnits="userSpaceOnUse">
		<stop  offset="0" style="stop-color:#04B1BF"/>
		<stop  offset="1" style="stop-color:#04B1BF;stop-opacity:0"/>
	</radialGradient>
	<circle display="inline" fill="url(#SVGID_3_)" cx="176.7" cy="286.1" r="20.7"/>
	<circle display="inline" fill="#FFFFFF" cx="176.7" cy="286.1" r="2.5"/>
	<g display="inline" opacity="0.6">
		<path fill="#FFFFFF" d="M185.9,271.8c-7-3.6-11.5-3.6-18.5,0c-0.8-1.7-1.3-2.5-2.1-4.2c8.6-4.4,14.2-4.4,22.8,0
			C187.2,269.3,186.8,270.1,185.9,271.8z"/>
	</g>
	<g display="inline" opacity="0.4">
		<path fill="#FFFFFF" d="M194.9,282c-0.8-4.3-2.2-6.2-5.8-8.5c1-1.5,1.5-2.3,2.6-3.8c4.3,3.2,5.7,5.7,6.6,10.8
			C197,281.2,196.3,281.5,194.9,282z"/>
	</g>
	<g display="inline" opacity="0.4">
		<path fill="#D2D3D4" d="M163.7,273.6c-3.7,2.5-5.3,4.5-6.5,9.2c-1.4-0.2-2.2-0.3-3.6-0.5c0.9-5.8,2.5-8.6,7-12.4
			C161.8,271.4,162.4,272.1,163.7,273.6z"/>
	</g>
	<g display="inline" opacity="0.4">
		<path fill="#D2D3D4" d="M180,277.7c-2.7-0.6-4-0.6-6.7-0.3c-1.4-1.5-2.2-2.2-4-3.4c5.2-1.5,8.1-1.5,13.3,0
			C181.5,275.5,181,276.3,180,277.7z"/>
	</g>
	<g display="inline" opacity="0.4">
		<path fill="#D2D3D4" d="M186.1,283c-1.1-1.2-1.7-1.7-2.9-2.7c1.1-1.4,1.7-2.1,2.8-3.5c2,1.6,2.9,2.5,4.5,4.4
			C188.6,281.8,187.8,282.2,186.1,283z"/>
	</g>
	<g display="inline" opacity="0.4">
		<path fill="#D2D3D4" d="M169.7,281.7c-0.7,0.7-1,1-1.6,1.8c-1.6-1.2-2.5-1.8-4.1-3c0.8-1.1,1.3-1.6,2.3-2.5
			C167.6,279.5,168.3,280.2,169.7,281.7z"/>
	</g>
	<path display="inline" fill="#FFFFFF" stroke="#231F20" stroke-width="2" stroke-miterlimit="10" d="M295.1,320.7
		c-2.5,0-4.6-2-4.6-4.6v-60c0-2.5,2-4.6,4.6-4.6h58.8v69.1H295.1z"/>
	<path display="inline" fill="#231F20" d="M349.4,254.5h-49.2h-5.1c-0.9,0-1.7,0.7-1.7,1.7v60c0,0.9,0.7,1.7,1.7,1.7h5.1h49.2h1.7
		v-1.7v-60v-1.7H349.4z"/>
	<rect x="323.2" y="287.5" display="inline" fill="#04B1BF" width="18.4" height="5.9"/>
	<rect x="305.1" y="287.4" display="inline" fill="#FFFFFF" width="16" height="5.9"/>
	<circle display="inline" fill="#FFFFFF" cx="305.1" cy="290.4" r="2.9"/>
	<rect x="323.2" y="295.3" display="inline" fill="#FFFFFF" width="18.4" height="5.9"/>
	<rect x="305.1" y="295.3" display="inline" fill="#04B1BF" width="16" height="5.9"/>
	<circle display="inline" fill="#04B1BF" cx="305.1" cy="298.2" r="2.9"/>
	<rect x="323.2" y="303.2" display="inline" fill="#FFFFFF" width="18.4" height="5.9"/>
	<rect x="305.1" y="303.2" display="inline" fill="#04B1BF" width="16" height="5.9"/>
	<circle display="inline" fill="#04B1BF" cx="305.1" cy="306.2" r="2.9"/>
	<path display="inline" fill="#04B1BF" d="M307.7,268.8v-3.2h2v-2.4h-2c-1.3,0-2.3,1-2.3,2.3v3.2H307.7z"/>
	<path display="inline" fill="#04B1BF" d="M307.7,278.1h-2.4v3.2c0,1.3,1,2.3,2.3,2.3h2v-2.4h-2V278.1z"/>
	<rect x="305.4" y="270.1" display="inline" fill="#FFFFFF" width="2.4" height="6.6"/>
	<path display="inline" fill="#04B1BF" d="M339,268.8h2.4v-3.2c0-1.3-1-2.3-2.3-2.3h-2v2.4h2V268.8z"/>
	<path display="inline" fill="#04B1BF" d="M339,278.1v3.2h-2v2.4h2c1.3,0,2.3-1,2.3-2.3v-3.2H339z"/>
	<rect x="339" y="270.1" display="inline" fill="#FFFFFF" width="2.4" height="6.6"/>
	<line display="inline" fill="none" stroke="#04B1BF" stroke-miterlimit="10" x1="311" y1="271.2" x2="311" y2="275.9"/>
	<line display="inline" fill="none" stroke="#04B1BF" stroke-miterlimit="10" x1="312.9" y1="269.8" x2="312.9" y2="277.3"/>
	<line display="inline" fill="none" stroke="#04B1BF" stroke-miterlimit="10" x1="314.7" y1="268.6" x2="314.7" y2="278.5"/>
	<line display="inline" fill="none" stroke="#04B1BF" stroke-miterlimit="10" x1="316.6" y1="267" x2="316.6" y2="280.1"/>
	<line display="inline" fill="none" stroke="#04B1BF" stroke-miterlimit="10" x1="318.5" y1="268.6" x2="318.5" y2="278.5"/>
	<line display="inline" fill="none" stroke="#04B1BF" stroke-miterlimit="10" x1="320.3" y1="268.6" x2="320.3" y2="278.5"/>
	<line display="inline" fill="none" stroke="#04B1BF" stroke-miterlimit="10" x1="322.3" y1="267" x2="322.3" y2="280.1"/>
	<line display="inline" fill="none" stroke="#04B1BF" stroke-miterlimit="10" x1="324" y1="265.6" x2="324" y2="281.5"/>
	<line display="inline" fill="none" stroke="#04B1BF" stroke-miterlimit="10" x1="325.9" y1="267" x2="325.9" y2="280.1"/>
	<line display="inline" fill="none" stroke="#04B1BF" stroke-miterlimit="10" x1="327.8" y1="268" x2="327.8" y2="279.1"/>
	<line display="inline" fill="none" stroke="#04B1BF" stroke-miterlimit="10" x1="329.6" y1="269.3" x2="329.6" y2="277.7"/>
	<line display="inline" fill="none" stroke="#04B1BF" stroke-miterlimit="10" x1="331.5" y1="270.7" x2="331.5" y2="276.4"/>
	<line display="inline" fill="none" stroke="#04B1BF" stroke-miterlimit="10" x1="333.3" y1="269.3" x2="333.3" y2="277.7"/>
	<line display="inline" fill="none" stroke="#04B1BF" stroke-miterlimit="10" x1="335.2" y1="270.9" x2="335.2" y2="276.2"/>
	<line display="inline" fill="none" stroke="#04B1BF" stroke-miterlimit="10" x1="337" y1="272.5" x2="337" y2="274.6"/>
</g>
<g id="Layer_1">
	<g>
		<path fill="#FFFFFF" d="M163.8,375.1c-10.5,0-19-8.5-19-19v-316c0-10.5,8.5-19,19-19l418-0.4c10.5,0,19,8.5,19,19v316
			c0,10.5-8.5,19-19,19L163.8,375.1L163.8,375.1z"/>
		<path fill="#231F20" d="M163.8,378.7L163.8,378.7c-12.5,0-22.6-10.1-22.6-22.6v-316c0-12.5,10.2-22.6,22.6-22.6l418-0.4
			c12.5,0,22.6,10.1,22.6,22.6v316c0,12.5-10.1,22.6-22.6,22.6L163.8,378.7z M581.8,24.3l-418,0.4c-8.5,0-15.4,6.9-15.4,15.4v316
			c0,8.5,6.9,15.4,15.4,15.4v3.6l0-3.6l418-0.4c8.5,0,15.4-6.9,15.4-15.4v-316C597.2,31.3,590.3,24.3,581.8,24.3z"/>
	</g>
	<path fill="#4FC6DB" d="M581.8,364.2l-418,0.4c-4.7,0-8.5-3.8-8.5-8.5v-316c0-4.7,3.8-8.5,8.5-8.5l418-0.4c4.7,0,8.5,3.8,8.5,8.5
		v316C590.3,360.4,586.5,364.2,581.8,364.2z"/>
	<g>
		<linearGradient id="SVGID_4_" gradientUnits="userSpaceOnUse" x1="303.7027" y1="197.91" x2="367.5912" y2="197.91">
			<stop  offset="0" style="stop-color:#FFFFFF"/>
			<stop  offset="0.5" style="stop-color:#D2D3D4"/>
			<stop  offset="1" style="stop-color:#FFFFFF"/>
		</linearGradient>
		<path fill="url(#SVGID_4_)" d="M303.7,230.9v-8.1c12.9,0,20.1-16.7,24-25.7c0.5-1.1,0.9-2.1,1.3-3c3.6-7.8,19.4-29.2,38.6-29.2
			v8.1c-14,0-28,17.5-31.2,24.5c-0.4,0.8-0.8,1.7-1.2,2.8C330.9,210.3,322,230.9,303.7,230.9z"/>
		<path fill="none" stroke="#FFFFFF" stroke-width="1.5" stroke-miterlimit="10" d="M403.1,191.2"/>
		<linearGradient id="SVGID_5_" gradientUnits="userSpaceOnUse" x1="367.5912" y1="196.6055" x2="444.2627" y2="196.6055">
			<stop  offset="0" style="stop-color:#FFFFFF"/>
			<stop  offset="0.5" style="stop-color:#D2D3D4"/>
			<stop  offset="1" style="stop-color:#FFFFFF"/>
		</linearGradient>
		<path fill="url(#SVGID_5_)" d="M442.1,228.3c-16.9,0-34.4-21.3-42.1-30.7l-1.2-1.5c-0.7-0.8-1.4-1.7-2.2-2.7
			c-6.1-7.6-16.4-20.4-29-20.4v-8.1c16.5,0,28.3,14.7,35.3,23.5c0.8,1,1.5,1.8,2.1,2.6l1.3,1.5c5.9,7.2,24,29.1,37.1,27.6l0.9,8.1
			C443.5,228.3,442.8,228.3,442.1,228.3z"/>
		<path fill="#FFFFFF" d="M303.7,230.9c-17.8,0-34.5-18.6-34.5-33c0-7.1,4-15.4,10.5-21.8c6.8-6.8,15.4-10.4,24-10.4
			c19,0.2,28.2,15.4,35.6,27.6c2.2,3.6,4.2,6.9,6.3,9.7c8.8,11.6,22.9,16.5,27,16.5c5.2,0,7.6,0,14.6-3.3
			c6.7-3.1,14.9-15.9,19.8-23.5c6.3-9.8,23.7-27.2,38.3-26.4c15.1,0.7,29.7,18.3,31.1,32.3c1.4,14.2-12.9,27.5-32,29.6l-0.9-8.1
			c14.2-1.6,25.8-11.3,24.8-20.7c-1-10.2-12.8-24.4-23.3-24.9c-10.5-0.4-25.7,14.3-30.8,22.3c-6,9.3-14.7,22.8-23.5,26.9
			c-8.7,4-12.4,4-18,4c-6.4,0-22.8-5.8-33.5-19.7c-2.4-3.1-4.5-6.7-6.8-10.4c-7-11.6-14.2-23.5-28.7-23.6c-0.1,0-0.1,0-0.2,0
			c-8.6,0-14.9,5-18,8c-4.9,4.8-8,11.1-8,16c0,9.4,12.8,24.9,26.4,24.9V230.9z"/>
	</g>
	<g>
		<path fill="#FFFFFF" d="M118.2,305c-59.1,0-107.1-48-107.1-107.1s48-107.1,107.1-107.1c59.1,0,107.1,48,107.1,107.1
			S177.3,305,118.2,305z"/>
		<path fill="#231F20" d="M118.2,308.6c-61,0-110.7-49.7-110.7-110.7S57.2,87.2,118.2,87.2s110.7,49.7,110.7,110.7
			S179.2,308.6,118.2,308.6z M118.2,94.4c-57.1,0-103.5,46.4-103.5,103.5s46.4,103.5,103.5,103.5S221.7,255,221.7,197.9
			S175.3,94.4,118.2,94.4z"/>
	</g>
	<circle fill="#231F20" cx="118.2" cy="197.9" r="96.6"/>
	<radialGradient id="SVGID_6_" cx="118.2004" cy="197.871" r="74.989" gradientUnits="userSpaceOnUse">
		<stop  offset="0" style="stop-color:#4FC6DB"/>
		<stop  offset="1" style="stop-color:#04B1BF;stop-opacity:0"/>
	</radialGradient>
	<circle fill="url(#SVGID_6_)" cx="118.2" cy="197.9" r="75"/>
	<circle fill="#4FC6DB" cx="118.2" cy="197.9" r="9.2"/>
	<g opacity="0.6">
		<path fill="#FFFFFF" d="M151.5,145.9c-23.5-9.8-43.4-9.8-66.9,0c-3.1-6-4.6-9-7.7-15c28.5-12.2,53.8-12.2,82.3,0
			C156.1,136.9,154.6,139.9,151.5,145.9z"/>
	</g>
	<g opacity="0.4">
		<path fill="#FFFFFF" d="M183.9,182.8c-2.4-12.6-9.9-23.8-20.8-30.8c3.7-5.4,5.6-8.1,9.3-13.6c12.6,9.4,21.2,23.4,23.9,38.9
			C191.4,179.9,189,181,183.9,182.8z"/>
	</g>
	<g opacity="0.4">
		<path fill="#D2D3D4" d="M71.2,152.7C58.6,161,52.6,172.3,47.5,186c-5.2-0.8-7.8-1.2-13-2c4.4-18.8,11.5-31.4,25.2-44.9
			C64.3,144.5,66.6,147.2,71.2,152.7z"/>
	</g>
	<g opacity="0.4">
		<path fill="#D2D3D4" d="M130.3,167.5c-9.6-2-14.6-2.2-24.2-0.9c-5-5.3-8-7.8-14.6-12.1c15.7-4.6,32.5-4.6,48.2,0
			C135.5,159.5,133.6,162.1,130.3,167.5z"/>
	</g>
	<g opacity="0.4">
		<path fill="#D2D3D4" d="M152,186.5c-3.9-4.2-6.1-6.2-10.6-9.9c4.1-5,6.1-7.5,10.2-12.6c7.1,5.8,10.4,9,16.2,16
			C161.4,182.4,158.2,183.7,152,186.5z"/>
	</g>
	<g opacity="0.4">
		<path fill="#D2D3D4" d="M92.9,181.9c-2.6,2.4-3.8,3.7-5.9,6.5c-5.9-4.4-8.9-6.6-14.8-11c2.9-3.9,4.6-5.8,8.2-9.1
			C85.5,173.7,87.9,176.4,92.9,181.9z"/>
	</g>
	<g>
		<path fill="#FFFFFF" d="M546.2,322.8c-9.1,0-16.5-7.4-16.5-16.5V89.6c0-9.1,7.4-16.5,16.5-16.5h212.5v249.7H546.2z"/>
		<path fill="#231F20" d="M762.4,326.4H546.2c-11.1,0-20.1-9-20.1-20.1V89.6c0-11.1,9-20.1,20.1-20.1h216.1V326.4z M546.2,76.7
			c-7.1,0-12.9,5.8-12.9,12.9v216.7c0,7.1,5.8,12.9,12.9,12.9h208.9V76.7H546.2z"/>
	</g>
	<path fill="#231F20" d="M742.2,83.6H564.5h-18.3c-3.3,0-6,2.7-6,6v216.7c0,3.3,2.7,6,6,6h18.3h177.7h6v-6V89.6v-6H742.2z"/>
	<rect x="647.7" y="202.8" fill="#4FC6DB" width="66.4" height="21.2"/>
	<rect x="582.2" y="202.6" fill="#FFFFFF" width="57.8" height="21.2"/>
	<circle fill="#FFFFFF" cx="582.2" cy="213.2" r="10.6"/>
	<rect x="647.7" y="231" fill="#FFFFFF" width="66.4" height="21.2"/>
	<rect x="582.2" y="230.8" fill="#4FC6DB" width="57.8" height="21.2"/>
	<circle fill="#4FC6DB" cx="582.2" cy="241.4" r="10.6"/>
	<rect x="647.7" y="259.6" fill="#FFFFFF" width="66.4" height="21.2"/>
	<rect x="582.2" y="259.4" fill="#4FC6DB" width="57.8" height="21.2"/>
	<circle fill="#4FC6DB" cx="582.2" cy="270.2" r="10.6"/>
	<path fill="#4FC6DB" d="M591.8,135.2v-11.5h7.2V115h-7.4c-4.7,0-8.4,3.8-8.4,8.4v11.7H591.8z"/>
	<path fill="#4FC6DB" d="M591.8,168.9h-8.6v11.7c0,4.7,3.8,8.4,8.4,8.4h7.4v-8.6h-7.2V168.9z"/>
	<rect x="583.2" y="140.1" fill="#FFFFFF" width="8.6" height="24"/>
	<path fill="#4FC6DB" d="M704.9,135.2h8.6v-11.7c0-4.7-3.8-8.4-8.4-8.4h-7.4v8.6h7.2V135.2z"/>
	<path fill="#4FC6DB" d="M704.9,168.9v11.5h-7.2v8.6h7.4c4.7,0,8.4-3.8,8.4-8.4v-11.7H704.9z"/>
	<rect x="704.9" y="140.1" fill="#FFFFFF" width="8.6" height="24"/>
	<rect x="601.9" y="143.9" fill="#4FC6DB" width="3.6" height="16.9"/>
	<rect x="608.6" y="138.9" fill="#4FC6DB" width="3.6" height="26.9"/>
	<rect x="615.3" y="134.6" fill="#4FC6DB" width="3.6" height="35.6"/>
	<rect x="622" y="128.8" fill="#4FC6DB" width="3.6" height="47.1"/>
	<rect x="628.8" y="134.6" fill="#4FC6DB" width="3.6" height="35.6"/>
	<rect x="635.5" y="134.6" fill="#4FC6DB" width="3.6" height="35.6"/>
	<rect x="642.4" y="128.5" fill="#4FC6DB" width="3.6" height="47.6"/>
	<rect x="648.9" y="123.5" fill="#4FC6DB" width="3.6" height="57.7"/>
	<rect x="655.6" y="128.8" fill="#4FC6DB" width="3.6" height="47.3"/>
	<rect x="662.4" y="132.1" fill="#4FC6DB" width="3.6" height="40.4"/>
	<rect x="669.1" y="137.2" fill="#4FC6DB" width="3.6" height="30.4"/>
	<rect x="675.8" y="142.2" fill="#4FC6DB" width="3.6" height="20.3"/>
	<rect x="682.5" y="137.2" fill="#4FC6DB" width="3.6" height="30.4"/>
	<rect x="689.3" y="142.9" fill="#4FC6DB" width="3.6" height="18.9"/>
	<rect x="695.9" y="148.7" fill="#4FC6DB" width="3.6" height="7.4"/>
</g>
</svg>
