<?xml version="1.0" encoding="utf-8"?>
<!-- Generator: Adobe Illustrator 18.0.0, SVG Export Plug-In . SVG Version: 6.00 Build 0)  -->
<!DOCTYPE svg PUBLIC "-//W3C//DTD SVG 1.1//EN" "http://www.w3.org/Graphics/SVG/1.1/DTD/svg11.dtd">
<svg version="1.1" xmlns="http://www.w3.org/2000/svg" xmlns:xlink="http://www.w3.org/1999/xlink" x="0px" y="0px"
	 viewBox="0 0 270.7 468.6" enable-background="new 0 0 270.7 468.6" xml:space="preserve">
<g id="Layer_1" display="none">
	
		<rect x="0.7" y="-9.2" display="inline" fill="#FFFFFF" stroke="#231F20" stroke-width="0.25" stroke-miterlimit="10" width="270" height="441"/>
	
		<rect x="0.7" y="-9.2" display="inline" fill="#FFFFFF" stroke="#231F20" stroke-width="0.25" stroke-miterlimit="10" width="270" height="220.5"/>
	
		<rect x="0.7" y="211.3" display="inline" fill="#FFFFFF" stroke="#231F20" stroke-width="0.25" stroke-miterlimit="10" width="270" height="220.5"/>
	
		<rect x="0.7" y="-9.2" display="inline" fill="#FFFFFF" stroke="#231F20" stroke-width="0.25" stroke-miterlimit="10" width="270" height="110.2"/>
	
		<rect x="0.7" y="321.6" display="inline" fill="#FFFFFF" stroke="#231F20" stroke-width="0.25" stroke-miterlimit="10" width="270" height="110.2"/>
</g>
<g id="Layer_3">
</g>
<g id="Layer_2">
	<g>
		<rect x="172.1" y="95.2" fill="none" width="61.1" height="15"/>
		<line fill="none" stroke="#000000" stroke-miterlimit="10" x1="111" y1="117.5" x2="111" y2="65.2"/>
		<rect x="111" y="80.2" fill="none" width="61.1" height="15"/>
		<rect x="111" y="95.2" fill="none" width="61.1" height="15"/>
		<rect x="172.1" y="65.2" fill="none" width="61.1" height="15"/>
		<rect x="49.9" y="65.2" fill="none" width="61.1" height="15"/>
		<rect x="49.9" y="80.2" fill="none" width="61.1" height="15"/>
		<rect x="49.9" y="95.2" fill="none" width="61.1" height="15"/>
		<rect x="111" y="65.2" fill="none" width="61.1" height="15"/>
		<text transform="matrix(1 0 0 1 57.1451 59.4819)" fill="#231F20" font-family="'ChambersSansOT-BoldItalic'" font-size="7.3973">Temperature</text>
		
			<text transform="matrix(1 0 0 1 181.5797 59.4819)" fill="#231F20" font-family="'ChambersSansOT-BoldItalic'" font-size="7.3973">Wind Speed</text>
		
			<text transform="matrix(1 0 0 1 127.3478 59.4819)" fill="#231F20" font-family="'ChambersSansOT-BoldItalic'" font-size="7.3973">Rain %</text>
		<polyline fill="none" stroke="#000000" stroke-miterlimit="10" points="49.9,117.5 49.9,65.2 233.1,65.2 233.1,117.5 		"/>
		<line fill="none" stroke="#000000" stroke-miterlimit="10" x1="172.1" y1="65.2" x2="172.1" y2="117.5"/>
		<line fill="none" stroke="#231F20" stroke-miterlimit="10" x1="49.9" y1="80.2" x2="233.1" y2="80.2"/>
		<line fill="none" stroke="#231F20" stroke-miterlimit="10" x1="49.9" y1="95.2" x2="233.1" y2="95.2"/>
		<line fill="none" stroke="#231F20" stroke-miterlimit="10" x1="49.9" y1="110.2" x2="233.1" y2="110.2"/>
		
			<text transform="matrix(0 -1 1 0 43.3766 113.0853)" fill="#231F20" font-family="'ChambersSansOT-BoldItalic'" font-size="7.3973">Time of Day</text>
		<text transform="matrix(1 0 0 1 74.0777 75.2027)" fill="#231F20" font-family="'ChambersSansOT-Bold'" font-size="7.3973">62°</text>
		<text transform="matrix(1 0 0 1 74.3214 90.2032)" fill="#231F20" font-family="'ChambersSansOT-Bold'" font-size="7.3973">70°</text>
		<text transform="matrix(1 0 0 1 74.584 105.2031)" fill="#231F20" font-family="'ChambersSansOT-Bold'" font-size="7.3973">72°</text>
		<text transform="matrix(1 0 0 1 137.0753 75.2027)" fill="#231F20" font-family="'ChambersSansOT-Bold'" font-size="7.3973">30</text>
		<text transform="matrix(1 0 0 1 136.9674 90.2032)" fill="#231F20" font-family="'ChambersSansOT-Bold'" font-size="7.3973">40</text>
		<text transform="matrix(1 0 0 1 137.3785 105.2031)" fill="#231F20" font-family="'ChambersSansOT-Bold'" font-size="7.3973">70</text>
		<text transform="matrix(1 0 0 1 200.461 75.2027)" fill="#231F20" font-family="'ChambersSansOT-Bold'" font-size="7.3973">4</text>
		<text transform="matrix(1 0 0 1 200.8712 90.2032)" fill="#231F20" font-family="'ChambersSansOT-Bold'" font-size="7.3973">7</text>
		<text transform="matrix(1 0 0 1 200.213 105.2031)" fill="#231F20" font-family="'ChambersSansOT-Bold'" font-size="7.3973">8</text>
		<rect x="172.1" y="80.2" fill="none" width="61.1" height="15"/>
	</g>
	<g>
		<polyline fill="none" stroke="#00DCEC" stroke-width="9" stroke-miterlimit="10" points="114,216.5 137.2,215.6 160.3,215.6 
			183.5,217.3 		"/>
		<rect x="132.9" y="166.1" fill="#00DCEC" width="7.2" height="7.2"/>
		<polyline fill="none" stroke="#00DCEC" stroke-width="9" stroke-miterlimit="10" points="114,197.2 137.1,192.2 160.3,193.1 
			183.5,193.1 206.6,193.1 217.1,197.6 		"/>
		<g>
			
				<text transform="matrix(1 0 0 1 39.2591 175.2544)" fill="#231F20" font-family="'ChambersSansOT-BoldItalic'" font-size="7.3973">Temp</text>
		</g>
		<g>
			
				<text transform="matrix(1 0 0 1 39.2591 200.2939)" fill="#231F20" font-family="'ChambersSansOT-BoldItalic'" font-size="7.3973">Rain</text>
		</g>
		<g>
			
				<text transform="matrix(1 0 0 1 39.2591 225.3334)" fill="#231F20" font-family="'ChambersSansOT-BoldItalic'" font-size="7.3973">Wind</text>
		</g>
		<polyline fill="none" stroke="#231F20" stroke-width="2" stroke-miterlimit="10" points="66.8,226.3 90,220.6 113.2,216.5 
			136.3,215.6 159.5,215.6 182.7,217.3 205.9,223 229,221.4 		"/>
		<polyline fill="none" stroke="#231F20" stroke-width="2" stroke-miterlimit="10" points="66.8,205.4 90,200.5 113.2,197.2 
			136.3,192.2 159.5,193.1 182.7,193.1 205.9,193.1 229,202.1 		"/>
		<polyline fill="none" stroke="#231F20" stroke-width="2" stroke-miterlimit="10" points="66.8,179.5 90,177.9 113.2,174.6 
			136.3,169.7 159.5,172.1 182.7,174.6 205.9,177.9 229,180.4 		"/>
		<g>
			<text transform="matrix(1 0 0 1 139.8479 163.0322)" fill="#00DCEC" font-family="'ChambersSansOT-Bold'" font-size="6.5754">high 72̊°</text>
		</g>
		<g>
			<text transform="matrix(1 0 0 1 141.3733 186.4951)" fill="#00DCEC" font-family="'ChambersSansOT-Bold'" font-size="6.5754">above 50% chance</text>
		</g>
		<g>
			<text transform="matrix(1 0 0 1 141.9783 209.2344)" fill="#00DCEC" font-family="'ChambersSansOT-Bold'" font-size="6.5754">above 5 mph</text>
		</g>
	</g>
	<g>
		<g>
			<text transform="matrix(1 0 0 1 45.7928 281.4232)" fill="#00DCEC" font-family="'ChambersSansOT-Bold'" font-size="7.3973">high 72°</text>
		</g>
		<g>
			<text transform="matrix(1 0 0 1 45.7928 297.0034)"><tspan x="0" y="0" fill="#00DCEC" font-family="'ChambersSansOT-Bold'" font-size="7.3973">over 50% </tspan><tspan x="0" y="8.9" fill="#00DCEC" font-family="'ChambersSansOT-Bold'" font-size="7.3973">chance of rain</tspan></text>
		</g>
		<g>
			<text transform="matrix(1 0 0 1 45.7928 319.9868)"><tspan x="0" y="0" fill="#00DCEC" font-family="'ChambersSansOT-Bold'" font-size="7.3973">over 5 mph</tspan><tspan x="0" y="8.9" fill="#00DCEC" font-family="'ChambersSansOT-Bold'" font-size="7.3973">wind</tspan></text>
		</g>
		<g>
			<text transform="matrix(1 0 0 1 123.4823 281.4232)" fill="#231F20" font-family="'ChambersSansOT-Bold'" font-size="7.3973">a warm day, with a high of 72°</text>
		</g>
		<g>
			<text transform="matrix(1 0 0 1 123.4823 297.0034)"><tspan x="0" y="0" fill="#231F20" font-family="'ChambersSansOT-Bold'" font-size="7.3973">grab an umbrella, it’s going</tspan><tspan x="0" y="8.9" fill="#231F20" font-family="'ChambersSansOT-Bold'" font-size="7.3973">to be wet out there</tspan></text>
		</g>
		<g>
			<text transform="matrix(1 0 0 1 123.4822 319.9868)"><tspan x="0" y="0" fill="#231F20" font-family="'ChambersSansOT-Bold'" font-size="7.3973">hold onto your hat, it’s going</tspan><tspan x="0" y="8.9" fill="#231F20" font-family="'ChambersSansOT-Bold'" font-size="7.3973">to be a very windy day</tspan></text>
		</g>
		<g>
			<path fill="#00DCEC" d="M110.1,281.9l2-2h-10.8c0,0-0.1,0-0.1-0.1V279c0,0,0-0.1,0.1-0.1h10.8l-2-2c0,0,0-0.1,0-0.1
				c0,0,0-0.1,0.1-0.1h1.1c0.1,0,0.2,0.1,0.3,0.1l2.3,2.3c0.1,0.1,0.1,0.1,0.1,0.1c0,0,0,0.1-0.1,0.1l-2.3,2.3
				c-0.1,0.1-0.1,0.1-0.3,0.1h-1.1C110,282.1,110,282,110.1,281.9C110,282,110,281.9,110.1,281.9z"/>
		</g>
		<g>
			<path fill="#00DCEC" d="M110.1,297.5l2-2h-10.8c0,0-0.1,0-0.1-0.1v-0.9c0,0,0-0.1,0.1-0.1h10.8l-2-2c0,0,0-0.1,0-0.1
				c0,0,0-0.1,0.1-0.1h1.1c0.1,0,0.2,0.1,0.3,0.1l2.3,2.3c0.1,0.1,0.1,0.1,0.1,0.1c0,0,0,0.1-0.1,0.1l-2.3,2.3
				c-0.1,0.1-0.1,0.1-0.3,0.1h-1.1C110,297.6,110,297.6,110.1,297.5C110,297.5,110,297.5,110.1,297.5z"/>
		</g>
		<g>
			<path fill="#00DCEC" d="M110.1,320.5l2-2h-10.8c0,0-0.1,0-0.1-0.1v-0.9c0,0,0-0.1,0.1-0.1h10.8l-2-2c0,0,0-0.1,0-0.1
				c0,0,0-0.1,0.1-0.1h1.1c0.1,0,0.2,0.1,0.3,0.1l2.3,2.3c0.1,0.1,0.1,0.1,0.1,0.1c0,0,0,0.1-0.1,0.1l-2.3,2.3
				c-0.1,0.1-0.1,0.1-0.3,0.1h-1.1C110,320.6,110,320.6,110.1,320.5C110,320.5,110,320.5,110.1,320.5z"/>
		</g>
	</g>
	<g>
		<rect x="47.6" y="390.7" fill="#00DCEC" width="111.9" height="11.8"/>
		<rect x="162.7" y="390.7" fill="#00DCEC" width="66.3" height="11.8"/>
		<rect x="62.7" y="406.2" fill="#00DCEC" width="68.6" height="11.8"/>
		<rect x="134.8" y="406.2" fill="#00DCEC" width="76.5" height="11.8"/>
		<rect x="47.6" y="421.4" fill="#00DCEC" width="58.6" height="11.8"/>
		<g>
			<path fill="#231F20" d="M55.9,398.6c0.1,0.2,0.1,0.3,0.1,0.4c0,0.1,0,0.1-0.1,0.1h-0.6c-0.1,0-0.1,0-0.2-0.1l-0.4-1.2h-2.1
				l-0.4,1.2c0,0.1-0.1,0.1-0.2,0.1h-0.6c-0.1,0-0.1,0-0.1-0.1c0,0,0-0.1,0-0.1l1.7-5c0-0.1,0.1-0.1,0.1-0.1h1.1
				c0.1,0,0.1,0,0.1,0.1L55.9,398.6z M52.8,397h1.7l-0.8-2.6L52.8,397z"/>
			<path fill="#231F20" d="M62.3,399c0,0,0,0.1-0.1,0.1h-0.9c-0.1,0-0.1,0-0.1-0.1l-0.4-1.2c-0.1-0.3-0.2-0.7-0.3-0.9
				c0,0.3-0.2,0.6-0.3,0.9l-0.4,1.2c0,0,0,0.1-0.1,0.1h-0.9c-0.1,0-0.1,0-0.1-0.1l-0.7-3.3c0-0.1,0-0.2,0-0.2c0-0.1,0-0.1,0.1-0.1
				h0.6c0.1,0,0.1,0,0.1,0.1l0.4,2c0.1,0.3,0.1,0.8,0.1,1l0.7-2.2c0-0.1,0.1-0.1,0.1-0.1h0.7c0.1,0,0.1,0,0.1,0.1l0.7,2.2
				c0-0.3,0-0.7,0.1-1l0.4-2c0-0.1,0.1-0.1,0.1-0.1h0.6c0.1,0,0.1,0,0.1,0.1c0,0,0,0.1,0,0.2L62.3,399z"/>
			<path fill="#231F20" d="M67,399C67,399.1,67,399.1,67,399l-0.7,0.1c0,0-0.1,0-0.1-0.1v-0.8l-0.3,0.4c-0.3,0.3-0.5,0.6-1.1,0.6
				h-0.1c-0.7,0-1.1-0.4-1.1-1.1v-1.3c0-1,0.6-1.4,1.4-1.4h0.1c0.4,0,0.9,0.2,1.1,0.3v-0.1c0,0,0-0.1,0.1-0.1h0.6c0,0,0.1,0,0.1,0.1
				V399z M66.2,396.3c-0.2-0.1-0.6-0.3-1-0.3h-0.1c-0.4,0-0.7,0.3-0.7,0.7v1.4c0,0.3,0.2,0.4,0.4,0.4h0.1c0.3,0,0.5-0.2,0.7-0.5
				l0.6-0.7V396.3z"/>
			<path fill="#231F20" d="M71,395.8C71,395.8,71,395.8,71,395.8l-0.5,0.5c0,0,0,0-0.1,0c0,0,0,0-0.1,0c-0.1-0.1-0.2-0.2-0.4-0.2H70
				c-0.2,0-0.3,0.2-0.5,0.4l-0.5,0.7v1.8c0,0,0,0.1-0.1,0.1h-0.6c0,0-0.1,0-0.1-0.1v-3.5c0,0,0-0.1,0.1-0.1h0.6c0,0,0.1,0,0.1,0.1
				v0.8l0.3-0.4c0.3-0.3,0.5-0.6,0.9-0.6h0.1C70.5,395.3,70.8,395.5,71,395.8C71,395.8,71,395.8,71,395.8z"/>
			<path fill="#231F20" d="M76.8,399C76.8,399.1,76.8,399.1,76.8,399l-0.7,0.1c0,0-0.1,0-0.1-0.1v-2.6c0-0.3-0.1-0.4-0.3-0.4h0
				c-0.2,0-0.4,0.2-0.6,0.5l-0.5,0.6v1.9c0,0,0,0.1-0.1,0.1h-0.6c0,0-0.1,0-0.1-0.1v-2.6c0-0.3-0.1-0.4-0.3-0.4h0
				c-0.2,0-0.4,0.2-0.6,0.5l-0.5,0.6v1.9c0,0,0,0.1-0.1,0.1h-0.6c0,0-0.1,0-0.1-0.1v-3.5c0,0,0-0.1,0.1-0.1h0.6c0,0,0.1,0,0.1,0.1
				v0.7l0.3-0.3c0.3-0.3,0.5-0.6,1-0.6h0.1c0.6,0,0.9,0.4,0.9,0.9l0.3-0.3c0.3-0.3,0.5-0.6,1-0.6h0.1c0.6,0,0.9,0.4,0.9,1.1V399z"/>
			<path fill="#231F20" d="M83,399C83,399.1,83,399.1,83,399l-0.7,0.1c0,0-0.1,0-0.1-0.1v-0.8l-0.3,0.4c-0.3,0.3-0.5,0.6-1.1,0.6
				h-0.1c-0.7,0-1.1-0.4-1.1-1.1v-1.3c0-1,0.6-1.4,1.4-1.4h0.1c0.4,0,0.9,0.2,1.1,0.3v-1.8c0,0,0-0.1,0.1-0.1H83c0,0,0.1,0,0.1,0.1
				V399z M82.2,396.3c-0.2-0.1-0.6-0.3-1-0.3h-0.1c-0.4,0-0.7,0.3-0.7,0.7v1.4c0,0.3,0.2,0.4,0.4,0.4h0.1c0.3,0,0.5-0.2,0.7-0.5
				l0.6-0.7V396.3z"/>
			<path fill="#231F20" d="M87.4,399C87.4,399.1,87.3,399.1,87.4,399l-0.7,0.1c0,0-0.1,0-0.1-0.1v-0.8l-0.3,0.4
				c-0.3,0.3-0.5,0.6-1.1,0.6H85c-0.7,0-1.1-0.4-1.1-1.1v-1.3c0-1,0.6-1.4,1.4-1.4h0.1c0.4,0,0.9,0.2,1.1,0.3v-0.1
				c0,0,0-0.1,0.1-0.1h0.6c0,0,0.1,0,0.1,0.1V399z M86.6,396.3c-0.2-0.1-0.6-0.3-1-0.3h-0.1c-0.4,0-0.7,0.3-0.7,0.7v1.4
				c0,0.3,0.2,0.4,0.4,0.4h0.1c0.3,0,0.5-0.2,0.7-0.5l0.6-0.7V396.3z"/>
			<path fill="#231F20" d="M90.4,398.8c-0.2,0.5-0.4,0.8-0.8,1.1l-0.6,0.5c0,0,0,0-0.1,0c0,0,0,0-0.1,0l-0.4-0.4c0,0,0,0,0-0.1
				c0,0,0,0,0-0.1l0.6-0.5c0.2-0.2,0.4-0.3,0.5-0.6l0,0l-1.4-3.3c0,0,0,0,0-0.1c0,0,0-0.1,0.1-0.1h0.6c0.1,0,0.1,0,0.1,0.1l0.7,1.7
				c0.1,0.3,0.2,0.6,0.2,0.9l0.8-2.5c0-0.1,0.1-0.1,0.1-0.1h0.6c0.1,0,0.1,0,0.1,0.1c0,0,0,0,0,0.1L90.4,398.8z"/>
			<path fill="#231F20" d="M92.7,399c0,0.1,0,0.2-0.1,0.3l-0.4,0.7c0,0,0,0.1-0.1,0.1h-0.3c0,0-0.1,0-0.1-0.1v-1.6
				c0,0,0-0.1,0.1-0.1h0.7c0,0,0.1,0,0.1,0.1V399z"/>
			<path fill="#231F20" d="M99.6,399c0,0,0,0.1-0.1,0.1h-0.9c-0.1,0-0.1,0-0.1-0.1l-0.4-1.2c-0.1-0.3-0.2-0.7-0.3-0.9
				c0,0.3-0.2,0.6-0.3,0.9l-0.4,1.2c0,0,0,0.1-0.1,0.1h-0.9c-0.1,0-0.1,0-0.1-0.1l-0.7-3.3c0-0.1,0-0.2,0-0.2c0-0.1,0-0.1,0.1-0.1
				h0.6c0.1,0,0.1,0,0.1,0.1l0.4,2c0.1,0.3,0.1,0.8,0.1,1l0.7-2.2c0-0.1,0.1-0.1,0.1-0.1h0.7c0.1,0,0.1,0,0.1,0.1l0.7,2.2
				c0-0.3,0-0.7,0.1-1l0.4-2c0-0.1,0.1-0.1,0.1-0.1h0.6c0.1,0,0.1,0,0.1,0.1c0,0,0,0.1,0,0.2L99.6,399z"/>
			<path fill="#231F20" d="M102.4,399C102.4,399.1,102.3,399.1,102.4,399l-0.7,0.1c0,0-0.1,0-0.1-0.1v-2.9l-0.8-0.2
				c0,0-0.1,0-0.1-0.1v-0.4c0,0,0-0.1,0.1-0.1h1.5c0,0,0.1,0,0.1,0.1V399z M102.5,394.4C102.5,394.4,102.4,394.5,102.5,394.4
				l-0.9,0.1c0,0-0.1,0-0.1-0.1v-0.7c0,0,0-0.1,0.1-0.1h0.8c0,0,0.1,0,0.1,0.1V394.4z"/>
			<path fill="#231F20" d="M105.4,399C105.4,399.1,105.4,399.1,105.4,399l-0.6,0.1c-0.7,0-1.1-0.4-1.1-1.1v-1.8L103,396
				c0,0-0.1,0-0.1-0.1v-0.5c0,0,0-0.1,0.1-0.1h0.7V395c0-0.1,0-0.1,0.1-0.2l0.5-0.3c0,0,0.1,0,0.1,0c0.1,0,0.1,0,0.1,0.1v0.8h0.9
				c0,0,0.1,0,0.1,0.1v0.6c0,0,0,0.1-0.1,0.1h-0.9v1.9c0,0.3,0.2,0.4,0.4,0.4h0.5c0,0,0.1,0,0.1,0.1V399z"/>
			<path fill="#231F20" d="M109.6,399C109.6,399.1,109.6,399.1,109.6,399l-0.7,0.1c0,0-0.1,0-0.1-0.1v-2.6c0-0.3-0.2-0.5-0.4-0.5
				h-0.1c-0.3,0-0.5,0.2-0.7,0.5l-0.6,0.7v1.9c0,0,0,0.1-0.1,0.1h-0.6c0,0-0.1,0-0.1-0.1v-5.2c0,0,0-0.1,0.1-0.1h0.6
				c0,0,0.1,0,0.1,0.1v2.5l0.3-0.4c0.3-0.4,0.6-0.6,1.1-0.6h0.1c0.7,0,1.1,0.4,1.1,1.1V399z"/>
			<path fill="#231F20" d="M115.8,399C115.8,399.1,115.8,399.1,115.8,399l-0.7,0.1c0,0-0.1,0-0.1-0.1v-0.8l-0.3,0.4
				c-0.3,0.3-0.5,0.6-1.1,0.6h-0.1c-0.7,0-1.1-0.4-1.1-1.1v-1.3c0-1,0.6-1.4,1.4-1.4h0.1c0.4,0,0.9,0.2,1.1,0.3v-0.1
				c0,0,0-0.1,0.1-0.1h0.6c0,0,0.1,0,0.1,0.1V399z M115,396.3c-0.2-0.1-0.6-0.3-1-0.3h-0.1c-0.4,0-0.7,0.3-0.7,0.7v1.4
				c0,0.3,0.2,0.4,0.4,0.4h0.1c0.3,0,0.5-0.2,0.7-0.5l0.6-0.7V396.3z"/>
			<path fill="#231F20" d="M122.2,399C122.2,399.1,122.1,399.1,122.2,399l-0.7,0.1c0,0-0.1,0-0.1-0.1v-2.6c0-0.3-0.2-0.5-0.4-0.5
				h-0.1c-0.3,0-0.5,0.2-0.7,0.5l-0.6,0.7v1.9c0,0,0,0.1-0.1,0.1h-0.6c0,0-0.1,0-0.1-0.1v-5.2c0,0,0-0.1,0.1-0.1h0.6
				c0,0,0.1,0,0.1,0.1v2.5l0.3-0.4c0.3-0.4,0.6-0.6,1.1-0.6h0.1c0.7,0,1.1,0.4,1.1,1.1V399z"/>
			<path fill="#231F20" d="M124.3,399C124.3,399.1,124.2,399.1,124.3,399l-0.7,0.1c0,0-0.1,0-0.1-0.1v-2.9l-0.8-0.2
				c0,0-0.1,0-0.1-0.1v-0.4c0,0,0-0.1,0.1-0.1h1.5c0,0,0.1,0,0.1,0.1V399z M124.4,394.4C124.4,394.4,124.3,394.5,124.4,394.4
				l-0.9,0.1c0,0-0.1,0-0.1-0.1v-0.7c0,0,0-0.1,0.1-0.1h0.8c0,0,0.1,0,0.1,0.1V394.4z"/>
			<path fill="#231F20" d="M128.6,399c0,0.9-0.6,1.5-1.7,1.5h-1.4c0,0-0.1,0-0.1-0.1v-0.5c0,0,0-0.1,0.1-0.1h1.3
				c0.6,0,1.1-0.2,1.1-0.8v-0.8l-0.3,0.4c-0.3,0.3-0.5,0.6-1.1,0.6h-0.1c-0.7,0-1.1-0.4-1.1-1.1v-1.3c0-1,0.6-1.4,1.4-1.4h0.1
				c0.4,0,0.9,0.2,1.1,0.3v-0.1c0,0,0-0.1,0.1-0.1h0.6c0,0,0.1,0,0.1,0.1V399z M127.8,396.3c-0.2-0.1-0.6-0.3-1-0.3h-0.1
				c-0.4,0-0.7,0.3-0.7,0.7v1.4c0,0.3,0.2,0.4,0.4,0.4h0.1c0.3,0,0.5-0.2,0.7-0.5l0.6-0.7V396.3z"/>
			<path fill="#231F20" d="M133.1,399C133.1,399.1,133,399.1,133.1,399l-0.7,0.1c0,0-0.1,0-0.1-0.1v-2.6c0-0.3-0.2-0.5-0.4-0.5h-0.1
				c-0.3,0-0.5,0.2-0.7,0.5l-0.6,0.7v1.9c0,0,0,0.1-0.1,0.1h-0.6c0,0-0.1,0-0.1-0.1v-5.2c0,0,0-0.1,0.1-0.1h0.6c0,0,0.1,0,0.1,0.1
				v2.5l0.3-0.4c0.3-0.4,0.6-0.6,1.1-0.6h0.1c0.7,0,1.1,0.4,1.1,1.1V399z"/>
			<path fill="#231F20" d="M139.3,397.8c0,0.9-0.6,1.4-1.5,1.4h-0.5c-0.8,0-1.5-0.5-1.5-1.4v-1.1c0-0.9,0.6-1.4,1.5-1.4h0.5
				c0.8,0,1.5,0.5,1.5,1.4V397.8z M138.5,396.7c0-0.5-0.3-0.7-0.8-0.7h-0.3c-0.5,0-0.8,0.2-0.8,0.7v1.1c0,0.5,0.3,0.7,0.8,0.7h0.3
				c0.5,0,0.8-0.2,0.8-0.7V396.7z"/>
			<path fill="#231F20" d="M142.5,394.3C142.5,394.3,142.4,394.4,142.5,394.3l-0.7,0.1c-0.2,0-0.4,0.2-0.4,0.4v0.6h0.8
				c0,0,0.1,0,0.1,0.1v0.6c0,0,0,0.1-0.1,0.1h-0.8v2.9c0,0,0,0.1-0.1,0.1h-0.6c0,0-0.1,0-0.1-0.1v-2.9l-0.8-0.2c0,0-0.1,0-0.1-0.1
				v-0.4c0,0,0-0.1,0.1-0.1h0.8v-0.6c0-0.7,0.4-1.1,1.1-1.1h0.7c0,0,0.1,0,0.1,0.1V394.3z"/>
			<path fill="#231F20" d="M147.8,394.6c0,0.1,0,0.1-0.1,0.1l-0.6,0.6c-0.8,0.8-1.3,1.4-1.3,3v0.7c0,0,0,0.1-0.1,0.1H145
				c0,0-0.1,0-0.1-0.1v-0.6c0-1.7,0.6-2.6,1.5-3.3l0.5-0.5h-2.5c0,0-0.1,0-0.1-0.1v-0.6c0,0,0-0.1,0.1-0.1h3.3c0,0,0.1,0,0.1,0.1
				V394.6z"/>
			<path fill="#231F20" d="M150.1,393.8c1.1,0,1.7,0.5,1.7,1.4v0.1c0,0.7-0.5,1.2-1.2,1.4c-0.2,0.1-0.6,0.2-1,0.3
				c-0.4,0.1-0.6,0.4-0.6,0.9v0.4h2.7c0,0,0.1,0,0.1,0.1v0.5c0,0,0,0.1-0.1,0.1h-3.4c-0.2,0-0.2-0.1-0.2-0.2V398
				c0-1.2,0.5-1.4,1.6-1.8c0.6-0.2,1.2-0.4,1.2-0.9v-0.1c0-0.5-0.3-0.7-0.9-0.7h-1.5c0,0-0.1,0-0.1-0.1v-0.5c0,0,0-0.1,0.1-0.1
				H150.1z"/>
			<path fill="#231F20" d="M154.4,396.5h-0.5c-0.7,0-1.3-0.5-1.3-1.3v-0.2c0-0.7,0.5-1.3,1.3-1.3h0.5c0.8,0,1.3,0.5,1.3,1.3v0.2
				C155.8,395.9,155.1,396.5,154.4,396.5z M155,395c0-0.4-0.3-0.7-0.7-0.7h-0.2c-0.4,0-0.7,0.3-0.7,0.7v0.1c0,0.4,0.2,0.7,0.7,0.7
				h0.2C154.7,395.8,155,395.5,155,395L155,395z"/>
			<path fill="#231F20" d="M157.7,399C157.7,399.1,157.7,399.1,157.7,399l-0.8,0.1c0,0-0.1,0-0.1-0.1v-0.7c0,0,0-0.1,0.1-0.1h0.7
				c0,0,0.1,0,0.1,0.1V399z"/>
			<path fill="#231F20" d="M170.1,399C170.1,399.1,170.1,399.1,170.1,399l-2.2,0.1c-1,0-1.7-0.7-1.7-1.7v-1.8c0-1.1,0.7-1.7,1.7-1.7
				h2.1c0,0,0.1,0,0.1,0.1v0.5c0,0,0,0.1-0.1,0.1h-2c-0.6,0-1,0.4-1,1v1.8c0,0.6,0.4,1,1,1h1.3v-1.5h-0.9c0,0-0.1,0-0.1-0.1v-0.5
				c0,0,0-0.1,0.1-0.1h1.6c0,0,0.1,0,0.1,0.1V399z"/>
			<path fill="#231F20" d="M174.1,395.8C174.1,395.8,174.1,395.8,174.1,395.8l-0.5,0.5c0,0,0,0-0.1,0c0,0,0,0-0.1,0
				c-0.1-0.1-0.2-0.2-0.4-0.2H173c-0.2,0-0.3,0.2-0.5,0.4l-0.5,0.7v1.8c0,0,0,0.1-0.1,0.1h-0.6c0,0-0.1,0-0.1-0.1v-3.5
				c0,0,0-0.1,0.1-0.1h0.6c0,0,0.1,0,0.1,0.1v0.8l0.3-0.4c0.3-0.3,0.5-0.6,0.9-0.6h0.1C173.6,395.3,173.9,395.5,174.1,395.8
				C174.1,395.8,174.1,395.8,174.1,395.8z"/>
			<path fill="#231F20" d="M177.8,399C177.8,399.1,177.7,399.1,177.8,399l-0.7,0.1c0,0-0.1,0-0.1-0.1v-0.8l-0.3,0.4
				c-0.3,0.3-0.5,0.6-1.1,0.6h-0.1c-0.7,0-1.1-0.4-1.1-1.1v-1.3c0-1,0.6-1.4,1.4-1.4h0.1c0.4,0,0.9,0.2,1.1,0.3v-0.1
				c0,0,0-0.1,0.1-0.1h0.6c0,0,0.1,0,0.1,0.1V399z M177,396.3c-0.2-0.1-0.6-0.3-1-0.3h-0.1c-0.4,0-0.7,0.3-0.7,0.7v1.4
				c0,0.3,0.2,0.4,0.4,0.4h0.1c0.3,0,0.5-0.2,0.7-0.5l0.6-0.7V396.3z"/>
			<path fill="#231F20" d="M178.8,393.8C178.8,393.7,178.9,393.7,178.8,393.8l0.7-0.1c0,0,0.1,0,0.1,0.1v2.5l0.3-0.4
				c0.3-0.3,0.5-0.6,1.1-0.6h0.1c0.7,0,1.1,0.4,1.1,1.1v1.3c0,0.9-0.6,1.4-1.5,1.4h-1.9c0,0-0.1,0-0.1-0.1V393.8z M179.6,398.4h1
				c0.5,0,0.8-0.2,0.8-0.7v-1.3c0-0.3-0.2-0.4-0.4-0.4H181c-0.3,0-0.5,0.2-0.7,0.5l-0.6,0.7V398.4z"/>
			<path fill="#231F20" d="M188.4,399C188.4,399.1,188.4,399.1,188.4,399l-0.7,0.1c0,0-0.1,0-0.1-0.1v-0.8l-0.3,0.4
				c-0.3,0.3-0.5,0.6-1.1,0.6h-0.1c-0.7,0-1.1-0.4-1.1-1.1v-1.3c0-1,0.6-1.4,1.4-1.4h0.1c0.4,0,0.9,0.2,1.1,0.3v-0.1
				c0,0,0-0.1,0.1-0.1h0.6c0,0,0.1,0,0.1,0.1V399z M187.6,396.3c-0.2-0.1-0.6-0.3-1-0.3h-0.1c-0.4,0-0.7,0.3-0.7,0.7v1.4
				c0,0.3,0.2,0.4,0.4,0.4h0.1c0.3,0,0.5-0.2,0.7-0.5l0.6-0.7V396.3z"/>
			<path fill="#231F20" d="M192.9,399C192.9,399.1,192.9,399.1,192.9,399l-0.7,0.1c0,0-0.1,0-0.1-0.1v-2.6c0-0.3-0.2-0.5-0.4-0.5
				h-0.1c-0.3,0-0.5,0.2-0.7,0.5l-0.6,0.7v1.9c0,0,0,0.1-0.1,0.1h-0.6c0,0-0.1,0-0.1-0.1v-3.5c0,0,0-0.1,0.1-0.1h0.6
				c0,0,0.1,0,0.1,0.1v0.8l0.3-0.4c0.3-0.4,0.6-0.6,1.1-0.6h0.1c0.7,0,1.1,0.4,1.1,1.1V399z"/>
			<path fill="#231F20" d="M195.8,395.5C195.8,395.4,195.8,395.4,195.8,395.5l0.7-0.1c0,0,0.1,0,0.1,0.1v2.6c0,0.3,0.2,0.5,0.4,0.5
				h0.1c0.3,0,0.5-0.2,0.7-0.5l0.6-0.7v-1.8c0,0,0-0.1,0.1-0.1h0.6c0,0,0.1,0,0.1,0.1v3.5c0,0,0,0.1-0.1,0.1h-0.6c0,0-0.1,0-0.1-0.1
				v-0.8l-0.3,0.4c-0.2,0.3-0.5,0.5-1,0.5h-0.1c-0.7,0-1.1-0.4-1.1-1.1V395.5z"/>
			<path fill="#231F20" d="M205.5,399C205.5,399.1,205.5,399.1,205.5,399l-0.7,0.1c0,0-0.1,0-0.1-0.1v-2.6c0-0.3-0.1-0.4-0.3-0.4h0
				c-0.2,0-0.4,0.2-0.6,0.5l-0.5,0.6v1.9c0,0,0,0.1-0.1,0.1h-0.6c0,0-0.1,0-0.1-0.1v-2.6c0-0.3-0.1-0.4-0.3-0.4h0
				c-0.2,0-0.4,0.2-0.6,0.5l-0.5,0.6v1.9c0,0,0,0.1-0.1,0.1h-0.6c0,0-0.1,0-0.1-0.1v-3.5c0,0,0-0.1,0.1-0.1h0.6c0,0,0.1,0,0.1,0.1
				v0.7l0.3-0.3c0.3-0.3,0.5-0.6,1-0.6h0.1c0.6,0,0.9,0.4,0.9,0.9l0.3-0.3c0.3-0.3,0.5-0.6,1-0.6h0.1c0.6,0,0.9,0.4,0.9,1.1V399z"/>
			<path fill="#231F20" d="M206.6,393.8C206.6,393.7,206.6,393.7,206.6,393.8l0.7-0.1c0,0,0.1,0,0.1,0.1v2.5l0.3-0.4
				c0.3-0.3,0.5-0.6,1.1-0.6h0.1c0.7,0,1.1,0.4,1.1,1.1v1.3c0,0.9-0.6,1.4-1.5,1.4h-1.9c0,0-0.1,0-0.1-0.1V393.8z M207.4,398.4h1
				c0.5,0,0.8-0.2,0.8-0.7v-1.3c0-0.3-0.2-0.4-0.4-0.4h-0.1c-0.3,0-0.5,0.2-0.7,0.5l-0.6,0.7V398.4z"/>
			<path fill="#231F20" d="M213.8,395.8C213.8,395.8,213.8,395.8,213.8,395.8l-0.5,0.5c0,0,0,0-0.1,0c0,0,0,0-0.1,0
				c-0.1-0.1-0.2-0.2-0.4-0.2h-0.1c-0.2,0-0.3,0.2-0.5,0.4l-0.5,0.7v1.8c0,0,0,0.1-0.1,0.1H211c0,0-0.1,0-0.1-0.1v-3.5
				c0,0,0-0.1,0.1-0.1h0.6c0,0,0.1,0,0.1,0.1v0.8l0.3-0.4c0.3-0.3,0.5-0.6,0.9-0.6h0.1C213.3,395.3,213.6,395.5,213.8,395.8
				C213.8,395.8,213.8,395.8,213.8,395.8z"/>
			<path fill="#231F20" d="M214.8,397.5v0.2c0,0.5,0.3,0.7,0.8,0.7h1.6c0,0,0.1,0,0.1,0.1v0.5c0,0,0,0.1-0.1,0.1h-1.7
				c-0.8,0-1.5-0.5-1.5-1.4v-1c0-0.9,0.6-1.4,1.5-1.4h0.5c0.8,0,1.5,0.5,1.5,1.3v0.4c0,0.1,0,0.1-0.1,0.2l-0.4,0.3
				c-0.1,0.1-0.1,0.1-0.2,0.1H214.8z M214.8,396.9h1.8v-0.2c0-0.5-0.3-0.7-0.8-0.7h-0.2c-0.5,0-0.8,0.2-0.8,0.7V396.9z"/>
			<path fill="#231F20" d="M220,399C220,399.1,219.9,399.1,220,399l-0.6,0.1c-0.7,0-1.1-0.4-1.1-1.1v-4.2c0,0,0-0.1,0.1-0.1h0.6
				c0,0,0.1,0,0.1,0.1v4.2c0,0.3,0.2,0.4,0.4,0.4h0.4c0,0,0.1,0,0.1,0.1V399z"/>
			<path fill="#231F20" d="M222.2,399C222.2,399.1,222.2,399.1,222.2,399l-0.6,0.1c-0.7,0-1.1-0.4-1.1-1.1v-4.2c0,0,0-0.1,0.1-0.1
				h0.6c0,0,0.1,0,0.1,0.1v4.2c0,0.3,0.2,0.4,0.4,0.4h0.4c0,0,0.1,0,0.1,0.1V399z"/>
			<path fill="#231F20" d="M226.2,399C226.2,399.1,226.1,399.1,226.2,399l-0.7,0.1c0,0-0.1,0-0.1-0.1v-0.8l-0.3,0.4
				c-0.3,0.3-0.5,0.6-1.1,0.6h-0.1c-0.7,0-1.1-0.4-1.1-1.1v-1.3c0-1,0.6-1.4,1.4-1.4h0.1c0.4,0,0.9,0.2,1.1,0.3v-0.1
				c0,0,0-0.1,0.1-0.1h0.6c0,0,0.1,0,0.1,0.1V399z M225.4,396.3c-0.2-0.1-0.6-0.3-1-0.3h-0.1c-0.4,0-0.7,0.3-0.7,0.7v1.4
				c0,0.3,0.2,0.4,0.4,0.4h0.1c0.3,0,0.5-0.2,0.7-0.5l0.6-0.7V396.3z"/>
			<path fill="#231F20" d="M51.4,414.3C51.4,414.4,51.4,414.4,51.4,414.3l-0.7,0.1c0,0-0.1,0-0.1-0.1v-0.8l-0.3,0.4
				c-0.3,0.3-0.5,0.6-1.1,0.6h-0.1c-0.7,0-1.1-0.4-1.1-1.1V412c0-1,0.6-1.4,1.4-1.4h0.1c0.4,0,0.9,0.2,1.1,0.3v-0.1
				c0,0,0-0.1,0.1-0.1h0.6c0,0,0.1,0,0.1,0.1V414.3z M50.6,411.6c-0.2-0.1-0.6-0.3-1-0.3h-0.1c-0.4,0-0.7,0.3-0.7,0.7v1.4
				c0,0.3,0.2,0.4,0.4,0.4h0.1c0.3,0,0.5-0.2,0.7-0.5l0.6-0.7V411.6z"/>
			<path fill="#231F20" d="M55.9,414.3C55.9,414.4,55.9,414.4,55.9,414.3l-0.7,0.1c0,0-0.1,0-0.1-0.1v-2.6c0-0.3-0.2-0.5-0.4-0.5
				h-0.1c-0.3,0-0.5,0.2-0.7,0.5l-0.6,0.7v1.9c0,0,0,0.1-0.1,0.1h-0.6c0,0-0.1,0-0.1-0.1v-3.5c0,0,0-0.1,0.1-0.1h0.6
				c0,0,0.1,0,0.1,0.1v0.8l0.3-0.4c0.3-0.4,0.6-0.6,1.1-0.6h0.1c0.7,0,1.1,0.4,1.1,1.1V414.3z"/>
			<path fill="#231F20" d="M60.3,414.3C60.3,414.4,60.2,414.4,60.3,414.3l-0.7,0.1c0,0-0.1,0-0.1-0.1v-0.8l-0.3,0.4
				c-0.3,0.3-0.5,0.6-1.1,0.6h-0.1c-0.7,0-1.1-0.4-1.1-1.1V412c0-1,0.6-1.4,1.4-1.4h0.1c0.4,0,0.9,0.2,1.1,0.3v-1.8
				c0,0,0-0.1,0.1-0.1h0.6c0,0,0.1,0,0.1,0.1V414.3z M59.5,411.6c-0.2-0.1-0.6-0.3-1-0.3h-0.1c-0.4,0-0.7,0.3-0.7,0.7v1.4
				c0,0.3,0.2,0.4,0.4,0.4h0.1c0.3,0,0.5-0.2,0.7-0.5l0.6-0.7V411.6z"/>
			<path fill="#231F20" d="M68.4,414.3C68.4,414.4,68.4,414.4,68.4,414.3l-0.7,0.1c0,0-0.1,0-0.1-0.1v-2.6c0-0.3-0.2-0.5-0.4-0.5
				h-0.1c-0.3,0-0.5,0.2-0.7,0.5l-0.6,0.7v1.9c0,0,0,0.1-0.1,0.1h-0.6c0,0-0.1,0-0.1-0.1v-5.2c0,0,0-0.1,0.1-0.1h0.6
				c0,0,0.1,0,0.1,0.1v2.5l0.3-0.4c0.3-0.4,0.6-0.6,1.1-0.6h0.1c0.7,0,1.1,0.4,1.1,1.1V414.3z"/>
			<path fill="#231F20" d="M72.7,413.1c0,0.9-0.6,1.4-1.5,1.4h-0.5c-0.8,0-1.5-0.5-1.5-1.4V412c0-0.9,0.6-1.4,1.5-1.4h0.5
				c0.8,0,1.5,0.5,1.5,1.4V413.1z M71.9,412c0-0.5-0.3-0.7-0.8-0.7h-0.3c-0.5,0-0.8,0.2-0.8,0.7v1.1c0,0.5,0.3,0.7,0.8,0.7h0.3
				c0.5,0,0.8-0.2,0.8-0.7V412z"/>
			<path fill="#231F20" d="M75.3,414.3C75.3,414.4,75.3,414.4,75.3,414.3l-0.6,0.1c-0.7,0-1.1-0.4-1.1-1.1v-4.2c0,0,0-0.1,0.1-0.1
				h0.6c0,0,0.1,0,0.1,0.1v4.2c0,0.3,0.2,0.4,0.4,0.4h0.4c0,0,0.1,0,0.1,0.1V414.3z"/>
			<path fill="#231F20" d="M79.2,414.3C79.2,414.4,79.2,414.4,79.2,414.3l-0.7,0.1c0,0-0.1,0-0.1-0.1v-0.8l-0.3,0.4
				c-0.3,0.3-0.5,0.6-1.1,0.6h-0.1c-0.7,0-1.1-0.4-1.1-1.1V412c0-1,0.6-1.4,1.4-1.4h0.1c0.4,0,0.9,0.2,1.1,0.3v-1.8
				c0,0,0-0.1,0.1-0.1h0.6c0,0,0.1,0,0.1,0.1V414.3z M78.4,411.6c-0.2-0.1-0.6-0.3-1-0.3h-0.1c-0.4,0-0.7,0.3-0.7,0.7v1.4
				c0,0.3,0.2,0.4,0.4,0.4h0.1c0.3,0,0.5-0.2,0.7-0.5l0.6-0.7V411.6z"/>
			<path fill="#231F20" d="M85.5,413.1c0,0.9-0.6,1.4-1.5,1.4h-0.5c-0.8,0-1.5-0.5-1.5-1.4V412c0-0.9,0.6-1.4,1.5-1.4H84
				c0.8,0,1.5,0.5,1.5,1.4V413.1z M84.7,412c0-0.5-0.3-0.7-0.8-0.7h-0.3c-0.5,0-0.8,0.2-0.8,0.7v1.1c0,0.5,0.3,0.7,0.8,0.7h0.3
				c0.5,0,0.8-0.2,0.8-0.7V412z"/>
			<path fill="#231F20" d="M89.8,414.3C89.8,414.4,89.8,414.4,89.8,414.3l-0.7,0.1c0,0-0.1,0-0.1-0.1v-2.6c0-0.3-0.2-0.5-0.4-0.5
				h-0.1c-0.3,0-0.5,0.2-0.7,0.5l-0.6,0.7v1.9c0,0,0,0.1-0.1,0.1h-0.6c0,0-0.1,0-0.1-0.1v-3.5c0,0,0-0.1,0.1-0.1h0.6
				c0,0,0.1,0,0.1,0.1v0.8l0.3-0.4c0.3-0.4,0.6-0.6,1.1-0.6h0.1c0.7,0,1.1,0.4,1.1,1.1V414.3z"/>
			<path fill="#231F20" d="M92.9,414.3C92.9,414.4,92.8,414.4,92.9,414.3l-0.6,0.1c-0.7,0-1.1-0.4-1.1-1.1v-1.8l-0.7-0.1
				c0,0-0.1,0-0.1-0.1v-0.5c0,0,0-0.1,0.1-0.1h0.7v-0.4c0-0.1,0-0.1,0.1-0.2l0.5-0.3c0,0,0.1,0,0.1,0c0.1,0,0.1,0,0.1,0.1v0.8h0.9
				c0,0,0.1,0,0.1,0.1v0.6c0,0,0,0.1-0.1,0.1h-0.9v1.9c0,0.3,0.2,0.4,0.4,0.4h0.5c0,0,0.1,0,0.1,0.1V414.3z"/>
			<path fill="#231F20" d="M96.9,413.1c0,0.9-0.6,1.4-1.5,1.4H95c-0.8,0-1.5-0.5-1.5-1.4V412c0-0.9,0.6-1.4,1.5-1.4h0.5
				c0.8,0,1.5,0.5,1.5,1.4V413.1z M96.1,412c0-0.5-0.3-0.7-0.8-0.7h-0.3c-0.5,0-0.8,0.2-0.8,0.7v1.1c0,0.5,0.3,0.7,0.8,0.7h0.3
				c0.5,0,0.8-0.2,0.8-0.7V412z"/>
			<path fill="#231F20" d="M101.5,414.1c-0.2,0.5-0.4,0.8-0.8,1.1l-0.6,0.5c0,0,0,0-0.1,0c0,0,0,0-0.1,0l-0.4-0.4c0,0,0,0,0-0.1
				c0,0,0,0,0-0.1l0.6-0.5c0.2-0.2,0.4-0.3,0.5-0.6l0,0l-1.4-3.3c0,0,0,0,0-0.1c0,0,0-0.1,0.1-0.1h0.6c0.1,0,0.1,0,0.1,0.1l0.7,1.7
				c0.1,0.3,0.2,0.6,0.2,0.9l0.8-2.5c0-0.1,0.1-0.1,0.1-0.1h0.6c0.1,0,0.1,0,0.1,0.1c0,0,0,0,0,0.1L101.5,414.1z"/>
			<path fill="#231F20" d="M106.6,413.1c0,0.9-0.6,1.4-1.5,1.4h-0.5c-0.8,0-1.5-0.5-1.5-1.4V412c0-0.9,0.6-1.4,1.5-1.4h0.5
				c0.8,0,1.5,0.5,1.5,1.4V413.1z M105.8,412c0-0.5-0.3-0.7-0.8-0.7h-0.3c-0.5,0-0.8,0.2-0.8,0.7v1.1c0,0.5,0.3,0.7,0.8,0.7h0.3
				c0.5,0,0.8-0.2,0.8-0.7V412z"/>
			<path fill="#231F20" d="M107.5,410.8C107.5,410.8,107.5,410.7,107.5,410.8l0.7-0.1c0,0,0.1,0,0.1,0.1v2.6c0,0.3,0.2,0.5,0.4,0.5
				h0.1c0.3,0,0.5-0.2,0.7-0.5l0.6-0.7v-1.8c0,0,0-0.1,0.1-0.1h0.6c0,0,0.1,0,0.1,0.1v3.5c0,0,0,0.1-0.1,0.1h-0.6c0,0-0.1,0-0.1-0.1
				v-0.8l-0.3,0.4c-0.2,0.3-0.5,0.5-1,0.5h-0.1c-0.7,0-1.1-0.4-1.1-1.1V410.8z"/>
			<path fill="#231F20" d="M114.8,411.1C114.8,411.2,114.8,411.2,114.8,411.1l-0.5,0.5c0,0,0,0-0.1,0c0,0,0,0-0.1,0
				c-0.1-0.1-0.2-0.2-0.4-0.2h-0.1c-0.2,0-0.3,0.2-0.5,0.4l-0.5,0.7v1.8c0,0,0,0.1-0.1,0.1H112c0,0-0.1,0-0.1-0.1v-3.5
				c0,0,0-0.1,0.1-0.1h0.6c0,0,0.1,0,0.1,0.1v0.8l0.3-0.4c0.3-0.3,0.5-0.6,0.9-0.6h0.1C114.3,410.6,114.5,410.8,114.8,411.1
				C114.8,411.1,114.8,411.1,114.8,411.1z"/>
			<path fill="#231F20" d="M120.6,414.3C120.6,414.4,120.6,414.4,120.6,414.3l-0.7,0.1c0,0-0.1,0-0.1-0.1v-2.6
				c0-0.3-0.2-0.5-0.4-0.5h-0.1c-0.3,0-0.5,0.2-0.7,0.5l-0.6,0.7v1.9c0,0,0,0.1-0.1,0.1h-0.6c0,0-0.1,0-0.1-0.1v-5.2
				c0,0,0-0.1,0.1-0.1h0.6c0,0,0.1,0,0.1,0.1v2.5l0.3-0.4c0.3-0.4,0.6-0.6,1.1-0.6h0.1c0.7,0,1.1,0.4,1.1,1.1V414.3z"/>
			<path fill="#231F20" d="M124.9,414.3C124.9,414.4,124.9,414.4,124.9,414.3l-0.7,0.1c0,0-0.1,0-0.1-0.1v-0.8l-0.3,0.4
				c-0.3,0.3-0.5,0.6-1.1,0.6h-0.1c-0.7,0-1.1-0.4-1.1-1.1V412c0-1,0.6-1.4,1.4-1.4h0.1c0.4,0,0.9,0.2,1.1,0.3v-0.1
				c0,0,0-0.1,0.1-0.1h0.6c0,0,0.1,0,0.1,0.1V414.3z M124.1,411.6c-0.2-0.1-0.6-0.3-1-0.3H123c-0.4,0-0.7,0.3-0.7,0.7v1.4
				c0,0.3,0.2,0.4,0.4,0.4h0.1c0.3,0,0.5-0.2,0.7-0.5l0.6-0.7V411.6z"/>
			<path fill="#231F20" d="M128,414.3C128,414.4,127.9,414.4,128,414.3l-0.6,0.1c-0.7,0-1.1-0.4-1.1-1.1v-1.8l-0.7-0.1
				c0,0-0.1,0-0.1-0.1v-0.5c0,0,0-0.1,0.1-0.1h0.7v-0.4c0-0.1,0-0.1,0.1-0.2l0.5-0.3c0,0,0.1,0,0.1,0c0.1,0,0.1,0,0.1,0.1v0.8h0.9
				c0,0,0.1,0,0.1,0.1v0.6c0,0,0,0.1-0.1,0.1H127v1.9c0,0.3,0.2,0.4,0.4,0.4h0.5c0,0,0.1,0,0.1,0.1V414.3z"/>
			<path fill="#231F20" d="M129.7,414.3C129.7,414.4,129.6,414.4,129.7,414.3l-0.8,0.1c0,0-0.1,0-0.1-0.1v-0.7c0,0,0-0.1,0.1-0.1
				h0.7c0,0,0.1,0,0.1,0.1V414.3z"/>
			<path fill="#231F20" d="M139.1,414.3C139.1,414.4,139,414.4,139.1,414.3l-0.8,0.1c0,0-0.1,0-0.1-0.1v-5.1c0,0,0-0.1,0.1-0.1h0.7
				c0,0,0.1,0,0.1,0.1V414.3z"/>
			<path fill="#231F20" d="M142.2,414.3C142.2,414.4,142.2,414.4,142.2,414.3l-0.6,0.1c-0.7,0-1.1-0.4-1.1-1.1v-1.8l-0.7-0.1
				c0,0-0.1,0-0.1-0.1v-0.5c0,0,0-0.1,0.1-0.1h0.7v-0.4c0-0.1,0-0.1,0.1-0.2l0.5-0.3c0,0,0.1,0,0.1,0c0.1,0,0.1,0,0.1,0.1v0.8h0.9
				c0,0,0.1,0,0.1,0.1v0.6c0,0,0,0.1-0.1,0.1h-0.9v1.9c0,0.3,0.2,0.4,0.4,0.4h0.5c0,0,0.1,0,0.1,0.1V414.3z"/>
			<path fill="#231F20" d="M143.9,409.7c0,0.1,0,0.2-0.1,0.3l-0.4,0.7c0,0,0,0.1-0.1,0.1h-0.3c0,0-0.1,0-0.1-0.1v-1.6
				c0,0,0-0.1,0.1-0.1h0.7c0,0,0.1,0,0.1,0.1V409.7z"/>
			<path fill="#231F20" d="M147.3,411.3C147.3,411.4,147.2,411.4,147.3,411.3l-1.7,0.1c-0.2,0-0.4,0.1-0.4,0.4
				c0,0.2,0.1,0.3,0.4,0.4c0.2,0,0.5,0.1,0.8,0.1c0.6,0.1,1.2,0.3,1.2,1v0.1c0,0.6-0.5,1-1.2,1h-1.8c0,0-0.1,0-0.1-0.1v-0.5
				c0,0,0-0.1,0.1-0.1h1.7c0.3,0,0.5-0.1,0.5-0.4c0-0.3-0.2-0.4-0.5-0.4c-0.2,0-0.6-0.1-0.8-0.1c-0.6-0.1-1-0.5-1-1.1v-0.1
				c0-0.6,0.5-1,1.2-1h1.6c0,0,0.1,0,0.1,0.1V411.3z"/>
			<path fill="#231F20" d="M153.6,414.3c0,0.9-0.6,1.5-1.7,1.5h-1.4c0,0-0.1,0-0.1-0.1v-0.5c0,0,0-0.1,0.1-0.1h1.3
				c0.6,0,1.1-0.2,1.1-0.8v-0.8l-0.3,0.4c-0.3,0.3-0.5,0.6-1.1,0.6h-0.1c-0.7,0-1.1-0.4-1.1-1.1V412c0-1,0.6-1.4,1.4-1.4h0.1
				c0.4,0,0.9,0.2,1.1,0.3v-0.1c0,0,0-0.1,0.1-0.1h0.6c0,0,0.1,0,0.1,0.1V414.3z M152.8,411.6c-0.2-0.1-0.6-0.3-1-0.3h-0.1
				c-0.4,0-0.7,0.3-0.7,0.7v1.4c0,0.3,0.2,0.4,0.4,0.4h0.1c0.3,0,0.5-0.2,0.7-0.5l0.6-0.7V411.6z"/>
			<path fill="#231F20" d="M157.9,413.1c0,0.9-0.6,1.4-1.5,1.4h-0.5c-0.8,0-1.5-0.5-1.5-1.4V412c0-0.9,0.6-1.4,1.5-1.4h0.5
				c0.8,0,1.5,0.5,1.5,1.4V413.1z M157.1,412c0-0.5-0.3-0.7-0.8-0.7H156c-0.5,0-0.8,0.2-0.8,0.7v1.1c0,0.5,0.3,0.7,0.8,0.7h0.3
				c0.5,0,0.8-0.2,0.8-0.7V412z"/>
			<path fill="#231F20" d="M159.9,414.3C159.9,414.4,159.9,414.4,159.9,414.3l-0.7,0.1c0,0-0.1,0-0.1-0.1v-2.9l-0.8-0.2
				c0,0-0.1,0-0.1-0.1v-0.4c0,0,0-0.1,0.1-0.1h1.5c0,0,0.1,0,0.1,0.1V414.3z M160,409.7C160,409.8,160,409.8,160,409.7l-0.9,0.1
				c0,0-0.1,0-0.1-0.1V409c0,0,0-0.1,0.1-0.1h0.8c0,0,0.1,0,0.1,0.1V409.7z"/>
			<path fill="#231F20" d="M164.4,414.3C164.4,414.4,164.4,414.4,164.4,414.3l-0.7,0.1c0,0-0.1,0-0.1-0.1v-2.6
				c0-0.3-0.2-0.5-0.4-0.5h-0.1c-0.3,0-0.5,0.2-0.7,0.5l-0.6,0.7v1.9c0,0,0,0.1-0.1,0.1h-0.6c0,0-0.1,0-0.1-0.1v-3.5
				c0,0,0-0.1,0.1-0.1h0.6c0,0,0.1,0,0.1,0.1v0.8l0.3-0.4c0.3-0.4,0.6-0.6,1.1-0.6h0.1c0.7,0,1.1,0.4,1.1,1.1V414.3z"/>
			<path fill="#231F20" d="M168.7,414.3c0,0.9-0.6,1.5-1.7,1.5h-1.4c0,0-0.1,0-0.1-0.1v-0.5c0,0,0-0.1,0.1-0.1h1.3
				c0.6,0,1.1-0.2,1.1-0.8v-0.8l-0.3,0.4c-0.3,0.3-0.5,0.6-1.1,0.6h-0.1c-0.7,0-1.1-0.4-1.1-1.1V412c0-1,0.6-1.4,1.4-1.4h0.1
				c0.4,0,0.9,0.2,1.1,0.3v-0.1c0,0,0-0.1,0.1-0.1h0.6c0,0,0.1,0,0.1,0.1V414.3z M167.9,411.6c-0.2-0.1-0.6-0.3-1-0.3h-0.1
				c-0.4,0-0.7,0.3-0.7,0.7v1.4c0,0.3,0.2,0.4,0.4,0.4h0.1c0.3,0,0.5-0.2,0.7-0.5l0.6-0.7V411.6z"/>
			<path fill="#231F20" d="M173.6,414.3C173.6,414.4,173.6,414.4,173.6,414.3l-0.6,0.1c-0.7,0-1.1-0.4-1.1-1.1v-1.8l-0.7-0.1
				c0,0-0.1,0-0.1-0.1v-0.5c0,0,0-0.1,0.1-0.1h0.7v-0.4c0-0.1,0-0.1,0.1-0.2l0.5-0.3c0,0,0.1,0,0.1,0c0.1,0,0.1,0,0.1,0.1v0.8h0.9
				c0,0,0.1,0,0.1,0.1v0.6c0,0,0,0.1-0.1,0.1h-0.9v1.9c0,0.3,0.2,0.4,0.4,0.4h0.5c0,0,0.1,0,0.1,0.1V414.3z"/>
			<path fill="#231F20" d="M177.6,413.1c0,0.9-0.6,1.4-1.5,1.4h-0.5c-0.8,0-1.5-0.5-1.5-1.4V412c0-0.9,0.6-1.4,1.5-1.4h0.5
				c0.8,0,1.5,0.5,1.5,1.4V413.1z M176.8,412c0-0.5-0.3-0.7-0.8-0.7h-0.3c-0.5,0-0.8,0.2-0.8,0.7v1.1c0,0.5,0.3,0.7,0.8,0.7h0.3
				c0.5,0,0.8-0.2,0.8-0.7V412z"/>
			<path fill="#231F20" d="M180.5,409.1C180.5,409.1,180.5,409,180.5,409.1l0.7-0.1c0,0,0.1,0,0.1,0.1v2.5l0.3-0.4
				c0.3-0.3,0.5-0.6,1.1-0.6h0.1c0.7,0,1.1,0.4,1.1,1.1v1.3c0,0.9-0.6,1.4-1.5,1.4h-1.9c0,0-0.1,0-0.1-0.1V409.1z M181.3,413.8h1
				c0.5,0,0.8-0.2,0.8-0.7v-1.3c0-0.3-0.2-0.4-0.4-0.4h-0.1c-0.3,0-0.5,0.2-0.7,0.5l-0.6,0.7V413.8z"/>
			<path fill="#231F20" d="M185.5,412.9v0.2c0,0.5,0.3,0.7,0.8,0.7h1.6c0,0,0.1,0,0.1,0.1v0.5c0,0,0,0.1-0.1,0.1h-1.7
				c-0.8,0-1.5-0.5-1.5-1.4v-1c0-0.9,0.6-1.4,1.5-1.4h0.5c0.8,0,1.5,0.5,1.5,1.3v0.4c0,0.1,0,0.1-0.1,0.2l-0.4,0.3
				c-0.1,0.1-0.1,0.1-0.2,0.1H185.5z M185.5,412.2h1.8V412c0-0.5-0.3-0.7-0.8-0.7h-0.2c-0.5,0-0.8,0.2-0.8,0.7V412.2z"/>
			<path fill="#231F20" d="M194.2,414.3C194.2,414.4,194.2,414.4,194.2,414.3l-0.7,0.1c0,0-0.1,0-0.1-0.1v-0.8l-0.3,0.4
				c-0.3,0.3-0.5,0.6-1.1,0.6h-0.1c-0.7,0-1.1-0.4-1.1-1.1V412c0-1,0.6-1.4,1.4-1.4h0.1c0.4,0,0.9,0.2,1.1,0.3v-0.1
				c0,0,0-0.1,0.1-0.1h0.6c0,0,0.1,0,0.1,0.1V414.3z M193.4,411.6c-0.2-0.1-0.6-0.3-1-0.3h-0.1c-0.4,0-0.7,0.3-0.7,0.7v1.4
				c0,0.3,0.2,0.4,0.4,0.4h0.1c0.3,0,0.5-0.2,0.7-0.5l0.6-0.7V411.6z"/>
			<path fill="#231F20" d="M201.1,414.3c0,0,0,0.1-0.1,0.1H200c-0.1,0-0.1,0-0.1-0.1l-0.4-1.2c-0.1-0.3-0.2-0.7-0.3-0.9
				c0,0.3-0.2,0.6-0.3,0.9l-0.4,1.2c0,0,0,0.1-0.1,0.1h-0.9c-0.1,0-0.1,0-0.1-0.1l-0.7-3.3c0-0.1,0-0.2,0-0.2c0-0.1,0-0.1,0.1-0.1
				h0.6c0.1,0,0.1,0,0.1,0.1l0.4,2c0.1,0.3,0.1,0.8,0.1,1l0.7-2.2c0-0.1,0.1-0.1,0.1-0.1h0.7c0.1,0,0.1,0,0.1,0.1l0.7,2.2
				c0-0.3,0-0.7,0.1-1l0.4-2c0-0.1,0.1-0.1,0.1-0.1h0.6c0.1,0,0.1,0,0.1,0.1c0,0,0,0.1,0,0.2L201.1,414.3z"/>
			<path fill="#231F20" d="M203.2,412.9v0.2c0,0.5,0.3,0.7,0.8,0.7h1.6c0,0,0.1,0,0.1,0.1v0.5c0,0,0,0.1-0.1,0.1h-1.7
				c-0.8,0-1.5-0.5-1.5-1.4v-1c0-0.9,0.6-1.4,1.5-1.4h0.5c0.8,0,1.5,0.5,1.5,1.3v0.4c0,0.1,0,0.1-0.1,0.2l-0.4,0.3
				c-0.1,0.1-0.1,0.1-0.2,0.1H203.2z M203.2,412.2h1.8V412c0-0.5-0.3-0.7-0.8-0.7H204c-0.5,0-0.8,0.2-0.8,0.7V412.2z"/>
			<path fill="#231F20" d="M208.6,414.3C208.6,414.4,208.6,414.4,208.6,414.3l-0.6,0.1c-0.7,0-1.1-0.4-1.1-1.1v-1.8l-0.7-0.1
				c0,0-0.1,0-0.1-0.1v-0.5c0,0,0-0.1,0.1-0.1h0.7v-0.4c0-0.1,0-0.1,0.1-0.2l0.5-0.3c0,0,0.1,0,0.1,0c0.1,0,0.1,0,0.1,0.1v0.8h0.9
				c0,0,0.1,0,0.1,0.1v0.6c0,0,0,0.1-0.1,0.1h-0.9v1.9c0,0.3,0.2,0.4,0.4,0.4h0.5c0,0,0.1,0,0.1,0.1V414.3z"/>
			<path fill="#231F20" d="M216.4,414.3C216.4,414.4,216.3,414.4,216.4,414.3l-0.7,0.1c0,0-0.1,0-0.1-0.1v-0.8l-0.3,0.4
				c-0.3,0.3-0.5,0.6-1.1,0.6h-0.1c-0.7,0-1.1-0.4-1.1-1.1V412c0-1,0.6-1.4,1.4-1.4h0.1c0.4,0,0.9,0.2,1.1,0.3v-0.1
				c0,0,0-0.1,0.1-0.1h0.6c0,0,0.1,0,0.1,0.1V414.3z M215.6,411.6c-0.2-0.1-0.6-0.3-1-0.3h-0.1c-0.4,0-0.7,0.3-0.7,0.7v1.4
				c0,0.3,0.2,0.4,0.4,0.4h0.1c0.3,0,0.5-0.2,0.7-0.5l0.6-0.7V411.6z"/>
			<path fill="#231F20" d="M220.9,414.3C220.9,414.4,220.8,414.4,220.9,414.3l-0.7,0.1c0,0-0.1,0-0.1-0.1v-2.6
				c0-0.3-0.2-0.5-0.4-0.5h-0.1c-0.3,0-0.5,0.2-0.7,0.5l-0.6,0.7v1.9c0,0,0,0.1-0.1,0.1h-0.6c0,0-0.1,0-0.1-0.1v-3.5
				c0,0,0-0.1,0.1-0.1h0.6c0,0,0.1,0,0.1,0.1v0.8l0.3-0.4c0.3-0.4,0.6-0.6,1.1-0.6h0.1c0.7,0,1.1,0.4,1.1,1.1V414.3z"/>
			<path fill="#231F20" d="M225.2,414.3C225.2,414.4,225.1,414.4,225.2,414.3l-0.7,0.1c0,0-0.1,0-0.1-0.1v-0.8l-0.3,0.4
				c-0.3,0.3-0.5,0.6-1.1,0.6h-0.1c-0.7,0-1.1-0.4-1.1-1.1V412c0-1,0.6-1.4,1.4-1.4h0.1c0.4,0,0.9,0.2,1.1,0.3v-1.8
				c0,0,0-0.1,0.1-0.1h0.6c0,0,0.1,0,0.1,0.1V414.3z M224.4,411.6c-0.2-0.1-0.6-0.3-1-0.3h-0.1c-0.4,0-0.7,0.3-0.7,0.7v1.4
				c0,0.3,0.2,0.4,0.4,0.4h0.1c0.3,0,0.5-0.2,0.7-0.5l0.6-0.7V411.6z"/>
			<path fill="#231F20" d="M51.3,426.3c0-0.1-0.1-0.2-0.1-0.2c0,0,0-0.1,0.1-0.1h0.6c0.1,0,0.1,0,0.1,0.1l0.7,2
				c0.1,0.4,0.2,0.7,0.3,1c0.1-0.3,0.1-0.6,0.3-1l0.7-2c0-0.1,0.1-0.1,0.1-0.1h0.6c0.1,0,0.1,0,0.1,0.1c0,0,0,0.1,0,0.2l-1.2,3.4
				c0,0,0,0.1-0.1,0.1h-0.9c-0.1,0-0.1,0-0.1-0.1L51.3,426.3z"/>
			<path fill="#231F20" d="M56.1,428.2v0.2c0,0.5,0.3,0.7,0.8,0.7h1.6c0,0,0.1,0,0.1,0.1v0.5c0,0,0,0.1-0.1,0.1h-1.7
				c-0.8,0-1.5-0.5-1.5-1.4v-1c0-0.9,0.6-1.4,1.5-1.4h0.5c0.8,0,1.5,0.5,1.5,1.3v0.4c0,0.1,0,0.1-0.1,0.2l-0.4,0.3
				c-0.1,0.1-0.1,0.1-0.2,0.1H56.1z M56.1,427.5h1.8v-0.2c0-0.5-0.3-0.7-0.8-0.7h-0.2c-0.5,0-0.8,0.2-0.8,0.7V427.5z"/>
			<path fill="#231F20" d="M62.4,426.5C62.4,426.5,62.4,426.5,62.4,426.5l-0.5,0.5c0,0,0,0-0.1,0c0,0,0,0-0.1,0
				c-0.1-0.1-0.2-0.2-0.4-0.2h-0.1c-0.2,0-0.3,0.2-0.5,0.4l-0.5,0.7v1.8c0,0,0,0.1-0.1,0.1h-0.6c0,0-0.1,0-0.1-0.1v-3.5
				c0,0,0-0.1,0.1-0.1h0.6c0,0,0.1,0,0.1,0.1v0.8l0.3-0.4c0.3-0.3,0.5-0.6,0.9-0.6h0.1C61.9,426,62.2,426.1,62.4,426.5
				C62.4,426.4,62.4,426.4,62.4,426.5z"/>
			<path fill="#231F20" d="M64.9,429.5c-0.2,0.5-0.4,0.8-0.8,1.1l-0.6,0.5c0,0,0,0-0.1,0c0,0,0,0-0.1,0l-0.4-0.4c0,0,0,0,0-0.1
				c0,0,0,0,0-0.1l0.6-0.5c0.2-0.2,0.4-0.3,0.5-0.6l0,0l-1.4-3.3c0,0,0,0,0-0.1c0,0,0-0.1,0.1-0.1h0.6c0.1,0,0.1,0,0.1,0.1l0.7,1.7
				c0.1,0.3,0.2,0.6,0.2,0.9l0.8-2.5c0-0.1,0.1-0.1,0.1-0.1H66c0.1,0,0.1,0,0.1,0.1c0,0,0,0,0,0.1L64.9,429.5z"/>
			<path fill="#231F20" d="M72.4,429.7c0,0,0,0.1-0.1,0.1h-0.9c-0.1,0-0.1,0-0.1-0.1l-0.4-1.3c-0.1-0.3-0.2-0.7-0.3-0.9
				c0,0.3-0.2,0.6-0.3,0.9l-0.4,1.3c0,0,0,0.1-0.1,0.1h-0.9c-0.1,0-0.1,0-0.1-0.1l-0.7-3.3c0-0.1,0-0.2,0-0.2c0-0.1,0-0.1,0.1-0.1
				h0.6c0.1,0,0.1,0,0.1,0.1l0.4,2c0.1,0.3,0.1,0.8,0.1,1l0.7-2.2c0-0.1,0.1-0.1,0.1-0.1H71c0.1,0,0.1,0,0.1,0.1l0.7,2.2
				c0-0.3,0-0.7,0.1-1l0.4-2c0-0.1,0.1-0.1,0.1-0.1H73c0.1,0,0.1,0,0.1,0.1c0,0,0,0.1,0,0.2L72.4,429.7z"/>
			<path fill="#231F20" d="M75.2,429.7C75.2,429.7,75.2,429.8,75.2,429.7l-0.7,0.1c0,0-0.1,0-0.1-0.1v-2.9l-0.8-0.2
				c0,0-0.1,0-0.1-0.1v-0.4c0,0,0-0.1,0.1-0.1h1.5c0,0,0.1,0,0.1,0.1V429.7z M75.3,425.1C75.3,425.1,75.2,425.1,75.3,425.1l-0.9,0.1
				c0,0-0.1,0-0.1-0.1v-0.7c0,0,0-0.1,0.1-0.1h0.8c0,0,0.1,0,0.1,0.1V425.1z"/>
			<path fill="#231F20" d="M79.7,429.7C79.7,429.7,79.7,429.8,79.7,429.7l-0.7,0.1c0,0-0.1,0-0.1-0.1v-2.6c0-0.3-0.2-0.5-0.4-0.5
				h-0.1c-0.3,0-0.5,0.2-0.7,0.5l-0.6,0.7v1.9c0,0,0,0.1-0.1,0.1h-0.6c0,0-0.1,0-0.1-0.1v-3.5c0,0,0-0.1,0.1-0.1H77
				c0,0,0.1,0,0.1,0.1v0.8l0.3-0.4c0.3-0.4,0.6-0.6,1.1-0.6h0.1c0.7,0,1.1,0.4,1.1,1.1V429.7z"/>
			<path fill="#231F20" d="M84,429.7C84,429.7,84,429.8,84,429.7l-0.7,0.1c0,0-0.1,0-0.1-0.1v-0.8l-0.3,0.4
				c-0.3,0.3-0.5,0.6-1.1,0.6h-0.1c-0.7,0-1.1-0.4-1.1-1.1v-1.3c0-1,0.6-1.4,1.4-1.4h0.1c0.4,0,0.9,0.2,1.1,0.3v-1.8
				c0,0,0-0.1,0.1-0.1h0.6c0,0,0.1,0,0.1,0.1V429.7z M83.2,426.9c-0.2-0.1-0.6-0.3-1-0.3h-0.1c-0.4,0-0.7,0.3-0.7,0.7v1.4
				c0,0.3,0.2,0.4,0.4,0.4h0.1c0.3,0,0.5-0.2,0.7-0.5l0.6-0.7V426.9z"/>
			<path fill="#231F20" d="M87,429.5c-0.2,0.5-0.4,0.8-0.8,1.1l-0.6,0.5c0,0,0,0-0.1,0c0,0,0,0-0.1,0l-0.4-0.4c0,0,0,0,0-0.1
				c0,0,0,0,0-0.1l0.6-0.5c0.2-0.2,0.4-0.3,0.5-0.6l0,0l-1.4-3.3c0,0,0,0,0-0.1c0,0,0-0.1,0.1-0.1h0.6c0.1,0,0.1,0,0.1,0.1l0.7,1.7
				c0.1,0.3,0.2,0.6,0.2,0.9l0.8-2.5c0-0.1,0.1-0.1,0.1-0.1h0.6c0.1,0,0.1,0,0.1,0.1c0,0,0,0,0,0.1L87,429.5z"/>
			<path fill="#231F20" d="M93.9,429.7C93.9,429.7,93.9,429.8,93.9,429.7l-0.7,0.1c0,0-0.1,0-0.1-0.1v-0.8l-0.3,0.4
				c-0.3,0.3-0.5,0.6-1.1,0.6h-0.1c-0.7,0-1.1-0.4-1.1-1.1v-1.3c0-1,0.6-1.4,1.4-1.4H92c0.4,0,0.9,0.2,1.1,0.3v-1.8
				c0,0,0-0.1,0.1-0.1h0.6c0,0,0.1,0,0.1,0.1V429.7z M93.2,426.9c-0.2-0.1-0.6-0.3-1-0.3H92c-0.4,0-0.7,0.3-0.7,0.7v1.4
				c0,0.3,0.2,0.4,0.4,0.4h0.1c0.3,0,0.5-0.2,0.7-0.5l0.6-0.7V426.9z"/>
			<path fill="#231F20" d="M98.3,429.7C98.3,429.7,98.2,429.8,98.3,429.7l-0.7,0.1c0,0-0.1,0-0.1-0.1v-0.8l-0.3,0.4
				c-0.3,0.3-0.5,0.6-1.1,0.6H96c-0.7,0-1.1-0.4-1.1-1.1v-1.3c0-1,0.6-1.4,1.4-1.4h0.1c0.4,0,0.9,0.2,1.1,0.3v-0.1
				c0,0,0-0.1,0.1-0.1h0.6c0,0,0.1,0,0.1,0.1V429.7z M97.5,426.9c-0.2-0.1-0.6-0.3-1-0.3h-0.1c-0.4,0-0.7,0.3-0.7,0.7v1.4
				c0,0.3,0.2,0.4,0.4,0.4h0.1c0.3,0,0.5-0.2,0.7-0.5l0.6-0.7V426.9z"/>
			<path fill="#231F20" d="M101.3,429.5c-0.2,0.5-0.4,0.8-0.8,1.1l-0.6,0.5c0,0,0,0-0.1,0c0,0,0,0-0.1,0l-0.4-0.4c0,0,0,0,0-0.1
				c0,0,0,0,0-0.1l0.6-0.5c0.2-0.2,0.4-0.3,0.5-0.6l0,0l-1.4-3.3c0,0,0,0,0-0.1c0,0,0-0.1,0.1-0.1h0.6c0.1,0,0.1,0,0.1,0.1l0.7,1.7
				c0.1,0.3,0.2,0.6,0.2,0.9l0.8-2.5c0-0.1,0.1-0.1,0.1-0.1h0.6c0.1,0,0.1,0,0.1,0.1c0,0,0,0,0,0.1L101.3,429.5z"/>
			<path fill="#231F20" d="M103.6,429.7C103.6,429.7,103.6,429.8,103.6,429.7l-0.8,0.1c0,0-0.1,0-0.1-0.1V429c0,0,0-0.1,0.1-0.1h0.7
				c0,0,0.1,0,0.1,0.1V429.7z"/>
		</g>
	</g>
	<text transform="matrix(1 0 0 1 51.0039 13.5745)" fill="#00DCEC" font-family="'ChambersSansOT-BoldItalic'" font-size="8">The Stages of Natural Language Generation</text>
	<line fill="none" stroke="#222222" stroke-miterlimit="10" x1="16.2" y1="134.1" x2="254.5" y2="134.1"/>
	<line fill="none" stroke="#222222" stroke-miterlimit="10" x1="16.1" y1="242.7" x2="254.4" y2="242.7"/>
	<line fill="none" stroke="#222222" stroke-miterlimit="10" x1="16" y1="351.3" x2="254.3" y2="351.3"/>
	<rect x="16" y="25.2" fill="none" stroke="#222222" stroke-miterlimit="10" width="238.3" height="434.9"/>
	<rect x="16" y="25.2" fill="#222222" stroke="#222222" stroke-miterlimit="10" width="238.3" height="14.2"/>
	<text transform="matrix(1 0 0 1 20.3396 34.2408)" fill="#FFFFFF" font-family="'ChambersSansOT-BoldItalic'" font-size="6">1. Raw Data</text>
	<rect x="16.2" y="133.7" fill="#222222" stroke="#222222" stroke-miterlimit="10" width="238.3" height="14.2"/>
	<text transform="matrix(1 0 0 1 20.5274 142.8096)" fill="#FFFFFF" font-family="'ChambersSansOT-BoldItalic'" font-size="6">2. Document Planning</text>
	<rect x="15.9" y="242.7" fill="#222222" stroke="#231F20" stroke-miterlimit="10" width="238.3" height="14.2"/>
	<text transform="matrix(1 0 0 1 20.2409 251.7778)" fill="#FFFFFF" font-family="'ChambersSansOT-BoldItalic'" font-size="6">3. Micro Planning</text>
	<rect x="15.8" y="351.3" fill="#222222" stroke="#231F20" stroke-miterlimit="10" width="238.3" height="14.2"/>
	<text transform="matrix(1 0 0 1 20.1423 360.3902)" fill="#FFFFFF" font-family="'ChambersSansOT-BoldItalic'" font-size="6">4. Realization</text>
</g>
</svg>
