<?xml version="1.0" encoding="utf-8"?>
<!-- Generator: Adobe Illustrator 18.0.0, SVG Export Plug-In . SVG Version: 6.00 Build 0)  -->
<!DOCTYPE svg PUBLIC "-//W3C//DTD SVG 1.1//EN" "http://www.w3.org/Graphics/SVG/1.1/DTD/svg11.dtd">
<svg version="1.1" id="Layer_1" xmlns="http://www.w3.org/2000/svg" xmlns:xlink="http://www.w3.org/1999/xlink" x="0px" y="0px"
	 viewBox="0 0 396 110" enable-background="new 0 0 396 110" xml:space="preserve">
<g>
	<text transform="matrix(1 0 0 1 63.0928 23.9303)" fill="#00DCEC" font-family="'ChambersSansOT-Bold'" font-size="11.0167">high 72°</text>
</g>
<g>
	<text transform="matrix(1 0 0 1 63.0928 47.1334)" fill="#00DCEC" font-family="'ChambersSansOT-Bold'" font-size="11.0167">over 50% </text>
	<text transform="matrix(1 0 0 1 63.0928 60.3883)" fill="#00DCEC" font-family="'ChambersSansOT-Bold'" font-size="11.0167">chance of rain</text>
</g>
<g>
	<text transform="matrix(1 0 0 1 63.0928 81.362)" fill="#00DCEC" font-family="'ChambersSansOT-Bold'" font-size="11.0167">over 5 mph</text>
	<text transform="matrix(1 0 0 1 63.0928 94.6169)" fill="#00DCEC" font-family="'ChambersSansOT-Bold'" font-size="11.0167">wind</text>
</g>
<g>
	<text transform="matrix(1 0 0 1 178.7942 23.9303)" fill="#231F20" font-family="'ChambersSansOT-Bold'" font-size="11.0167">a warm day, with a high of 72°</text>
</g>
<g>
	<text transform="matrix(1 0 0 1 178.7942 47.1334)" fill="#231F20" font-family="'ChambersSansOT-Bold'" font-size="11.0167">grab an umbrella, it’s going</text>
	<text transform="matrix(1 0 0 1 178.7942 60.3876)" fill="#231F20" font-family="'ChambersSansOT-Bold'" font-size="11.0167">to be wet out there</text>
</g>
<g>
	<text transform="matrix(1 0 0 1 178.7942 81.3621)" fill="#231F20" font-family="'ChambersSansOT-Bold'" font-size="11.0167">hold onto your hat, it’s going</text>
	<text transform="matrix(1 0 0 1 178.7942 94.6169)" fill="#231F20" font-family="'ChambersSansOT-Bold'" font-size="11.0167">to be a very windy day</text>
</g>
<g>
	<path fill="#00DCEC" d="M158.8,24.6l3-3h-15.9c0,0-0.1,0-0.1-0.1v-1.3c0,0,0-0.1,0.1-0.1h16.1l-3-3v-0.1c0,0,0-0.1,0.1-0.1h1.6
		c0.1,0,0.3,0.1,0.4,0.1l3.4,3.4c0.1,0.1,0.1,0.1,0.1,0.1s0,0.1-0.1,0.1l-3.7,4.2c-0.1,0.1-0.1,0.1-0.4,0.1h-1.6
		C158.8,24.9,158.8,24.9,158.8,24.6C158.8,24.7,158.8,24.7,158.8,24.6z"/>
</g>
<g>
	<path fill="#00DCEC" d="M158.8,47.8l3-3h-15.9c0,0-0.1,0-0.1-0.1v-1.3c0,0,0-0.1,0.1-0.1h16.1l-3-3v-0.1c0,0,0-0.1,0.1-0.1h1.6
		c0.1,0,0.3,0.1,0.4,0.1l3.4,3.4c0.1,0.1,0.1,0.1,0.1,0.1s0,0.1-0.1,0.1l-3.4,3.4c-0.1,0.1-0.1,0.1-0.4,0.1h-1.6
		C158.8,48.1,158.8,48,158.8,47.8C158.8,48,158.8,48,158.8,47.8z"/>
</g>
<g>
	<path fill="#00DCEC" d="M158.8,82.1l3-3h-15.9c0,0-0.1,0-0.1-0.1v-1.3c0,0,0-0.1,0.1-0.1h16.1l-3-3v-0.1c0,0,0-0.1,0.1-0.1h1.6
		c0.1,0,0.3,0.1,0.4,0.1l3.4,3.4c0.1,0.1,0.1,0.1,0.1,0.1s0,0.1-0.1,0.1l-3.4,3.4c-0.1,0.1-0.1,0.1-0.4,0.1h-1.6
		C158.8,82.4,158.8,82.2,158.8,82.1C158.8,82.2,158.8,82.1,158.8,82.1z"/>
</g>
</svg>
