<?xml version="1.0" encoding="utf-8"?>
<!-- Generator: Adobe Illustrator 18.0.0, SVG Export Plug-In . SVG Version: 6.00 Build 0)  -->
<!DOCTYPE svg PUBLIC "-//W3C//DTD SVG 1.1//EN" "http://www.w3.org/Graphics/SVG/1.1/DTD/svg11.dtd">
<svg version="1.1" id="Layer_1" xmlns="http://www.w3.org/2000/svg" xmlns:xlink="http://www.w3.org/1999/xlink" x="0px" y="0px"
	 viewBox="0 0 266.2 58.4" enable-background="new 0 0 266.2 58.4" xml:space="preserve">
<g>
	<rect x="50.4" y="11" fill="#00DCEC" width="108" height="11.4"/>
	<rect x="161.6" y="11" fill="#00DCEC" width="64" height="11.4"/>
	<rect x="65" y="25.9" fill="#00DCEC" width="66.2" height="11.4"/>
	<rect x="134.7" y="25.9" fill="#00DCEC" width="73.8" height="11.4"/>
	<rect x="50.4" y="40.6" fill="#00DCEC" width="56.5" height="11.4"/>
	<g>
		<path fill="#231F20" d="M58.4,18.6c0.1,0.2,0.1,0.3,0.1,0.3c0,0.1,0,0.1-0.1,0.1h-0.6c-0.1,0-0.1,0-0.1-0.1l-0.4-1.2h-2.1
			l-0.4,1.2c0,0.1-0.1,0.1-0.1,0.1h-0.6C54,19,54,19,54,19c0,0,0-0.1,0-0.1l1.6-4.8c0-0.1,0.1-0.1,0.1-0.1h1c0.1,0,0.1,0,0.1,0.1
			L58.4,18.6z M55.5,17.1h1.6l-0.8-2.5L55.5,17.1z"/>
		<path fill="#231F20" d="M64.7,19c0,0,0,0.1-0.1,0.1h-0.9c-0.1,0-0.1,0-0.1-0.1l-0.4-1.2c-0.1-0.3-0.2-0.7-0.2-0.9
			c0,0.3-0.1,0.6-0.2,0.9L62.3,19c0,0,0,0.1-0.1,0.1h-0.9c-0.1,0-0.1,0-0.1-0.1l-0.7-3.2c0-0.1,0-0.2,0-0.2c0-0.1,0-0.1,0.1-0.1h0.6
			c0.1,0,0.1,0,0.1,0.1l0.4,1.9c0.1,0.3,0.1,0.7,0.1,1l0.7-2.1c0-0.1,0.1-0.1,0.1-0.1h0.7c0.1,0,0.1,0,0.1,0.1l0.7,2.1
			c0-0.3,0-0.7,0.1-1l0.4-1.9c0-0.1,0.1-0.1,0.1-0.1h0.5c0.1,0,0.1,0,0.1,0.1c0,0,0,0.1,0,0.2L64.7,19z"/>
		<path fill="#231F20" d="M69.2,19C69.2,19,69.2,19,69.2,19L68.6,19c0,0-0.1,0-0.1-0.1v-0.8l-0.3,0.4c-0.3,0.3-0.5,0.6-1.1,0.6H67
			c-0.7,0-1.1-0.4-1.1-1.1v-1.3c0-0.9,0.6-1.4,1.4-1.4h0.1c0.4,0,0.9,0.2,1.1,0.3v-0.1c0,0,0-0.1,0.1-0.1h0.6c0,0,0.1,0,0.1,0.1V19z
			 M68.5,16.3c-0.2-0.1-0.6-0.3-1-0.3h-0.1c-0.4,0-0.7,0.2-0.7,0.7V18c0,0.3,0.2,0.4,0.4,0.4h0.1c0.3,0,0.5-0.2,0.7-0.5l0.6-0.7
			V16.3z"/>
		<path fill="#231F20" d="M73.1,15.9C73.1,15.9,73.1,15.9,73.1,15.9l-0.5,0.5c0,0,0,0-0.1,0c0,0,0,0-0.1,0c-0.1-0.1-0.2-0.2-0.3-0.2
			h-0.1c-0.2,0-0.3,0.2-0.5,0.4L71,17.2V19c0,0,0,0.1-0.1,0.1h-0.6c0,0-0.1,0-0.1-0.1v-3.4c0,0,0-0.1,0.1-0.1H71c0,0,0.1,0,0.1,0.1
			v0.8l0.3-0.4c0.2-0.3,0.5-0.5,0.9-0.5h0.1C72.6,15.4,72.8,15.5,73.1,15.9C73.1,15.8,73.1,15.8,73.1,15.9z"/>
		<path fill="#231F20" d="M78.7,19C78.7,19,78.6,19,78.7,19L78,19c0,0-0.1,0-0.1-0.1v-2.5c0-0.3-0.1-0.4-0.3-0.4h0
			c-0.2,0-0.4,0.2-0.6,0.5l-0.5,0.6V19c0,0,0,0.1-0.1,0.1h-0.6c0,0-0.1,0-0.1-0.1v-2.5c0-0.3-0.1-0.4-0.3-0.4h0
			c-0.2,0-0.4,0.2-0.6,0.5l-0.5,0.6V19c0,0,0,0.1-0.1,0.1h-0.6c0,0-0.1,0-0.1-0.1v-3.4c0,0,0-0.1,0.1-0.1h0.6c0,0,0.1,0,0.1,0.1v0.7
			l0.2-0.3c0.3-0.3,0.5-0.6,0.9-0.6h0.1c0.5,0,0.8,0.3,0.9,0.9l0.3-0.3c0.3-0.3,0.5-0.6,0.9-0.6h0.1c0.6,0,0.9,0.4,0.9,1.1V19z"/>
		<path fill="#231F20" d="M84.7,19C84.7,19,84.6,19,84.7,19L84,19c0,0-0.1,0-0.1-0.1v-0.8l-0.3,0.4c-0.3,0.3-0.5,0.6-1.1,0.6h-0.1
			c-0.7,0-1.1-0.4-1.1-1.1v-1.3c0-0.9,0.6-1.4,1.4-1.4h0.1c0.4,0,0.9,0.2,1.1,0.3v-1.8c0,0,0-0.1,0.1-0.1h0.6c0,0,0.1,0,0.1,0.1V19z
			 M83.9,16.3c-0.2-0.1-0.6-0.3-1-0.3h-0.1c-0.4,0-0.7,0.2-0.7,0.7V18c0,0.3,0.2,0.4,0.4,0.4h0.1c0.3,0,0.5-0.2,0.7-0.5l0.6-0.7
			V16.3z"/>
		<path fill="#231F20" d="M88.9,19C88.9,19,88.8,19,88.9,19L88.2,19c0,0-0.1,0-0.1-0.1v-0.8l-0.3,0.4c-0.3,0.3-0.5,0.6-1.1,0.6h-0.1
			c-0.7,0-1.1-0.4-1.1-1.1v-1.3c0-0.9,0.6-1.4,1.4-1.4H87c0.4,0,0.9,0.2,1.1,0.3v-0.1c0,0,0-0.1,0.1-0.1h0.6c0,0,0.1,0,0.1,0.1V19z
			 M88.1,16.3c-0.2-0.1-0.6-0.3-1-0.3H87c-0.4,0-0.7,0.2-0.7,0.7V18c0,0.3,0.2,0.4,0.4,0.4h0.1c0.3,0,0.5-0.2,0.7-0.5l0.6-0.7V16.3z
			"/>
		<path fill="#231F20" d="M91.8,18.8c-0.2,0.4-0.4,0.8-0.8,1.1l-0.5,0.5c0,0,0,0-0.1,0c0,0,0,0-0.1,0l-0.4-0.4c0,0,0,0,0-0.1
			c0,0,0,0,0-0.1l0.5-0.5c0.2-0.2,0.4-0.3,0.5-0.6l0,0l-1.4-3.2c0,0,0,0,0-0.1c0,0,0-0.1,0.1-0.1h0.6c0.1,0,0.1,0,0.1,0.1l0.7,1.6
			c0.1,0.3,0.2,0.6,0.2,0.8l0.8-2.4c0-0.1,0.1-0.1,0.1-0.1h0.6c0.1,0,0.1,0,0.1,0.1c0,0,0,0,0,0.1L91.8,18.8z"/>
		<path fill="#231F20" d="M94,18.9c0,0.1,0,0.2-0.1,0.3l-0.3,0.7c0,0,0,0.1-0.1,0.1h-0.3c0,0-0.1,0-0.1-0.1v-1.6c0,0,0-0.1,0.1-0.1
			h0.7c0,0,0.1,0,0.1,0.1V18.9z"/>
		<path fill="#231F20" d="M100.7,19c0,0,0,0.1-0.1,0.1h-0.9c-0.1,0-0.1,0-0.1-0.1l-0.4-1.2c-0.1-0.3-0.2-0.7-0.2-0.9
			c0,0.3-0.1,0.6-0.2,0.9L98.3,19c0,0,0,0.1-0.1,0.1h-0.9c-0.1,0-0.1,0-0.1-0.1l-0.7-3.2c0-0.1,0-0.2,0-0.2c0-0.1,0-0.1,0.1-0.1h0.6
			c0.1,0,0.1,0,0.1,0.1l0.4,1.9c0.1,0.3,0.1,0.7,0.1,1l0.7-2.1c0-0.1,0.1-0.1,0.1-0.1h0.7c0.1,0,0.1,0,0.1,0.1l0.7,2.1
			c0-0.3,0-0.7,0.1-1l0.4-1.9c0-0.1,0.1-0.1,0.1-0.1h0.5c0.1,0,0.1,0,0.1,0.1c0,0,0,0.1,0,0.2L100.7,19z"/>
		<path fill="#231F20" d="M103.4,19C103.4,19,103.3,19,103.4,19l-0.7,0.1c0,0-0.1,0-0.1-0.1v-2.8l-0.8-0.2c0,0-0.1,0-0.1-0.1v-0.4
			c0,0,0-0.1,0.1-0.1h1.5c0,0,0.1,0,0.1,0.1V19z M103.4,14.5C103.4,14.6,103.4,14.6,103.4,14.5l-0.8,0.1c0,0-0.1,0-0.1-0.1v-0.7
			c0,0,0-0.1,0.1-0.1h0.7c0,0,0.1,0,0.1,0.1V14.5z"/>
		<path fill="#231F20" d="M106.3,19C106.3,19,106.3,19,106.3,19l-0.6,0.1c-0.7,0-1.1-0.4-1.1-1.1v-1.8l-0.6-0.1c0,0-0.1,0-0.1-0.1
			v-0.4c0,0,0-0.1,0.1-0.1h0.6v-0.4c0-0.1,0-0.1,0.1-0.2l0.5-0.3c0,0,0.1,0,0.1,0c0.1,0,0.1,0,0.1,0.1v0.8h0.8c0,0,0.1,0,0.1,0.1
			v0.6c0,0,0,0.1-0.1,0.1h-0.8V18c0,0.3,0.2,0.4,0.4,0.4h0.5c0,0,0.1,0,0.1,0.1V19z"/>
		<path fill="#231F20" d="M110.3,19C110.3,19,110.3,19,110.3,19l-0.7,0.1c0,0-0.1,0-0.1-0.1v-2.5c0-0.3-0.1-0.5-0.4-0.5h-0.1
			c-0.3,0-0.5,0.2-0.7,0.5l-0.6,0.7V19c0,0,0,0.1-0.1,0.1h-0.6c0,0-0.1,0-0.1-0.1v-5.1c0,0,0-0.1,0.1-0.1h0.6c0,0,0.1,0,0.1,0.1v2.4
			l0.3-0.4c0.3-0.4,0.6-0.6,1.1-0.6h0.1c0.7,0,1.1,0.4,1.1,1.1V19z"/>
		<path fill="#231F20" d="M116.3,19C116.3,19,116.3,19,116.3,19l-0.7,0.1c0,0-0.1,0-0.1-0.1v-0.8l-0.3,0.4c-0.3,0.3-0.5,0.6-1.1,0.6
			h-0.1c-0.7,0-1.1-0.4-1.1-1.1v-1.3c0-0.9,0.6-1.4,1.4-1.4h0.1c0.4,0,0.9,0.2,1.1,0.3v-0.1c0,0,0-0.1,0.1-0.1h0.6
			c0,0,0.1,0,0.1,0.1V19z M115.6,16.3c-0.2-0.1-0.6-0.3-1-0.3h-0.1c-0.4,0-0.7,0.2-0.7,0.7V18c0,0.3,0.2,0.4,0.4,0.4h0.1
			c0.3,0,0.5-0.2,0.7-0.5l0.6-0.7V16.3z"/>
		<path fill="#231F20" d="M122.4,19C122.4,19,122.4,19,122.4,19l-0.7,0.1c0,0-0.1,0-0.1-0.1v-2.5c0-0.3-0.1-0.5-0.4-0.5h-0.1
			c-0.3,0-0.5,0.2-0.7,0.5l-0.6,0.7V19c0,0,0,0.1-0.1,0.1h-0.6c0,0-0.1,0-0.1-0.1v-5.1c0,0,0-0.1,0.1-0.1h0.6c0,0,0.1,0,0.1,0.1v2.4
			l0.3-0.4c0.3-0.4,0.6-0.6,1.1-0.6h0.1c0.7,0,1.1,0.4,1.1,1.1V19z"/>
		<path fill="#231F20" d="M124.5,19C124.5,19,124.4,19,124.5,19l-0.7,0.1c0,0-0.1,0-0.1-0.1v-2.8l-0.8-0.2c0,0-0.1,0-0.1-0.1v-0.4
			c0,0,0-0.1,0.1-0.1h1.5c0,0,0.1,0,0.1,0.1V19z M124.6,14.5C124.6,14.6,124.5,14.6,124.6,14.5l-0.8,0.1c0,0-0.1,0-0.1-0.1v-0.7
			c0,0,0-0.1,0.1-0.1h0.7c0,0,0.1,0,0.1,0.1V14.5z"/>
		<path fill="#231F20" d="M128.7,19c0,0.9-0.6,1.4-1.7,1.4h-1.4c0,0-0.1,0-0.1-0.1v-0.5c0,0,0-0.1,0.1-0.1h1.3c0.6,0,1-0.2,1-0.8
			v-0.8l-0.3,0.4c-0.3,0.3-0.5,0.6-1.1,0.6h-0.1c-0.7,0-1.1-0.4-1.1-1.1v-1.3c0-0.9,0.6-1.4,1.4-1.4h0.1c0.4,0,0.9,0.2,1.1,0.3v-0.1
			c0,0,0-0.1,0.1-0.1h0.6c0,0,0.1,0,0.1,0.1V19z M127.9,16.3c-0.2-0.1-0.6-0.3-1-0.3h-0.1c-0.4,0-0.7,0.2-0.7,0.7V18
			c0,0.3,0.2,0.4,0.4,0.4h0.1c0.3,0,0.5-0.2,0.7-0.5l0.6-0.7V16.3z"/>
		<path fill="#231F20" d="M133,19C133,19,132.9,19,133,19l-0.7,0.1c0,0-0.1,0-0.1-0.1v-2.5c0-0.3-0.1-0.5-0.4-0.5h-0.1
			c-0.3,0-0.5,0.2-0.7,0.5l-0.6,0.7V19c0,0,0,0.1-0.1,0.1h-0.6c0,0-0.1,0-0.1-0.1v-5.1c0,0,0-0.1,0.1-0.1h0.6c0,0,0.1,0,0.1,0.1v2.4
			l0.3-0.4c0.3-0.4,0.6-0.6,1.1-0.6h0.1c0.7,0,1.1,0.4,1.1,1.1V19z"/>
		<path fill="#231F20" d="M139,17.8c0,0.9-0.6,1.3-1.4,1.3h-0.5c-0.8,0-1.4-0.5-1.4-1.3v-1c0-0.9,0.6-1.3,1.4-1.3h0.5
			c0.8,0,1.4,0.5,1.4,1.3V17.8z M138.2,16.7c0-0.5-0.3-0.7-0.8-0.7h-0.2c-0.5,0-0.8,0.2-0.8,0.7v1c0,0.5,0.3,0.7,0.8,0.7h0.2
			c0.5,0,0.8-0.2,0.8-0.7V16.7z"/>
		<path fill="#231F20" d="M142,14.4C142,14.4,142,14.5,142,14.4l-0.7,0.1c-0.2,0-0.4,0.1-0.4,0.4v0.6h0.8c0,0,0.1,0,0.1,0.1v0.6
			c0,0,0,0.1-0.1,0.1H141V19c0,0,0,0.1-0.1,0.1h-0.6c0,0-0.1,0-0.1-0.1v-2.8l-0.7-0.2c0,0-0.1,0-0.1-0.1v-0.4c0,0,0-0.1,0.1-0.1h0.7
			v-0.6c0-0.7,0.4-1.1,1.1-1.1h0.7c0,0,0.1,0,0.1,0.1V14.4z"/>
		<path fill="#231F20" d="M147.2,14.7c0,0.1,0,0.1-0.1,0.1l-0.6,0.6c-0.8,0.8-1.2,1.3-1.2,2.9V19c0,0,0,0.1-0.1,0.1h-0.8
			c0,0-0.1,0-0.1-0.1v-0.6c0-1.7,0.6-2.5,1.4-3.2l0.5-0.4h-2.4c0,0-0.1,0-0.1-0.1v-0.6c0,0,0-0.1,0.1-0.1h3.2c0,0,0.1,0,0.1,0.1
			V14.7z"/>
		<path fill="#231F20" d="M149.4,14c1.1,0,1.6,0.4,1.6,1.3v0.1c0,0.7-0.5,1.1-1.2,1.4c-0.2,0.1-0.6,0.2-0.9,0.3
			c-0.4,0.1-0.6,0.4-0.6,0.9v0.3h2.6c0,0,0.1,0,0.1,0.1V19c0,0,0,0.1-0.1,0.1h-3.3c-0.1,0-0.2-0.1-0.2-0.2V18c0-1.1,0.5-1.4,1.5-1.7
			c0.6-0.2,1.2-0.4,1.2-0.9v-0.1c0-0.5-0.3-0.6-0.9-0.6h-1.5c0,0-0.1,0-0.1-0.1v-0.5c0,0,0-0.1,0.1-0.1H149.4z"/>
		<path fill="#231F20" d="M153.6,16.5h-0.5c-0.7,0-1.3-0.5-1.3-1.2V15c0-0.7,0.5-1.2,1.3-1.2h0.5c0.7,0,1.3,0.5,1.3,1.2v0.2
			C154.9,16,154.3,16.5,153.6,16.5z M154.1,15.1c0-0.4-0.3-0.7-0.6-0.7h-0.2c-0.4,0-0.6,0.3-0.6,0.7v0.1c0,0.4,0.2,0.7,0.6,0.7h0.2
			C153.8,15.9,154.1,15.6,154.1,15.1L154.1,15.1z"/>
		<path fill="#231F20" d="M156.7,19C156.7,19,156.7,19,156.7,19L156,19c0,0-0.1,0-0.1-0.1v-0.7c0,0,0-0.1,0.1-0.1h0.7
			c0,0,0.1,0,0.1,0.1V19z"/>
		<path fill="#231F20" d="M168.7,19C168.7,19,168.7,19,168.7,19l-2.1,0.1c-1,0-1.7-0.6-1.7-1.7v-1.7c0-1,0.7-1.7,1.7-1.7h2
			c0,0,0.1,0,0.1,0.1v0.5c0,0,0,0.1-0.1,0.1h-2c-0.6,0-1,0.4-1,1v1.7c0,0.6,0.4,1,1,1h1.2v-1.4h-0.8c0,0-0.1,0-0.1-0.1v-0.5
			c0,0,0-0.1,0.1-0.1h1.6c0,0,0.1,0,0.1,0.1V19z"/>
		<path fill="#231F20" d="M172.6,15.9C172.6,15.9,172.6,15.9,172.6,15.9l-0.5,0.5c0,0,0,0-0.1,0c0,0,0,0-0.1,0
			c-0.1-0.1-0.2-0.2-0.3-0.2h-0.1c-0.2,0-0.3,0.2-0.5,0.4l-0.5,0.7V19c0,0,0,0.1-0.1,0.1h-0.6c0,0-0.1,0-0.1-0.1v-3.4
			c0,0,0-0.1,0.1-0.1h0.6c0,0,0.1,0,0.1,0.1v0.8l0.3-0.4c0.2-0.3,0.5-0.5,0.9-0.5h0.1C172.1,15.4,172.3,15.5,172.6,15.9
			C172.6,15.8,172.6,15.8,172.6,15.9z"/>
		<path fill="#231F20" d="M176.1,19C176.1,19,176.1,19,176.1,19l-0.7,0.1c0,0-0.1,0-0.1-0.1v-0.8l-0.3,0.4c-0.3,0.3-0.5,0.6-1.1,0.6
			h-0.1c-0.7,0-1.1-0.4-1.1-1.1v-1.3c0-0.9,0.6-1.4,1.4-1.4h0.1c0.4,0,0.9,0.2,1.1,0.3v-0.1c0,0,0-0.1,0.1-0.1h0.6
			c0,0,0.1,0,0.1,0.1V19z M175.3,16.3c-0.2-0.1-0.6-0.3-1-0.3h-0.1c-0.4,0-0.7,0.2-0.7,0.7V18c0,0.3,0.2,0.4,0.4,0.4h0.1
			c0.3,0,0.5-0.2,0.7-0.5l0.6-0.7V16.3z"/>
		<path fill="#231F20" d="M177.1,13.9C177.1,13.9,177.2,13.8,177.1,13.9l0.7-0.1c0,0,0.1,0,0.1,0.1v2.4l0.3-0.4
			c0.3-0.3,0.5-0.6,1.1-0.6h0.1c0.7,0,1.1,0.4,1.1,1.1v1.2c0,0.9-0.6,1.3-1.4,1.3h-1.8c0,0-0.1,0-0.1-0.1V13.9z M177.9,18.4h1
			c0.5,0,0.8-0.2,0.8-0.7v-1.2c0-0.3-0.2-0.4-0.4-0.4h-0.1c-0.3,0-0.5,0.2-0.7,0.5l-0.6,0.7V18.4z"/>
		<path fill="#231F20" d="M186.4,19C186.4,19,186.4,19,186.4,19l-0.7,0.1c0,0-0.1,0-0.1-0.1v-0.8l-0.3,0.4c-0.3,0.3-0.5,0.6-1.1,0.6
			h-0.1c-0.7,0-1.1-0.4-1.1-1.1v-1.3c0-0.9,0.6-1.4,1.4-1.4h0.1c0.4,0,0.9,0.2,1.1,0.3v-0.1c0,0,0-0.1,0.1-0.1h0.6
			c0,0,0.1,0,0.1,0.1V19z M185.7,16.3c-0.2-0.1-0.6-0.3-1-0.3h-0.1c-0.4,0-0.7,0.2-0.7,0.7V18c0,0.3,0.2,0.4,0.4,0.4h0.1
			c0.3,0,0.5-0.2,0.7-0.5l0.6-0.7V16.3z"/>
		<path fill="#231F20" d="M190.8,19C190.8,19,190.7,19,190.8,19l-0.7,0.1c0,0-0.1,0-0.1-0.1v-2.5c0-0.3-0.1-0.5-0.4-0.5h-0.1
			c-0.3,0-0.5,0.2-0.7,0.5l-0.6,0.7V19c0,0,0,0.1-0.1,0.1h-0.6c0,0-0.1,0-0.1-0.1v-3.4c0,0,0-0.1,0.1-0.1h0.6c0,0,0.1,0,0.1,0.1v0.8
			l0.3-0.4c0.3-0.4,0.6-0.6,1.1-0.6h0.1c0.7,0,1.1,0.4,1.1,1.1V19z"/>
		<path fill="#231F20" d="M193.5,15.5C193.5,15.5,193.5,15.5,193.5,15.5l0.7-0.1c0,0,0.1,0,0.1,0.1V18c0,0.3,0.1,0.5,0.4,0.5h0.1
			c0.3,0,0.4-0.2,0.7-0.4l0.6-0.7v-1.8c0,0,0-0.1,0.1-0.1h0.6c0,0,0.1,0,0.1,0.1V19c0,0,0,0.1-0.1,0.1h-0.6c0,0-0.1,0-0.1-0.1v-0.7
			l-0.3,0.4c-0.2,0.3-0.5,0.5-1,0.5h-0.1c-0.7,0-1.1-0.4-1.1-1.1V15.5z"/>
		<path fill="#231F20" d="M202.9,19C202.9,19,202.9,19,202.9,19l-0.7,0.1c0,0-0.1,0-0.1-0.1v-2.5c0-0.3-0.1-0.4-0.3-0.4h0
			c-0.2,0-0.4,0.2-0.6,0.5l-0.5,0.6V19c0,0,0,0.1-0.1,0.1h-0.6c0,0-0.1,0-0.1-0.1v-2.5c0-0.3-0.1-0.4-0.3-0.4h0
			c-0.2,0-0.4,0.2-0.6,0.5l-0.5,0.6V19c0,0,0,0.1-0.1,0.1h-0.6c0,0-0.1,0-0.1-0.1v-3.4c0,0,0-0.1,0.1-0.1h0.6c0,0,0.1,0,0.1,0.1v0.7
			l0.2-0.3c0.3-0.3,0.5-0.6,0.9-0.6h0.1c0.5,0,0.8,0.3,0.9,0.9L201,16c0.3-0.3,0.5-0.6,0.9-0.6h0.1c0.6,0,0.9,0.4,0.9,1.1V19z"/>
		<path fill="#231F20" d="M203.9,13.9C203.9,13.9,204,13.8,203.9,13.9l0.7-0.1c0,0,0.1,0,0.1,0.1v2.4l0.3-0.4
			c0.3-0.3,0.5-0.6,1.1-0.6h0.1c0.7,0,1.1,0.4,1.1,1.1v1.2c0,0.9-0.6,1.3-1.4,1.3H204c0,0-0.1,0-0.1-0.1V13.9z M204.7,18.4h1
			c0.5,0,0.8-0.2,0.8-0.7v-1.2c0-0.3-0.2-0.4-0.4-0.4H206c-0.3,0-0.5,0.2-0.7,0.5l-0.6,0.7V18.4z"/>
		<path fill="#231F20" d="M210.9,15.9C210.9,15.9,210.9,15.9,210.9,15.9l-0.5,0.5c0,0,0,0-0.1,0c0,0,0,0-0.1,0
			c-0.1-0.1-0.2-0.2-0.3-0.2h-0.1c-0.2,0-0.3,0.2-0.5,0.4l-0.5,0.7V19c0,0,0,0.1-0.1,0.1h-0.6c0,0-0.1,0-0.1-0.1v-3.4
			c0,0,0-0.1,0.1-0.1h0.6c0,0,0.1,0,0.1,0.1v0.8l0.3-0.4c0.2-0.3,0.5-0.5,0.9-0.5h0.1C210.4,15.4,210.7,15.5,210.9,15.9
			C210.9,15.8,210.9,15.8,210.9,15.9z"/>
		<path fill="#231F20" d="M211.9,17.5v0.2c0,0.5,0.3,0.7,0.8,0.7h1.5c0,0,0.1,0,0.1,0.1V19c0,0,0,0.1-0.1,0.1h-1.6
			c-0.8,0-1.4-0.5-1.4-1.3v-1c0-0.9,0.6-1.3,1.4-1.3h0.4c0.8,0,1.4,0.5,1.4,1.3V17c0,0.1,0,0.1-0.1,0.2l-0.4,0.3
			c-0.1,0.1-0.1,0.1-0.2,0.1H211.9z M211.9,16.9h1.7v-0.2c0-0.5-0.3-0.7-0.8-0.7h-0.2c-0.5,0-0.8,0.2-0.8,0.7V16.9z"/>
		<path fill="#231F20" d="M216.8,19C216.8,19,216.8,19,216.8,19l-0.5,0.1c-0.7,0-1.1-0.4-1.1-1.1v-4.1c0,0,0-0.1,0.1-0.1h0.6
			c0,0,0.1,0,0.1,0.1V18c0,0.3,0.2,0.4,0.4,0.4h0.4c0,0,0.1,0,0.1,0.1V19z"/>
		<path fill="#231F20" d="M219,19C219,19,219,19,219,19l-0.5,0.1c-0.7,0-1.1-0.4-1.1-1.1v-4.1c0,0,0-0.1,0.1-0.1h0.6
			c0,0,0.1,0,0.1,0.1V18c0,0.3,0.2,0.4,0.4,0.4h0.4c0,0,0.1,0,0.1,0.1V19z"/>
		<path fill="#231F20" d="M222.8,19C222.8,19,222.8,19,222.8,19l-0.7,0.1c0,0-0.1,0-0.1-0.1v-0.8l-0.3,0.4c-0.3,0.3-0.5,0.6-1.1,0.6
			h-0.1c-0.7,0-1.1-0.4-1.1-1.1v-1.3c0-0.9,0.6-1.4,1.4-1.4h0.1c0.4,0,0.9,0.2,1.1,0.3v-0.1c0,0,0-0.1,0.1-0.1h0.6
			c0,0,0.1,0,0.1,0.1V19z M222.1,16.3c-0.2-0.1-0.6-0.3-1-0.3H221c-0.4,0-0.7,0.2-0.7,0.7V18c0,0.3,0.2,0.4,0.4,0.4h0.1
			c0.3,0,0.5-0.2,0.7-0.5l0.6-0.7V16.3z"/>
		<path fill="#231F20" d="M54.2,33.8C54.2,33.8,54.1,33.8,54.2,33.8l-0.7,0.1c0,0-0.1,0-0.1-0.1V33l-0.3,0.4
			c-0.3,0.3-0.5,0.6-1.1,0.6h-0.1c-0.7,0-1.1-0.4-1.1-1.1v-1.3c0-0.9,0.6-1.4,1.4-1.4h0.1c0.4,0,0.9,0.2,1.1,0.3v-0.1
			c0,0,0-0.1,0.1-0.1h0.6c0,0,0.1,0,0.1,0.1V33.8z M53.4,31.1c-0.2-0.1-0.6-0.3-1-0.3h-0.1c-0.4,0-0.7,0.2-0.7,0.7v1.3
			c0,0.3,0.2,0.4,0.4,0.4h0.1c0.3,0,0.5-0.2,0.7-0.5l0.6-0.7V31.1z"/>
		<path fill="#231F20" d="M58.5,33.8C58.5,33.8,58.5,33.8,58.5,33.8l-0.7,0.1c0,0-0.1,0-0.1-0.1v-2.5c0-0.3-0.1-0.5-0.4-0.5h-0.1
			c-0.3,0-0.5,0.2-0.7,0.5L56,32v1.8c0,0,0,0.1-0.1,0.1h-0.6c0,0-0.1,0-0.1-0.1v-3.4c0,0,0-0.1,0.1-0.1h0.6c0,0,0.1,0,0.1,0.1v0.8
			l0.3-0.4c0.3-0.4,0.6-0.6,1.1-0.6h0.1c0.7,0,1.1,0.4,1.1,1.1V33.8z"/>
		<path fill="#231F20" d="M62.7,33.8C62.7,33.8,62.6,33.8,62.7,33.8L62,33.8c0,0-0.1,0-0.1-0.1V33l-0.3,0.4
			c-0.3,0.3-0.5,0.6-1.1,0.6h-0.1c-0.7,0-1.1-0.4-1.1-1.1v-1.3c0-0.9,0.6-1.4,1.4-1.4h0.1c0.4,0,0.9,0.2,1.1,0.3v-1.8
			c0,0,0-0.1,0.1-0.1h0.6c0,0,0.1,0,0.1,0.1V33.8z M61.9,31.1c-0.2-0.1-0.6-0.3-1-0.3h-0.1c-0.4,0-0.7,0.2-0.7,0.7v1.3
			c0,0.3,0.2,0.4,0.4,0.4h0.1c0.3,0,0.5-0.2,0.7-0.5l0.6-0.7V31.1z"/>
		<path fill="#231F20" d="M70.6,33.8C70.6,33.8,70.5,33.8,70.6,33.8l-0.7,0.1c0,0-0.1,0-0.1-0.1v-2.5c0-0.3-0.1-0.5-0.4-0.5h-0.1
			c-0.3,0-0.5,0.2-0.7,0.5L68,32v1.8c0,0,0,0.1-0.1,0.1h-0.6c0,0-0.1,0-0.1-0.1v-5.1c0,0,0-0.1,0.1-0.1H68c0,0,0.1,0,0.1,0.1v2.4
			l0.3-0.4c0.3-0.4,0.6-0.6,1.1-0.6h0.1c0.7,0,1.1,0.4,1.1,1.1V33.8z"/>
		<path fill="#231F20" d="M74.7,32.6c0,0.9-0.6,1.3-1.4,1.3h-0.5c-0.8,0-1.4-0.5-1.4-1.3v-1c0-0.9,0.6-1.3,1.4-1.3h0.5
			c0.8,0,1.4,0.5,1.4,1.3V32.6z M74,31.5c0-0.5-0.3-0.7-0.8-0.7H73c-0.5,0-0.8,0.2-0.8,0.7v1c0,0.5,0.3,0.7,0.8,0.7h0.2
			c0.5,0,0.8-0.2,0.8-0.7V31.5z"/>
		<path fill="#231F20" d="M77.2,33.8C77.2,33.8,77.2,33.8,77.2,33.8l-0.5,0.1c-0.7,0-1.1-0.4-1.1-1.1v-4.1c0,0,0-0.1,0.1-0.1h0.6
			c0,0,0.1,0,0.1,0.1v4.1c0,0.3,0.2,0.4,0.4,0.4h0.4c0,0,0.1,0,0.1,0.1V33.8z"/>
		<path fill="#231F20" d="M81,33.8C81,33.8,81,33.8,81,33.8l-0.7,0.1c0,0-0.1,0-0.1-0.1V33L80,33.4c-0.3,0.3-0.5,0.6-1.1,0.6h-0.1
			c-0.7,0-1.1-0.4-1.1-1.1v-1.3c0-0.9,0.6-1.4,1.4-1.4h0.1c0.4,0,0.9,0.2,1.1,0.3v-1.8c0,0,0-0.1,0.1-0.1h0.6c0,0,0.1,0,0.1,0.1
			V33.8z M80.2,31.1c-0.2-0.1-0.6-0.3-1-0.3h-0.1c-0.4,0-0.7,0.2-0.7,0.7v1.3c0,0.3,0.2,0.4,0.4,0.4h0.1c0.3,0,0.5-0.2,0.7-0.5
			l0.6-0.7V31.1z"/>
		<path fill="#231F20" d="M87.1,32.6c0,0.9-0.6,1.3-1.4,1.3h-0.5c-0.8,0-1.4-0.5-1.4-1.3v-1c0-0.9,0.6-1.3,1.4-1.3h0.5
			c0.8,0,1.4,0.5,1.4,1.3V32.6z M86.3,31.5c0-0.5-0.3-0.7-0.8-0.7h-0.2c-0.5,0-0.8,0.2-0.8,0.7v1c0,0.5,0.3,0.7,0.8,0.7h0.2
			c0.5,0,0.8-0.2,0.8-0.7V31.5z"/>
		<path fill="#231F20" d="M91.3,33.8C91.3,33.8,91.2,33.8,91.3,33.8l-0.7,0.1c0,0-0.1,0-0.1-0.1v-2.5c0-0.3-0.1-0.5-0.4-0.5H90
			c-0.3,0-0.5,0.2-0.7,0.5L88.7,32v1.8c0,0,0,0.1-0.1,0.1H88c0,0-0.1,0-0.1-0.1v-3.4c0,0,0-0.1,0.1-0.1h0.6c0,0,0.1,0,0.1,0.1v0.8
			l0.3-0.4c0.3-0.4,0.6-0.6,1.1-0.6h0.1c0.7,0,1.1,0.4,1.1,1.1V33.8z"/>
		<path fill="#231F20" d="M94.2,33.8C94.2,33.8,94.1,33.8,94.2,33.8l-0.6,0.1c-0.7,0-1.1-0.4-1.1-1.1V31l-0.6-0.1c0,0-0.1,0-0.1-0.1
			v-0.4c0,0,0-0.1,0.1-0.1h0.6v-0.4c0-0.1,0-0.1,0.1-0.2l0.5-0.3c0,0,0.1,0,0.1,0c0.1,0,0.1,0,0.1,0.1v0.8h0.8c0,0,0.1,0,0.1,0.1
			v0.6c0,0,0,0.1-0.1,0.1h-0.8v1.8c0,0.3,0.2,0.4,0.4,0.4h0.5c0,0,0.1,0,0.1,0.1V33.8z"/>
		<path fill="#231F20" d="M98.1,32.6c0,0.9-0.6,1.3-1.4,1.3h-0.5c-0.8,0-1.4-0.5-1.4-1.3v-1c0-0.9,0.6-1.3,1.4-1.3h0.5
			c0.8,0,1.4,0.5,1.4,1.3V32.6z M97.3,31.5c0-0.5-0.3-0.7-0.8-0.7h-0.2c-0.5,0-0.8,0.2-0.8,0.7v1c0,0.5,0.3,0.7,0.8,0.7h0.2
			c0.5,0,0.8-0.2,0.8-0.7V31.5z"/>
		<path fill="#231F20" d="M102.5,33.6c-0.2,0.4-0.4,0.8-0.8,1.1l-0.5,0.5c0,0,0,0-0.1,0c0,0,0,0-0.1,0l-0.4-0.4c0,0,0,0,0-0.1
			c0,0,0,0,0-0.1l0.5-0.5c0.2-0.2,0.4-0.3,0.5-0.6l0,0l-1.4-3.2c0,0,0,0,0-0.1c0,0,0-0.1,0.1-0.1h0.6c0.1,0,0.1,0,0.1,0.1l0.7,1.6
			c0.1,0.3,0.2,0.6,0.2,0.8l0.8-2.4c0-0.1,0.1-0.1,0.1-0.1h0.6c0.1,0,0.1,0,0.1,0.1c0,0,0,0,0,0.1L102.5,33.6z"/>
		<path fill="#231F20" d="M107.4,32.6c0,0.9-0.6,1.3-1.4,1.3h-0.5c-0.8,0-1.4-0.5-1.4-1.3v-1c0-0.9,0.6-1.3,1.4-1.3h0.5
			c0.8,0,1.4,0.5,1.4,1.3V32.6z M106.6,31.5c0-0.5-0.3-0.7-0.8-0.7h-0.2c-0.5,0-0.8,0.2-0.8,0.7v1c0,0.5,0.3,0.7,0.8,0.7h0.2
			c0.5,0,0.8-0.2,0.8-0.7V31.5z"/>
		<path fill="#231F20" d="M108.3,30.3C108.3,30.3,108.3,30.3,108.3,30.3l0.7-0.1c0,0,0.1,0,0.1,0.1v2.5c0,0.3,0.1,0.5,0.4,0.5h0.1
			c0.3,0,0.4-0.2,0.7-0.4l0.6-0.7v-1.8c0,0,0-0.1,0.1-0.1h0.6c0,0,0.1,0,0.1,0.1v3.4c0,0,0,0.1-0.1,0.1h-0.6c0,0-0.1,0-0.1-0.1V33
			l-0.3,0.4c-0.2,0.3-0.5,0.5-1,0.5h-0.1c-0.7,0-1.1-0.4-1.1-1.1V30.3z"/>
		<path fill="#231F20" d="M115.3,30.7C115.3,30.7,115.3,30.7,115.3,30.7l-0.5,0.5c0,0,0,0-0.1,0c0,0,0,0-0.1,0
			c-0.1-0.1-0.2-0.2-0.3-0.2h-0.1c-0.2,0-0.3,0.2-0.5,0.4l-0.5,0.7v1.7c0,0,0,0.1-0.1,0.1h-0.6c0,0-0.1,0-0.1-0.1v-3.4
			c0,0,0-0.1,0.1-0.1h0.6c0,0,0.1,0,0.1,0.1v0.8l0.3-0.4c0.2-0.3,0.5-0.5,0.9-0.5h0.1C114.8,30.2,115.1,30.3,115.3,30.7
			C115.3,30.6,115.3,30.6,115.3,30.7z"/>
		<path fill="#231F20" d="M120.9,33.8C120.9,33.8,120.9,33.8,120.9,33.8l-0.7,0.1c0,0-0.1,0-0.1-0.1v-2.5c0-0.3-0.1-0.5-0.4-0.5
			h-0.1c-0.3,0-0.5,0.2-0.7,0.5l-0.6,0.7v1.8c0,0,0,0.1-0.1,0.1h-0.6c0,0-0.1,0-0.1-0.1v-5.1c0,0,0-0.1,0.1-0.1h0.6
			c0,0,0.1,0,0.1,0.1v2.4l0.3-0.4c0.3-0.4,0.6-0.6,1.1-0.6h0.1c0.7,0,1.1,0.4,1.1,1.1V33.8z"/>
		<path fill="#231F20" d="M125.1,33.8C125.1,33.8,125.1,33.8,125.1,33.8l-0.7,0.1c0,0-0.1,0-0.1-0.1V33l-0.3,0.4
			c-0.3,0.3-0.5,0.6-1.1,0.6h-0.1c-0.7,0-1.1-0.4-1.1-1.1v-1.3c0-0.9,0.6-1.4,1.4-1.4h0.1c0.4,0,0.9,0.2,1.1,0.3v-0.1
			c0,0,0-0.1,0.1-0.1h0.6c0,0,0.1,0,0.1,0.1V33.8z M124.3,31.1c-0.2-0.1-0.6-0.3-1-0.3h-0.1c-0.4,0-0.7,0.2-0.7,0.7v1.3
			c0,0.3,0.2,0.4,0.4,0.4h0.1c0.3,0,0.5-0.2,0.7-0.5l0.6-0.7V31.1z"/>
		<path fill="#231F20" d="M128.1,33.8C128.1,33.8,128,33.8,128.1,33.8l-0.6,0.1c-0.7,0-1.1-0.4-1.1-1.1V31l-0.6-0.1
			c0,0-0.1,0-0.1-0.1v-0.4c0,0,0-0.1,0.1-0.1h0.6v-0.4c0-0.1,0-0.1,0.1-0.2l0.5-0.3c0,0,0.1,0,0.1,0c0.1,0,0.1,0,0.1,0.1v0.8h0.8
			c0,0,0.1,0,0.1,0.1v0.6c0,0,0,0.1-0.1,0.1h-0.8v1.8c0,0.3,0.2,0.4,0.4,0.4h0.5c0,0,0.1,0,0.1,0.1V33.8z"/>
		<path fill="#231F20" d="M129.7,33.8C129.7,33.8,129.7,33.8,129.7,33.8l-0.8,0.1c0,0-0.1,0-0.1-0.1v-0.7c0,0,0-0.1,0.1-0.1h0.7
			c0,0,0.1,0,0.1,0.1V33.8z"/>
		<path fill="#231F20" d="M138.8,33.8C138.8,33.8,138.7,33.8,138.8,33.8l-0.7,0.1c0,0-0.1,0-0.1-0.1v-4.9c0,0,0-0.1,0.1-0.1h0.6
			c0,0,0.1,0,0.1,0.1V33.8z"/>
		<path fill="#231F20" d="M141.8,33.8C141.8,33.8,141.8,33.8,141.8,33.8l-0.6,0.1c-0.7,0-1.1-0.4-1.1-1.1V31l-0.6-0.1
			c0,0-0.1,0-0.1-0.1v-0.4c0,0,0-0.1,0.1-0.1h0.6v-0.4c0-0.1,0-0.1,0.1-0.2l0.5-0.3c0,0,0.1,0,0.1,0c0.1,0,0.1,0,0.1,0.1v0.8h0.8
			c0,0,0.1,0,0.1,0.1v0.6c0,0,0,0.1-0.1,0.1h-0.8v1.8c0,0.3,0.2,0.4,0.4,0.4h0.5c0,0,0.1,0,0.1,0.1V33.8z"/>
		<path fill="#231F20" d="M143.4,29.3c0,0.1,0,0.2-0.1,0.3l-0.3,0.7c0,0,0,0.1-0.1,0.1h-0.3c0,0-0.1,0-0.1-0.1v-1.5
			c0,0,0-0.1,0.1-0.1h0.7c0,0,0.1,0,0.1,0.1V29.3z"/>
		<path fill="#231F20" d="M146.7,30.8C146.7,30.9,146.7,30.9,146.7,30.8l-1.6,0.1c-0.2,0-0.4,0.1-0.4,0.3c0,0.2,0.1,0.3,0.4,0.4
			c0.2,0,0.5,0.1,0.7,0.1c0.6,0.1,1.1,0.3,1.1,1v0.1c0,0.6-0.5,1-1.2,1H144c0,0-0.1,0-0.1-0.1v-0.5c0,0,0-0.1,0.1-0.1h1.7
			c0.3,0,0.4-0.1,0.4-0.4c0-0.2-0.2-0.3-0.5-0.4c-0.2,0-0.5-0.1-0.8-0.1c-0.6-0.1-0.9-0.5-0.9-1v-0.1c0-0.6,0.5-0.9,1.1-0.9h1.6
			c0,0,0.1,0,0.1,0.1V30.8z"/>
		<path fill="#231F20" d="M152.7,33.8c0,0.9-0.6,1.4-1.7,1.4h-1.4c0,0-0.1,0-0.1-0.1v-0.5c0,0,0-0.1,0.1-0.1h1.3c0.6,0,1-0.2,1-0.8
			V33l-0.3,0.4c-0.3,0.3-0.5,0.6-1.1,0.6h-0.1c-0.7,0-1.1-0.4-1.1-1.1v-1.3c0-0.9,0.6-1.4,1.4-1.4h0.1c0.4,0,0.9,0.2,1.1,0.3v-0.1
			c0,0,0-0.1,0.1-0.1h0.6c0,0,0.1,0,0.1,0.1V33.8z M152,31.1c-0.2-0.1-0.6-0.3-1-0.3h-0.1c-0.4,0-0.7,0.2-0.7,0.7v1.3
			c0,0.3,0.2,0.4,0.4,0.4h0.1c0.3,0,0.5-0.2,0.7-0.5l0.6-0.7V31.1z"/>
		<path fill="#231F20" d="M156.9,32.6c0,0.9-0.6,1.3-1.4,1.3H155c-0.8,0-1.4-0.5-1.4-1.3v-1c0-0.9,0.6-1.3,1.4-1.3h0.5
			c0.8,0,1.4,0.5,1.4,1.3V32.6z M156.1,31.5c0-0.5-0.3-0.7-0.8-0.7h-0.2c-0.5,0-0.8,0.2-0.8,0.7v1c0,0.5,0.3,0.7,0.8,0.7h0.2
			c0.5,0,0.8-0.2,0.8-0.7V31.5z"/>
		<path fill="#231F20" d="M158.9,33.8C158.9,33.8,158.9,33.8,158.9,33.8l-0.7,0.1c0,0-0.1,0-0.1-0.1V31l-0.8-0.2c0,0-0.1,0-0.1-0.1
			v-0.4c0,0,0-0.1,0.1-0.1h1.5c0,0,0.1,0,0.1,0.1V33.8z M159,29.3C159,29.3,158.9,29.4,159,29.3l-0.8,0.1c0,0-0.1,0-0.1-0.1v-0.7
			c0,0,0-0.1,0.1-0.1h0.7c0,0,0.1,0,0.1,0.1V29.3z"/>
		<path fill="#231F20" d="M163.2,33.8C163.2,33.8,163.2,33.8,163.2,33.8l-0.7,0.1c0,0-0.1,0-0.1-0.1v-2.5c0-0.3-0.1-0.5-0.4-0.5H162
			c-0.3,0-0.5,0.2-0.7,0.5l-0.6,0.7v1.8c0,0,0,0.1-0.1,0.1H160c0,0-0.1,0-0.1-0.1v-3.4c0,0,0-0.1,0.1-0.1h0.6c0,0,0.1,0,0.1,0.1v0.8
			l0.3-0.4c0.3-0.4,0.6-0.6,1.1-0.6h0.1c0.7,0,1.1,0.4,1.1,1.1V33.8z"/>
		<path fill="#231F20" d="M167.4,33.8c0,0.9-0.6,1.4-1.7,1.4h-1.4c0,0-0.1,0-0.1-0.1v-0.5c0,0,0-0.1,0.1-0.1h1.3c0.6,0,1-0.2,1-0.8
			V33l-0.3,0.4c-0.3,0.3-0.5,0.6-1.1,0.6h-0.1c-0.7,0-1.1-0.4-1.1-1.1v-1.3c0-0.9,0.6-1.4,1.4-1.4h0.1c0.4,0,0.9,0.2,1.1,0.3v-0.1
			c0,0,0-0.1,0.1-0.1h0.6c0,0,0.1,0,0.1,0.1V33.8z M166.6,31.1c-0.2-0.1-0.6-0.3-1-0.3h-0.1c-0.4,0-0.7,0.2-0.7,0.7v1.3
			c0,0.3,0.2,0.4,0.4,0.4h0.1c0.3,0,0.5-0.2,0.7-0.5l0.6-0.7V31.1z"/>
		<path fill="#231F20" d="M172.1,33.8C172.1,33.8,172.1,33.8,172.1,33.8l-0.6,0.1c-0.7,0-1.1-0.4-1.1-1.1V31l-0.6-0.1
			c0,0-0.1,0-0.1-0.1v-0.4c0,0,0-0.1,0.1-0.1h0.6v-0.4c0-0.1,0-0.1,0.1-0.2l0.5-0.3c0,0,0.1,0,0.1,0c0.1,0,0.1,0,0.1,0.1v0.8h0.8
			c0,0,0.1,0,0.1,0.1v0.6c0,0,0,0.1-0.1,0.1h-0.8v1.8c0,0.3,0.2,0.4,0.4,0.4h0.5c0,0,0.1,0,0.1,0.1V33.8z"/>
		<path fill="#231F20" d="M176,32.6c0,0.9-0.6,1.3-1.4,1.3h-0.5c-0.8,0-1.4-0.5-1.4-1.3v-1c0-0.9,0.6-1.3,1.4-1.3h0.5
			c0.8,0,1.4,0.5,1.4,1.3V32.6z M175.2,31.5c0-0.5-0.3-0.7-0.8-0.7h-0.2c-0.5,0-0.8,0.2-0.8,0.7v1c0,0.5,0.3,0.7,0.8,0.7h0.2
			c0.5,0,0.8-0.2,0.8-0.7V31.5z"/>
		<path fill="#231F20" d="M178.7,28.7C178.7,28.7,178.8,28.6,178.7,28.7l0.7-0.1c0,0,0.1,0,0.1,0.1v2.4l0.3-0.4
			c0.3-0.3,0.5-0.6,1.1-0.6h0.1c0.7,0,1.1,0.4,1.1,1.1v1.2c0,0.9-0.6,1.3-1.4,1.3h-1.8c0,0-0.1,0-0.1-0.1V28.7z M179.5,33.2h1
			c0.5,0,0.8-0.2,0.8-0.7v-1.2c0-0.3-0.2-0.4-0.4-0.4h-0.1c-0.3,0-0.5,0.2-0.7,0.5l-0.6,0.7V33.2z"/>
		<path fill="#231F20" d="M183.6,32.3v0.2c0,0.5,0.3,0.7,0.8,0.7h1.5c0,0,0.1,0,0.1,0.1v0.5c0,0,0,0.1-0.1,0.1h-1.6
			c-0.8,0-1.4-0.5-1.4-1.3v-1c0-0.9,0.6-1.3,1.4-1.3h0.4c0.8,0,1.4,0.5,1.4,1.3v0.3c0,0.1,0,0.1-0.1,0.2l-0.4,0.3
			c-0.1,0.1-0.1,0.1-0.2,0.1H183.6z M183.6,31.7h1.7v-0.2c0-0.5-0.3-0.7-0.8-0.7h-0.2c-0.5,0-0.8,0.2-0.8,0.7V31.7z"/>
		<path fill="#231F20" d="M192,33.8C192,33.8,192,33.8,192,33.8l-0.7,0.1c0,0-0.1,0-0.1-0.1V33l-0.3,0.4c-0.3,0.3-0.5,0.6-1.1,0.6
			h-0.1c-0.7,0-1.1-0.4-1.1-1.1v-1.3c0-0.9,0.6-1.4,1.4-1.4h0.1c0.4,0,0.9,0.2,1.1,0.3v-0.1c0,0,0-0.1,0.1-0.1h0.6
			c0,0,0.1,0,0.1,0.1V33.8z M191.2,31.1c-0.2-0.1-0.6-0.3-1-0.3h-0.1c-0.4,0-0.7,0.2-0.7,0.7v1.3c0,0.3,0.2,0.4,0.4,0.4h0.1
			c0.3,0,0.5-0.2,0.7-0.5l0.6-0.7V31.1z"/>
		<path fill="#231F20" d="M198.6,33.8c0,0,0,0.1-0.1,0.1h-0.9c-0.1,0-0.1,0-0.1-0.1l-0.4-1.2c-0.1-0.3-0.2-0.7-0.2-0.9
			c0,0.3-0.1,0.6-0.2,0.9l-0.4,1.2c0,0,0,0.1-0.1,0.1h-0.9c-0.1,0-0.1,0-0.1-0.1l-0.7-3.2c0-0.1,0-0.2,0-0.2c0-0.1,0-0.1,0.1-0.1
			h0.6c0.1,0,0.1,0,0.1,0.1l0.4,1.9c0.1,0.3,0.1,0.7,0.1,1l0.7-2.1c0-0.1,0.1-0.1,0.1-0.1h0.7c0.1,0,0.1,0,0.1,0.1l0.7,2.1
			c0-0.3,0-0.7,0.1-1l0.4-1.9c0-0.1,0.1-0.1,0.1-0.1h0.5c0.1,0,0.1,0,0.1,0.1c0,0,0,0.1,0,0.2L198.6,33.8z"/>
		<path fill="#231F20" d="M200.6,32.3v0.2c0,0.5,0.3,0.7,0.8,0.7h1.5c0,0,0.1,0,0.1,0.1v0.5c0,0,0,0.1-0.1,0.1h-1.6
			c-0.8,0-1.4-0.5-1.4-1.3v-1c0-0.9,0.6-1.3,1.4-1.3h0.4c0.8,0,1.4,0.5,1.4,1.3v0.3c0,0.1,0,0.1-0.1,0.2l-0.4,0.3
			c-0.1,0.1-0.1,0.1-0.2,0.1H200.6z M200.6,31.7h1.7v-0.2c0-0.5-0.3-0.7-0.8-0.7h-0.2c-0.5,0-0.8,0.2-0.8,0.7V31.7z"/>
		<path fill="#231F20" d="M205.9,33.8C205.9,33.8,205.8,33.8,205.9,33.8l-0.6,0.1c-0.7,0-1.1-0.4-1.1-1.1V31l-0.6-0.1
			c0,0-0.1,0-0.1-0.1v-0.4c0,0,0-0.1,0.1-0.1h0.6v-0.4c0-0.1,0-0.1,0.1-0.2l0.5-0.3c0,0,0.1,0,0.1,0c0.1,0,0.1,0,0.1,0.1v0.8h0.8
			c0,0,0.1,0,0.1,0.1v0.6c0,0,0,0.1-0.1,0.1H205v1.8c0,0.3,0.2,0.4,0.4,0.4h0.5c0,0,0.1,0,0.1,0.1V33.8z"/>
		<path fill="#231F20" d="M213.4,33.8C213.4,33.8,213.4,33.8,213.4,33.8l-0.7,0.1c0,0-0.1,0-0.1-0.1V33l-0.3,0.4
			c-0.3,0.3-0.5,0.6-1.1,0.6h-0.1c-0.7,0-1.1-0.4-1.1-1.1v-1.3c0-0.9,0.6-1.4,1.4-1.4h0.1c0.4,0,0.9,0.2,1.1,0.3v-0.1
			c0,0,0-0.1,0.1-0.1h0.6c0,0,0.1,0,0.1,0.1V33.8z M212.6,31.1c-0.2-0.1-0.6-0.3-1-0.3h-0.1c-0.4,0-0.7,0.2-0.7,0.7v1.3
			c0,0.3,0.2,0.4,0.4,0.4h0.1c0.3,0,0.5-0.2,0.7-0.5l0.6-0.7V31.1z"/>
		<path fill="#231F20" d="M217.7,33.8C217.7,33.8,217.7,33.8,217.7,33.8l-0.7,0.1c0,0-0.1,0-0.1-0.1v-2.5c0-0.3-0.1-0.5-0.4-0.5
			h-0.1c-0.3,0-0.5,0.2-0.7,0.5l-0.6,0.7v1.8c0,0,0,0.1-0.1,0.1h-0.6c0,0-0.1,0-0.1-0.1v-3.4c0,0,0-0.1,0.1-0.1h0.6
			c0,0,0.1,0,0.1,0.1v0.8l0.3-0.4c0.3-0.4,0.6-0.6,1.1-0.6h0.1c0.7,0,1.1,0.4,1.1,1.1V33.8z"/>
		<path fill="#231F20" d="M221.9,33.8C221.9,33.8,221.9,33.8,221.9,33.8l-0.7,0.1c0,0-0.1,0-0.1-0.1V33l-0.3,0.4
			c-0.3,0.3-0.5,0.6-1.1,0.6h-0.1c-0.7,0-1.1-0.4-1.1-1.1v-1.3c0-0.9,0.6-1.4,1.4-1.4h0.1c0.4,0,0.9,0.2,1.1,0.3v-1.8
			c0,0,0-0.1,0.1-0.1h0.6c0,0,0.1,0,0.1,0.1V33.8z M221.1,31.1c-0.2-0.1-0.6-0.3-1-0.3H220c-0.4,0-0.7,0.2-0.7,0.7v1.3
			c0,0.3,0.2,0.4,0.4,0.4h0.1c0.3,0,0.5-0.2,0.7-0.5l0.6-0.7V31.1z"/>
		<path fill="#231F20" d="M54.1,45.3c0-0.1-0.1-0.2-0.1-0.2c0,0,0-0.1,0.1-0.1h0.6c0.1,0,0.1,0,0.1,0.1l0.6,1.9
			c0.1,0.4,0.2,0.7,0.3,1c0.1-0.3,0.1-0.6,0.3-1l0.7-1.9c0-0.1,0.1-0.1,0.1-0.1h0.6c0.1,0,0.1,0,0.1,0.1c0,0,0,0.1,0,0.2l-1.2,3.3
			c0,0,0,0.1-0.1,0.1h-0.8c-0.1,0-0.1,0-0.1-0.1L54.1,45.3z"/>
		<path fill="#231F20" d="M58.6,47.1v0.2c0,0.5,0.3,0.7,0.8,0.7h1.5c0,0,0.1,0,0.1,0.1v0.5c0,0,0,0.1-0.1,0.1h-1.6
			c-0.8,0-1.4-0.5-1.4-1.3v-1c0-0.9,0.6-1.3,1.4-1.3h0.4c0.8,0,1.4,0.5,1.4,1.3v0.3c0,0.1,0,0.1-0.1,0.2l-0.4,0.3
			c-0.1,0.1-0.1,0.1-0.2,0.1H58.6z M58.6,46.5h1.7v-0.2c0-0.5-0.3-0.7-0.8-0.7h-0.2c-0.5,0-0.8,0.2-0.8,0.7V46.5z"/>
		<path fill="#231F20" d="M64.8,45.5C64.8,45.5,64.8,45.5,64.8,45.5l-0.5,0.5c0,0,0,0-0.1,0c0,0,0,0-0.1,0c-0.1-0.1-0.2-0.2-0.3-0.2
			h-0.1c-0.2,0-0.3,0.2-0.5,0.4l-0.5,0.7v1.7c0,0,0,0.1-0.1,0.1H62c0,0-0.1,0-0.1-0.1v-3.4c0,0,0-0.1,0.1-0.1h0.6c0,0,0.1,0,0.1,0.1
			v0.8l0.3-0.4c0.2-0.3,0.5-0.5,0.9-0.5H64C64.2,45,64.5,45.1,64.8,45.5C64.8,45.4,64.8,45.4,64.8,45.5z"/>
		<path fill="#231F20" d="M67.1,48.4c-0.2,0.4-0.4,0.8-0.8,1.1l-0.5,0.5c0,0,0,0-0.1,0c0,0,0,0-0.1,0l-0.4-0.4c0,0,0,0,0-0.1
			c0,0,0,0,0-0.1l0.5-0.5c0.2-0.2,0.4-0.3,0.5-0.6l0,0l-1.4-3.2c0,0,0,0,0-0.1c0,0,0-0.1,0.1-0.1h0.6c0.1,0,0.1,0,0.1,0.1l0.7,1.6
			c0.1,0.3,0.2,0.6,0.2,0.8l0.8-2.4c0-0.1,0.1-0.1,0.1-0.1h0.6c0.1,0,0.1,0,0.1,0.1c0,0,0,0,0,0.1L67.1,48.4z"/>
		<path fill="#231F20" d="M74.4,48.6c0,0,0,0.1-0.1,0.1h-0.9c-0.1,0-0.1,0-0.1-0.1l-0.4-1.2c-0.1-0.3-0.2-0.7-0.2-0.9
			c0,0.3-0.1,0.6-0.2,0.9l-0.4,1.2c0,0,0,0.1-0.1,0.1h-0.9c-0.1,0-0.1,0-0.1-0.1l-0.7-3.2c0-0.1,0-0.2,0-0.2c0-0.1,0-0.1,0.1-0.1
			h0.6c0.1,0,0.1,0,0.1,0.1l0.4,1.9c0.1,0.3,0.1,0.7,0.1,1l0.7-2.1c0-0.1,0.1-0.1,0.1-0.1H73c0.1,0,0.1,0,0.1,0.1l0.7,2.1
			c0-0.3,0-0.7,0.1-1l0.4-1.9c0-0.1,0.1-0.1,0.1-0.1H75c0.1,0,0.1,0,0.1,0.1c0,0,0,0.1,0,0.2L74.4,48.6z"/>
		<path fill="#231F20" d="M77.1,48.6C77.1,48.6,77.1,48.6,77.1,48.6l-0.7,0.1c0,0-0.1,0-0.1-0.1v-2.8l-0.8-0.2c0,0-0.1,0-0.1-0.1
			v-0.4c0,0,0-0.1,0.1-0.1H77c0,0,0.1,0,0.1,0.1V48.6z M77.2,44.1C77.2,44.1,77.2,44.2,77.2,44.1l-0.8,0.1c0,0-0.1,0-0.1-0.1v-0.7
			c0,0,0-0.1,0.1-0.1h0.7c0,0,0.1,0,0.1,0.1V44.1z"/>
		<path fill="#231F20" d="M81.5,48.6C81.5,48.6,81.4,48.6,81.5,48.6l-0.7,0.1c0,0-0.1,0-0.1-0.1v-2.5c0-0.3-0.1-0.5-0.4-0.5h-0.1
			c-0.3,0-0.5,0.2-0.7,0.5l-0.6,0.7v1.8c0,0,0,0.1-0.1,0.1h-0.6c0,0-0.1,0-0.1-0.1v-3.4c0,0,0-0.1,0.1-0.1h0.6c0,0,0.1,0,0.1,0.1
			v0.8l0.3-0.4c0.3-0.4,0.6-0.6,1.1-0.6h0.1c0.7,0,1.1,0.4,1.1,1.1V48.6z"/>
		<path fill="#231F20" d="M85.6,48.6C85.6,48.6,85.6,48.6,85.6,48.6l-0.7,0.1c0,0-0.1,0-0.1-0.1v-0.8l-0.3,0.4
			c-0.3,0.3-0.5,0.6-1.1,0.6h-0.1c-0.7,0-1.1-0.4-1.1-1.1v-1.3c0-0.9,0.6-1.4,1.4-1.4h0.1c0.4,0,0.9,0.2,1.1,0.3v-1.8
			c0,0,0-0.1,0.1-0.1h0.6c0,0,0.1,0,0.1,0.1V48.6z M84.8,45.9c-0.2-0.1-0.6-0.3-1-0.3h-0.1c-0.4,0-0.7,0.2-0.7,0.7v1.3
			c0,0.3,0.2,0.4,0.4,0.4h0.1c0.3,0,0.5-0.2,0.7-0.5l0.6-0.7V45.9z"/>
		<path fill="#231F20" d="M88.5,48.4c-0.2,0.4-0.4,0.8-0.8,1.1l-0.5,0.5c0,0,0,0-0.1,0c0,0,0,0-0.1,0l-0.4-0.4c0,0,0,0,0-0.1
			c0,0,0,0,0-0.1l0.5-0.5c0.2-0.2,0.4-0.3,0.5-0.6l0,0l-1.4-3.2c0,0,0,0,0-0.1c0,0,0-0.1,0.1-0.1H87c0.1,0,0.1,0,0.1,0.1l0.7,1.6
			c0.1,0.3,0.2,0.6,0.2,0.8l0.8-2.4c0-0.1,0.1-0.1,0.1-0.1h0.6c0.1,0,0.1,0,0.1,0.1c0,0,0,0,0,0.1L88.5,48.4z"/>
		<path fill="#231F20" d="M95.2,48.6C95.2,48.6,95.2,48.6,95.2,48.6l-0.7,0.1c0,0-0.1,0-0.1-0.1v-0.8l-0.3,0.4
			c-0.3,0.3-0.5,0.6-1.1,0.6H93c-0.7,0-1.1-0.4-1.1-1.1v-1.3c0-0.9,0.6-1.4,1.4-1.4h0.1c0.4,0,0.9,0.2,1.1,0.3v-1.8
			c0,0,0-0.1,0.1-0.1h0.6c0,0,0.1,0,0.1,0.1V48.6z M94.4,45.9c-0.2-0.1-0.6-0.3-1-0.3h-0.1c-0.4,0-0.7,0.2-0.7,0.7v1.3
			c0,0.3,0.2,0.4,0.4,0.4h0.1c0.3,0,0.5-0.2,0.7-0.5l0.6-0.7V45.9z"/>
		<path fill="#231F20" d="M99.4,48.6C99.4,48.6,99.4,48.6,99.4,48.6l-0.7,0.1c0,0-0.1,0-0.1-0.1v-0.8l-0.3,0.4
			c-0.3,0.3-0.5,0.6-1.1,0.6h-0.1c-0.7,0-1.1-0.4-1.1-1.1v-1.3c0-0.9,0.6-1.4,1.4-1.4h0.1c0.4,0,0.9,0.2,1.1,0.3v-0.1
			c0,0,0-0.1,0.1-0.1h0.6c0,0,0.1,0,0.1,0.1V48.6z M98.6,45.9c-0.2-0.1-0.6-0.3-1-0.3h-0.1c-0.4,0-0.7,0.2-0.7,0.7v1.3
			c0,0.3,0.2,0.4,0.4,0.4h0.1c0.3,0,0.5-0.2,0.7-0.5l0.6-0.7V45.9z"/>
		<path fill="#231F20" d="M102.3,48.4c-0.2,0.4-0.4,0.8-0.8,1.1l-0.5,0.5c0,0,0,0-0.1,0c0,0,0,0-0.1,0l-0.4-0.4c0,0,0,0,0-0.1
			c0,0,0,0,0-0.1l0.5-0.5c0.2-0.2,0.4-0.3,0.5-0.6l0,0l-1.4-3.2c0,0,0,0,0-0.1c0,0,0-0.1,0.1-0.1h0.6c0.1,0,0.1,0,0.1,0.1l0.7,1.6
			c0.1,0.3,0.2,0.6,0.2,0.8l0.8-2.4c0-0.1,0.1-0.1,0.1-0.1h0.6c0.1,0,0.1,0,0.1,0.1c0,0,0,0,0,0.1L102.3,48.4z"/>
		<path fill="#231F20" d="M104.5,48.6C104.5,48.6,104.5,48.6,104.5,48.6l-0.8,0.1c0,0-0.1,0-0.1-0.1v-0.7c0,0,0-0.1,0.1-0.1h0.7
			c0,0,0.1,0,0.1,0.1V48.6z"/>
	</g>
</g>
</svg>
