<?xml version="1.0" encoding="utf-8"?>
<!-- Generator: Adobe Illustrator 18.0.0, SVG Export Plug-In . SVG Version: 6.00 Build 0)  -->
<!DOCTYPE svg PUBLIC "-//W3C//DTD SVG 1.1//EN" "http://www.w3.org/Graphics/SVG/1.1/DTD/svg11.dtd">
<svg version="1.1" id="Layer_1" xmlns="http://www.w3.org/2000/svg" xmlns:xlink="http://www.w3.org/1999/xlink" x="0px" y="0px"
	 viewBox="0 0 1077.2 172.6" enable-background="new 0 0 1077.2 172.6" xml:space="preserve">
<rect x="-1" y="0" fill="#00dcec" width="1079.2" height="173.3"/>
<g>
	<rect x="710.7" y="129.5" fill="#FFFFFF" width="26.5" height="6.7"/>
	<rect x="710.7" y="106.1" fill="#FFFFFF" width="26.5" height="6.7"/>
	<rect x="710.7" y="94.4" fill="#FFFFFF" width="26.5" height="6.7"/>
	<rect x="710.7" y="82.8" fill="#FFFFFF" width="26.5" height="6.7"/>
	<rect x="710.7" y="71.1" fill="#FFFFFF" width="26.5" height="6.7"/>
	<rect x="710.2" y="24.3" fill="#FFFFFF" width="26.5" height="6.7"/>
	<rect x="710.2" y="12.7" fill="#FFFFFF" width="26.5" height="6.7"/>
	<rect x="673.7" y="129.5" fill="#FFFFFF" width="26.5" height="6.7"/>
	<rect x="673.7" y="94.4" fill="#FFFFFF" width="26.5" height="6.7"/>
	<rect x="673.7" y="82.8" fill="#FFFFFF" width="26.5" height="6.7"/>
	<rect x="673.7" y="71.1" fill="#FFFFFF" width="26.5" height="6.7"/>
	<rect x="673.7" y="59.4" fill="#FFFFFF" width="26.5" height="6.7"/>
	<rect x="673.2" y="47.7" fill="#FFFFFF" width="26.5" height="6.7"/>
	<rect x="636.8" y="117.8" fill="#FFFFFF" width="26.5" height="6.7"/>
	<rect x="636.8" y="94.4" fill="#FFFFFF" width="26.5" height="6.7"/>
	<rect x="636.3" y="36" fill="#FFFFFF" width="26.5" height="6.7"/>
	<rect x="636.3" y="24.3" fill="#FFFFFF" width="26.5" height="6.7"/>
	<rect x="636.3" y="12.7" fill="#FFFFFF" width="26.5" height="6.7"/>
	<rect x="599.8" y="106.1" fill="#FFFFFF" width="26.5" height="6.7"/>
	<rect x="599.8" y="94.4" fill="#FFFFFF" width="26.5" height="6.7"/>
	<rect x="599.8" y="82.8" fill="#FFFFFF" width="26.5" height="6.7"/>
	<rect x="599.8" y="71.1" fill="#FFFFFF" width="26.5" height="6.7"/>
	<rect x="599.3" y="36" fill="#FFFFFF" width="26.5" height="6.7"/>
	<rect x="599.3" y="12.7" fill="#FFFFFF" width="26.5" height="6.7"/>
	<rect x="415" y="129.5" fill="#FFFFFF" width="26.5" height="6.7"/>
	<rect x="415" y="117.8" fill="#FFFFFF" width="26.5" height="6.7"/>
	<rect x="415" y="106.1" fill="#FFFFFF" width="26.5" height="6.7"/>
	<rect x="415" y="71.1" fill="#FFFFFF" width="26.5" height="6.7"/>
	<rect x="415" y="59.4" fill="#FFFFFF" width="26.5" height="6.7"/>
	<rect x="414.5" y="12.7" fill="#FFFFFF" width="26.5" height="6.7"/>
	<rect x="451.9" y="82.8" fill="#FFFFFF" width="26.5" height="6.7"/>
	<rect x="451.9" y="71.1" fill="#FFFFFF" width="26.5" height="6.7"/>
	<rect x="451.9" y="59.4" fill="#FFFFFF" width="26.5" height="6.7"/>
	<rect x="451.5" y="47.7" fill="#FFFFFF" width="26.5" height="6.7"/>
	<rect x="451.5" y="24.3" fill="#FFFFFF" width="26.5" height="6.7"/>
	<rect x="451.5" y="12.7" fill="#FFFFFF" width="26.5" height="6.7"/>
	<rect x="488.9" y="59.4" fill="#FFFFFF" width="26.5" height="6.7"/>
	<rect x="488.4" y="36" fill="#FFFFFF" width="26.5" height="6.7"/>
	<rect x="488.4" y="24.3" fill="#FFFFFF" width="26.5" height="6.7"/>
	<rect x="525.9" y="129.5" fill="#FFFFFF" width="26.5" height="6.7"/>
	<rect x="525.9" y="59.4" fill="#FFFFFF" width="26.5" height="6.7"/>
	<rect x="525.4" y="47.7" fill="#FFFFFF" width="26.5" height="6.7"/>
	<rect x="525.4" y="24.3" fill="#FFFFFF" width="26.5" height="6.7"/>
	<rect x="562.8" y="129.5" fill="#FFFFFF" width="26.5" height="6.7"/>
	<rect x="562.8" y="106.1" fill="#FFFFFF" width="26.5" height="6.7"/>
	<rect x="562.8" y="71.1" fill="#FFFFFF" width="26.5" height="6.7"/>
	<rect x="562.8" y="59.4" fill="#FFFFFF" width="26.5" height="6.7"/>
	<rect x="562.3" y="36" fill="#FFFFFF" width="26.5" height="6.7"/>
	<rect x="562.3" y="12.7" fill="#FFFFFF" width="26.5" height="6.7"/>
	<rect x="378" y="129.5" fill="#FFFFFF" width="26.5" height="6.7"/>
	<rect x="378" y="117.8" fill="#FFFFFF" width="26.5" height="6.7"/>
	<rect x="378" y="94.4" fill="#FFFFFF" width="26.5" height="6.7"/>
	<rect x="378" y="59.4" fill="#FFFFFF" width="26.5" height="6.7"/>
	<rect x="377.5" y="24.3" fill="#FFFFFF" width="26.5" height="6.7"/>
	<rect x="377.5" y="12.7" fill="#FFFFFF" width="26.5" height="6.7"/>
	<rect x="7.4" y="36.6" fill="#FFFFFF" width="26.5" height="6.7"/>
	<rect x="7.4" y="71.7" fill="#FFFFFF" width="26.5" height="6.7"/>
	<rect x="7.4" y="83.3" fill="#FFFFFF" width="26.5" height="6.7"/>
	<rect x="7.4" y="95" fill="#FFFFFF" width="26.5" height="6.7"/>
	<rect x="7.4" y="106.7" fill="#FFFFFF" width="26.5" height="6.7"/>
	<rect x="44.4" y="48.3" fill="#FFFFFF" width="26.5" height="6.7"/>
	<rect x="44.4" y="60" fill="#FFFFFF" width="26.5" height="6.7"/>
	<rect x="44.4" y="83.3" fill="#FFFFFF" width="26.5" height="6.7"/>
	<rect x="44.4" y="106.7" fill="#FFFFFF" width="26.5" height="6.7"/>
	<rect x="44.4" y="118.4" fill="#FFFFFF" width="26.5" height="6.7"/>
	<rect x="81.3" y="24.9" fill="#FFFFFF" width="26.5" height="6.7"/>
	<rect x="81.3" y="36.6" fill="#FFFFFF" width="26.5" height="6.7"/>
	<rect x="81.3" y="60" fill="#FFFFFF" width="26.5" height="6.7"/>
	<rect x="81.3" y="95" fill="#FFFFFF" width="26.5" height="6.7"/>
	<rect x="81.3" y="106.7" fill="#FFFFFF" width="26.5" height="6.7"/>
	<rect x="81.3" y="118.4" fill="#FFFFFF" width="26.5" height="6.7"/>
	<rect x="81.3" y="130.1" fill="#FFFFFF" width="26.5" height="6.7"/>
	<rect x="118.3" y="71.7" fill="#FFFFFF" width="26.5" height="6.7"/>
	<rect x="118.3" y="83.3" fill="#FFFFFF" width="26.5" height="6.7"/>
	<rect x="118.3" y="95" fill="#FFFFFF" width="26.5" height="6.7"/>
	<rect x="303.1" y="13.2" fill="#FFFFFF" width="26.5" height="6.7"/>
	<rect x="303.1" y="36.6" fill="#FFFFFF" width="26.5" height="6.7"/>
	<rect x="303.1" y="60" fill="#FFFFFF" width="26.5" height="6.7"/>
	<rect x="266.2" y="13.2" fill="#FFFFFF" width="26.5" height="6.7"/>
	<rect x="266.2" y="36.6" fill="#FFFFFF" width="26.5" height="6.7"/>
	<rect x="229.2" y="24.9" fill="#FFFFFF" width="26.5" height="6.7"/>
	<rect x="229.2" y="36.6" fill="#FFFFFF" width="26.5" height="6.7"/>
	<rect x="229.2" y="83.3" fill="#FFFFFF" width="26.5" height="6.7"/>
	<rect x="229.2" y="106.7" fill="#FFFFFF" width="26.5" height="6.7"/>
	<rect x="229.2" y="118.4" fill="#FFFFFF" width="26.5" height="6.7"/>
	<rect x="229.2" y="130.1" fill="#FFFFFF" width="26.5" height="6.7"/>
	<rect x="192.2" y="24.9" fill="#FFFFFF" width="26.5" height="6.7"/>
	<rect x="192.2" y="36.6" fill="#FFFFFF" width="26.5" height="6.7"/>
	<rect x="192.2" y="48.3" fill="#FFFFFF" width="26.5" height="6.7"/>
	<rect x="192.2" y="60" fill="#FFFFFF" width="26.5" height="6.7"/>
	<rect x="192.2" y="95" fill="#FFFFFF" width="26.5" height="6.7"/>
	<rect x="192.2" y="130.1" fill="#FFFFFF" width="26.5" height="6.7"/>
	<rect x="155.3" y="36.6" fill="#FFFFFF" width="26.5" height="6.7"/>
	<rect x="155.3" y="118.4" fill="#FFFFFF" width="26.5" height="6.7"/>
	<rect x="155.3" y="130.1" fill="#FFFFFF" width="26.5" height="6.7"/>
	<rect x="340.1" y="36.6" fill="#FFFFFF" width="26.5" height="6.7"/>
	<rect x="340.1" y="48.3" fill="#FFFFFF" width="26.5" height="6.7"/>
	<rect x="340.1" y="60" fill="#FFFFFF" width="26.5" height="6.7"/>
	<rect x="340.1" y="106.7" fill="#FFFFFF" width="26.5" height="6.7"/>
	<rect x="340.1" y="118.4" fill="#FFFFFF" width="26.5" height="6.7"/>
	<rect x="340.1" y="130.1" fill="#FFFFFF" width="26.5" height="6.7"/>
	<rect x="340.1" y="13.2" fill="#FFFFFF" width="26.5" height="6.7"/>
	<rect x="747.2" y="13" fill="#FFFFFF" width="26.5" height="6.7"/>
	<rect x="747.2" y="36.3" fill="#FFFFFF" width="26.5" height="6.7"/>
	<rect x="747.2" y="48" fill="#FFFFFF" width="26.5" height="6.7"/>
	<rect x="747.2" y="59.7" fill="#FFFFFF" width="26.5" height="6.7"/>
	<rect x="747.2" y="71.4" fill="#FFFFFF" width="26.5" height="6.7"/>
	<rect x="747.7" y="118.1" fill="#FFFFFF" width="26.5" height="6.7"/>
	<rect x="747.7" y="129.8" fill="#FFFFFF" width="26.5" height="6.7"/>
	<rect x="784.1" y="13" fill="#FFFFFF" width="26.5" height="6.7"/>
	<rect x="784.1" y="48" fill="#FFFFFF" width="26.5" height="6.7"/>
	<rect x="784.1" y="59.7" fill="#FFFFFF" width="26.5" height="6.7"/>
	<rect x="784.1" y="71.4" fill="#FFFFFF" width="26.5" height="6.7"/>
	<rect x="784.1" y="83" fill="#FFFFFF" width="26.5" height="6.7"/>
	<rect x="784.6" y="94.7" fill="#FFFFFF" width="26.5" height="6.7"/>
	<rect x="821.1" y="24.6" fill="#FFFFFF" width="26.5" height="6.7"/>
	<rect x="821.1" y="48" fill="#FFFFFF" width="26.5" height="6.7"/>
	<rect x="821.6" y="106.4" fill="#FFFFFF" width="26.5" height="6.7"/>
	<rect x="821.6" y="118.1" fill="#FFFFFF" width="26.5" height="6.7"/>
	<rect x="821.6" y="129.8" fill="#FFFFFF" width="26.5" height="6.7"/>
	<rect x="858.1" y="36.3" fill="#FFFFFF" width="26.5" height="6.7"/>
	<rect x="858.1" y="48" fill="#FFFFFF" width="26.5" height="6.7"/>
	<rect x="858.1" y="59.7" fill="#FFFFFF" width="26.5" height="6.7"/>
	<rect x="858.1" y="71.4" fill="#FFFFFF" width="26.5" height="6.7"/>
	<rect x="858.5" y="106.4" fill="#FFFFFF" width="26.5" height="6.7"/>
	<rect x="858.5" y="129.8" fill="#FFFFFF" width="26.5" height="6.7"/>
	<rect x="1042.9" y="13" fill="#FFFFFF" width="26.5" height="6.7"/>
	<rect x="1042.9" y="24.6" fill="#FFFFFF" width="26.5" height="6.7"/>
	<rect x="1042.9" y="36.3" fill="#FFFFFF" width="26.5" height="6.7"/>
	<rect x="1042.9" y="71.4" fill="#FFFFFF" width="26.5" height="6.7"/>
	<rect x="1042.9" y="83" fill="#FFFFFF" width="26.5" height="6.7"/>
	<rect x="1043.4" y="129.8" fill="#FFFFFF" width="26.5" height="6.7"/>
	<rect x="1005.9" y="59.7" fill="#FFFFFF" width="26.5" height="6.7"/>
	<rect x="1005.9" y="71.4" fill="#FFFFFF" width="26.5" height="6.7"/>
	<rect x="1005.9" y="83" fill="#FFFFFF" width="26.5" height="6.7"/>
	<rect x="1006.4" y="94.7" fill="#FFFFFF" width="26.5" height="6.7"/>
	<rect x="1006.4" y="118.1" fill="#FFFFFF" width="26.5" height="6.7"/>
	<rect x="1006.4" y="129.8" fill="#FFFFFF" width="26.5" height="6.7"/>
	<rect x="968.9" y="83" fill="#FFFFFF" width="26.5" height="6.7"/>
	<rect x="969.4" y="106.4" fill="#FFFFFF" width="26.5" height="6.7"/>
	<rect x="969.4" y="118.1" fill="#FFFFFF" width="26.5" height="6.7"/>
	<rect x="932" y="13" fill="#FFFFFF" width="26.5" height="6.7"/>
	<rect x="932" y="83" fill="#FFFFFF" width="26.5" height="6.7"/>
	<rect x="932.5" y="94.7" fill="#FFFFFF" width="26.5" height="6.7"/>
	<rect x="932.5" y="118.1" fill="#FFFFFF" width="26.5" height="6.7"/>
	<rect x="895" y="13" fill="#FFFFFF" width="26.5" height="6.7"/>
	<rect x="895" y="36.3" fill="#FFFFFF" width="26.5" height="6.7"/>
	<rect x="895" y="71.4" fill="#FFFFFF" width="26.5" height="6.7"/>
	<rect x="895" y="83" fill="#FFFFFF" width="26.5" height="6.7"/>
	<rect x="895.5" y="106.4" fill="#FFFFFF" width="26.5" height="6.7"/>
	<rect x="895.5" y="129.8" fill="#FFFFFF" width="26.5" height="6.7"/>
	<rect x="340.1" y="142.3" fill="#FFFFFF" width="26.5" height="6.7"/>
	<rect x="377" y="142.3" fill="#FFFFFF" width="26.5" height="6.7"/>
	<rect x="377" y="154" fill="#FFFFFF" width="26.5" height="6.7"/>
	<rect x="451" y="142.3" fill="#FFFFFF" width="26.5" height="6.7"/>
	<rect x="635.8" y="142.3" fill="#FFFFFF" width="26.5" height="6.7"/>
	<rect x="635.8" y="154" fill="#FFFFFF" width="26.5" height="6.7"/>
	<rect x="598.8" y="142.3" fill="#FFFFFF" width="26.5" height="6.7"/>
	<rect x="598.8" y="154" fill="#FFFFFF" width="26.5" height="6.7"/>
	<rect x="561.9" y="154" fill="#FFFFFF" width="26.5" height="6.7"/>
	<rect x="524.9" y="154" fill="#FFFFFF" width="26.5" height="6.7"/>
	<rect x="487.9" y="142.3" fill="#FFFFFF" width="26.5" height="6.7"/>
	<rect x="487.9" y="154" fill="#FFFFFF" width="26.5" height="6.7"/>
	<rect x="672.7" y="154" fill="#FFFFFF" width="26.5" height="6.7"/>
	<rect x="1043.4" y="141.7" fill="#FFFFFF" width="26.5" height="6.7"/>
	<rect x="1006.4" y="153.4" fill="#FFFFFF" width="26.5" height="6.7"/>
	<rect x="969.4" y="153.4" fill="#FFFFFF" width="26.5" height="6.7"/>
	<rect x="932.5" y="141.7" fill="#FFFFFF" width="26.5" height="6.7"/>
	<rect x="747.7" y="153.4" fill="#FFFFFF" width="26.5" height="6.7"/>
	<rect x="858.5" y="153.4" fill="#FFFFFF" width="26.5" height="6.7"/>
	<rect x="710.7" y="153.4" fill="#FFFFFF" width="26.5" height="6.7"/>
	<rect x="303.6" y="153.7" fill="#FFFFFF" width="26.5" height="6.7"/>
	<rect x="303.6" y="142" fill="#FFFFFF" width="26.5" height="6.7"/>
	<rect x="266.6" y="153.7" fill="#FFFFFF" width="26.5" height="6.7"/>
	<rect x="266.6" y="142" fill="#FFFFFF" width="26.5" height="6.7"/>
	<rect x="192.7" y="153.7" fill="#FFFFFF" width="26.5" height="6.7"/>
	<rect x="192.7" y="142" fill="#FFFFFF" width="26.5" height="6.7"/>
	<rect x="7.9" y="142" fill="#FFFFFF" width="26.5" height="6.7"/>
	<rect x="44.9" y="153.7" fill="#FFFFFF" width="26.5" height="6.7"/>
	<rect x="44.9" y="142" fill="#FFFFFF" width="26.5" height="6.7"/>
	<rect x="155.8" y="142" fill="#FFFFFF" width="26.5" height="6.7"/>
</g>
</svg>
