<?xml version="1.0" encoding="utf-8"?>
<!-- Generator: Adobe Illustrator 18.0.0, SVG Export Plug-In . SVG Version: 6.00 Build 0)  -->
<!DOCTYPE svg PUBLIC "-//W3C//DTD SVG 1.1//EN" "http://www.w3.org/Graphics/SVG/1.1/DTD/svg11.dtd">
<svg version="1.1" id="Layer_1" xmlns="http://www.w3.org/2000/svg" xmlns:xlink="http://www.w3.org/1999/xlink" x="0px" y="0px"
	 viewBox="0 0 623.9 102.2" enable-background="new 0 0 623.9 102.2" xml:space="preserve">
<g>
	<rect x="28.6" y="19.8" fill="#231F20" width="46.7" height="5.8"/>
	<rect x="28.6" y="29.1" fill="#231F20" width="23.8" height="5.8"/>
	<rect x="55.7" y="29.1" fill="#231F20" width="19.5" height="5.8"/>
	<rect x="28.6" y="38.5" fill="#231F20" width="46.7" height="5.8"/>
	<rect x="28.7" y="47.8" fill="#231F20" width="37.9" height="5.8"/>
	<rect x="69.8" y="47.8" fill="#231F20" width="5.4" height="5.8"/>
	<rect x="28.6" y="57.1" fill="#231F20" width="46.7" height="5.8"/>
	<rect x="28.6" y="67.3" fill="#231F20" width="46.7" height="5.8"/>
	<rect x="28.6" y="76.6" fill="#231F20" width="31.9" height="5.8"/>
	<path fill="#231F20" d="M87.6,0H16.4h-5.8v5.8v90.7v5.8h5.8h71.2h5.8v-5.8V5.8V0H87.6z M87.6,96.4H16.4V5.8h71.2V96.4z"/>
</g>
<g>
	<rect x="173.9" y="47.9" fill="#231F20" width="5.5" height="5.8"/>
	<g>
		<rect x="132.6" y="19.8" fill="#231F20" width="46.8" height="5.8"/>
		<rect x="132.6" y="38.5" fill="#231F20" width="11.5" height="5.8"/>
		<rect x="147.4" y="38.5" fill="#231F20" width="31.9" height="5.8"/>
		<rect x="132.6" y="47.9" fill="#231F20" width="37.9" height="5.8"/>
		<rect x="132.6" y="47.9" fill="#231F20" width="46.8" height="5.8"/>
		<rect x="132.6" y="67.4" fill="#231F20" width="46.8" height="5.8"/>
		<rect x="132.6" y="76.7" fill="#231F20" width="20.4" height="5.8"/>
		<rect x="132.6" y="29.1" fill="#231F20" width="46.8" height="5.8"/>
		<rect x="132.6" y="57.2" fill="#231F20" width="22" height="5.8"/>
		<rect x="157.9" y="57.2" fill="#231F20" width="21.4" height="5.8"/>
		<path fill="#231F20" d="M191.6,0h-71.2h-5.8v5.8v90.7v5.8h5.8h71.2h5.8v-5.8V5.8V0H191.6z M191.6,96.4h-71.2V5.8h71.2V96.4z"/>
	</g>
</g>
<g>
	<rect x="236.5" y="19.8" fill="#231F20" width="46.9" height="5.8"/>
	<rect x="236.5" y="29.1" fill="#231F20" width="23.9" height="5.8"/>
	<rect x="263.7" y="29.1" fill="#231F20" width="19.6" height="5.8"/>
	<rect x="236.5" y="29.1" fill="#231F20" width="46.9" height="5.8"/>
	<rect x="236.6" y="47.8" fill="#231F20" width="38" height="5.8"/>
	<rect x="277.9" y="47.8" fill="#231F20" width="5.5" height="5.8"/>
	<rect x="236.5" y="57.1" fill="#231F20" width="46.9" height="5.8"/>
	<rect x="236.5" y="76.6" fill="#231F20" width="39.9" height="5.8"/>
	<rect x="236.6" y="38.4" fill="#231F20" width="31" height="5.8"/>
	<rect x="270.9" y="38.4" fill="#231F20" width="12.5" height="5.8"/>
	<rect x="236.6" y="67.3" fill="#231F20" width="16.7" height="5.8"/>
	<rect x="256.6" y="67.3" fill="#231F20" width="26.8" height="5.8"/>
	<rect x="236.5" y="47.8" fill="#231F20" width="46.9" height="5.8"/>
	<path fill="#231F20" d="M295.6,0h-71.2h-5.8v5.8v90.7v5.8h5.8h71.2h5.8v-5.8V5.8V0H295.6z M295.6,96.4h-71.2V5.8h71.2V96.4z"/>
</g>
<g>
	<rect x="340.7" y="28.9" fill="#231F20" width="24.6" height="5.8"/>
	<rect x="340.7" y="76.2" fill="#231F20" width="23.8" height="5.8"/>
	<rect x="340.8" y="56.8" fill="#231F20" width="16.6" height="5.8"/>
	<g>
		<rect x="340.7" y="19.7" fill="#231F20" width="46.5" height="5.8"/>
		<rect x="368.6" y="28.9" fill="#231F20" width="18.5" height="5.8"/>
		<rect x="340.7" y="38.2" fill="#231F20" width="46.5" height="5.8"/>
		<rect x="340.8" y="47.5" fill="#231F20" width="37.7" height="5.8"/>
		<rect x="381.7" y="47.5" fill="#231F20" width="5.4" height="5.8"/>
		<rect x="340.7" y="66.9" fill="#231F20" width="46.5" height="5.8"/>
		<rect x="360.6" y="56.8" fill="#231F20" width="26.5" height="5.8"/>
		<rect x="340.7" y="47.5" fill="#231F20" width="46.5" height="5.8"/>
		<path fill="#231F20" d="M399.6,0h-71.2h-5.8v5.8v90.7v5.8h5.8h71.2h5.8v-5.8V5.8V0H399.6z M399.6,96.4h-71.2V5.8h71.2V96.4z"/>
	</g>
</g>
<g>
	<rect x="444.8" y="19.4" fill="#231F20" width="46.5" height="5.8"/>
	<rect x="444.8" y="28.7" fill="#231F20" width="23.7" height="5.8"/>
	<rect x="471.7" y="28.7" fill="#231F20" width="19.4" height="5.8"/>
	<rect x="444.8" y="28.7" fill="#231F20" width="46.5" height="5.8"/>
	<rect x="444.8" y="47.4" fill="#231F20" width="37.7" height="5.8"/>
	<rect x="485.8" y="47.4" fill="#231F20" width="5.4" height="5.8"/>
	<rect x="444.8" y="47.4" fill="#231F20" width="46.5" height="5.8"/>
	<rect x="444.8" y="66.9" fill="#231F20" width="46.5" height="5.8"/>
	<rect x="444.8" y="76.3" fill="#231F20" width="33.4" height="5.8"/>
	<rect x="470" y="56.7" fill="#231F20" width="21" height="5.8"/>
	<rect x="444.7" y="56.7" fill="#231F20" width="22.1" height="5.8"/>
	<rect x="444.8" y="38.1" fill="#231F20" width="13.1" height="5.8"/>
	<rect x="461.2" y="38.1" fill="#231F20" width="29.9" height="5.8"/>
	<path fill="#231F20" d="M503.6,0h-71.2h-5.8v5.8v90.7v5.8h5.8h71.2h5.8v-5.8V5.8V0H503.6z M503.6,96.4h-71.2V5.8h71.2V96.4z"/>
</g>
<g>
	<rect x="548.6" y="19.8" fill="#231F20" width="46.6" height="5.8"/>
	<rect x="548.6" y="29.1" fill="#231F20" width="30" height="5.8"/>
	<rect x="581.8" y="29.1" fill="#231F20" width="13.3" height="5.8"/>
	<rect x="548.6" y="38.5" fill="#231F20" width="46.6" height="5.8"/>
	<rect x="548.7" y="47.8" fill="#231F20" width="10.5" height="5.8"/>
	<rect x="562.4" y="47.8" fill="#231F20" width="32.8" height="5.8"/>
	<rect x="548.6" y="57.1" fill="#231F20" width="46.6" height="5.8"/>
	<rect x="548.6" y="67.3" fill="#231F20" width="46.6" height="5.8"/>
	<rect x="548.6" y="76.6" fill="#231F20" width="27.4" height="5.8"/>
	<path fill="#231F20" d="M607.5,0h-71.2h-5.8v5.8v90.7v5.8h5.8h71.2h5.8v-5.8V5.8V0H607.5z M607.5,96.4h-71.2V5.8h71.2V96.4z"/>
</g>
</svg>
