<svg id="Layer_1" data-name="Layer 1" xmlns="http://www.w3.org/2000/svg" viewBox="0 0 400 400"><defs><style>.cls-1{fill:#bbb;}.cls-2{fill:#ddd;}</style></defs><title>placeholder-image</title><polygon class="cls-1" points="58 108.03 58 127 58 229.05 58 320.05 89 334.17 120 320.04 120 256.04 182 228.03 182 182.03 120 210.31 120 154.03 182 126.03 182 80.15 151 66.05 58 108.03"/><polygon class="cls-2" points="120 154.03 120 182 120 210.31 182 182 120 154.03"/><polygon class="cls-1" points="222 108.03 222 127 222 229.05 222 320.05 253 334.17 284 320.04 284 256.04 346 228.03 346 182.03 284 210.31 284 154.03 346 126.03 346 80.15 315 66.05 222 108.03"/><polygon class="cls-2" points="284 154.03 284 182 284 210.31 346 182 284 154.03"/></svg>