<?xml version="1.0" encoding="utf-8"?>
<!-- Generator: Adobe Illustrator 18.0.0, SVG Export Plug-In . SVG Version: 6.00 Build 0)  -->
<!DOCTYPE svg PUBLIC "-//W3C//DTD SVG 1.1//EN" "http://www.w3.org/Graphics/SVG/1.1/DTD/svg11.dtd">
<svg version="1.1" xmlns="http://www.w3.org/2000/svg" xmlns:xlink="http://www.w3.org/1999/xlink" x="0px" y="0px"
	 viewBox="0 0 157.3 158.8" enable-background="new 0 0 157.3 158.8" xml:space="preserve">
<g id="Layer_2">
</g>
<g id="Layer_1">
</g>
<g id="Layer_3">
	<text transform="matrix(1 0 0 1 12.9819 15.2484)" font-family="'ChambersSansOT-BlackItalic'" font-size="16">Robots Rule</text>
	<text transform="matrix(1 0 0 1 13.9831 35.5859)" font-family="'ChambersSansOT-BlackItalic'" font-size="8">by a robot</text>
	<line fill="none" stroke="#231F20" stroke-width="2" stroke-miterlimit="10" x1="14" y1="23.7" x2="140.6" y2="23.7"/>
	<g>
		<defs>
			<rect id="SVGID_1_" x="15" y="44.2" width="72.9" height="85.2"/>
		</defs>
		<use xlink:href="#SVGID_1_"  overflow="visible" fill="#00DCEC"/>
		<clipPath id="SVGID_2_">
			<use xlink:href="#SVGID_1_"  overflow="visible"/>
		</clipPath>
		<g clip-path="url(#SVGID_2_)">
			<g>
				<g>
					
						<rect x="41.7" y="89.4" fill="#FFFFFF" stroke="#000000" stroke-width="2" stroke-miterlimit="10" width="19.5" height="25.6"/>
					<path fill="#FFFFFF" stroke="#000000" stroke-width="2" stroke-miterlimit="10" d="M75.8,104.6H27c-1.6,0-2.9-1.3-2.9-2.9V65.7
						c0-1.6,1.3-2.9,2.9-2.9h48.8c1.6,0,2.9,1.3,2.9,2.9v36.1C78.7,103.3,77.4,104.6,75.8,104.6z"/>
				</g>
				<path fill="#FFFFFF" stroke="#000000" stroke-width="2" stroke-miterlimit="10" d="M69.9,133.2H33c-1.6,0-2.9-1.3-2.9-2.9v-12.5
					c0-1.6,1.3-2.9,2.9-2.9h36.9c1.6,0,2.9,1.3,2.9,2.9v12.5C72.8,131.9,71.5,133.2,69.9,133.2z"/>
				<path fill="#FFFFFF" stroke="#000000" stroke-width="2" stroke-miterlimit="10" d="M25.3,133.2h1.9c1.6,0,2.9-1.3,2.9-2.9v-9.9
					c0-1.6-1.3-2.9-2.9-2.9h-1.9c-1.6,0-2.9,1.3-2.9,2.9v9.9C22.4,131.9,23.7,133.2,25.3,133.2z"/>
				<path fill="#FFFFFF" stroke="#000000" stroke-width="2" stroke-miterlimit="10" d="M75.6,133.2h1.9c1.6,0,2.9-1.3,2.9-2.9v-9.9
					c0-1.6-1.3-2.9-2.9-2.9h-1.9c-1.6,0-2.9,1.3-2.9,2.9v9.9C72.8,131.9,74.1,133.2,75.6,133.2z"/>
			</g>
			<g>
				<g>
					<circle cx="40" cy="78.3" r="5.1"/>
					<circle cx="62.9" cy="78.3" r="5"/>
				</g>
				<g>
					<path fill="none" stroke="#000000" stroke-width="5" stroke-linecap="round" stroke-miterlimit="10" d="M36.3,93.5
						c10.1,1.1,20.3,1.1,30.3,0"/>
				</g>
			</g>
		</g>
	</g>
	<rect x="15" y="44.2" fill="none" stroke="#000000" stroke-width="2" stroke-miterlimit="10" width="72.9" height="85.2"/>
	<rect x="95.2" y="43.2" fill="#808285" width="45.5" height="6.5"/>
	<rect x="95.2" y="53.3" fill="#808285" width="45.5" height="6.5"/>
	<rect x="95.2" y="73.5" fill="#808285" width="45.5" height="6.5"/>
	<rect x="95.2" y="83.6" fill="#808285" width="45.5" height="6.5"/>
	<rect x="95.2" y="93.7" fill="#808285" width="45.5" height="6.5"/>
	<rect x="95.2" y="113.9" fill="#808285" width="45.5" height="6.5"/>
	<rect x="95.2" y="124" fill="#808285" width="45.5" height="6.5"/>
	<g>
		<rect x="95.2" y="63.4" fill="#808285" width="12.2" height="6.5"/>
		<rect x="110.6" y="63.4" fill="#808285" width="30" height="6.5"/>
	</g>
	<g>
		<rect x="128.4" y="103.8" fill="#808285" width="12.2" height="6.5"/>
		<rect x="95.2" y="103.8" fill="#808285" width="30" height="6.5"/>
	</g>
</g>
</svg>
