<?xml version="1.0" encoding="utf-8"?>
<!-- Generator: Adobe Illustrator 18.0.0, SVG Export Plug-In . SVG Version: 6.00 Build 0)  -->
<!DOCTYPE svg PUBLIC "-//W3C//DTD SVG 1.1//EN" "http://www.w3.org/Graphics/SVG/1.1/DTD/svg11.dtd">
<svg version="1.1" xmlns="http://www.w3.org/2000/svg" xmlns:xlink="http://www.w3.org/1999/xlink" x="0px" y="0px"
	 viewBox="0 0 270 96.2" enable-background="new 0 0 270 96.2" xml:space="preserve">
<g id="Layer_2">
</g>
<g id="Layer_1">
</g>
<g id="Layer_3">
	<g>
		<text transform="matrix(1 0 0 1 10.008 17.492)"><tspan x="0" y="0" font-family="'ChambersSansOT-BoldItalic'" font-size="8">From:  </tspan><tspan x="25.9" y="0" fill="#00DCEC" font-family="'ChambersSansOT-Black'" font-size="8">Your Watch</tspan><tspan x="0" y="13" font-family="'ChambersSansOT-BoldItalic'" font-size="8">Subject:  </tspan><tspan x="34.1" y="13" font-family="'ChambersSansOT-Black'" font-size="8">How you feeling, buddy?</tspan></text>
		<rect x="10.5" y="42.7" fill="none" width="245.8" height="41.8"/>
		<text transform="matrix(1 0 0 1 10.5032 48.3009)"><tspan x="0" y="0" font-family="'ChambersSansOT-Medium'" font-size="8">You were out pretty late last night. There&apos;s some Gatorade in the </tspan><tspan x="0" y="12" font-family="'ChambersSansOT-Medium'" font-size="8">fridge and I&apos;ve adjusted your morning workout plan. It&apos;s going to be a </tspan><tspan x="0" y="24" font-family="'ChambersSansOT-Medium'" font-size="8">beautiful day and your bike said they&apos;ve got plenty of air in the tires </tspan><tspan x="0" y="36" font-family="'ChambersSansOT-Medium'" font-size="8">and would love to go for a ride this afternoon.</tspan></text>
	</g>
	<path fill="none" stroke="#231F20" stroke-miterlimit="10" d="M267.6,95.2H2.4c-0.8,0-1.4-0.6-1.4-1.4V2.4C1,1.6,1.6,1,2.4,1h265.1
		c0.8,0,1.4,0.6,1.4,1.4v91.4C269,94.6,268.4,95.2,267.6,95.2z"/>
</g>
</svg>
