<svg xmlns="http://www.w3.org/2000/svg" viewBox="0 0 81.8 89.5" enable-background="new 0 0 81.8 89.5"><circle fill="none" stroke="#cf00ab" stroke-width="3" stroke-miterlimit="10" stroke-dasharray="4" cx="40.9" cy="44.8" r="30.1"/><path fill="#fff" stroke="#000000" stroke-width="2" stroke-miterlimit="10" d="M58.6 15.3H23c-.8 0-1.2-.6-.9-1.3.7-1.9 1.3-3.6 2-5.5.3-.7 1-1.3 1.7-1.3h30.1c.7 0 1.4.6 1.7 1.3.7 1.9 1.3 3.6 2 5.5.2.7-.2 1.3-1 1.3z"/><path fill="#000000" stroke="#000000" stroke-miterlimit="10" d="M30.3 11.6h-3.7c-.6 0-.9-.4-.7-1 .1-.2.1-.4.1-.6.2-.6.8-1 1.3-1h3.6c.6 0 .9.4.8 1 0 .1-.1.4-.1.5-.1.6-.7 1.1-1.3 1.1z"/><path fill="#cf00ab" d="M27 11.2s-.1 0 0 0c-.4 0-.6-.3-.4-.6.1-.2.1-.4.1-.6.1-.4.4-.6.8-.6h.1c.3 0 .5.3.4.6-.1.2-.1.4-.1.6-.2.3-.6.6-.9.6z"/><path fill="#fff" stroke="#000000" stroke-width="2.195" stroke-miterlimit="10" d="M60.7 82.3H21.1c-1.5 0-2.7-1.1-2.7-2.4v-7c0-1.3 1.2-.4 2.7-.4h39.2c1.5 0 3-1.2 3 .2V80c.1 1.3-1.1 2.3-2.6 2.3z"/><path fill="#cf00ab" d="M27.4 79.5h-5.2c-.6 0-1-.4-1-1v-2.1c0-.6.4-1 1-1h5.2c.6 0 1 .4 1 1v2.1c.1.4-.4 1-1 1z"/><path fill="#fff" stroke="#000000" stroke-width="2.195" stroke-miterlimit="10" d="M62 72.8H19.6c-1 0-1.6-.7-1.3-1.6 1-3.4 1.9-6.9 2.9-10.3.2-.9 1.1-1.6 1.9-1.6h35.4c.8 0 1.6.7 1.9 1.6 1 3.4 1.9 6.9 2.9 10.3.3.9-.3 1.6-1.3 1.6z"/><path fill="#cf00ab" d="M57.9 70.6H23.8c-1.6 0-2.6-1.3-2.2-2.7l.9-3.6c.4-1.5 1.9-2.7 3.3-2.7H56c1.4 0 2.9 1.3 3.3 2.7l.9 3.6c.3 1.5-.7 2.7-2.3 2.7z"/><path fill="#fff" d="M28.8 66h-2.7c-1 0-1.6-.8-1.4-1.8v-.1c.2-1 1.1-1.8 2.1-1.8h2.6s1.6.8 1.4 1.8v.1c-.2 1-1.1 1.8-2 1.8zM45.1 66H33.8c-1 0-1.7-.8-1.6-1.8v-.1c.1-1 1-1.8 1.9-1.8h10.8c.9 0 1.7.8 1.9 1.8v.1c0 1-.7 1.8-1.7 1.8z"/><path fill="#000000" d="M56.2 66h-5.6c-1 0-1.9-.8-1.9-1.8v-.1c-.1-1 .6-1.8 1.5-1.8h5.3c.9 0 1.9.8 2.1 1.8v.1c.1 1-.5 1.8-1.4 1.8z"/><g fill="#fff"><path d="M26.6 69.3h-2.1c-.7 0-1.2-.6-1-1.3.1-.7.8-1.3 1.6-1.3h2s1.2.6 1 1.3c-.1.8-.8 1.3-1.5 1.3zM32.3 69.3h-2.1c-.7 0-1.2-.6-1.1-1.3.1-.7.7-1.3 1.5-1.3h2c.7 0 1.2.6 1.1 1.3 0 .8-.6 1.3-1.4 1.3z"/></g><g fill="#fff"><path d="M51.7 69.4h-2.1s-1.3-.6-1.4-1.3V68c-.1-.7.4-1.3 1.1-1.3h2c.7 0 1.3.6 1.5 1.3v.1c.1.7-.4 1.3-1.1 1.3zM57.3 69.3h-2.1c-.7 0-1.4-.6-1.5-1.3-.1-.7.4-1.3 1-1.3h2c.7 0 1.4.6 1.6 1.3.2.8-.3 1.3-1 1.3z"/></g><path fill="#fff" stroke="#000000" stroke-width="2.022" stroke-miterlimit="10" d="M58.1 59.5H23.5c-1.2 0-2.1-1-2.1-2.1.2-14 .4-27.9.7-41.9 0-1.1 1-2.1 2.1-2.1h33.3c1.1 0 2.1 1 2.1 2.1.2 14 .4 27.9.7 41.9-.1 1.1-1.1 2.1-2.2 2.1z"/><path fill="#cf00ab" d="M57.7 27.5c-.1-3-.1-6.1-.1-9.1 0-1.3-1-2.4-2.4-2.4H26.4c-1.3 0-2.3 1-2.4 2.4-.1 12.1-.4 24.2-.5 36.4 0 1.3 1 2.4 2.4 2.4h29.9c1.3 0 2.4-1 2.4-2.4-.2-3-.2-5.9-.3-8.8H32.3c.1-6.2.1-12.4.1-18.6 8.4.1 16.9.1 25.3.1z"/><path fill="#000000" stroke="#000000" stroke-width="2" stroke-miterlimit="10" d="M56 43.5H36.4c-.6 0-1-.4-1-1 0-3.5 0-7 .1-10.4 0-.6.5-1 1-1h19.3c.6 0 1 .4 1.1 1 .1 3.5.1 7 .1 10.4.1.6-.4 1-1 1z"/><path fill="#fff" d="M28.3 23.7h-.1c-1.5 0-2.7-1.3-2.7-2.7v-.2c0-1.5 1.3-2.7 2.7-2.7h.1c1.5 0 2.7 1.3 2.7 2.7v.2c-.1 1.5-1.3 2.7-2.7 2.7zM30.8 35.8h-5.7v-1.9h5.6c.1.7.1 1.3.1 1.9zM30.8 39.5h-5.7v-1.9h5.7v1.9zM30.8 32.3h-5.6v-1.9h5.6v1.9zM30.8 28.6h-5.6v-1.9h5.6v1.9zM30.7 43.1H25v-1.9h5.7v1.9zM30.7 46.7H25v-1.9h5.7v1.9zM27.8 55.7h-.2c-1.6 0-2.7-1.3-2.7-2.7v-.5c0-1.5 1.3-2.7 2.8-2.7h.2c1.6 0 2.7 1.3 2.7 2.7v.5c0 1.5-1.2 2.7-2.8 2.7zM36.5 23.7h-.1c-1.5 0-2.7-1.3-2.7-2.7v-.2c0-1.5 1.3-2.7 2.7-2.7h.1c1.5 0 2.7 1.3 2.7 2.7v.2c0 1.5-1.2 2.7-2.7 2.7zM46.9 23.7h-.1c-1.5 0-2.7-1.3-2.7-2.7v-.2c0-1.5 1.2-2.7 2.7-2.7h.1c1.5 0 2.7 1.3 2.7 2.7v.2c.1 1.5-1.1 2.7-2.7 2.7zM53.5 23.7h-.1c-1.5 0-2.7-1.3-2.7-2.7v-.2c0-1.5 1.2-2.7 2.7-2.7h.1c1.5 0 2.7 1.3 2.7 2.7v.2c0 1.5-1.2 2.7-2.7 2.7zM39.6 55.7h-1.2c-1.3 0-2.3-1-2.3-2.3v-.1c0-1.3 1-2.3 2.3-2.3h1.2c1.3 0 2.3 1 2.3 2.3v.1c0 1.2-1.1 2.3-2.3 2.3zM46.7 55.7h-1.2c-1.3 0-2.3-1-2.3-2.3v-.1c0-1.3 1-2.3 2.3-2.3h1.2c1.3 0 2.3 1 2.3 2.3v.1c0 1.2-1 2.3-2.3 2.3zM53.8 55.7h-1.2c-1.3 0-2.3-1-2.3-2.3v-.1c0-1.3 1-2.3 2.3-2.3h1.2c1.3 0 2.3 1 2.3 2.3v.1c0 1.2-1 2.3-2.3 2.3z"/><path fill="#000000" d="M27.7 54.2c-.4 0-.7-.3-.7-.7v-1.7c0-.4.3-.7.7-.7h.1c.4 0 .7.3.7.7v1.7c0 .4-.4.7-.8.7z"/><g fill="#cf00ab"><path d="M26.8 19.7c0-.1 0-.1 0 0 0-.4.3-.7.7-.7h1.6c.4 0 .7.3.7.7v.1c0 .4-.3.7-.7.7h-1.6c-.5-.2-.8-.5-.7-.8zM26.7 21.6c0-.1 0-.1 0 0 0-.4.3-.7.7-.7H29c.4 0 .7.3.7.7v.1c0 .4-.3.7-.7.7h-1.6c-.4-.1-.7-.4-.7-.8z"/></g><path fill="#cf00ab" stroke="#cf00ab" stroke-width="1.283" stroke-miterlimit="10" d="M53.4 34.5H38.8c-.4 0-.6-.3-.6-.6v-.1c0-.4.3-.6.6-.6h14.6c.4 0 .6.3.6.6v.1c0 .3-.2.6-.6.6zM39.5 41.4h-.3c-.6 0-1-.4-1-1v-6.1c0-.6.4-1 1-1h.2c.6 0 1 .4 1 1v6.1c.2.5-.3 1-.9 1z"/><g fill="#fff"><path d="M43.4 39.6H43c-.6 0-1-.4-1-1v-1.5c0-.6.4-1 1-1h.4c.6 0 1 .4 1 1v1.5c.1.6-.4 1-1 1zM46.5 39.6h-.4c-.6 0-1-.4-1-1v-1.5c0-.6.4-1 1-1h.4c.6 0 1 .4 1 1v1.5c.1.6-.4 1-1 1z"/></g><g fill="#fff"><path d="M50.5 36.6c0-.3.2-.5.5-.5h2.7c.3 0 .5.2.5.5s-.2.5-.5.5H51c-.2 0-.5-.2-.5-.5zM50.5 37.9c0-.3.2-.5.5-.5h2.7c.3 0 .5.2.5.5s-.2.5-.5.5H51c-.2 0-.5-.2-.5-.5zM50.6 39.2c0-.3.2-.5.5-.5h2.7c.3 0 .5.2.5.5s-.2.5-.5.5h-2.7c-.3.1-.5-.2-.5-.5zM50.6 40.6s0-.1 0 0c0-.3.2-.5.5-.5h2.7c.3 0 .5.2.5.5s-.2.5-.5.5h-2.7c-.3 0-.5-.2-.5-.5z"/></g><g fill="#000000" stroke="#000000" stroke-miterlimit="10"><path d="M36.3 60.3h-7c-.5 0-.9-.4-.9-.9v-.1c0-.5.4-.9.9-.9h7c.5 0 .9.4.9.9v.1c0 .6-.4.9-.9.9zM52.3 60.3h-7c-.5 0-.9-.4-.9-.9v-.1c0-.5.4-.9.9-.9h7c.5 0 .9.4.9.9v.1c0 .6-.4.9-.9.9z"/></g></svg>