<svg xmlns="http://www.w3.org/2000/svg" viewBox="0 0 270 105" enable-background="new 0 0 270 105"><path fill="none" stroke="#010101" stroke-width="2" stroke-miterlimit="10" d="M168.3 21.9h27"/><path fill="#010101" d="M191.3 25.3l3.4-3.4-3.4-3.4h2.9l3.4 3.4-3.4 3.4z"/><path fill="none" stroke="#010101" stroke-width="2" stroke-miterlimit="10" d="M40.6 52.4h51"/><path fill="#010101" d="M87.6 55.8l3.4-3.4-3.4-3.4h2.9l3.3 3.4-3.3 3.4z"/><path fill="#cf00ab" d="M18.6 33.2h7v46.6h-7z"/><circle fill="#cf00ab" cx="22.1" cy="80.7" r="7.2"/><path fill="none" stroke="#010101" stroke-width="2" stroke-miterlimit="10" d="M25.6 73.8V23.2c0-1.9-1.6-3.5-3.5-3.5s-3.5 1.6-3.5 3.5v50.6c-2.3 1.2-3.9 3.7-3.9 6.5 0 4.1 3.3 7.4 7.4 7.4 4.1 0 7.4-3.3 7.4-7.4 0-2.8-1.6-5.3-3.9-6.5zM35.5 95.5H8.8c-2.9 0-5.2-2.3-5.2-5.2V14.5c0-2.9 2.3-5.2 5.2-5.2h26.7c2.9 0 5.2 2.3 5.2 5.2v75.9c-.1 2.8-2.4 5.1-5.2 5.1z"/><g fill="#cf00ab" stroke="#010101" stroke-width="2" stroke-miterlimit="10"><path d="M114.1 7.2h-10.2"/><path d="M103.9 6.9h10.2v10.2h-10.2zM103.9 17h10.2v10.2h-10.2zM103.9 27h10.2v10.2h-10.2zM103.9 37h10.2v10.2h-10.2zM103.9 47.2h10.2v10.2h-10.2zM103.9 57.2h10.2v10.2h-10.2zM103.9 67.2h10.2v10.2h-10.2zM103.9 77.2h10.2v10.2h-10.2zM103.9 87.2h10.2v10.2h-10.2z"/></g><g stroke="#010101" stroke-width="2" stroke-miterlimit="10"><g fill="#fff"><path d="M104.1 7.2H93.8"/><path d="M93.8 6.9H104v10.2H93.8zM93.8 17H104v10.2H93.8zM93.8 27H104v10.2H93.8zM93.8 37H104v10.2H93.8z"/></g><path fill="#fff" d="M93.8 47.2H104v10.2H93.8zM93.8 57.2H104v10.2H93.8z"/><path fill="#cf00ab" d="M93.8 67.2H104v10.2H93.8zM93.8 77.2H104v10.2H93.8zM93.8 87.2H104v10.2H93.8z"/></g><g fill="#cf00ab" stroke="#010101" stroke-width="2" stroke-miterlimit="10"><path d="M124.1 7.2h-10.2"/><path d="M113.9 6.9h10.2v10.2h-10.2zM113.9 17h10.2v10.2h-10.2zM113.9 27h10.2v10.2h-10.2zM113.9 37h10.2v10.2h-10.2zM113.9 47.2h10.2v10.2h-10.2zM113.9 57.2h10.2v10.2h-10.2zM113.9 67.2h10.2v10.2h-10.2zM113.9 77.2h10.2v10.2h-10.2zM113.9 87.2h10.2v10.2h-10.2z"/></g><g fill="#cf00ab" stroke="#010101" stroke-width="2" stroke-miterlimit="10"><path d="M134.1 7.2h-10.2"/><path d="M123.9 6.9h10.2v10.2h-10.2zM123.9 17h10.2v10.2h-10.2zM123.9 27h10.2v10.2h-10.2zM123.9 37h10.2v10.2h-10.2zM123.9 47.2h10.2v10.2h-10.2zM123.9 57.2h10.2v10.2h-10.2zM123.9 67.2h10.2v10.2h-10.2zM123.9 77.2h10.2v10.2h-10.2zM123.9 87.2h10.2v10.2h-10.2z"/></g><g fill="#cf00ab" stroke="#010101" stroke-width="2" stroke-miterlimit="10"><path d="M144.1 7.2h-10.2"/><path d="M133.9 6.9h10.2v10.2h-10.2zM133.9 17h10.2v10.2h-10.2zM133.9 27h10.2v10.2h-10.2zM133.9 37h10.2v10.2h-10.2zM133.9 47.2h10.2v10.2h-10.2zM133.9 57.2h10.2v10.2h-10.2zM133.9 67.2h10.2v10.2h-10.2zM133.9 77.2h10.2v10.2h-10.2zM133.9 87.2h10.2v10.2h-10.2z"/></g><g fill="#cf00ab" stroke="#010101" stroke-width="2" stroke-miterlimit="10"><path d="M154.1 7.2h-10.2"/><path d="M143.9 6.9h10.2v10.2h-10.2zM143.9 17h10.2v10.2h-10.2zM143.9 27h10.2v10.2h-10.2zM143.9 37h10.2v10.2h-10.2zM143.9 47.2h10.2v10.2h-10.2zM143.9 57.2h10.2v10.2h-10.2zM143.9 67.2h10.2v10.2h-10.2zM143.9 77.2h10.2v10.2h-10.2zM143.9 87.2h10.2v10.2h-10.2z"/></g><g fill="#cf00ab" stroke="#010101" stroke-width="2" stroke-miterlimit="10"><path d="M154.1 7.2h-10.2"/><path d="M143.9 6.9h10.2v10.2h-10.2zM143.9 17h10.2v10.2h-10.2zM143.9 27h10.2v10.2h-10.2zM143.9 37h10.2v10.2h-10.2zM143.9 47.2h10.2v10.2h-10.2zM143.9 57.2h10.2v10.2h-10.2zM143.9 67.2h10.2v10.2h-10.2zM143.9 77.2h10.2v10.2h-10.2zM143.9 87.2h10.2v10.2h-10.2z"/></g><g fill="#cf00ab" stroke="#010101" stroke-width="2" stroke-miterlimit="10"><path d="M164.1 7.2h-10.2"/><path d="M153.9 6.9h10.2v10.2h-10.2zM153.9 17h10.2v10.2h-10.2zM153.9 27h10.2v10.2h-10.2zM153.9 37h10.2v10.2h-10.2zM153.9 47.2h10.2v10.2h-10.2zM153.9 57.2h10.2v10.2h-10.2zM153.9 67.2h10.2v10.2h-10.2zM153.9 77.2h10.2v10.2h-10.2zM153.9 87.2h10.2v10.2h-10.2z"/></g><g fill="#cf00ab" stroke="#010101" stroke-width="2" stroke-miterlimit="10"><path d="M164.1 7.2h-10.2"/><path d="M153.9 6.9h10.2v10.2h-10.2zM153.9 17h10.2v10.2h-10.2zM153.9 27h10.2v10.2h-10.2zM153.9 37h10.2v10.2h-10.2zM153.9 47.2h10.2v10.2h-10.2zM153.9 57.2h10.2v10.2h-10.2zM153.9 67.2h10.2v10.2h-10.2zM153.9 77.2h10.2v10.2h-10.2zM153.9 87.2h10.2v10.2h-10.2z"/></g><g fill="#cf00ab" stroke="#010101" stroke-width="2" stroke-miterlimit="10"><path d="M164.1 7.2h-10.2"/><path d="M153.9 6.9h10.2v10.2h-10.2zM153.9 17h10.2v10.2h-10.2zM153.9 27h10.2v10.2h-10.2zM153.9 37h10.2v10.2h-10.2zM153.9 47.2h10.2v10.2h-10.2zM153.9 57.2h10.2v10.2h-10.2zM153.9 67.2h10.2v10.2h-10.2zM153.9 77.2h10.2v10.2h-10.2zM153.9 87.2h10.2v10.2h-10.2z"/></g><g fill="#cf00ab" stroke="#010101" stroke-width="2" stroke-miterlimit="10"><path d="M174.2 7.2h-10.3"/><path d="M163.9 6.9h10.2v10.2h-10.2zM163.9 17h10.2v10.2h-10.2zM163.9 27h10.2v10.2h-10.2zM163.9 37h10.2v10.2h-10.2zM163.9 47.2h10.2v10.2h-10.2zM163.9 57.2h10.2v10.2h-10.2zM163.9 67.2h10.2v10.2h-10.2zM163.9 77.2h10.2v10.2h-10.2zM163.9 87.2h10.2v10.2h-10.2z"/></g><path fill="none" stroke="#010101" stroke-width="2" stroke-miterlimit="10" d="M228.9 24.3v27.6"/><path fill="#010101" d="M225.5 47.9l3.4 3.4 3.4-3.4v2.9l-3.4 3.4-3.4-3.4z"/><path fill="#fff" stroke="#010101" stroke-width="2" stroke-miterlimit="10" d="M197.6 6.9h62.2v30h-62.2z"/><path fill="#000000" d="M197.6 7.9h62.6V13h-62.6z"/><g enable-background="new" fill="#000000"><path d="M203.7 22.4v-.7l2.3-1.2-2.3-1.2v-.7l2.7 1.4v1l-2.7 1.4zM208.8 22.5c-.5 0-.9-.1-1.1-.3-.3-.2-.4-.5-.4-.9v-.8c0-.4.1-.7.4-.9s.6-.3 1.1-.3c.5 0 .8.1 1 .3s.4.5.4.9l-.9.1c0-.2-.1-.4-.2-.5s-.2-.1-.4-.1-.4 0-.5.1c-.1.1-.1.3-.1.5v.7c0 .2 0 .4.1.5s.3.1.5.1.3 0 .4-.1c.1-.1.1-.2.2-.4l.9.1c0 .3-.1.6-.4.8-.1.1-.4.2-1 .2zM211.9 22.5c-.3 0-.5-.1-.7-.2-.2-.2-.3-.4-.3-.7 0-.3.1-.5.3-.7.2-.2.5-.2.8-.2h.8v-.4c0-.2 0-.3-.1-.3s-.2-.1-.4-.1-.3 0-.4.1c-.1.1-.2.2-.2.4l-.7-.1c.1-.4.2-.6.4-.8.2-.2.5-.2.9-.2s.8.1 1 .3c.2.2.4.4.4.8v1.3c0 .2 0 .3.1.3h.4v.7c-.3.1-.5.1-.7 0-.2-.1-.3-.2-.4-.5h-.1c-.1.2-.3.3-.5.4-.1-.1-.3-.1-.6-.1zm.2-.6c.1 0 .3 0 .4-.1s.2-.1.3-.2v-.5h-.7c-.1 0-.2 0-.3.1s-.1.2-.1.3c0 .1 0 .2.1.3.1.1.2.1.3.1zM214.8 22.5v-.7h1v-3h-1v-.7h1.9v3.7h1v.7h-2.9zM220 22.5c-.5 0-.9-.1-1.1-.3-.3-.2-.4-.5-.4-.9v-.8c0-.4.1-.7.4-.9s.6-.3 1.1-.3c.5 0 .8.1 1 .3s.4.5.4.9l-.9.1c0-.2-.1-.4-.2-.5s-.2-.1-.4-.1-.4 0-.5.1c-.1.1-.1.3-.1.5v.7c0 .2 0 .4.1.5s.3.1.5.1.3 0 .4-.1c.1-.1.1-.2.2-.4l.9.1c0 .3-.1.6-.4.8-.1.1-.5.2-1 .2zM223.2 22.5c-.3 0-.5-.1-.7-.3-.2-.2-.3-.4-.3-.8v-2.3h.9v2.1c0 .2 0 .3.1.4s.2.1.3.1c.1 0 .2 0 .4-.1l.4-.4v-2.1h.9v3.3h-.9v-.6h-.2c-.1.2-.2.4-.4.5s-.4.2-.5.2zM226 22.5v-.7h1v-3h-1v-.7h1.9v3.7h1v.7H226zM230.6 22.5c-.3 0-.5-.1-.7-.2-.2-.2-.3-.4-.3-.7 0-.3.1-.5.3-.7s.5-.2.8-.2h.8v-.4c0-.2 0-.3-.1-.3-.1-.1-.2-.1-.4-.1s-.3 0-.4.1-.2.2-.2.4l-.7-.1c.1-.4.2-.6.4-.8.2-.2.5-.2.9-.2s.8.1 1 .3c.2.2.4.4.4.8v1.3c0 .2 0 .3.1.3h.4v.7c-.3.1-.5.1-.7 0-.2-.1-.3-.2-.4-.5h-.1c-.1.2-.3.3-.5.4-.1-.1-.4-.1-.6-.1zm.2-.6c.1 0 .3 0 .4-.1s.2-.1.3-.2v-.5h-.7c-.1 0-.2 0-.3.1s-.1.2-.1.3c0 .1 0 .2.1.3.1.1.2.1.3.1zM235.5 22.5c-.4 0-.7-.1-1-.3-.2-.2-.3-.5-.3-.9v-1.5h-.8v-.7h.8V18h.9v1.1h1.2v.7h-1.2v1.4c0 .2 0 .4.1.5.1.1.2.1.4.1h.3c.1 0 .2 0 .3-.1l.1.7c-.1 0-.2.1-.4.1h-.4zM240.2 21.7c-.1.3-.3.5-.5.6-.2.1-.6.2-1 .2s-.8-.1-1.1-.3-.4-.5-.4-.9v-.9c0-.4.1-.7.4-.9s.6-.3 1.1-.3c.5 0 .8.1 1.1.3.3.2.4.5.4.9v.6h-2.1v.3c0 .2 0 .3.1.4s.3.2.5.2.3 0 .4-.1l.3-.3.8.2zm-2.1-1.4v.2h1.2v-.1c0-.2 0-.4-.1-.5-.1-.1-.2-.1-.4-.1s-.4 0-.4.1-.3.2-.3.4z"/></g><g enable-background="new" fill="#000000"><path d="M206 29.7l-.3-1.1h-1.3l-.3 1.1h-.8l1.2-4.4h1.1l1.2 4.4h-.8zm-.5-1.8l-.4-1.8-.5 1.8h.9zM209.4 29.7h-1.2l-1-3.3h.9l.7 2.6.7-2.6h.8l-.9 3.3zM214 28.9c-.1.3-.3.5-.5.6-.2.1-.6.2-1 .2s-.8-.1-1.1-.3-.4-.5-.4-.9v-.9c0-.4.1-.7.4-.9.3-.2.6-.3 1.1-.3s.8.1 1.1.3.4.5.4.9v.6h-2.1v.3c0 .2 0 .3.1.4.1.1.3.2.5.2s.3 0 .4-.1l.3-.3.8.2zm-2.1-1.4v.2h1.2v-.1c0-.2 0-.4-.1-.5-.1-.1-.2-.1-.4-.1s-.4 0-.4.1-.3.2-.3.4zM214.9 29.7v-3.3h.9v.6h.2c.1-.2.2-.4.4-.5.2-.1.4-.1.6-.1.3 0 .5.1.6.2s.2.4.2.7v.6h-.8v-.3c0-.2 0-.3-.1-.4s-.2-.1-.3-.1c-.1 0-.3 0-.4.1l-.3.3v2.2h-1zM219.4 29.7c-.3 0-.5-.1-.7-.2-.2-.2-.3-.4-.3-.7 0-.3.1-.5.3-.7s.5-.2.8-.2h.8v-.4c0-.2 0-.3-.1-.3-.1-.1-.2-.1-.4-.1s-.3 0-.4.1-.2.2-.2.4l-.7-.1c.1-.4.2-.6.4-.8.2-.2.5-.2.9-.2s.8.1 1 .3c.2.2.4.4.4.8v1.3c0 .2 0 .3.1.3h.4v.7c-.3.1-.5.1-.7 0-.2-.1-.3-.2-.4-.5h-.1c-.1.2-.3.3-.5.4-.1-.1-.4-.1-.6-.1zm.2-.6c.1 0 .3 0 .4-.1s.2-.1.3-.2v-.5h-.7c-.1 0-.2 0-.3.1s-.1.2-.1.3c0 .1 0 .2.1.3.1.1.2.1.3.1zM225.4 29.9c0 .3-.1.5-.3.7s-.5.3-.9.3h-.9c-.4 0-.7-.1-.9-.2s-.3-.3-.3-.6c0-.2.1-.3.2-.4s.2-.2.4-.2v-.1c-.1 0-.2-.1-.3-.2-.1-.1-.1-.2-.1-.4s.1-.3.2-.5c.1-.1.3-.2.5-.2V28c-.2-.1-.3-.1-.4-.2-.1-.1-.1-.2-.1-.4 0-.3.1-.5.3-.6.2-.2.5-.2.9-.2h1.8v.4l-.9-.1v.1c.1 0 .2.1.3.2.1.1.1.2.1.3v.1c0 .3-.1.5-.3.6-.2.1-.5.2-.9.2h-.5c-.1 0-.2 0-.3.1-.1 0-.1.1-.1.2s0 .2.1.2.2.1.3.1h1c.3 0 .6.1.8.2.2.1.3.4.3.7zm-2.2.4h1c.1 0 .2 0 .3-.1.1 0 .1-.1.1-.3 0-.1 0-.2-.1-.3s-.2-.1-.3-.1h-1.3v.3c0 .1 0 .2.1.3 0 .1.1.2.2.2zm.4-2.3c.2 0 .3 0 .4-.1s.1-.2.1-.3v-.2c0-.1 0-.2-.1-.3s-.2-.1-.4-.1-.3 0-.4.1-.1.2-.1.3v.2c0 .1 0 .2.1.3.1 0 .2.1.4.1zM229 28.9c-.1.3-.3.5-.5.6-.2.1-.6.2-1 .2s-.8-.1-1.1-.3c-.3-.2-.4-.5-.4-.9v-.9c0-.4.1-.7.4-.9s.6-.3 1.1-.3c.5 0 .8.1 1.1.3.3.2.4.5.4.9v.6h-2.1v.3c0 .2 0 .3.1.4s.3.2.5.2.3 0 .4-.1l.3-.3.8.2zm-2.1-1.4v.2h1.2v-.1c0-.2 0-.4-.1-.5-.1-.1-.2-.1-.4-.1s-.4 0-.4.1c-.3.1-.3.2-.3.4z"/></g><path fill="#010101" stroke="#010101" stroke-width="2" stroke-miterlimit="10" d="M262.2 93.5h-66.6c-2 0-3.6-1.6-3.6-3.6V57.8c0-2 1.6-3.6 3.6-3.6h66.6c2 0 3.6 1.6 3.6 3.6V90c0 1.9-1.6 3.5-3.6 3.5z"/><g enable-background="new" fill="#fff"><path d="M199.9 62.3c0 .1.1.2.1.3 0 0 0 .1-.1.1h-.5c-.1 0-.1 0-.1-.1l-.3-1h-1.6l-.3 1c0 .1-.1.1-.1.1h-.5s-.1 0-.1-.1v-.1l1.3-3.9c0-.1 0-.1.1-.1h.8c.1 0 .1 0 .1.1l1.2 3.7zm-2.4-1.2h1.3l-.6-2-.7 2zM202.1 62.6c0 .1-.1.1-.1.1h-.8c-.1 0-.1 0-.1-.1l-1.2-3.9v-.1s0-.1.1-.1h.5c.1 0 .1 0 .1.1l1.1 3.5 1-3.5c0-.1.1-.1.1-.1h.5s.1 0 .1.1v.1l-1.3 3.9zM206.3 62.6s0 .1 0 0l-2.4.1s-.1 0-.1-.1v-4s0-.1.1-.1h2.3s.1 0 .1.1v.4s0 .1-.1.1h-1.8v1.1h1.8s.1 0 .1.1v.4s0 .1-.1.1h-1.8v1.3h1.8s.1 0 .1.1v.4zM210 59.9c0 .6-.4.9-.9 1.1l.9 1.6h-.7c-.1 0-.1 0-.1-.1l-.8-1.6h-.8v1.6s0 .1-.1.1h-.5s-.1 0-.1-.1v-4s0-.1.1-.1h1.7c.7 0 1.2.4 1.2 1.1v.4zm-.6-.2c0-.4-.2-.6-.6-.6h-1v1.4h.9c.4 0 .7-.2.7-.6v-.2zM214 62.3c0 .1.1.2.1.3 0 0 0 .1-.1.1h-.5c-.1 0-.1 0-.1-.1l-.3-1h-1.6l-.3 1c0 .1-.1.1-.1.1h-.5s-.1 0-.1-.1v-.1l1.3-3.9c0-.1 0-.1.1-.1h.8c.1 0 .1 0 .1.1l1.2 3.7zm-2.4-1.2h1.3l-.6-2-.7 2zM217.4 62.6s0 .1 0 0l-1.7.1c-.8 0-1.3-.5-1.3-1.3V60c0-.8.6-1.3 1.3-1.3h1.6s.1 0 .1.1v.4s0 .1-.1.1h-1.6c-.5 0-.8.3-.8.8v1.4c0 .5.3.8.8.8h1v-1.2h-.7s-.1 0-.1-.1v-.4s0-.1.1-.1h1.2s.1 0 .1.1v2zM220.8 62.6s-.1.1 0 0l-2.4.1s-.1 0-.1-.1v-4s0-.1.1-.1h2.3s.1 0 .1.1v.4s0 .1-.1.1h-1.8v1.1h1.8s.1 0 .1.1v.4s0 .1-.1.1h-1.8v1.3h1.8s.1 0 .1.1v.4zM225.5 59.1s-.1.1 0 0l-1.2.1v3.4s0 .1-.1.1h-.5s-.1 0-.1-.1v-3.4h-1.1s-.1 0-.1-.1v-.5s0-.1.1-.1h2.9s.1 0 .1.1v.5zM228.4 62.6s0 .1 0 0l-2.4.1s-.1 0-.1-.1v-4s0-.1.1-.1h2.3s.1 0 .1.1v.4s0 .1-.1.1h-1.8v1.1h1.8s.1 0 .1.1v.4s0 .1-.1.1h-1.8v1.3h1.8s.1 0 .1.1v.4zM233.3 62.6s-.1.1 0 0l-.6.1s-.1 0-.1-.1l-.4-3.5c-.1.2-.1.5-.2.8l-.5 1.3s0 .1-.1.1h-.6l-.1-.1-.5-1.3c-.1-.3-.2-.6-.2-.8l-.4 3.5s0 .1-.1.1h-.5s-.1 0-.1-.1l.5-4s0-.1.1-.1h.8s.1 0 .1.1l.7 2.1.7-2.1s0-.1.1-.1h.8s.1 0 .1.1l.5 4zM237 59.9c0 .7-.5 1.1-1.2 1.1h-1.1v1.5s0 .1-.1.1h-.5s-.1 0-.1-.1v-4s0-.1.1-.1h1.7c.7 0 1.2.4 1.2 1.1v.4zm-.7-.2c0-.4-.2-.6-.6-.6h-1v1.4h1c.4 0 .6-.2.6-.6v-.2zM240.1 62.6s-.1.1 0 0l-2.4.1s-.1 0-.1-.1v-4s0-.1.1-.1h2.3s.1 0 .1.1v.4s0 .1-.1.1h-1.8v1.1h1.8s.1 0 .1.1v.4s0 .1-.1.1h-1.8v1.3h1.8s.1 0 .1.1v.4zM243.8 59.9c0 .6-.4.9-.9 1.1l.9 1.6h-.7c-.1 0-.1 0-.1-.1l-.8-1.6h-.8v1.6s0 .1-.1.1h-.5s-.1 0-.1-.1v-4s0-.1.1-.1h1.7c.7 0 1.2.4 1.2 1.1v.4zm-.7-.2c0-.4-.2-.6-.6-.6h-1v1.4h.9c.4 0 .7-.2.7-.6v-.2zM247.7 62.3c0 .1.1.2.1.3 0 0 0 .1-.1.1h-.5c-.1 0-.1 0-.1-.1l-.3-1h-1.6l-.3 1c0 .1-.1.1-.1.1h-.5s-.1 0-.1-.1v-.1l1.3-3.9c0-.1 0-.1.1-.1h.8c.1 0 .1 0 .1.1l1.2 3.7zm-2.3-1.2h1.3l-.6-2-.7 2zM250.6 59.1s-.1.1 0 0l-1.2.1v3.4s0 .1-.1.1h-.5s-.1 0-.1-.1v-3.4h-1.1s-.1 0-.1-.1v-.5s0-.1.1-.1h2.9s.1 0 .1.1v.5zM251.7 61.4c0 .5.3.8.8.8h.2c.5 0 .8-.3.8-.8v-2.8s0-.1.1-.1h.5s.1 0 .1.1v2.8c0 .9-.5 1.4-1.3 1.4h-.4c-.8 0-1.3-.5-1.3-1.4v-2.8s0-.1.1-.1h.5s.1 0 .1.1v2.8zM257.9 59.9c0 .6-.4.9-.9 1.1l.9 1.6h-.7c-.1 0-.1 0-.1-.1l-.8-1.6h-.8v1.6s0 .1-.1.1h-.4s-.1 0-.1-.1v-4s0-.1.1-.1h1.7c.7 0 1.2.4 1.2 1.1v.4zm-.6-.2c0-.4-.2-.6-.6-.6h-1v1.4h.9c.4 0 .7-.2.7-.6v-.2zM261.1 62.6s0 .1 0 0l-2.4.1s-.1 0-.1-.1v-4s0-.1.1-.1h2.3s.1 0 .1.1v.4s0 .1-.1.1h-1.8v1.1h1.8s.1 0 .1.1v.4s0 .1-.1.1h-1.8v1.3h1.8s.1 0 .1.1v.4z"/></g><g fill="#fff"><path d="M223 76.7c0 2-1.5 3.3-3.7 3.3h-.7c-2 0-3.6-1.2-3.6-3.3v-5.1c0-2.2 1.5-3.5 3.7-3.5h3.5c.1 0 .2.1.2.2v1.2c0 .1-.1.2-.2.2H219c-1.3 0-2.1.7-2.1 2v2.4l.6-.7c.6-.7 1.3-1.1 2.3-1.1h.5c1.6 0 2.7 1.1 2.7 2.9v1.5zm-1.8-1.3c0-.9-.4-1.4-1.2-1.4h-.4c-.6 0-1.1.3-1.5.8l-1.2 1.3v.6c0 1.1.8 1.7 1.8 1.7h.5c1.2 0 2-.6 2-1.7v-1.3zM233.6 76.8c0 2-1.5 3.1-3.5 3.1h-1.6c-2 0-3.5-1.1-3.5-3.1v-.6c0-1.4 1.1-2.3 1.8-2.5-.7-.3-1.5-1.1-1.5-2.3V71c0-2.1 1.5-3.1 3.6-3.1h.8c2 0 3.6 1 3.6 3.1v.4c0 1.2-.7 2-1.5 2.3.7.2 1.8 1.1 1.8 2.5v.6zm-1.9-.6c0-1-.8-1.6-1.9-1.6h-1.1c-1.1 0-1.9.6-1.9 1.6v.5c0 1.1.7 1.6 1.8 1.6h1.3c1.1 0 1.8-.5 1.8-1.6v-.5zm-.3-5.1c0-1-.8-1.5-1.9-1.5h-.4c-1.1 0-1.9.5-1.9 1.5v.4c0 1 .8 1.5 1.8 1.5h.6c1 0 1.8-.5 1.8-1.5v-.4zM239.8 73.9h-1.1c-1.6 0-2.9-1.1-2.9-2.9v-.5c0-1.6 1.2-2.9 2.9-2.9h1.1c1.7 0 3 1.2 3 2.9v.5c0 1.7-1.4 2.9-3 2.9zm1.2-3.2c0-.9-.6-1.6-1.5-1.6h-.5c-.9 0-1.5.7-1.5 1.6v.1c0 .9.5 1.6 1.5 1.6h.5c.9 0 1.5-.7 1.5-1.6v-.1z"/></g><g fill="#fff"><path d="M203.3 86.4c0-.1 0-.1 0 0l.5-.1s.1 0 .1.1v2c0 .2.1.4.3.4.2 0 .4-.2.5-.4l.5-.6v-1.4s0-.1.1-.1h.5s.1 0 .1.1v2.8s0 .1-.1.1h-.5s-.1 0-.1-.1v-.6l-.3.3c-.2.2-.4.4-.8.4h-.1c-.6 0-.9-.3-.9-.9v-2zM206.8 86.3h.5s.1 0 .1.1v.6l.2-.3c.2-.3.4-.5.9-.5h.1c.6 0 .9.3.9.9v1c0 .7-.5 1.1-1.1 1.1h-.9v1s0 .1-.1.1h-.5s-.1 0-.1-.1v-3.9c-.1 0 0 0 0 0zm.6 2.4h.8c.4 0 .6-.2.6-.6v-1c0-.2-.1-.3-.3-.3-.2 0-.4.1-.6.4l-.5.6v.9zM212.7 89.1c0 .1 0 .1 0 0l-.6.1s-.1 0-.1-.1v-.6l-.2.3c-.2.3-.4.5-.9.5h-.1c-.6 0-.9-.3-.9-.9v-1c0-.7.5-1.1 1.1-1.1h.1c.3 0 .7.1.9.3v-1.4s0-.1.1-.1h.5s.1 0 .1.1v3.9zm-.6-2.1c-.2-.1-.5-.2-.8-.2h-.1c-.3 0-.6.2-.6.6v1.1c0 .2.1.3.3.3.2 0 .4-.1.6-.4l.5-.6V87zM216.1 89.1c0 .1 0 .1 0 0l-.6.1s-.1 0-.1-.1v-.6l-.2.3c-.2.3-.4.5-.9.5h-.1c-.6 0-.9-.3-.9-.9v-1c0-.7.5-1.1 1.1-1.1h.1c.3 0 .7.1.9.3v-.1s0-.1.1-.1h.5s.1 0 .1.1v2.6zm-.6-2.1c-.2-.1-.5-.2-.8-.2h-.1c-.3 0-.6.2-.6.6v1.1c0 .2.1.3.3.3.2 0 .4-.1.6-.4l.5-.6V87zM218.5 89.1c0 .1 0 .1 0 0l-.5.1c-.5 0-.9-.3-.9-.9v-1.4l-.5-.1s-.1 0-.1-.1v-.4s0-.1.1-.1h.5V86s0-.1.1-.1l.4-.3h.1s.1 0 .1.1v.6h.7s.1 0 .1.1v.5s0 .1-.1.1h-.7v1.5c0 .2.1.3.3.3h.4s.1 0 .1.1v.2zM219.6 88v.1c0 .4.3.6.6.6h1.2s.1 0 .1.1v.4s0 .1-.1.1h-1.3c-.7 0-1.1-.4-1.1-1.1v-.8c0-.7.5-1.1 1.1-1.1h.4c.7 0 1.1.4 1.1 1v.3c0 .1 0 .1-.1.1l-.3.3s-.1.1-.2.1h-1.4zm0-.5h1.4v-.1c0-.4-.3-.6-.6-.6h-.2c-.4 0-.6.2-.6.6v.1zM224.9 89.1c0 .1 0 .1 0 0l-.6.1s-.1 0-.1-.1v-.6l-.2.3c-.2.3-.4.5-.9.5h-.1c-.6 0-.9-.3-.9-.9v-1c0-.7.5-1.1 1.1-1.1h.1c.3 0 .7.1.9.3v-1.4s0-.1.1-.1h.5s.1 0 .1.1v3.9zm-.6-2.1c-.2-.1-.5-.2-.8-.2h-.1c-.3 0-.6.2-.6.6v1.1c0 .2.1.3.3.3.2 0 .4-.1.6-.4l.5-.6V87zM228.8 89.1c0 .1 0 .1 0 0l-1.8.1s-.1 0-.1-.1v-.4s0-.1.1-.1h.5v-3h-.5s-.1 0-.1-.1v-.4s0-.1.1-.1h1.1s.1 0 .1.1v3.5h.5s.1 0 .1.1v.4zM235 89.1c0 .1-.1.1 0 0l-.5.1s-.1 0-.1-.1v-2c0-.2-.1-.3-.3-.3-.2 0-.3.2-.5.4l-.4.5v1.5s0 .1-.1.1h-.5s-.1 0-.1-.1v-2c0-.2-.1-.3-.3-.3-.2 0-.3.2-.5.4l-.4.5v1.5s0 .1-.1.1h-.5s-.1 0-.1-.1v-2.8s0-.1.1-.1h.5s.1 0 .1.1v.6l.2-.2c.2-.3.4-.5.7-.5h.1c.4 0 .7.3.7.7l.2-.3c.2-.3.4-.5.7-.5h.1c.5 0 .7.3.7.9v1.9zM236.6 89.1c0 .1 0 .1 0 0l-.6.1s-.1 0-.1-.1v-2.3l-.6-.1s-.1 0-.1-.1v-.3s0-.1.1-.1h1.2s.1 0 .1.1v2.8zm.1-3.6c0 .1 0 .1 0 0l-.7.1s-.1 0-.1-.1V85s0-.1.1-.1h.6s.1 0 .1.1v.5zM240.2 89.1c0 .1-.1.1 0 0l-.5.1s-.1 0-.1-.1v-2c0-.2-.1-.4-.3-.4-.2 0-.4.1-.6.4l-.5.6v1.5s0 .1-.1.1h-.5s-.1 0-.1-.1v-2.8s0-.1.1-.1h.5s.1 0 .1.1v.6l.2-.3c.3-.3.5-.5.9-.5h.1c.6 0 .9.3.9.9v2zM241.7 89.1c0 .1 0 .1 0 0l-.6.1s-.1 0-.1-.1v-.6s0-.1.1-.1h.6s.1 0 .1.1v.6zM246.6 89.1c0 .1 0 .1 0 0l-.6.1s-.1 0-.1-.1v-.6l-.2.3c-.2.3-.4.5-.9.5h-.1c-.6 0-.9-.3-.9-.9v-1c0-.7.5-1.1 1.1-1.1h.1c.3 0 .7.1.9.3v-.1s0-.1.1-.1h.5s.1 0 .1.1v2.6zM246 87c-.2-.1-.5-.2-.8-.2h-.1c-.3 0-.6.2-.6.6v1.1c0 .2.1.3.3.3.2 0 .4-.1.6-.4l.5-.6V87zM250 89.1c0 .7-.5 1.1-1.4 1.1h-1.1s-.1 0-.1-.1v-.4s0-.1.1-.1h1c.5 0 .8-.2.8-.6v-.6l-.2.3c-.2.3-.4.5-.9.5h-.1c-.6 0-.9-.3-.9-.9v-1c0-.7.5-1.1 1.1-1.1h.1c.3 0 .7.1.9.3v-.1s0-.1.1-.1h.5s.1 0 .1.1v2.7zm-.6-2.1c-.2-.1-.5-.2-.8-.2h-.1c-.3 0-.6.2-.6.6v1.1c0 .2.1.3.3.3.2 0 .4-.1.6-.4l.5-.6V87zM253.4 88.2c0 .7-.5 1.1-1.1 1.1h-.4c-.7 0-1.1-.4-1.1-1.1v-.8c0-.7.5-1.1 1.1-1.1h.4c.7 0 1.1.4 1.1 1.1v.8zm-.6-.9c0-.4-.3-.6-.6-.6h-.2c-.4 0-.6.2-.6.6v.8c0 .4.3.6.6.6h.2c.4 0 .6-.2.6-.6v-.8z"/></g><g fill="#cf00ab"><path d="M48.2 48.4h8v8h-8zM61.2 48.4h8v8h-8zM74.2 48.4h8v8h-8z"/></g></svg>