<svg xmlns="http://www.w3.org/2000/svg" viewBox="0 0 270 105" enable-background="new 0 0 270 105"><path fill="none" stroke="#000000" stroke-width="2" stroke-miterlimit="10" d="M156.2 52.5l11.4.1"/><path fill="#000000" d="M163.6 55.9l3.4-3.3-3.3-3.4h2.8l3.4 3.4-3.4 3.4z"/><g fill="#cf00ab" stroke="#010101" stroke-width="2" stroke-miterlimit="10"><path d="M169.9 37.5h10.2v10.2h-10.2zM169.9 47.5h10.2v10.2h-10.2zM169.9 57.5h10.2v10.2h-10.2z"/></g><path fill="#fff" stroke="#010101" stroke-width="2" stroke-miterlimit="10" d="M93.6 37.6h62.2v30H93.6z"/><path fill="#000000" d="M93.6 38.5h62.6v5.1H93.6z"/><g enable-background="new" fill="#000000"><path d="M99.7 53.1v-.7l2.3-1.2-2.3-1.2v-.7l2.7 1.4v.9l-2.7 1.5zM104.8 53.2c-.5 0-.9-.1-1.1-.3-.3-.2-.4-.5-.4-.9v-.8c0-.4.1-.7.4-.9s.6-.3 1.1-.3c.5 0 .8.1 1 .3.2.2.4.5.4.9l-.9.1c0-.2-.1-.4-.2-.5-.1-.1-.2-.1-.4-.1s-.4 0-.5.1c-.1.1-.1.3-.1.5v.7c0 .2 0 .4.1.5.1.1.3.1.5.1s.3 0 .4-.1c.1-.1.1-.2.2-.4l.9.1c0 .3-.1.6-.4.8-.1.1-.4.2-1 .2zM107.9 53.2c-.3 0-.5-.1-.7-.2-.2-.2-.3-.4-.3-.7 0-.3.1-.5.3-.7.2-.2.5-.2.8-.2h.8V51c0-.2 0-.3-.1-.3-.1-.1-.2-.1-.4-.1s-.3 0-.4.1c-.1.1-.2.2-.2.4l-.7-.1c.1-.4.2-.6.4-.8.2-.2.5-.2.9-.2s.8.1 1 .3c.2.2.4.4.4.8v1.3c0 .2 0 .3.1.3h.4v.7c-.3.1-.5.1-.7 0-.2-.1-.3-.2-.4-.5h-.1c-.1.2-.3.3-.5.4-.1-.2-.3-.1-.6-.1zm.3-.6c.1 0 .3 0 .4-.1s.2-.1.3-.2v-.5h-.7c-.1 0-.2 0-.3.1s-.1.2-.1.3c0 .1 0 .2.1.3s.1.1.3.1zM110.8 53.1v-.7h1v-3h-1v-.7h1.9v3.7h1v.7h-2.9zM116 53.2c-.5 0-.9-.1-1.1-.3-.3-.2-.4-.5-.4-.9v-.8c0-.4.1-.7.4-.9s.6-.3 1.1-.3c.5 0 .8.1 1 .3.2.2.4.5.4.9l-.9.1c0-.2-.1-.4-.2-.5-.1-.1-.2-.1-.4-.1s-.4 0-.5.1c-.1.1-.1.3-.1.5v.7c0 .2 0 .4.1.5.1.1.3.1.5.1s.3 0 .4-.1c.1-.1.1-.2.2-.4l.9.1c0 .3-.1.6-.4.8-.1.1-.4.2-1 .2zM119.2 53.2c-.3 0-.5-.1-.7-.3-.2-.2-.3-.4-.3-.8v-2.3h.9v2.1c0 .2 0 .3.1.4s.2.1.3.1c.1 0 .2 0 .4-.1l.4-.4v-2.1h.9v3.3h-.9v-.6h-.2c-.1.2-.2.4-.4.5-.2.1-.4.2-.5.2zM122 53.1v-.7h1v-3h-1v-.7h1.9v3.7h1v.7H122zM126.6 53.2c-.3 0-.5-.1-.7-.2-.2-.2-.3-.4-.3-.7 0-.3.1-.5.3-.7.2-.2.5-.2.8-.2h.8V51c0-.2 0-.3-.1-.3-.1-.1-.2-.1-.4-.1s-.3 0-.4.1c-.1.1-.2.2-.2.4l-.7-.1c.1-.4.2-.6.4-.8.2-.2.5-.2.9-.2s.8.1 1 .3c.2.2.4.4.4.8v1.3c0 .2 0 .3.1.3h.4v.7c-.3.1-.5.1-.7 0-.2-.1-.3-.2-.4-.5h-.1c-.1.2-.3.3-.5.4-.1-.2-.4-.1-.6-.1zm.2-.6c.1 0 .3 0 .4-.1s.2-.1.3-.2v-.5h-.7c-.1 0-.2 0-.3.1s-.1.2-.1.3c0 .1 0 .2.1.3s.2.1.3.1zM131.5 53.2c-.4 0-.7-.1-1-.3-.2-.2-.3-.5-.3-.9v-1.5h-.8v-.7h.8v-1.1h.9v1.1h1.2v.7h-1.2v1.4c0 .2 0 .4.1.5.1.1.2.1.4.1h.3c.1 0 .2 0 .3-.1l.1.7c-.1 0-.2.1-.4.1h-.4zM136.2 52.4c-.1.3-.3.5-.5.6-.2.1-.6.2-1 .2s-.8-.1-1.1-.3c-.3-.2-.4-.5-.4-.9v-.9c0-.4.1-.7.4-.9s.6-.3 1.1-.3c.5 0 .8.1 1.1.3.3.2.4.5.4.9v.6h-2.1v.3c0 .2 0 .3.1.4s.3.2.5.2.3 0 .4-.1l.3-.3.8.2zm-2.1-1.4v.2h1.2V51c0-.2 0-.4-.1-.5-.1-.1-.2-.1-.4-.1s-.4 0-.4.1-.3.3-.3.5z"/></g><g enable-background="new" fill="#000000"><path d="M102 60.3l-.3-1.1h-1.3l-.3 1.1h-.8l1.2-4.4h1.1l1.2 4.4h-.8zm-.5-1.7l-.4-1.8-.5 1.8h.9zM105.4 60.3h-1.2l-1-3.3h.9l.7 2.6.7-2.6h.8l-.9 3.3zM110.1 59.6c-.1.3-.3.5-.5.6-.2.1-.6.2-1 .2s-.8-.1-1.1-.3c-.3-.2-.4-.5-.4-.9v-.9c0-.4.1-.7.4-.9.3-.2.6-.3 1.1-.3.5 0 .8.1 1.1.3.3.2.4.5.4.9v.6H108v.3c0 .2 0 .3.1.4.1.1.3.2.5.2s.3 0 .4-.1l.3-.3.8.2zm-2.2-1.4v.2h1.2v-.1c0-.2 0-.4-.1-.5-.1-.1-.2-.1-.4-.1s-.4 0-.4.1c-.2 0-.3.2-.3.4zM110.9 60.3V57h.9v.6h.2c.1-.2.2-.4.4-.5.2-.1.4-.1.6-.1.3 0 .5.1.6.2s.2.4.2.7v.6h-.8v-.3c0-.2 0-.3-.1-.4-.1-.1-.2-.1-.3-.1-.1 0-.3 0-.4.1l-.3.3v2.2h-1zM115.4 60.4c-.3 0-.5-.1-.7-.2-.2-.2-.3-.4-.3-.7 0-.3.1-.5.3-.7.2-.2.5-.2.8-.2h.8v-.4c0-.2 0-.3-.1-.3-.1-.1-.2-.1-.4-.1s-.3 0-.4.1c-.1.1-.2.2-.2.4l-.7-.1c.1-.4.2-.6.4-.8.2-.2.5-.2.9-.2s.8.1 1 .3c.2.2.4.4.4.8v1.3c0 .2 0 .3.1.3h.4v.7c-.3.1-.5.1-.7 0-.2-.1-.3-.2-.4-.5h-.1c-.1.2-.3.3-.5.4-.1-.2-.4-.1-.6-.1zm.2-.6c.1 0 .3 0 .4-.1s.2-.1.3-.2V59h-.7c-.1 0-.2 0-.3.1s-.1.2-.1.3c0 .1 0 .2.1.3s.2.1.3.1zM121.4 60.5c0 .3-.1.5-.3.7s-.5.3-.9.3h-.9c-.4 0-.7-.1-.9-.2-.2-.1-.3-.3-.3-.6 0-.2.1-.3.2-.4s.2-.2.4-.2V60c-.1 0-.2-.1-.3-.2-.1-.1-.1-.2-.1-.4s.1-.3.2-.5c.1-.1.3-.2.5-.2v-.1c-.2-.1-.3-.1-.4-.2-.1-.1-.1-.2-.1-.4 0-.3.1-.5.3-.6.2-.2.5-.2.9-.2h1.8v.6l-.9-.1v.1c.1 0 .2.1.3.2s.1.2.1.3v.1c0 .3-.1.5-.3.6-.2.1-.5.2-.9.2h-.5c-.1 0-.2 0-.3.1-.1 0-.1.1-.1.2s0 .2.1.2.2.1.3.1h1c.3 0 .6.1.8.2s.3.2.3.5zm-2.1.4h1c.1 0 .2 0 .3-.1.1 0 .1-.1.1-.3 0-.1 0-.2-.1-.3-.1 0-.2-.1-.3-.1H119v.3c0 .1 0 .2.1.3-.1.2 0 .2.2.2zm.3-2.3c.2 0 .3 0 .4-.1s.1-.2.1-.3V58c0-.1 0-.2-.1-.3s-.2-.1-.4-.1-.3 0-.4.1-.1.2-.1.3v.2c0 .1 0 .2.1.3s.3.1.4.1zM125 59.6c-.1.3-.3.5-.5.6-.2.1-.6.2-1 .2s-.8-.1-1.1-.3c-.3-.2-.4-.5-.4-.9v-.9c0-.4.1-.7.4-.9.3-.2.6-.3 1.1-.3.5 0 .8.1 1.1.3.3.2.4.5.4.9v.6h-2.1v.3c0 .2 0 .3.1.4.1.1.3.2.5.2s.3 0 .4-.1l.3-.3.8.2zm-2.1-1.4v.2h1.2v-.1c0-.2 0-.4-.1-.5-.1-.1-.2-.1-.4-.1s-.4 0-.4.1c-.3 0-.3.2-.3.4z"/></g><path fill="#cf00ab" d="M18.4 33.4h7V80h-7z"/><circle fill="#cf00ab" cx="21.9" cy="80.9" r="7.2"/><path fill="none" stroke="#010101" stroke-width="2" stroke-miterlimit="10" d="M25.4 74V23.4c0-1.9-1.6-3.5-3.5-3.5s-3.5 1.6-3.5 3.5V74c-2.3 1.2-3.9 3.7-3.9 6.5 0 4.1 3.3 7.4 7.4 7.4 4.1 0 7.4-3.3 7.4-7.4 0-2.9-1.6-5.3-3.9-6.5zM35.3 95.7H8.6c-2.9 0-5.2-2.3-5.2-5.2V14.7c0-2.9 2.3-5.2 5.2-5.2h26.7c2.9 0 5.2 2.3 5.2 5.2v75.9c-.1 2.8-2.4 5.1-5.2 5.1z"/><path fill="#010101" stroke="#010101" stroke-width="2" stroke-miterlimit="10" d="M263 72.2h-66.6c-2 0-3.6-1.6-3.6-3.6V36.5c0-2 1.6-3.6 3.6-3.6H263c2 0 3.6 1.6 3.6 3.6v32.2c0 2-1.6 3.5-3.6 3.5z"/><g enable-background="new" fill="#fff"><path d="M200.7 41.1c0 .1.1.2.1.3 0 0 0 .1-.1.1h-.5c-.1 0-.1 0-.1-.1l-.3-1h-1.6l-.3 1c0 .1-.1.1-.1.1h-.5s-.1 0-.1-.1v-.1l1.3-3.9c0-.1 0-.1.1-.1h.8c.1 0 .1 0 .1.1l1.2 3.7zm-2.3-1.3h1.3l-.6-2-.7 2zM202.9 41.3c0 .1-.1.1-.1.1h-.8c-.1 0-.1 0-.1-.1l-1.2-3.9v-.1s0-.1.1-.1h.5c.1 0 .1 0 .1.1l1.1 3.5 1-3.5c0-.1.1-.1.1-.1h.5s.1 0 .1.1v.1l-1.3 3.9zM207.1 41.4l-2.4.1s-.1 0-.1-.1v-4s0-.1.1-.1h2.3s.1 0 .1.1v.4s0 .1-.1.1h-1.8V39h1.8s.1 0 .1.1v.4s0 .1-.1.1h-1.8v1.3h1.8s.1 0 .1.1v.4zM210.8 38.6c0 .6-.4.9-.9 1.1l.9 1.6h-.7c-.1 0-.1 0-.1-.1l-.8-1.6h-.8v1.6s0 .1-.1.1h-.5s-.1 0-.1-.1v-4s0-.1.1-.1h1.7c.7 0 1.2.4 1.2 1.1v.4zm-.6-.1c0-.4-.2-.6-.6-.6h-1v1.4h.9c.4 0 .7-.2.7-.6v-.2zM214.8 41.1c0 .1.1.2.1.3 0 0 0 .1-.1.1h-.5c-.1 0-.1 0-.1-.1l-.3-1h-1.6l-.3 1c0 .1-.1.1-.1.1h-.5s-.1 0-.1-.1v-.1l1.3-3.9c0-.1 0-.1.1-.1h.8c.1 0 .1 0 .1.1l1.2 3.7zm-2.4-1.3h1.3l-.6-2-.7 2zM218.2 41.3c0 .1 0 .1 0 0l-1.7.1c-.8 0-1.3-.5-1.3-1.3v-1.4c0-.8.6-1.3 1.3-1.3h1.6s.1 0 .1.1v.4s0 .1-.1.1h-1.6c-.5 0-.8.3-.8.8v1.4c0 .5.3.8.8.8h1v-1.2h-.7s-.1 0-.1-.1v-.4s0-.1.1-.1h1.2s.1 0 .1.1v2zM221.6 41.4s-.1 0 0 0l-2.4.1s-.1 0-.1-.1v-4s0-.1.1-.1h2.3s.1 0 .1.1v.4s0 .1-.1.1h-1.8V39h1.8s.1 0 .1.1v.4s0 .1-.1.1h-1.8v1.3h1.8s.1 0 .1.1v.4zM226.3 37.9s-.1 0 0 0l-1.2.1v3.4s0 .1-.1.1h-.5s-.1 0-.1-.1V38h-1.1s-.1 0-.1-.1v-.5s0-.1.1-.1h2.9s.1 0 .1.1v.5zM229.2 41.4l-2.4.1s-.1 0-.1-.1v-4s0-.1.1-.1h2.3s.1 0 .1.1v.4s0 .1-.1.1h-1.8V39h1.8s.1 0 .1.1v.4s0 .1-.1.1h-1.8v1.3h1.8s.1 0 .1.1v.4zM234.1 41.4s-.1 0 0 0l-.6.1s-.1 0-.1-.1l-.4-3.5c-.1.2-.1.5-.2.8l-.5 1.3s0 .1-.1.1h-.6l-.1-.1-.5-1.3c-.1-.3-.2-.6-.2-.8l-.4 3.5s0 .1-.1.1h-.5s-.1 0-.1-.1l.5-4s0-.1.1-.1h.8s.1 0 .1.1l.7 2.1.7-2.1s0-.1.1-.1h.8s.1 0 .1.1l.5 4zM237.8 38.7c0 .7-.5 1.1-1.2 1.1h-1.1v1.5s0 .1-.1.1h-.5s-.1 0-.1-.1v-4s0-.1.1-.1h1.7c.7 0 1.2.4 1.2 1.1v.4zm-.7-.2c0-.4-.2-.6-.6-.6h-1v1.4h1c.4 0 .6-.2.6-.6v-.2zM240.9 41.4s-.1 0 0 0l-2.4.1s-.1 0-.1-.1v-4s0-.1.1-.1h2.3s.1 0 .1.1v.4s0 .1-.1.1H239V39h1.8s.1 0 .1.1v.4s0 .1-.1.1H239v1.3h1.8s.1 0 .1.1v.4zM244.6 38.6c0 .6-.4.9-.9 1.1l.9 1.6h-.6c-.1 0-.1 0-.1-.1l-.8-1.6h-.8v1.6s0 .1-.1.1h-.5s-.1 0-.1-.1v-4s0-.1.1-.1h1.7c.7 0 1.2.4 1.2 1.1v.4zm-.7-.1c0-.4-.2-.6-.6-.6h-1v1.4h.9c.4 0 .7-.2.7-.6v-.2zM248.5 41.1c0 .1.1.2.1.3 0 0 0 .1-.1.1h-.5c-.1 0-.1 0-.1-.1l-.3-1H246l-.3 1c0 .1-.1.1-.1.1h-.5s-.1 0-.1-.1v-.1l1.3-3.9c0-.1 0-.1.1-.1h.8c.1 0 .1 0 .1.1l1.2 3.7zm-2.3-1.3h1.3l-.6-2-.7 2zM251.4 37.9s-.1 0 0 0l-1.2.1v3.4s0 .1-.1.1h-.5s-.1 0-.1-.1V38h-1.1s-.1 0-.1-.1v-.5s0-.1.1-.1h2.9s.1 0 .1.1v.5zM252.5 40.1c0 .5.3.8.8.8h.2c.5 0 .8-.3.8-.8v-2.8s0-.1.1-.1h.5s.1 0 .1.1v2.8c0 .9-.5 1.4-1.3 1.4h-.4c-.8 0-1.3-.5-1.3-1.4v-2.8s0-.1.1-.1h.5s.1 0 .1.1v2.8zM258.7 38.6c0 .6-.4.9-.9 1.1l.9 1.6h-.7c-.1 0-.1 0-.1-.1l-.8-1.6h-.8v1.6s0 .1-.1.1h-.5s-.1 0-.1-.1v-4s0-.1.1-.1h1.7c.7 0 1.2.4 1.2 1.1v.4zm-.6-.1c0-.4-.2-.6-.6-.6h-1v1.4h.9c.4 0 .7-.2.7-.6v-.2zM262 41.4s-.1 0 0 0l-2.4.1s-.1 0-.1-.1v-4s0-.1.1-.1h2.3s.1 0 .1.1v.4s0 .1-.1.1h-1.8V39h1.8s.1 0 .1.1v.4s0 .1-.1.1h-1.8v1.3h1.8s.1 0 .1.1v.4z"/></g><g fill="#fff"><path d="M223.8 55.5c0 2-1.5 3.3-3.7 3.3h-.7c-2 0-3.6-1.2-3.6-3.3v-5.1c0-2.2 1.5-3.5 3.7-3.5h3.5c.1 0 .2.1.2.2v1.2c0 .1-.1.2-.2.2h-3.3c-1.3 0-2.1.7-2.1 2v2.4l.6-.7c.6-.7 1.3-1.1 2.3-1.1h.5c1.6 0 2.7 1.1 2.7 2.9v1.5zm-1.8-1.4c0-.9-.4-1.4-1.2-1.4h-.4c-.6 0-1.1.3-1.5.8l-1.2 1.3v.6c0 1.1.8 1.7 1.8 1.7h.5c1.2 0 2-.6 2-1.7v-1.3zM234.4 55.6c0 2-1.5 3.1-3.5 3.1h-1.6c-2 0-3.5-1.1-3.5-3.1V55c0-1.4 1.1-2.3 1.8-2.5-.7-.3-1.5-1.1-1.5-2.3v-.4c0-2.1 1.5-3.1 3.6-3.1h.8c2 0 3.6 1 3.6 3.1v.4c0 1.2-.7 2-1.5 2.3.7.2 1.8 1.1 1.8 2.5v.6zm-1.9-.6c0-1-.8-1.6-1.9-1.6h-1.1c-1.1 0-1.9.6-1.9 1.6v.5c0 1.1.7 1.6 1.8 1.6h1.3c1.1 0 1.8-.5 1.8-1.6V55zm-.3-5.2c0-1-.8-1.5-1.9-1.5h-.4c-1.1 0-1.9.5-1.9 1.5v.4c0 1 .8 1.5 1.8 1.5h.6c1 0 1.8-.5 1.8-1.5v-.4zM240.6 52.7h-1.1c-1.6 0-2.9-1.1-2.9-2.9v-.5c0-1.6 1.2-2.9 2.9-2.9h1.1c1.7 0 3 1.2 3 2.9v.5c0 1.7-1.4 2.9-3 2.9zm1.2-3.2c0-.9-.6-1.6-1.5-1.6h-.5c-.9 0-1.5.7-1.5 1.6v.1c0 .9.5 1.6 1.5 1.6h.5c.9 0 1.5-.7 1.5-1.6v-.1z"/></g><g fill="#fff"><path d="M203.2 66s0 .1 0 0l-.6.1s-.1 0-.1-.1c0-.3-.3-.4-.6-.4h-.1c-.4 0-.6.2-.6.6v.8c0 .4.3.6.6.6h1.2s.1 0 .1.1v.4s0 .1-.1.1h-1.3c-.7 0-1.1-.4-1.1-1.1v-.8c0-.7.5-1.1 1.1-1.1h.3c.7-.2 1.2.2 1.2.8zM206.4 66.9c0 .7-.5 1.1-1.1 1.1h-.4c-.7 0-1.1-.4-1.1-1.1v-.8c0-.7.5-1.1 1.1-1.1h.4c.7 0 1.1.4 1.1 1.1v.8zm-.6-.8c0-.4-.3-.6-.6-.6h-.2c-.4 0-.6.2-.6.6v.8c0 .4.3.6.6.6h.2c.4 0 .6-.2.6-.6v-.8zM209.8 67.9s0 .1 0 0l-.5.1s-.1 0-.1-.1v-2c0-.2-.1-.4-.3-.4-.2 0-.4.1-.6.4l-.5.6V68s0 .1-.1.1h-.5s-.1 0-.1-.1v-2.8s0-.1.1-.1h.5s.1 0 .1.1v.6l.2-.3c.3-.3.5-.5.9-.5h.1c.6 0 .9.3.9.9v2zM212.2 67.9s-.1.1 0 0l-.5.1c-.5 0-.9-.3-.9-.9v-1.4l-.5-.1s-.1 0-.1-.1v-.4s0-.1.1-.1h.5v-.3s0-.1.1-.1l.4-.3h.1s.1 0 .1.1v.6h.7s.1 0 .1.1v.5s0 .1-.1.1h-.7v1.5c0 .2.1.3.3.3h.4s.1 0 .1.1v.3zM213.7 67.9s0 .1 0 0l-.6.1s-.1 0-.1-.1v-2.3l-.6-.1s-.1 0-.1-.1v-.3s0-.1.1-.1h1.2s.1 0 .1.1v2.8zm.1-3.6l-.7.1s-.1 0-.1-.1v-.6s0-.1.1-.1h.6s.1 0 .1.1v.6zM217.2 67.9s0 .1 0 0l-.5.1s-.1 0-.1-.1v-2c0-.2-.1-.4-.3-.4-.2 0-.4.1-.6.4l-.5.6V68s0 .1-.1.1h-.5s-.1 0-.1-.1v-2.8s0-.1.1-.1h.5s.1 0 .1.1v.6l.2-.3c.3-.3.5-.5.9-.5h.1c.6 0 .9.3.9.9v2zM218 65.1s.1 0 0 0l.5-.1s.1 0 .1.1v2c0 .2.1.4.3.4.2 0 .4-.2.5-.4l.5-.6v-1.4s0-.1.1-.1h.5s.1 0 .1.1v2.8s0 .1-.1.1h-.5s-.1 0-.1-.1v-.6l-.3.3c-.2.2-.4.4-.8.4h-.1c-.6 0-.9-.3-.9-.9v-2zM224.1 66.9c0 .7-.5 1.1-1.1 1.1h-.4c-.7 0-1.1-.4-1.1-1.1v-.8c0-.7.5-1.1 1.1-1.1h.4c.7 0 1.1.4 1.1 1.1v.8zm-.7-.8c0-.4-.3-.6-.6-.6h-.2c-.4 0-.6.2-.6.6v.8c0 .4.3.6.6.6h.2c.4 0 .6-.2.6-.6v-.8zM224.7 65.1s.1 0 0 0l.5-.1s.1 0 .1.1v2c0 .2.1.4.3.4.2 0 .4-.2.5-.4l.5-.6v-1.4s0-.1.1-.1h.5s.1 0 .1.1v2.8s0 .1-.1.1h-.5s-.1 0-.1-.1v-.6l-.3.3c-.2.2-.4.4-.8.4h-.1c-.6 0-.9-.3-.9-.9v-2zM230.3 65.5s0 .1 0 0l-1.3.1c-.2 0-.3.1-.3.3 0 .2.1.3.3.3.2 0 .4.1.6.1.5.1.9.3.9.8v.1c0 .5-.4.8-.9.8h-1.4s-.1 0-.1-.1v-.4s0-.1.1-.1h1.3c.2 0 .4-.1.4-.3 0-.2-.2-.3-.4-.3s-.4-.1-.6-.1c-.5-.1-.8-.4-.8-.8v-.1c0-.5.4-.7.9-.7h1.3s.1 0 .1.1v.3zM232.4 67.9s0 .1 0 0l-.4.1c-.5 0-.9-.3-.9-.9v-3.3s0-.1.1-.1h.5s.1 0 .1.1v3.3c0 .2.1.3.3.3h.3s.1 0 .1.1v.4zM234.2 67.7c-.1.4-.3.6-.6.9l-.4.4h-.2l-.3-.3.4-.4c.2-.2.3-.3.4-.5l-1.1-2.6s0-.1.1-.1h.5c.1 0 .1 0 .1.1l.6 1.3c.1.2.1.5.1.7l.7-2c0-.1.1-.1.1-.1h.5s.1 0 .1.1l-1 2.5zM237 65.1l.5-.1s.1 0 .1.1v2c0 .2.1.4.3.4.2 0 .4-.2.5-.4l.5-.6v-1.4s0-.1.1-.1h.5s.1 0 .1.1v2.8s0 .1-.1.1h-.5s-.1 0-.1-.1v-.6l-.3.3c-.2.2-.4.4-.8.4h-.1c-.6 0-.9-.3-.9-.9v-2zM240.5 65.1h.5s.1 0 .1.1v.6l.2-.3c.2-.3.4-.5.9-.5h.1c.6 0 .9.3.9.9v1c0 .7-.5 1.1-1.1 1.1h-.9v1s0 .1-.1.1h-.5s-.1 0-.1-.1v-3.9zm.6 2.3h.8c.4 0 .6-.2.6-.6v-1c0-.2-.1-.3-.3-.3-.2 0-.4.1-.6.4l-.5.6v.9zM246.5 67.9s-.1.1 0 0l-.6.1s-.1 0-.1-.1v-.6l-.2.3c-.2.3-.4.5-.9.5h-.1c-.6 0-.9-.3-.9-.9v-1c0-.7.5-1.1 1.1-1.1h.1c.3 0 .7.1.9.3V64s0-.1.1-.1h.5s.1 0 .1.1v3.9zm-.6-2.1c-.2-.1-.5-.2-.8-.2h-.1c-.3 0-.6.2-.6.6v1.1c0 .2.1.3.3.3.2 0 .4-.1.6-.4l.5-.6v-.8zM249.9 67.9s-.1.1 0 0l-.6.1s-.1 0-.1-.1v-.6l-.2.3c-.2.3-.4.5-.9.5h-.1c-.6 0-.9-.3-.9-.9v-1c0-.7.5-1.1 1.1-1.1h.1c.3 0 .7.1.9.3v-.1s0-.1.1-.1h.5s.1 0 .1.1v2.6zm-.6-2.1c-.2-.1-.5-.2-.8-.2h-.1c-.3 0-.6.2-.6.6v1.1c0 .2.1.3.3.3.2 0 .4-.1.6-.4l.5-.6v-.8zM252.3 67.9s0 .1 0 0l-.5.1c-.5 0-.9-.3-.9-.9v-1.4l-.5-.1s-.1 0-.1-.1v-.4s0-.1.1-.1h.5v-.3s0-.1.1-.1l.4-.3h.1s.1 0 .1.1v.6h.7s.1 0 .1.1v.5s0 .1-.1.1h-.7v1.5c0 .2.1.3.3.3h.4s.1 0 .1.1v.3zM253.4 66.7v.1c0 .4.3.6.6.6h1.2s.1 0 .1.1v.4s0 .1-.1.1h-1.3c-.7 0-1.1-.4-1.1-1.1v-.8c0-.7.5-1.1 1.1-1.1h.4c.7 0 1.1.4 1.1 1v.3c0 .1 0 .1-.1.1l-.3.3s-.1.1-.2.1h-1.4zm0-.5h1.4v-.1c0-.4-.3-.6-.6-.6h-.2c-.4 0-.6.2-.6.6v.1zM258.7 67.9s0 .1 0 0l-.6.1s-.1 0-.1-.1v-.6l-.2.3c-.2.3-.4.5-.9.5h-.1c-.6 0-.9-.3-.9-.9v-1c0-.7.5-1.1 1.1-1.1h.1c.3 0 .7.1.9.3V64s0-.1.1-.1h.5s.1 0 .1.1v3.9zm-.6-2.1c-.2-.1-.5-.2-.8-.2h-.1c-.3 0-.6.2-.6.6v1.1c0 .2.1.3.3.3.2 0 .4-.1.6-.4l.5-.6v-.8z"/></g><path fill="none" stroke="#000000" stroke-width="2" stroke-miterlimit="10" d="M180.2 52.5h10.4"/><path fill="#000000" d="M186.6 55.9l3.4-3.4-3.4-3.4h2.9l3.4 3.4-3.5 3.4z"/><path fill="none" stroke="#010101" stroke-width="2" stroke-miterlimit="10" d="M40.4 52.5h51"/><path fill="#010101" d="M87.4 55.9l3.4-3.4-3.4-3.3h2.9l3.3 3.3-3.3 3.4z"/><g fill="#cf00ab"><path d="M48 48.5h8v8h-8zM61 48.5h8v8h-8zM74 48.5h8v8h-8z"/></g></svg>