<svg xmlns="http://www.w3.org/2000/svg" viewBox="0 0 135 120" enable-background="new 0 0 135 120"><g fill="none" stroke="#000" stroke-width="2" stroke-miterlimit="10"><path d="M56.3 87.5c0-.4-.4-.7-.8-.7-.3-3-2.3-5.2-4.8-5.2s-4.5 2.3-4.8 5.2h-.1c-.5 0-.9.3-.9.7 0 .4.4.7.9.7h.1c.3 3 2.3 5.2 4.8 5.2s4.5-2.3 4.8-5.2c.4 0 .8-.3.8-.7zM50.6 81.6c-.7 0-1.3.2-1.9.5-.1 0-.1.1-.2.1-1.4.8-2.5 2.5-2.7 4.5 1.5-.3 2-1.3 2.7-2.8.9 1.5 3 2.3 4.6 2.3.7 0 1.4-.2 2.1-.6-.6-2.3-2.4-4-4.6-4z"/></g><g fill="none" stroke="#000" stroke-width="2" stroke-miterlimit="10"><path d="M94.2 92.1c0-.4-.4-.7-.8-.7-.3-3-2.3-5.2-4.8-5.2s-4.5 2.3-4.8 5.2h-.1c-.5 0-.9.3-.9.7 0 .4.4.7.9.7h.1c.3 3 2.3 5.2 4.8 5.2s4.5-2.3 4.8-5.2c.5-.1.8-.4.8-.7zM88.6 86.1c-.7 0-1.3.2-1.9.5-.1 0-.1.1-.2.1-1.4.8-2.5 2.5-2.7 4.5 1.5-.3 2-1.3 2.7-2.8.9 1.5 3 2.3 4.6 2.3.7 0 1.4-.2 2.1-.6-.6-2.3-2.5-4-4.6-4z"/></g><g fill="none" stroke="#000" stroke-width="2" stroke-miterlimit="10"><path d="M81.4 103.7c0-.4-.4-.7-.8-.7-.3-3-2.3-5.2-4.8-5.2s-4.5 2.3-4.8 5.2h-.1c-.5 0-.9.3-.9.7 0 .4.4.7.9.7h.1c.3 3 2.3 5.2 4.8 5.2s4.5-2.3 4.8-5.2c.4 0 .8-.3.8-.7zM71.6 101.5h9M71.2 104.8v5.2h9.4v-5.7"/></g><g fill="none" stroke="#000" stroke-width="2" stroke-miterlimit="10"><path d="M62.7 106.4l.1-5.4H53s.1 5.3.1 5.4H53c-.5 0-.9.3-.9.7 0 .4.4.7.9.7h.1c.3 3 2.3 5.2 4.8 5.2s4.5-2.3 4.8-5.2c.5 0 .8-.3.8-.7s-.3-.7-.8-.7zM53 101l.1 5.4 1 .4.6-3.9H61l.7 3.8 1-.2.1-5.5z"/></g><g fill="none" stroke="#000" stroke-width="2" stroke-miterlimit="10"><path d="M98 109.2l.1-5.4h-9.8s.1 5.3.1 5.4h-.1c-.5 0-.9.3-.9.7 0 .4.4.7.9.7h.1c.3 3 2.3 5.2 4.8 5.2s4.5-2.3 4.8-5.2c.5 0 .8-.3.8-.7s-.4-.7-.8-.7zM88.2 103.8l.1 5.4 1.1.4.6-3.9h6.3l.6 3.8 1.1-.2v-5.5z"/></g><g fill="none" stroke="#000" stroke-width="2" stroke-miterlimit="10"><path d="M46 106.2c0-.4-.4-.7-.8-.7-.3-3-2.3-5.2-4.8-5.2s-4.5 2.3-4.8 5.2h-.1c-.5 0-.9.3-.9.7 0 .4.4.7.9.7h.1c.3 3 2.3 5.2 4.8 5.2s4.5-2.3 4.8-5.2c.5 0 .8-.3.8-.7zM40.5 100.3c-.1 0-.1 0 0 0-2.5 0-4.6 2.3-4.9 5.2h.1c2.4 0 4.5-2.3 4.8-5.2zM40.6 100.3c.3 2.8 2.2 5 4.6 5.2-.3-2.9-2.2-5.1-4.6-5.2zM35.5 107.1v7.1h1.8v-2.8M45.3 107.1v7.1h-1.8v-2.8"/></g><g fill="none" stroke="#000" stroke-width="2" stroke-miterlimit="10"><path d="M74.8 82.2c0-.4-.4-.7-.8-.7-.3-3-2.3-5.2-4.8-5.2s-4.5 2.3-4.8 5.2h-.1c-.5 0-.9.3-.9.7 0 .4.4.7.9.7h.1c.3 3 2.3 5.2 4.8 5.2s4.5-2.3 4.8-5.2c.5-.1.8-.4.8-.7zM69.2 76.2c-2.5 0-4.6 2.3-4.9 5.2h.1c2.5 0 4.5-2.3 4.8-5.2zM69.4 76.2c.3 2.8 2.2 5 4.6 5.2-.3-2.8-2.2-5-4.6-5.2zM64.5 83v7.1h1.9v-2.8M73.9 83v7.1h-1.8v-2.8"/></g><g fill="none" stroke="#000" stroke-width="3" stroke-miterlimit="10"><path d="M67.8 2v59L15.1 99.5M119.9 99.8L67.6 61"/></g><g fill="none" stroke="#000" stroke-width="2" stroke-miterlimit="10"><path d="M33.1 21.9c0-.4-.4-.7-.8-.7-.3-3-2.3-5.2-4.8-5.2s-4.5 2.3-4.8 5.2h-.1c-.5 0-.9.3-.9.7s.4.7.9.7h.1c.3 3 2.3 5.2 4.8 5.2s4.5-2.3 4.8-5.2c.4 0 .8-.3.8-.7zM27.4 16c-.7 0-1.3.2-1.9.5-.1 0-.1.1-.2.1-1.4.8-2.5 2.5-2.7 4.5 1.5-.3 2-1.3 2.7-2.8.9 1.5 3 2.3 4.6 2.3.7 0 1.4-.2 2.1-.6-.6-2.3-2.4-4-4.6-4zM51.8 56.6c0-.4-.4-.7-.8-.7-.3-3-2.3-5.2-4.8-5.2s-4.5 2.3-4.8 5.2h-.1c-.5 0-.9.3-.9.7 0 .4.4.7.9.7h.1c.3 3 2.3 5.2 4.8 5.2s4.5-2.3 4.8-5.2c.4 0 .8-.4.8-.7zM46.1 50.6c-.7 0-1.3.2-1.9.5-.1 0-.1.1-.2.1-1.4.8-2.5 2.5-2.7 4.5 1.5-.3 2-1.3 2.7-2.8.9 1.5 3 2.3 4.6 2.3.7 0 1.4-.2 2.1-.6-.6-2.3-2.4-4-4.6-4zM22.2 37.6c0-.4-.4-.7-.8-.7-.3-3-2.3-5.2-4.8-5.2s-4.5 2.3-4.8 5.2h-.1c-.5 0-.9.3-.9.7s.4.7.9.7h.1c.3 3 2.3 5.2 4.8 5.2s4.5-2.3 4.8-5.2c.4 0 .8-.3.8-.7zM12.2 35.5h8.9M11.7 38.8v5.1h9.9v-5.6"/><path d="M58.2 38.1c0-.4-.4-.7-.8-.7-.3-3-2.3-5.2-4.8-5.2s-4.5 2.3-4.8 5.2h-.1c-.5 0-.9.3-.9.7 0 .4.4.7.9.7h.1c.3 3 2.3 5.2 4.8 5.2s4.5-2.3 4.8-5.2c.4 0 .8-.3.8-.7zM57.3 35.9h-8.9M47.9 39.2v5.2h9.4v-5.6"/><path d="M39.5 40.8l.1-5.4h-9.8s.1 5.3.1 5.4h-.1c-.5 0-.9.3-.9.7 0 .4.4.7.9.7h.1c.3 3 2.3 5.2 4.8 5.2s4.5-2.3 4.8-5.2c.5 0 .8-.3.8-.7s-.3-.6-.8-.7zM29.8 35.5l.1 5.3 1 .4.6-3.9h6.3l.7 3.9 1-.3.1-5.4zM32.2 58.5c0-.4-.4-.7-.8-.7-.3-3-2.3-5.2-4.8-5.2s-4.5 2.3-4.8 5.2h-.1c-.5 0-.9.3-.9.7 0 .4.4.7.9.7h.1c.3 3 2.3 5.2 4.8 5.2s4.5-2.3 4.8-5.2c.5 0 .8-.3.8-.7zM26.6 52.6c-2.5 0-4.6 2.3-4.9 5.2h.1c2.5 0 4.5-2.3 4.8-5.2zM26.8 52.6c.3 2.8 2.2 5 4.6 5.2-.3-2.9-2.2-5.1-4.6-5.2zM21.6 59.4v7.1h1.8v-2.8M31.4 59.4v7.1h-1.8v-2.8"/><path d="M52.6 18.6c0-.4-.4-.7-.8-.7-.3-3-2.3-5.2-4.8-5.2s-4.5 2.3-4.8 5.2h-.1c-.5 0-.9.3-.9.7 0 .4.4.7.9.7h.1c.3 3 2.3 5.2 4.8 5.2s4.5-2.3 4.8-5.2c.4 0 .8-.3.8-.7zM47 12.7c-2.5 0-4.6 2.3-4.9 5.2h.1c2.5-.1 4.5-2.3 4.8-5.2zM47.2 12.7c.3 2.8 2.2 5 4.6 5.2-.3-2.9-2.2-5.1-4.6-5.2zM42.2 19.5v7h1.9v-2.8M51.6 19.5v7h-1.8v-2.8"/></g><g fill="none" stroke="#000" stroke-width="2" stroke-miterlimit="10"><path d="M101.3 18c0-.4-.4-.7-.8-.7-.3-3-2.3-5.2-4.8-5.2s-4.5 2.3-4.8 5.2h-.1c-.5 0-.9.3-.9.7s.4.7.9.7h.1c.3 3 2.3 5.2 4.8 5.2s4.5-2.3 4.8-5.2c.4 0 .8-.3.8-.7zM95.6 12c-.7 0-1.3.2-1.9.5-.1 0-.1.1-.2.1-1.4.8-2.5 2.5-2.7 4.5 1.5-.3 2-1.3 2.7-2.8.9 1.5 3 2.3 4.6 2.3.7 0 1.4-.2 2.1-.6-.6-2.3-2.4-4-4.6-4z"/></g><g fill="none" stroke="#000" stroke-width="2" stroke-miterlimit="10"><path d="M106.8 59.3c0-.4-.4-.7-.8-.7-.3-3-2.3-5.2-4.8-5.2s-4.5 2.3-4.8 5.2h-.1c-.5 0-.9.3-.9.7 0 .4.4.7.9.7h.1c.3 3 2.3 5.2 4.8 5.2s4.5-2.3 4.8-5.2c.4 0 .8-.3.8-.7zM101.2 53.4c-.7 0-1.3.2-1.9.5-.1 0-.1.1-.2.1-1.4.8-2.5 2.5-2.7 4.5 1.5-.3 2-1.3 2.7-2.8.9 1.5 3 2.3 4.6 2.3.7 0 1.4-.2 2.1-.6-.7-2.3-2.5-4-4.6-4z"/></g><g fill="none" stroke="#000" stroke-width="2" stroke-miterlimit="10"><path d="M89 33.6c0-.4-.4-.7-.8-.7-.3-3-2.3-5.2-4.8-5.2s-4.5 2.3-4.8 5.2h-.1c-.5 0-.9.3-.9.7s.4.7.9.7h.1c.3 3 2.3 5.2 4.8 5.2s4.5-2.3 4.8-5.2c.4 0 .8-.3.8-.7zM87.9 31.5h-9M78.5 34.8V40h9.8v-5.7"/></g><g fill="none" stroke="#000" stroke-width="2" stroke-miterlimit="10"><path d="M125 64.4c0-.4-.4-.7-.8-.7-.3-3-2.3-5.2-4.8-5.2s-4.5 2.3-4.8 5.2h-.1c-.5 0-.9.3-.9.7 0 .4.4.7.9.7h.1c.3 3 2.3 5.2 4.8 5.2s4.5-2.3 4.8-5.2c.4 0 .8-.3.8-.7zM115.1 62.2h9M114.7 65.5v5.1h9.4V65"/></g><g fill="none" stroke="#000" stroke-width="2" stroke-miterlimit="10"><path d="M106.3 37.9l.1-5.4h-9.8s.1 5.3.1 5.4h-.1c-.5 0-.9.3-.9.7 0 .4.4.7.9.7h.1c.3 3 2.3 5.2 4.8 5.2s4.5-2.3 4.8-5.2c.5 0 .8-.3.8-.7s-.4-.7-.8-.7zM96.6 32.5l.1 5.4 1 .3.6-3.8h6.3l.7 3.8 1-.3v-5.4z"/></g><g fill="none" stroke="#000" stroke-width="2" stroke-miterlimit="10"><path d="M89.1 51.7c0-.4-.4-.7-.8-.7-.3-3-2.3-5.2-4.8-5.2S79 48.1 78.7 51h-.1c-.5 0-.9.3-.9.7 0 .4.4.7.9.7h.1c.3 3 2.3 5.2 4.8 5.2s4.5-2.3 4.8-5.2c.5 0 .8-.3.8-.7zM83.6 45.8c-.1 0-.1 0 0 0-2.5 0-4.6 2.3-4.9 5.2h.1c2.4 0 4.5-2.3 4.8-5.2zM83.7 45.8c.3 2.8 2.2 5 4.6 5.2-.3-2.9-2.2-5.1-4.6-5.2zM78.5 52.6v7.1h1.9v-2.8M88.3 52.6v7.1h-1.8v-2.8"/></g><g fill="none" stroke="#000" stroke-width="2" stroke-miterlimit="10"><path d="M123.9 41.4c0-.4-.4-.7-.8-.7-.3-3-2.3-5.2-4.8-5.2s-4.5 2.3-4.8 5.2h-.1c-.5 0-.9.3-.9.7 0 .4.4.7.9.7h.1c.3 3 2.3 5.2 4.8 5.2s4.5-2.3 4.8-5.2c.5 0 .8-.3.8-.7zM118.3 35.5c-2.5 0-4.6 2.3-4.9 5.2h.1c2.5-.1 4.5-2.3 4.8-5.2zM118.5 35.5c.3 2.8 2.2 5 4.6 5.2-.3-2.9-2.2-5.1-4.6-5.2zM113.3 42.3v7.1h1.8v-2.9M123.1 42.3v7.1h-1.9v-2.9"/></g><g fill="none" stroke="#000" stroke-width="2" stroke-miterlimit="10"><path d="M119.4 17c0-.4-.4-.7-.8-.7-.3-3-2.3-5.2-4.8-5.2s-4.5 2.3-4.8 5.2h-.1c-.5 0-.9.3-.9.7 0 .4.4.7.9.7h.1c.3 3 2.3 5.2 4.8 5.2s4.5-2.3 4.8-5.2c.4 0 .8-.3.8-.7zM113.8 11c-2.5 0-4.6 2.3-4.9 5.2h.1c2.5 0 4.5-2.2 4.8-5.2zM114 11.1c.3 2.8 2.2 5 4.6 5.2-.3-2.9-2.3-5.1-4.6-5.2zM109 17.9v7h1.9v-2.8M118.4 17.9v7h-1.9v-2.8"/></g><path d="M11.7 41.9l.3 1.7h9.9l-.7-3.7-2.4 3h-4.1zM12.4 34.1l2.5-1.7 3.8-.3 1.1 1 1.3 2.8h-9.2zM22.8 18.6l2.6-2.9 3.6.2 2.2 2.7.4.9-1.7 1.1-5-1.9zM48.2 35.3l2.9-3.1"/><path d="M49.5 35.6l-1-1.2 2.7-1.5 4-.5 1.5 3.2-4.4.6zM42.4 17.5l.4-2.7 3.3-2.9 2.9.5 2.4 2.6s.4 2.8.1 2.8-3.2-1.9-3.2-1.9l-1.6-1.1-1.1 1.6-3.2 1.9v-.8zM24.8 52.9l-2.6 2.7s-1.2 2.1 0 2 2.2.1 2.3-.8 2-2.8 2-2.8.5.6 1.2 1.2 1.5 1.8 2.1 1.9 1.3.2 1.3.2l-1.4-3.4-2.9-1.3-2 .3zM42.8 52l2.4-1.8 2.6.3 2.3 2.7.6 1.5-2.4.7-3.7-1.3-1.8-1.2zM79 50.5l.4-2.5s2-2 2.4-2h2.8L82 50.2l-3.3.8"/><path d="M88.3 51l-2.8-.8-2.4-3.5s1-.5 1.4-.6 2.9 1.2 2.9 1.2l.9 3.7zM78.9 30.9"/><path d="M78.6 31.2c.2-.6 1.8-2.5 1.8-2.5s2.5-1.1 3.2-.9c.8.2 2.5-.1 3.3 1.4.8 1.5.8 2.4.8 2.4l-9.1-.4zM78.8 38.4v1.8s9.9 1.5 9.8-.1c0-1.7-.5-3.7-.8-3.1-.3.6-2.4 1.9-3.2 2.1s-1.8.2-1.8.2l-2.4-.8-1.6-.1zM92.5 13.7s.6-.8 1.4-1.3c.8-.5 2.2-.4 3.2.2 1 .6 2.3 1.5 2.5 2.5s-.1 1.5-1.2 1.5-2.4-.6-3.8-1.2c-1.2-.4-2.1-1.7-2.1-1.7zM109 16.2s.4-2.3.7-2.8c.3-.5 2-2.2 2.8-2.2s2.2-.5 3.5.5c1.3 1 2.1 1.9 2.3 3.2.2 1.3-.5 1.8-1.3 1.2-.8-.6-1.5-1.5-2.3-2s-1.7 0-1.7 0-1 1.7-2.1 2c-1.1.1-1.9.1-1.9.1zM113.3 45s-.1 4 .2 4 2 .5 2 0-.6-3.3-.6-3.3l-1.6-.7zM120.8 46.7c0 .5.2 2.4.2 2.4s3.1.8 2.8-.2c-.3-1.1-1-4.4-1-4.4l-2 2.2zM113.3 39.9l1-2.8 3.2-1.8 2.4.7 1.7 1.3 1.3 3.4-3-1.4-1-1.4-1.7.6-1.9 2-1.8.5zM99.7 56.8l1.9 1.1 4.2-.3-2.3-3.3-4-.6-.8 2.1zM115.1 62l1.8-3.4 2.9-.2 3.4 2.8-1 .7zM71.2 101.8l1.8-2.6 2.9-1.1 3 .9.8 2.6zM85.1 87.8l2.2-1.6 3.4-.1 2.2 2.9-.2 1.7-4.4-.6-3.5-1.5zM64.9 81.2v-2.1l3.8-2.9 1.8.3 2 1.4 1.3 3.4-2.9-1.1-1.9-2.7-1.4 3-2.3 1.2zM47.9 83.5l2.1 1.7 2.8 1 2.4-.9-2.8-3.8-4.1.3zM40.1 101.2l-1.1 2.4-2.3 1.5-1-2 3.2-3zM44.3 105.5L41 103l.2-2.9 2.5 1.2 1.3 3z"/></svg>