<svg xmlns="http://www.w3.org/2000/svg" viewBox="0 0 135 105" enable-background="new 0 0 135 105"><g fill="none" stroke="#000" stroke-width="2" stroke-miterlimit="10"><path d="M57.8 82.8v3h-3M54 85.8h-3v-3"/><path stroke-dasharray="6.4125,6.4125" d="M51 76.4V15.5"/><path d="M51 12.3v-3h3M54.8 9.3h3v3"/><path stroke-dasharray="6.4125,6.4125" d="M57.8 18.7v60.9"/></g><path fill="#cf00ab" d="M119.5 13.5v68h-39v-68h39m4-4h-47v76h47v-76z"/><path fill="none" d="M75.818 18.058l-5.882-.46.49-6.28 5.882.46z"/><path d="M70 17.6l3.4-2.9-2.9-3.4 2.7.2 2.9 3.4-3.4 2.9z"/><path fill="none" stroke="#000" stroke-width="2" stroke-miterlimit="10" d="M73.2 14.7L11.7 9.9"/><path fill="none" d="M34.49 26.99l4.63-3.657 3.905 4.943-4.63 3.658z"/><path d="M39.1 23.3l-.6 4.5 4.5.5-2.1 1.7-4.5-.5.6-4.5z"/><path fill="none" stroke="#000" stroke-width="2" stroke-miterlimit="10" d="M38.7 27.6l8.8-6.9-35.8-2.8"/><path fill="none" d="M34.453 39.904l4.63-3.658 3.906 4.943-4.63 3.657z"/><path d="M39.1 36.3l-.6 4.4 4.5.6-2.1 1.6-4.5-.5.6-4.4z"/><path fill="none" stroke="#000" stroke-width="2" stroke-miterlimit="10" d="M38.7 40.6l8.8-6.9-35.8-2.8"/><path fill="none" d="M34.434 60.913l4.63-3.658 3.906 4.943-4.63 3.658z"/><path d="M39.1 57.3l-.6 4.5 4.5.5-2.1 1.7-4.5-.6.6-4.4z"/><path fill="none" stroke="#000" stroke-width="2" stroke-miterlimit="10" d="M38.7 61.6l8.8-6.9-35.8-2.8"/><path fill="none" d="M34.46 73.9l4.63-3.658 3.906 4.943-4.63 3.658z"/><path d="M39.1 70.3l-.6 4.4 4.5.6-2.1 1.6-4.5-.5.6-4.5z"/><path fill="none" stroke="#000" stroke-width="2" stroke-miterlimit="10" d="M38.7 74.6l8.8-6.9-35.8-2.8"/><path fill="none" d="M75.82 52.036l-5.884-.46.49-6.28 5.883.46z"/><path d="M70 51.6l3.4-2.9-2.9-3.4 2.7.2 2.9 3.4-3.4 2.9z"/><path fill="none" stroke="#000" stroke-width="2" stroke-miterlimit="10" d="M73.2 48.7l-61.5-4.8"/><path fill="none" d="M75.82 86.014l-5.883-.46.49-6.28 5.883.46z"/><path d="M70 85.6l3.4-2.9-2.9-3.4 2.7.2 2.9 3.4-3.4 2.9z"/><path fill="none" stroke="#000" stroke-width="2" stroke-miterlimit="10" d="M73.2 82.7l-61.5-4.8"/><g enable-background="new"><path d="M89.5 45.8c-.1 1.1-.8 1.8-1.9 1.8h-1.8c-.1 0-.1 0-.1-.1l.5-4.4s0-.1.1-.1h2.1c.8 0 1.3.5 1.3 1.3v.2l-.2 1.3zm-.6-1.4v-.1c0-.4-.3-.7-.8-.7h-1.3l-.3 3.4h1.2c.7 0 1.1-.4 1.1-1.2l.1-1.4zM93.1 47.5s0 .1 0 0l-.6.1s-.1 0-.1-.1c0 0 0-.1.1-.9l-.3.5c-.2.3-.5.5-1.1.5H91c-.5 0-.8-.3-.8-.9v-.1l.1-1c.1-.9.6-1.4 1.5-1.4h.1c.3 0 .7.1.9.3v-.1s0-.1.1-.1h.5s.1 0 .1.1l-.4 3.1zm-1.1-.9l.6-.8.1-.7c-.2-.1-.5-.2-.8-.2h-.1c-.5 0-.8.3-.8.9l-.1.9v.1c0 .2.1.3.3.3.4 0 .6-.3.8-.5zM95.9 47.5s0 .1 0 0l-.6.1c-.6 0-.9-.3-.9-.8v-.1l.2-1.6-.6-.2s-.1 0-.1-.1v-.4s0-.1.1-.1h.7V44c0-.1 0-.1.1-.1l.5-.3h.1c.1 0 .1 0 .1.1l-.1.7h.8s.1 0 .1.1l-.1.5s0 .1-.1.1h-.8c-.1.6-.2 1.6-.2 1.7 0 .2.1.3.3.3h.5s.1 0 .1.1l-.1.3zM99.5 47.5s0 .1 0 0l-.6.1s-.1 0-.1-.1c0 0 0-.1.1-.9l-.3.5c-.2.3-.5.5-1.1.5h-.1c-.5 0-.8-.3-.8-.9v-.1l.1-1c.1-.9.6-1.4 1.5-1.4h.1c.3 0 .7.1.9.3v-.1s0-.1.1-.1h.5s.1 0 .1.1l-.4 3.1zm-1.2-.9l.6-.8.1-.7c-.2-.1-.5-.2-.8-.2h-.1c-.5 0-.8.3-.8.9l-.1.9v.1c0 .2.1.3.3.3.4 0 .6-.3.8-.5zM101.5 45.3l.3-.5c.2-.3.5-.5 1.1-.5h.1c.5 0 .8.3.8.9v.2l-.1.8c-.1.9-.6 1.4-1.5 1.4h-1.6s-.1 0-.1-.1c0 0 0-.1.5-4.6 0 0 0-.1.1-.1h.5s.1 0 .1.1l-.2 2.4zm-.1.8l-.1.9h.9c.5 0 .8-.3.8-.9 0-.3.1-.9.1-.9 0-.2-.1-.3-.3-.3-.3 0-.5.2-.7.5l-.7.7zM107.3 47.5s0 .1 0 0l-.6.1s-.1 0-.1-.1c0 0 0-.1.1-.9l-.3.5c-.2.3-.5.5-1.1.5h-.1c-.5 0-.8-.3-.8-.9v-.1l.1-1c.1-.9.6-1.4 1.5-1.4h.1c.3 0 .7.1.9.3v-.1s0-.1.1-.1h.5s.1 0 .1.1l-.4 3.1zm-1.1-.9l.6-.8.1-.7c-.2-.1-.5-.2-.8-.2h-.1c-.5 0-.8.3-.8.9l-.1.9v.1c0 .2.1.3.3.3.4 0 .5-.3.8-.5zM110.9 44.9l-1.5.1c-.2 0-.4.1-.4.3 0 .2.1.2.3.3.2.1.4.1.7.1.5.1.9.3.9.8v.2c-.1.6-.5.9-1.2.9h-1.5s-.1 0-.1-.1v-.4s0-.1.1-.1h1.5c.2 0 .4-.1.4-.3 0-.2-.2-.3-.5-.3-.2 0-.5-.1-.7-.1-.5-.1-.7-.4-.7-.8v-.2c0-.5.4-.9 1.1-.9h1.4s.1 0 .1.1l.1.4zM112.2 46.5c0 .4.2.5.6.5h1.4s.1 0 .1.1v.4s0 .1-.1.1h-1.5c-.7 0-1.1-.4-1.1-1.1v-.1l.1-.7c.1-.9.6-1.4 1.5-1.4h.5c.6 0 1 .3 1 .8v.2c-.1.6-.5.8-1 .9l-1.5.3zm.1-.6l.9-.3c.4-.1.6-.2.6-.4v-.1c0-.1-.1-.2-.3-.2h-.5c-.5 0-.8.3-.8.9l.1.1z"/></g><g enable-background="new"><path d="M50.9 94.2c-.1.1-.1.1 0 0l-.8.1s-.1 0-.1-.1v-.1c0-.1 0-.1-.2-.1h-.5c-.5 0-.7.2-.7.6v.3h2.1s.1 0 .1.1l-.4 3s0 .1-.1.1h-.5s-.1 0-.1-.1l.3-2.6h-1.5l-.2 2.4c-.1.9-.6 1.4-1.5 1.4h-.3s-.1 0-.1-.1v-.4c0-.1 0-.1.1-.1h.2c.5 0 .8-.4.8-.9l.2-2.3-.6-.1s-.1 0-.1-.1v-.4s0-.1.1-.1h.7v-.4c.1-.7.6-1.1 1.4-1.1h.8c.5 0 .8.2.8.6.1.2.1.4.1.4zM52.8 98c0 .1-.1.1 0 0l-.5.1c-.6 0-.9-.3-.9-.8v-.1l.4-3.7c0-.1 0-.1.1-.1h.5s.1 0 .1.1l-.4 3.6v.1c0 .2.1.3.3.3h.4s.1 0 .1.1l-.1.4zM55.1 98c0 .1 0 .1 0 0l-.6.1c-.6 0-.9-.3-.9-.8v-.1l.2-1.6-.6-.1s-.1 0-.1-.1V95s0-.1.1-.1h.7v-.3c0-.1 0-.1.1-.1l.5-.3h.1c.1 0 .1 0 .1.1l-.1.7h.8s.1 0 .1.1l-.1.5s0 .1-.1.1h-.8c-.1.6-.2 1.6-.2 1.7 0 .2.1.3.3.3h.5s.1 0 .1.1l-.1.2zM56.5 97c0 .4.2.5.6.5h1.4s.1 0 .1.1v.4s0 .1-.1.1H57c-.7 0-1.1-.4-1.1-1.1v-.1l.1-.7c.1-.9.6-1.4 1.5-1.4h.5c.6 0 1 .3 1 .8v.2c-.1.6-.5.8-1 .9l-1.5.3zm0-.6l.9-.3c.4-.1.6-.2.6-.4v-.1c0-.1-.1-.2-.3-.2h-.5c-.5 0-.8.3-.8.9l.1.1zM62.2 95.3l-.5.4h-.2c-.1-.1-.1-.2-.3-.2-.1 0-.2.1-.3.3l-.7.9L60 98s0 .1-.1.1h-.5c-.1 0-.1 0-.1-.1l.3-3.1s0-.1.1-.1h.5s.1 0 .1.1l-.1.8.4-.5c.2-.3.4-.4.7-.4h.1c.4 0 .5.1.8.5-.1-.1 0-.1 0 0z"/></g></svg>