<svg xmlns="http://www.w3.org/2000/svg" viewBox="0 0 270 90" enable-background="new 0 0 270 90"><ellipse cx="103.9" cy="44.4" rx="5.2" ry="4.9"/><ellipse cx="73.8" cy="20.9" rx="5.2" ry="4.9"/><ellipse cx="126.5" cy="20.9" rx="5.2" ry="4.9"/><ellipse cx="23.9" cy="64.2" rx="5.2" ry="4.9"/><ellipse cx="17.3" cy="33.1" rx="5.2" ry="4.9"/><ellipse cx="193.3" cy="21.8" rx="5.2" ry="4.9"/><ellipse cx="170.7" cy="53.8" rx="5.2" ry="4.9"/><ellipse cx="127.5" cy="67" rx="5.2" ry="4.9"/><ellipse cx="221.6" cy="67" rx="5.2" ry="4.9"/><ellipse cx="68.2" cy="65.1" rx="5.2" ry="4.9"/><ellipse cx="252.6" cy="63.3" rx="5.2" ry="4.9"/><ellipse cx="242.3" cy="20" rx="5.2" ry="4.9"/><path fill="none" stroke="#000" stroke-width="2" stroke-miterlimit="10" d="M17.3 33.1l6.6 31.1M23.9 64.2l44.3.9M68.2 65.1l5.6-44.2M73.8 20.9l30.1 23.5M73.8 20.9L23.9 64.2M103.9 44.4l22.6-23.5M17.2 33.3l51 31.8M126.5 20.9l1 46.1M127.5 67l65.8-45.2M170.7 53.8l-44.2-32.9M193.3 21.8l49-1.8M242.3 20l-20.7 47M242.3 20l10.3 43.3M252.6 63.3l-59.3-41.5M103.9 44.4l23.6 23.7"/><path fill="none" stroke="#cf00ab" stroke-width="2" stroke-miterlimit="10" stroke-dasharray="5.9973,5.9973" d="M154 19.2c15.3 11.9 42 32.6 17.6 51.1-19.2 14.6-47.7 19.8-68.6 5.1-14.2-10-12.7-48-4.5-61.2 10.2-16.4 42.8-.6 55.5 5z"/><path fill="none" stroke="#cf00ab" stroke-width="2" stroke-miterlimit="10" stroke-dasharray="5.8701,5.8701" d="M8 70.3C1.6 45-3.4 21.5 27.4 12.6c10.8-3.1 56.3-15.2 56.3.6 0 16.6 6.8 61.6-12.2 66.1-20.8 4.9-47.9 9.1-63.5-9z"/><path fill="none" stroke="#cf00ab" stroke-width="2" stroke-miterlimit="10" stroke-dasharray="6.0061,6.0061" d="M176.5 16.4c.7 8.7 11.4 17.7 16 24.4 7.1 10.5 8.8 25.3 16.3 35 16.8 21.7 50.9 5.3 56-16.8 6-26-1.9-50.5-29.2-54-9.2-1.2-60.6-8.4-59.1 11.4z"/><path fill="none" stroke="#000" stroke-width="2" stroke-miterlimit="10" d="M16.2 32.7l57.1-12"/></svg>