<svg xmlns="http://www.w3.org/2000/svg" viewBox="0 0 135 90" enable-background="new 0 0 135 90"><path fill="none" stroke="#cf00ab" stroke-width="2" stroke-linecap="round" stroke-linejoin="round" stroke-miterlimit="10" d="M3.1 82.6l3-3 2-.4 5.3-7.2 4.8-7h.6l.2-3.8 1.2.7.8-2.1.6 1.4 3.4-9 1.2 2.3.6-7.3.8-3.1.6 2.1.8-3.3.4 2.5.6-3.7 1.6-7.3 1.8-4.2 1.2 2.7 1.4-7.7.6 2.1.8-6.5 1 2.9.2-7.3.6 6.9.6-2.1.4 3.7 1-8.7.4-2.1.6 6.2 1-9.6.4 8.3.4-5.2.8 1.9.8-4.4.8 8.1.6 2.2 1-1.7 1 3.6.5 5.3.5-4.3 1 5.6.4 1.1.6 4.6.4-3.7 1 4.2.8-3.5.2 5 1.2-3.5.6 6.5 1 3.3.2 7.7 2.2 1.9-.1.5 1.2-7.8.8 5.4.7-9 .3-.7.9 1 .1 3.9 1.5 4.4.4-1.4.7 1.4 1.1-4.3.5 2.5 1.1-1.7.5 1.5 1.2 2.4.4-1.1.4 2.8.9-3.2.5 2.9 1.8-4 1.1 2.8 1.1-.8 1.2 2.8 1.1 1 1.7 6.1.9-.4 1.1 6.9.7-6.2.5 2.6 1.8-6.8.4 2.2 2.9 1.1.4 2.6.9-1.2.5 3.5 1.3-3.7.7 3.2.7-1.5.9 1.4.9-.3.4 1.4 3.3 5.4.9.7 1.4-.4.9 3.1 1.3-1.7.2 1.4.9.7.4 1.9h1.3l.2-2.7 1.2-1.2 1.8.8 2 1.1 1.8-.5 1.6 2.1 1.4.5 1.4 1.9s4 1.2 2.5 1.8l1.2-2 1.9.7 2.6 2.4 3.6-1.1 3.7 1.7"/><circle fill="none" stroke="#000" stroke-width="2" stroke-miterlimit="10" cx="43.3" cy="12.5" r="6.3"/><circle fill="none" stroke="#cf00ab" stroke-width="2" stroke-miterlimit="10" cx="86.3" cy="12.5" r="6.3"/><path fill="none" stroke="#000" stroke-width="2" stroke-linecap="round" stroke-linejoin="round" stroke-miterlimit="10" d="M3.1 82.4H19l5.8-1.1 2.8-.9 1.8-1.8 3.5.2 2.8-.5.4.8 1-2.8.1-1.9.8-.6 2 3.8 2.4-5.6 2.4 3.4.9-5.6.3 6.2.4-2h.4l1.3-7 .1 2.8 1.3-3.4 2-9.5 1.3 4.6 1.5-4.3.5 1.4.7-4.3 1.2 2.1 1.7-4.6.7 3.6.5-2.8.5 1.8 1.4-1.4v-3.9l.6-3.2 1.1 4.3 1-2.3.3 2.8 1-2.2.6-3 1.5-2.7 1.9-1.1v.4l.8 9.4 1.6-5.6.4 6.7.9-6.7.3 3.3v-7.1l.6-4.9 1.9-5.8.6 3.6.4-3.8 1.3 4.4.2 6.6L79 30l1.7-5.9.8 9.2.7-13.4.9 2.5 1.2-11.6.9 3.9.4-2.3.8 6.4.5-8.2.7 8.7.8-5.4.8 2.8.4 9.8.8-6.1.9 3 .5-6.1 1 6.2.9 3.8.8-1.6 1.2 16.8L97 30.6l.6 4.7.7-1.1 1.3 11.7.6-3.2.5 3.9.6-2.8.6 3.3.6-2.1.9 12.4 1.3-4.1 3.3 9.1 1.5-1.7v2.6l1.2-.7 6.4 11.6 1.5-1.1 1.2 3.9 1.1-.1 1.2 1.1h1.5l.7 1.5 1.8-1.4.8 1.1 1.4-.2 3.7 3.5"/><path fill="none" d="M72.1 9.1H78v6.3h-5.9z"/><path d="M72.1 15.5l3.1-3.2-3.1-3.2h2.7l3.1 3.2-3.1 3.2z"/><path fill="none" stroke="#000" stroke-width="2" stroke-miterlimit="10" d="M74.5 12h-24"/></svg>