<svg xmlns="http://www.w3.org/2000/svg" viewBox="0 0 270 90" enable-background="new 0 0 270 90"><path fill="none" stroke="#F1F2F2" stroke-miterlimit="10" d="M14.8 8.1h138.9M14.8 16.8h138.9M14.8 25.5h138.9M14.8 34.1h138.9M14.8 43.3h138.9M14.8 52h138.9M14.8 60.7h138.9M14.8 69.4h138.9M84.5 7.9v69.9M75.8 7.9v69.9M67.1 7.9v69.9M58.4 7.9v69.9M49.8 7.9v69.9M41.1 7.9v69.9M32.4 7.9v69.9M23.7 7.9v69.9M145.3 7.9v69.9M153.2 7.9v69.9M136.6 7.9v69.9M127.9 7.9v69.9M119.2 7.9v69.9M110.5 7.9v69.9M101.9 7.9v69.9M93.2 7.9v69.9"/><g enable-background="new" fill="#cf00ab"><path d="M200.4 58.8c0 .1-.1.1 0 0l-.6.1s-.1 0-.1-.1l.2-2.3-.6-.1s-.1 0-.1-.1V56s0-.1.1-.1h1.2s.1 0 .1.1l-.2 2.8zm.4-3.6c0 .1 0 .1 0 0l-.7.1s-.1 0-.1-.1l.1-.6s0-.1.1-.1h.6s.1 0 .1.1l-.1.6zM204 58.8c0 .1 0 .1 0 0l-.6.1s-.1 0-.1-.1l.2-1.9v-.2c0-.1-.1-.2-.2-.2-.2 0-.4.2-.6.6l-.7.9-.1.9s0 .1-.1.1h-.5s-.1 0-.1-.1l.3-2.8s0-.1.1-.1h.5s.1 0 .1.1l-.1 1 .4-.6c.3-.4.4-.6.9-.6h.2c.4 0 .7.2.7.7v.1l-.3 2.1zM206.5 58.8c0 .1 0 .1 0 0l-.5.1c-.5 0-.8-.3-.8-.7v-.1l.2-1.5-.6-.1s-.1 0-.1-.1v-.3s0-.1.1-.1h.6v-.3c0-.1 0-.1.1-.1l.4-.3h.1c.1 0 .1 0 .1.1l-.1.6h.7s.1 0 .1.1v.5s0 .1-.1.1h-.7c-.1.5-.2 1.4-.2 1.5 0 .2.1.3.3.3h.4s.1 0 .1.1l-.1.2zM207.7 57.9c0 .3.2.4.5.4h1.3s.1 0 .1.1v.4s0 .1-.1.1h-1.3c-.6 0-1-.3-1-.9v-.1l.1-.6c.1-.8.5-1.3 1.3-1.3h.4c.6 0 .9.2.9.7v.2c-.1.5-.4.7-.9.8l-1.3.2zm.1-.5l.8-.2c.3-.1.6-.2.6-.4v-.1c0-.1-.1-.2-.3-.2h-.4c-.4 0-.7.3-.7.8v.1zM212.8 58.7c-.1.8-.5 1.3-1.3 1.3h-1.3s-.1 0-.1-.1v-.4s0-.1.1-.1h1.2c.4 0 .7-.3.7-.8l.1-.6-.3.4c-.2.3-.5.5-.9.5h-.1c-.4 0-.7-.3-.7-.8V58l.1-.9c.1-.8.5-1.3 1.3-1.3h.1c.3 0 .6.1.8.2v-.1s0-.1.1-.1h.5s.1 0 .1.1l-.4 2.8zm-1-.7l.6-.7.1-.6c-.2-.1-.4-.2-.7-.2h-.1c-.5 0-.7.3-.8.8 0 .3-.1.8-.1.9 0 .2.1.3.3.3.3-.1.5-.3.7-.5zM214.3 57.9c0 .3.2.4.5.4h1.3s.1 0 .1.1v.4s0 .1-.1.1h-1.3c-.6 0-1-.3-1-.9v-.1l.1-.6c.1-.8.5-1.3 1.3-1.3h.4c.6 0 .9.2.9.7v.2c-.1.5-.4.7-.9.8l-1.3.2zm0-.5l.8-.2c.3-.1.6-.2.6-.4v-.1c0-.1-.1-.2-.3-.2h-.4c-.4 0-.7.3-.7.8v.1zM219.4 56.4l-.5.4h-.2c-.1-.1-.1-.2-.2-.2s-.2.1-.3.3l-.6.8-.1 1.3s0 .1-.1.1h-.5s-.1 0-.1-.1l.3-2.8s0-.1.1-.1h.5s.1 0 .1.1l-.1.7.3-.5c.2-.2.3-.3.6-.3h.1c.4-.2.5-.1.7.3 0-.1 0-.1 0 0zM223.6 56.9s-.1 0 0 0l-.6.1s-.1 0-.1-.1v-.1c0-.2-.2-.3-.5-.3-.4 0-.7.3-.7.8l-.1.6v.1c0 .3.2.4.5.4h1.1s.1 0 .1.1v.4s0 .1-.1.1H222c-.6 0-1-.3-1-.9V58l.1-.6c.1-.8.5-1.3 1.3-1.3h.2c.6 0 1 .3 1 .8 0-.1 0-.1 0 0zM226.8 57.7c-.1.8-.5 1.3-1.3 1.3h-.4c-.6 0-1-.3-1-.9V58l.1-.7c.1-.8.5-1.3 1.3-1.3h.4c.6 0 1 .3 1 .9v.1l-.1.7zm-.6-.7c0-.1 0-.1 0 0 0-.4-.2-.5-.5-.5h-.2c-.4 0-.7.3-.7.8l-.1.7v.1c0 .3.2.4.5.4h.2c.5 0 .7-.3.8-.8V57zM229.5 58l-.3.4c-.2.4-.4.5-.9.5h-.2c-.4 0-.7-.2-.7-.7v-.1l.2-2.1s0-.1.1-.1h.5s.1 0 .1.1l-.2 2.1c0 .1.1.2.2.2h.1c.3 0 .5-.2.7-.6l.5-.8.1-1.1s0-.1.1-.1h.5s.1 0 .1.1l-.3 2.8s0 .1-.1.1h-.5s-.1 0-.1-.1l.1-.6zM233.7 58.8c0 .1-.1.1 0 0l-.6.1s-.1 0-.1-.1l.2-1.9v-.2c0-.1-.1-.2-.2-.2-.2 0-.4.2-.6.6l-.7.9-.1.9s0 .1-.1.1h-.5s-.1 0-.1-.1l.3-2.8s0-.1.1-.1h.5s.1 0 .1.1l-.1 1 .4-.6c.3-.4.4-.6.9-.6h.2c.4 0 .7.2.7.7v.1l-.3 2.1zM236.1 58.8c0 .1 0 .1 0 0l-.5.1c-.5 0-.8-.3-.8-.7v-.1l.2-1.5-.6-.1s-.1 0-.1-.1v-.3s0-.1.1-.1h.6v-.3c0-.1 0-.1.1-.1l.4-.3h.1c.1 0 .1 0 .1.1l-.1.6h.7s.1 0 .1.1v.5s0 .1-.1.1h-.7c-.1.5-.2 1.4-.2 1.5 0 .2.1.3.3.3h.4s.1 0 .1.1l-.1.2zM237.3 57.9c0 .3.2.4.5.4h1.3s.1 0 .1.1v.4s0 .1-.1.1h-1.3c-.6 0-1-.3-1-.9v-.1l.1-.6c.1-.8.5-1.3 1.3-1.3h.4c.6 0 .9.2.9.7v.2c-.1.5-.4.7-.9.8l-1.3.2zm.1-.5l.8-.2c.3-.1.6-.2.6-.4v-.1c0-.1-.1-.2-.3-.2h-.4c-.4 0-.7.3-.7.8v.1zM242.5 56.4s-.1 0 0 0l-.5.4h-.2c-.1-.1-.1-.2-.2-.2s-.2.1-.3.3l-.6.8-.1 1.3s0 .1-.1.1h-.5s-.1 0-.1-.1l.3-2.8s0-.1.1-.1h.5s.1 0 .1.1l-.1.7.3-.5c.2-.2.3-.3.6-.3h.1c.3-.2.5-.1.7.3-.1-.1 0-.1 0 0z"/></g><path fill="none" stroke="#000" stroke-width="3" stroke-linecap="round" stroke-miterlimit="10" d="M177.5 57.1h16.9"/><g enable-background="new"><path d="M204.7 30.3c0 .1 0 .1 0 0l-.6.1v-3.6c-.1.4-.2.5-.3.8l-.6 1.4s0 .1-.1.1h-.7l-.1-.1-.4-1.3c-.1-.3-.2-.6-.2-.9l-.8 3.5s0 .1-.1.1h-.6s-.1 0-.1-.1v-.1l1-3.9s0-.1.1-.1h.8s.1 0 .1.1l.6 2.2 1-2.2s0-.1.1-.1h.8s.1 0 .1.1v4zM208.2 29.1c-.1.8-.5 1.3-1.3 1.3h-.4c-.6 0-1-.3-1-.9v-.1l.1-.7c.1-.8.5-1.3 1.3-1.3h.4c.6 0 1 .3 1 .9v.1l-.1.7zm-.6-.6c0-.1 0-.1 0 0 0-.4-.2-.5-.5-.5h-.2c-.4 0-.7.3-.7.8l-.1.7v.1c0 .3.2.4.5.4h.2c.5 0 .7-.3.8-.8v-.7zM211.4 27.8c0 .1 0 .1 0 0l-.5.4h-.2c-.1-.1-.1-.2-.2-.2s-.2.1-.3.3l-.6.8-.1 1.3s0 .1-.1.1h-.5s-.1 0-.1-.1l.3-2.8s0-.1.1-.1h.5s.1 0 .1.1l-.1.7.3-.5c.2-.2.3-.3.6-.3h.1c.3-.1.5 0 .7.3-.1 0 0 0 0 0zM214 27.8c0 .1 0 .1 0 0l-.5.4h-.2c-.1-.1-.1-.2-.2-.2s-.2.1-.3.3l-.6.8-.1 1.3s0 .1-.1.1h-.5s-.1 0-.1-.1l.3-2.8s0-.1.1-.1h.5s.1 0 .1.1l-.1.7.3-.5c.2-.2.3-.3.6-.3h.1c.3-.1.5 0 .7.3-.1 0 0 0 0 0zM215.2 30.3s-.1.1 0 0l-.6.1s-.1 0-.1-.1l.2-2.3-.6-.1s-.1 0-.1-.1v-.3s0-.1.1-.1h1.2s.1 0 .1.1l-.2 2.8zm.4-3.6s0 .1 0 0l-.7.1s-.1 0-.1-.1l.1-.6s0-.1.1-.1h.6s.1 0 .1.1l-.1.6zM218.4 27.9c0 .1 0 .1 0 0l-1.3.1c-.2 0-.4.1-.4.3 0 .2.1.2.3.3.2 0 .4.1.6.1.5.1.8.3.8.7v.2c-.1.5-.5.8-1.1.8H216s-.1 0-.1-.1v-.4s0-.1.1-.1h1.4c.2 0 .4-.1.4-.3 0-.2-.2-.3-.4-.3s-.4-.1-.6-.1c-.4-.1-.7-.4-.7-.7v-.1c0-.5.4-.8 1-.8h1.3s.1 0 .1.1l-.1.3zM223 28.3c0 .1 0 .1 0 0l-.6.1s-.1 0-.1-.1v-.1c0-.2-.2-.3-.5-.3-.5 0-.7.3-.7.8l-.1.6v.1c0 .3.2.4.5.4h1.1s.1 0 .1.1v.4s0 .1-.1.1h-1.2c-.6 0-1-.3-1-.9v-.1l.1-.6c.1-.8.5-1.3 1.3-1.3h.2c.6 0 1 .3 1 .8 0-.1 0 0 0 0zM226.2 29.1c-.1.8-.5 1.3-1.3 1.3h-.4c-.6 0-1-.3-1-.9v-.1l.1-.7c.1-.8.5-1.3 1.3-1.3h.4c.6 0 1 .3 1 .9v.1l-.1.7zm-.6-.6c.1-.1.1-.1 0 0 0-.4-.2-.5-.5-.5h-.2c-.5 0-.7.3-.8.8l-.1.7v.1c0 .3.2.4.5.4h.2c.4 0 .7-.3.7-.8l.2-.7zM228.9 29.5l-.3.4c-.2.4-.4.5-.9.5h-.2c-.4 0-.7-.2-.7-.7v-.1l.2-2.1s0-.1.1-.1h.5s.1 0 .1.1l-.2 2.1c0 .1.1.2.2.2h.1c.3 0 .5-.2.7-.6l.5-.8.1-1.1s0-.1.1-.1h.5s.1 0 .1.1l-.3 2.8s0 .1-.1.1h-.5s-.1 0-.1-.1l.1-.6zM233.1 30.3s-.1.1 0 0l-.6.1s-.1 0-.1-.1l.2-1.9v-.2c0-.1-.1-.2-.2-.2-.2 0-.4.2-.6.6l-.7.9-.1.9s0 .1-.1.1h-.5s-.1 0-.1-.1l.3-2.8s0-.1.1-.1h.5s.1 0 .1.1l-.1 1 .4-.6c.3-.4.4-.6.9-.6h.2c.4 0 .7.2.7.7v.1l-.3 2.1zM235.6 30.3c-.1 0-.1.1 0 0l-.5.1c-.5 0-.8-.3-.8-.7v-.1l.2-1.5-.6-.1s-.1 0-.1-.1v-.3s0-.1.1-.1h.6v-.3c0-.1 0-.1.1-.1l.4-.3h.1c.1 0 .1 0 .1.1l-.1.6h.7s.1 0 .1.1v.5s0 .1-.1.1h-.8c-.1.5-.2 1.4-.2 1.5 0 .2.1.3.3.3h.4s.1 0 .1.1v.2zM236.8 29.4c0 .3.2.4.5.4h1.3s.1 0 .1.1v.4s0 .1-.1.1h-1.3c-.6 0-1-.3-1-.9v-.1l.1-.6c.1-.8.5-1.3 1.3-1.3h.4c.6 0 .9.2.9.7v.2c-.1.5-.4.7-.9.8l-1.3.2zm0-.5l.8-.2c.3-.1.6-.2.6-.4v-.1c0-.1-.1-.2-.3-.2h-.4c-.5 0-.7.3-.7.8v.1zM241.9 27.8c0 .1 0 .1 0 0l-.5.4h-.2c-.1-.1-.1-.2-.2-.2s-.2.1-.3.3l-.6.8-.1 1.3s0 .1-.1.1h-.5s-.1 0-.1-.1l.3-2.8s0-.1.1-.1h.5s.1 0 .1.1l-.1.7.3-.5c.2-.2.3-.3.6-.3h.1c.3-.1.5 0 .7.3-.1 0 0 0 0 0zM246.7 28.8c-.1 1-.7 1.6-1.7 1.6h-.3c-.7 0-1.2-.4-1.2-1.1v-.2l.1-1.4c.1-1 .7-1.6 1.7-1.6h.3c.7 0 1.2.4 1.2 1.1v.2l-.1 1.4zm-.5-1.3v-.1c0-.4-.2-.6-.7-.6h-.2c-.6 0-.9.4-1 1l-.1 1.4v.1c0 .4.2.6.7.6h.2c.6 0 .9-.4 1-1l.1-1.4z"/></g><path fill="none" stroke="#cf00ab" stroke-miterlimit="10" stroke-dasharray="6,4" d="M177.5 28.6h16.9"/><g enable-background="new"><path d="M204.7 37.9c0 .1 0 .1 0 0l-.6.1v-3.6c-.1.4-.2.5-.3.8l-.6 1.4s0 .1-.1.1h-.7l-.1-.1-.4-1.3c-.1-.3-.2-.6-.2-.9l-.8 3.5s0 .1-.1.1h-.6s-.1 0-.1-.1v-.1l1-3.9s0-.1.1-.1h.8s.1 0 .1.1l.6 2.2 1-2.2s0-.1.1-.1h.8s.1 0 .1.1v4zM208.2 36.7c-.1.8-.5 1.3-1.3 1.3h-.4c-.6 0-1-.3-1-.9V37l.1-.7c.1-.8.5-1.3 1.3-1.3h.4c.6 0 1 .3 1 .9v.1l-.1.7zm-.6-.6c0-.1 0-.1 0 0 0-.4-.2-.5-.5-.5h-.2c-.4 0-.7.3-.7.8l-.1.7v.1c0 .3.2.4.5.4h.2c.5 0 .7-.3.8-.8v-.7zM211.4 35.4c0 .1 0 .1 0 0l-.5.4h-.2c-.1-.1-.1-.2-.2-.2s-.2.1-.3.3l-.6.8-.1 1.3s0 .1-.1.1h-.5s-.1 0-.1-.1l.3-2.8s0-.1.1-.1h.5s.1 0 .1.1l-.1.7.3-.5c.2-.2.3-.3.6-.3h.1c.3-.1.5 0 .7.3-.1 0 0 0 0 0zM214 35.4c0 .1 0 .1 0 0l-.5.4h-.2c-.1-.1-.1-.2-.2-.2s-.2.1-.3.3l-.6.8-.1 1.3s0 .1-.1.1h-.5s-.1 0-.1-.1l.3-2.8s0-.1.1-.1h.5s.1 0 .1.1l-.1.7.3-.5c.2-.2.3-.3.6-.3h.1c.3-.1.5 0 .7.3-.1 0 0 0 0 0zM215.2 37.9s-.1.1 0 0l-.6.1s-.1 0-.1-.1l.2-2.3-.6-.1s-.1 0-.1-.1v-.3s0-.1.1-.1h1.2s.1 0 .1.1l-.2 2.8zm.4-3.6s0 .1 0 0l-.7.1s-.1 0-.1-.1l.1-.6s0-.1.1-.1h.6s.1 0 .1.1l-.1.6zM218.4 35.5c0 .1 0 .1 0 0l-1.3.1c-.2 0-.4.1-.4.3 0 .2.1.2.3.3.2 0 .4.1.6.1.5.1.8.3.8.7v.2c-.1.5-.5.8-1.1.8H216s-.1 0-.1-.1v-.4s0-.1.1-.1h1.4c.2 0 .4-.1.4-.3 0-.2-.2-.3-.4-.3s-.4-.1-.6-.1c-.4-.1-.7-.4-.7-.7v-.1c0-.5.4-.8 1-.8h1.3s.1 0 .1.1l-.1.3zM223 35.9c0 .1 0 .1 0 0l-.6.1s-.1 0-.1-.1v-.1c0-.2-.2-.3-.5-.3-.5 0-.7.3-.7.8l-.1.7v.1c0 .3.2.4.5.4h1.1s.1 0 .1.1v.4s0 .1-.1.1h-1.2c-.6 0-1-.3-1-.9v-.1l.1-.6c.1-.8.5-1.3 1.3-1.3h.2c.6 0 1 .3 1 .8v-.1zM226.2 36.7c-.1.8-.5 1.3-1.3 1.3h-.4c-.6 0-1-.3-1-.9V37l.1-.7c.1-.8.5-1.3 1.3-1.3h.4c.6 0 1 .3 1 .9v.1l-.1.7zm-.6-.6c.1-.1.1-.1 0 0 0-.4-.2-.5-.5-.5h-.2c-.5 0-.7.3-.8.8l-.1.7v.1c0 .3.2.4.5.4h.2c.4 0 .7-.3.7-.8l.2-.7zM228.9 37.1l-.3.4c-.2.4-.4.5-.9.5h-.2c-.4 0-.7-.2-.7-.7v-.1l.2-2.1s0-.1.1-.1h.5s.1 0 .1.1l-.2 2.1c0 .1.1.2.2.2h.1c.3 0 .5-.2.7-.6l.5-.8.1-1.1s0-.1.1-.1h.5s.1 0 .1.1l-.3 2.8s0 .1-.1.1h-.5s-.1 0-.1-.1l.1-.6zM233.1 37.9s-.1.1 0 0l-.6.1s-.1 0-.1-.1l.2-1.9v-.2c0-.1-.1-.2-.2-.2-.2 0-.4.2-.6.6l-.7.9-.1.9s0 .1-.1.1h-.5s-.1 0-.1-.1l.3-2.8s0-.1.1-.1h.5s.1 0 .1.1l-.1 1 .4-.6c.3-.4.4-.6.9-.6h.2c.4 0 .7.2.7.7v.1l-.3 2.1zM235.6 37.9c-.1 0-.1.1 0 0l-.6.1c-.5 0-.8-.3-.8-.7v-.1l.2-1.5-.6-.1s-.1 0-.1-.1v-.3s0-.1.1-.1h.6v-.3c0-.1 0-.1.1-.1l.4-.3h.1c.1 0 .1 0 .1.1l-.1.6h.7s.1 0 .1.1v.5s0 .1-.1.1h-.7c-.1.5-.2 1.4-.2 1.5 0 .2.1.3.3.3h.4s.1 0 .1.1v.2zM236.8 37c0 .3.2.4.5.4h1.3s.1 0 .1.1v.4s0 .1-.1.1h-1.3c-.6 0-1-.3-1-.9V37l.1-.6c.1-.8.5-1.3 1.3-1.3h.4c.6 0 .9.2.9.7v.2c-.1.5-.4.7-.9.8l-1.3.2zm0-.5l.8-.2c.3-.1.6-.2.6-.4v-.1c0-.1-.1-.2-.3-.2h-.4c-.5 0-.7.3-.7.8v.1zM241.9 35.4c0 .1 0 .1 0 0l-.5.4h-.2c-.1-.1-.1-.2-.2-.2s-.2.1-.3.3l-.6.8-.1 1.3s0 .1-.1.1h-.5s-.1 0-.1-.1l.3-2.8s0-.1.1-.1h.5s.1 0 .1.1l-.1.7.3-.5c.2-.2.3-.3.6-.3h.1c.3-.1.5 0 .7.3-.1 0 0 0 0 0zM245.1 37.9s0 .1 0 0l-1.8.1s-.1 0-.1-.1v-.4s0-.1.1-.1h.5l.3-3h-.6s-.1 0-.1-.1v-.4s0-.1.1-.1h1.1s.1 0 .1.1l-.4 3.5h.5s.1 0 .1.1l.2.4z"/></g><path fill="none" stroke="#cf00ab" stroke-width="2" stroke-miterlimit="10" stroke-dasharray="6,4" d="M177.5 36.2h16.9"/><g enable-background="new"><path d="M204.7 45.5c0 .1 0 .1 0 0l-.6.1V42c-.1.4-.2.5-.3.8l-.6 1.4s0 .1-.1.1h-.7l-.1-.1-.4-1.3c-.1-.3-.2-.6-.2-.9l-.8 3.5s0 .1-.1.1h-.6s-.1 0-.1-.1v-.1l1-3.9s0-.1.1-.1h.8s.1 0 .1.1l.6 2.2 1-2.2s0-.1.1-.1h.8s.1 0 .1.1v4zM208.2 44.4c-.1.8-.5 1.3-1.3 1.3h-.4c-.6 0-1-.3-1-.9v-.1l.1-.7c.1-.8.5-1.3 1.3-1.3h.4c.6 0 1 .3 1 .9v.1l-.1.7zm-.6-.7c0-.1 0-.1 0 0 0-.4-.2-.5-.5-.5h-.2c-.4 0-.7.3-.7.8l-.1.7v.1c0 .3.2.4.5.4h.2c.5 0 .7-.3.8-.8v-.7zM211.4 43.1l-.5.4h-.2c-.1-.1-.1-.2-.2-.2s-.2.1-.3.3l-.6.8-.1 1.3s0 .1-.1.1h-.5s-.1 0-.1-.1l.3-2.8s0-.1.1-.1h.5s.1 0 .1.1l-.1.7.3-.6c.2-.2.3-.3.6-.3h.1c.3-.1.5 0 .7.4-.1-.1 0-.1 0 0zM214 43.1l-.5.4h-.2c-.1-.1-.1-.2-.2-.2s-.2.1-.3.3l-.6.8-.1 1.3s0 .1-.1.1h-.5s-.1 0-.1-.1l.3-2.8s0-.1.1-.1h.5s.1 0 .1.1l-.1.7.3-.5c.2-.2.3-.3.6-.3h.1c.3-.2.5-.1.7.3-.1-.1 0-.1 0 0zM215.2 45.5c0 .1-.1.1 0 0l-.6.1s-.1 0-.1-.1l.2-2.3-.6-.1s-.1 0-.1-.1v-.3s0-.1.1-.1h1.2s.1 0 .1.1l-.2 2.8zm.4-3.6s0 .1 0 0l-.7.1s-.1 0-.1-.1l.1-.6s0-.1.1-.1h.6s.1 0 .1.1l-.1.6zM218.4 43.1c0 .1 0 .1 0 0l-1.3.1c-.2 0-.4.1-.4.3 0 .2.1.2.3.3.2 0 .4.1.6.1.5.1.8.3.8.7v.2c-.1.5-.5.8-1.1.8H216s-.1 0-.1-.1v-.4s0-.1.1-.1h1.4c.2 0 .4-.1.4-.3 0-.2-.2-.3-.4-.3s-.4-.1-.6-.1c-.4-.1-.7-.4-.7-.7v-.1c0-.5.4-.8 1-.8h1.3s.1 0 .1.1l-.1.3zM223 43.6l-.6.1s-.1 0-.1-.1v-.1c0-.2-.2-.3-.5-.3-.5 0-.7.3-.7.8l-.1.6v.1c0 .3.2.4.5.4h1.1s.1 0 .1.1v.4s0 .1-.1.1h-1.2c-.6 0-1-.3-1-.9v-.1l.1-.6c.1-.8.5-1.3 1.3-1.3h.2c.6 0 1 .3 1 .8 0-.1 0-.1 0 0zM226.2 44.4c-.1.8-.5 1.3-1.3 1.3h-.4c-.6 0-1-.3-1-.9v-.1l.1-.7c.1-.8.5-1.3 1.3-1.3h.4c.6 0 1 .3 1 .9v.1l-.1.7zm-.6-.7c.1-.1.1-.1 0 0 0-.4-.2-.5-.5-.5h-.2c-.5 0-.7.3-.8.8l-.1.7v.1c0 .3.2.4.5.4h.2c.4 0 .7-.3.7-.8l.2-.7zM228.9 44.7l-.3.4c-.2.4-.4.5-.9.5h-.2c-.4 0-.7-.2-.7-.7v-.1l.2-2.1s0-.1.1-.1h.5s.1 0 .1.1l-.2 2.1c0 .1.1.2.2.2h.1c.3 0 .5-.2.7-.6l.5-.8.1-1.1s0-.1.1-.1h.5s.1 0 .1.1l-.3 2.8s0 .1-.1.1h-.5s-.1 0-.1-.1l.1-.6zM233.1 45.5c0 .1-.1.1 0 0l-.6.1s-.1 0-.1-.1l.2-1.9v-.2c0-.1-.1-.2-.2-.2-.2 0-.4.2-.6.6l-.7.9-.1.9s0 .1-.1.1h-.5s-.1 0-.1-.1l.3-2.8s0-.1.1-.1h.5s.1 0 .1.1l-.1 1 .4-.6c.3-.4.4-.6.9-.6h.2c.4 0 .7.2.7.7v.1l-.3 2.1zM235.6 45.5c-.1.1-.1.1 0 0l-.5.1c-.5 0-.8-.3-.8-.7v-.1l.2-1.5-.6-.1s-.1 0-.1-.1v-.3s0-.1.1-.1h.6v-.3c0-.1 0-.1.1-.1l.4-.3h.1c.1 0 .1 0 .1.1l-.1.6h.7s.1 0 .1.1v.5s0 .1-.1.1h-.8c-.1.5-.2 1.4-.2 1.5 0 .2.1.3.3.3h.4s.1 0 .1.1v.2zM236.8 44.6c0 .3.2.4.5.4h1.3s.1 0 .1.1v.4s0 .1-.1.1h-1.3c-.6 0-1-.3-1-.9v-.1l.1-.6c.1-.8.5-1.3 1.3-1.3h.4c.6 0 .9.2.9.7v.2c-.1.5-.4.7-.9.8l-1.3.2zm0-.5l.8-.2c.3-.1.6-.2.6-.4v-.1c0-.1-.1-.2-.3-.2h-.4c-.5 0-.7.3-.7.8v.1zM241.9 43.1l-.5.4h-.2c-.1-.1-.1-.2-.2-.2s-.2.1-.3.3l-.6.8-.1 1.3s0 .1-.1.1h-.5s-.1 0-.1-.1l.3-2.8s0-.1.1-.1h.5s.1 0 .1.1l-.1.7.3-.5c.2-.2.3-.3.6-.3h.1c.3-.2.5-.1.7.3-.1-.1 0-.1 0 0zM245.3 41.5c.7 0 1.2.3 1.2 1v.3c-.1.9-.7 1-1.9 1.3-.3.1-.5.3-.6.7v.3h2.1s.1 0 .1.1v.4s0 .1-.1.1h-2.6c-.1 0-.1-.1-.1-.1s0-.4.1-.7c.1-.9.5-1.1 1.4-1.4.5-.1 1-.3 1-.7v-.2c0-.3-.2-.4-.6-.4H244s-.1 0-.1-.1v-.4s0-.1.1-.1h1.3z"/></g><path fill="none" stroke="#cf00ab" stroke-width="3" stroke-miterlimit="10" stroke-dasharray="6,4" d="M177.5 43.8h16.9"/><g fill="none" stroke="#cf00ab" stroke-miterlimit="10"><path d="M153.2 9.1h-1.4"/><path stroke-dasharray="6,4" d="M149.8 9.1h-37.1"/><path d="M111.7 9.1h-1.2v1.7"/><path stroke-dasharray="6,4" d="M110.5 12.7v28.4"/><path d="M110.5 42.1v1.2h-1.7"/><path stroke-dasharray="6,4" d="M106.9 43.3H64.5"/><path d="M63.5 43.3h-1.2V45"/><path stroke-dasharray="5,4" d="M62.3 46.4v12.1"/><path d="M62.3 59.5v1.2h-1.7"/><path stroke-dasharray="5,4" d="M59.2 60.7H42.3"/><path d="M41.3 60.7h-1.2v1.7"/><path stroke-dasharray="5,3" d="M40.1 63.8v3.4"/><path d="M40.1 68.2v1.2h-1.7"/><path stroke-dasharray="5,3" d="M37 69.4h-3.4"/><path d="M32.6 69.4h-1.2V71M31.4 72.5v1.2h-1.7"/><path stroke-dasharray="4,3" d="M28.8 73.7h-2.4"/><path d="M25.4 73.7h-1.2v1.7M24.2 75.4v1.2h-1.7M20.1 76.6h-1.2V78h-1.7M16.2 78h-1.4"/></g><g fill="none" stroke="#cf00ab" stroke-width="2" stroke-miterlimit="10"><path d="M153.2 8.8h-1.4"/><path stroke-dasharray="6,4" d="M149.8 8.8h-29.4"/><path d="M119.5 8.8H118v1.5"/><path stroke-dasharray="6,4" d="M118 12.2v28.5"/><path d="M118 41.6v1.5h-1.4"/><path stroke-dasharray="6,4" d="M114.6 43.1H85.2"/><path d="M84.2 43.1h-1.4v1.4"/><path stroke-dasharray="5,4" d="M82.8 46.4V58"/><path d="M82.8 59v1.4h-1.4"/><path stroke-dasharray="6,4" d="M79.4 60.4H50.5"/><path d="M49.5 60.4h-1.4v1.5"/><path stroke-dasharray="6,4" d="M48.1 63.8v4.4"/><path d="M48.1 69.1v1.5h-1.5"/><path stroke-dasharray="5,3" d="M45.2 70.6h-3.4"/><path d="M40.8 70.6h-1.4V72M39.4 72v1.5h-1.5"/><path stroke-dasharray="7.1792,4.7861" d="M35.6 73.6H31"/><path d="M29.8 73.6h-1.4v1.5M28.4 75.3l.1 1.4H27M24 76.6h-1.5v1.2h-1.4"/><path stroke-dasharray="4,3" d="M19.6 77.8h-2.9"/><path d="M16.2 77.8h-1.4"/></g><g fill="none" stroke="#cf00ab" stroke-width="3" stroke-miterlimit="10"><path d="M153.2 43.3h-1.4"/><path stroke-dasharray="7,4" d="M149.8 43.3h-20.2"/><path d="M128.1 43.3h-1.2V45"/><path stroke-dasharray="5,4" d="M126.9 46.4v12.1"/><path d="M126.9 59.5v1.2h-1.7"/><path stroke-dasharray="6,4" d="M123.8 60.7H77"/><path d="M76 60.7h-1.2v1.7"/><path stroke-dasharray="6,4" d="M74.8 63.8v3.9"/><path d="M74.8 68.6v1.2h-1.6"/><path stroke-dasharray="5,4" d="M71.7 69.8H55.3"/><path d="M54.3 69.8h-1.2v1.7M53.1 72.5v1.2h-1.6"/><path stroke-dasharray="7,5" d="M49.5 73.7H39.4"/><path d="M37.9 73.7h-1.2v1.7M36.7 75.4v1.2h-1.6"/><path stroke-dasharray="5,3" d="M33.6 76.6h-6.7"/><path d="M25.9 76.6h-1.2v1H23"/><path stroke-dasharray="6,4" d="M21.1 77.6h-3.9"/><path d="M16.2 77.6h-1.4"/></g><path fill="none" stroke="#efefef" stroke-width="3" stroke-linecap="round" stroke-miterlimit="10" d="M10 77.8h143.7M14.8 82.1V7.9"/><path fill="none" stroke="#000" stroke-width="3" stroke-linecap="round" stroke-miterlimit="10" d="M14.7 77.9l138.9-60.8"/></svg>