<svg xmlns="http://www.w3.org/2000/svg" viewBox="0 0 135 60" enable-background="new 0 0 135 60"><path d="M130 15.3c-.1.9-.9 1.5-1.8 1.5h-.8c-1 0-1.6-.5-1.6-1.3v-.6c.1-.7.6-1 1-1.1-.3-.1-.6-.6-.6-1.1v-.4c.1-.8.8-1.2 1.8-1.2h.4c.9 0 1.6.4 1.6 1.2v.5c-.1.6-.4 1-.9 1.1.5.1.8.5.8 1.1.2-.1.2.3.1.3zm-.8-.4c0-.4-.3-.6-.8-.6h-.6c-.5 0-1 .3-1 .8v.4c0 .5.3.7.8.7h.6c.5 0 .9-.2 1-.8v-.5zm.1-2.6c0-.3-.3-.5-.7-.5h-.5c-.4 0-.8.2-.9.6v.3c0 .4.3.7.8.7h.4c.5 0 .8-.3.9-.8v-.3zM126.8 46.4l-.1.1h-2.4c-.1 0-.1 0-.1-.1l.1-.6.1-.1h.8l.4-4.1h-.8c-.1 0-.1 0-.1-.1l.1-.6s0-.1.1-.1h1.6c.1 0 .1.1.1.1l-.5 4.8h.8s.1 0 .1.1l-.2.6zm2.7-.7c.6 0 1-.3 1.1-.8l.1-.7v-.1c0-.3-.2-.5-.5-.5h-.6c-.3 0-.5.1-.7.3l-.2.2h-.1l-.8-.5c-.1 0-.1-.1-.1-.2l.3-2.6c0-.1 0-.1.1-.1h3.4s.1 0 .1.1l-.1.6s0 .1-.1.1h-2.6c-.1 0-.1 0-.1.1l-.2 1.8.3-.2c.2-.1.4-.3.7-.3h.8c.8 0 1.2.5 1.2 1.2v.2l-.1.7c-.1 1-.7 1.6-1.8 1.6h-2.2c-.1 0-.1 0-.1-.1l.1-.6s0-.1.1-.1h2z" enable-background="new"/><path fill="none" stroke="#000" stroke-width="2" stroke-miterlimit="10" d="M3.5 6h116v16H3.5z"/><circle fill="#e0e" stroke="#e0e" stroke-width="1.999" stroke-miterlimit="10" cx="39.8" cy="14.3" r="1.3"/><circle fill="#e0e" stroke="#e0e" stroke-width="1.999" stroke-miterlimit="10" cx="10.8" cy="14.3" r="1.3"/><circle fill="#e0e" stroke="#e0e" stroke-width="1.999" stroke-miterlimit="10" cx="25.3" cy="14.3" r="1.3"/><circle fill="#e0e" stroke="#e0e" stroke-width="1.999" stroke-miterlimit="10" cx="54.3" cy="14.3" r="1.3"/><circle fill="#e0e" stroke="#e0e" stroke-width="1.999" stroke-miterlimit="10" cx="68.8" cy="14.3" r="1.3"/><circle stroke="#000" stroke-width="2" stroke-miterlimit="10" cx="97.7" cy="14.3" r="1.3"/><circle stroke="#000" stroke-width="2" stroke-miterlimit="10" cx="83.2" cy="14.3" r="1.3"/><circle stroke="#000" stroke-width="2" stroke-miterlimit="10" cx="112.2" cy="14.3" r="1.3"/><g stroke="#e0e" stroke-width="2" stroke-linecap="round" stroke-miterlimit="10"><path d="M68.5 21v6m0-25v6" fill="#e0e"/><path d="M68.5 21v6m0-25v6" fill="none"/></g><path fill="none" stroke="#000" stroke-width="2" stroke-miterlimit="10" d="M3.5 35h116v17H3.5z"/><g stroke-miterlimit="10"><circle fill="#e0e" stroke="#e0e" stroke-width="1.999" cx="33.3" cy="43.5" r="1.3"/><circle fill="#e0e" stroke="#e0e" stroke-width="1.999" cx="11.4" cy="43.5" r="1.3"/><circle stroke="#000" stroke-width="2" cx="47.4" cy="43.5" r="1.3"/><circle stroke="#000" stroke-width="2" cx="54.6" cy="43.5" r="1.3"/><circle stroke="#000" stroke-width="2" cx="69" cy="43.5" r="1.3"/><circle stroke="#000" stroke-width="2" cx="90.6" cy="43.5" r="1.3"/><circle stroke="#000" stroke-width="2" cx="83.4" cy="43.5" r="1.3"/><circle stroke="#000" stroke-width="2" cx="112.1" cy="43.5" r="1.3"/><circle fill="#e0e" stroke="#e0e" stroke-width="1.999" cx="18.5" cy="43.5" r="1.3"/><circle fill="#e0e" stroke="#e0e" stroke-width="1.999" cx="25.8" cy="43.5" r="1.3"/><circle fill="#e0e" stroke="#e0e" stroke-width="1.999" cx="40.3" cy="43.5" r="1.3"/><circle stroke="#000" stroke-width="2" cx="61.8" cy="43.5" r="1.3"/><circle stroke="#000" stroke-width="2" cx="76.2" cy="43.5" r="1.3"/><circle stroke="#000" stroke-width="2" cx="104.9" cy="43.5" r="1.3"/><circle stroke="#000" stroke-width="2" cx="97.7" cy="43.5" r="1.3"/></g><path fill="#e0e" stroke="#e0e" stroke-width="2" stroke-linecap="round" stroke-miterlimit="10" d="M40.5 51v6"/><path fill="none" stroke="#e0e" stroke-width="2" stroke-linecap="round" stroke-miterlimit="10" d="M40.5 51v6"/><path fill="#e0e" stroke="#e0e" stroke-width="2" stroke-linecap="round" stroke-miterlimit="10" d="M40.5 31v6"/><path fill="none" stroke="#e0e" stroke-width="2" stroke-linecap="round" stroke-miterlimit="10" d="M40.5 31v6"/></svg>