<svg xmlns="http://www.w3.org/2000/svg" viewBox="0 0 270 150" enable-background="new 0 0 270 150"><path d="M24.3 49.5c-.1 1.4-1 2.4-2.6 2.4h-2.4c-.1 0-.1 0-.1-.1l.6-6c0-.1.1-.1.1-.1h2.8c1.1 0 1.8.6 1.8 1.7v.3l-.2 1.8zm-.8-1.9v-.2c0-.6-.4-.9-1-.9h-1.8l-.5 4.5h1.6c.9 0 1.4-.6 1.5-1.6l.2-1.8zM29.2 51.7c0 .1-.1.1-.1.1h-.7c-.1 0-.1 0-.1-.1 0 0 0-.2.1-1.2l-.4.6c-.3.5-.7.7-1.4.7h-.2c-.6 0-1.1-.4-1.1-1.1v-.2l.1-1.3c.1-1.2.8-1.9 2-1.9h.1c.4 0 .9.2 1.2.4v-.2c0-.1.1-.1.1-.1h.7s.1 0 .1.1l-.4 4.2zm-1.6-1.2l.9-1.1.1-.9c-.3-.2-.6-.3-1.1-.3h-.1c-.7 0-1.1.5-1.1 1.2l-.1 1.2v.1c0 .3.2.4.4.4h.1c.3 0 .6-.3.9-.6zM32.9 51.7c0 .1-.1.1-.1.1h-.7c-.8 0-1.2-.4-1.2-1.1v-.2l.2-2.2-.9-.2c-.1 0-.1-.1-.1-.1l.1-.5c0-.1.1-.1.1-.1h.9l.1-.4c0-.1 0-.1.1-.2l.6-.4h.1c.1 0 .1 0 .1.1l-.1.9h1.1c.1 0 .1 0 .1.1l-.1.7c0 .1-.1.1-.1.1H32c-.1.8-.2 2.1-.2 2.3 0 .2.1.4.4.4h.6s.1 0 .1.1v.6zM37.7 51.7c0 .1-.1.1-.1.1h-.7c-.1 0-.1 0-.1-.1 0 0 0-.2.1-1.2l-.4.6c-.3.5-.7.7-1.4.7h-.2c-.6 0-1.1-.4-1.1-1.1v-.2l.1-1.3c.1-1.2.8-1.9 2-1.9h.1c.4 0 .9.2 1.2.4v-.2c0-.1.1-.1.1-.1h.7s.1 0 .1.1l-.4 4.2zm-1.6-1.2l.9-1.1.1-.9c-.3-.2-.6-.3-1.1-.3h-.1c-.7 0-1.1.5-1.1 1.2l-.1 1.2v.1c0 .3.2.4.4.4h.1c.4 0 .6-.3.9-.6z"/><g enable-background="new"><path d="M219 18.9l-.4.6c-.3.5-.5.7-1.2.7h-.3c-.6 0-.9-.3-.9-.9v-.2l.3-2.8.1-.1h.6s.1 0 .1.1c0 0-.3 2.8-.3 2.9 0 .2.1.3.3.3h.1c.4 0 .6-.3 1-.8l.7-1 .2-1.4s0-.1.1-.1h.7s.1 0 .1.1l-.4 3.8s0 .1-.1.1h-.7c-.1 0-.1 0-.1-.1l.1-1.2zM224.7 20l-.1.1h-.6c-.1 0-.1 0-.1-.1l.3-2.6v-.3c0-.2-.1-.3-.3-.3h-.1c-.3 0-.5.3-.9.8l-.9 1.2-.1 1.3s0 .1-.1.1h-.7s-.1 0-.1-.1l.4-3.8s0-.1.1-.1h.7s.1 0 .1.1l-.1 1.4.5-.8c.3-.5.6-.8 1.2-.8h.2c.6 0 .9.3.9.9v.2l-.3 2.8zM227.2 20l-.1.1h-.7c-.1 0-.1 0-.1-.1l.3-3.1-.8-.2c-.1 0-.1 0-.1-.1v-.4s0-.1.1-.1h1.6s.1 0 .1.1l-.3 3.8zm.6-4.9c0 .1 0 .1 0 0l-.9.1c-.1 0-.1 0-.1-.1l.1-.8.1-.1h.8s.1 0 .1.1l-.1.8zM231.8 21.5s-.1.1 0 0l-.8.1c-.1 0-.1 0-.1-.1l.3-2.5-.4.6c-.3.4-.6.7-1.3.7h-.1c-.6 0-1-.4-1-1v-.1l.1-1.2c.1-1.1.7-1.8 1.8-1.8h.1c.4 0 .8.1 1.1.3v-.2s0-.1.1-.1h.7s.1 0 .1.1l-.6 5.2zm-1.3-2.6l.8-1 .1-.8c-.3-.2-.6-.3-1-.3h-.1c-.6 0-1 .4-1 1.1 0 .2-.1 1.1-.1 1.2 0 .2.1.4.4.4h.1c.3 0 .6-.3.8-.6zM236 18.9l-.4.6c-.3.5-.5.7-1.2.7h-.3c-.6 0-.9-.3-.9-.9v-.2l.3-2.8.1-.1h.6s.1 0 .1.1c0 0-.3 2.8-.3 2.9 0 .2.1.3.3.3h.1c.4 0 .6-.3 1-.8l.7-1 .2-1.4s0-.1.1-.1h.7s.1 0 .1.1l-.4 3.8s0 .1-.1.1h-.7c-.1 0-.1 0-.1-.1l.1-1.2zM238.7 18.8c0 .5.2.6.7.6h1.7s.1 0 .1.1v.5s0 .1-.1.1h-1.8c-.8 0-1.4-.5-1.4-1.3v-.2l.1-.8c.1-1.1.7-1.8 1.8-1.8h.6c.8 0 1.2.3 1.2.9v.3c-.1.7-.6.9-1.3 1.1l-1.6.5zm.1-.7l1.2-.3c.4-.1.8-.2.8-.5v-.1c0-.2-.1-.3-.4-.3h-.6c-.6 0-.9.3-1 1v.2z"/></g><g enable-background="new"><path d="M219.8 27.1c0 .1-.1.1 0 0l-.8.1s-.1 0-.1-.1v-.2c0-.3-.3-.4-.7-.4h-.1c-.6 0-.9.3-1 1l-.1.9v.1c0 .4.2.5.7.5h1.6s.1 0 .1.1v.5s0 .1-.1.1h-1.6c-.8 0-1.4-.4-1.4-1.3v-.2l.1-.8c.1-1 .7-1.8 1.8-1.8h.2c.8 0 1.4.4 1.4 1.1v.4zM224.2 28.2c-.1 1-.7 1.8-1.8 1.8h-.5c-.8 0-1.4-.5-1.4-1.3v-.2l.1-.9c.1-1 .7-1.8 1.8-1.8h.5c.8 0 1.4.5 1.4 1.3v.2l-.1.9zm-.8-.9v-.1c0-.4-.2-.6-.7-.6h-.3c-.6 0-1 .4-1 1l-.1.9v.1c0 .4.2.6.7.6h.3c.6 0 1-.4 1-1l.1-.9zM226.1 27.4l.5-.8c.4-.5.6-.8 1.1-.8h.2c.5 0 .8.3.8.9V27.3l.5-.7c.4-.5.6-.8 1.1-.8h.2c.5 0 .8.3.8.9v.2l-.3 2.8-.1.1h-.6c-.1 0-.1 0-.1-.1.1-1 .3-2.9.3-3 0-.2-.1-.2-.2-.2h-.1c-.2 0-.4.3-.8.7l-.9 1.2-.1 1.3-.1.1h-.6c-.1 0-.1 0-.1-.1l.3-3c0-.2-.1-.2-.2-.2h-.1c-.2 0-.4.3-.8.7l-.9 1.2-.1 1.3s0 .1-.1.1h-.7s-.1 0-.1-.1l.4-3.8s0-.1.1-.1h.7s.1 0 .1.1l-.1 1.5zM233.5 27.4l.5-.8c.4-.5.6-.8 1.1-.8h.2c.5 0 .8.3.8.9V27.3l.5-.7c.4-.5.6-.8 1.1-.8h.2c.5 0 .8.3.8.9v.2l-.3 2.8-.1.1h-.6c-.1 0-.1 0-.1-.1.1-1 .3-2.9.3-3 0-.2-.1-.2-.2-.2h-.1c-.2 0-.4.3-.8.7l-.9 1.2-.1 1.3-.1.1h-.6c-.1 0-.1 0-.1-.1l.3-3c0-.2-.1-.2-.2-.2h-.1c-.2 0-.4.3-.8.7l-.9 1.2-.1 1.3s0 .1-.1.1h-.7s-.1 0-.1-.1l.4-3.8s0-.1.1-.1h.7s.1 0 .1.1l-.1 1.5zM240.5 28.6c0 .5.2.6.7.6h1.7s.1 0 .1.1v.5s0 .1-.1.1H241c-.8 0-1.4-.5-1.4-1.3v-.2l.1-.8c.1-1.1.7-1.8 1.8-1.8h.6c.8 0 1.2.3 1.2.9v.3c-.1.7-.6.9-1.3 1.1l-1.5.5zm0-.7l1.2-.3c.4-.1.8-.2.8-.5V27c0-.2-.1-.3-.4-.3h-.6c-.6 0-.9.3-1 1v.2zM247.6 29.8l-.1.1h-.6c-.1 0-.1 0-.1-.1l.3-2.6v-.3c0-.2-.1-.3-.3-.3h-.1c-.3 0-.5.3-.9.8l-.9 1.2-.1 1.3s0 .1-.1.1h-.7s-.1 0-.1-.1l.4-3.8s0-.1.1-.1h.7s.1 0 .1.1l-.1 1.4.5-.8c.3-.5.6-.8 1.2-.8h.2c.6 0 .9.3.9.9v.2l-.3 2.8zM251 29.8c0 .1 0 .1 0 0l-.7.1c-.7 0-1.1-.4-1.1-1v-.2l.2-2-.8-.1c-.1 0-.1 0-.1-.1V26l.1-.1h.8v-.4c0-.1 0-.1.1-.2l.6-.4h.1c.1 0 .1 0 .1.1l-.1.8h1s.1 0 .1.1l-.1.6-.1.1h-1c-.1.7-.2 1.9-.2 2.1 0 .2.1.4.4.4h.6s.1 0 .1.1v.6zM252.6 28.6c0 .5.2.6.7.6h1.7s.1 0 .1.1v.5s0 .1-.1.1h-1.8c-.8 0-1.4-.5-1.4-1.3v-.2l.1-.8c.1-1.1.7-1.8 1.8-1.8h.6c.8 0 1.2.3 1.2.9v.3c-.1.7-.6.9-1.3 1.1l-1.6.5zm.1-.7l1.2-.3c.4-.1.8-.2.8-.5V27c0-.2-.1-.3-.4-.3h-.6c-.6 0-.9.3-1 1v.2zM259.6 26.5l-.6.5h-.2c-.1-.2-.2-.3-.3-.3h-.1c-.1 0-.2.1-.4.4l-.8 1.1-.2 1.7s0 .1-.1.1h-.7c-.1 0-.1 0-.1-.1l.4-3.8s0-.1.1-.1h.7s.1 0 .1.1l-.1 1 .5-.7c.2-.3.5-.5.9-.5h.1c.4 0 .6.1.8.5v.1zM263.1 26.6s-.1.1 0 0l-1.8.1c-.3 0-.5.1-.5.4 0 .2.2.3.4.4.3.1.5.1.9.2.6.1 1.1.4 1.1 1v.3c-.1.7-.6 1-1.5 1h-1.8s-.1 0-.1-.1c0 0 0-.2.1-.5 0 0 0-.1.1-.1h1.9c.3 0 .5-.2.5-.4 0-.3-.2-.4-.6-.4-.2 0-.6-.1-.8-.2-.6-.1-.9-.5-.9-1v-.2c0-.7.5-1 1.4-1h1.7s.1 0 .1.1l-.2.4z"/></g><g enable-background="new"><path d="M219 43.7l-.4.6c-.3.5-.5.7-1.2.7h-.3c-.6 0-.9-.3-.9-.9v-.2l.3-2.8.1-.1h.6s.1 0 .1.1c0 0-.3 2.8-.3 2.9 0 .2.1.3.3.3h.1c.4 0 .6-.3 1-.8l.7-1 .2-1.4s0-.1.1-.1h.7s.1 0 .1.1l-.4 3.8s0 .1-.1.1h-.7c-.1 0-.1 0-.1-.1l.1-1.2zM224.7 44.9l-.1.1h-.6c-.1 0-.1 0-.1-.1l.3-2.6V42c0-.2-.1-.3-.3-.3h-.1c-.3 0-.5.3-.9.8l-.9 1.2-.1 1.3s0 .1-.1.1h-.7s-.1 0-.1-.1l.4-3.8s0-.1.1-.1h.7s.1 0 .1.1l-.1 1.4.5-.8c.3-.5.6-.8 1.2-.8h.2c.6 0 .9.3.9.9v.2l-.3 2.8zM227.2 44.9l-.1.1h-.7c-.1 0-.1 0-.1-.1l.3-3.1-.8-.2c-.1 0-.1 0-.1-.1v-.4s0-.1.1-.1h1.6s.1 0 .1.1l-.3 3.8zm.6-4.9s0 .1 0 0l-.9.1c-.1 0-.1 0-.1-.1l.1-.8.1-.1h.8s.1 0 .1.1l-.1.8zM231.8 46.4s-.1 0 0 0l-.8.1c-.1 0-.1 0-.1-.1l.3-2.5-.4.6c-.3.4-.6.7-1.3.7h-.1c-.6 0-1-.4-1-1v-.1l.1-1.2c.1-1.1.7-1.8 1.8-1.8h.1c.4 0 .8.1 1.1.3v-.2s0-.1.1-.1h.7s.1 0 .1.1l-.6 5.2zm-1.3-2.6l.8-1 .1-.8c-.3-.2-.6-.3-1-.3h-.1c-.6 0-1 .4-1 1.1 0 .2-.1 1.1-.1 1.2 0 .2.1.4.4.4h.1c.3-.1.6-.3.8-.6zM236 43.7l-.4.6c-.3.5-.5.7-1.2.7h-.3c-.6 0-.9-.3-.9-.9v-.2l.3-2.8.1-.1h.6s.1 0 .1.1c0 0-.3 2.8-.3 2.9 0 .2.1.3.3.3h.1c.4 0 .6-.3 1-.8l.7-1 .2-1.4s0-.1.1-.1h.7s.1 0 .1.1l-.4 3.8s0 .1-.1.1h-.7c-.1 0-.1 0-.1-.1l.1-1.2zM238.7 43.7c0 .5.2.6.7.6h1.7s.1 0 .1.1v.5s0 .1-.1.1h-1.8c-.8 0-1.4-.5-1.4-1.3v-.2l.1-.8c.1-1.1.7-1.8 1.8-1.8h.6c.8 0 1.2.3 1.2.9v.3c-.1.7-.6.9-1.3 1.1l-1.6.5zm.1-.7l1.2-.3c.4-.1.8-.2.8-.5v-.1c0-.2-.1-.3-.4-.3h-.6c-.6 0-.9.3-1 1v.2z"/></g><g enable-background="new"><path d="M216.5 50.9l.1-.1h.6s.1 0 .1.1l-.3 2.8v.1c0 .2.1.3.3.3h.1c.3 0 .5-.2.7-.5l.8-1.2.2-1.5.1-.1h.6s.1 0 .1.1l-.3 2.6v.3c0 .2.1.3.4.3h.1c.4 0 .7-.3.9-.6.3-.5.4-1.2.5-2l.1-.6s0-.1.1-.1h.7s.1 0 .1.1c0 0 0 .2-.1.7-.1 1-.2 1.8-.6 2.4-.4.5-.8.8-1.7.8h-.2c-.6 0-1-.4-1-1V53.5l-.2.4c-.2.4-.5.8-1.1.8h-.3c-.6 0-.9-.3-.9-.9v-.2l.1-2.7zM226.6 53.1c-.1 1-.7 1.8-1.8 1.8h-.5c-.8 0-1.4-.5-1.4-1.3v-.2l.1-.9c.1-1 .7-1.8 1.8-1.8h.5c.8 0 1.4.5 1.4 1.3v.2l-.1.9zm-.8-.9v-.1c0-.4-.2-.6-.7-.6h-.3c-.6 0-1 .4-1 1l-.1.9v.1c0 .4.2.6.7.6h.3c.6 0 1-.4 1-1l.1-.9zM230.9 51.3c0 .1 0 .1 0 0l-.6.5h-.2c-.1-.2-.2-.3-.3-.3h-.1c-.1 0-.2.1-.4.4l-.8 1.1-.2 1.7s0 .1-.1.1h-.7c-.1 0-.1 0-.1-.1l.4-3.8s0-.1.1-.1h.7s.1 0 .1.1l-.1 1 .5-.7c.2-.3.5-.5.9-.5h.1c.4 0 .6.1.8.5v.1zM234.5 54.7s0 .1 0 0l-.8.1c-.1 0-.1 0-.1-.1l.1-1.1-.4.6c-.3.4-.6.7-1.3.7-.6 0-1-.4-1-1v-.1l.1-1.2c.1-1.1.7-1.8 1.8-1.8h.1c.4 0 .8.1 1.1.3l.2-2s0-.1.1-.1h.7s.1 0 .1.1l-.7 5.6zm-1.4-1.1l.8-1 .1-.8c-.3-.2-.6-.3-1-.3h-.1c-.6 0-1 .4-1 1.1 0 .4-.1 1-.1 1.2 0 .2.1.4.4.4h.1c.3-.1.5-.3.8-.6zM238.9 51.5l-1.8.1c-.3 0-.5.1-.5.4 0 .2.2.3.4.4.3.1.5.1.9.2.6.1 1.1.4 1.1 1v.3c-.1.7-.6 1-1.5 1h-1.8s-.1 0-.1-.1c0 0 0-.2.1-.5 0 0 0-.1.1-.1h1.9c.3 0 .5-.2.5-.4 0-.3-.2-.4-.6-.4-.2 0-.6-.1-.8-.2-.6-.1-.9-.5-.9-1V52c0-.7.5-1 1.4-1h1.7s.1 0 .1.1l-.2.4z"/></g><g enable-background="new"><path d="M220 69.8l-.1.1h-.6c-.1 0-.1 0-.1-.1l.3-2.6v-.3c0-.2-.1-.3-.3-.3h-.1c-.3 0-.5.3-.9.8l-.9 1.2-.1 1.3s0 .1-.1.1h-.7s-.1 0-.1-.1l.4-3.8s0-.1.1-.1h.7s.1 0 .1.1l-.1 1.4.5-.8c.3-.5.6-.8 1.2-.8h.2c.6 0 .9.3.9.9v.2l-.3 2.8zM222 68.5c0 .5.2.6.7.6h1.7s.1 0 .1.1v.5s0 .1-.1.1h-1.8c-.8 0-1.4-.5-1.4-1.3v-.2l.1-.8c.1-1.1.7-1.8 1.8-1.8h.6c.8 0 1.2.3 1.2.9v.3c-.1.7-.6.9-1.3 1.1l-1.6.5zm0-.7l1.2-.3c.4-.1.8-.2.8-.5v-.1c0-.2-.1-.3-.4-.3h-.6c-.6 0-.9.3-1 1v.2zM225.8 66l.1-.1h.6s.1 0 .1.1l-.3 2.8v.1c0 .2.1.3.3.3h.1c.3 0 .5-.2.7-.5l.8-1.2.2-1.5.1-.1h.6s.1 0 .1.1l-.3 2.6v.3c0 .2.1.3.4.3h.1c.4 0 .7-.3.9-.6.3-.5.4-1.2.5-2l.1-.6s0-.1.1-.1h.7s.1 0 .1.1c0 0 0 .2-.1.7-.1 1-.2 1.8-.6 2.4-.4.5-.8.8-1.7.8h-.4c-.6 0-1-.4-1-1V68.6l-.2.4c-.2.4-.5.8-1.1.8h-.3c-.6 0-.9-.3-.9-.9v-.2l.3-2.7z"/></g><g enable-background="new"><path d="M217.1 75.2c.1-.8.7-1.3 1.7-1.3h.4s.1 0 .1.1l-.1.5c0 .1 0 .1-.1.1h-.3c-.6 0-.8.2-.9.8v.3h.9s.1 0 .1.1c0 0 0 .1-.1.6l-.1.1h-.9l-.3 2.8c-.1 1-.7 1.8-1.8 1.8h-.4s-.1 0-.1-.1l.1-.5c0-.1 0-.1.1-.1h.3c.6 0 1-.4 1-1l.3-2.8-.8-.2s-.1 0-.1-.1v-.5s0-.1.1-.1h.8l.1-.5zM222.7 78c-.1 1-.7 1.8-1.8 1.8h-.5c-.8 0-1.4-.5-1.4-1.3v-.2l.1-.9c.1-1 .7-1.8 1.8-1.8h.5c.8 0 1.4.5 1.4 1.3v.2l-.1.9zm-.7-.9V77c0-.4-.2-.6-.7-.6h-.3c-.6 0-1 .4-1 1l-.1.9v.1c0 .4.2.6.7.6h.3c.6 0 1-.4 1-1l.1-.9zM225.4 79.6s-.1.1 0 0l-.6.1c-.7 0-1.1-.4-1.1-1v-.2l.5-4.5c0-.1.1-.1.1-.1h.7s.1 0 .1.1l-.5 4.4v.1c0 .3.2.4.4.4h.5s.1 0 .1.1l-.2.6zM227.6 79.6s0 .1 0 0l-.6.1c-.7 0-1.1-.4-1.1-1v-.2l.5-4.5c0-.1.1-.1.1-.1h.7s.1 0 .1.1l-.5 4.4v.1c0 .3.2.4.4.4h.5s.1 0 .1.1l-.2.6zM231.9 78c-.1 1-.7 1.8-1.8 1.8h-.5c-.8 0-1.4-.5-1.4-1.3v-.2l.1-.9c.1-1 .7-1.8 1.8-1.8h.5c.8 0 1.4.5 1.4 1.3v.2l-.1.9zm-.7-.9V77c0-.4-.2-.6-.7-.6h-.3c-.6 0-1 .4-1 1l-.1.9v.1c0 .4.2.6.7.6h.3c.6 0 1-.4 1-1l.1-.9zM233.1 75.8l.1-.1h.6s.1 0 .1.1l-.3 2.8v.1c0 .2.1.3.3.3h.1c.3 0 .5-.2.7-.5l.8-1.2.2-1.5.1-.1h.6s.1 0 .1.1l-.3 2.6v.3c0 .2.1.3.4.3h.1c.4 0 .7-.3.9-.6.3-.5.4-1.2.5-2l.1-.6s0-.1.1-.1h.7s.1 0 .1.1c0 0 0 .2-.1.7-.1 1-.2 1.8-.6 2.4-.4.5-.8.8-1.7.8h-.2c-.6 0-1-.4-1-1V78.4l-.2.4c-.2.4-.5.8-1.1.8h-.3c-.6 0-.9-.3-.9-.9v-.2l.1-2.7zM240.3 78.3c0 .5.2.6.7.6h1.7s.1 0 .1.1v.5s0 .1-.1.1h-1.8c-.8 0-1.4-.5-1.4-1.3v-.2l.1-.8c.1-1.1.7-1.8 1.8-1.8h.6c.8 0 1.2.3 1.2.9v.3c-.1.7-.6.9-1.3 1.1l-1.6.5zm.1-.7l1.2-.3c.4-.1.8-.2.8-.5v-.1c0-.2-.1-.3-.4-.3h-.6c-.6 0-.9.3-1 1v.2zM247.3 76.2s0 .1 0 0l-.6.5h-.2c-.1-.2-.2-.3-.3-.3h-.1c-.1 0-.2.1-.4.4l-.8 1.1-.2 1.7s0 .1-.1.1h-.7c-.1 0-.1 0-.1-.1l.4-3.8s0-.1.1-.1h.7s.1 0 .1.1l-.1 1 .5-.7c.2-.3.5-.5.9-.5h.1c.4 0 .6.1.8.5v.1zM250.8 76.3c0 .1-.1.1 0 0l-1.8.1c-.3 0-.5.1-.5.4 0 .2.2.3.4.4.3.1.5.1.9.2.6.1 1.1.4 1.1 1v.3c-.1.7-.6 1-1.5 1h-1.8s-.1 0-.1-.1c0 0 0-.2.1-.5 0 0 0-.1.1-.1h1.9c.3 0 .5-.2.5-.4 0-.3-.2-.4-.6-.4-.2 0-.6-.1-.8-.2-.6-.1-.9-.5-.9-1v-.2c0-.7.5-1 1.4-1h1.7s.1 0 .1.1l-.2.4z"/></g><g enable-background="new"><path d="M219.8 92.8c0 .1-.1.1 0 0l-.8.1s-.1 0-.1-.1v-.2c0-.3-.3-.4-.7-.4h-.1c-.6 0-.9.3-1 1l-.1.9v.1c0 .4.2.5.7.5h1.6s.1 0 .1.1v.5s0 .1-.1.1h-1.6c-.8 0-1.4-.4-1.4-1.3v-.2l.1-.8c.1-1 .7-1.8 1.8-1.8h.2c.8 0 1.4.4 1.4 1.1v.4zM224 95.5s0 .1 0 0l-.8.1s-.1 0-.1-.1c0 0 0-.1.1-1.1l-.4.6c-.3.4-.6.7-1.3.7h-.1c-.6 0-1-.4-1-1v-.1l.1-1.2c.1-1.1.7-1.8 1.8-1.8h.1c.4 0 .8.1 1.1.3v-.2s0-.1.1-.1h.7s.1 0 .1.1l-.4 3.8zm-1.4-1.1l.8-1 .1-.8c-.3-.2-.6-.3-1-.3h-.1c-.6 0-1 .4-1 1.1l-.1 1.1v.1c0 .2.1.4.4.4h.1c.3 0 .5-.3.8-.6zM227.4 95.5s0 .1 0 0l-.7.1c-.7 0-1.1-.4-1.1-1v-.2l.2-2-.8-.1c-.1 0-.1 0-.1-.1v-.5l.1-.1h.8v-.4c0-.1 0-.1.1-.2l.6-.4h.1c.1 0 .1 0 .1.1l-.1.8h1s.1 0 .1.1l-.1.6-.1.1h-1c-.1.7-.2 1.9-.2 2.1 0 .2.1.4.4.4h.6s.1 0 .1.1v.6z"/></g><g enable-background="new"><path d="M217.1 102.3c0 .5.2.6.7.6h1.7s.1 0 .1.1v.5s0 .1-.1.1h-1.8c-.8 0-1.4-.5-1.4-1.3v-.2l.1-.8c.1-1.1.7-1.8 1.8-1.8h.6c.8 0 1.2.3 1.2.9v.3c-.1.7-.6.9-1.3 1.1l-1.6.5zm.1-.7l1.2-.3c.4-.1.8-.2.8-.5v-.1c0-.2-.1-.3-.4-.3h-.6c-.6 0-.9.3-1 1v.2zM221.6 101.7l-1.1-1.8v-.1c0-.1 0-.1.1-.1h.7c.1 0 .2.1.2.2l.4.7.3.6c.2-.2.2-.4.4-.6l.6-.7c.1-.1.1-.2.2-.2h.7c.1 0 .1 0 .1.1 0 0 0 .1-.1.1l-1.6 1.8 1.1 1.7v.1c0 .1 0 .1-.1.1h-.5c-.1 0-.1 0-.2-.1l-.4-.7-.3-.6c-.1.2-.3.4-.4.5l-.6.7c-.1.1-.1.1-.2.1h-.7c-.1 0-.1 0-.1-.1 0 0 0-.1.1-.1l1.4-1.6zM226.9 103.6s-.1.1 0 0l-.7.1c-.7 0-1.1-.4-1.1-1v-.2l.2-2-.8-.1c-.1 0-.1 0-.1-.1v-.5l.1-.1h.8v-.4c0-.1 0-.1.1-.2l.6-.4h.1c.1 0 .1 0 .1.1l-.1.8h1s.1 0 .1.1l-.1.6-.1.1h-1c-.1.7-.2 1.9-.2 2.1 0 .2.1.4.4.4h.6s.1 0 .1.1v.6zM231.3 100.2s0 .1 0 0l-.6.5h-.2c-.1-.2-.2-.3-.3-.3h-.1c-.1 0-.2.1-.4.4l-.8 1.1-.2 1.7s0 .1-.1.1h-.6c-.1 0-.1 0-.1-.1l.4-3.8s0-.1.1-.1h.7s.1 0 .1.1l-.1 1 .5-.7c.2-.3.5-.5.9-.5h.1c.4 0 .6.1.8.5-.1 0-.1.1-.1.1zM234.9 103.6s-.1.1 0 0l-.8.1s-.1 0-.1-.1c0 0 0-.1.1-1.1l-.4.6c-.3.4-.6.7-1.3.7h-.1c-.6 0-1-.4-1-1v-.1l.1-1.2c.1-1.1.7-1.8 1.8-1.8h.1c.4 0 .8.1 1.1.3v-.2s0-.1.1-.1h.7s.1 0 .1.1l-.4 3.8zm-1.4-1.2l.8-1 .1-.8c-.3-.2-.6-.3-1-.3h-.1c-.6 0-1 .4-1 1.1l-.1 1.1v.1c0 .2.1.4.4.4h.1c.3 0 .5-.2.8-.6zM239.6 100.9c0 .1 0 .1 0 0l-.8.1s-.1 0-.1-.1v-.2c0-.3-.3-.4-.7-.4-.6 0-.9.3-1 1l-.1.9v.1c0 .4.2.5.7.5h1.6s.1 0 .1.1v.5s0 .1-.1.1h-1.6c-.8 0-1.4-.4-1.4-1.3v-.2l.1-.8c.1-1 .7-1.8 1.8-1.8h.2c.8 0 1.4.4 1.4 1.1-.1.3-.1.3-.1.4zM242.5 103.6s0 .1 0 0l-.7.1c-.7 0-1.1-.4-1.1-1v-.2l.2-2-.8-.1c-.1 0-.1 0-.1-.1v-.5l.1-.1h.8v-.4c0-.1 0-.1.1-.2l.6-.4h.1c.1 0 .1 0 .1.1l-.1.8h1s.1 0 .1.1l-.1.6-.1.1h-1c-.1.7-.2 1.9-.2 2.1 0 .2.1.4.4.4h.6s.1 0 .1.1v.6zM247 102c-.1 1-.7 1.8-1.8 1.8h-.5c-.8 0-1.4-.5-1.4-1.3v-.2l.1-.9c.1-1 .7-1.8 1.8-1.8h.5c.8 0 1.4.5 1.4 1.3v.2l-.1.9zm-.8-.9v-.1c0-.4-.2-.6-.7-.6h-.3c-.6 0-1 .4-1 1l-.1.9v.1c0 .4.2.6.7.6h.3c.6 0 1-.4 1-1l.1-.9zM251.3 100.2s0 .1 0 0l-.6.5h-.2c-.1-.2-.2-.3-.3-.3h-.1c-.1 0-.2.1-.4.4l-.8 1.1-.2 1.7s0 .1-.1.1h-.6c-.1 0-.1 0-.1-.1l.4-3.8s0-.1.1-.1h.7s.1 0 .1.1l-.1 1 .5-.7c.2-.3.5-.5.9-.5h.1c.4 0 .6.1.8.5-.1 0-.1.1-.1.1z"/></g><path fill="none" stroke="#000" stroke-width="2" stroke-linejoin="bevel" d="M85.1 60.1l-33.7-11L85 39.6"/><path d="M82.3 55.6l2.2 4.3-4.3 2.2 2.8.9 4.3-2.2-2.2-4.3zM82.1 43.9l2.3-4.2-4.1-2.3 2.7-.8 4.2 2.4-2.3 4.1z"/><circle fill="none" stroke="#000" stroke-width="2" stroke-linejoin="bevel" stroke-miterlimit="10" cx="28.5" cy="49.1" r="23"/><path fill="#fff" stroke="#000" stroke-width="1.926" stroke-miterlimit="10" d="M87.8 27.7h83.8v18.8H87.8z"/><path d="M99.1 35.7c-.1.8-.6 1.4-1.5 1.6l.5 1.2c.1.3.3.5.6.5h.5c.1 0 .1 0 .1.1l-.1.6c0 .1 0 .1-.1.1h-.6c-.8 0-1-.5-1.4-1.3l-.5-1.2h-1.5l-.1 2.4c0 .1-.1.1-.1.1h-.8c-.1 0-.1 0-.1-.1l.6-6c0-.1.1-.1.1-.1h3c.9 0 1.5.4 1.5 1.2v.2l-.1.7zm-.9-.6c0-.4-.2-.6-.7-.6h-2l-.2 2h1.5c.7 0 1.2-.2 1.3-.8 0-.2.1-.5.1-.6zM100.8 38.4c0 .5.2.7.8.7h1.9s.1 0 .1.1l-.1.6c0 .1-.1.1-.1.1h-2c-.9 0-1.5-.5-1.5-1.4v-.2l.1-.9c.1-1.2.8-1.9 2-1.9h.6c.9 0 1.4.4 1.4 1v.3c-.1.8-.7 1-1.4 1.2l-1.8.4zm.1-.8l1.3-.4c.5-.1.8-.3.9-.6v-.1c0-.2-.2-.3-.4-.3h-.6c-.7 0-1 .4-1.1 1.2l-.1.2zM108.5 39.7c0 .1-.1.1-.1.1h-.7c-.1 0-.1 0-.1-.1l.1-1.2-.4.6c-.3.5-.7.7-1.4.7h-.2c-.6 0-1.1-.4-1.1-1.1v-.2l.1-1.3c.1-1.2.8-1.9 2-1.9h.1c.5 0 .9.2 1.2.4l.2-2.2c0-.1.1-.1.1-.1h.7s.1 0 .1.1l-.6 6.2zm-1.6-1.2l.9-1.1.1-.9c-.3-.2-.6-.3-1.1-.3h-.1c-.7 0-1.1.5-1.1 1.2 0 .5-.1 1.1-.1 1.4 0 .2.2.4.4.4h.1c.4-.1.6-.4.9-.7zM113.8 39.7c0 .1-.1.1-.1.1h-.7c-.1 0-.1 0-.1-.1l.1-1.2-.5.6c-.3.5-.7.7-1.4.7h-.2c-.6 0-1.1-.4-1.1-1.1v-.2l.1-1.3c.1-1.2.8-1.9 2-1.9h.1c.5 0 .9.2 1.2.4l.2-2.2c0-.1.1-.1.1-.1h.7s.1 0 .1.1l-.5 6.2zm-1.6-1.2l.9-1.1.1-.9c-.3-.2-.6-.3-1.1-.3h-.1c-.7 0-1.1.5-1.1 1.2 0 .5-.1 1.1-.1 1.4 0 .2.2.4.4.4h.1c.3-.1.6-.4.9-.7zM116.6 39.7c0 .1-.1.1-.1.1h-.7c-.1 0-.1 0-.1-.1l.4-3.4-.9-.2c-.1 0-.1-.1-.1-.1v-.4c0-.1.1-.1.1-.1h1.8c.1 0 .1 0 .1.1l-.5 4.1zm.6-5.4c0 .1-.1.1-.1.1h-.9c-.1 0-.1-.1-.1-.1l.1-.9c0-.1.1-.1.1-.1h.9l.1.1-.1.9zM120.4 39.7c0 .1-.1.1-.1.1h-.7c-.8 0-1.2-.4-1.2-1.1v-.2l.2-2.2-.9-.2c-.1 0-.1-.1-.1-.1l.1-.5c0-.1.1-.1.1-.1h.9l.1-.4c0-.1 0-.1.1-.2l.6-.4h.1c.1 0 .1 0 .1.1l-.1.9h1.1c.1 0 .1 0 .1.1l-.1.7c0 .1-.1.1-.1.1h-1.1c-.1.8-.2 2.1-.2 2.3 0 .2.1.4.4.4h.6s.1 0 .1.1v.6z"/><path fill="#fff" stroke="#000" stroke-width="1.926" stroke-miterlimit="10" d="M87.8 51.7h83.8v18.8H87.8z"/><path d="M98.8 58.5c0 .1-.1.1-.1.1h-1.9l-.5 5.2c0 .1-.1.1-.1.1h-.8c-.1 0-.1 0-.1-.1l.5-5.2h-1.9c-.1 0-.1 0-.1-.1l.1-.7c0-.1.1-.1.1-.1h4.8c.1 0 .1.1.1.1l-.1.7zM99.3 59.6c0-.1.1-.1.1-.1h.7c.1 0 .1 0 .1.1l-.3 3.1v.2c0 .2.1.4.3.4h.1c.3 0 .5-.2.8-.6l.9-1.4.2-1.6c0-.1.1-.1.1-.1h.7c.1 0 .1 0 .1.1l-.3 2.9v.3c0 .2.2.4.4.4h.1c.5 0 .8-.3 1-.7.3-.5.4-1.3.5-2.2l.1-.7c0-.1.1-.1.1-.1h.7s.1 0 .1.1c0 0 0 .2-.1.8-.1 1.1-.3 1.9-.7 2.6-.4.6-.9.9-1.8.9h-.3c-.7 0-1.1-.4-1.1-1.1V62.6l-.3.5c-.3.5-.5.9-1.2.9h-.3c-.6 0-1-.3-1-1v-.2l.3-3.2zM108 63.7c0 .1-.1.1-.1.1h-.7c-.1 0-.1 0-.1-.1l.4-3.4-.9-.2c-.1 0-.1-.1-.1-.1v-.4c0-.1.1-.1.1-.1h1.8c.1 0 .1 0 .1.1l-.5 4.1zm.6-5.4c0 .1-.1.1-.1.1h-.9c-.1 0-.1-.1-.1-.1l.1-.9c0-.1.1-.1.1-.1h.9l.1.1-.1.9zM111.8 63.7c0 .1-.1.1-.1.1h-.7c-.8 0-1.2-.4-1.2-1.1v-.2l.2-2.2-.9-.2c-.1 0-.1-.1-.1-.1l.1-.5c0-.1.1-.1.1-.1h.9l.1-.4c0-.1 0-.1.1-.2l.6-.4h.1c.1 0 .1 0 .1.1l-.1.9h1.1c.1 0 .1 0 .1.1l-.1.7c0 .1-.1.1-.1.1h-1c-.1.8-.2 2.1-.2 2.3 0 .2.1.4.4.4h.6s.1 0 .1.1l-.1.6zM115.3 63.7c0 .1-.1.1-.1.1h-.7c-.8 0-1.2-.4-1.2-1.1v-.2l.2-2.2-.9-.2c-.1 0-.1-.1-.1-.1l.1-.5c0-.1.1-.1.1-.1h.9l.1-.4c0-.1 0-.1.1-.2l.6-.4h.1c.1 0 .1 0 .1.1l-.1.9h1.1c.1 0 .1 0 .1.1l-.1.7c0 .1-.1.1-.1.1h-1.1c-.1.8-.2 2.1-.2 2.3 0 .2.1.4.4.4h.6s.1 0 .1.1v.6zM117.1 62.4c0 .5.2.7.8.7h1.9s.1 0 .1.1l-.1.6c0 .1-.1.1-.1.1h-2c-.9 0-1.5-.5-1.5-1.4v-.2l.1-.9c.1-1.2.8-1.9 2-1.9h.6c.9 0 1.4.4 1.4 1v.3c-.1.8-.7 1-1.4 1.2l-1.8.4zm.1-.8l1.3-.4c.5-.1.8-.3.9-.6v-.1c0-.2-.2-.3-.4-.3h-.6c-.7 0-1 .4-1.1 1.2l-.1.2zM124.7 60c0 .1 0 .1 0 0l-.7.6h-.1s-.1 0-.1-.1c-.1-.2-.2-.3-.4-.3h-.1c-.2 0-.3.1-.5.4l-.9 1.2-.2 1.9c0 .1-.1.1-.1.1h-.6c-.1 0-.1 0-.1-.1l.4-4.2c0-.1.1-.1.1-.1h.7s.1 0 .1.1l-.1 1.1.5-.7c.3-.4.5-.5.9-.5h.1c.5 0 .7.2.9.5.2 0 .2.1.2.1z"/><path fill="#fff" stroke="#000" stroke-width="1.926" stroke-miterlimit="10" d="M87.8 76.8h83.8v18.8H87.8z"/><path d="M98.8 84.8c0 .1-.1.1-.1.1h-.8c-.1 0-.1 0-.1-.1l.1-1.3h-1.3c-.9 0-1.4.6-1.5 1.5l-.2 1.8v.2c0 .6.4.9 1 .9h2.4l.1.1-.1.6c0 .1-.1.1-.1.1h-2.6c-1.1 0-1.8-.6-1.8-1.7v-.3l.2-1.9c.1-1.4 1-2.4 2.6-2.4h2.2s.1 0 .1.1l-.1 2.3zM103.2 88.8c0 .1-.1.1-.1.1h-.7c-.1 0-.1 0-.1-.1 0 0 0-.2.1-1.2l-.4.6c-.3.5-.7.7-1.4.7h-.2c-.6 0-1.1-.4-1.1-1.1v-.2l.1-1.3c.1-1.2.8-1.9 2-1.9h.1c.4 0 .9.2 1.2.4v-.2c0-.1.1-.1.1-.1h.7s.1 0 .1.1l-.4 4.2zm-1.5-1.3l.9-1.1.1-.9c-.3-.2-.6-.3-1.1-.3h-.1c-.7 0-1.1.5-1.1 1.2l-.1 1.2v.1c0 .3.2.4.4.4h.1c.3.1.6-.2.9-.6zM107 88.8c0 .1-.1.1-.1.1h-.7c-.8 0-1.2-.4-1.2-1.1v-.2l.2-2.2-.9-.2c-.1 0-.1-.1-.1-.1l.1-.5c0-.1.1-.1.1-.1h.9l.1-.4c0-.1 0-.1.1-.2l.6-.4h.1c.1 0 .1 0 .1.1l-.1.9h1.1c.1 0 .1 0 .1.1l-.1.7c0 .1-.1.1-.1.1h-1.1c-.1.8-.2 2.1-.2 2.3 0 .2.1.4.4.4h.6s.1 0 .1.1v.6zM114.6 83.4c0 .1-.1.1-.1.1h-2.2c-.5 0-.9.2-1 .6v.3c0 .4.4.6 1 .8l1.1.3c.8.2 1.2.6 1.2 1.4v.7c-.1.9-.9 1.3-2 1.3h-2.4c-.1 0-.1 0-.1-.1l.1-.6c0-.1.1-.1.1-.1h2.2c.6 0 1.1-.2 1.1-.6v-.4c0-.4-.3-.6-.8-.7l-1.1-.3c-.8-.2-1.3-.7-1.3-1.5v-.5c.1-1 .9-1.3 2.1-1.3h2.1l.1.1-.1.5zM117.9 88.8c0 .1-.1.1-.1.1h-.7c-.8 0-1.2-.4-1.2-1.1v-.2l.2-2.2-.9-.2c-.1 0-.1-.1-.1-.1l.1-.5c0-.1.1-.1.1-.1h.9l.1-.4c0-.1 0-.1.1-.2l.6-.4h.1c.1 0 .1 0 .1.1l-.1.9h1.1c.1 0 .1 0 .1.1l-.1.7c0 .1-.1.1-.1.1H117c-.1.8-.2 2.1-.2 2.3 0 .2.1.4.4.4h.6s.1 0 .1.1v.6zM122.8 85c0 .1-.1.1 0 0l-.7.6h-.1s-.1 0-.1-.1c-.1-.2-.2-.3-.4-.3h-.1c-.2 0-.3.1-.5.4l-.9 1.2-.2 1.9c0 .1-.1.1-.1.1h-.7c-.1 0-.1 0-.1-.1l.4-4.2c0-.1.1-.1.1-.1h.7s.1 0 .1.1l-.1 1.1.5-.7c.3-.4.5-.5.9-.5h.1c.5 0 .7.2.9.5.2.1.3.1.3.1zM123.7 87.4c0 .5.2.7.8.7h1.9s.1 0 .1.1l-.1.6c0 .1-.1.1-.1.1h-2c-.9 0-1.5-.5-1.5-1.4v-.2l.1-.9c.1-1.2.8-1.9 2-1.9h.6c.9 0 1.4.4 1.4 1v.3c-.1.8-.7 1-1.4 1.2l-1.8.4zm.1-.8l1.3-.4c.5-.1.8-.3.9-.6v-.1c0-.2-.2-.3-.4-.3h-.6c-.7 0-1 .4-1.1 1.2l-.1.2zM131.4 88.8c0 .1-.1.1-.1.1h-.7c-.1 0-.1 0-.1-.1 0 0 0-.2.1-1.2l-.4.6c-.3.5-.7.7-1.4.7h-.2c-.6 0-1.1-.4-1.1-1.1v-.2l.1-1.3c.1-1.2.8-1.9 2-1.9h.1c.4 0 .9.2 1.2.4v-.2c0-.1.1-.1.1-.1h.7s.1 0 .1.1l-.4 4.2zm-1.6-1.3l.9-1.1.1-.9c-.3-.2-.6-.3-1.1-.3h-.1c-.7 0-1.1.5-1.1 1.2l-.1 1.2v.1c0 .3.2.4.4.4h.1c.3.1.6-.2.9-.6zM134 86.1l.5-.8c.4-.6.7-.9 1.3-.9h.2c.6 0 .9.3.9 1v.2l-.1.5.5-.8c.4-.6.7-.9 1.3-.9h.2c.6 0 .9.3.9 1v.2l-.3 3.1c0 .1-.1.1-.1.1h-.7c-.1 0-.1 0-.1-.1.1-1.1.3-3.2.3-3.3 0-.2-.1-.3-.2-.3h-.1c-.2 0-.5.3-.8.8l-1 1.3-.1 1.5c0 .1-.1.1-.1.1h-.7c-.1 0-.1 0-.1-.1l.3-3.3c0-.2-.1-.3-.2-.3h-.1c-.2 0-.5.3-.8.8l-1 1.3-.1 1.5c0 .1-.1.1-.1.1h-.7c-.1 0-.1 0-.1-.1l.4-4.2c0-.1.1-.1.1-.1h.7s.1 0 .1.1l-.2 1.6z"/><path fill="none" stroke="#000" stroke-width="2" stroke-linejoin="bevel" d="M209 44.7l-37.6-7.6L209 23.9"/><path d="M205.7 40.6l2.7 3.9-4 2.7 2.8.6 4-2.7-2.7-4zM206.4 28.4l2.1-4.3-4.3-2.1 2.7-1 4.3 2.1-2.1 4.3z"/><path fill="none" stroke="#000" stroke-width="2" stroke-linejoin="bevel" d="M209.4 91.5l-38-30.6 37.6 7.5"/><path d="M208.4 86.3l.6 4.8-4.8.5 2.2 1.8 4.8-.5-.5-4.8zM204.4 71l4-2.7-2.7-4 2.8.6 2.7 4-4 2.6z"/><g enable-background="new"><path d="M219.8 119.5c0 .1 0 .1 0 0l-.8.1s-.1 0-.1-.1c0 0 0-.1.1-1.1l-.4.6c-.3.4-.6.7-1.3.7h-.1c-.6 0-1-.4-1-1v-.1l.1-1.2c.1-1.1.7-1.8 1.8-1.8h.1c.4 0 .8.1 1.1.3v-.2s0-.1.1-.1h.7s.1 0 .1.1l-.4 3.8zm-1.4-1.1l.8-1 .1-.8c-.3-.2-.6-.3-1-.3h-.1c-.6 0-1 .4-1 1.1l-.1 1.1v.1c0 .2.1.4.4.4h.1c.3 0 .6-.3.8-.6zM222.8 119.5c0 .1-.1.1 0 0l-.6.1c-.7 0-1.1-.4-1.1-1v-.2l.5-4.5c0-.1.1-.1.1-.1h.7s.1 0 .1.1l-.5 4.4v.1c0 .3.2.4.4.4h.5s.1 0 .1.1l-.2.6zM225.1 119.5c0 .1-.1.1 0 0l-.6.1c-.7 0-1.1-.4-1.1-1v-.2l.5-4.5c0-.1.1-.1.1-.1h.7s.1 0 .1.1l-.5 4.4v.1c0 .3.2.4.4.4h.5s.1 0 .1.1l-.2.6zM231.3 116.9s0 .1 0 0l-.8.1s-.1 0-.1-.1v-.2c0-.3-.3-.4-.7-.4h-.1c-.6 0-.9.3-1 1l-.1.9v.1c0 .4.2.5.7.5h1.6s.1 0 .1.1v.5s0 .1-.1.1h-1.6c-.8 0-1.4-.4-1.4-1.3v-.2l.1-.8c.1-1 .7-1.8 1.8-1.8h.2c.8 0 1.4.4 1.4 1.1v.4zM235.6 119.5c0 .1-.1.1 0 0l-.8.1s-.1 0-.1-.1c0 0 0-.1.1-1.1l-.4.6c-.3.4-.6.7-1.3.7h-.1c-.6 0-1-.4-1-1v-.1l.1-1.2c.1-1.1.7-1.8 1.8-1.8h.1c.4 0 .8.1 1.1.3v-.2s0-.1.1-.1h.7s.1 0 .1.1l-.4 3.8zm-1.5-1.1l.8-1 .1-.8c-.3-.2-.6-.3-1-.3-.6 0-1 .4-1 1.1l-.1 1.1v.1c0 .2.1.4.4.4h.1c.2 0 .5-.3.7-.6zM238.9 119.5c0 .1 0 .1 0 0l-.7.1c-.7 0-1.1-.4-1.1-1v-.2l.2-2-.8-.1c-.1 0-.1 0-.1-.1v-.5l.1-.1h.8v-.4c0-.1 0-.1.1-.2l.6-.4h.1c.1 0 .1 0 .1.1l-.1.8h1s.1 0 .1.1l-.1.6-.1.1h-1c-.1.7-.2 1.9-.2 2.1 0 .2.1.4.4.4h.6s.1 0 .1.1v.6z"/></g><g enable-background="new"><path d="M218.5 127.6c0 .1-.1.1 0 0l-.7.1c-.7 0-1.1-.4-1.1-1v-.2l.2-2-.8-.1c-.1 0-.1 0-.1-.1v-.5l.1-.1h.8v-.4c0-.1 0-.1.1-.2l.6-.4h.1c.1 0 .1 0 .1.1l-.1.8h1s.1 0 .1.1l-.1.6-.1.1h-1c-.1.7-.2 1.9-.2 2.1 0 .2.1.4.4.4h.6s.1 0 .1.1v.6zM219.7 123.8l.1-.1h.6s.1 0 .1.1l-.3 2.8v.1c0 .2.1.3.3.3h.1c.3 0 .5-.2.7-.5l.8-1.2.2-1.5.1-.1h.6s.1 0 .1.1l-.3 2.6v.3c0 .2.1.3.4.3h.1c.4 0 .7-.3.9-.6.3-.5.4-1.2.5-2l.1-.6s0-.1.1-.1h.7s.1 0 .1.1c0 0 0 .2-.1.7-.1 1-.2 1.8-.6 2.4-.4.5-.8.8-1.7.8h-.2c-.6 0-1-.4-1-1V126.4l-.2.4c-.2.4-.5.8-1.1.8h-.3c-.6 0-.9-.3-.9-.9v-.2l.1-2.7zM226.9 126.4c0 .5.2.6.7.6h1.7s.1 0 .1.1v.5s0 .1-.1.1h-1.8c-.8 0-1.4-.5-1.4-1.3v-.2l.1-.8c.1-1.1.7-1.8 1.8-1.8h.6c.8 0 1.2.3 1.2.9v.3c-.1.7-.6.9-1.3 1.1l-1.6.5zm.1-.7l1.2-.3c.4-.1.8-.2.8-.5v-.1c0-.2-.1-.3-.4-.3h-.6c-.6 0-.9.3-1 1v.2zM231 126.4c0 .5.2.6.7.6h1.7s.1 0 .1.1v.5s0 .1-.1.1h-1.8c-.8 0-1.4-.5-1.4-1.3v-.2l.1-.8c.1-1.1.7-1.8 1.8-1.8h.6c.8 0 1.2.3 1.2.9v.3c-.1.7-.6.9-1.3 1.1l-1.6.5zm.1-.7l1.2-.3c.4-.1.8-.2.8-.5v-.1c0-.2-.1-.3-.4-.3h-.6c-.6 0-.9.3-1 1v.2zM236.6 127.6c0 .1-.1.1 0 0l-.7.1c-.7 0-1.1-.4-1.1-1v-.2l.2-2-.8-.1c-.1 0-.1 0-.1-.1v-.5l.1-.1h.8v-.4c0-.1 0-.1.1-.2l.6-.4h.1c.1 0 .1 0 .1.1l-.1.8h1s.1 0 .1.1l-.1.6-.1.1h-1c-.1.7-.2 1.9-.2 2.1 0 .2.1.4.4.4h.6s.1 0 .1.1v.6zM240.7 124.4s-.1.1 0 0l-1.8.1c-.3 0-.5.1-.5.4 0 .2.2.3.4.4.3.1.5.1.9.2.6.1 1.1.4 1.1 1v.3c-.1.7-.6 1-1.5 1h-1.8s-.1 0-.1-.1c0 0 0-.2.1-.5 0 0 0-.1.1-.1h1.9c.3 0 .5-.2.5-.4 0-.3-.2-.4-.6-.4-.2 0-.6-.1-.8-.2-.6-.1-.9-.5-.9-1v-.2c0-.7.5-1 1.4-1h1.7s.1 0 .1.1l-.2.4z"/></g><path fill="none" stroke="#000" stroke-width="2" stroke-linejoin="bevel" d="M171.6 86.1l35.8 27.4"/><path d="M202.2 113.8l4.7-.7-.6-4.7 2.3 1.7.6 4.8-4.8.6z"/><path fill="none" stroke="#000" stroke-width="2" stroke-linejoin="bevel" d="M84.6 86.3H64.5c-2.4 0-4.4 2-4.4 4.4v44.4c0 2.4 2 4.4 4.4 4.4h193.7c2.4 0 4.4-2 4.4-4.4v-33.4c0-2.4-2-4.4-4.4-4.4h-3"/><path d="M80.6 82.9l3.4 3.4-3.4 3.4h2.9l3.4-3.4-3.4-3.4z"/><g fill="#cf00ab"><path d="M99.7 12.2l.5-.8c.4-.6.7-.9 1.3-.9h.2c.6 0 .9.3.9 1v.2l-.1.5.5-.8c.4-.6.7-.9 1.3-.9h.2c.6 0 .9.3.9 1v.2l-.3 3.1c0 .1-.1.1-.1.1h-.7c-.1 0-.1 0-.1-.1.1-1.1.3-3.2.3-3.3 0-.2-.1-.3-.2-.3h-.1c-.2 0-.5.3-.8.8l-1 1.3-.1 1.5c0 .1-.1.1-.1.1h-.7c-.1 0-.1 0-.1-.1l.3-3.3c0-.2-.1-.3-.2-.3h-.1c-.2 0-.5.3-.8.8l-1 1.3-.1 1.5c0 .1-.1.1-.1.1h-.7c-.1 0-.1 0-.1-.1l.4-4.2c0-.1.1-.1.1-.1h.7s.1 0 .1.1l-.2 1.6zM107.3 13.5c0 .5.2.7.8.7h1.9s.1 0 .1.1l-.1.6c0 .1-.1.1-.1.1h-2c-.9 0-1.5-.5-1.5-1.4v-.2l.1-.9c.1-1.2.8-1.9 2-1.9h.6c.9 0 1.4.4 1.4 1v.3c-.1.8-.7 1-1.4 1.2l-1.8.4zm.1-.8l1.3-.4c.5-.1.8-.3.9-.6v-.1c0-.2-.2-.3-.4-.3h-.6c-.7 0-1 .4-1.1 1.2l-.1.2zM114.7 11.3c0 .1-.1.1-.1.1h-1.9c-.3 0-.5.1-.6.4v.1c0 .2.2.3.4.4.3.1.6.1.9.2.7.1 1.2.4 1.2 1.1v.3c-.1.8-.7 1.2-1.6 1.2h-2s-.1 0-.1-.1c0 0 0-.2.1-.6 0-.1.1-.1.1-.1h2.1c.3 0 .6-.2.6-.5s-.3-.4-.6-.5c-.3 0-.6-.1-.9-.2-.6-.1-1-.6-1-1.1v-.2c0-.7.6-1.1 1.5-1.1h1.9s.1 0 .1.1l-.1.5zM118.8 11.3c0 .1-.1.1-.1.1h-1.9c-.3 0-.5.1-.6.4v.1c0 .2.2.3.4.4.3.1.6.1.9.2.7.1 1.2.4 1.2 1.1v.3c-.1.8-.7 1.2-1.6 1.2h-2s-.1 0-.1-.1c0 0 0-.2.1-.6 0-.1.1-.1.1-.1h2.1c.3 0 .6-.2.6-.5s-.3-.4-.6-.5c-.3 0-.6-.1-.9-.2-.6-.1-1-.6-1-1.1v-.2c0-.7.6-1.1 1.5-1.1h1.9s.1 0 .1.1l-.1.5zM123.5 14.8c0 .1-.1.1-.1.1h-.7c-.1 0-.1 0-.1-.1 0 0 0-.2.1-1.2l-.4.6c-.3.5-.7.7-1.4.7h-.2c-.6 0-1.1-.4-1.1-1.1v-.2l.1-1.3c.1-1.2.8-1.9 2-1.9h.1c.4 0 .9.2 1.2.4v-.2c0-.1.1-.1.1-.1h.7s.1 0 .1.1l-.4 4.2zm-1.6-1.2l.9-1.1.1-.9c-.3-.2-.6-.3-1.1-.3h-.1c-.7 0-1.1.5-1.1 1.2l-.1 1.2v.1c0 .3.2.4.4.4h.1c.4 0 .6-.3.9-.6zM128.7 14.6c-.1 1.1-.8 1.9-2 1.9h-1.9c-.1 0-.1 0-.1-.1l.1-.6c0-.1.1-.1.1-.1h1.8c.7 0 1.1-.5 1.1-1.2l.1-1-.5.6c-.3.5-.7.7-1.4.7h-.2c-.6 0-1.1-.4-1.1-1.1v-.2l.1-1.3c.1-1.2.8-1.9 2-1.9h.1c.4 0 .9.2 1.2.4v-.2c0-.1.1-.1.1-.1h.7s.1 0 .1.1l-.3 4.1zm-1.5-1l.9-1.1.1-.9c-.3-.2-.6-.3-1.1-.3h-.1c-.7 0-1.1.5-1.1 1.2 0 .5-.1 1.2-.1 1.4 0 .3.2.4.4.4h.1c.3-.1.6-.4.9-.7zM131 13.5c0 .5.2.7.8.7h1.9s.1 0 .1.1l-.1.6c0 .1-.1.1-.1.1h-2c-.9 0-1.5-.5-1.5-1.4v-.2l.1-.9c.1-1.2.8-1.9 2-1.9h.6c.9 0 1.4.4 1.4 1v.3c-.1.8-.7 1-1.4 1.2l-1.8.4zm0-.8l1.3-.4c.5-.1.8-.3.9-.6v-.1c0-.2-.2-.3-.4-.3h-.6c-.7 0-1 .4-1.1 1.2l-.1.2zM140.7 16.4c0 .1-.1.1-.1.1h-.7c-.1 0-.1 0-.1-.1l.3-2.8-.5.7c-.3.5-.7.7-1.4.7h-.2c-.6 0-1.1-.4-1.1-1.1v-.2l.1-1.3c.1-1.2.8-1.9 2-1.9h.1c.5 0 .9.2 1.2.4v-.2c0-.1.1-.1.1-.1h.7s.1 0 .1.1l-.5 5.7zm-1.4-2.8l.9-1.1.1-.9c-.3-.2-.6-.3-1.1-.3h-.1c-.7 0-1.1.5-1.1 1.2 0 .2-.1 1.2-.1 1.4 0 .3.2.4.4.4h.1c.3-.1.6-.4.9-.7zM145.3 13.6l-.4.7c-.3.5-.6.8-1.4.8h-.3c-.6 0-1-.4-1-1v-.2l.3-3.1c0-.1.1-.1.1-.1h.7c.1 0 .1 0 .1.1 0 0-.3 3.1-.3 3.2 0 .2.1.4.3.4h.1c.5 0 .7-.3 1.1-.9l.8-1.1.2-1.6c0-.1.1-.1.1-.1h.7s.1 0 .1.1l-.4 4.2c0 .1-.1.1-.1.1h-.7c-.1 0-.1 0-.1-.1l.1-1.4zM148.3 13.5c0 .5.2.7.8.7h1.9s.1 0 .1.1l-.1.6c0 .1-.1.1-.1.1h-2c-.9 0-1.5-.5-1.5-1.4v-.2l.1-.9c.1-1.2.8-1.9 2-1.9h.6c.9 0 1.4.4 1.4 1v.3c-.1.8-.7 1-1.4 1.2l-1.8.4zm.1-.8l1.3-.4c.5-.1.8-.3.9-.6v-.1c0-.2-.2-.3-.4-.3h-.6c-.7 0-1 .4-1.1 1.2l-.1.2zM155.3 13.6l-.4.7c-.3.5-.6.8-1.4.8h-.3c-.6 0-1-.4-1-1v-.2l.3-3.1c0-.1.1-.1.1-.1h.7c.1 0 .1 0 .1.1 0 0-.3 3.1-.3 3.2 0 .2.1.4.3.4h.1c.5 0 .7-.3 1.1-.9l.8-1.1.2-1.6c0-.1.1-.1.1-.1h.7s.1 0 .1.1l-.4 4.2c0 .1-.1.1-.1.1h-.7c-.1 0-.1 0-.1-.1l.1-1.4zM158.3 13.5c0 .5.2.7.8.7h1.9s.1 0 .1.1l-.1.6c0 .1-.1.1-.1.1h-2c-.9 0-1.5-.5-1.5-1.4v-.2l.1-.9c.1-1.2.8-1.9 2-1.9h.6c.9 0 1.4.4 1.4 1v.3c-.1.8-.7 1-1.4 1.2l-1.8.4zm.1-.8l1.3-.4c.5-.1.8-.3.9-.6v-.1c0-.2-.2-.3-.4-.3h-.6c-.7 0-1 .4-1.1 1.2l-.1.2z"/></g></svg>