<svg xmlns="http://www.w3.org/2000/svg" viewBox="0 0 270 90" enable-background="new 0 0 270 90"><path fill="none" stroke="#000" stroke-miterlimit="10" d="M88.5 21.5v8M41.5 21.5v8"/><g fill="#D25CA2"><path d="M172.5 82.7c-.1 1.2-.9 2-2.2 2h-.7c-.9 0-1.5-.5-1.5-1.5V83l.2-1.8c.1-1.2.9-2 2.2-2h.7c.9 0 1.5.5 1.5 1.5v.2l-.2 1.8zm-.7-1.8v-.1c0-.5-.3-.8-.9-.8h-.6c-.8 0-1.2.5-1.3 1.3l-.2 1.8v.1c0 .5.3.8.9.8h.6c.8 0 1.2-.5 1.3-1.3l.2-1.8zM175 84.5c0 .1 0 .1 0 0l-.6.1c-.7 0-1-.4-1-.9v-.2l.5-4.3c0-.1.1-.1.1-.1h.6s.1 0 .1.1l-.4 4.2v.1c0 .3.1.4.4.4h.5s.1 0 .1.1l-.3.5zM179 84.5c0 .1 0 .1 0 0l-.7.1c-.1 0-.1 0-.1-.1l.1-1-.4.6c-.3.4-.6.6-1.2.6h-.1c-.6 0-1-.4-1-1v-.1l.1-1.1c.1-1 .7-1.7 1.7-1.7h.1c.4 0 .8.1 1 .3l.2-1.9s0-.1.1-.1h.6s.1 0 .1.1l-.5 5.3zm-1.3-1l.8-.9.1-.8c-.3-.2-.5-.3-.9-.3h-.1c-.6 0-.9.4-1 1 0 .4-.1 1-.1 1.2 0 .2.1.4.3.4h.1c.3-.1.5-.3.8-.6zM186.5 82.6c-.1 1.2-.9 2-2.2 2h-2.1c-.1 0-.1 0-.1-.1l.5-5.1s0-.1.1-.1h2.4c.9 0 1.5.5 1.5 1.5v.2l-.1 1.6zm-.7-1.6v-.1c0-.5-.3-.8-.9-.8h-1.5L183 84h1.3c.8 0 1.2-.5 1.3-1.3l.2-1.7zM190.7 84.5c0 .1 0 .1 0 0l-.7.1s-.1 0-.1-.1c0 0 0-.1.1-1l-.4.6c-.3.4-.6.6-1.2.6h-.1c-.6 0-1-.4-1-1v-.1l.1-1.1c.1-1 .7-1.7 1.7-1.7h.1c.4 0 .8.1 1 .3v-.2s0-.1.1-.1h.6s.1 0 .1.1l-.3 3.6zm-1.3-1l.7-.9.1-.8c-.3-.2-.5-.3-.9-.3h-.1c-.6 0-.9.4-1 1l-.1 1.1v.1c0 .2.1.4.3.4h.1c.4-.1.6-.3.9-.6zM193.9 84.5c0 .1 0 .1 0 0l-.7.1c-.7 0-1-.4-1-.9v-.2l.2-1.9-.8-.1c-.1 0-.1 0-.1-.1v-.5l.1-.1h.8v-.4c0-.1 0-.1.1-.2l.5-.3h.1c.1 0 .1 0 .1.1l-.1.8h.9s.1 0 .1.1l-.1.6-.1.1h-.9c-.1.7-.2 1.8-.2 2 0 .2.1.3.4.3h.5s.1 0 .1.1l.1.5zM198.1 84.5c0 .1-.1.1 0 0l-.7.1s-.1 0-.1-.1c0 0 0-.1.1-1l-.4.6c-.3.4-.6.6-1.2.6h-.1c-.6 0-1-.4-1-1v-.1l.1-1.1c.1-1 .7-1.7 1.7-1.7h.1c.4 0 .8.1 1 .3v-.2s0-.1.1-.1h.6s.1 0 .1.1l-.3 3.6zm-1.4-1l.7-.9.1-.8c-.3-.2-.5-.3-.9-.3h-.1c-.6 0-.9.4-1 1l-.1 1.1v.1c0 .2.1.4.3.4h.1c.5-.1.7-.3.9-.6zM201.5 80.3c0-.1.1-.2.1-.3l.4-.7.1-.1h.3s.1 0 .1.1l-.2 1.6s0 .1-.1.1h-.7c-.1 0-.1 0-.1-.1l.1-.6zm1.5 0c0-.1.1-.2.1-.3l.4-.7.1-.1h.3s.1 0 .1.1l-.2 1.6s0 .1-.1.1h-.7c-.1 0-.1 0-.1-.1l.1-.6zM205.6 84.5c0 .1-.1.1 0 0l-.8.1s-.1 0-.1-.1v-.2l.5-5s0-.1.1-.1h3.4s.1 0 .1.1l-.1.5-.1.1H206l-.2 1.6h2.6s.1 0 .1.1l-.1.5-.1.1h-2.6l-.1 2.3zM212.5 83c-.1 1-.7 1.7-1.7 1.7h-.5c-.8 0-1.3-.4-1.3-1.2v-.2l.1-.9c.1-1 .7-1.7 1.7-1.7h.5c.8 0 1.3.4 1.3 1.2v.2l-.1.9zm-.7-.8v-.1c0-.4-.2-.6-.7-.6h-.3c-.6 0-.9.4-1 1l-.1.9v.1c0 .4.2.6.7.6h.3c.6 0 .9-.4 1-1l.1-.9zM216.6 81.3c0 .1 0 .1 0 0l-.6.5h-.2c-.1-.2-.2-.3-.3-.3h-.1c-.1 0-.2.1-.4.3l-.8 1-.2 1.6s0 .1-.1.1h-.6c-.1 0-.1 0-.1-.1l.4-3.6s0-.1.1-.1h.6s.1 0 .1.1l-.1.9.4-.6c.2-.3.5-.4.8-.4h.1c.4 0 .6.1.8.5l.2.1zM220.1 84.3c-.1 1-.7 1.7-1.7 1.7h-1.7s-.1 0-.1-.1l.1-.5c0-.1 0-.1.1-.1h1.6c.6 0 .9-.4 1-1l.1-.8-.4.6c-.3.4-.6.6-1.2.6h-.1c-.6 0-1-.4-1-1v-.1l.1-1.1c.1-1 .7-1.7 1.7-1.7h.1c.4 0 .8.1 1 .3v-.2s0-.1.1-.1h.6s.1 0 .1.1l-.4 3.4zm-1.4-.8l.8-.9.1-.8c-.3-.2-.5-.3-.9-.3h-.1c-.6 0-.9.4-1 1 0 .4-.1 1-.1 1.2 0 .2.1.4.3.4h.1c.3-.1.5-.3.8-.6zM224.7 83c-.1 1-.7 1.7-1.7 1.7h-.5c-.8 0-1.3-.4-1.3-1.2v-.2l.1-.9c.1-1 .7-1.7 1.7-1.7h.5c.8 0 1.3.4 1.3 1.2v.2l-.1.9zm-.7-.8v-.1c0-.4-.2-.6-.7-.6h-.3c-.6 0-.9.4-1 1l-.1.9v.1c0 .4.2.6.7.6h.3c.6 0 .9-.4 1-1l.1-.9zM227.5 84.5c0 .1-.1.1 0 0l-.7.1c-.7 0-1-.4-1-.9v-.2l.2-1.9-.8-.1c-.1 0-.1 0-.1-.1v-.5l.1-.1h.8v-.4c0-.1 0-.1.1-.2l.5-.3h.1c.1 0 .1 0 .1.1l-.1.8h.9s.1 0 .1.1l-.1.6-.1.1h-.9c-.1.7-.2 1.8-.2 2 0 .2.1.3.4.3h.5s.1 0 .1.1l.1.5zM230.5 84.5c0 .1-.1.1 0 0l-.7.1c-.7 0-1-.4-1-.9v-.2l.2-1.9-.8-.1c-.1 0-.1 0-.1-.1v-.5l.1-.1h.8v-.4c0-.1 0-.1.1-.2l.5-.3h.1c.1 0 .1 0 .1.1l-.1.8h.9s.1 0 .1.1l-.1.6-.1.1h-.9c-.1.7-.2 1.8-.2 2 0 .2.1.3.4.3h.5s.1 0 .1.1l.1.5zM232 83.4c0 .4.2.6.7.6h1.6s.1 0 .1.1v.5s0 .1-.1.1h-1.7c-.8 0-1.3-.4-1.3-1.2v-.2l.1-.8c.1-1 .7-1.7 1.7-1.7h.6c.7 0 1.2.3 1.2.9v.3c-.1.7-.6.9-1.2 1l-1.7.4zm.1-.7l1.1-.3c.4-.1.7-.2.8-.5v-.1c0-.2-.1-.3-.3-.3h-.5c-.6 0-.9.3-1 1l-.1.2zM238.9 84.5l-.1.1h-.6c-.1 0-.1 0-.1-.1l.3-2.5v-.3c0-.2-.1-.3-.2-.3h-.2c-.3 0-.5.3-.8.7l-.9 1.1-.1 1.2s0 .1-.1.1h-.6s-.1 0-.1-.1l.4-3.6s0-.1.1-.1h.6s.1 0 .1.1l-.1 1.3.5-.7c.3-.5.6-.8 1.1-.8h.2c.5 0 .9.3.9.9v.2l-.3 2.8zM241.3 79.9c0 .1-.1.2-.1.3l-.4.7-.1.1h-.3s-.1 0-.1-.1l.2-1.6s0-.1.1-.1h.7s.1 0 .1.1l-.1.6zm1.5 0c0 .1-.1.2-.1.3l-.4.7-.1.1h-.3s-.1 0-.1-.1l.2-1.6s0-.1.1-.1h.7s.1 0 .1.1l-.1.6z"/></g><g fill="#D25CA2"><path d="M36.7 84.5c0 .1 0 .2-.1.2H36c-.1 0-.1 0-.1-.1l-.3-1.3h-2.2l-.5 1.3c0 .1-.1.1-.2.1H32s-.1 0-.1-.1v-.1l2.3-5c0-.1.1-.1.1-.1h1c.1 0 .1 0 .1.1l1.3 5zm-3-2h1.7l-.6-2.6-1.1 2.6zM40.8 82c0 .1-.1.1 0 0l-.7.1s-.1 0-.1-.1v-.2c0-.3-.3-.4-.7-.4h-.1c-.6 0-.9.3-1 1l-.1.8v.1c0 .4.2.5.7.5h1.5s.1 0 .1.1v.5s0 .1-.1.1h-1.5c-.8 0-1.3-.4-1.3-1.2v-.2l.1-.8c.1-1 .7-1.7 1.7-1.7h.2c.8 0 1.3.4 1.3 1v.4zM44.5 82c0 .1-.1.1 0 0l-.7.1s-.1 0-.1-.1v-.2c0-.3-.3-.4-.7-.4-.6 0-.9.3-1 1l-.1.8v.1c0 .4.2.5.7.5H44s.1 0 .1.1v.5s0 .1-.1.1h-1.5c-.8 0-1.3-.4-1.3-1.2v-.2l.1-.8c.1-1 .7-1.7 1.7-1.7h.2c.8 0 1.3.4 1.3 1v.4zM47.7 83.5l-.3.5c-.3.5-.5.7-1.2.7H46c-.5 0-.9-.3-.9-.9v-.2l.3-2.7.1-.1h.6s.1 0 .1.1c0 0-.3 2.7-.3 2.8 0 .1.1.3.3.3h.1c.4 0 .6-.2.9-.7l.7-1L48 81s0-.1.1-.1h.6s.1 0 .1.1l-.4 3.6s0 .1-.1.1h-.6c-.1 0-.1 0-.1-.1l.1-1.1zM50.7 82.3l.5-.7c.3-.5.6-.8 1.1-.8h.2c.5 0 .8.3.8.8V82.2l.5-.7c.3-.5.6-.8 1.1-.8h.2c.5 0 .8.3.8.8v.2l-.3 2.7-.1.1h-.6c-.1 0-.1 0-.1-.1.1-.9.3-2.7.3-2.8 0-.2-.1-.2-.2-.2h-.1c-.2 0-.4.2-.7.7l-.9 1.1-.1 1.3-.1.1h-.6c-.1 0-.1 0-.1-.1.1-.9.3-2.8.3-2.8 0-.2-.1-.2-.2-.2h-.1c-.2 0-.4.2-.7.7l-.9 1.1-.1 1.3s0 .1-.1.1h-.6s-.1 0-.1-.1L50 81s0-.1.1-.1h.6s.1 0 .1.1l-.1 1.3zM59.2 83.5l-.3.5c-.3.5-.5.7-1.2.7h-.3c-.5 0-.9-.3-.9-.9v-.2l.3-2.7.1-.1h.6s.1 0 .1.1c0 0-.3 2.7-.3 2.8 0 .1.1.3.3.3h.1c.4 0 .6-.2.9-.7l.7-1 .1-1.4s0-.1.1-.1h.6s.1 0 .1.1l-.4 3.6s0 .1-.1.1h-.6c-.1 0-.1 0-.1-.1l.2-1zM62.7 84.5c0 .1 0 .1 0 0l-.6.1c-.7 0-1-.4-1-.9v-.2l.5-4.3c0-.1.1-.1.1-.1h.6s.1 0 .1.1l-.4 4.2v.1c0 .3.1.4.4.4h.5s.1 0 .1.1l-.3.5zM66.7 84.5c0 .1 0 .1 0 0l-.7.1s-.1 0-.1-.1c0 0 0-.1.1-1l-.4.6c-.3.4-.6.6-1.2.6h-.1c-.6 0-1-.4-1-1v-.1l.1-1.1c.1-1 .7-1.7 1.7-1.7h.1c.4 0 .8.1 1 .3v-.2s0-.1.1-.1h.7s.1 0 .1.1l-.4 3.6zm-1.3-1l.7-.9.1-.8c-.3-.2-.5-.3-.9-.3h-.1c-.6 0-.9.4-1 1l-.1 1.1v.1c0 .2.1.4.3.4h.1c.4-.1.6-.3.9-.6zM69.9 84.5c0 .1 0 .1 0 0l-.7.1c-.7 0-1-.4-1-.9v-.2l.2-1.9-.8-.1c-.1 0-.1 0-.1-.1v-.5l.1-.1h.8v-.4c0-.1 0-.1.1-.2l.5-.3h.1c.1 0 .1 0 .1.1l-.1.8h.9s.1 0 .1.1l-.1.6-.1.1H69c-.1.7-.2 1.8-.2 2 0 .2.1.3.4.3h.5s.1 0 .1.1l.1.5zM71.5 83.4c0 .4.2.6.7.6h1.6s.1 0 .1.1v.5s0 .1-.1.1H72c-.8 0-1.3-.4-1.3-1.2v-.2l.1-.8c.1-1 .7-1.7 1.7-1.7h.5c.7 0 1.2.3 1.2.9v.3c-.1.7-.6.9-1.2 1l-1.5.4zm0-.7l1.1-.3c.4-.1.7-.2.8-.5v-.1c0-.2-.1-.3-.3-.3h-.5c-.6 0-.9.3-1 1l-.1.2zM78.1 84.5c0 .1-.1.1 0 0l-.7.1c-.1 0-.1 0-.1-.1l.1-1-.4.6c-.3.4-.6.6-1.2.6h-.1c-.6 0-1-.4-1-1v-.1l.1-1.1c.1-1 .7-1.7 1.7-1.7h.1c.4 0 .8.1 1 .3l.2-1.9s0-.1.1-.1h.6s.1 0 .1.1l-.5 5.3zm-1.4-1l.8-.9.1-.8c-.3-.2-.5-.3-.9-.3h-.1c-.6 0-.9.4-1 1 0 .4-.1 1-.1 1.2 0 .2.1.4.3.4h.1c.4-.1.6-.3.8-.6zM85.6 82.6c-.1 1.2-.9 2-2.2 2h-2.1c-.1 0-.1 0-.1-.1l.5-5.1s0-.1.1-.1h2.4c.9 0 1.5.5 1.5 1.5v.2l-.1 1.6zm-.7-1.6v-.1c0-.5-.3-.8-.9-.8h-1.5l-.4 3.9h1.3c.8 0 1.2-.5 1.3-1.3l.2-1.7zM89.8 84.5c0 .1 0 .1 0 0l-.7.1s-.1 0-.1-.1c0 0 0-.1.1-1l-.4.6c-.3.4-.6.6-1.2.6h-.1c-.6 0-1-.4-1-1v-.1l.1-1.1c.1-1 .7-1.7 1.7-1.7h.1c.4 0 .8.1 1 .3v-.2s0-.1.1-.1h.6s.1 0 .1.1l-.3 3.6zm-1.4-1l.7-.9.1-.8c-.3-.2-.5-.3-.9-.3h-.1c-.6 0-.9.4-1 1l-.1 1.1v.1c0 .2.1.4.3.4h.1c.5-.1.7-.3.9-.6zM93 84.5c0 .1 0 .1 0 0l-.7.1c-.7 0-1-.4-1-.9v-.2l.2-1.9-.8-.1c-.1 0-.1 0-.1-.1v-.5l.1-.1h.8v-.4c0-.1 0-.1.1-.2l.5-.3h.1c.1 0 .1 0 .1.1l-.1.8h.9s.1 0 .1.1l-.1.6-.1.1h-.9c-.1.7-.2 1.8-.2 2 0 .2.1.3.4.3h.7s.1 0 .1.1l-.1.5zM97.2 84.5c0 .1-.1.1 0 0l-.7.1s-.1 0-.1-.1c0 0 0-.1.1-1l-.4.6c-.3.4-.6.6-1.2.6h-.1c-.6 0-1-.4-1-1v-.1l.1-1.1c.1-1 .7-1.7 1.7-1.7h.1c.4 0 .8.1 1 .3v-.2s0-.1.1-.1h.6s.1 0 .1.1l-.3 3.6zm-1.4-1l.7-.9.1-.8c-.3-.2-.5-.3-.9-.3h-.1c-.6 0-.9.4-1 1l-.1 1.1v.1c0 .2.1.4.3.4h.2c.3-.1.6-.3.8-.6z"/></g><path fill="none" stroke="#D25CA2" stroke-miterlimit="10" stroke-dasharray="3" d="M2.8 68.3s9.8 1 16.1-7.9C26.2 50 30.6 30 41.7 30h.3c11.1 0 15.3 20.3 22.5 30.7 6.3 8.9 15.8 8.3 15.8 8.3H126"/><path fill="none" stroke="#000" stroke-miterlimit="10" stroke-dasharray="3" d="M126.7 68.3s-9.5 1-15.7-8C103.7 50 99.6 30 88.5 30h-.3C77 30 72.9 50.3 65.6 60.7c-6.3 9-15.8 8.3-15.8 8.3H3"/><path fill="none" stroke="#D25CA2" stroke-miterlimit="10" stroke-dasharray="3" d="M143.6 67.4s9.7 1 16-8C166.9 49 171.3 29 182.4 29h.3c11.1 0 15.3 20.3 22.5 30.7C211.5 68.6 221 68 221 68h46"/><path fill="none" stroke="#000" stroke-width="2" stroke-miterlimit="10" d="M126.7 68.1s-9.5 1-15.7-8c-7.3-10.4-11.6-30.4-22.5-30.4S72.2 39 64 39c-8.1 0-11.7-9.4-22.3-9.4S26.3 49.7 19 60.1C12.7 69 3 68 3 68"/><path fill="none" stroke="#D25CA2" stroke-miterlimit="10" stroke-dasharray="3" d="M125.9 67.9s-9.4.6-15.6-3.9C103.1 58.9 99 49 88 49h-.3c-11 0-11.9 7.7-22.7 7.7-10.9 0-12-7.7-23-7.7h-.3c-11 0-15.1 9.9-22.3 15-6.2 4.4-15.6 4-15.6 4M3.4 67.6s8.4-.6 14.6-5C25.3 57.4 30.6 37 41.7 37h.3c11.1 0 16.6 27.3 27.6 27.3 8.9 0 13.8-4.4 27.1-4.4 0 0 9.6-.2 16.9 5 6.3 4.5 13.2 2.8 13.2 2.8"/><g fill="none" stroke="#000" stroke-miterlimit="10"><path d="M126.8 67.6s-.6-.1-1.5-.2"/><path stroke-dasharray="3.0419,3.0419" d="M122.4 66.8c-2.9-.7-6.9-1.8-10.2-4.2C104.9 57.4 99.6 37 88.5 37h-.3C77 37 71.5 64.3 60.6 64.3c-8.9 0-13.8-4.4-27.1-4.4 0 0-9.6-.2-16.9 5-3.7 2.6-7.6 3.1-10.2 3"/><path d="M4.9 67.8c-.9-.1-1.5-.2-1.5-.2"/></g><g enable-background="new"><path d="M84.7 12.2s-.1 0 0 0l-1 .1c-.1 0-.1 0-.1-.1l-1.2-2.8c-.2-.4-.4-1.1-.5-1.5v.9c0 .4 0 .7-.1 1.1l-.2 2.3s0 .1-.1.1h-.6c-.1 0-.1 0-.1-.1l.5-4.8s0-.1.1-.1h.8c.1 0 .1 0 .1.1l1.2 2.8c.2.5.4 1.1.6 1.5 0-.8 0-1.5.1-2.1l.2-2.3.1-.1h.6s.1 0 .1.1l-.5 4.9zM89.1 10.7c-.1.9-.6 1.6-1.6 1.6H87c-.7 0-1.2-.4-1.2-1.1V11l.1-.8c.1-.9.6-1.6 1.6-1.6h.4c.7 0 1.2.4 1.2 1.1v1zm-.7-.8v-.1c0-.4-.2-.5-.6-.5h-.3c-.5 0-.9.4-.9.9l-.1.8v.1c0 .4.2.5.6.5h.3c.5 0 .9-.4.9-.9l.1-.8zM90.1 8.8s.1-.1 0 0l.7-.1s.1 0 .1.1l-.3 2.5v.1c0 .2.1.3.2.3h.1c.3 0 .4-.2.6-.5l.7-1.1.1-1.3.1-.1h.6s.1 0 .1.1l-.2 2.3v.3c0 .2.1.3.3.3h.1c.4 0 .7-.2.8-.5.2-.4.3-1.1.4-1.8l.1-.6s0-.1.1-.1h.6s.1 0 .1.1c0 0 0 .1-.1.7-.1.9-.2 1.6-.6 2.1-.3.5-.7.7-1.5.7H93c-.5 0-.9-.3-.9-.9v-.2l-.2.4c-.2.4-.4.7-1 .7h-.3c-.5 0-.8-.3-.8-.8v-.2l.3-2.5z"/></g><g enable-background="new"><path d="M34.4 8.7c0 .1 0 .1 0 0l-2.2.1c-.1 0-.1 0-.1-.1l.1-.5.1-.1h.7l.4-3.6h-.7c-.1 0-.1 0-.1-.1l.1-.5s0-.1.1-.1h1.4c.1 0 .1.1.1.1l-.4 4.2h.7s.1 0 .1.1l-.3.5zM37.9 6.6l.4-.7c.3-.5.5-.7 1-.7h.2c.5 0 .7.3.7.8V6.6l.4-.7c.3-.5.5-.7 1-.7h.2c.5 0 .7.3.7.8v.2l-.3 2.5-.1.1h-.6c-.1 0-.1 0-.1-.1.1-.9.3-2.6.3-2.7 0-.1-.1-.2-.2-.2h-.1c-.2 0-.4.2-.7.6l-.8 1.1.1 1.2-.1.1h-.6c-.1 0-.1 0-.1-.1.1-.9.3-2.6.3-2.7 0-.1-.1-.2-.2-.2h-.1c-.2 0-.4.2-.7.6l-.8 1.1-.1 1.2s0 .1-.1.1H37s-.1 0-.1-.1l.3-3.4s0-.1.1-.1h.7s.1 0 .1.1l-.2 1.3zM44.6 8.7c0 .1-.1.1 0 0l-.7.1c-.1 0-.1 0-.1-.1l.3-2.7-.7-.2c-.1 0-.1 0-.1-.1v-.4s0-.1.1-.1h1.4s.1 0 .1.1l-.3 3.4zm.5-4.4c0 .1 0 .1 0 0l-.8.1c-.1 0-.1 0-.1-.1l.1-.7.1-.1h.7s.1 0 .1.1l-.1.7zM49 8.7c0 .1-.1.1 0 0l-.7.1c-.1 0-.1 0-.1-.1l.2-2.3v-.3c0-.2-.1-.3-.2-.3h-.1c-.2 0-.4.2-.8.7l-.8 1.1-.1 1.1s0 .1-.1.1h-.6s-.1 0-.1-.1l.3-3.4s0-.1.1-.1h.6s.1 0 .1.1l-.1 1.3.5-.7c.3-.5.5-.7 1.1-.7h.2c.5 0 .8.3.8.8v.2L49 8.7zM38.1 17.4c0 .1 0 .1 0 0l-.7.1s-.1 0-.1-.1c0 0 0-.1.1-1l-.3.6c-.2.4-.6.6-1.1.6h-.1c-.5 0-.9-.3-.9-.9v-.1l.1-1c.1-.9.6-1.6 1.6-1.6h.1c.3 0 .7.1 1 .3v-.1s0-.1.1-.1h.6s.1 0 .1.1l-.5 3.2zm-1.2-1l.7-.9.1-.8c-.3-.2-.5-.2-.8-.2h-.1c-.5 0-.9.4-.9.9l-.1 1v.1c0 .2.1.4.3.4h.1c.2 0 .4-.2.7-.5zM42.4 17.2c-.1.9-.6 1.6-1.6 1.6h-1.6s-.1 0-.1-.1l.1-.5c0-.1 0-.1.1-.1h1.5c.5 0 .8-.4.9-.9l.1-.8-.5.6c-.3.4-.5.6-1.1.6h-.1c-.5 0-.9-.3-.9-.9v-.1l.1-1c.1-.9.6-1.6 1.6-1.6h.1c.3 0 .7.1 1 .3v-.1s0-.1.1-.1h.6s.1 0 .1.1l-.4 3zm-1.3-.8l.7-.9.1-.7c-.3-.2-.5-.2-.8-.2H41c-.5 0-.9.4-.9.9 0 .4-.1 1-.1 1.1 0 .2.1.4.3.4h.1c.3-.1.5-.3.7-.6zM46.7 16c-.1.9-.6 1.6-1.6 1.6h-.4c-.7 0-1.2-.4-1.2-1.1v-.2l.1-.8c.1-.9.6-1.6 1.6-1.6h.4c.7 0 1.2.4 1.2 1.1v.2l-.1.8zm-.7-.8v-.1c0-.4-.2-.5-.6-.5h-.3c-.5 0-.9.4-.9.9l-.1.8v.1c0 .4.2.5.6.5h.3c.5 0 .9-.4.9-.9l.1-.8z"/></g><path fill="none" stroke="#000" stroke-miterlimit="10" d="M227.5 21.5v8M182.5 21.5v8"/><g enable-background="new"><path d="M224.5 12.2s-.1 0 0 0l-1 .1c-.1 0-.1 0-.1-.1l-1.2-2.8c-.2-.4-.4-1.1-.5-1.5v.9c0 .4 0 .7-.1 1.1l-.2 2.3s0 .1-.1.1h-.6c-.1 0-.1 0-.1-.1l.5-4.8s0-.1.1-.1h.8c.1 0 .1 0 .1.1l1.2 2.8c.2.5.4 1.1.6 1.5 0-.8 0-1.5.1-2.1l.2-2.3.1-.1h.6s.1 0 .1.1l-.5 4.9zM228.9 10.7c-.1.9-.6 1.6-1.6 1.6h-.4c-.7 0-1.2-.4-1.2-1.1V11l.1-.8c.1-.9.6-1.6 1.6-1.6h.4c.7 0 1.2.4 1.2 1.1v.2l-.1.8zm-.7-.8v-.1c0-.4-.2-.5-.6-.5h-.3c-.5 0-.9.4-.9.9l-.1.8v.1c0 .4.2.5.6.5h.3c.5 0 .9-.4.9-.9l.1-.8zM229.9 8.8s.1-.1 0 0l.7-.1s.1 0 .1.1l-.3 2.5v.1c0 .2.1.3.2.3h.1c.3 0 .4-.2.6-.5l.7-1.1.1-1.3.1-.1h.6s.1 0 .1.1l-.2 2.3v.3c0 .2.1.3.3.3h.1c.4 0 .7-.2.8-.5.2-.4.3-1.1.4-1.8l.1-.6s0-.1.1-.1h.6s.1 0 .1.1c0 0 0 .1-.1.7-.1.9-.2 1.6-.6 2.1-.3.5-.7.7-1.5.7h-.2c-.5 0-.9-.3-.9-.9v-.2l-.2.4c-.2.4-.4.7-1 .7h-.3c-.5 0-.8-.3-.8-.8v-.2l.3-2.5z"/></g><g enable-background="new"><path d="M176.2 8.7c0 .1 0 .1 0 0l-2.2.1c-.1 0-.1 0-.1-.1l.1-.5.1-.1h.7l.4-3.6h-.7c-.1 0-.1 0-.1-.1l.1-.5s0-.1.1-.1h1.4c.1 0 .1.1.1.1l-.4 4.2h.7s.1 0 .1.1l-.3.5zM179.7 6.6l.4-.7c.3-.5.5-.7 1-.7h.2c.5 0 .7.3.7.8V6.6l.4-.7c.3-.5.5-.7 1-.7h.2c.5 0 .7.3.7.8v.2l-.3 2.5-.1.1h-.6c-.1 0-.1 0-.1-.1.1-.9.3-2.6.3-2.7 0-.1-.1-.2-.2-.2h-.1c-.2 0-.4.2-.7.6l-.8 1.1-.1 1.2-.1.1h-.6c-.1 0-.1 0-.1-.1.1-.9.3-2.6.3-2.7 0-.1-.1-.2-.2-.2h-.1c-.2 0-.4.2-.7.6l-.8 1.1-.1 1.2s0 .1-.1.1h-.6s-.1 0-.1-.1l.3-3.4s0-.1.1-.1h.6s.1 0 .1.1l.2 1.3zM186.4 8.7c0 .1-.1.1 0 0l-.7.1c-.1 0-.1 0-.1-.1l.3-2.8-.7-.2c-.1 0-.1 0-.1-.1v-.4s0-.1.1-.1h1.4s.1 0 .1.1l-.3 3.5zm.5-4.4c0 .1 0 .1 0 0l-.8.1c-.1 0-.1 0-.1-.1l.1-.7.1-.1h.7s.1 0 .1.1l-.1.7zM190.8 8.7c0 .1-.1.1 0 0l-.7.1c-.1 0-.1 0-.1-.1l.2-2.3v-.3c0-.2-.1-.3-.2-.3-.2 0-.4.2-.8.7l-.8 1.1-.1 1.1s0 .1-.1.1h-.6s-.1 0-.1-.1l.3-3.4s0-.1.1-.1h.6s.1 0 .1.1l-.1 1.3.5-.7c.3-.5.5-.7 1.1-.7h.2c.5 0 .8.3.8.8v.2l-.3 2.5zM179.9 17.4c0 .1 0 .1 0 0l-.7.1s-.1 0-.1-.1c0 0 0-.1.1-1l-.4.5c-.2.4-.6.6-1.1.6h-.1c-.5 0-.9-.3-.9-.9v-.1l.1-1c.1-.9.6-1.6 1.6-1.6h.1c.3 0 .7.1 1 .3v-.1s0-.1.1-.1h.6s.1 0 .1.1l-.4 3.3zm-1.2-1l.7-.9.1-.8c-.3-.2-.5-.2-.8-.2h-.1c-.5 0-.9.4-.9.9l-.1 1v.1c0 .2.1.4.3.4h.1c.2 0 .4-.2.7-.5zM184.2 17.2c-.1.9-.6 1.6-1.6 1.6H181s-.1 0-.1-.1l.1-.5c0-.1 0-.1.1-.1h1.5c.5 0 .8-.4.9-.9l.1-.8-.4.5c-.3.4-.5.6-1.1.6h-.1c-.5 0-.9-.3-.9-.9v-.1l.1-1c.1-.9.6-1.6 1.6-1.6h.1c.3 0 .7.1 1 .3v-.1s0-.1.1-.1h.6s.1 0 .1.1l-.5 3.1zm-1.3-.8l.7-.9.1-.7c-.3-.2-.5-.2-.9-.2h-.1c-.5 0-.9.4-.9.9 0 .4-.1 1-.1 1.1 0 .2.1.4.3.4h.1c.3-.1.6-.3.8-.6zM188.5 16c-.1.9-.6 1.6-1.6 1.6h-.4c-.7 0-1.2-.4-1.2-1.1v-.2l.1-.8c.1-.9.6-1.6 1.6-1.6h.4c.7 0 1.2.4 1.2 1.1v.2l-.1.8zm-.7-.8v-.1c0-.4-.2-.5-.6-.5h-.2c-.5 0-.9.4-.9.9l-.1.8v.1c0 .4.2.5.6.5h.3c.5 0 .9-.4.9-.9v-.8z"/></g><path fill="none" stroke="#000" stroke-width="2" stroke-miterlimit="10" d="M267.6 68.1s-9.6 1.3-15.8-7.6c-7.3-10.4-11.5-30-22.6-30h-.4c-11.1 0-15.3 20.3-22.5 30.7-6.3 8.9-15.8 8.3-15.8 8.3H144"/></svg>