<?xml version="1.0" encoding="utf-8"?>
<!-- Generator: Adobe Illustrator 18.0.0, SVG Export Plug-In . SVG Version: 6.00 Build 0)  -->
<!DOCTYPE svg PUBLIC "-//W3C//DTD SVG 1.1//EN" "http://www.w3.org/Graphics/SVG/1.1/DTD/svg11.dtd">
<svg version="1.1" id="Layer_1" xmlns="http://www.w3.org/2000/svg" xmlns:xlink="http://www.w3.org/1999/xlink" x="0px" y="0px"
	 viewBox="0 0 288 108" enable-background="new 0 0 288 108" xml:space="preserve">
<text transform="matrix(1 0 0 1 225.2856 29.668)" font-family="'ChambersSansOT-BoldItalic'" font-size="10.2433">8</text>
<text transform="matrix(1 0 0 1 223.3291 75.001)" font-family="'ChambersSansOT-BoldItalic'" font-size="10.2433">15</text>
<rect x="72" y="18" fill="none" stroke="#000000" stroke-width="2" stroke-miterlimit="10" width="144" height="18"/>
<rect x="72" y="64" fill="none" stroke="#000000" stroke-width="2" stroke-miterlimit="10" width="144" height="18"/>
<circle fill="#CE59A0" stroke="#CE59A0" stroke-width="1.9991" stroke-miterlimit="10" cx="117.5" cy="27" r="1.6"/>
<circle fill="#CE59A0" stroke="#CE59A0" stroke-width="1.9991" stroke-miterlimit="10" cx="81.5" cy="27" r="1.6"/>
<circle fill="#CE59A0" stroke="#CE59A0" stroke-width="1.9991" stroke-miterlimit="10" cx="99.5" cy="27" r="1.6"/>
<circle fill="#CE59A0" stroke="#CE59A0" stroke-width="1.9991" stroke-miterlimit="10" cx="135.5" cy="27" r="1.6"/>
<circle fill="#CE59A0" stroke="#CE59A0" stroke-width="1.9991" stroke-miterlimit="10" cx="153.5" cy="27" r="1.6"/>
<circle fill="#FFFFFF" stroke="#231F20" stroke-width="1.9991" stroke-miterlimit="10" cx="189.5" cy="27" r="1.6"/>
<circle fill="#FFFFFF" stroke="#231F20" stroke-width="1.9991" stroke-miterlimit="10" cx="171.5" cy="27" r="1.6"/>
<circle fill="#FFFFFF" stroke="#231F20" stroke-width="1.9991" stroke-miterlimit="10" cx="207.5" cy="27" r="1.6"/>
<circle fill="#CE59A0" stroke="#CE59A0" stroke-width="1.9991" stroke-miterlimit="10" cx="108.6" cy="73" r="1.6"/>
<circle fill="#CE59A0" stroke="#CE59A0" stroke-width="1.9991" stroke-miterlimit="10" cx="81.5" cy="73" r="1.6"/>
<circle fill="#FFFFFF" stroke="#231F20" stroke-width="1.9991" stroke-miterlimit="10" cx="126.1" cy="73" r="1.6"/>
<circle fill="#FFFFFF" stroke="#231F20" stroke-width="1.9991" stroke-miterlimit="10" cx="135.1" cy="73" r="1.6"/>
<circle fill="#FFFFFF" stroke="#231F20" stroke-width="1.9991" stroke-miterlimit="10" cx="152.9" cy="73" r="1.6"/>
<circle fill="#FFFFFF" stroke="#231F20" stroke-width="1.9991" stroke-miterlimit="10" cx="179.7" cy="73" r="1.6"/>
<circle fill="#FFFFFF" stroke="#231F20" stroke-width="1.9991" stroke-miterlimit="10" cx="170.8" cy="73" r="1.6"/>
<circle fill="#FFFFFF" stroke="#231F20" stroke-width="1.9991" stroke-miterlimit="10" cx="206.5" cy="73" r="1.6"/>
<circle fill="#CE59A0" stroke="#CE59A0" stroke-width="1.9991" stroke-miterlimit="10" cx="90.2" cy="73" r="1.6"/>
<circle fill="#CE59A0" stroke="#CE59A0" stroke-width="1.9991" stroke-miterlimit="10" cx="99.4" cy="73" r="1.6"/>
<circle fill="#CE59A0" stroke="#CE59A0" stroke-width="1.9991" stroke-miterlimit="10" cx="117.4" cy="73" r="1.6"/>
<circle fill="#FFFFFF" stroke="#231F20" stroke-width="1.9991" stroke-miterlimit="10" cx="144" cy="73" r="1.6"/>
<circle fill="#FFFFFF" stroke="#231F20" stroke-width="1.9991" stroke-miterlimit="10" cx="161.9" cy="73" r="1.6"/>
<circle fill="#FFFFFF" stroke="#231F20" stroke-width="1.9991" stroke-miterlimit="10" cx="197.6" cy="73" r="1.6"/>
<circle fill="#FFFFFF" stroke="#231F20" stroke-width="1.9991" stroke-miterlimit="10" cx="188.6" cy="73" r="1.6"/>
<g>
	<g>
		
			<line fill="#CE59A0" stroke="#CE59A0" stroke-width="2" stroke-linecap="round" stroke-miterlimit="10" x1="153" y1="33" x2="153" y2="44"/>
		
			<line fill="#CE59A0" stroke="#CE59A0" stroke-width="2" stroke-linecap="round" stroke-miterlimit="10" x1="153" y1="10" x2="153" y2="21"/>
	</g>
	<g>
		
			<line fill="none" stroke="#EC008B" stroke-width="2" stroke-linecap="round" stroke-miterlimit="10" x1="153" y1="33" x2="153" y2="44"/>
		
			<line fill="none" stroke="#EC008B" stroke-width="2" stroke-linecap="round" stroke-miterlimit="10" x1="153" y1="10" x2="153" y2="21"/>
	</g>
</g>
<g>
	<g>
		
			<line fill="#CE59A0" stroke="#CE59A0" stroke-width="2" stroke-linecap="round" stroke-miterlimit="10" x1="117" y1="79" x2="117" y2="90"/>
		
			<line fill="#CE59A0" stroke="#CE59A0" stroke-width="2" stroke-linecap="round" stroke-miterlimit="10" x1="117" y1="56" x2="117" y2="67"/>
	</g>
	<g>
		
			<line fill="none" stroke="#EC008B" stroke-width="2" stroke-linecap="round" stroke-miterlimit="10" x1="117" y1="79" x2="117" y2="90"/>
		
			<line fill="none" stroke="#EC008B" stroke-width="2" stroke-linecap="round" stroke-miterlimit="10" x1="117" y1="56" x2="117" y2="67"/>
	</g>
</g>
</svg>
