<?xml version="1.0" encoding="utf-8"?>
<!-- Generator: Adobe Illustrator 18.0.0, SVG Export Plug-In . SVG Version: 6.00 Build 0)  -->
<!DOCTYPE svg PUBLIC "-//W3C//DTD SVG 1.1//EN" "http://www.w3.org/Graphics/SVG/1.1/DTD/svg11.dtd">
<svg version="1.1" id="Layer_1" xmlns="http://www.w3.org/2000/svg" xmlns:xlink="http://www.w3.org/1999/xlink" x="0px" y="0px"
	 viewBox="0 0 323.9 217.7" enable-background="new 0 0 323.9 217.7" xml:space="preserve">
<line fill="none" stroke="#DCDDDE" stroke-miterlimit="10" x1="19" y1="12.5" x2="307" y2="12.5"/>
<line fill="none" stroke="#DCDDDE" stroke-miterlimit="10" x1="19" y1="30.5" x2="307" y2="30.5"/>
<line fill="none" stroke="#DCDDDE" stroke-miterlimit="10" x1="19" y1="48.5" x2="307" y2="48.5"/>
<line fill="none" stroke="#DCDDDE" stroke-miterlimit="10" x1="19" y1="66.5" x2="307" y2="66.5"/>
<line fill="none" stroke="#DCDDDE" stroke-miterlimit="10" x1="19" y1="85.5" x2="307" y2="85.5"/>
<line fill="none" stroke="#DCDDDE" stroke-miterlimit="10" x1="19" y1="103.5" x2="307" y2="103.5"/>
<line fill="none" stroke="#DCDDDE" stroke-miterlimit="10" x1="19" y1="121.5" x2="307" y2="121.5"/>
<line fill="none" stroke="#DCDDDE" stroke-miterlimit="10" x1="19" y1="139.5" x2="307" y2="139.5"/>
<line fill="none" stroke="#DCDDDE" stroke-miterlimit="10" x1="163.5" y1="12" x2="163.5" y2="157"/>
<line fill="none" stroke="#DCDDDE" stroke-miterlimit="10" x1="145.5" y1="12" x2="145.5" y2="157"/>
<line fill="none" stroke="#DCDDDE" stroke-miterlimit="10" x1="127.5" y1="12" x2="127.5" y2="157"/>
<line fill="none" stroke="#DCDDDE" stroke-miterlimit="10" x1="109.5" y1="12" x2="109.5" y2="157"/>
<line fill="none" stroke="#DCDDDE" stroke-miterlimit="10" x1="91.5" y1="12" x2="91.5" y2="157"/>
<line fill="none" stroke="#DCDDDE" stroke-miterlimit="10" x1="73.5" y1="12" x2="73.5" y2="157"/>
<line fill="none" stroke="#DCDDDE" stroke-miterlimit="10" x1="55.5" y1="12" x2="55.5" y2="157"/>
<line fill="none" stroke="#DCDDDE" stroke-miterlimit="10" x1="37.5" y1="12" x2="37.5" y2="157"/>
<line fill="none" stroke="#DCDDDE" stroke-miterlimit="10" x1="289.5" y1="12" x2="289.5" y2="157"/>
<line fill="none" stroke="#DCDDDE" stroke-miterlimit="10" x1="307.5" y1="12" x2="307.5" y2="157"/>
<line fill="none" stroke="#DCDDDE" stroke-miterlimit="10" x1="271.5" y1="12" x2="271.5" y2="157"/>
<line fill="none" stroke="#DCDDDE" stroke-miterlimit="10" x1="253.5" y1="12" x2="253.5" y2="157"/>
<line fill="none" stroke="#DCDDDE" stroke-miterlimit="10" x1="235.5" y1="12" x2="235.5" y2="157"/>
<line fill="none" stroke="#DCDDDE" stroke-miterlimit="10" x1="217.5" y1="12" x2="217.5" y2="157"/>
<line fill="none" stroke="#DCDDDE" stroke-miterlimit="10" x1="199.5" y1="12" x2="199.5" y2="157"/>
<line fill="none" stroke="#DCDDDE" stroke-miterlimit="10" x1="181.5" y1="12" x2="181.5" y2="157"/>
<text transform="matrix(1 0 0 1 76.4995 178.7065)" fill="#231F20" font-family="'ChambersSansOT-BoldItalic'" font-size="9.4716">Morris counter 0</text>
<text transform="matrix(1 0 0 1 76.4995 191.3726)" fill="#231F20" font-family="'ChambersSansOT-BoldItalic'" font-size="9.4716">Morris counter 1</text>
<text transform="matrix(1 0 0 1 76.4995 204.0396)" fill="#231F20" font-family="'ChambersSansOT-BoldItalic'" font-size="9.4716">Morris counter 2</text>
<text transform="matrix(1 0 0 1 218.6655 180.0396)" fill="#EA118D" font-family="'ChambersSansOT-BoldItalic'" font-size="9.4716">integer counter</text>
<line fill="none" stroke="#231F20" stroke-width="3" stroke-linecap="round" stroke-miterlimit="10" x1="174" y1="177.5" x2="209" y2="177.5"/>
<line fill="none" stroke="#EA118D" stroke-miterlimit="10" stroke-dasharray="6,4" x1="30" y1="175.5" x2="65" y2="175.5"/>
<line fill="none" stroke="#EA118D" stroke-width="2" stroke-miterlimit="10" stroke-dasharray="6,4" x1="30" y1="189" x2="65" y2="189"/>
<line fill="none" stroke="#EA118D" stroke-width="3" stroke-miterlimit="10" stroke-dasharray="6,4" x1="30" y1="201.5" x2="65" y2="201.5"/>
<g>
	<g>
		<line fill="none" stroke="#EA118D" stroke-miterlimit="10" x1="306" y1="14.5" x2="303" y2="14.5"/>
		<line fill="none" stroke="#EA118D" stroke-miterlimit="10" stroke-dasharray="6,4" x1="299" y1="14.5" x2="222" y2="14.5"/>
		<polyline fill="none" stroke="#EA118D" stroke-miterlimit="10" points="220,14.5 217.5,14.5 217.5,18 		"/>
		<line fill="none" stroke="#EA118D" stroke-miterlimit="10" stroke-dasharray="6,4" x1="217.5" y1="22" x2="217.5" y2="81"/>
		<polyline fill="none" stroke="#EA118D" stroke-miterlimit="10" points="217.5,83 217.5,85.5 214,85.5 		"/>
		<line fill="none" stroke="#EA118D" stroke-miterlimit="10" stroke-dasharray="6,4" x1="210" y1="85.5" x2="122" y2="85.5"/>
		<polyline fill="none" stroke="#EA118D" stroke-miterlimit="10" points="120,85.5 117.5,85.5 117.5,89 		"/>
		<line fill="none" stroke="#EA118D" stroke-miterlimit="10" stroke-dasharray="5,4" x1="117.5" y1="92" x2="117.5" y2="117"/>
		<polyline fill="none" stroke="#EA118D" stroke-miterlimit="10" points="117.5,119 117.5,121.5 114,121.5 		"/>
		<line fill="none" stroke="#EA118D" stroke-miterlimit="10" stroke-dasharray="5,4" x1="111" y1="121.5" x2="76" y2="121.5"/>
		<polyline fill="none" stroke="#EA118D" stroke-miterlimit="10" points="74,121.5 71.5,121.5 71.5,125 		"/>
		<line fill="none" stroke="#EA118D" stroke-miterlimit="10" stroke-dasharray="5,3" x1="71.5" y1="128" x2="71.5" y2="135"/>
		<polyline fill="none" stroke="#EA118D" stroke-miterlimit="10" points="71.5,137 71.5,139.5 68,139.5 		"/>
		<line fill="none" stroke="#EA118D" stroke-miterlimit="10" stroke-dasharray="5,3" x1="65" y1="139.5" x2="58" y2="139.5"/>
		<polyline fill="none" stroke="#EA118D" stroke-miterlimit="10" points="56,139.5 53.5,139.5 53.5,143 		"/>
		<polyline fill="none" stroke="#EA118D" stroke-miterlimit="10" points="53.5,146 53.5,148.5 50,148.5 		"/>
		<line fill="none" stroke="#EA118D" stroke-miterlimit="10" stroke-dasharray="4,3" x1="48" y1="148.5" x2="43" y2="148.5"/>
		<polyline fill="none" stroke="#EA118D" stroke-miterlimit="10" points="41,148.5 38.5,148.5 38.5,152 		"/>
		<polyline fill="none" stroke="#EA118D" stroke-miterlimit="10" points="38.5,152 38.5,154.5 35,154.5 		"/>
		<polyline fill="none" stroke="#EA118D" stroke-miterlimit="10" points="30,154.5 27.5,154.5 27.5,157.5 24,157.5 		"/>
		<line fill="none" stroke="#EA118D" stroke-miterlimit="10" x1="22" y1="157.5" x2="19" y2="157.5"/>
	</g>
</g>
<g>
	<g>
		<line fill="none" stroke="#EA118D" stroke-width="2" stroke-miterlimit="10" x1="306" y1="14" x2="303" y2="14"/>
		
			<line fill="none" stroke="#EA118D" stroke-width="2" stroke-miterlimit="10" stroke-dasharray="6,4" x1="299" y1="14" x2="238" y2="14"/>
		<polyline fill="none" stroke="#EA118D" stroke-width="2" stroke-miterlimit="10" points="236,14 233,14 233,17 		"/>
		
			<line fill="none" stroke="#EA118D" stroke-width="2" stroke-miterlimit="10" stroke-dasharray="6,4" x1="233" y1="21" x2="233" y2="80"/>
		<polyline fill="none" stroke="#EA118D" stroke-width="2" stroke-miterlimit="10" points="233,82 233,85 230,85 		"/>
		
			<line fill="none" stroke="#EA118D" stroke-width="2" stroke-miterlimit="10" stroke-dasharray="6,4" x1="226" y1="85" x2="165" y2="85"/>
		<polyline fill="none" stroke="#EA118D" stroke-width="2" stroke-miterlimit="10" points="163,85 160,85 160,88 		"/>
		
			<line fill="none" stroke="#EA118D" stroke-width="2" stroke-miterlimit="10" stroke-dasharray="5,4" x1="160" y1="92" x2="160" y2="116"/>
		<polyline fill="none" stroke="#EA118D" stroke-width="2" stroke-miterlimit="10" points="160,118 160,121 157,121 		"/>
		
			<line fill="none" stroke="#EA118D" stroke-width="2" stroke-miterlimit="10" stroke-dasharray="6,4" x1="153" y1="121" x2="93" y2="121"/>
		<polyline fill="none" stroke="#EA118D" stroke-width="2" stroke-miterlimit="10" points="91,121 88,121 88,124 		"/>
		
			<line fill="none" stroke="#EA118D" stroke-width="2" stroke-miterlimit="10" stroke-dasharray="6,4" x1="88" y1="128" x2="88" y2="137"/>
		<polyline fill="none" stroke="#EA118D" stroke-width="2" stroke-miterlimit="10" points="88,139 88,142 85,142 		"/>
		
			<line fill="none" stroke="#EA118D" stroke-width="2" stroke-miterlimit="10" stroke-dasharray="5,3" x1="82" y1="142" x2="75" y2="142"/>
		<polyline fill="none" stroke="#EA118D" stroke-width="2" stroke-miterlimit="10" points="73,142 70,142 70,145 		"/>
		<polyline fill="none" stroke="#EA118D" stroke-width="2" stroke-miterlimit="10" points="70,145 70,148.1 67,148.1 		"/>
		
			<line fill="none" stroke="#EA118D" stroke-width="2" stroke-miterlimit="10" stroke-dasharray="7.1792,4.7861" x1="62.2" y1="148.2" x2="52.6" y2="148.3"/>
		<polyline fill="none" stroke="#EA118D" stroke-width="2" stroke-miterlimit="10" points="50.2,148.4 47.2,148.4 47.3,151.4 		"/>
		<polyline fill="none" stroke="#EA118D" stroke-width="2" stroke-miterlimit="10" points="47.3,151.8 47.4,154.8 44.4,154.7 		"/>
		<polyline fill="none" stroke="#EA118D" stroke-width="2" stroke-miterlimit="10" points="38,154.5 35,154.6 35,157 32,157 		"/>
		
			<line fill="none" stroke="#EA118D" stroke-width="2" stroke-miterlimit="10" stroke-dasharray="4,3" x1="29" y1="157" x2="23" y2="157"/>
		<line fill="none" stroke="#EA118D" stroke-width="2" stroke-miterlimit="10" x1="22" y1="157" x2="19" y2="157"/>
	</g>
</g>
<g>
	<g>
		<line fill="none" stroke="#EA118D" stroke-width="3" stroke-miterlimit="10" x1="306" y1="85.5" x2="303" y2="85.5"/>
		
			<line fill="none" stroke="#EA118D" stroke-width="3" stroke-miterlimit="10" stroke-dasharray="7,4" x1="299" y1="85.5" x2="257" y2="85.5"/>
		<polyline fill="none" stroke="#EA118D" stroke-width="3" stroke-miterlimit="10" points="254,85.5 251.5,85.5 251.5,89 		"/>
		
			<line fill="none" stroke="#EA118D" stroke-width="3" stroke-miterlimit="10" stroke-dasharray="5,4" x1="251.5" y1="92" x2="251.5" y2="117"/>
		<polyline fill="none" stroke="#EA118D" stroke-width="3" stroke-miterlimit="10" points="251.5,119 251.5,121.5 248,121.5 		"/>
		
			<line fill="none" stroke="#EA118D" stroke-width="3" stroke-miterlimit="10" stroke-dasharray="6,4" x1="245" y1="121.5" x2="148" y2="121.5"/>
		<polyline fill="none" stroke="#EA118D" stroke-width="3" stroke-miterlimit="10" points="146,121.5 143.5,121.5 143.5,125 		"/>
		
			<line fill="none" stroke="#EA118D" stroke-width="3" stroke-miterlimit="10" stroke-dasharray="6,4" x1="143.5" y1="128" x2="143.5" y2="136"/>
		<polyline fill="none" stroke="#EA118D" stroke-width="3" stroke-miterlimit="10" points="143.5,138 143.5,140.5 140,140.5 		"/>
		
			<line fill="none" stroke="#EA118D" stroke-width="3" stroke-miterlimit="10" stroke-dasharray="5,4" x1="137" y1="140.5" x2="103" y2="140.5"/>
		<polyline fill="none" stroke="#EA118D" stroke-width="3" stroke-miterlimit="10" points="101,140.5 98.5,140.5 98.5,144 		"/>
		<polyline fill="none" stroke="#EA118D" stroke-width="3" stroke-miterlimit="10" points="98.5,146 98.5,148.5 95,148.5 		"/>
		
			<line fill="none" stroke="#EA118D" stroke-width="3" stroke-miterlimit="10" stroke-dasharray="7,5" x1="91" y1="148.5" x2="70" y2="148.5"/>
		<polyline fill="none" stroke="#EA118D" stroke-width="3" stroke-miterlimit="10" points="67,148.5 64.5,148.5 64.5,152 		"/>
		<polyline fill="none" stroke="#EA118D" stroke-width="3" stroke-miterlimit="10" points="64.5,152 64.5,154.5 61,154.5 		"/>
		
			<line fill="none" stroke="#EA118D" stroke-width="3" stroke-miterlimit="10" stroke-dasharray="5,3" x1="58" y1="154.5" x2="44" y2="154.5"/>
		<polyline fill="none" stroke="#EA118D" stroke-width="3" stroke-miterlimit="10" points="42,154.5 39.5,154.5 39.5,156.5 
			36,156.5 		"/>
		
			<line fill="none" stroke="#EA118D" stroke-width="3" stroke-miterlimit="10" stroke-dasharray="6,4" x1="32" y1="156.5" x2="24" y2="156.5"/>
		<line fill="none" stroke="#EA118D" stroke-width="3" stroke-miterlimit="10" x1="22" y1="156.5" x2="19" y2="156.5"/>
	</g>
</g>
<line fill="none" stroke="#C7C8C9" stroke-width="2" stroke-linecap="round" stroke-miterlimit="10" x1="9" y1="157" x2="307" y2="157"/>
<line fill="none" stroke="#C7C8C9" stroke-width="2" stroke-linecap="round" stroke-miterlimit="10" x1="19" y1="166" x2="19" y2="12"/>
<line fill="none" stroke="#231F20" stroke-width="3" stroke-linecap="round" stroke-miterlimit="10" x1="18.8" y1="157.2" x2="306.8" y2="31.2"/>
</svg>
