<?xml version="1.0" encoding="utf-8"?>
<!-- Generator: Adobe Illustrator 18.0.0, SVG Export Plug-In . SVG Version: 6.00 Build 0)  -->
<!DOCTYPE svg PUBLIC "-//W3C//DTD SVG 1.1//EN" "http://www.w3.org/Graphics/SVG/1.1/DTD/svg11.dtd">
<svg version="1.1" xmlns="http://www.w3.org/2000/svg" xmlns:xlink="http://www.w3.org/1999/xlink" x="0px" y="0px"
	 viewBox="0 0 288 135.5" enable-background="new 0 0 288 135.5" xml:space="preserve">
<g id="Layer_1">
</g>
<g id="Layer_2">
	<rect x="73.5" y="54.5" fill="none" stroke="#231F20" stroke-miterlimit="10" width="126" height="18"/>
	<rect x="183.5" y="56.5" fill="none" stroke="#231F20" stroke-miterlimit="10" width="14" height="14"/>
	<rect x="165.5" y="56.5" fill="#EC008C" stroke="#231F20" stroke-miterlimit="10" width="14" height="14"/>
	<rect x="147.5" y="56.5" fill="none" stroke="#231F20" stroke-miterlimit="10" width="14" height="14"/>
	<rect x="129.5" y="56.5" fill="#EC008C" stroke="#231F20" stroke-miterlimit="10" width="14" height="14"/>
	<rect x="111.5" y="56.5" fill="none" stroke="#231F20" stroke-miterlimit="10" width="14" height="14"/>
	<g>
		<rect x="93" y="56" fill="#EC008C" width="15" height="15"/>
		<rect x="93.5" y="56.5" fill="none" stroke="#231F20" stroke-miterlimit="10" width="14" height="14"/>
		<rect x="93.5" y="56.5" fill="none" stroke="#231F20" stroke-miterlimit="10" width="14" height="14"/>
	</g>
	<rect x="75.5" y="56.5" fill="#EC008C" stroke="#231F20" stroke-miterlimit="10" width="14" height="14"/>
	<polygon fill="#231F20" points="107.5,115.7 104.3,109.3 97.3,108.3 102.4,103.3 101.2,96.3 107.5,99.6 113.8,96.3 112.6,103.3 
		117.7,108.3 110.7,109.3 	"/>
	<circle fill="#231F20" cx="128.3" cy="23.2" r="9.2"/>
	<rect x="91" y="13" fill="#231F20" width="18" height="18"/>
	<polygon fill="#231F20" points="146,31 168.8,31 157,13 	"/>
	<polygon fill="#231F20" points="134,115 129,106 134,97 144,97 149,106 144,115 	"/>
</g>
<g id="Layer_3">
	<g>
		<g>
			<g>
				<rect x="82.6" y="48" transform="matrix(0.6277 -0.7785 0.7785 0.6277 -7.3002 84.736)" fill="none" width="4.6" height="3.9"/>
				<g>
					<polygon fill="#231F20" points="84.9,47 85.9,48.8 87.9,49.4 83.5,51.8 					"/>
				</g>
			</g>
		</g>
		<g>
			<line fill="none" stroke="#231F20" stroke-miterlimit="10" x1="84.9" y1="50" x2="85.9" y2="48.8"/>
			
				<line fill="none" stroke="#231F20" stroke-miterlimit="10" stroke-dasharray="2.6985,2.6985" x1="87.6" y1="46.7" x2="96.9" y2="35.2"/>
			<line fill="none" stroke="#231F20" stroke-miterlimit="10" x1="97.7" y1="34.1" x2="98.7" y2="33"/>
		</g>
	</g>
	<g>
		<g>
			<g>
				
					<rect x="129.2" y="49" transform="matrix(-0.8735 -0.4868 0.4868 -0.8735 221.5455 159.559)" fill="none" width="4.6" height="3.9"/>
				<g>
					<polygon fill="#231F20" points="128.5,51.6 130.2,50.3 130.4,48.2 133.5,52.1 					"/>
				</g>
			</g>
		</g>
		<g>
			<line fill="none" stroke="#231F20" stroke-miterlimit="10" x1="131.5" y1="51" x2="130.2" y2="50.3"/>
			
				<line fill="none" stroke="#231F20" stroke-miterlimit="10" stroke-dasharray="3.1357,3.1357" x1="127.5" y1="48.7" x2="101.4" y2="34.2"/>
			<line fill="none" stroke="#231F20" stroke-miterlimit="10" x1="100.1" y1="33.5" x2="98.7" y2="32.8"/>
		</g>
	</g>
	<g>
		<g>
			<g>
				
					<rect x="167.7" y="48.1" transform="matrix(-0.5967 -0.8024 0.8024 -0.5967 231.3748 216.4005)" fill="none" width="4.6" height="3.9"/>
				<g>
					<polygon fill="#231F20" points="167.1,49.4 169.2,48.9 170.2,47 171.4,51.9 					"/>
				</g>
			</g>
		</g>
		<g>
			<line fill="none" stroke="#231F20" stroke-miterlimit="10" x1="170.1" y1="50.1" x2="169.2" y2="48.9"/>
			
				<line fill="none" stroke="#231F20" stroke-miterlimit="10" stroke-dasharray="2.6982,2.6982" x1="167.6" y1="46.7" x2="158.7" y2="34.8"/>
			<line fill="none" stroke="#231F20" stroke-miterlimit="10" x1="157.9" y1="33.7" x2="157" y2="32.5"/>
		</g>
	</g>
	<g>
		<g>
			<g>
				
					<rect x="136.6" y="48.3" transform="matrix(0.7194 -0.6945 0.6945 0.7194 4.0611 110.5534)" fill="none" width="4.6" height="3.9"/>
				<g>
					<polygon fill="#231F20" points="139.2,47.2 139.9,49.2 141.9,50 137.2,51.9 					"/>
				</g>
			</g>
		</g>
		<g>
			<line fill="none" stroke="#231F20" stroke-miterlimit="10" x1="138.9" y1="50.2" x2="140" y2="49.2"/>
			
				<line fill="none" stroke="#231F20" stroke-miterlimit="10" stroke-dasharray="3.1707,3.1707" x1="142.2" y1="47" x2="154.8" y2="34.9"/>
			<line fill="none" stroke="#231F20" stroke-miterlimit="10" x1="155.9" y1="33.8" x2="157" y2="32.8"/>
		</g>
	</g>
	<g>
		<g>
			<g>
				
					<rect x="167.5" y="74.9" transform="matrix(-0.8509 0.5253 -0.5253 -0.8509 354.6921 53.0867)" fill="none" width="4.6" height="3.9"/>
				<g>
					<polygon fill="#231F20" points="168.9,79.8 168.5,77.7 166.8,76.4 171.8,75.7 					"/>
				</g>
			</g>
		</g>
		<g>
			<line fill="none" stroke="#231F20" stroke-miterlimit="10" x1="169.8" y1="76.9" x2="168.5" y2="77.7"/>
			
				<line fill="none" stroke="#231F20" stroke-miterlimit="10" stroke-dasharray="3.037,3.037" x1="166" y1="79.3" x2="141.4" y2="94.4"/>
			<line fill="none" stroke="#231F20" stroke-miterlimit="10" x1="140.1" y1="95.2" x2="138.8" y2="96"/>
		</g>
	</g>
	<g>
		<g>
			<g>
				
					<rect x="114.4" y="75" transform="matrix(-0.492 0.8706 -0.8706 -0.492 241.1052 13.3205)" fill="none" width="4.6" height="3.9"/>
				<g>
					<polygon fill="#231F20" points="117.2,80 115.9,78.3 113.8,78.1 117.8,75 					"/>
				</g>
			</g>
		</g>
		<g>
			<line fill="none" stroke="#231F20" stroke-miterlimit="10" x1="116.7" y1="77" x2="115.9" y2="78.3"/>
			
				<line fill="none" stroke="#231F20" stroke-miterlimit="10" stroke-dasharray="2.7166,2.7166" x1="114.6" y1="80.7" x2="107.2" y2="93.7"/>
			<line fill="none" stroke="#231F20" stroke-miterlimit="10" x1="106.6" y1="94.9" x2="105.8" y2="96.2"/>
		</g>
	</g>
	<g>
		<g>
			<g>
				
					<rect x="100.9" y="48.9" transform="matrix(0.8373 -0.5468 0.5468 0.8373 -11.0068 64.6831)" fill="none" width="4.6" height="3.9"/>
				<g>
					<polygon fill="#231F20" points="104,47.9 104.4,50 106.2,51.2 101.2,52.1 					"/>
				</g>
			</g>
		</g>
		<g>
			<line fill="none" stroke="#231F20" stroke-miterlimit="10" x1="103.2" y1="50.8" x2="104.4" y2="50"/>
			
				<line fill="none" stroke="#231F20" stroke-miterlimit="10" stroke-dasharray="2.918,2.918" x1="106.9" y1="48.4" x2="125.2" y2="36.5"/>
			<line fill="none" stroke="#231F20" stroke-miterlimit="10" x1="126.4" y1="35.7" x2="127.7" y2="34.8"/>
		</g>
	</g>
	<g>
		<g>
			<g>
				
					<rect x="163.8" y="49.2" transform="matrix(-0.9169 -0.3992 0.3992 -0.9169 298.0306 164.2779)" fill="none" width="4.6" height="3.9"/>
				<g>
					<polygon fill="#231F20" points="163.2,52 164.8,50.5 164.8,48.4 168.2,52 					"/>
				</g>
			</g>
		</g>
		<g>
			<line fill="none" stroke="#231F20" stroke-miterlimit="10" x1="166.1" y1="51.1" x2="164.7" y2="50.5"/>
			
				<line fill="none" stroke="#231F20" stroke-miterlimit="10" stroke-dasharray="2.9635,2.9635" x1="162" y1="49.3" x2="130.8" y2="35.7"/>
			<line fill="none" stroke="#231F20" stroke-miterlimit="10" x1="129.4" y1="35.1" x2="128" y2="34.5"/>
		</g>
	</g>
	<g>
		<g>
			<g>
				
					<rect x="119.6" y="75.3" transform="matrix(0.6665 0.7455 -0.7455 0.6665 98.2344 -65.0954)" fill="none" width="4.6" height="3.9"/>
				<g>
					<polygon fill="#231F20" points="124.9,77.7 122.9,78.4 122,80.3 120.3,75.5 					"/>
				</g>
			</g>
		</g>
		<g>
			<line fill="none" stroke="#231F20" stroke-miterlimit="10" x1="121.9" y1="77.2" x2="122.9" y2="78.4"/>
			
				<line fill="none" stroke="#231F20" stroke-miterlimit="10" stroke-dasharray="3.1884,3.1884" x1="125" y1="80.7" x2="136.7" y2="93.8"/>
			<line fill="none" stroke="#231F20" stroke-miterlimit="10" x1="137.8" y1="95" x2="138.8" y2="96.1"/>
		</g>
	</g>
	<polygon fill="none" stroke="#EC008B" stroke-width="2" stroke-miterlimit="10" points="207.8,12.5 195.8,24.5 190.2,18.8 
		186.6,22.4 195.8,31.6 211.4,16 	"/>
	<polygon fill="none" stroke="#EC008B" stroke-width="2" stroke-miterlimit="10" points="205.4,96.5 199,102.8 192.6,96.5 
		189.1,100 195.5,106.4 189.8,112 193.3,115.5 199,109.9 204.7,115.5 208.2,112 202.5,106.4 208.9,100 	"/>
	<g>
		<g>
			<g>
				
					<rect x="81.7" y="75.3" transform="matrix(0.7829 0.6222 -0.6222 0.7829 66.3019 -35.4901)" fill="none" width="4.6" height="3.9"/>
				<g>
					<polygon fill="#231F20" points="87,77.2 85.2,78.2 84.6,80.2 82.2,75.8 					"/>
				</g>
			</g>
		</g>
		<g>
			<line fill="none" stroke="#231F20" stroke-miterlimit="10" x1="84" y1="77.2" x2="85.2" y2="78.2"/>
			
				<line fill="none" stroke="#231F20" stroke-miterlimit="10" stroke-dasharray="3.0374,3.0374" x1="87.6" y1="80.1" x2="105.4" y2="94.2"/>
			<line fill="none" stroke="#231F20" stroke-miterlimit="10" x1="106.6" y1="95.2" x2="107.8" y2="96.1"/>
		</g>
	</g>
</g>
</svg>
