<svg xmlns="http://www.w3.org/2000/svg" viewBox="0 0 270 90" enable-background="new 0 0 270 90"><path d="M19.3 46.2c0 .1-.1.1-.1.1h-.7c-.1 0-.1 0-.1-.1V46c0-.4-.3-.5-.8-.5h-.1c-.7 0-1 .4-1.1 1.2l-.1 1v.2c0 .5.2.6.8.6h1.7s.1 0 .1.1l-.1.6c0 .1-.1.1-.1.1h-1.8c-.9 0-1.5-.5-1.5-1.4v-.2l.1-.9c.1-1.2.8-1.9 2-1.9h.3c.9 0 1.5.4 1.5 1.2v.1zM21.9 49.1c0 .1-.1.1-.1.1h-.6c-.8 0-1.2-.4-1.2-1.1v-.2l.5-5c0-.1.1-.1.1-.1h.7s.1 0 .1.1l-.4 5v.2c0 .3.2.4.4.4h.5s.1 0 .1.1l-.1.5zM24.1 49.1c0 .1-.1.1-.1.1h-.7c-.1 0-.1 0-.1-.1l.4-3.4-.9-.2c-.1 0-.1-.1-.1-.1v-.5c0-.1.1-.1.1-.1h1.8c.1 0 .1 0 .1.1l-.5 4.2zm.7-5.4c0 .1-.1.1-.1.1h-.9c-.1 0-.1-.1-.1-.1l.1-.9c0-.1.1-.1.1-.1h.9l.1.1-.1.9zM29.4 46.2c0 .1-.1.1-.1.1h-.7c-.1 0-.1 0-.1-.1V46c0-.4-.3-.5-.8-.5h-.1c-.7 0-1 .4-1.1 1.2l-.1 1v.2c0 .5.2.6.8.6h1.7s.1 0 .1.1l-.1.6c0 .1-.1.1-.1.1H27c-.9 0-1.5-.5-1.5-1.4v-.2l.1-.9c.1-1.2.8-1.9 2-1.9h.3c.9 0 1.5.4 1.5 1.2v.1zM31.4 46.5l.6-.9c.3-.5.6-.8 1.3-.8h.5c.7 0 1.1.4 1.1 1V46.4c-.1.6-.4.9-1.1 1.1l-.4.1 1 1.6c0 .1.1.1.1.1s0 .1-.1.1h-.8c-.1 0-.1 0-.2-.1l-.9-1.5v-.6c0-.1 0-.1.1-.1l.7-.2c.4-.1.5-.3.6-.6v-.2c0-.2-.1-.3-.3-.3h-.4c-.3 0-.5.2-.9.7L31.2 48l-.1 1.4c0 .1-.1.1-.1.1h-.7c-.1 0-.1 0-.1-.1l.7-6.2c0-.1.1-.1.1-.1h.7c.1 0 .1 0 .1.1l-.4 3.3zM39 45.5c0 .1-.1.1-.1.1H37c-.3 0-.5.1-.6.4v.1c0 .2.2.3.4.4.3.1.6.1.9.2.7.1 1.2.4 1.2 1.1v.3c-.1.8-.7 1.2-1.6 1.2h-2s-.1 0-.1-.1c0 0 0-.2.1-.6 0-.1.1-.1.1-.1h2.1c.3 0 .6-.2.6-.5s-.3-.4-.6-.5c-.3 0-.6-.1-.9-.2-.6-.1-1-.6-1-1.1V46c0-.7.6-1.1 1.5-1.1H39s.1 0 .1.1l-.1.5z"/><path fill="none" stroke="#000" stroke-width="2" stroke-linejoin="bevel" d="M92.9 75L50 46.7l42.7-19.3"/><path d="M91.4 70l1 4.7-4.7.9 2.4 1.6 4.7-.9-1-4.7zM90.4 32.1l1.7-4.5-4.5-1.7 2.7-1.2 4.4 1.7-1.6 4.5z"/><path fill="none" stroke="#000" stroke-width="2" stroke-linejoin="bevel" d="M50 46.7l42.5 5.7"/><path d="M88.1 55.2l3.8-2.9-2.9-3.8 2.8.4 2.9 3.8-3.8 2.9z"/><path fill="#fff" stroke="#000" stroke-width="1.926" stroke-miterlimit="10" d="M94.8 17.5h83.8v18.8H94.8z"/><path d="M102.2 26.9l.5-.8c.4-.6.7-.9 1.3-.9h.2c.6 0 .9.3.9 1v.2l-.1.5.5-.8c.4-.6.7-.9 1.3-.9h.2c.6 0 .9.3.9 1v.2l-.3 3.1c0 .1-.1.1-.1.1h-.7c-.1 0-.1 0-.1-.1.1-1.1.3-3.2.3-3.3 0-.2-.1-.3-.2-.3h-.1c-.2 0-.5.3-.8.8l-1 1.3-.1 1.5c0 .1-.1.1-.1.1h-.7c-.1 0-.1 0-.1-.1l.3-3.3c0-.2-.1-.3-.2-.3h-.1c-.2 0-.5.3-.8.8l-1 1.3-.1 1.5c0 .1-.1.1-.1.1h-.7c-.1 0-.1 0-.1-.1l.4-4.2c0-.1.1-.1.1-.1h.7s.1 0 .1.1l-.2 1.6zM109.9 28.2c0 .5.2.7.8.7h1.9s.1 0 .1.1l-.1.6c0 .1-.1.1-.1.1h-2c-.9 0-1.5-.5-1.5-1.4v-.2l.1-.9c.1-1.2.8-1.9 2-1.9h.6c.9 0 1.4.4 1.4 1v.3c-.1.8-.7 1-1.4 1.2l-1.8.4zm.1-.8l1.3-.4c.5-.1.8-.3.9-.6v-.1c0-.2-.2-.3-.4-.3h-.6c-.7 0-1 .4-1.1 1.2l-.1.2zM116 29.5c0 .1-.1.1-.1.1h-.7c-.8 0-1.2-.4-1.2-1.1v-.2l.2-2.2-.9-.2c-.1 0-.1-.1-.1-.1l.1-.5c0-.1.1-.1.1-.1h.9l.1-.4c0-.1 0-.1.1-.2l.6-.4h.1c.1 0 .1 0 .1.1l-.1.9h1.1c.1 0 .1 0 .1.1l-.1.7c0 .1-.1.1-.1.1h-1.1c-.1.8-.2 2.1-.2 2.3 0 .2.1.4.4.4h.6s.1 0 .1.1v.6zM120.9 25.8s0 .1 0 0l-.7.6h-.1s-.1 0-.1-.1c-.1-.2-.2-.3-.4-.3h-.1c-.2 0-.3.1-.5.4l-.9 1.2-.2 1.9c0 .1-.1.1-.1.1h-.7c-.1 0-.1 0-.1-.1l.4-4.2c0-.1.1-.1.1-.1h.7s.1 0 .1.1l-.1 1.1.5-.7c.3-.4.5-.5.9-.5h.1c.5 0 .7.2.9.5.3 0 .3.1.3.1zM122.7 29.5c0 .1-.1.1-.1.1h-.7c-.1 0-.1 0-.1-.1l.4-3.4-.9-.2c-.1 0-.1-.1-.1-.1v-.4c0-.1.1-.1.1-.1h1.8c.1 0 .1 0 .1.1l-.5 4.1zm.7-5.4c0 .1-.1.1-.1.1h-.9c-.1 0-.1-.1-.1-.1l.1-.9c0-.1.1-.1.1-.1h.9l.1.1-.1.9zM128 26.6c0 .1-.1.1-.1.1h-.7c-.1 0-.1 0-.1-.1v-.2c0-.4-.3-.5-.8-.5h-.1c-.7 0-1 .4-1.1 1.2l-.1 1v.2c0 .5.2.6.8.6h1.7s.1 0 .1.1l-.1.6c0 .1-.1.1-.1.1h-1.8c-.9 0-1.5-.5-1.5-1.4v-.2l.1-.9c.1-1.2.8-1.9 2-1.9h.3c.9 0 1.5.4 1.5 1.2v.1zM132.1 25.9c0 .1-.1.1-.1.1h-1.9c-.3 0-.5.1-.6.4v.1c0 .2.2.3.4.4.3.1.6.1.9.2.7.1 1.2.4 1.2 1.1v.3c-.1.8-.7 1.2-1.6 1.2h-2s-.1 0-.1-.1c0 0 0-.2.1-.6 0-.1.1-.1.1-.1h2.1c.3 0 .6-.2.6-.5s-.3-.4-.6-.5c-.3 0-.6-.1-.9-.2-.6-.1-1-.6-1-1.1v-.2c0-.7.6-1.1 1.5-1.1h1.9s.1 0 .1.1l-.1.5z"/><path fill="#fff" stroke="#000" stroke-width="1.926" stroke-miterlimit="10" d="M94.8 41.5h83.8v18.8H94.8z"/><path d="M104.5 50c0 .1-.1.1-.1.1h-1.9c-.3 0-.5.1-.6.4v.1c0 .2.2.3.4.4.3.1.6.1.9.2.7.1 1.2.4 1.2 1.1v.3c-.1.8-.7 1.2-1.6 1.2h-2s-.1 0-.1-.1c0 0 0-.2.1-.6 0-.1.1-.1.1-.1h2.1c.3 0 .6-.2.6-.5s-.3-.4-.6-.5c-.3 0-.6-.1-.9-.2-.6-.1-1-.6-1-1.1v-.2c0-.7.6-1.1 1.5-1.1h1.9s.1 0 .1.1l-.1.5zM105.7 49.4c0-.1.1-.1.1-.1h.7s.1 0 .1.1c0 0 0 .3-.1 1.2l.5-.6c.3-.5.7-.7 1.4-.7h.2c.6 0 1.1.4 1.1 1.1v.2l-.1 1.2c-.1 1.2-.8 1.9-2 1.9h-1.3l-.2 1.5c0 .1-.1.1-.1.1h-.7c-.1 0-.1 0-.1-.1l.5-5.8zm.7 2.3l-.1 1.2h1.2c.7 0 1.1-.5 1.1-1.2 0-.4.1-1.1.1-1.3 0-.2-.2-.4-.4-.4h-.1c-.4 0-.7.3-1 .6l-.8 1.1zM114.4 53.5c0 .1-.1.1-.1.1h-.7c-.1 0-.1 0-.1-.1 0 0 0-.2.1-1.2l-.4.6c-.3.5-.7.7-1.4.7h-.2c-.6 0-1.1-.4-1.1-1.1v-.2l.1-1.3c.1-1.2.8-1.9 2-1.9h.1c.4 0 .9.2 1.2.4v-.2c0-.1.1-.1.1-.1h.7s.1 0 .1.1l-.4 4.2zm-1.6-1.2l.9-1.1.1-.9c-.3-.2-.6-.3-1.1-.3h-.1c-.7 0-1.1.5-1.1 1.2l-.1 1.2v.1c0 .3.2.4.4.4h.1c.4 0 .6-.3.9-.6zM117 50.9l.5-.8c.4-.6.7-.9 1.3-.9h.2c.6 0 .9.3.9 1v.2l-.1.5.5-.8c.4-.6.7-.9 1.3-.9h.2c.6 0 .9.3.9 1v.2l-.3 3.1c0 .1-.1.1-.1.1h-.7c-.1 0-.1 0-.1-.1.1-1.1.3-3.2.3-3.3 0-.2-.1-.3-.2-.3h-.1c-.2 0-.5.3-.8.8l-1 1.3-.1 1.5c0 .1-.1.1-.1.1h-.7c-.1 0-.1 0-.1-.1l.3-3.3c0-.2-.1-.3-.2-.3h-.1c-.2 0-.5.3-.8.8l-1 1.3-.1 1.5c0 .1-.1.1-.1.1h-.7c-.1 0-.1 0-.1-.1l.4-4.2c0-.1.1-.1.1-.1h.7s.1 0 .1.1l-.2 1.6zM127.9 55.6c0 .1-.1.1-.1.1h-4.3c-.1 0-.1 0-.1-.1l.1-.7c0-.1.1-.1.1-.1h4.3s.1 0 .1.1l-.1.7zM133 53.5c0 .1-.1.1-.1.1h-.7c-.1 0-.1 0-.1-.1 0 0 0-.2.1-1.2l-.4.6c-.3.5-.7.7-1.4.7h-.2c-.6 0-1.1-.4-1.1-1.1v-.2l.1-1.3c.1-1.2.8-1.9 2-1.9h.1c.4 0 .9.2 1.2.4v-.2c0-.1.1-.1.1-.1h.7s.1 0 .1.1l-.4 4.2zm-1.5-1.2l.9-1.1.1-.9c-.3-.2-.6-.3-1.1-.3h-.1c-.7 0-1.1.5-1.1 1.2l-.1 1.2v.1c0 .3.2.4.4.4h.1c.3 0 .6-.3.9-.6zM138.5 53.5c0 .1-.1.1-.1.1h-.7c-.1 0-.1 0-.1-.1l.3-2.9v-.3c0-.2-.1-.4-.3-.4h-.1c-.3 0-.5.3-1 .8l-1 1.3-.1 1.4c0 .1-.1.1-.1.1h-.7c-.1 0-.1 0-.1-.1l.4-4.2c0-.1.1-.1.1-.1h.7c.1 0 .1 0 .1.1l-.2 1.6.6-.9c.4-.6.7-.9 1.3-.9h.3c.6 0 1 .4 1 1v.2l-.3 3.3zM143.7 53.5c0 .1-.1.1-.1.1h-.7c-.1 0-.1 0-.1-.1 0 0 0-.2.1-1.2l-.4.6c-.3.5-.7.7-1.4.7h-.2c-.6 0-1.1-.4-1.1-1.1v-.2l.1-1.3c.1-1.2.8-1.9 2-1.9h.1c.4 0 .9.2 1.2.4v-.2c0-.1.1-.1.1-.1h.7s.1 0 .1.1l-.4 4.2zm-1.6-1.2l.9-1.1.1-.9c-.3-.2-.6-.3-1.1-.3h-.1c-.7 0-1.1.5-1.1 1.2l-.1 1.2v.1c0 .3.2.4.4.4h.1c.3 0 .6-.3.9-.6zM146.9 53.5c0 .1-.1.1-.1.1h-.6c-.8 0-1.2-.4-1.2-1.1v-.2l.5-5c0-.1.1-.1.1-.1h.7s.1 0 .1.1l-.5 4.9v.2c0 .3.2.4.4.4h.5s.1 0 .1.1v.6zM151.6 53.3c-.1 1.1-.8 1.9-2 1.9h-1.9c-.1 0-.1 0-.1-.1l.1-.6c0-.1.1-.1.1-.1h1.8c.7 0 1.1-.5 1.1-1.2l.1-1-.4.7c-.3.5-.6.8-1.4.8h-.3c-.6 0-1-.4-1-1v-.2l.3-3.1c0-.1.1-.1.1-.1h.7c.1 0 .1 0 .1.1l-.3 3v.2c0 .2.1.4.3.4h.1c.5 0 .7-.3 1.1-.9l.9-1.1.2-1.6c0-.1.1-.1.1-.1h.7s.1 0 .1.1l-.5 3.9zM156.5 50c0 .1-.1.1-.1.1h-1.9c-.3 0-.5.1-.6.4v.1c0 .2.2.3.4.4.3.1.6.1.9.2.7.1 1.2.4 1.2 1.1v.3c-.1.8-.7 1.2-1.6 1.2h-2s-.1 0-.1-.1c0 0 0-.2.1-.6 0-.1.1-.1.1-.1h2.1c.3 0 .6-.2.6-.5s-.3-.4-.6-.5c-.3 0-.6-.1-.9-.2-.6-.1-1-.6-1-1.1v-.2c0-.7.6-1.1 1.5-1.1h1.9s.1 0 .1.1l-.1.5zM158.6 53.5c0 .1-.1.1-.1.1h-.7c-.1 0-.1 0-.1-.1l.4-3.4-.9-.2c-.1 0-.1-.1-.1-.1v-.4c0-.1.1-.1.1-.1h1.8c.1 0 .1 0 .1.1l-.5 4.1zm.7-5.4c0 .1-.1.1-.1.1h-.9c-.1 0-.1-.1-.1-.1l.1-.9c0-.1.1-.1.1-.1h.9l.1.1-.1.9zM163.5 50c0 .1-.1.1-.1.1h-1.9c-.3 0-.5.1-.6.4v.1c0 .2.2.3.4.4.3.1.6.1.9.2.7.1 1.2.4 1.2 1.1v.3c-.1.8-.7 1.2-1.6 1.2h-2s-.1 0-.1-.1c0 0 0-.2.1-.6 0-.1.1-.1.1-.1h2.1c.3 0 .6-.2.6-.5s-.3-.4-.6-.5c-.3 0-.6-.1-.9-.2-.6-.1-1-.6-1-1.1v-.2c0-.7.6-1.1 1.5-1.1h1.9s.1 0 .1.1l-.1.5z"/><path fill="#fff" stroke="#000" stroke-width="1.926" stroke-miterlimit="10" d="M94.8 66.6h83.8v18.8H94.8z"/><path d="M104.9 78.5c0 .1-.1.1-.1.1h-.8c-.1 0-.1 0-.1-.1 0 0 0-.2.1-1.2l-.4.6c-.3.5-.7.7-1.4.7h-.2c-.6 0-1.1-.4-1.1-1.1v-.2l.1-1.3c.1-1.2.8-1.9 2-1.9h.1c.4 0 .9.2 1.2.4v-.2c0-.1.1-.1.1-.1h.7s.1 0 .1.1l-.3 4.2zm-1.6-1.2l.9-1.1.1-.9c-.3-.2-.6-.3-1.1-.3h-.1c-.7 0-1.1.5-1.1 1.2l-.1 1.2v.1c0 .3.2.4.4.4h.1c.4 0 .6-.2.9-.6zM110.1 74.8c0 .1 0 .1 0 0l-.7.6h-.1s-.1 0-.1-.1c-.1-.2-.2-.3-.4-.3h-.1c-.2 0-.3.1-.5.4l-.9 1.2-.2 1.9c0 .1-.1.1-.1.1h-.7c-.1 0-.1 0-.1-.1l.4-4.2c0-.1.1-.1.1-.1h.7s.1 0 .1.1l-.1 1.1.5-.7c.3-.4.5-.5.9-.5h.1c.5 0 .7.2.9.5.3 0 .3.1.3.1zM114 75.6c0 .1-.1.1-.1.1h-.7c-.1 0-.1 0-.1-.1v-.2c0-.4-.3-.5-.8-.5h-.1c-.7 0-1 .4-1.1 1.2l-.1 1v.2c0 .5.2.6.8.6h1.7s.1 0 .1.1l-.1.6c0 .1-.1.1-.1.1h-1.8c-.9 0-1.5-.5-1.5-1.4v-.2l.1-.9c.1-1.2.8-1.9 2-1.9h.3c.9 0 1.5.4 1.5 1.2v.1zM118.8 78.5c0 .1-.1.1-.1.1h-.7c-.1 0-.1 0-.1-.1l.3-2.9v-.3c0-.2-.1-.4-.3-.4h-.1c-.3 0-.5.3-1 .8l-1 1.3-.1 1.4c0 .1-.1.1-.1.1h-.7c-.1 0-.1 0-.1-.1l.7-6.2c0-.1.1-.1.1-.1h.7c.1 0 .1 0 .1.1l-.4 3.5.6-.9c.4-.6.7-.9 1.3-.9h.3c.6 0 1 .4 1 1v.2l-.4 3.4zM121.6 78.5c0 .1-.1.1-.1.1h-.7c-.1 0-.1 0-.1-.1l.4-3.4-.9-.2c-.1 0-.1-.1-.1-.1v-.4c0-.1.1-.1.1-.1h1.8c.1 0 .1 0 .1.1l-.5 4.1zm.6-5.4c0 .1-.1.1-.1.1h-.9c-.1 0-.1-.1-.1-.1l.1-.9c0-.1.1-.1.1-.1h.9l.1.1-.1.9zM123.3 74.4c0-.1.1-.1.1-.1h.7c.1 0 .1 0 .1.1l-.3 2.9v.3c0 .3.1.4.4.4h.2c.5 0 .9-.3 1.2-.7.4-.5.5-1.4.6-2.4l.1-.5c0-.1.1-.1.1-.1h.7s.1 0 .1.1l-.1.6c-.1.9-.3 2-.9 2.8-.5.6-1 1-2 1h-.3c-.6 0-1.1-.4-1.1-1.1v-.2l.4-3.1zM128.7 77.2c0 .5.2.7.8.7h1.9s.1 0 .1.1l-.1.6c0 .1-.1.1-.1.1h-2c-.9 0-1.5-.5-1.5-1.4v-.2l.1-.9c.1-1.2.8-1.9 2-1.9h.6c.9 0 1.4.4 1.4 1v.3c-.1.8-.7 1-1.4 1.2l-1.8.4zm.1-.8l1.3-.4c.5-.1.8-.3.9-.6v-.1c0-.2-.2-.3-.4-.3h-.6c-.7 0-1 .4-1.1 1.2l-.1.2z"/><path fill="none" stroke="#000" stroke-width="2" stroke-linejoin="bevel" d="M233.3 70.8l-54.7-44.4 52.2-.2"/><path d="M232.4 65.7l.5 4.7-4.8.5 2.3 1.9 4.7-.5-.5-4.8zM226.9 29.6l3.3-3.4-3.4-3.3 2.9-.1 3.4 3.4-3.4 3.4z"/><path fill="none" stroke="#000" stroke-width="2" stroke-linejoin="bevel" d="M178.6 26.4l54.4 20"/><path d="M228.1 48.3l4.3-2.1-2-4.3 2.7 1 2 4.3-4.3 2zM237.7 35.9l-5.6-9.7 5.6-9.7h11.2l5.6 9.7-5.6 9.7zM237.7 61l-5.6-9.8 5.6-9.7h11.2l5.6 9.7-5.6 9.8zM237.7 86l-5.6-9.7 5.6-9.7h11.2l5.6 9.7-5.6 9.7z"/><g fill="#cf00ab"><path d="M223.2 6c0 .1-.1.1-.1.1h-.7c-.1 0-.1 0-.1-.1v-.2c0-.4-.3-.5-.8-.5h-.1c-.7 0-1 .4-1.1 1.2l-.1 1v.2c0 .5.2.6.8.6h1.7s.1 0 .1.1l-.1.6c0 .1-.1.1-.1.1h-1.8c-.9 0-1.5-.5-1.5-1.4v-.2l.1-.9c.1-1.2.8-1.9 2-1.9h.3c.9 0 1.5.4 1.5 1.2V6zM228 7.2c-.1 1.1-.8 1.9-2 1.9h-.5c-.9 0-1.5-.5-1.5-1.4v-.2l.1-1c.1-1.2.8-1.9 2-1.9h.5c.9 0 1.5.5 1.5 1.4v.2l-.1 1zm-.9-1v-.1c0-.5-.3-.7-.8-.7h-.3c-.7 0-1.1.5-1.1 1.2l-.1 1v.2c0 .5.2.6.8.6h.3c.7 0 1.1-.5 1.1-1.2l.1-1zM233 9c0 .1-.1.1-.1.1h-.7c-.1 0-.1 0-.1-.1l.3-2.9v-.3c0-.2-.1-.4-.3-.4h-.1c-.3 0-.5.3-1 .8l-1 1.3-.1 1.5c0 .1-.1.1-.1.1h-.7c-.1 0-.1 0-.1-.1l.4-4.2c0-.1.1-.1.1-.1h.7c.1 0 .1 0 .1.1l-.2 1.6.6-.9c.4-.6.7-.9 1.3-.9h.3c.6 0 1 .4 1 1v.2L233 9zM237.8 5.4c0 .1-.1.1-.1.1h-1.9c-.3 0-.5.1-.6.4V6c0 .2.2.3.4.4.3.1.6.1.9.2.7.1 1.2.4 1.2 1.1V8c-.1.8-.7 1.2-1.6 1.2h-2s-.1 0-.1-.1c0 0 0-.2.1-.6 0-.1.1-.1.1-.1h2.1c.3 0 .6-.2.6-.5s-.3-.4-.6-.5c-.3 0-.6-.1-.9-.2-.6-.1-1-.6-1-1.1v-.2c0-.7.6-1.1 1.5-1.1h1.9s.1 0 .1.1l-.1.5zM241.7 7.7l-.4.7c-.3.5-.6.8-1.4.8h-.3c-.6 0-1-.4-1-1V8l.3-3.1c0-.1.1-.1.1-.1h.7c.1 0 .1 0 .1.1 0 0-.3 3.1-.3 3.2 0 .2.1.4.3.4h.1c.5 0 .7-.3 1.1-.9l.8-1.1.2-1.6c0-.1.1-.1.1-.1h.7s.1 0 .1.1l-.4 4.1c0 .1-.1.1-.1.1h-.7c-.1 0-.1 0-.1-.1l.1-1.3zM245.1 6.3l.5-.8c.4-.6.7-.9 1.3-.9h.2c.6 0 .9.3.9 1v.7l.5-.8c.4-.6.7-.9 1.3-.9h.2c.6 0 .9.3.9 1v.2l-.3 3.2c0 .1-.1.1-.1.1h-.7c-.1 0-.1 0-.1-.1.1-1.1.3-3.2.3-3.3 0-.2-.1-.3-.2-.3h-.1c-.2 0-.5.3-.8.8l-1 1.3-.2 1.5c0 .1-.1.1-.1.1h-.7c-.1 0-.1 0-.1-.1l.3-3.3c0-.2-.1-.3-.2-.3h-.1c-.2 0-.5.3-.8.8l-1 1.3-.2 1.5c0 .1-.1.1-.1.1h-.7c-.1 0-.1 0-.1-.1l.4-4.2c0-.1.1-.1.1-.1h.7s.1 0 .1.1l-.1 1.5zM252.8 7.6c0 .5.2.7.8.7h1.9s.1 0 .1.1l-.1.6c0 .1-.1.1-.1.1h-2c-.9 0-1.5-.5-1.5-1.4v-.2l.1-.9c.1-1.2.8-1.9 2-1.9h.6c.9 0 1.4.4 1.4 1V6c-.1.8-.7 1-1.4 1.2l-1.8.4zm0-.7l1.3-.4c.5-.1.8-.3.9-.6v-.1c0-.2-.2-.3-.4-.3h-.6c-.7 0-1 .4-1.1 1.2l-.1.2zM260.4 5.3l-.7.6h-.1s-.1 0-.1-.1c-.1-.2-.2-.3-.4-.3h-.1c-.2 0-.3.1-.5.4l-.9 1.2V9c0 .1-.1.1-.1.1h-.7c-.1 0-.1 0-.1-.1l.4-4.2c0-.1.1-.1.1-.1h.7s.1 0 .1.1l-.1 1.1.5-.7c.3-.4.5-.5.9-.5h.1c.5 0 .7.2.9.5.1 0 .1 0 .1.1zM264.3 5.4c0 .1-.1.1-.1.1h-1.9c-.3 0-.5.1-.6.4V6c0 .2.2.3.4.4.3.1.6.1.9.2.7.1 1.2.4 1.2 1.1V8c-.1.8-.7 1.2-1.6 1.2h-2s-.1 0-.1-.1c0 0 0-.2.1-.6 0-.1.1-.1.1-.1h2.1c.3 0 .6-.2.6-.5s-.3-.4-.6-.5c-.3 0-.6-.1-.9-.2-.6-.1-1-.6-1-1.1v-.2c0-.7.6-1.1 1.5-1.1h1.9s.1 0 .1.1l-.1.5z"/></g><g fill="#cf00ab"><path d="M16.4 9c0 .1-.1.1-.1.1h-.7c-.8 0-1.2-.4-1.2-1.1v-.2l.2-2.2-.9-.2c-.1 0-.1-.1-.1-.1l.1-.5c0-.1.1-.1.1-.1h.9l.1-.4c0-.1 0-.1.1-.2l.6-.4h.1c.1 0 .1 0 .1.1l-.1.9h1.1c.1 0 .1 0 .1.1l-.1.7c0 .1-.1.1-.1.1h-1.1c-.1.8-.2 2.1-.2 2.3 0 .2.1.4.4.4h.6s.1 0 .1.1V9zM21.4 7.2c-.1 1.1-.8 1.9-2 1.9h-.5c-.9 0-1.5-.5-1.5-1.4v-.2l.1-1c.1-1.2.8-1.9 2-1.9h.5c.9 0 1.5.5 1.5 1.4v.2l-.1 1zm-.9-1v-.1c0-.5-.3-.7-.8-.7h-.3c-.7 0-1.1.5-1.1 1.2l-.1 1v.2c0 .5.2.6.8.6h.3c.7 0 1.1-.5 1.1-1.2l.1-1zM22.8 4.8c0-.1.1-.1.1-.1h.7s.1 0 .1.1c0 0 0 .3-.1 1.2l.5-.6c.3-.5.7-.7 1.4-.7h.2c.6 0 1.1.4 1.1 1.1V6l-.1 1.2c-.1 1.2-.8 1.9-2 1.9h-1.3l-.2 1.5c0 .1-.1.1-.1.1h-.7c-.1 0-.1 0-.1-.1l.5-5.8zm.7 2.3l-.1 1.2h1.2c.7 0 1.1-.5 1.1-1.2 0-.4.1-1.1.1-1.3 0-.2-.2-.4-.4-.4h-.1c-.4 0-.7.3-1 .6l-.8 1.1zM29 9c0 .1-.1.1-.1.1h-.7c-.1 0-.2-.1-.2-.1l.4-3.4-.9-.2c-.1 0-.1-.1-.1-.1v-.4c0-.1.1-.1.1-.1h1.8c.1 0 .1 0 .1.1L29 9zm.6-5.4c0 .1-.1.1-.1.1h-.9c-.1 0-.1-.1-.1-.1l.1-.9c0-.1.1-.1.1-.1h.9l.1.1-.1.9zM34.2 6c0 .1-.1.1-.1.1h-.7c-.1 0-.1 0-.1-.1v-.2c0-.4-.3-.5-.8-.5h-.1c-.7 0-1 .4-1.1 1.2l-.1 1v.2c0 .5.2.6.8.6h1.7s.1 0 .1.1l-.1.6c0 .1-.1.1-.1.1h-1.8c-.9 0-1.5-.5-1.5-1.4v-.2l.1-.9c.1-1.2.8-1.9 2-1.9h.3c.9 0 1.5.4 1.5 1.2V6zM38.4 5.4c0 .1-.1.1-.1.1h-1.9c-.3 0-.5.1-.6.4V6c0 .2.2.3.4.4.3.1.6.1.9.2.7.1 1.2.4 1.2 1.1V8c-.1.8-.7 1.2-1.6 1.2h-2s-.1 0-.1-.1c0 0 0-.2.1-.6 0-.1.1-.1.1-.1h2.1c.3 0 .6-.2.6-.5s-.3-.4-.6-.5c-.3 0-.6-.1-.9-.2-.6-.1-1-.6-1-1.1v-.2c0-.7.6-1.1 1.5-1.1h1.9s.1 0 .1.1l-.1.5z"/></g><g fill="#cf00ab"><path d="M120.8 6c0 .1-.1.1-.1.1h-.7c-.1 0-.1 0-.1-.1v-.2c0-.4-.3-.5-.8-.5h-.1c-.7 0-1 .4-1.1 1.2l-.1 1v.2c0 .5.2.6.8.6h1.7s.1 0 .1.1l-.1.6c0 .1-.1.1-.1.1h-1.8c-.9 0-1.5-.5-1.5-1.4v-.2l.1-.9c.1-1.2.8-1.9 2-1.9h.3c.9 0 1.5.4 1.5 1.2V6zM125.7 9c0 .1-.1.1-.1.1h-.7c-.1 0-.1 0-.1-.1l.3-2.9v-.3c0-.2-.1-.4-.3-.4h-.1c-.3 0-.5.3-1 .8l-1 1.3-.1 1.5c0 .1-.1.1-.1.1h-.7c-.1 0-.1 0-.1-.1l.7-6.2c0-.1.1-.1.1-.1h.7c.1 0 .1 0 .1.1l-.4 3.5.6-.9c.4-.6.7-.9 1.3-.9h.3c.6 0 1 .4 1 1v.2l-.4 3.3zM130.9 9c0 .1-.1.1-.1.1h-.8c-.1 0-.1 0-.1-.1 0 0 0-.2.1-1.2l-.4.6c-.3.5-.7.7-1.4.7h-.2c-.6 0-1.1-.4-1.1-1.1v-.2l.1-1.3c.1-1.2.8-1.9 2-1.9h.1c.4 0 .9.2 1.2.4v-.2c0-.1.1-.1.1-.1h.7s.1 0 .1.1l-.3 4.2zm-1.6-1.3l.9-1.1.1-.9c-.3-.2-.6-.3-1.1-.3h-.1c-.7 0-1.1.5-1.1 1.2l-.1 1.2v.1c0 .3.2.4.4.4h.1c.3.1.6-.2.9-.6zM136.3 9c0 .1-.1.1-.1.1h-.7c-.1 0-.1 0-.1-.1l.3-2.9v-.3c0-.2-.1-.4-.3-.4h-.1c-.3 0-.5.3-1 .8l-1 1.3-.1 1.5c0 .1-.1.1-.1.1h-.7c-.1 0-.1 0-.1-.1l.4-4.2c0-.1.1-.1.1-.1h.7c.1 0 .1 0 .1.1l-.2 1.6.6-.9c.4-.6.7-.9 1.3-.9h.3c.6 0 1 .4 1 1v.2l-.3 3.2zM141.7 9c0 .1-.1.1-.1.1h-.7c-.1 0-.1 0-.1-.1l.3-2.9v-.3c0-.2-.1-.4-.3-.4h-.1c-.3 0-.5.3-1 .8l-1 1.3-.1 1.5c0 .1-.1.1-.1.1h-.7c-.1 0-.1 0-.1-.1l.4-4.2c0-.1.1-.1.1-.1h.7c.1 0 .1 0 .1.1l-.2 1.6.6-.9c.4-.6.7-.9 1.3-.9h.3c.6 0 1 .4 1 1v.2l-.3 3.2zM143.9 7.6c0 .5.2.7.8.7h1.9s.1 0 .1.1l-.1.6c0 .1-.1.1-.1.1h-2c-.9 0-1.5-.5-1.5-1.4v-.2l.1-.9c.1-1.2.8-1.9 2-1.9h.6c.9 0 1.4.4 1.4 1V6c-.1.8-.7 1-1.4 1.2l-1.8.4zm.1-.7l1.3-.4c.5-.1.8-.3.9-.6v-.1c0-.2-.2-.3-.4-.3h-.6c-.7 0-1 .4-1.1 1.2l-.1.2zM149.7 9c0 .1-.1.1-.1.1h-.6c-.8 0-1.2-.4-1.2-1.1v-.2l.5-5c0-.1.1-.1.1-.1h.7s.1 0 .1.1l-.5 4.9v.2c0 .3.2.4.4.4h.5s.1 0 .1.1V9zM154.1 5.4c0 .1-.1.1-.1.1h-1.9c-.3 0-.5.1-.6.4V6c0 .2.2.3.4.4.3.1.6.1.9.2.7.1 1.2.4 1.2 1.1V8c-.1.8-.7 1.2-1.6 1.2h-2s-.1 0-.1-.1c0 0 0-.2.1-.6 0-.1.1-.1.1-.1h2.1c.3 0 .6-.2.6-.5s-.3-.4-.6-.5c-.3 0-.6-.1-.9-.2-.6-.1-1-.6-1-1.1v-.2c0-.7.6-1.1 1.5-1.1h1.9s.1 0 .1.1l-.1.5z"/></g><circle fill="none" stroke="#000" stroke-width="2" stroke-linejoin="bevel" stroke-miterlimit="10" cx="27" cy="46.5" r="23"/></svg>