<?xml version="1.0" encoding="utf-8"?>
<!-- Generator: Adobe Illustrator 18.0.0, SVG Export Plug-In . SVG Version: 6.00 Build 0)  -->
<!DOCTYPE svg PUBLIC "-//W3C//DTD SVG 1.1//EN" "http://www.w3.org/Graphics/SVG/1.1/DTD/svg11.dtd">
<svg version="1.1" id="Layer_1" xmlns="http://www.w3.org/2000/svg" xmlns:xlink="http://www.w3.org/1999/xlink" x="0px" y="0px"
	 viewBox="0 0 270 105" enable-background="new 0 0 270 105" xml:space="preserve">
<g>
	<g>
		<g>
			<path fill="#FFFFFF" d="M261.4,26.6c1.3,0,2.3,1,2.3,2.3l0,52.2c0,1.3-1,2.3-2.3,2.3l-33.9,0c-1.3,0-2.3-1-2.3-2.3l0-52.2
				c0-1.3,1-2.3,2.3-2.3L261.4,26.6z"/>
			<path fill="none" stroke="#000000" stroke-width="2" stroke-linecap="round" stroke-linejoin="round" stroke-miterlimit="10" d="
				M261.4,26.6c1.3,0,2.3,1,2.3,2.3l0,52.2c0,1.3-1,2.3-2.3,2.3l-33.9,0c-1.3,0-2.3-1-2.3-2.3l0-52.2c0-1.3,1-2.3,2.3-2.3
				L261.4,26.6z"/>
		</g>
		<g>
			<polygon fill="#FFFFFF" points="263.7,76.5 225.2,76.6 225.2,33.8 263.7,33.8 			"/>
			
				<polygon fill="none" stroke="#000000" stroke-width="2" stroke-linecap="round" stroke-linejoin="round" stroke-miterlimit="10" points="
				263.7,76.5 225.2,76.6 225.2,33.8 263.7,33.8 			"/>
		</g>
	</g>
	<g>
		<g>
			<g>
				<path fill="#FFFFFF" d="M214.4,63.1c0,0.9-0.7,1.7-1.7,1.7l-16.7,0c-0.9,0-1.7-0.7-1.7-1.7l0-32.9c0-0.9,0.7-1.7,1.7-1.7l16.7,0
					c0.9,0,1.7,0.7,1.7,1.7L214.4,63.1z"/>
				
					<path fill="none" stroke="#000000" stroke-width="2" stroke-linecap="round" stroke-linejoin="round" stroke-miterlimit="10" d="
					M214.4,63.1c0,0.9-0.7,1.7-1.7,1.7l-16.7,0c-0.9,0-1.7-0.7-1.7-1.7l0-32.9c0-0.9,0.7-1.7,1.7-1.7l16.7,0c0.9,0,1.7,0.7,1.7,1.7
					L214.4,63.1z"/>
			</g>
			<g>
				<rect x="194.3" y="32.7" fill="#FFFFFF" width="20.1" height="24.6"/>
				
					<rect x="194.3" y="32.7" fill="none" stroke="#000000" stroke-width="2" stroke-linecap="round" stroke-linejoin="round" stroke-miterlimit="10" width="20.1" height="24.6"/>
			</g>
		</g>
		
			<rect x="201" y="60" fill="#FFFFFF" stroke="#000000" stroke-width="2" stroke-linecap="round" stroke-linejoin="round" stroke-miterlimit="10" width="6" height="1"/>
		<g>
			
				<path fill="#FFFFFF" stroke="#000000" stroke-width="2" stroke-linecap="round" stroke-linejoin="round" stroke-miterlimit="10" d="
				M182.2,64.6h-12.1c-1.3,0-2.4-1.1-2.4-2.4V33.5c0-1.3,1.1-2.4,2.4-2.4h12.1c1.3,0,2.4,1.1,2.4,2.4v28.7
				C184.5,63.5,183.5,64.6,182.2,64.6"/>
			<path stroke="#000000" stroke-width="2" stroke-linecap="round" stroke-linejoin="round" stroke-miterlimit="10" d="M176.1,59.5
				c-0.7,0-1.3,0.6-1.3,1.3c0,0.7,0.6,1.3,1.3,1.3c0.7,0,1.3-0.6,1.3-1.3C177.4,60,176.8,59.5,176.1,59.5"/>
			
				<path fill="#FFFFFF" stroke="#000000" stroke-width="2" stroke-linecap="round" stroke-linejoin="round" stroke-miterlimit="10" d="
				M184.5,56.8h-16.8V36.8h16.8V56.8"/>
			
				<line fill="none" stroke="#000000" stroke-width="2" stroke-linecap="round" stroke-linejoin="round" stroke-miterlimit="10" x1="174.2" y1="34" x2="178.1" y2="34"/>
		</g>
		<g>
			
				<rect x="184.4" y="72" fill="#FFFFFF" stroke="#000000" stroke-width="2" stroke-linecap="round" stroke-linejoin="round" stroke-miterlimit="10" width="11.4" height="9.2"/>
			
				<rect x="163.7" y="73.5" fill="#FFFFFF" stroke="#000000" stroke-width="2" stroke-linecap="round" stroke-linejoin="round" stroke-miterlimit="10" width="20.7" height="6"/>
			
				<rect x="195.8" y="73.7" fill="#FFFFFF" stroke="#000000" stroke-width="2" stroke-linecap="round" stroke-linejoin="round" stroke-miterlimit="10" width="20.7" height="6"/>
		</g>
		
			<line fill="none" stroke="#000000" stroke-width="2" stroke-linecap="round" stroke-linejoin="round" stroke-miterlimit="10" x1="167.1" y1="76.7" x2="168.8" y2="76.7"/>
		
			<rect x="213.1" y="76.7" fill="none" stroke="#000000" stroke-width="2" stroke-linecap="round" stroke-linejoin="round" stroke-miterlimit="10" width="0" height="0"/>
		
			<rect x="209.9" y="76.7" fill="none" stroke="#000000" stroke-width="2" stroke-linecap="round" stroke-linejoin="round" stroke-miterlimit="10" width="0" height="0"/>
	</g>
</g>
<g>
	<g>
		<path fill="#FFFFFF" stroke="#000000" stroke-width="2" stroke-miterlimit="10" d="M13.1,94.3l25,0c3.7,0,6.7-3,6.6-6.7L44,18.2
			c0-3.7-3-6.6-6.7-6.6l-25,0c-3.7,0-6.7,3-6.6,6.7l0.7,69.4C6.5,91.4,9.5,94.3,13.1,94.3z"/>
		<g>
			
				<line fill="none" stroke="#000000" stroke-width="2" stroke-linecap="round" stroke-miterlimit="10" x1="10.8" y1="84.6" x2="40.3" y2="84.6"/>
		</g>
		<circle stroke="#000000" stroke-width="2" stroke-miterlimit="10" cx="39.7" cy="87.9" r="0.3"/>
		<g>
			
				<line fill="none" stroke="#000000" stroke-width="2" stroke-linecap="round" stroke-miterlimit="10" x1="10.7" y1="77.1" x2="40.2" y2="77"/>
		</g>
		<circle stroke="#000000" stroke-width="2" stroke-miterlimit="10" cx="39.6" cy="80.3" r="0.3"/>
		<g>
			
				<line fill="none" stroke="#000000" stroke-width="2" stroke-linecap="round" stroke-miterlimit="10" x1="10.7" y1="69.5" x2="40.1" y2="69.5"/>
		</g>
		<circle stroke="#000000" stroke-width="2" stroke-miterlimit="10" cx="39.5" cy="72.8" r="0.3"/>
		<g>
			
				<line fill="none" stroke="#000000" stroke-width="2" stroke-linecap="round" stroke-miterlimit="10" x1="10.6" y1="61.9" x2="40.1" y2="61.9"/>
		</g>
		<circle stroke="#000000" stroke-width="2" stroke-miterlimit="10" cx="39.5" cy="65.2" r="0.3"/>
		<g>
			
				<line fill="none" stroke="#000000" stroke-width="2" stroke-linecap="round" stroke-miterlimit="10" x1="10.5" y1="54.4" x2="40" y2="54.3"/>
		</g>
		<circle stroke="#000000" stroke-width="2" stroke-miterlimit="10" cx="39.4" cy="57.6" r="0.3"/>
		<g>
			
				<line fill="none" stroke="#000000" stroke-width="2" stroke-linecap="round" stroke-miterlimit="10" x1="10.4" y1="46.8" x2="39.9" y2="46.8"/>
		</g>
		<circle stroke="#000000" stroke-width="2" stroke-miterlimit="10" cx="39.3" cy="50.1" r="0.3"/>
		<g>
			
				<line fill="none" stroke="#000000" stroke-width="2" stroke-linecap="round" stroke-miterlimit="10" x1="10.4" y1="39.2" x2="39.8" y2="39.2"/>
		</g>
		<circle stroke="#000000" stroke-width="2" stroke-miterlimit="10" cx="39.2" cy="42.5" r="0.3"/>
		<g>
			
				<line fill="none" stroke="#000000" stroke-width="2" stroke-linecap="round" stroke-miterlimit="10" x1="10.3" y1="31.7" x2="39.8" y2="31.6"/>
		</g>
		<circle stroke="#000000" stroke-width="2" stroke-miterlimit="10" cx="39.2" cy="34.9" r="0.3"/>
	</g>
	<path fill="none" stroke="#000000" stroke-width="2" stroke-miterlimit="10" d="M31,23.2c0-0.5-0.2-0.9-0.6-1.1c0-0.1,0-0.1,0-0.2
		c0-0.9-0.7-1.6-1.6-1.6c-0.2,0-0.4,0-0.6,0.1c0-1.5-1.2-2.7-2.8-2.7c-0.9,0-1.8,0.4-2.3,1.2c-0.3-0.1-0.5-0.2-0.8-0.2
		c-1.3,0-2.3,1-2.3,2.3c0,0.2,0,0.4,0.1,0.5c-0.5,0.3-0.9,0.8-0.9,1.4c0,0.9,0.7,1.6,1.6,1.6l9,0.1l0,0C30.4,24.5,31,23.9,31,23.2z"
		/>
</g>
<g>
	<g>
		<g>
			
				<path fill="#FFFFFF" stroke="#000000" stroke-width="2" stroke-linecap="round" stroke-linejoin="round" stroke-miterlimit="10" d="
				M110,62.4H60.8c-0.7,0-1.2,0.5-1.2,1.2v32.9h51.7V63.6C111.2,62.9,110.7,62.4,110,62.4"/>
			
				<polyline fill="#FFFFFF" stroke="#000000" stroke-width="2" stroke-linecap="round" stroke-linejoin="round" stroke-miterlimit="10" points="
				108.2,93.5 62.6,93.5 62.6,65.4 108.2,65.4 108.2,93.5 			"/>
			
				<path fill="#FFFFFF" stroke="#000000" stroke-width="2" stroke-linecap="round" stroke-linejoin="round" stroke-miterlimit="10" d="
				M120.3,96.5H50.8v1.9h0c0,0,1.3,1,3,1.1h63.3c0,0,2.4-0.3,3.2-1.1h0V96.5z"/>
			<path stroke="#000000" stroke-width="2" stroke-linecap="round" stroke-linejoin="round" stroke-miterlimit="10" d="M90.2,96.5
				L90.2,96.5c0,0.5-0.4,0.9-0.9,0.9h-7.8c-0.5,0-0.9-0.4-0.9-0.9"/>
		</g>
	</g>
	<g>
		<g>
			
				<rect x="58.4" y="6.5" transform="matrix(1 -2.377750e-03 2.377750e-03 1 -6.376290e-02 0.2035)" fill="#FFFFFF" stroke="#000000" stroke-width="2" stroke-linecap="round" stroke-linejoin="round" stroke-miterlimit="10" width="54.4" height="40.9"/>
			
				<polygon fill="#FFFFFF" stroke="#000000" stroke-width="2" stroke-linecap="round" stroke-linejoin="round" stroke-miterlimit="10" points="
				94.3,51 94.3,48.4 76.1,48.2 76.1,50.1 91.3,50 77.2,50 63.3,54 85.7,54 108.1,54.5 94.1,51 			"/>
			<g>
				<path fill="#FFFFFF" d="M109.2,42c0,0.7-0.6,1.3-1.3,1.3l-44.5,0.1c-0.7,0-1.3-0.6-1.3-1.3L62,11.8c0-0.7,0.6-1.3,1.3-1.3
					l44.5-0.1c0.7,0,1.3,0.6,1.3,1.3L109.2,42z"/>
				
					<path fill="none" stroke="#000000" stroke-width="2" stroke-linecap="round" stroke-linejoin="round" stroke-miterlimit="10" d="
					M109.2,42c0,0.7-0.6,1.3-1.3,1.3l-44.5,0.1c-0.7,0-1.3-0.6-1.3-1.3L62,11.8c0-0.7,0.6-1.3,1.3-1.3l44.5-0.1
					c0.7,0,1.3,0.6,1.3,1.3L109.2,42z"/>
			</g>
			
				<rect x="76.1" y="47.9" transform="matrix(1 -2.171166e-03 2.171166e-03 1 -0.106 0.1851)" fill="#FFFFFF" stroke="#000000" stroke-width="2" stroke-linecap="round" stroke-linejoin="round" stroke-miterlimit="10" width="18.2" height="2"/>
			
				<polygon fill="#FFFFFF" stroke="#000000" stroke-width="2" stroke-linecap="round" stroke-linejoin="round" stroke-miterlimit="10" points="
				94.1,49.9 108.1,53.9 85.7,54 63.3,54 77.2,50 			"/>
		</g>
	</g>
</g>
<g>
	<g>
		<line fill="none" stroke="#000000" stroke-width="2" stroke-linejoin="bevel" x1="130" y1="54.8" x2="150.4" y2="54.8"/>
		<g>
			<polygon points="146.4,58.2 149.8,54.8 146.4,51.4 149.3,51.4 152.7,54.8 149.3,58.2 			"/>
		</g>
	</g>
</g>
</svg>
