<svg xmlns="http://www.w3.org/2000/svg" viewBox="0 0 270 90" enable-background="new 0 0 270 90"><g stroke="#000" stroke-width="2" stroke-miterlimit="10"><path fill="none" d="M29 14.7c0-.1.1-9.4.1-9.4H12l.2 9.4-.1-.1c-.8 0-1.5.5-1.5 1.2s.7 1.2 1.5 1.2h.1c.5 5.2 4.1 9.2 8.4 9.2 4.3 0 7.9-4 8.4-9.2.8 0 1.4-.5 1.4-1.2.1-.5-.6-1-1.4-1.1z"/><path d="M12 5.3l.2 9.5 1.8.6 1.1-6.8h11l1.2 6.7 1.7-.4.1-9.6z"/></g><g stroke="#000" stroke-width="2" stroke-miterlimit="10"><path fill="none" d="M30.5 42.7c0-.7-.6-1.2-1.4-1.2-.5-5.2-4.1-9.2-8.4-9.2-4.4 0-7.9 4-8.4 9.2h-.1c-.8 0-1.5.6-1.5 1.2 0 .7.7 1.2 1.5 1.2h.1c.5 5.2 4.1 9.2 8.4 9.2 4.3 0 7.9-4 8.4-9.2.7 0 1.4-.5 1.4-1.2zM20.7 32.3h-.1c-4.3 0-7.9 4-8.4 9.1h.1c4.3 0 7.8-4 8.4-9.1zM21 32.3c.5 5 3.9 8.8 8 9-.5-4.9-3.9-8.7-8-9z"/><path d="M11.8 44.3v12.4h3.3v-5M29.1 44.3v12.4h-3.3v-5"/></g><path d="M17.5 32.9L13 37.6s-2.2 3.7 0 3.5c2.2-.2 3.8.1 4.1-1.4.2-1.5 3.5-4.9 3.5-4.9s.9 1.1 2.1 2.2c1.2 1.1 2.6 3.1 3.7 3.3 1.1.2 2.3.3 2.3.3l-2.5-5.9-5.2-2.4-3.5.6z"/><g stroke="#000" stroke-width="2" stroke-miterlimit="10"><path fill="none" d="M30.5 74.6c0-.7-.6-1.2-1.4-1.2-.5-5.2-4.1-9.2-8.4-9.2-4.4 0-7.9 4-8.4 9.2h-.1c-.8 0-1.5.6-1.5 1.2 0 .7.7 1.2 1.5 1.2h.1c.5 5.2 4.1 9.2 8.4 9.2 4.3 0 7.9-4 8.4-9.2.7 0 1.4-.6 1.4-1.2z"/><path d="M20.6 64.1c-1.2 0-2.3.3-3.3.8h-.1c-.1 0-.2.1-.3.1-2.5 1.5-4.4 4.4-4.8 7.9 2.6-.5 3.5-2.2 4.8-4.9 1.5 2.6 5.2 4 8 4 1.3 0 2.5-.4 3.6-1-1-3.9-4.2-6.9-7.9-6.9z"/></g><path d="M14.8 66.5l4.1-3 4.6.4 4 4.7 1.1 2.6-4.2 1.3-6.5-2.2-3.2-2.2z"/><path fill="none" stroke="#000" stroke-width="2" stroke-linejoin="bevel" stroke-miterlimit="10" d="M37 45h66.3M37 74.6L103.3 45M103.3 45L37 15.4"/><path fill="#fff" stroke="#000" stroke-width="2" stroke-miterlimit="10" d="M103.2 23h65.2v44h-65.2z"/><path d="M103.2 23h65.6v7.3h-65.6z"/><g enable-background="new"><path d="M109.4 41.5v-.8l2.6-1.4-2.6-1.4v-.8l3.2 1.6v1.1l-3.2 1.7zM115.4 41.6c-.6 0-1-.1-1.3-.4-.3-.3-.5-.6-.5-1.1v-1c0-.5.2-.8.5-1.1.3-.3.8-.4 1.3-.4s.9.1 1.2.4.4.6.5 1l-1 .1c0-.2-.1-.4-.2-.5-.1-.1-.3-.2-.5-.2s-.4.1-.5.2c-.1.1-.2.3-.2.6v.9c0 .3.1.5.2.6.1.1.3.2.5.2s.4 0 .5-.1c.1-.1.2-.2.2-.4l1 .1c0 .4-.2.7-.4.9-.3.1-.7.2-1.3.2zM118.1 41.5v-3.8h1.1v.7h.2c.1-.3.2-.4.4-.6s.4-.2.7-.2c.3 0 .6.1.7.3s.3.5.3.8v.7h-1v-.3c0-.2 0-.3-.1-.4-.1-.1-.2-.1-.4-.1s-.3 0-.4.1c-.1.1-.3.2-.4.4v2.5h-1.1zM125.8 40.7c-.1.4-.3.6-.6.7-.3.1-.6.2-1.2.2-.5 0-.9-.1-1.3-.4-.3-.2-.5-.6-.5-1.1v-1c0-.5.2-.8.5-1.1s.7-.4 1.3-.4 1 .1 1.3.4c.3.3.5.6.5 1.1v.7h-2.4v.4c0 .2.1.4.2.5s.3.2.5.2.4 0 .5-.1c.1-.1.2-.2.3-.4l.9.3zm-2.5-1.7v.2h1.3V39c0-.3 0-.5-.1-.6-.1-.1-.3-.2-.5-.2s-.4.1-.5.2c-.1.2-.2.4-.2.6zM127.7 41.6c-.3 0-.6-.1-.9-.3-.2-.2-.3-.5-.3-.8 0-.4.1-.6.4-.8s.6-.3.9-.3h1v-.5c0-.2-.1-.3-.2-.4-.1-.1-.3-.1-.5-.1s-.4 0-.5.1-.2.2-.2.5l-.9-.2c.1-.4.3-.7.5-.9.2-.2.6-.3 1.1-.3.5 0 .9.1 1.2.3.3.2.4.5.4.9v1.5c0 .2.1.3.2.3s.3.1.5 0v.8c-.3.1-.6.1-.8 0-.2-.1-.4-.3-.4-.6h-.2c-.1.2-.3.3-.5.5-.3.2-.5.3-.8.3zm.2-.7c.2 0 .3 0 .4-.1.1 0 .3-.1.4-.2V40h-.9c-.1 0-.3 0-.3.1-.1.1-.1.2-.1.4 0 .1 0 .2.1.3s.3.1.4.1zM133.4 41.6c-.5 0-.9-.1-1.1-.3s-.4-.6-.4-1v-1.7h-.9v-.8h.9v-1.3h1.1v1.3h1.4v.8H133v1.6c0 .2.1.4.2.5.1.1.3.2.4.2h.4c.1 0 .3-.1.4-.1l.1.8c-.1 0-.2.1-.4.1-.3-.1-.5-.1-.7-.1zM138.9 40.7c-.1.4-.3.6-.6.7-.3.1-.6.2-1.2.2-.5 0-.9-.1-1.3-.4-.3-.2-.5-.6-.5-1.1v-1c0-.5.2-.8.5-1.1.3-.3.7-.4 1.3-.4s1 .1 1.3.4.5.6.5 1.1v.7h-2.4v.4c0 .2.1.4.2.5.1.1.3.2.5.2s.4 0 .5-.1c.1-.1.2-.2.3-.4l.9.3zm-2.5-1.7v.2h1.3V39c0-.3-.1-.5-.2-.6-.1-.1-.3-.2-.5-.2s-.4.1-.5.2c-.1.2-.1.4-.1.6z"/></g><g enable-background="new"><path d="M109.2 48.7v-5.1h1.1v1.9h1.4v-1.9h1.1v5.1h-1.1v-2.4h-1.4v2.4h-1.1zM114.6 48.8c-.3 0-.6-.1-.9-.3-.2-.2-.3-.5-.3-.8 0-.4.1-.6.4-.8s.6-.3.9-.3h1v-.5c0-.2-.1-.3-.2-.4-.1-.1-.3-.1-.5-.1s-.4 0-.5.1-.2.2-.2.5l-.9-.2c.1-.4.3-.7.5-.9.2-.2.6-.3 1.1-.3.5 0 .9.1 1.2.3.3.2.4.5.4.9v1.5c0 .2.1.3.2.3s.3.1.5 0v.8c-.3.1-.6.1-.8 0-.2-.1-.4-.3-.4-.6h-.2c-.1.2-.3.3-.5.5s-.5.3-.8.3zm.3-.7c.2 0 .3 0 .4-.1.1 0 .3-.1.4-.2v-.6h-.9c-.1 0-.3 0-.3.1-.1.1-.1.2-.1.4 0 .1 0 .2.1.3s.2.1.4.1zM119.7 48.8c-.3 0-.6 0-1-.1-.3-.1-.6-.2-.8-.4l.3-.7c.2.2.5.3.8.4.3.1.5.1.8.1.2 0 .3 0 .5-.1.1-.1.2-.2.2-.3 0-.1-.1-.3-.2-.3-.1-.1-.3-.1-.6-.1-.5-.1-.9-.2-1.2-.3-.3-.2-.4-.4-.4-.8s.1-.7.4-.9c.3-.2.7-.3 1.1-.3.3 0 .5 0 .8.1s.5.2.8.3l-.2.6c-.2-.1-.4-.2-.7-.3-.2-.1-.4-.1-.6-.1-.2 0-.3 0-.4.1-.1.1-.1.2-.1.3 0 .1.1.3.2.3s.4.1.7.1c.5.1.8.2 1.1.4.2.2.4.4.4.8s-.2.7-.5.9c-.5.2-.9.3-1.4.3zM122.3 48.7v-5.1h1.1v1.9h.2c.1-.2.2-.4.4-.5.2-.1.4-.2.7-.2.3 0 .6.1.8.3.2.2.3.5.3.9v2.7h-1.1v-2.4c0-.2 0-.4-.1-.5s-.2-.2-.4-.2c-.1 0-.3.1-.4.2-.1.1-.3.2-.4.4v2.5h-1.1zM130.2 47.9c-.1.4-.3.6-.6.7-.3.1-.6.2-1.2.2-.5 0-.9-.1-1.3-.4-.3-.2-.5-.6-.5-1.1v-1c0-.5.2-.8.5-1.1s.7-.4 1.3-.4 1 .1 1.3.4c.3.3.5.6.5 1.1v.7h-2.4v.4c0 .2.1.4.2.5s.3.2.5.2.4 0 .5-.1c.1-.1.2-.2.3-.4l.9.3zm-2.5-1.7v.2h1.3v-.2c0-.3 0-.5-.1-.6-.1-.1-.3-.2-.5-.2s-.4.1-.5.2c-.2.2-.2.4-.2.6zM133.2 48.1c-.1.2-.2.4-.4.5-.2.1-.4.2-.7.2-.4 0-.6-.1-.8-.4-.2-.3-.3-.6-.3-.9v-1.2c0-.5.1-.8.4-1.1.3-.3.7-.4 1.1-.4h.4c.1 0 .3.1.4.1v-1.4h1.1v5.1h-1.1v-.7h-.1zm-.6-.1c.1 0 .3 0 .4-.1.1-.1.3-.2.4-.3v-1.7c-.1-.1-.2-.1-.3-.1-.1 0-.2-.1-.4-.1s-.4.1-.5.2-.2.3-.2.5v1c0 .2 0 .4.1.5.2 0 .3.1.5.1zM110.9 57.2c-.4 0-.7-.1-1.1-.2-.3-.1-.6-.3-.8-.5l.3-.8c.2.2.5.3.7.4.3.1.5.2.9.2.3 0 .5-.1.6-.2s.2-.3.2-.4c0-.2-.1-.4-.2-.5s-.4-.2-.8-.3c-.6-.1-1-.3-1.2-.5s-.3-.5-.3-1c0-.4.1-.8.4-1.1s.7-.4 1.3-.4c.3 0 .6.1.9.2.3.1.6.3.8.4l-.3.8c-.2-.2-.4-.3-.7-.4-.2-.1-.5-.1-.7-.1-.2 0-.4 0-.5.1s-.2.2-.2.4.1.3.2.4c.1.1.4.2.8.3.6.1 1 .3 1.2.5.2.2.3.6.3 1 0 .5-.2.9-.5 1.1-.3.5-.7.6-1.3.6zM114.3 58.5h-.4c-.1 0-.3 0-.5-.1l.1-.8c.2 0 .3.1.4.1h.3c.2 0 .4 0 .5-.1.1-.1.2-.3.3-.6h-.6l-1.1-3.6h1.1l.8 3 .9-3h1l-1.2 3.8c-.2.5-.4.9-.6 1.1-.2.1-.5.2-1 .2zM117.9 57.1v-3.8h1.1v.7h.2c.1-.2.2-.4.5-.5.2-.1.4-.2.7-.2.3 0 .6.1.8.3s.3.5.3.9v2.7h-1.1v-2.5c0-.2 0-.3-.1-.4s-.2-.1-.4-.1c-.1 0-.3 0-.4.1-.2.1-.3.2-.4.4v2.5h-1.2zM124 57.2c-.5 0-1-.1-1.3-.4-.3-.3-.5-.6-.5-1.1v-1c0-.5.2-.8.5-1.1s.7-.4 1.3-.4c.5 0 1 .1 1.3.4s.5.6.5 1.1v1c0 .5-.2.8-.5 1.1-.3.3-.7.4-1.3.4zm0-.8c.2 0 .4-.1.5-.2.1-.1.2-.3.2-.5v-.9c0-.2-.1-.4-.2-.5-.1-.1-.3-.2-.5-.2s-.4.1-.5.2c-.1.1-.2.3-.2.5v.9c0 .3.1.4.2.5.1.2.3.2.5.2zM128.5 57.2h-.4c-.1 0-.3-.1-.4-.1v1.4h-1.1v-5.1h1.1v.6h.2c.1-.2.2-.4.4-.5.2-.1.4-.2.7-.2.3 0 .6.1.8.4.2.2.3.6.3 1v1.2c0 .4-.1.8-.4 1s-.7.3-1.2.3zm-.1-.8c.2 0 .4-.1.5-.2.1-.1.2-.3.2-.5v-1c0-.2 0-.4-.1-.5-.1-.1-.2-.2-.4-.2-.1 0-.3 0-.4.1-.1.1-.3.2-.4.3v1.7c.1.1.2.1.3.1 0 .2.1.2.3.2zM132.7 57.2c-.3 0-.6 0-1-.1-.3-.1-.6-.2-.8-.4l.3-.7c.2.2.5.3.8.4.3.1.5.1.8.1.2 0 .3 0 .5-.1.1-.1.2-.2.2-.3 0-.1-.1-.3-.2-.3-.1-.1-.3-.1-.6-.1-.5-.1-.9-.2-1.2-.3-.3-.2-.4-.4-.4-.8s.1-.7.4-.9c.3-.2.7-.3 1.1-.3.3 0 .5 0 .8.1s.5.2.8.3l-.2.6c-.2-.1-.4-.2-.7-.3-.2-.1-.4-.1-.6-.1-.2 0-.3 0-.4.1-.1.1-.1.2-.1.3 0 .1.1.3.2.3s.4.1.7.1c.5.1.8.2 1.1.4.2.2.4.4.4.8s-.2.7-.5.9c-.4.2-.8.3-1.4.3zM135.4 57.1v-.8h1.2v-2.2h-1.2v-.8h2.2v3h1.2v.8h-3.4zm1.7-4.4c-.2 0-.4 0-.5-.1-.1-.1-.2-.2-.2-.3v-.1c0-.2.1-.3.2-.4.1-.1.3-.1.5-.1s.4 0 .5.1c.1.1.2.2.2.4v.1c0 .2-.1.3-.2.3-.1.1-.3.1-.5.1zM141.4 57.2c-.3 0-.6 0-1-.1-.3-.1-.6-.2-.8-.4l.3-.7c.2.2.5.3.8.4.3.1.5.1.8.1.2 0 .3 0 .5-.1.1-.1.2-.2.2-.3 0-.1-.1-.3-.2-.3-.1-.1-.3-.1-.6-.1-.5-.1-.9-.2-1.2-.3-.3-.2-.4-.4-.4-.8s.1-.7.4-.9c.3-.2.7-.3 1.1-.3.3 0 .5 0 .8.1.3.1.5.2.8.3l-.2.6c-.2-.1-.4-.2-.7-.3-.2-.1-.4-.1-.6-.1-.2 0-.3 0-.4.1-.1.1-.1.2-.1.3 0 .1.1.3.2.3s.4.1.7.1c.5.1.8.2 1.1.4.2.2.4.4.4.8s-.2.7-.5.9c-.4.2-.8.3-1.4.3z"/></g><path d="M217.8 47.6c0 .1-.1.1-.1.1h-.7c-.1 0-.1 0-.1-.1l.1-1.2-.5.6c-.3.5-.7.7-1.4.7h-.2c-.6 0-1.1-.4-1.1-1.1v-.2l.1-1.3c.1-1.2.8-1.9 2-1.9h.1c.5 0 .9.2 1.2.4l.2-2.2c0-.1.1-.1.1-.1h.7s.1 0 .1.1l-.5 6.2zm-1.6-1.2l.9-1.1.1-.9c-.3-.2-.6-.3-1.1-.3h-.1c-.7 0-1.1.5-1.1 1.2 0 .5-.1 1.1-.1 1.4 0 .2.2.4.4.4h.1c.3-.1.6-.4.9-.7zM223 47.6c0 .1-.1.1-.1.1h-.7c-.1 0-.1 0-.1-.1 0 0 0-.2.1-1.2l-.4.6c-.3.5-.7.7-1.4.7h-.2c-.6 0-1.1-.4-1.1-1.1v-.2l.1-1.3c.1-1.2.8-1.9 2-1.9h.1c.4 0 .9.2 1.2.4v-.2c0-.1.1-.1.1-.1h.7s.1 0 .1.1l-.4 4.2zm-1.5-1.2l.9-1.1.1-.9c-.3-.2-.6-.3-1.1-.3h-.1c-.7 0-1.1.5-1.1 1.2l-.1 1.2v.1c0 .3.2.4.4.4h.1c.3 0 .6-.3.9-.6zM226.7 47.6c0 .1-.1.1-.1.1h-.7c-.8 0-1.2-.4-1.2-1.1v-.2l.2-2.2-.9-.2c-.1 0-.1-.1-.1-.1l.1-.5c0-.1.1-.1.1-.1h.9l.1-.4c0-.1 0-.1.1-.2l.6-.4h.1c.1 0 .1 0 .1.1l-.1.9h1.1c.1 0 .1 0 .1.1l-.1.7c0 .1-.1.1-.1.1h-1.1c-.1.8-.2 2.1-.2 2.3 0 .2.1.4.4.4h.6s.1 0 .1.1v.6zM231.6 47.6c0 .1-.1.1-.1.1h-.7c-.1 0-.1 0-.1-.1 0 0 0-.2.1-1.2l-.4.6c-.3.5-.7.7-1.4.7h-.2c-.6 0-1.1-.4-1.1-1.1v-.2l.1-1.3c.1-1.2.8-1.9 2-1.9h.1c.4 0 .9.2 1.2.4v-.2c0-.1.1-.1.1-.1h.7s.1 0 .1.1l-.4 4.2zm-1.6-1.2l.9-1.1.1-.9c-.3-.2-.6-.3-1.1-.3h-.1c-.7 0-1.1.5-1.1 1.2l-.1 1.2v.1c0 .3.2.4.4.4h.1c.3 0 .6-.3.9-.6zM234.2 44.6l.4-.7c.3-.5.7-.7 1.4-.7h.2c.6 0 1.1.4 1.1 1.1v.3l-.1 1.1c-.1 1.2-.8 1.9-2 1.9H233c-.1 0-.1 0-.1-.1 0 0 0-.2.7-6.2 0-.1.1-.1.1-.1h.7c.1 0 .1 0 .1.1l-.3 3.3zm-.1 1.2L234 47h1.2c.7 0 1.1-.5 1.1-1.2 0-.4.1-1.1.1-1.3 0-.2-.2-.4-.4-.4-.4 0-.7.3-1 .6l-.9 1.1zM242.1 47.6c0 .1-.1.1-.1.1h-.7c-.1 0-.1 0-.1-.1 0 0 0-.2.1-1.2l-.4.6c-.3.5-.7.7-1.4.7h-.2c-.6 0-1.1-.4-1.1-1.1v-.2l.1-1.3c.1-1.2.8-1.9 2-1.9h.1c.4 0 .9.2 1.2.4v-.2c0-.1.1-.1.1-.1h.7s.1 0 .1.1l-.4 4.2zm-1.6-1.2l.9-1.1.1-.9c-.3-.2-.6-.3-1.1-.3h-.1c-.7 0-1.1.5-1.1 1.2l-.1 1.2v.1c0 .3.2.4.4.4h.1c.3 0 .6-.3.9-.6zM246.9 44c0 .1-.1.1-.1.1h-1.9c-.3 0-.5.1-.6.4v.1c0 .2.2.3.4.4.3.1.6.1.9.2.7.1 1.2.4 1.2 1.1v.3c-.1.8-.7 1.2-1.6 1.2h-2s-.1 0-.1-.1c0 0 0-.2.1-.6 0-.1.1-.1.1-.1h2.1c.3 0 .6-.2.6-.5s-.3-.4-.6-.5c-.3 0-.6-.1-.9-.2-.6-.1-1-.6-1-1.1v-.2c0-.7.6-1.1 1.5-1.1h1.9s.1 0 .1.1l-.1.5zM248.6 46.3c0 .5.2.7.8.7h1.9s.1 0 .1.1l-.1.6c0 .1-.1.1-.1.1h-2c-.9 0-1.5-.5-1.5-1.4v-.2l.1-.9c.1-1.2.8-1.9 2-1.9h.6c.9 0 1.4.4 1.4 1v.3c-.1.8-.7 1-1.4 1.2l-1.8.4zm.1-.8l1.3-.4c.5-.1.8-.3.9-.6v-.1c0-.2-.2-.3-.4-.3h-.6c-.7 0-1 .4-1.1 1.2l-.1.2z"/><circle fill="none" stroke="#000" stroke-width="2" stroke-linejoin="bevel" stroke-miterlimit="10" cx="232.5" cy="45" r="28.8"/><path fill="none" stroke="#000" stroke-width="2" stroke-miterlimit="10" d="M168.4 45h33"/><path d="M197.4 48.4l3.4-3.4-3.4-3.4h2.9l3.4 3.4-3.4 3.4z"/></svg>