<svg xmlns="http://www.w3.org/2000/svg" viewBox="0 0 270 120" enable-background="new 0 0 270 120"><path fill="none" stroke="#000" stroke-width="2" stroke-miterlimit="10" d="M194.8 61.5c0-2.9 1.5-5.4 3.8-6.9-.1-.4-.1-.9-.1-1.4 0-5.4 4.4-9.8 9.8-9.9 1.3 0 2.6.2 3.8.7.1-9.1 7.6-16.6 16.8-16.7 5.8-.1 10.9 2.7 13.9 7 1.6-.6 3.3-1 5.1-1 7.8-.1 14.2 6.1 14.2 13.8 0 1.1-.1 2.2-.4 3.3 3.1 1.6 5.3 4.8 5.3 8.6 0 5.4-4.4 9.8-9.8 9.9l-54.6.7v-.1c-4.4-.1-7.8-3.6-7.8-8zM64.5 33.6c0-2.3-.5-7.6-6-9.5.1-.4.1-.7.1-1.1 0-4.3-3.5-7.8-7.8-7.9-1.1 0-2.1.2-3 .6-.1-7.3-5-9.3-12.4-9.4-4.6-.1-8.7 2.2-11.1 5.6-1.3-.5-2.6-.8-4.1-.8C13.8 11 8.7 16 8.6 22.2c0 .9.1 1.8.3 2.6-2.5 1.3-4.2 3.9-4.3 6.9 0 4.3 3.5 7.8 7.8 7.9l43.7.5V40c3.6-.1 8.4-2.9 8.4-6.4z"/><circle fill="none" stroke="#cf00ab" stroke-width="14" stroke-miterlimit="10" stroke-dasharray="3.9894,5.9841" cx="134" cy="59.2" r="49.2"/><circle fill="#fff" stroke="#cf00ab" stroke-width="2" stroke-linecap="round" stroke-linejoin="round" stroke-miterlimit="10" cx="134" cy="59.2" r="43"/><g stroke="#000" stroke-width="2" stroke-miterlimit="10"><path d="M103.8 63.4l2 11.7 5.5-.9-.8-4.8M132.6 58.5l2 11.7-5.5.9-.8-4.8"/><path fill="#fff" d="M134.8 56.7c-.2-1.1-1.4-1.8-2.8-1.6-2.3-8.5-9.4-14.1-16.7-12.9-7.3 1.2-12.1 9-11.4 17.7h-.2c-1.4.2-2.4 1.4-2.2 2.5.2 1.1 1.5 1.9 2.9 1.6.1 0 .1 0 .2-.1 2.3 8.5 9.4 14.2 16.7 12.9 7.3-1.2 12.1-9 11.4-17.7 1.4-.2 2.3-1.2 2.1-2.4z"/><path d="M115.5 42.2h-.2c-7.2 1.2-12 8.8-11.5 17.5h.2c7.3-1.2 12.1-8.8 11.5-17.5zM116 42.1c2.3 8.1 9 13.6 16 12.8-2.3-8.1-9-13.6-16-12.8z"/><g stroke-linecap="round" stroke-linejoin="round"><path fill="#fff" d="M160.5 75.8l-12-1.4c-1.3-.2-2.2-1.3-2.1-2.6l3.3-28.5c.2-1.3 1.3-2.2 2.6-2.1l12 1.4c1.3.2 2.2 1.3 2.1 2.6l-3.3 28.5c-.1 1.3-1.3 2.3-2.6 2.1"/><path d="M155.1 70.1c-.7-.1-1.4.4-1.4 1.1-.1.7.4 1.4 1.1 1.4.7.1 1.4-.4 1.4-1.1.2-.7-.4-1.4-1.1-1.4"/><path fill="#fff" d="M163.8 68.4l-16.7-2 2.3-19.8 16.7 2-2.3 19.8"/><path fill="none" d="M156.2 44.5l3.8.5"/></g></g><path fill="none" stroke="#000" stroke-width="2" stroke-miterlimit="10" d="M72.7 107.5c5.3-.1 9.6-2.5 9.5-7.7 0-3.7-2.1-6.8-5.2-8.4.2-1 .4-2.1.4-3.2 0-7.5-6.2-11.7-13.8-11.6-1.8 0-3.4.4-5 1-3-4.2-9.3-7.8-15.1-7-4.6-.2-8.7 3.4-11.3 7.6-1.3-.6-2.6-1-4.1-1.1-6.2-.2-11.4 3.8-11.6 11.4 0 1.1.1 2.2.3 3.2-2.5 1.5-4.3 4.6-4.4 8.3-.1 5.2 3.3 7.7 7.7 7.9 0 0 55.9-.6 52.6-.4z"/></svg>