<?xml version="1.0" encoding="utf-8"?>
<!-- Generator: Adobe Illustrator 18.0.0, SVG Export Plug-In . SVG Version: 6.00 Build 0)  -->
<!DOCTYPE svg PUBLIC "-//W3C//DTD SVG 1.1//EN" "http://www.w3.org/Graphics/SVG/1.1/DTD/svg11.dtd">
<svg version="1.1" xmlns="http://www.w3.org/2000/svg" xmlns:xlink="http://www.w3.org/1999/xlink" x="0px" y="0px"
	 viewBox="487.5 12.5 432 221.9" enable-background="new 487.5 12.5 432 221.9" xml:space="preserve">
<g id="Layer_1">
	<g>
		<g>
			<g>
				<rect x="838.4" y="147.9" fill="none" width="5.9" height="6.3"/>
				<g>
					<polygon fill="#231F20" points="838.4,154.3 841.6,151.1 838.4,147.9 841.1,147.9 844.3,151.1 841.1,154.3 					"/>
				</g>
			</g>
			<g>
				<rect x="844.7" y="147.9" fill="none" width="5.9" height="6.3"/>
				<g>
					<polygon fill="#231F20" points="844.7,154.3 847.9,151.1 844.7,147.9 847.4,147.9 850.6,151.1 847.4,154.3 					"/>
				</g>
			</g>
			<g>
				
					<rect x="851" y="148.7" transform="matrix(-0.9751 -0.222 0.222 -0.9751 1652.8571 489.576)" fill="none" width="5.9" height="6.3"/>
				<g>
					<polygon fill="#231F20" points="850.4,154.4 854.2,152 851.8,148.2 854.4,148.8 856.8,152.6 853,155 					"/>
				</g>
			</g>
			<g>
				
					<rect x="856.7" y="150.9" transform="matrix(-0.8211 -0.5709 0.5709 -0.8211 1477.4392 771.2791)" fill="none" width="5.9" height="6.3"/>
				<g>
					<polygon fill="#231F20" points="855.4,155 859.8,154.2 859,149.8 861.2,151.3 862,155.7 857.6,156.5 					"/>
				</g>
			</g>
			<g>
				
					<rect x="859.5" y="156.4" transform="matrix(-0.2857 -0.9583 0.9583 -0.2857 955.9664 1031.6633)" fill="none" width="5.9" height="6.3"/>
				<g>
					<polygon fill="#231F20" points="858.6,157.7 862.5,159.8 864.7,155.9 865.4,158.4 863.3,162.4 859.3,160.2 					"/>
				</g>
			</g>
			<g>
				<rect x="859.3" y="163" fill="none" width="6.3" height="5.9"/>
				<g>
					<polygon fill="#231F20" points="859.3,163 862.5,166.2 865.6,163 865.6,165.7 862.5,168.9 859.3,165.7 					"/>
				</g>
			</g>
			<g>
				<rect x="859.3" y="169.3" fill="none" width="6.3" height="5.9"/>
				<g>
					<polygon fill="#231F20" points="859.3,169.3 862.5,172.5 865.6,169.3 865.6,172 862.5,175.2 859.3,172 					"/>
				</g>
			</g>
			<g>
				<rect x="859.3" y="175.7" fill="none" width="6.3" height="5.9"/>
				<g>
					<polygon fill="#231F20" points="859.3,175.7 862.5,178.9 865.6,175.7 865.6,178.4 862.5,181.5 859.3,178.4 					"/>
				</g>
			</g>
			<g>
				<rect x="859.3" y="182" fill="none" width="6.3" height="5.9"/>
				<g>
					<polygon fill="#231F20" points="859.3,182 862.5,185.2 865.6,182 865.6,184.7 862.5,187.9 859.3,184.7 					"/>
				</g>
			</g>
			<g>
				<rect x="859.3" y="188.4" fill="none" width="6.3" height="5.9"/>
				<g>
					<polygon fill="#231F20" points="859.3,188.4 862.5,191.5 865.6,188.4 865.6,191.1 862.5,194.2 859.3,191.1 					"/>
				</g>
			</g>
			<g>
				<rect x="859.3" y="194.7" fill="none" width="6.3" height="5.9"/>
				<g>
					<polygon fill="#231F20" points="859.3,194.7 862.5,197.9 865.6,194.7 865.6,197.4 862.5,200.6 859.3,197.4 					"/>
				</g>
			</g>
			<g>
				
					<rect x="858.2" y="200.5" transform="matrix(0.5137 -0.858 0.858 0.5137 244.0391 837.829)" fill="none" width="5.9" height="6.3"/>
				<g>
					<polygon fill="#231F20" points="859.9,199.5 861,203.8 865.3,202.7 864,205.1 859.6,206.2 858.5,201.8 					"/>
				</g>
			</g>
			<g>
				
					<rect x="854" y="204.7" transform="matrix(0.9613 -0.2755 0.2755 0.9613 -24.1017 244.0994)" fill="none" width="5.9" height="6.3"/>
				<g>
					<polygon fill="#231F20" points="858.9,204 856.7,207.9 860.6,210.1 858,210.8 854.1,208.7 856.3,204.7 					"/>
				</g>
			</g>
			<g>
				
					<rect x="847.9" y="206.4" transform="matrix(0.9613 -0.2755 0.2755 0.9613 -24.8196 242.486)" fill="none" width="5.9" height="6.3"/>
				<g>
					<polygon fill="#231F20" points="852.7,205.7 850.6,209.7 854.5,211.8 851.9,212.6 848,210.4 850.2,206.5 					"/>
				</g>
			</g>
			<g>
				<rect x="841.5" y="206.5" fill="none" width="5.9" height="6.3"/>
				<g>
					<polygon fill="#231F20" points="847.4,206.5 844.2,209.7 847.4,212.9 844.7,212.9 841.5,209.7 844.7,206.5 					"/>
				</g>
			</g>
			<g>
				<rect x="835.2" y="206.5" fill="none" width="5.9" height="6.3"/>
				<g>
					<polygon fill="#231F20" points="841.1,206.5 837.9,209.7 841.1,212.9 838.4,212.9 835.2,209.7 838.4,206.5 					"/>
				</g>
			</g>
			<g>
				<rect x="828.8" y="206.5" fill="none" width="5.9" height="6.3"/>
				<g>
					<polygon fill="#231F20" points="834.7,206.5 831.5,209.7 834.7,212.9 832,212.9 828.8,209.7 832,206.5 					"/>
				</g>
			</g>
			<g>
				<rect x="822.5" y="206.5" fill="none" width="5.9" height="6.3"/>
				<g>
					<polygon fill="#231F20" points="828.4,206.5 825.2,209.7 828.4,212.9 825.7,212.9 822.5,209.7 825.7,206.5 					"/>
				</g>
			</g>
			<g>
				<rect x="816.1" y="206.5" fill="none" width="5.9" height="6.3"/>
				<g>
					<polygon fill="#231F20" points="822,206.5 818.8,209.7 822,212.9 819.3,212.9 816.1,209.7 819.3,206.5 					"/>
				</g>
			</g>
			<g>
				<rect x="809.8" y="206.5" fill="none" width="5.9" height="6.3"/>
				<g>
					<polygon fill="#231F20" points="815.7,206.5 812.5,209.7 815.7,212.9 813,212.9 809.8,209.7 813,206.5 					"/>
				</g>
			</g>
			<g>
				<rect x="803.5" y="206.5" fill="none" width="5.9" height="6.3"/>
				<g>
					<polygon fill="#231F20" points="809.3,206.5 806.1,209.7 809.3,212.9 806.6,212.9 803.5,209.7 806.6,206.5 					"/>
				</g>
			</g>
			<g>
				<rect x="797.1" y="206.5" fill="none" width="5.9" height="6.3"/>
				<g>
					<polygon fill="#231F20" points="803,206.5 799.8,209.7 803,212.9 800.3,212.9 797.1,209.7 800.3,206.5 					"/>
				</g>
			</g>
			<g>
				<rect x="790.8" y="206.5" fill="none" width="5.9" height="6.3"/>
				<g>
					<polygon fill="#231F20" points="796.6,206.5 793.4,209.7 796.6,212.9 793.9,212.9 790.8,209.7 793.9,206.5 					"/>
				</g>
			</g>
			<g>
				<rect x="784.4" y="206.5" fill="none" width="5.9" height="6.3"/>
				<g>
					<polygon fill="#231F20" points="790.3,206.5 787.1,209.7 790.3,212.9 787.6,212.9 784.4,209.7 787.6,206.5 					"/>
				</g>
			</g>
			<g>
				<rect x="778.1" y="206.5" fill="none" width="5.9" height="6.3"/>
				<g>
					<polygon fill="#231F20" points="783.9,206.5 780.8,209.7 783.9,212.9 781.2,212.9 778.1,209.7 781.2,206.5 					"/>
				</g>
			</g>
			<g>
				<rect x="771.7" y="206.5" fill="none" width="5.9" height="6.3"/>
				<g>
					<polygon fill="#231F20" points="777.6,206.5 774.4,209.7 777.6,212.9 774.9,212.9 771.7,209.7 774.9,206.5 					"/>
				</g>
			</g>
			<g>
				<rect x="765.4" y="206.5" fill="none" width="5.9" height="6.3"/>
				<g>
					<polygon fill="#231F20" points="771.2,206.5 768.1,209.7 771.2,212.9 768.5,212.9 765.4,209.7 768.5,206.5 					"/>
				</g>
			</g>
			<g>
				<rect x="759" y="206.5" fill="none" width="5.9" height="6.3"/>
				<g>
					<polygon fill="#231F20" points="764.9,206.5 761.7,209.7 764.9,212.9 762.2,212.9 759,209.7 762.2,206.5 					"/>
				</g>
			</g>
			<g>
				<rect x="752.7" y="206.5" fill="none" width="5.9" height="6.3"/>
				<g>
					<polygon fill="#231F20" points="758.5,206.5 755.4,209.7 758.5,212.9 755.8,212.9 752.7,209.7 755.8,206.5 					"/>
				</g>
			</g>
			<g>
				<rect x="746.3" y="206.5" fill="none" width="5.9" height="6.3"/>
				<g>
					<polygon fill="#231F20" points="752.2,206.5 749,209.7 752.2,212.9 749.5,212.9 746.3,209.7 749.5,206.5 					"/>
				</g>
			</g>
			<g>
				<rect x="740" y="206.5" fill="none" width="5.9" height="6.3"/>
				<g>
					<polygon fill="#231F20" points="745.8,206.5 742.7,209.7 745.8,212.9 743.1,212.9 740,209.7 743.1,206.5 					"/>
				</g>
			</g>
			<g>
				<rect x="733.6" y="206.5" fill="none" width="5.9" height="6.3"/>
				<g>
					<polygon fill="#231F20" points="739.5,206.5 736.3,209.7 739.5,212.9 736.8,212.9 733.6,209.7 736.8,206.5 					"/>
				</g>
			</g>
			<g>
				<rect x="727.3" y="206.5" fill="none" width="5.9" height="6.3"/>
				<g>
					<polygon fill="#231F20" points="733.1,206.5 730,209.7 733.1,212.9 730.5,212.9 727.3,209.7 730.5,206.5 					"/>
				</g>
			</g>
			<g>
				<rect x="720.9" y="206.5" fill="none" width="5.9" height="6.3"/>
				<g>
					<polygon fill="#231F20" points="726.8,206.5 723.6,209.7 726.8,212.9 724.1,212.9 720.9,209.7 724.1,206.5 					"/>
				</g>
			</g>
			<g>
				<rect x="714.6" y="206.5" fill="none" width="5.9" height="6.3"/>
				<g>
					<polygon fill="#231F20" points="720.4,206.5 717.3,209.7 720.4,212.9 717.8,212.9 714.6,209.7 717.8,206.5 					"/>
				</g>
			</g>
			<g>
				<rect x="708.2" y="206.5" fill="none" width="5.9" height="6.3"/>
				<g>
					<polygon fill="#231F20" points="714.1,206.5 710.9,209.7 714.1,212.9 711.4,212.9 708.2,209.7 711.4,206.5 					"/>
				</g>
			</g>
			<g>
				<rect x="701.9" y="206.5" fill="none" width="5.9" height="6.3"/>
				<g>
					<polygon fill="#231F20" points="707.8,206.5 704.6,209.7 707.8,212.9 705.1,212.9 701.9,209.7 705.1,206.5 					"/>
				</g>
			</g>
			<g>
				<rect x="695.5" y="206.5" fill="none" width="5.9" height="6.3"/>
				<g>
					<polygon fill="#231F20" points="701.4,206.5 698.2,209.7 701.4,212.9 698.7,212.9 695.5,209.7 698.7,206.5 					"/>
				</g>
			</g>
			<g>
				<rect x="689.2" y="206.5" fill="none" width="5.9" height="6.3"/>
				<g>
					<polygon fill="#231F20" points="695.1,206.5 691.9,209.7 695.1,212.9 692.4,212.9 689.2,209.7 692.4,206.5 					"/>
				</g>
			</g>
			<g>
				<rect x="682.8" y="206.5" fill="none" width="5.9" height="6.3"/>
				<g>
					<polygon fill="#231F20" points="688.7,206.5 685.5,209.7 688.7,212.9 686,212.9 682.8,209.7 686,206.5 					"/>
				</g>
			</g>
			<g>
				<rect x="676.5" y="206.5" fill="none" width="5.9" height="6.3"/>
				<g>
					<polygon fill="#231F20" points="682.4,206.5 679.2,209.7 682.4,212.9 679.7,212.9 676.5,209.7 679.7,206.5 					"/>
				</g>
			</g>
			<g>
				<rect x="670.1" y="206.5" fill="none" width="5.9" height="6.3"/>
				<g>
					<polygon fill="#231F20" points="676,206.5 672.8,209.7 676,212.9 673.3,212.9 670.1,209.7 673.3,206.5 					"/>
				</g>
			</g>
			<g>
				<rect x="663.8" y="206.5" fill="none" width="5.9" height="6.3"/>
				<g>
					<polygon fill="#231F20" points="669.7,206.5 666.5,209.7 669.7,212.9 667,212.9 663.8,209.7 667,206.5 					"/>
				</g>
			</g>
			<g>
				<rect x="657.4" y="206.5" fill="none" width="5.9" height="6.3"/>
				<g>
					<polygon fill="#231F20" points="663.3,206.5 660.1,209.7 663.3,212.9 660.6,212.9 657.4,209.7 660.6,206.5 					"/>
				</g>
			</g>
			<g>
				<rect x="651.1" y="206.5" fill="none" width="5.9" height="6.3"/>
				<g>
					<polygon fill="#231F20" points="657,206.5 653.8,209.7 657,212.9 654.3,212.9 651.1,209.7 654.3,206.5 					"/>
				</g>
			</g>
			<g>
				<rect x="644.8" y="206.5" fill="none" width="5.9" height="6.3"/>
				<g>
					<polygon fill="#231F20" points="650.6,206.5 647.4,209.7 650.6,212.9 647.9,212.9 644.8,209.7 647.9,206.5 					"/>
				</g>
			</g>
			<g>
				
					<rect x="638.4" y="206.2" transform="matrix(0.9903 0.1391 -0.1391 0.9903 35.3585 -87.1747)" fill="none" width="5.9" height="6.3"/>
				<g>
					<polygon fill="#231F20" points="644.7,206.7 641.1,209.4 643.8,212.9 641.2,212.6 638.5,209 642.1,206.3 					"/>
				</g>
			</g>
			<g>
				
					<rect x="632.3" y="204.5" transform="matrix(0.9613 0.2755 -0.2755 0.9613 81.7806 -166.9707)" fill="none" width="5.9" height="6.3"/>
				<g>
					<polygon fill="#231F20" points="639,205.4 635,207.6 637.2,211.5 634.6,210.8 632.5,206.8 636.4,204.7 					"/>
				</g>
			</g>
			<g>
				
					<rect x="628.5" y="199.8" transform="matrix(0.5137 0.858 -0.858 0.5137 481.202 -443.0142)" fill="none" width="5.9" height="6.3"/>
				<g>
					<polygon fill="#231F20" points="635.6,203.9 631.3,202.8 630.2,207.1 628.8,204.8 629.9,200.5 634.3,201.6 					"/>
				</g>
			</g>
			<g>
				<rect x="627.3" y="194" fill="none" width="6.3" height="5.9"/>
				<g>
					<polygon fill="#231F20" points="633.6,199.8 630.5,196.7 627.3,199.8 627.3,197.1 630.5,194 633.6,197.1 					"/>
				</g>
			</g>
			<g>
				<rect x="627.3" y="187.6" fill="none" width="6.3" height="5.9"/>
				<g>
					<polygon fill="#231F20" points="633.6,193.5 630.5,190.3 627.3,193.5 627.3,190.8 630.5,187.6 633.6,190.8 					"/>
				</g>
			</g>
			<g>
				<rect x="627.3" y="181.3" fill="none" width="6.3" height="5.9"/>
				<g>
					<polygon fill="#231F20" points="633.6,187.1 630.5,184 627.3,187.1 627.3,184.4 630.5,181.3 633.6,184.4 					"/>
				</g>
			</g>
			<g>
				<rect x="627.3" y="174.9" fill="none" width="6.3" height="5.9"/>
				<g>
					<polygon fill="#231F20" points="633.6,180.8 630.5,177.6 627.3,180.8 627.3,178.1 630.5,174.9 633.6,178.1 					"/>
				</g>
			</g>
			<g>
				<rect x="627.3" y="168.6" fill="none" width="6.3" height="5.9"/>
				<g>
					<polygon fill="#231F20" points="633.6,174.4 630.5,171.3 627.3,174.4 627.3,171.8 630.5,168.6 633.6,171.8 					"/>
				</g>
			</g>
			<g>
				<rect x="627.3" y="162.2" fill="none" width="6.3" height="5.9"/>
				<g>
					<polygon fill="#231F20" points="633.6,168.1 630.5,164.9 627.3,168.1 627.3,165.4 630.5,162.2 633.6,165.4 					"/>
				</g>
			</g>
			<g>
				<rect x="627.3" y="155.9" fill="none" width="6.3" height="5.9"/>
				<g>
					<polygon fill="#231F20" points="633.6,161.8 630.5,158.6 627.3,161.8 627.3,159.1 630.5,155.9 633.6,159.1 					"/>
				</g>
			</g>
			<g>
				<rect x="627.3" y="149.5" fill="none" width="6.3" height="5.9"/>
				<g>
					<polygon fill="#231F20" points="633.6,155.4 630.5,152.2 627.3,155.4 627.3,152.7 630.5,149.5 633.6,152.7 					"/>
				</g>
			</g>
			<g>
				
					<rect x="629.7" y="143.5" transform="matrix(-0.4831 0.8756 -0.8756 -0.4831 1066.6925 -336.3966)" fill="none" width="5.9" height="6.3"/>
				<g>
					<polygon fill="#231F20" points="634,150.8 632.8,146.5 628.5,147.7 629.8,145.4 634.1,144.1 635.3,148.4 					"/>
				</g>
			</g>
			<g>
				
					<rect x="634.5" y="139.9" transform="matrix(-0.9452 0.3266 -0.3266 -0.9452 1286.5587 70.1871)" fill="none" width="5.9" height="6.3"/>
				<g>
					<polygon fill="#231F20" points="635.7,147.1 637.6,143 633.6,141.1 636.1,140.2 640.2,142.2 638.2,146.2 					"/>
				</g>
			</g>
			<g>
				
					<rect x="640.5" y="138.2" transform="matrix(-0.9862 0.1656 -0.1656 -0.9862 1301.4059 174.2158)" fill="none" width="5.9" height="6.3"/>
				<g>
					<polygon fill="#231F20" points="641.1,145 643.7,141.3 640,138.7 642.7,138.3 646.3,140.9 643.7,144.5 					"/>
				</g>
			</g>
			<g>
				<rect x="646.9" y="138.2" fill="none" width="5.9" height="6.3"/>
				<g>
					<polygon fill="#231F20" points="646.9,144.5 650,141.4 646.9,138.2 649.5,138.2 652.7,141.4 649.5,144.5 					"/>
				</g>
			</g>
		</g>
	</g>
	<g display="none">
		<g display="inline">
			<g>
				
					<rect x="768.9" y="152.6" transform="matrix(0.8918 -0.4525 0.4525 0.8918 13.0281 366.0725)" fill="none" width="5.9" height="6.3"/>
				<g>
					<polygon fill="#231F20" points="773,151.6 771.6,155.9 775.8,157.3 773.4,158.5 769.2,157.1 770.6,152.9 					"/>
				</g>
			</g>
			<g>
				
					<rect x="763.2" y="155.5" transform="matrix(0.8918 -0.4525 0.4525 0.8918 11.1116 363.8062)" fill="none" width="5.9" height="6.3"/>
				<g>
					<polygon fill="#231F20" points="767.3,154.5 765.9,158.8 770.2,160.2 767.8,161.4 763.5,160 764.9,155.7 					"/>
				</g>
			</g>
			<g>
				
					<rect x="757.5" y="158.4" transform="matrix(0.8918 -0.4525 0.4525 0.8918 9.2023 361.5659)" fill="none" width="5.9" height="6.3"/>
				<g>
					<polygon fill="#231F20" points="761.6,157.4 760.3,161.7 764.5,163 762.1,164.3 757.9,162.9 759.2,158.6 					"/>
				</g>
			</g>
			<g>
				
					<rect x="751.9" y="161.2" transform="matrix(0.8918 -0.4525 0.4525 0.8918 7.2917 359.321)" fill="none" width="5.9" height="6.3"/>
				<g>
					<polygon fill="#231F20" points="756,160.3 754.6,164.5 758.9,165.9 756.5,167.1 752.2,165.7 753.6,161.5 					"/>
				</g>
			</g>
			<g>
				
					<rect x="746.2" y="164.1" transform="matrix(0.8918 -0.4525 0.4525 0.8918 5.378 357.0645)" fill="none" width="5.9" height="6.3"/>
				<g>
					<polygon fill="#231F20" points="750.3,163.1 748.9,167.4 753.2,168.8 750.8,170 746.5,168.6 747.9,164.4 					"/>
				</g>
			</g>
			<g>
				
					<rect x="740.6" y="167" transform="matrix(0.8918 -0.4525 0.4525 0.8918 3.4655 354.8125)" fill="none" width="5.9" height="6.3"/>
				<g>
					<polygon fill="#231F20" points="744.7,166 743.3,170.3 747.5,171.7 745.1,172.9 740.9,171.5 742.3,167.2 					"/>
				</g>
			</g>
			<g>
				
					<rect x="734.8" y="169.3" transform="matrix(0.9708 -0.2397 0.2397 0.9708 -19.8371 181.858)" fill="none" width="5.9" height="6.3"/>
				<g>
					<polygon fill="#231F20" points="739.8,168.7 737.5,172.5 741.3,174.9 738.7,175.5 734.8,173.2 737.2,169.3 					"/>
				</g>
			</g>
			<g>
				
					<rect x="728.4" y="169.4" transform="matrix(0.9999 -1.465868e-02 1.465868e-02 0.9999 -2.4511 10.739)" fill="none" width="5.9" height="6.3"/>
				<g>
					<polygon fill="#231F20" points="734.2,169.4 731.1,172.6 734.3,175.7 731.6,175.7 728.4,172.6 731.5,169.4 					"/>
				</g>
			</g>
			<g>
				
					<rect x="722.1" y="169.5" transform="matrix(0.9999 -1.464513e-02 1.464513e-02 0.9999 -2.4509 10.6361)" fill="none" width="5.9" height="6.3"/>
				<g>
					<polygon fill="#231F20" points="727.9,169.4 724.8,172.7 728,175.8 725.3,175.8 722.1,172.7 725.2,169.5 					"/>
				</g>
			</g>
			<g>
				
					<rect x="715.7" y="169.6" transform="matrix(0.9999 -1.465868e-02 1.465868e-02 0.9999 -2.4552 10.553)" fill="none" width="5.9" height="6.3"/>
				<g>
					<polygon fill="#231F20" points="721.5,169.5 718.4,172.8 721.6,175.9 718.9,175.9 715.7,172.8 718.8,169.6 					"/>
				</g>
			</g>
			<g>
				
					<rect x="709.4" y="169.7" transform="matrix(0.9999 -1.466118e-02 1.466118e-02 0.9999 -2.4576 10.4617)" fill="none" width="5.9" height="6.3"/>
				<g>
					<polygon fill="#231F20" points="715.2,169.6 712.1,172.9 715.3,176 712.6,176 709.4,172.9 712.5,169.7 					"/>
				</g>
			</g>
			<g>
				
					<rect x="703" y="169.8" transform="matrix(0.9999 -1.464164e-02 1.464164e-02 0.9999 -2.4565 10.3548)" fill="none" width="5.9" height="6.3"/>
				<g>
					<polygon fill="#231F20" points="708.8,169.7 705.7,172.9 708.9,176.1 706.2,176.1 703,173 706.1,169.8 					"/>
				</g>
			</g>
			<g>
				
					<rect x="696.7" y="169.9" transform="matrix(0.9999 -1.466093e-02 1.466093e-02 0.9999 -2.4617 10.2754)" fill="none" width="5.9" height="6.3"/>
				<g>
					<polygon fill="#231F20" points="702.5,169.8 699.4,173 702.6,176.2 699.9,176.2 696.7,173.1 699.8,169.9 					"/>
				</g>
			</g>
			<g>
				
					<rect x="690.3" y="170" transform="matrix(0.9999 -1.464164e-02 1.464164e-02 0.9999 -2.4606 10.169)" fill="none" width="5.9" height="6.3"/>
				<g>
					<polygon fill="#231F20" points="696.1,169.9 693,173.1 696.2,176.3 693.5,176.3 690.3,173.2 693.5,170 					"/>
				</g>
			</g>
			<g>
				
					<rect x="684" y="170" transform="matrix(0.9999 -1.464414e-02 1.464414e-02 0.9999 -2.463 10.0778)" fill="none" width="5.9" height="6.3"/>
				<g>
					<polygon fill="#231F20" points="689.8,170 686.7,173.2 689.9,176.4 687.2,176.4 684,173.3 687.1,170 					"/>
				</g>
			</g>
			<g>
				
					<rect x="677.6" y="170.1" transform="matrix(0.9999 -1.465868e-02 1.465868e-02 0.9999 -2.4675 9.9948)" fill="none" width="5.9" height="6.3"/>
				<g>
					<polygon fill="#231F20" points="683.4,170.1 680.3,173.3 683.5,176.4 680.9,176.5 677.6,173.4 680.8,170.1 					"/>
				</g>
			</g>
			<g>
				<rect x="671.3" y="170.2" fill="none" width="5.9" height="6.3"/>
				<g>
					<polygon fill="#231F20" points="677.1,170.2 674,173.4 677.1,176.5 674.5,176.5 671.3,173.4 674.5,170.2 					"/>
				</g>
			</g>
			<g>
				<rect x="664.9" y="170.2" fill="none" width="5.9" height="6.3"/>
				<g>
					<polygon fill="#231F20" points="670.8,170.2 667.6,173.4 670.8,176.5 668.1,176.5 664.9,173.4 668.1,170.2 					"/>
				</g>
			</g>
			<g>
				<rect x="658.6" y="170.2" fill="none" width="5.9" height="6.3"/>
				<g>
					<polygon fill="#231F20" points="664.5,170.2 661.3,173.4 664.5,176.5 661.8,176.5 658.6,173.4 661.8,170.2 					"/>
				</g>
			</g>
			<g>
				<rect x="652.2" y="170.2" fill="none" width="5.9" height="6.3"/>
				<g>
					<polygon fill="#231F20" points="658.1,170.2 654.9,173.4 658.1,176.5 655.4,176.5 652.2,173.4 655.4,170.2 					"/>
				</g>
			</g>
			<g>
				<rect x="645.9" y="170.2" fill="none" width="5.9" height="6.3"/>
				<g>
					<polygon fill="#231F20" points="651.8,170.2 648.6,173.4 651.8,176.5 649.1,176.5 645.9,173.4 649.1,170.2 					"/>
				</g>
			</g>
			<g>
				<rect x="639.5" y="170.2" fill="none" width="5.9" height="6.3"/>
				<g>
					<polygon fill="#231F20" points="645.4,170.2 642.2,173.4 645.4,176.5 642.7,176.5 639.5,173.4 642.7,170.2 					"/>
				</g>
			</g>
			<g>
				<rect x="633.2" y="170.2" fill="none" width="5.9" height="6.3"/>
				<g>
					<polygon fill="#231F20" points="639.1,170.2 635.9,173.4 639.1,176.5 636.4,176.5 633.2,173.4 636.4,170.2 					"/>
				</g>
			</g>
			<g>
				
					<rect x="627.3" y="167.9" transform="matrix(0.9128 0.4085 -0.4085 0.9128 124.8598 -242.5566)" fill="none" width="5.9" height="6.3"/>
				<g>
					<polygon fill="#231F20" points="634.2,169.3 630.1,170.9 631.7,175.1 629.2,174 627.6,169.8 631.8,168.2 					"/>
				</g>
			</g>
			<g>
				
					<rect x="621.7" y="165.1" transform="matrix(0.6939 0.7201 -0.7201 0.6939 312.3736 -398.2409)" fill="none" width="5.9" height="6.3"/>
				<g>
					<polygon fill="#231F20" points="628.9,168.2 624.4,168.1 624.4,172.6 622.5,170.7 622.6,166.2 627.1,166.3 					"/>
				</g>
			</g>
			<g>
				
					<rect x="619.3" y="159.2" transform="matrix(0.3744 0.9273 -0.9273 0.3744 539.8793 -475.3716)" fill="none" width="5.9" height="6.3"/>
				<g>
					<polygon fill="#231F20" points="626.3,164 622.1,162.2 620.4,166.3 619.4,163.8 621.1,159.7 625.3,161.5 					"/>
				</g>
			</g>
			<g>
				<rect x="617.5" y="153.6" fill="none" width="6.3" height="5.9"/>
				<g>
					<polygon fill="#231F20" points="623.9,159.5 620.7,156.3 617.5,159.5 617.5,156.8 620.7,153.6 623.9,156.8 					"/>
				</g>
			</g>
			<g>
				
					<rect x="620.1" y="147.5" transform="matrix(-0.3744 0.9273 -0.9273 -0.3744 996.0532 -370.7039)" fill="none" width="5.9" height="6.3"/>
				<g>
					<polygon fill="#231F20" points="624.9,154.6 623.2,150.4 619,152.2 620,149.7 624.2,147.9 625.9,152.1 					"/>
				</g>
			</g>
			<g>
				
					<rect x="623.6" y="142.6" transform="matrix(-0.9128 0.4085 -0.4085 -0.9128 1257.9436 22.9229)" fill="none" width="5.9" height="6.3"/>
				<g>
					<polygon fill="#231F20" points="625.1,149.9 626.7,145.7 622.5,144.1 625,143 629.2,144.6 627.6,148.8 					"/>
				</g>
			</g>
			<g>
				
					<rect x="629.4" y="140" transform="matrix(-0.9128 0.4085 -0.4085 -0.9128 1267.9674 15.5956)" fill="none" width="5.9" height="6.3"/>
				<g>
					<polygon fill="#231F20" points="630.9,147.3 632.5,143.1 628.3,141.5 630.8,140.4 635,142 633.4,146.2 					"/>
				</g>
			</g>
			<g>
				
					<rect x="635.4" y="138.6" transform="matrix(-1 1.483114e-03 -1.483114e-03 -1 1276.939 282.6267)" fill="none" width="5.9" height="6.3"/>
				<g>
					<polygon fill="#231F20" points="635.4,145 638.6,141.8 635.4,138.6 638.1,138.6 641.3,141.8 638.1,145 					"/>
				</g>
			</g>
			<g>
				<rect x="641.8" y="138.6" fill="none" width="5.9" height="6.3"/>
				<g>
					<polygon fill="#231F20" points="641.8,145 645,141.8 641.8,138.6 644.5,138.6 647.6,141.8 644.5,145 					"/>
				</g>
			</g>
			<g>
				<rect x="648.1" y="138.6" fill="none" width="5.9" height="6.3"/>
				<g>
					<polygon fill="#231F20" points="648.1,145 651.3,141.8 648.1,138.6 650.8,138.6 654,141.8 650.8,145 					"/>
				</g>
			</g>
		</g>
	</g>
	<g id="Layer_1_1_" display="none">
		
			<rect x="277.6" y="-11.8" display="inline" fill="#FFFFFF" stroke="#231F20" stroke-width="0.25" stroke-miterlimit="10" width="345.7" height="564.7"/>
		
			<rect x="277.6" y="-11.8" display="inline" fill="#FFFFFF" stroke="#231F20" stroke-width="0.25" stroke-miterlimit="10" width="345.7" height="282.3"/>
		
			<rect x="277.6" y="270.6" display="inline" fill="#FFFFFF" stroke="#231F20" stroke-width="0.25" stroke-miterlimit="10" width="345.7" height="282.3"/>
		
			<rect x="277.6" y="-11.8" display="inline" fill="#FFFFFF" stroke="#231F20" stroke-width="0.25" stroke-miterlimit="10" width="345.7" height="141.1"/>
		
			<rect x="277.6" y="411.8" display="inline" fill="#FFFFFF" stroke="#231F20" stroke-width="0.25" stroke-miterlimit="10" width="345.7" height="141.1"/>
	</g>
	<g id="Layer_3">
	</g>
	<rect x="200.1" y="133.6" fill="none" width="78.2" height="19.2"/>
	<line fill="none" stroke="#000000" stroke-miterlimit="10" x1="121.9" y1="162.1" x2="121.9" y2="95.2"/>
	<rect x="121.9" y="114.4" fill="none" width="78.2" height="19.2"/>
	<rect x="121.9" y="133.6" fill="none" width="78.2" height="19.2"/>
	<rect x="200.1" y="95.2" fill="none" width="78.2" height="19.2"/>
	<rect x="43.7" y="95.2" fill="none" width="78.2" height="19.2"/>
	<rect x="43.7" y="114.4" fill="none" width="78.2" height="19.2"/>
	<rect x="43.7" y="133.6" fill="none" width="78.2" height="19.2"/>
	<rect x="121.9" y="95.2" fill="none" width="78.2" height="19.2"/>
	<text transform="matrix(1 0 0 1 52.9385 87.8484)" fill="#231F20" font-family="'ChambersSansOT-BoldItalic'" font-size="9.4716">Temperature</text>
	<text transform="matrix(1 0 0 1 212.2666 87.8484)" fill="#231F20" font-family="'ChambersSansOT-BoldItalic'" font-size="9.4716">Wind Speed</text>
	<text transform="matrix(1 0 0 1 142.8271 87.8484)" fill="#231F20" font-family="'ChambersSansOT-BoldItalic'" font-size="9.4716">Rain %</text>
	<polyline fill="none" stroke="#000000" stroke-miterlimit="10" points="43.7,162.1 43.7,95.2 278.2,95.2 278.2,162.1 	"/>
	<line fill="none" stroke="#000000" stroke-miterlimit="10" x1="200.1" y1="95.2" x2="200.1" y2="162.1"/>
	<line fill="none" stroke="#231F20" stroke-miterlimit="10" x1="43.7" y1="114.4" x2="278.2" y2="114.4"/>
	<line fill="none" stroke="#231F20" stroke-miterlimit="10" x1="43.7" y1="133.6" x2="278.2" y2="133.6"/>
	<line fill="none" stroke="#231F20" stroke-miterlimit="10" x1="43.7" y1="152.8" x2="278.2" y2="152.8"/>
	
		<text transform="matrix(0 -1 1 0 35.3096 156.4822)" fill="#231F20" font-family="'ChambersSansOT-BoldItalic'" font-size="9.4716">Time of Day</text>
	<text transform="matrix(1 0 0 1 74.6191 107.9773)" fill="#231F20" font-family="'ChambersSansOT-Bold'" font-size="9.4716">62°</text>
	<text transform="matrix(1 0 0 1 74.9316 127.1843)" fill="#231F20" font-family="'ChambersSansOT-Bold'" font-size="9.4716">70°</text>
	<text transform="matrix(1 0 0 1 75.2676 146.3904)" fill="#231F20" font-family="'ChambersSansOT-Bold'" font-size="9.4716">72°</text>
	<text transform="matrix(1 0 0 1 155.2822 107.9773)" fill="#231F20" font-family="'ChambersSansOT-Bold'" font-size="9.4716">30</text>
	<text transform="matrix(1 0 0 1 155.1445 127.1843)" fill="#231F20" font-family="'ChambersSansOT-Bold'" font-size="9.4716">40</text>
	<text transform="matrix(1 0 0 1 155.6709 146.3904)" fill="#231F20" font-family="'ChambersSansOT-Bold'" font-size="9.4716">70</text>
	<text transform="matrix(1 0 0 1 236.4424 107.9773)" fill="#231F20" font-family="'ChambersSansOT-Bold'" font-size="9.4716">4</text>
	<text transform="matrix(1 0 0 1 236.9668 127.1843)" fill="#231F20" font-family="'ChambersSansOT-Bold'" font-size="9.4716">7</text>
	<text transform="matrix(1 0 0 1 236.124 146.3904)" fill="#231F20" font-family="'ChambersSansOT-Bold'" font-size="9.4716">8</text>
	<rect x="200.1" y="114.4" fill="none" width="78.2" height="19.2"/>
	<polyline fill="none" stroke="#00DCEC" stroke-width="9" stroke-miterlimit="10" points="125.7,288.9 155.4,287.7 185,287.7 
		214.7,289.9 	"/>
	<rect x="149.9" y="224.4" fill="#00DCEC" width="9.2" height="9.2"/>
	<polyline fill="none" stroke="#00DCEC" stroke-width="9" stroke-miterlimit="10" points="125.7,264.2 155.3,257.8 185,258.9 
		214.7,258.9 244.3,258.9 257.7,264.7 	"/>
	<g>
		
			<text transform="matrix(1 0 0 1 30.0371 236.0847)" fill="#231F20" font-family="'ChambersSansOT-BoldItalic'" font-size="9.4716">Temp</text>
	</g>
	<g>
		
			<text transform="matrix(1 0 0 1 30.0371 268.1453)" fill="#231F20" font-family="'ChambersSansOT-BoldItalic'" font-size="9.4716">Rain</text>
	</g>
	<g>
		
			<text transform="matrix(1 0 0 1 30.0371 300.2068)" fill="#231F20" font-family="'ChambersSansOT-BoldItalic'" font-size="9.4716">Wind</text>
	</g>
	<polyline fill="none" stroke="#231F20" stroke-width="2" stroke-miterlimit="10" points="65.3,301.4 95,294.1 124.7,288.9 
		154.3,287.7 184,287.7 213.7,289.9 243.4,297.2 273,295.2 	"/>
	<polyline fill="none" stroke="#231F20" stroke-width="2" stroke-miterlimit="10" points="65.3,274.7 95,268.4 124.7,264.2 
		154.3,257.8 184,258.9 213.7,258.9 243.4,258.9 273,270.5 	"/>
	<polyline fill="none" stroke="#231F20" stroke-width="2" stroke-miterlimit="10" points="65.3,241.5 95,239.5 124.7,235.2 
		154.3,229 184,232 213.7,235.2 243.4,239.5 273,242.7 	"/>
	<g>
		<text transform="matrix(1 0 0 1 158.832 220.4353)" fill="#00DCEC" font-family="'ChambersSansOT-Bold'" font-size="8.4192">high 72̊°</text>
	</g>
	<g>
		<text transform="matrix(1 0 0 1 160.7852 250.4773)" fill="#00DCEC" font-family="'ChambersSansOT-Bold'" font-size="8.4192">above 50% chance</text>
	</g>
	<g>
		<text transform="matrix(1 0 0 1 161.5605 279.5925)" fill="#00DCEC" font-family="'ChambersSansOT-Bold'" font-size="8.4192">above 5 mph</text>
	</g>
	<g>
		<text transform="matrix(1 0 0 1 38.4033 372.0242)" fill="#00DCEC" font-family="'ChambersSansOT-Bold'" font-size="9.4716">high 72°</text>
	</g>
	<g>
		<text transform="matrix(1 0 0 1 38.4033 391.9734)" fill="#00DCEC" font-family="'ChambersSansOT-Bold'" font-size="9.4716">over 50% </text>
		<text transform="matrix(1 0 0 1 38.4033 403.3689)" fill="#00DCEC" font-family="'ChambersSansOT-Bold'" font-size="9.4716">chance of rain</text>
	</g>
	<g>
		<text transform="matrix(1 0 0 1 38.4033 421.4011)" fill="#00DCEC" font-family="'ChambersSansOT-Bold'" font-size="9.4716">over 5 mph</text>
		<text transform="matrix(1 0 0 1 38.4033 432.7966)" fill="#00DCEC" font-family="'ChambersSansOT-Bold'" font-size="9.4716">wind</text>
	</g>
	<g>
		<text transform="matrix(1 0 0 1 137.8779 372.0242)" fill="#231F20" font-family="'ChambersSansOT-Bold'" font-size="9.4716">a warm day, with a high of 72°</text>
	</g>
	<g>
		<text transform="matrix(1 0 0 1 137.8779 391.9734)" fill="#231F20" font-family="'ChambersSansOT-Bold'" font-size="9.4716">grab an umbrella, it’s going</text>
		<text transform="matrix(1 0 0 1 137.8779 403.3689)" fill="#231F20" font-family="'ChambersSansOT-Bold'" font-size="9.4716">to be wet out there</text>
	</g>
	<g>
		<text transform="matrix(1 0 0 1 137.8779 421.4011)" fill="#231F20" font-family="'ChambersSansOT-Bold'" font-size="9.4716">hold onto your hat, it’s going</text>
		<text transform="matrix(1 0 0 1 137.8779 432.7966)" fill="#231F20" font-family="'ChambersSansOT-Bold'" font-size="9.4716">to be a very windy day</text>
	</g>
	<g>
		<path fill="#00DCEC" d="M123.3,370.1h-13.8c0,0-0.1,0-0.1-0.1v-1c0,0,0-0.1,0.1-0.1h13.8l-2.6-2.6v-0.1c0,0,0-0.1,0.1-0.1h1.4
			c0.1,0,0.3,0.1,0.4,0.1l2.9,2.9c0.1,0.1,0.1,0.1,0.1,0.1s0,0.1-0.1,0.1l-3.3,3.2c-0.1,0.1-0.1,0.1-0.4,0.1c0,0-1.3,0.1-1.2,0
			C120.6,372.8,123.3,370.1,123.3,370.1z"/>
	</g>
	<g>
		<path fill="#00DCEC" d="M120.7,392.6l2.6-2.6h-13.8c0,0-0.1,0-0.1-0.1v-1.2c0,0,0-0.1,0.1-0.1h13.8l-2.6-2.6v-0.1
			c0,0,0-0.1,0.1-0.1h1.4c0.1,0,0.3,0.1,0.4,0.1l2.9,2.9c0.1,0.1,0.1,0.1,0.1,0.1s0,0.1-0.1,0.1l-2.9,2.9c-0.1,0.1-0.1,0.1-0.4,0.1
			h-1.4C120.6,392.7,120.6,392.7,120.7,392.6C120.6,392.6,120.6,392.6,120.7,392.6z"/>
	</g>
	<g>
		<path fill="#00DCEC" d="M120.7,422.1l2.6-2.6h-13.8c0,0-0.1,0-0.1-0.1v-1.2c0,0,0-0.1,0.1-0.1h13.8l-2.6-2.6v-0.1
			c0,0,0-0.1,0.1-0.1h1.4c0.1,0,0.3,0.1,0.4,0.1l2.9,2.9c0.1,0.1,0.1,0.1,0.1,0.1s0,0.1-0.1,0.1l-2.9,2.9c-0.1,0.1-0.1,0.1-0.4,0.1
			h-1.4C120.6,422.2,120.6,422.2,120.7,422.1C120.6,422.1,120.6,422.1,120.7,422.1z"/>
	</g>
	<g>
		<rect x="40.7" y="511.9" fill="#00DCEC" width="143.3" height="15.1"/>
		<rect x="188.1" y="511.9" fill="#00DCEC" width="84.9" height="15.1"/>
		<rect x="60.1" y="531.8" fill="#00DCEC" width="87.8" height="15.1"/>
		<rect x="152.4" y="531.8" fill="#00DCEC" width="98" height="15.1"/>
		<rect x="40.7" y="551.3" fill="#00DCEC" width="75" height="15.1"/>
		<g>
			<path fill="#231F20" d="M51.3,522.1c0.1,0.3,0.1,0.4,0.1,0.5c0,0.1,0,0.1-0.1,0.1h-0.8c-0.1,0-0.1,0-0.3-0.1l-0.5-1.5h-2.7
				l-0.5,1.5c0,0.1-0.1,0.1-0.3,0.1h-0.8c-0.1,0-0.1,0-0.1-0.1v-0.1l2.2-6.4c0-0.1,0.1-0.1,0.1-0.1h1.4c0.1,0,0.1,0,0.1,0.1
				L51.3,522.1z M47.4,520h2.2l-1-3.3L47.4,520z"/>
			<path fill="#231F20" d="M59.5,522.6c0,0,0,0.1-0.1,0.1h-1.2c-0.1,0-0.1,0-0.1-0.1l-0.5-1.5c-0.1-0.4-0.3-0.9-0.4-1.2
				c0,0.4-0.3,0.8-0.4,1.2l-0.5,1.5c0,0,0,0.1-0.1,0.1h-1.2c-0.1,0-0.1,0-0.1-0.1l-0.9-4.2c0-0.1,0-0.3,0-0.3c0-0.1,0-0.1,0.1-0.1
				h0.8c0.1,0,0.1,0,0.1,0.1l0.5,2.6c0.1,0.4,0.1,1,0.1,1.3l0.9-2.8c0-0.1,0.1-0.1,0.1-0.1h0.9c0.1,0,0.1,0,0.1,0.1l0.9,2.8
				c0-0.4,0-0.9,0.1-1.3l0.5-2.6c0-0.1,0.1-0.1,0.1-0.1h0.8c0.1,0,0.1,0,0.1,0.1c0,0,0,0.1,0,0.3L59.5,522.6z"/>
			<path fill="#231F20" d="M65.6,522.6C65.6,522.7,65.6,522.7,65.6,522.6l-0.9,0.1c0,0-0.1,0-0.1-0.1v-1l-0.4,0.5
				c-0.4,0.4-0.6,0.8-1.4,0.8h-0.1c-0.9,0-1.4-0.5-1.4-1.4v-1.7c0-1.3,0.8-1.8,1.8-1.8h0.1c0.5,0,1.2,0.3,1.4,0.4v-0.1
				c0,0,0-0.1,0.1-0.1h0.8c0,0,0.1,0,0.1,0.1L65.6,522.6L65.6,522.6z M64.5,519.1c-0.3-0.1-0.8-0.4-1.3-0.4h-0.1
				c-0.5,0-0.9,0.4-0.9,0.9v1.8c0,0.4,0.3,0.5,0.5,0.5h0.1c0.4,0,0.6-0.3,0.9-0.6l0.8-0.9V519.1z"/>
			<path fill="#231F20" d="M70.7,518.5L70.7,518.5l-0.6,0.6c0,0,0,0-0.1,0c0,0,0,0-0.1,0c-0.1-0.1-0.3-0.3-0.5-0.3h0.1
				c-0.3,0-0.4,0.3-0.6,0.5l-0.6,0.9v2.3c0,0,0,0.1-0.1,0.1h-0.8c0,0-0.1,0-0.1-0.1v-4.5c0,0,0-0.1,0.1-0.1H68c0,0,0.1,0,0.1,0.1v1
				l0.4-0.5c0.4-0.4,0.6-0.8,1.2-0.8h0.1C70,517.8,70.4,518.1,70.7,518.5L70.7,518.5z"/>
			<path fill="#231F20" d="M78.1,522.6C78.1,522.7,78.1,522.7,78.1,522.6l-0.9,0.1c0,0-0.1,0-0.1-0.1v-3.3c0-0.4-0.1-0.5-0.4-0.5
				l0,0c-0.3,0-0.5,0.3-0.8,0.6l-0.6,0.8v2.4c0,0,0,0.1-0.1,0.1h-0.8c0,0-0.1,0-0.1-0.1v-3.3c0-0.4-0.1-0.5-0.4-0.5l0,0
				c-0.3,0-0.5,0.3-0.8,0.6l-0.6,0.8v2.4c0,0,0,0.1-0.1,0.1h-0.8c0,0-0.1,0-0.1-0.1v-4.5c0,0,0-0.1,0.1-0.1h0.8c0,0,0.1,0,0.1,0.1
				v0.9l0.4-0.4c0.4-0.4,0.6-0.8,1.3-0.8h0.1c0.8,0,1.2,0.5,1.2,1.2l0.4-0.4c0.4-0.4,0.6-0.8,1.3-0.8h0.1c0.8,0,1.2,0.5,1.2,1.4v3.3
				H78.1L78.1,522.6z"/>
			<path fill="#231F20" d="M86,522.6C86,522.7,86,522.7,86,522.6l-0.9,0.1c0,0-0.1,0-0.1-0.1v-1l-0.4,0.5c-0.4,0.4-0.6,0.8-1.4,0.8
				h-0.1c-0.9,0-1.4-0.5-1.4-1.4v-1.7c0-1.3,0.8-1.8,1.8-1.8h0.1c0.5,0,1.2,0.3,1.4,0.4V516c0,0,0-0.1,0.1-0.1H86c0,0,0.1,0,0.1,0.1
				v6.5L86,522.6L86,522.6z M85,519.1c-0.3-0.1-0.8-0.4-1.3-0.4h-0.1c-0.5,0-0.9,0.4-0.9,0.9v1.8c0,0.4,0.3,0.5,0.5,0.5h0.1
				c0.4,0,0.6-0.3,0.9-0.6l0.8-0.9L85,519.1L85,519.1z"/>
			<path fill="#231F20" d="M91.7,522.6C91.7,522.7,91.5,522.7,91.7,522.6l-0.9,0.1c0,0-0.1,0-0.1-0.1v-1l-0.4,0.5
				c-0.4,0.4-0.6,0.8-1.4,0.8h-0.3c-0.9,0-1.4-0.5-1.4-1.4v-1.7c0-1.3,0.8-1.8,1.8-1.8h0.1c0.5,0,1.2,0.3,1.4,0.4v-0.1
				c0,0,0-0.1,0.1-0.1h0.8c0,0,0.1,0,0.1,0.1v4.4L91.7,522.6L91.7,522.6z M90.7,519.1c-0.3-0.1-0.8-0.4-1.3-0.4h-0.1
				c-0.5,0-0.9,0.4-0.9,0.9v1.8c0,0.4,0.3,0.5,0.5,0.5H89c0.4,0,0.6-0.3,0.9-0.6l0.8-0.9L90.7,519.1L90.7,519.1z"/>
			<path fill="#231F20" d="M95.5,522.3c-0.3,0.6-0.5,1-1,1.4l-0.8,0.6c0,0,0,0-0.1,0c0,0,0,0-0.1,0l-0.5-0.5c0,0,0,0,0-0.1
				c0,0,0,0,0-0.1l0.8-0.6c0.3-0.3,0.5-0.4,0.6-0.8l0,0l-1.8-4.2c0,0,0,0,0-0.1c0,0,0-0.1,0.1-0.1h0.8c0.1,0,0.1,0,0.1,0.1l0.9,2.2
				c0.1,0.4,0.3,0.8,0.3,1.2l1-3.2c0-0.1,0.1-0.1,0.1-0.1h0.8c0.1,0,0.1,0,0.1,0.1c0,0,0,0,0,0.1L95.5,522.3z"/>
			<path fill="#231F20" d="M98.5,522.6c0,0.1,0,0.3-0.1,0.4l-0.5,0.9c0,0,0,0.1-0.1,0.1h-0.4c0,0-0.1,0-0.1-0.1v-2
				c0,0,0-0.1,0.1-0.1h0.9c0,0,0.1,0,0.1,0.1v0.8H98.5L98.5,522.6z"/>
			<path fill="#231F20" d="M107.3,522.6c0,0,0,0.1-0.1,0.1H106c-0.1,0-0.1,0-0.1-0.1l-0.5-1.5c-0.1-0.4-0.3-0.9-0.4-1.2
				c0,0.4-0.3,0.8-0.4,1.2l-0.5,1.5c0,0,0,0.1-0.1,0.1h-1.2c-0.1,0-0.1,0-0.1-0.1l-0.9-4.2c0-0.1,0-0.3,0-0.3c0-0.1,0-0.1,0.1-0.1
				h0.8c0.1,0,0.1,0,0.1,0.1l0.5,2.6c0.1,0.4,0.1,1,0.1,1.3l0.9-2.8c0-0.1,0.1-0.1,0.1-0.1h0.9c0.1,0,0.1,0,0.1,0.1l0.9,2.8
				c0-0.4,0-0.9,0.1-1.3l0.5-2.6c0-0.1,0.1-0.1,0.1-0.1h0.8c0.1,0,0.1,0,0.1,0.1c0,0,0,0.1,0,0.3L107.3,522.6z"/>
			<path fill="#231F20" d="M110.9,522.6C110.9,522.7,110.8,522.7,110.9,522.6l-0.9,0.1c0,0-0.1,0-0.1-0.1v-3.7l-1-0.3
				c0,0-0.1,0-0.1-0.1V518c0,0,0-0.1,0.1-0.1h1.9c0,0,0.1,0,0.1,0.1L110.9,522.6L110.9,522.6z M111,516.7
				C111,516.7,110.9,516.8,111,516.7l-1.2,0.1c0,0-0.1,0-0.1-0.1v-0.9c0,0,0-0.1,0.1-0.1h1c0,0,0.1,0,0.1,0.1V516.7z"/>
			<path fill="#231F20" d="M114.7,522.6C114.7,522.7,114.7,522.7,114.7,522.6l-0.8,0.1c-0.9,0-1.4-0.5-1.4-1.4V519l-0.9-0.3
				c0,0-0.1,0-0.1-0.1V518c0,0,0-0.1,0.1-0.1h0.9v-0.4c0-0.1,0-0.1,0.1-0.3l0.6-0.4h0.1c0.1,0,0.1,0,0.1,0.1v1h1.2
				c0,0,0.1,0,0.1,0.1v0.8c0,0,0,0.1-0.1,0.1h-1.2v2.4c0,0.4,0.3,0.5,0.5,0.5h0.6c0,0,0.1,0,0.1,0.1v0.5H114.7z"/>
			<path fill="#231F20" d="M120.1,522.6C120.1,522.7,120.1,522.7,120.1,522.6l-0.9,0.1c0,0-0.1,0-0.1-0.1v-3.3
				c0-0.4-0.3-0.6-0.5-0.6h-0.1c-0.4,0-0.6,0.3-0.9,0.6l-0.8,0.9v2.4c0,0,0,0.1-0.1,0.1h-0.8c0,0-0.1,0-0.1-0.1v-6.7
				c0,0,0-0.1,0.1-0.1h0.8c0,0,0.1,0,0.1,0.1v3.2l0.4-0.5c0.4-0.5,0.8-0.8,1.4-0.8h0.1c0.9,0,1.4,0.5,1.4,1.4V522.6L120.1,522.6z"/>
			<path fill="#231F20" d="M128,522.6C128,522.7,128,522.7,128,522.6l-0.9,0.1c0,0-0.1,0-0.1-0.1v-1l-0.4,0.5
				c-0.4,0.4-0.6,0.8-1.4,0.8h-0.1c-0.9,0-1.4-0.5-1.4-1.4v-1.7c0-1.3,0.8-1.8,1.8-1.8h0.1c0.5,0,1.2,0.3,1.4,0.4v-0.1
				c0,0,0-0.1,0.1-0.1h0.8c0,0,0.1,0,0.1,0.1L128,522.6L128,522.6z M127,519.1c-0.3-0.1-0.8-0.4-1.3-0.4h-0.1
				c-0.5,0-0.9,0.4-0.9,0.9v1.8c0,0.4,0.3,0.5,0.5,0.5h0.1c0.4,0,0.6-0.3,0.9-0.6l0.8-0.9L127,519.1L127,519.1z"/>
			<path fill="#231F20" d="M136.2,522.6C136.2,522.7,136.1,522.7,136.2,522.6l-0.9,0.1c0,0-0.1,0-0.1-0.1v-3.3
				c0-0.4-0.3-0.6-0.5-0.6h-0.1c-0.4,0-0.6,0.3-0.9,0.6l-0.8,0.9v2.4c0,0,0,0.1-0.1,0.1H132c0,0-0.1,0-0.1-0.1v-6.7
				c0,0,0-0.1,0.1-0.1h0.8c0,0,0.1,0,0.1,0.1v3.2l0.4-0.5c0.4-0.5,0.8-0.8,1.4-0.8h0.1c0.9,0,1.4,0.5,1.4,1.4L136.2,522.6
				L136.2,522.6z"/>
			<path fill="#231F20" d="M138.9,522.6C138.9,522.7,138.8,522.7,138.9,522.6l-0.9,0.1c0,0-0.1,0-0.1-0.1v-3.7l-1-0.3
				c0,0-0.1,0-0.1-0.1V518c0,0,0-0.1,0.1-0.1h1.9c0,0,0.1,0,0.1,0.1L138.9,522.6L138.9,522.6z M139.1,516.7
				C139.1,516.7,138.9,516.8,139.1,516.7l-1.2,0.1c0,0-0.1,0-0.1-0.1v-0.9c0,0,0-0.1,0.1-0.1h1c0,0,0.1,0,0.1,0.1V516.7L139.1,516.7
				z"/>
			<path fill="#231F20" d="M144.4,522.6c0,1.2-0.8,1.9-2.2,1.9h-1.8c0,0-0.1,0-0.1-0.1v-0.6c0,0,0-0.1,0.1-0.1h1.7
				c0.8,0,1.4-0.3,1.4-1v-1l-0.4,0.5c-0.4,0.4-0.6,0.8-1.4,0.8h-0.1c-0.9,0-1.4-0.5-1.4-1.4v-1.7c0-1.3,0.8-1.8,1.8-1.8h0.1
				c0.5,0,1.2,0.3,1.4,0.4v-0.1c0,0,0-0.1,0.1-0.1h0.8c0,0,0.1,0,0.1,0.1v4.4L144.4,522.6L144.4,522.6z M143.4,519.1
				c-0.3-0.1-0.8-0.4-1.3-0.4H142c-0.5,0-0.9,0.4-0.9,0.9v1.8c0,0.4,0.3,0.5,0.5,0.5h0.1c0.4,0,0.6-0.3,0.9-0.6l0.8-0.9L143.4,519.1
				L143.4,519.1z"/>
			<path fill="#231F20" d="M150.2,522.6C150.2,522.7,150.1,522.7,150.2,522.6l-0.9,0.1c0,0-0.1,0-0.1-0.1v-3.3
				c0-0.4-0.3-0.6-0.5-0.6h-0.1c-0.4,0-0.6,0.3-0.9,0.6l-0.8,0.9v2.4c0,0,0,0.1-0.1,0.1H146c0,0-0.1,0-0.1-0.1v-6.7
				c0,0,0-0.1,0.1-0.1h0.8c0,0,0.1,0,0.1,0.1v3.2l0.4-0.5c0.4-0.5,0.8-0.8,1.4-0.8h0.1c0.9,0,1.4,0.5,1.4,1.4L150.2,522.6
				L150.2,522.6z"/>
			<path fill="#231F20" d="M158.1,521c0,1.2-0.8,1.8-1.9,1.8h-0.6c-1,0-1.9-0.6-1.9-1.8v-1.4c0-1.2,0.8-1.8,1.9-1.8h0.6
				c1,0,1.9,0.6,1.9,1.8V521z M157.1,519.6c0-0.6-0.4-0.9-1-0.9h-0.4c-0.6,0-1,0.3-1,0.9v1.4c0,0.6,0.4,0.9,1,0.9h0.4
				c0.6,0,1-0.3,1-0.9V519.6z"/>
			<path fill="#231F20" d="M162.2,516.6C162.2,516.6,162.1,516.7,162.2,516.6l-0.9,0.1c-0.3,0-0.5,0.3-0.5,0.5v0.8h1
				c0,0,0.1,0,0.1,0.1v0.8c0,0,0,0.1-0.1,0.1h-1v3.7c0,0,0,0.1-0.1,0.1h-0.8c0,0-0.1,0-0.1-0.1V519l-1-0.3c0,0-0.1,0-0.1-0.1v-0.5
				c0,0,0-0.1,0.1-0.1h1v-0.8c0-0.9,0.5-1.4,1.4-1.4h0.9c0,0,0.1,0,0.1,0.1L162.2,516.6L162.2,516.6z"/>
			<path fill="#231F20" d="M169,516.9c0,0.1,0,0.1-0.1,0.1l-0.8,0.8c-1,1-1.7,1.8-1.7,3.8v0.9c0,0,0,0.1-0.1,0.1h-0.9
				c0,0-0.1,0-0.1-0.1v-0.8c0-2.2,0.8-3.3,1.9-4.2l0.6-0.6h-3.2c0,0-0.1,0-0.1-0.1V516c0,0,0-0.1,0.1-0.1h4.2c0,0,0.1,0,0.1,0.1
				L169,516.9L169,516.9z"/>
			<path fill="#231F20" d="M172,515.9c1.4,0,2.2,0.6,2.2,1.8v0.1c0,0.9-0.6,1.5-1.5,1.8c-0.3,0.1-0.8,0.3-1.3,0.4
				c-0.5,0.1-0.8,0.5-0.8,1.2v0.5h3.5c0,0,0.1,0,0.1,0.1v0.6c0,0,0,0.1-0.1,0.1h-4.4c-0.3,0-0.3-0.1-0.3-0.3v-1c0-1.5,0.6-1.8,2-2.3
				c0.8-0.3,1.5-0.5,1.5-1.2v-0.1c0-0.6-0.4-0.9-1.2-0.9h-1.9c0,0-0.1,0-0.1-0.1V516c0,0,0-0.1,0.1-0.1H172L172,515.9z"/>
			<path fill="#231F20" d="M177.5,519.4h-0.6c-0.9,0-1.7-0.6-1.7-1.7v-0.3c0-0.9,0.6-1.7,1.7-1.7h0.6c1,0,1.7,0.6,1.7,1.7v0.3
				C179.3,518.6,178.4,519.4,177.5,519.4z M178.2,517.4c0-0.5-0.4-0.9-0.9-0.9h-0.3c-0.5,0-0.9,0.4-0.9,0.9v0.1
				c0,0.5,0.3,0.9,0.9,0.9h0.3C177.8,518.5,178.2,518.1,178.2,517.4L178.2,517.4z"/>
			<path fill="#231F20" d="M181.7,522.6C181.7,522.7,181.7,522.7,181.7,522.6l-1,0.1c0,0-0.1,0-0.1-0.1v-0.9c0,0,0-0.1,0.1-0.1h0.9
				c0,0,0.1,0,0.1,0.1V522.6z"/>
			<path fill="#231F20" d="M197.6,522.6C197.6,522.7,197.6,522.7,197.6,522.6l-2.8,0.1c-1.3,0-2.2-0.9-2.2-2.2v-2.3
				c0-1.4,0.9-2.2,2.2-2.2h2.7c0,0,0.1,0,0.1,0.1v0.6c0,0,0,0.1-0.1,0.1h-2.6c-0.8,0-1.3,0.5-1.3,1.3v2.3c0,0.8,0.5,1.3,1.3,1.3h1.7
				v-1.9h-1.2c0,0-0.1,0-0.1-0.1v-0.6c0,0,0-0.1,0.1-0.1h2c0,0,0.1,0,0.1,0.1V522.6L197.6,522.6z"/>
			<path fill="#231F20" d="M202.7,518.5L202.7,518.5l-0.6,0.6c0,0,0,0-0.1,0c0,0,0,0-0.1,0c-0.1-0.1-0.3-0.3-0.5-0.3l0,0
				c-0.3,0-0.4,0.3-0.6,0.5l-0.6,0.9v2.3c0,0,0,0.1-0.1,0.1h-0.8c0,0-0.1,0-0.1-0.1v-4.5c0,0,0-0.1,0.1-0.1h0.8c0,0,0.1,0,0.1,0.1v1
				l0.4-0.5c0.4-0.4,0.6-0.8,1.2-0.8h0.1C202,517.8,202.4,518.1,202.7,518.5L202.7,518.5z"/>
			<path fill="#231F20" d="M207.4,522.6C207.4,522.7,207.3,522.7,207.4,522.6l-0.9,0.1c0,0-0.1,0-0.1-0.1v-1l-0.4,0.5
				c-0.4,0.4-0.6,0.8-1.4,0.8h-0.1c-0.9,0-1.4-0.5-1.4-1.4v-1.7c0-1.3,0.8-1.8,1.8-1.8h0.1c0.5,0,1.2,0.3,1.4,0.4v-0.1
				c0,0,0-0.1,0.1-0.1h0.8c0,0,0.1,0,0.1,0.1L207.4,522.6L207.4,522.6z M206.4,519.1c-0.3-0.1-0.8-0.4-1.3-0.4H205
				c-0.5,0-0.9,0.4-0.9,0.9v1.8c0,0.4,0.3,0.5,0.5,0.5h0.1c0.4,0,0.6-0.3,0.9-0.6l0.8-0.9L206.4,519.1L206.4,519.1z"/>
			<path fill="#231F20" d="M208.7,515.9C208.7,515.8,208.8,515.8,208.7,515.9l0.9-0.1c0,0,0.1,0,0.1,0.1v3.2l0.4-0.5
				c0.4-0.4,0.6-0.8,1.4-0.8h0.1c0.9,0,1.4,0.5,1.4,1.4v1.7c0,1.2-0.8,1.8-1.9,1.8h-2.4c0,0-0.1,0-0.1-0.1v-6.7L208.7,515.9
				L208.7,515.9z M209.7,521.8h1.3c0.6,0,1-0.3,1-0.9v-1.7c0-0.4-0.3-0.5-0.5-0.5l0,0c-0.4,0-0.6,0.3-0.9,0.6l-0.8,0.9v1.5H209.7z"
				/>
			<path fill="#231F20" d="M221,522.6C221,522.7,221,522.7,221,522.6l-0.9,0.1c0,0-0.1,0-0.1-0.1v-1l-0.4,0.5
				c-0.4,0.4-0.6,0.8-1.4,0.8h-0.1c-0.9,0-1.4-0.5-1.4-1.4v-1.7c0-1.3,0.8-1.8,1.8-1.8h0.1c0.5,0,1.2,0.3,1.4,0.4v-0.1
				c0,0,0-0.1,0.1-0.1h0.8c0,0,0.1,0,0.1,0.1L221,522.6L221,522.6z M220,519.1c-0.3-0.1-0.8-0.4-1.3-0.4h-0.1
				c-0.5,0-0.9,0.4-0.9,0.9v1.8c0,0.4,0.3,0.5,0.5,0.5h0.1c0.4,0,0.6-0.3,0.9-0.6l0.8-0.9L220,519.1L220,519.1z"/>
			<path fill="#231F20" d="M226.8,522.6C226.8,522.7,226.8,522.7,226.8,522.6l-0.9,0.1c0,0-0.1,0-0.1-0.1v-3.3
				c0-0.4-0.3-0.6-0.5-0.6h-0.1c-0.4,0-0.6,0.3-0.9,0.6l-0.8,0.9v2.4c0,0,0,0.1-0.1,0.1h-0.8c0,0-0.1,0-0.1-0.1v-4.5
				c0,0,0-0.1,0.1-0.1h0.8c0,0,0.1,0,0.1,0.1v1l0.4-0.5c0.4-0.5,0.8-0.8,1.4-0.8h0.1c0.9,0,1.4,0.5,1.4,1.4V522.6z"/>
			<path fill="#231F20" d="M230.5,518.1C230.5,518,230.5,518,230.5,518.1l0.9-0.1c0,0,0.1,0,0.1,0.1v3.3c0,0.4,0.3,0.6,0.5,0.6h0.1
				c0.4,0,0.6-0.3,0.9-0.6l0.8-0.9v-2.3c0,0,0-0.1,0.1-0.1h0.8c0,0,0.1,0,0.1,0.1v4.5c0,0,0,0.1-0.1,0.1h-0.8c0,0-0.1,0-0.1-0.1v-1
				l-0.4,0.5c-0.3,0.4-0.6,0.6-1.3,0.6H232c-0.9,0-1.4-0.5-1.4-1.4v-3.3L230.5,518.1L230.5,518.1z"/>
			<path fill="#231F20" d="M242.9,522.6C242.9,522.7,242.9,522.7,242.9,522.6l-0.9,0.1c0,0-0.1,0-0.1-0.1v-3.3
				c0-0.4-0.1-0.5-0.4-0.5l0,0c-0.3,0-0.5,0.3-0.8,0.6l-0.6,0.8v2.4c0,0,0,0.1-0.1,0.1h-0.8c0,0-0.1,0-0.1-0.1v-3.3
				c0-0.4-0.1-0.5-0.4-0.5l0,0c-0.3,0-0.5,0.3-0.8,0.6l-0.6,0.8v2.4c0,0,0,0.1-0.1,0.1h-0.8c0,0-0.1,0-0.1-0.1v-4.5
				c0,0,0-0.1,0.1-0.1h0.8c0,0,0.1,0,0.1,0.1v0.9l0.4-0.4c0.4-0.4,0.6-0.8,1.3-0.8h0.1c0.8,0,1.2,0.5,1.2,1.2l0.4-0.4
				c0.4-0.4,0.6-0.8,1.3-0.8h0.1c0.8,0,1.2,0.5,1.2,1.4v3.3H242.9L242.9,522.6z"/>
			<path fill="#231F20" d="M244.3,515.9C244.3,515.8,244.3,515.8,244.3,515.9l0.9-0.1c0,0,0.1,0,0.1,0.1v3.2l0.4-0.5
				c0.4-0.4,0.6-0.8,1.4-0.8h0.1c0.9,0,1.4,0.5,1.4,1.4v1.7c0,1.2-0.8,1.8-1.9,1.8h-2.4c0,0-0.1,0-0.1-0.1v-6.7L244.3,515.9
				L244.3,515.9z M245.3,521.8h1.3c0.6,0,1-0.3,1-0.9v-1.7c0-0.4-0.3-0.5-0.5-0.5H247c-0.4,0-0.6,0.3-0.9,0.6l-0.8,0.9L245.3,521.8
				L245.3,521.8z"/>
			<path fill="#231F20" d="M253.5,518.5L253.5,518.5l-0.6,0.6c0,0,0,0-0.1,0c0,0,0,0-0.1,0c-0.1-0.1-0.3-0.3-0.5-0.3H252
				c-0.3,0-0.4,0.3-0.6,0.5l-0.6,0.9v2.3c0,0,0,0.1-0.1,0.1h-0.6c0,0-0.1,0-0.1-0.1v-4.5c0,0,0-0.1,0.1-0.1h0.8c0,0,0.1,0,0.1,0.1v1
				l0.4-0.5c0.4-0.4,0.6-0.8,1.2-0.8h0.1C252.9,517.8,253.3,518.1,253.5,518.5L253.5,518.5z"/>
			<path fill="#231F20" d="M254.8,520.7v0.3c0,0.6,0.4,0.9,1,0.9h2c0,0,0.1,0,0.1,0.1v0.6c0,0,0,0.1-0.1,0.1h-2.2
				c-1,0-1.9-0.6-1.9-1.8v-1.3c0-1.2,0.8-1.8,1.9-1.8h0.6c1,0,1.9,0.6,1.9,1.7v0.5c0,0.1,0,0.1-0.1,0.3l-0.5,0.4
				c-0.1,0.1-0.1,0.1-0.3,0.1h-2.6L254.8,520.7L254.8,520.7z M254.8,519.9h2.3v-0.3c0-0.6-0.4-0.9-1-0.9h-0.3c-0.6,0-1,0.3-1,0.9
				L254.8,519.9L254.8,519.9z"/>
			<path fill="#231F20" d="M261.5,522.6C261.5,522.7,261.3,522.7,261.5,522.6l-0.8,0.1c-0.9,0-1.4-0.5-1.4-1.4v-5.4
				c0,0,0-0.1,0.1-0.1h0.8c0,0,0.1,0,0.1,0.1v5.4c0,0.4,0.3,0.5,0.5,0.5h0.5c0,0,0.1,0,0.1,0.1L261.5,522.6L261.5,522.6z"/>
			<path fill="#231F20" d="M264.3,522.6C264.3,522.7,264.3,522.7,264.3,522.6l-0.8,0.1c-0.9,0-1.4-0.5-1.4-1.4v-5.4
				c0,0,0-0.1,0.1-0.1h0.8c0,0,0.1,0,0.1,0.1v5.4c0,0.4,0.3,0.5,0.5,0.5h0.5c0,0,0.1,0,0.1,0.1L264.3,522.6L264.3,522.6z"/>
			<path fill="#231F20" d="M269.4,522.6C269.4,522.7,269.3,522.7,269.4,522.6l-0.9,0.1c0,0-0.1,0-0.1-0.1v-1l-0.4,0.5
				c-0.4,0.4-0.6,0.8-1.4,0.8h-0.1c-0.9,0-1.4-0.5-1.4-1.4v-1.7c0-1.3,0.8-1.8,1.8-1.8h0.1c0.5,0,1.2,0.3,1.4,0.4v-0.1
				c0,0,0-0.1,0.1-0.1h0.8c0,0,0.1,0,0.1,0.1V522.6L269.4,522.6z M268.4,519.1c-0.3-0.1-0.8-0.4-1.3-0.4H267c-0.5,0-0.9,0.4-0.9,0.9
				v1.8c0,0.4,0.3,0.5,0.5,0.5h0.1c0.4,0,0.6-0.3,0.9-0.6l0.8-0.9L268.4,519.1L268.4,519.1z"/>
			<path fill="#231F20" d="M45.6,542.2C45.6,542.3,45.6,542.3,45.6,542.2l-0.9,0.1c0,0-0.1,0-0.1-0.1v-1l-0.4,0.5
				c-0.4,0.4-0.6,0.8-1.4,0.8h-0.1c-0.9,0-1.4-0.5-1.4-1.4v-1.8c0-1.3,0.8-1.8,1.8-1.8h0.1c0.5,0,1.2,0.3,1.4,0.4v-0.1
				c0,0,0-0.1,0.1-0.1h0.8c0,0,0.1,0,0.1,0.1L45.6,542.2L45.6,542.2z M44.6,538.7c-0.3-0.1-0.8-0.4-1.3-0.4h-0.1
				c-0.5,0-0.9,0.4-0.9,0.9v1.8c0,0.4,0.3,0.5,0.5,0.5h0.1c0.4,0,0.6-0.3,0.9-0.6l0.8-0.9V538.7z"/>
			<path fill="#231F20" d="M51.3,542.2C51.3,542.3,51.3,542.3,51.3,542.2l-0.9,0.1c0,0-0.1,0-0.1-0.1v-3.3c0-0.4-0.3-0.6-0.5-0.6
				h-0.1c-0.4,0-0.6,0.3-0.9,0.6l-0.8,0.9v2.4c0,0,0,0.1-0.1,0.1h-0.8c0,0-0.1,0-0.1-0.1v-4.5c0,0,0-0.1,0.1-0.1h0.8
				c0,0,0.1,0,0.1,0.1v1l0.4-0.5c0.4-0.5,0.8-0.8,1.4-0.8h0.1c0.9,0,1.4,0.5,1.4,1.4V542.2z"/>
			<path fill="#231F20" d="M57,542.2C57,542.3,56.9,542.3,57,542.2l-0.9,0.1c0,0-0.1,0-0.1-0.1v-1l-0.4,0.5
				c-0.4,0.4-0.6,0.8-1.4,0.8H54c-0.9,0-1.4-0.5-1.4-1.4v-1.8c0-1.3,0.8-1.8,1.8-1.8h0.1c0.5,0,1.2,0.3,1.4,0.4v-2.3
				c0,0,0-0.1,0.1-0.1h0.8c0,0,0.1,0,0.1,0.1V542.2z M56,538.7c-0.3-0.1-0.8-0.4-1.3-0.4h-0.1c-0.5,0-0.9,0.4-0.9,0.9v1.8
				c0,0.4,0.3,0.5,0.5,0.5h0.1c0.4,0,0.6-0.3,0.9-0.6L56,540V538.7z"/>
			<path fill="#231F20" d="M67.4,542.2C67.4,542.3,67.4,542.3,67.4,542.2l-0.9,0.1c0,0-0.1,0-0.1-0.1v-3.3c0-0.4-0.3-0.6-0.5-0.6
				h-0.1c-0.4,0-0.6,0.3-0.9,0.6l-0.8,0.9v2.4c0,0,0,0.1-0.1,0.1h-0.8c0,0-0.1,0-0.1-0.1v-6.7c0,0,0-0.1,0.1-0.1h0.8
				c0,0,0.1,0,0.1,0.1v3.2l0.4-0.5c0.4-0.5,0.8-0.8,1.4-0.8h0.1c0.9,0,1.4,0.5,1.4,1.4V542.2z"/>
			<path fill="#231F20" d="M72.9,540.6c0,1.2-0.8,1.8-1.9,1.8h-0.6c-1,0-1.9-0.6-1.9-1.8v-1.4c0-1.2,0.8-1.8,1.9-1.8h0.6
				c1,0,1.9,0.6,1.9,1.8V540.6z M71.8,539.2c0-0.6-0.4-0.9-1-0.9h-0.4c-0.6,0-1,0.3-1,0.9v1.4c0,0.6,0.4,0.9,1,0.9h0.4
				c0.6,0,1-0.3,1-0.9V539.2z"/>
			<path fill="#231F20" d="M76.2,542.2C76.2,542.3,76.2,542.3,76.2,542.2l-0.8,0.1c-0.9,0-1.4-0.5-1.4-1.4v-5.4c0,0,0-0.1,0.1-0.1
				h0.8c0,0,0.1,0,0.1,0.1v5.4c0,0.4,0.3,0.5,0.5,0.5h0.5c0,0,0.1,0,0.1,0.1V542.2z"/>
			<path fill="#231F20" d="M81.2,542.2C81.2,542.3,81.2,542.3,81.2,542.2l-0.9,0.1c0,0-0.1,0-0.1-0.1v-1l-0.4,0.5
				c-0.4,0.4-0.6,0.8-1.4,0.8h-0.1c-0.9,0-1.4-0.5-1.4-1.4v-1.8c0-1.3,0.8-1.8,1.8-1.8h0.1c0.5,0,1.2,0.3,1.4,0.4v-2.3
				c0,0,0-0.1,0.1-0.1H81c0,0,0.1,0,0.1,0.1V542.2L81.2,542.2z M80.2,538.7c-0.3-0.1-0.8-0.4-1.3-0.4h-0.1c-0.5,0-0.9,0.4-0.9,0.9
				v1.8c0,0.4,0.3,0.5,0.5,0.5h0.1c0.4,0,0.6-0.3,0.9-0.6l0.8-0.9V538.7z"/>
			<path fill="#231F20" d="M89.2,540.6c0,1.2-0.8,1.8-1.9,1.8h-0.6c-1,0-1.9-0.6-1.9-1.8v-1.4c0-1.2,0.8-1.8,1.9-1.8h0.6
				c1,0,1.9,0.6,1.9,1.8V540.6z M88.2,539.2c0-0.6-0.4-0.9-1-0.9h-0.4c-0.6,0-1,0.3-1,0.9v1.4c0,0.6,0.4,0.9,1,0.9h0.4
				c0.6,0,1-0.3,1-0.9V539.2z"/>
			<path fill="#231F20" d="M94.7,542.2C94.7,542.3,94.7,542.3,94.7,542.2l-0.9,0.1c0,0-0.1,0-0.1-0.1v-3.3c0-0.4-0.3-0.6-0.5-0.6
				h-0.1c-0.4,0-0.6,0.3-0.9,0.6l-0.8,0.9v2.4c0,0,0,0.1-0.1,0.1h-0.8c0,0-0.1,0-0.1-0.1v-4.5c0,0,0-0.1,0.1-0.1h0.8
				c0,0,0.1,0,0.1,0.1v1l0.4-0.5c0.4-0.5,0.8-0.8,1.4-0.8h0.1c0.9,0,1.4,0.5,1.4,1.4L94.7,542.2L94.7,542.2z"/>
			<path fill="#231F20" d="M98.7,542.2C98.7,542.3,98.6,542.3,98.7,542.2l-0.8,0.1c-0.9,0-1.4-0.5-1.4-1.4v-2.3l-0.9-0.1
				c0,0-0.1,0-0.1-0.1v-0.6c0,0,0-0.1,0.1-0.1h0.9V537c0-0.1,0-0.1,0.1-0.3l0.6-0.4h0.1c0.1,0,0.1,0,0.1,0.1v1h1.2
				c0,0,0.1,0,0.1,0.1v0.8c0,0,0,0.1-0.1,0.1h-1.2v2.4c0,0.4,0.3,0.5,0.5,0.5h0.6c0,0,0.1,0,0.1,0.1v0.5H98.7L98.7,542.2z"/>
			<path fill="#231F20" d="M103.8,540.6c0,1.2-0.8,1.8-1.9,1.8h-0.5c-1,0-1.9-0.6-1.9-1.8v-1.4c0-1.2,0.8-1.8,1.9-1.8h0.6
				c1,0,1.9,0.6,1.9,1.8v1.4H103.8z M102.8,539.2c0-0.6-0.4-0.9-1-0.9h-0.4c-0.6,0-1,0.3-1,0.9v1.4c0,0.6,0.4,0.9,1,0.9h0.4
				c0.6,0,1-0.3,1-0.9V539.2z"/>
			<path fill="#231F20" d="M109.7,541.9c-0.3,0.6-0.5,1-1,1.4l-0.8,0.6c0,0,0,0-0.1,0c0,0,0,0-0.1,0l-0.5-0.5c0,0,0,0,0-0.1
				c0,0,0,0,0-0.1l0.8-0.6c0.3-0.3,0.5-0.4,0.6-0.8l0,0l-1.8-4.2c0,0,0,0,0-0.1c0,0,0-0.1,0.1-0.1h0.8c0.1,0,0.1,0,0.1,0.1l0.9,2.2
				c0.1,0.4,0.3,0.8,0.3,1.2l1-3.2c0-0.1,0.1-0.1,0.1-0.1h0.8c0.1,0,0.1,0,0.1,0.1c0,0,0,0,0,0.1L109.7,541.9z"/>
			<path fill="#231F20" d="M116.3,540.6c0,1.2-0.8,1.8-1.9,1.8h-0.6c-1,0-1.9-0.6-1.9-1.8v-1.4c0-1.2,0.8-1.8,1.9-1.8h0.6
				c1,0,1.9,0.6,1.9,1.8V540.6z M115.2,539.2c0-0.6-0.4-0.9-1-0.9h-0.4c-0.6,0-1,0.3-1,0.9v1.4c0,0.6,0.4,0.9,1,0.9h0.4
				c0.6,0,1-0.3,1-0.9V539.2z"/>
			<path fill="#231F20" d="M117.4,537.7C117.4,537.7,117.4,537.6,117.4,537.7l0.9-0.1c0,0,0.1,0,0.1,0.1v3.3c0,0.4,0.3,0.6,0.5,0.6
				h0.1c0.4,0,0.6-0.3,0.9-0.6l0.8-0.9v-2.3c0,0,0-0.1,0.1-0.1h0.8c0,0,0.1,0,0.1,0.1v4.5c0,0,0,0.1-0.1,0.1h-0.8c0,0-0.1,0-0.1-0.1
				v-1l-0.4,0.5c-0.3,0.4-0.6,0.6-1.3,0.6H119c-0.9,0-1.4-0.5-1.4-1.4v-3.3L117.4,537.7L117.4,537.7z"/>
			<path fill="#231F20" d="M126.8,538.1C126.8,538.2,126.8,538.2,126.8,538.1l-0.6,0.6c0,0,0,0-0.1,0c0,0,0,0-0.1,0
				c-0.1-0.1-0.3-0.3-0.5-0.3h-0.1c-0.3,0-0.4,0.3-0.6,0.5l-0.6,0.9v2.3c0,0,0,0.1-0.1,0.1h-0.6c0,0-0.1,0-0.1-0.1v-4.5
				c0,0,0-0.1,0.1-0.1h0.8c0,0,0.1,0,0.1,0.1v1l0.4-0.5c0.4-0.4,0.6-0.8,1.2-0.8h0.1C126.1,537.4,126.4,537.7,126.8,538.1
				L126.8,538.1z"/>
			<path fill="#231F20" d="M134.2,542.2C134.2,542.3,134.2,542.3,134.2,542.2l-0.9,0.1c0,0-0.1,0-0.1-0.1v-3.3
				c0-0.4-0.3-0.6-0.5-0.6h-0.1c-0.4,0-0.6,0.3-0.9,0.6l-0.8,0.9v2.4c0,0,0,0.1-0.1,0.1H130c0,0-0.1,0-0.1-0.1v-6.7
				c0,0,0-0.1,0.1-0.1h0.8c0,0,0.1,0,0.1,0.1v3.2l0.4-0.5c0.4-0.5,0.8-0.8,1.4-0.8h0.1c0.9,0,1.4,0.5,1.4,1.4V542.2z"/>
			<path fill="#231F20" d="M139.7,542.2C139.7,542.3,139.7,542.3,139.7,542.2l-0.9,0.1c0,0-0.1,0-0.1-0.1v-1l-0.4,0.5
				c-0.4,0.4-0.6,0.8-1.4,0.8h-0.1c-0.9,0-1.4-0.5-1.4-1.4v-1.8c0-1.3,0.8-1.8,1.8-1.8h0.1c0.5,0,1.2,0.3,1.4,0.4v-0.1
				c0,0,0-0.1,0.1-0.1h0.8c0,0,0.1,0,0.1,0.1L139.7,542.2L139.7,542.2z M138.7,538.7c-0.3-0.1-0.8-0.4-1.3-0.4h-0.1
				c-0.5,0-0.9,0.4-0.9,0.9v1.8c0,0.4,0.3,0.5,0.5,0.5h0.1c0.4,0,0.6-0.3,0.9-0.6l0.8-0.9V538.7z"/>
			<path fill="#231F20" d="M143.7,542.2C143.7,542.3,143.5,542.3,143.7,542.2l-0.8,0.1c-0.9,0-1.4-0.5-1.4-1.4v-2.3l-0.9-0.1
				c0,0-0.1,0-0.1-0.1v-0.6c0,0,0-0.1,0.1-0.1h0.9V537c0-0.1,0-0.1,0.1-0.3l0.6-0.4h0.1c0.1,0,0.1,0,0.1,0.1v1h1.2
				c0,0,0.1,0,0.1,0.1v0.8c0,0,0,0.1-0.1,0.1h-1.3v2.4c0,0.4,0.3,0.5,0.5,0.5h0.6c0,0,0.1,0,0.1,0.1L143.7,542.2L143.7,542.2z"/>
			<path fill="#231F20" d="M145.8,542.2C145.8,542.3,145.7,542.3,145.8,542.2l-1,0.1c0,0-0.1,0-0.1-0.1v-0.9c0,0,0-0.1,0.1-0.1h0.9
				c0,0,0.1,0,0.1,0.1V542.2z"/>
			<path fill="#231F20" d="M157.9,542.2C157.9,542.3,157.7,542.3,157.9,542.2l-1,0.1c0,0-0.1,0-0.1-0.1v-6.5c0,0,0-0.1,0.1-0.1h0.9
				c0,0,0.1,0,0.1,0.1V542.2z"/>
			<path fill="#231F20" d="M161.8,542.2C161.8,542.3,161.8,542.3,161.8,542.2l-0.8,0.1c-0.9,0-1.4-0.5-1.4-1.4v-2.3l-0.9-0.1
				c0,0-0.1,0-0.1-0.1v-0.6c0,0,0-0.1,0.1-0.1h0.9V537c0-0.1,0-0.1,0.1-0.3l0.6-0.4h0.1c0.1,0,0.1,0,0.1,0.1v1h1.2
				c0,0,0.1,0,0.1,0.1v0.8c0,0,0,0.1-0.1,0.1h-1.2v2.4c0,0.4,0.3,0.5,0.5,0.5h0.6c0,0,0.1,0,0.1,0.1v0.5H161.8L161.8,542.2z"/>
			<path fill="#231F20" d="M164,536.3c0,0.1,0,0.3-0.1,0.4l-0.5,0.9c0,0,0,0.1-0.1,0.1h-0.4c0,0-0.1,0-0.1-0.1v-2c0,0,0-0.1,0.1-0.1
				h0.9c0,0,0.1,0,0.1,0.1v0.8L164,536.3L164,536.3z"/>
			<path fill="#231F20" d="M168.4,538.3C168.4,538.4,168.2,538.4,168.4,538.3l-2.2,0.1c-0.3,0-0.5,0.1-0.5,0.5
				c0,0.3,0.1,0.4,0.5,0.5c0.3,0,0.6,0.1,1,0.1c0.8,0.1,1.5,0.4,1.5,1.3v0.1c0,0.8-0.6,1.3-1.5,1.3h-2.3c0,0-0.1,0-0.1-0.1v-0.6
				c0,0,0-0.1,0.1-0.1h2.2c0.4,0,0.6-0.1,0.6-0.5s-0.3-0.5-0.6-0.5c-0.3,0-0.8-0.1-1-0.1c-0.8-0.1-1.3-0.6-1.3-1.4v-0.1
				c0-0.8,0.6-1.3,1.5-1.3h2c0,0,0.1,0,0.1,0.1v0.8H168.4L168.4,538.3z"/>
			<path fill="#231F20" d="M176.4,542.2c0,1.2-0.8,1.9-2.2,1.9h-1.8c0,0-0.1,0-0.1-0.1v-0.6c0,0,0-0.1,0.1-0.1h1.7
				c0.8,0,1.4-0.3,1.4-1v-1l-0.4,0.5c-0.4,0.4-0.6,0.8-1.4,0.8h-0.1c-0.9,0-1.4-0.5-1.4-1.4v-1.8c0-1.3,0.8-1.8,1.8-1.8h0.1
				c0.5,0,1.2,0.3,1.4,0.4v-0.1c0,0,0-0.1,0.1-0.1h0.8c0,0,0.1,0,0.1,0.1v4.5L176.4,542.2L176.4,542.2z M175.4,538.7
				c-0.3-0.1-0.8-0.4-1.3-0.4H174c-0.5,0-0.9,0.4-0.9,0.9v1.8c0,0.4,0.3,0.5,0.5,0.5h0.1c0.4,0,0.6-0.3,0.9-0.6l0.8-0.9L175.4,538.7
				L175.4,538.7z"/>
			<path fill="#231F20" d="M181.9,540.6c0,1.2-0.8,1.8-1.9,1.8h-0.6c-1,0-1.9-0.6-1.9-1.8v-1.4c0-1.2,0.8-1.8,1.9-1.8h0.6
				c1,0,1.9,0.6,1.9,1.8V540.6z M180.9,539.2c0-0.6-0.4-0.9-1-0.9h-0.4c-0.6,0-1,0.3-1,0.9v1.4c0,0.6,0.4,0.9,1,0.9h0.4
				c0.6,0,1-0.3,1-0.9V539.2z"/>
			<path fill="#231F20" d="M184.5,542.2C184.5,542.3,184.5,542.3,184.5,542.2l-0.9,0.1c0,0-0.1,0-0.1-0.1v-3.7l-1-0.3
				c0,0-0.1,0-0.1-0.1v-0.5c0,0,0-0.1,0.1-0.1h1.9c0,0,0.1,0,0.1,0.1V542.2z M184.6,536.3C184.6,536.4,184.6,536.4,184.6,536.3
				l-1.2,0.1c0,0-0.1,0-0.1-0.1v-0.9c0,0,0-0.1,0.1-0.1h1c0,0,0.1,0,0.1,0.1V536.3L184.6,536.3z"/>
			<path fill="#231F20" d="M190.3,542.2C190.3,542.3,190.3,542.3,190.3,542.2l-0.9,0.1c0,0-0.1,0-0.1-0.1v-3.3
				c0-0.4-0.3-0.6-0.5-0.6h-0.1c-0.4,0-0.6,0.3-0.9,0.6l-0.8,0.9v2.4c0,0,0,0.1-0.1,0.1H186c0,0-0.1,0-0.1-0.1v-4.5
				c0,0,0-0.1,0.1-0.1h0.8c0,0,0.1,0,0.1,0.1v1l0.4-0.5c0.4-0.5,0.8-0.8,1.4-0.8h0.1c0.9,0,1.4,0.5,1.4,1.4V542.2L190.3,542.2z"/>
			<path fill="#231F20" d="M195.8,542.2c0,1.2-0.8,1.9-2.2,1.9h-1.8c0,0-0.1,0-0.1-0.1v-0.6c0,0,0-0.1,0.1-0.1h1.7
				c0.8,0,1.4-0.3,1.4-1v-1l-0.4,0.5c-0.4,0.4-0.6,0.8-1.4,0.8H193c-0.9,0-1.4-0.5-1.4-1.4v-1.8c0-1.3,0.8-1.8,1.8-1.8h0.1
				c0.5,0,1.2,0.3,1.4,0.4v-0.1c0,0,0-0.1,0.1-0.1h0.8c0,0,0.1,0,0.1,0.1v4.5L195.8,542.2L195.8,542.2z M194.8,538.7
				c-0.3-0.1-0.8-0.4-1.3-0.4h-0.1c-0.5,0-0.9,0.4-0.9,0.9v1.8c0,0.4,0.3,0.5,0.5,0.5h0.1c0.4,0,0.6-0.3,0.9-0.6l0.8-0.9V538.7
				L194.8,538.7z"/>
			<path fill="#231F20" d="M202,542.2C202,542.3,202,542.3,202,542.2l-0.8,0.1c-0.9,0-1.4-0.5-1.4-1.4v-2.3l-0.9-0.1
				c0,0-0.1,0-0.1-0.1v-0.6c0,0,0-0.1,0.1-0.1h0.9V537c0-0.1,0-0.1,0.1-0.3l0.6-0.4h0.1c0.1,0,0.1,0,0.1,0.1v1h1.2
				c0,0,0.1,0,0.1,0.1v0.8c0,0,0,0.1-0.1,0.1h-1.2v2.4c0,0.4,0.3,0.5,0.5,0.5h0.6c0,0,0.1,0,0.1,0.1v0.5H202L202,542.2z"/>
			<path fill="#231F20" d="M207.2,540.6c0,1.2-0.8,1.8-1.9,1.8h-0.6c-1,0-1.9-0.6-1.9-1.8v-1.4c0-1.2,0.8-1.8,1.9-1.8h0.6
				c1,0,1.9,0.6,1.9,1.8V540.6z M206.1,539.2c0-0.6-0.4-0.9-1-0.9h-0.4c-0.6,0-1,0.3-1,0.9v1.4c0,0.6,0.4,0.9,1,0.9h0.4
				c0.6,0,1-0.3,1-0.9V539.2z"/>
			<path fill="#231F20" d="M210.9,535.5C210.9,535.5,210.9,535.4,210.9,535.5l0.9-0.1c0,0,0.1,0,0.1,0.1v3.2l0.4-0.5
				c0.4-0.4,0.6-0.8,1.4-0.8h0.1c0.9,0,1.4,0.5,1.4,1.4v1.7c0,1.2-0.8,1.8-1.9,1.8h-2.4c0,0-0.1,0-0.1-0.1v-6.7L210.9,535.5
				L210.9,535.5z M211.9,541.5h1.3c0.6,0,1-0.3,1-0.9V539c0-0.4-0.3-0.5-0.5-0.5h-0.1c-0.4,0-0.6,0.3-0.9,0.6l-0.8,0.9L211.9,541.5
				L211.9,541.5z"/>
			<path fill="#231F20" d="M217.3,540.4v0.3c0,0.6,0.4,0.9,1,0.9h2c0,0,0.1,0,0.1,0.1v0.6c0,0,0,0.1-0.1,0.1h-2.2
				c-1,0-1.9-0.6-1.9-1.8v-1.3c0-1.2,0.8-1.8,1.9-1.8h0.6c1,0,1.9,0.6,1.9,1.7v0.5c0,0.1,0,0.1-0.1,0.3l-0.5,0.4
				c-0.1,0.1-0.1,0.1-0.3,0.1h-2.6L217.3,540.4L217.3,540.4z M217.3,539.5h2.3v-0.3c0-0.6-0.4-0.9-1-0.9h-0.3c-0.6,0-1,0.3-1,0.9
				L217.3,539.5L217.3,539.5z"/>
			<path fill="#231F20" d="M228.4,542.2C228.4,542.3,228.4,542.3,228.4,542.2l-0.9,0.1c0,0-0.1,0-0.1-0.1v-1l-0.4,0.5
				c-0.4,0.4-0.6,0.8-1.4,0.8h-0.1c-0.9,0-1.4-0.5-1.4-1.4v-1.8c0-1.3,0.8-1.8,1.8-1.8h0.1c0.5,0,1.2,0.3,1.4,0.4v-0.1
				c0,0,0-0.1,0.1-0.1h0.8c0,0,0.1,0,0.1,0.1L228.4,542.2L228.4,542.2z M227.4,538.7c-0.3-0.1-0.8-0.4-1.3-0.4H226
				c-0.5,0-0.9,0.4-0.9,0.9v1.8c0,0.4,0.3,0.5,0.5,0.5h0.1c0.4,0,0.6-0.3,0.9-0.6l0.8-0.9V538.7L227.4,538.7z"/>
			<path fill="#231F20" d="M237.3,542.2c0,0,0,0.1-0.1,0.1h-1.3c-0.1,0-0.1,0-0.1-0.1l-0.5-1.5c-0.1-0.4-0.3-0.9-0.4-1.2
				c0,0.4-0.3,0.8-0.4,1.2l-0.5,1.5c0,0,0,0.1-0.1,0.1h-1.2c-0.1,0-0.1,0-0.1-0.1l-0.9-4.2c0-0.1,0-0.3,0-0.3c0-0.1,0-0.1,0.1-0.1
				h0.8c0.1,0,0.1,0,0.1,0.1l0.5,2.6c0.1,0.4,0.1,1,0.1,1.3l0.9-2.8c0-0.1,0.1-0.1,0.1-0.1h0.9c0.1,0,0.1,0,0.1,0.1l0.9,2.8
				c0-0.4,0-0.9,0.1-1.3l0.5-2.6c0-0.1,0.1-0.1,0.1-0.1h0.8c0.1,0,0.1,0,0.1,0.1c0,0,0,0.1,0,0.3L237.3,542.2z"/>
			<path fill="#231F20" d="M239.9,540.4v0.3c0,0.6,0.4,0.9,1,0.9h2c0,0,0.1,0,0.1,0.1v0.6c0,0,0,0.1-0.1,0.1h-2.2
				c-1,0-1.9-0.6-1.9-1.8v-1.3c0-1.2,0.8-1.8,1.9-1.8h0.6c1,0,1.9,0.6,1.9,1.7v0.5c0,0.1,0,0.1-0.1,0.3l-0.5,0.4
				c-0.1,0.1-0.1,0.1-0.3,0.1h-2.6L239.9,540.4L239.9,540.4z M239.9,539.5h2.3v-0.3c0-0.6-0.4-0.9-1-0.9H241c-0.6,0-1,0.3-1,0.9
				L239.9,539.5L239.9,539.5z"/>
			<path fill="#231F20" d="M246.9,542.2C246.9,542.3,246.9,542.3,246.9,542.2l-0.8,0.1c-0.9,0-1.4-0.5-1.4-1.4v-2.3l-0.9-0.1
				c0,0-0.1,0-0.1-0.1v-0.6c0,0,0-0.1,0.1-0.1h0.9V537c0-0.1,0-0.1,0.1-0.3l0.6-0.4h0.1c0.1,0,0.1,0,0.1,0.1v1h1.2
				c0,0,0.1,0,0.1,0.1v0.8c0,0,0,0.1-0.1,0.1h-1.2v2.4c0,0.4,0.3,0.5,0.5,0.5h0.6c0,0,0.1,0,0.1,0.1v0.5H246.9L246.9,542.2z"/>
			<path fill="#231F20" d="M256.9,542.2C256.9,542.3,256.7,542.3,256.9,542.2l-0.9,0.1c0,0-0.1,0-0.1-0.1v-1l-0.4,0.5
				c-0.4,0.4-0.6,0.8-1.4,0.8h-0.1c-0.9,0-1.4-0.5-1.4-1.4v-1.8c0-1.3,0.8-1.8,1.8-1.8h0.1c0.5,0,1.2,0.3,1.4,0.4v-0.1
				c0,0,0-0.1,0.1-0.1h0.8c0,0,0.1,0,0.1,0.1V542.2L256.9,542.2z M255.8,538.7c-0.3-0.1-0.8-0.4-1.3-0.4h-0.1
				c-0.5,0-0.9,0.4-0.9,0.9v1.8c0,0.4,0.3,0.5,0.5,0.5h0.1c0.4,0,0.6-0.3,0.9-0.6l0.8-0.9L255.8,538.7L255.8,538.7z"/>
			<path fill="#231F20" d="M262.6,542.2C262.6,542.3,262.5,542.3,262.6,542.2l-0.9,0.1c0,0-0.1,0-0.1-0.1v-3.3
				c0-0.4-0.3-0.6-0.5-0.6h-0.1c-0.4,0-0.6,0.3-0.9,0.6l-0.8,0.9v2.4c0,0,0,0.1-0.1,0.1h-0.8c0,0-0.1,0-0.1-0.1v-4.5
				c0,0,0-0.1,0.1-0.1h0.8c0,0,0.1,0,0.1,0.1v1l0.4-0.5c0.4-0.5,0.8-0.8,1.4-0.8h0.1c0.9,0,1.4,0.5,1.4,1.4V542.2z"/>
			<path fill="#231F20" d="M268.1,542.2C268.1,542.3,268,542.3,268.1,542.2l-0.9,0.1c0,0-0.1,0-0.1-0.1v-1l-0.4,0.5
				c-0.4,0.4-0.6,0.8-1.4,0.8h-0.1c-0.9,0-1.4-0.5-1.4-1.4v-1.8c0-1.3,0.8-1.8,1.8-1.8h0.1c0.5,0,1.2,0.3,1.4,0.4v-2.3
				c0,0,0-0.1,0.1-0.1h0.8c0,0,0.1,0,0.1,0.1L268.1,542.2L268.1,542.2z M267.1,538.7c-0.3-0.1-0.8-0.4-1.3-0.4h-0.1
				c-0.5,0-0.9,0.4-0.9,0.9v1.8c0,0.4,0.3,0.5,0.5,0.5h0.1c0.4,0,0.6-0.3,0.9-0.6l0.8-0.9L267.1,538.7L267.1,538.7z"/>
			<path fill="#231F20" d="M45.5,557.5c0-0.1-0.1-0.3-0.1-0.3s0-0.1,0.1-0.1h0.8c0.1,0,0.1,0,0.1,0.1l0.9,2.6
				c0.1,0.5,0.3,0.9,0.4,1.3c0.1-0.4,0.1-0.8,0.4-1.3l0.9-2.6c0-0.1,0.1-0.1,0.1-0.1h0.8c0.1,0,0.1,0,0.1,0.1c0,0,0,0.1,0,0.3
				l-1.5,4.4c0,0,0,0.1-0.1,0.1h-1.2c-0.1,0-0.1,0-0.1-0.1L45.5,557.5z"/>
			<path fill="#231F20" d="M51.6,560v0.3c0,0.6,0.4,0.9,1,0.9h2c0,0,0.1,0,0.1,0.1v0.6c0,0,0,0.1-0.1,0.1h-2.2c-1,0-1.9-0.6-1.9-1.8
				v-1.3c0-1.2,0.8-1.8,1.9-1.8h0.6c1,0,1.9,0.6,1.9,1.7v0.5c0,0.1,0,0.1-0.1,0.3l-0.5,0.4c-0.1,0.1-0.1,0.1-0.3,0.1h-2.6L51.6,560
				L51.6,560z M51.6,559.1h2.3v-0.3c0-0.6-0.4-0.9-1-0.9h-0.3c-0.6,0-1,0.3-1,0.9L51.6,559.1L51.6,559.1z"/>
			<path fill="#231F20" d="M59.7,557.8L59.7,557.8l-0.6,0.6c0,0,0,0-0.1,0c0,0,0,0-0.1,0c-0.1-0.1-0.3-0.3-0.5-0.3h-0.1
				c-0.3,0-0.4,0.3-0.6,0.5l-0.6,0.9v2.3c0,0,0,0.1-0.1,0.1H56c0,0-0.1,0-0.1-0.1v-4.5c0,0,0-0.1,0.1-0.1h0.8c0,0,0.1,0,0.1,0.1v1
				l0.4-0.5c0.4-0.4,0.6-0.8,1.2-0.8h0.1C59,557.1,59.4,557.3,59.7,557.8C59.7,557.7,59.7,557.7,59.7,557.8z"/>
			<path fill="#231F20" d="M62.9,561.6c-0.3,0.6-0.5,1-1,1.4l-0.8,0.6c0,0,0,0-0.1,0c0,0,0,0-0.1,0l-0.5-0.5c0,0,0,0,0-0.1
				c0,0,0,0,0-0.1l0.8-0.6c0.3-0.3,0.5-0.4,0.6-0.8l0,0l-1.8-4.2c0,0,0,0,0-0.1c0,0,0-0.1,0.1-0.1h0.8c0.1,0,0.1,0,0.1,0.1l0.9,2.2
				c0.1,0.4,0.3,0.8,0.3,1.2l1-3.2c0-0.1,0.1-0.1,0.1-0.1h1c0.1,0,0.1,0,0.1,0.1c0,0,0,0,0,0.1L62.9,561.6z"/>
			<path fill="#231F20" d="M72.5,561.9c0,0,0,0.1-0.1,0.1h-1.2c-0.1,0-0.1,0-0.1-0.1l-0.5-1.7c-0.1-0.4-0.3-0.9-0.4-1.2
				c0,0.4-0.3,0.8-0.4,1.2l-0.5,1.7c0,0,0,0.1-0.1,0.1H68c-0.1,0-0.1,0-0.1-0.1l-0.9-4.2c0-0.1,0-0.3,0-0.3c0-0.1,0-0.1,0.1-0.1h0.8
				c0.1,0,0.1,0,0.1,0.1l0.5,2.6c0.1,0.4,0.1,1,0.1,1.3l0.9-2.8c0-0.1,0.1-0.1,0.1-0.1h1c0.1,0,0.1,0,0.1,0.1l0.9,2.8
				c0-0.4,0-0.9,0.1-1.3l0.5-2.6c0-0.1,0.1-0.1,0.1-0.1h0.8c0.1,0,0.1,0,0.1,0.1c0,0,0,0.1,0,0.3L72.5,561.9z"/>
			<path fill="#231F20" d="M76.1,561.9C76.1,561.9,76.1,562,76.1,561.9l-0.9,0.1c0,0-0.1,0-0.1-0.1v-3.7l-1-0.3c0,0-0.1,0-0.1-0.1
				v-0.5c0,0,0-0.1,0.1-0.1h1.9c0,0,0.1,0,0.1,0.1L76.1,561.9L76.1,561.9z M76.2,556C76.2,556,76.1,556,76.2,556l-1.2,0.1
				c0,0-0.1,0-0.1-0.1v-0.9c0,0,0-0.1,0.1-0.1h1c0,0,0.1,0,0.1,0.1V556z"/>
			<path fill="#231F20" d="M81.8,561.9C81.8,561.9,81.8,562,81.8,561.9l-0.9,0.1c0,0-0.1,0-0.1-0.1v-3.3c0-0.4-0.3-0.6-0.5-0.6h-0.1
				c-0.4,0-0.6,0.3-0.9,0.6l-0.8,0.9v2.4c0,0,0,0.1-0.1,0.1h-0.8c0,0-0.1,0-0.1-0.1v-4.5c0,0,0-0.1,0.1-0.1h0.8c0,0,0.1,0,0.1,0.1v1
				l0.4-0.5c0.4-0.5,0.8-0.8,1.4-0.8h0.1c0.9,0,1.4,0.5,1.4,1.4L81.8,561.9L81.8,561.9z"/>
			<path fill="#231F20" d="M87.3,561.9C87.3,561.9,87.3,562,87.3,561.9l-0.9,0.1c0,0-0.1,0-0.1-0.1v-1l-0.4,0.5
				c-0.4,0.4-0.6,0.8-1.4,0.8h-0.1c-0.9,0-1.4-0.5-1.4-1.4v-1.7c0-1.3,0.8-1.8,1.8-1.8h0.1c0.5,0,1.2,0.3,1.4,0.4v-2.3
				c0,0,0-0.1,0.1-0.1h0.8c0,0,0.1,0,0.1,0.1L87.3,561.9L87.3,561.9z M86.3,558.3c-0.3-0.1-0.8-0.4-1.3-0.4h-0.1
				c-0.5,0-0.9,0.4-0.9,0.9v1.8c0,0.4,0.3,0.5,0.5,0.5h0.1c0.4,0,0.6-0.3,0.9-0.6l0.8-0.9V558.3z"/>
			<path fill="#231F20" d="M91.2,561.6c-0.3,0.6-0.5,1-1,1.4l-0.8,0.6c0,0,0,0-0.1,0c0,0,0,0-0.1,0l-0.5-0.5c0,0,0,0,0-0.1
				c0,0,0,0,0-0.1l0.8-0.6c0.3-0.3,0.5-0.4,0.6-0.8l0,0l-1.8-4.2c0,0,0,0,0-0.1c0,0,0-0.1,0.1-0.1h0.8c0.1,0,0.1,0,0.1,0.1l0.9,2.2
				c0.1,0.4,0.3,0.8,0.3,1.2l1-3.2c0-0.1,0.1-0.1,0.1-0.1h0.8c0.1,0,0.1,0,0.1,0.1c0,0,0,0,0,0.1L91.2,561.6z"/>
			<path fill="#231F20" d="M100,561.9C100,561.9,100,562,100,561.9l-0.9,0.1c0,0-0.1,0-0.1-0.1v-1l-0.4,0.5
				c-0.4,0.4-0.6,0.8-1.4,0.8h-0.1c-0.9,0-1.4-0.5-1.4-1.4v-1.7c0-1.3,0.8-1.8,1.8-1.8h0.1c0.5,0,1.2,0.3,1.4,0.4v-2.3
				c0,0,0-0.1,0.1-0.1h0.8c0,0,0.1,0,0.1,0.1L100,561.9L100,561.9z M99.1,558.3c-0.3-0.1-0.8-0.4-1.3-0.4h-0.3
				c-0.5,0-0.9,0.4-0.9,0.9v1.8c0,0.4,0.3,0.5,0.5,0.5h0.1c0.4,0,0.6-0.3,0.9-0.6l0.8-0.9v-1.3L99.1,558.3L99.1,558.3z"/>
			<path fill="#231F20" d="M105.6,561.9C105.6,561.9,105.5,562,105.6,561.9l-0.9,0.1c0,0-0.1,0-0.1-0.1v-1l-0.4,0.5
				c-0.4,0.4-0.6,0.8-1.4,0.8h-0.1c-0.9,0-1.4-0.5-1.4-1.4v-1.7c0-1.3,0.8-1.8,1.8-1.8h0.1c0.5,0,1.2,0.3,1.4,0.4v-0.1
				c0,0,0-0.1,0.1-0.1h0.8c0,0,0.1,0,0.1,0.1L105.6,561.9L105.6,561.9z M104.6,558.3c-0.3-0.1-0.8-0.4-1.3-0.4h-0.1
				c-0.5,0-0.9,0.4-0.9,0.9v1.8c0,0.4,0.3,0.5,0.5,0.5h0.1c0.4,0,0.6-0.3,0.9-0.6l0.8-0.9L104.6,558.3L104.6,558.3z"/>
			<path fill="#231F20" d="M109.5,561.6c-0.3,0.6-0.5,1-1,1.4l-0.8,0.6c0,0,0,0-0.1,0c0,0,0,0-0.1,0l-0.5-0.5c0,0,0,0,0-0.1
				c0,0,0,0,0-0.1l0.8-0.6c0.3-0.3,0.5-0.4,0.6-0.8l0,0l-1.8-4.2c0,0,0,0,0-0.1c0,0,0-0.1,0.1-0.1h0.8c0.1,0,0.1,0,0.1,0.1l0.9,2.2
				c0.1,0.4,0.3,0.8,0.3,1.2l1-3.2c0-0.1,0.1-0.1,0.1-0.1h0.8c0.1,0,0.1,0,0.1,0.1c0,0,0,0,0,0.1L109.5,561.6z"/>
			<path fill="#231F20" d="M112.4,561.9C112.4,561.9,112.4,562,112.4,561.9l-1,0.1c0,0-0.1,0-0.1-0.1V561c0,0,0-0.1,0.1-0.1h0.9
				c0,0,0.1,0,0.1,0.1V561.9z"/>
		</g>
	</g>
	
		<text transform="matrix(1 0 0 1 636.6548 33.4675)" fill="#EC008B" font-family="'ChambersSansOT-BoldItalic'" font-size="10.2433">Streaming Infrastructure</text>
	<line fill="none" stroke="#222222" stroke-miterlimit="10" x1="0.5" y1="183.4" x2="305.6" y2="183.4"/>
	<line fill="none" stroke="#222222" stroke-miterlimit="10" x1="0.4" y1="322.4" x2="305.5" y2="322.4"/>
	<line fill="none" stroke="#222222" stroke-miterlimit="10" x1="0.3" y1="461.5" x2="305.4" y2="461.5"/>
	<rect x="0.3" y="44" fill="none" stroke="#222222" stroke-miterlimit="10" width="305.1" height="556.8"/>
	<rect x="0.3" y="44" fill="#222222" stroke="#222222" stroke-miterlimit="10" width="305.1" height="18.2"/>
	<text transform="matrix(1 0 0 1 5.8125 55.5291)" fill="#FFFFFF" font-family="'ChambersSansOT-BoldItalic'" font-size="7.6825">1. Raw Data</text>
	<rect x="0.5" y="182.9" fill="#222222" stroke="#222222" stroke-miterlimit="10" width="305.1" height="18.2"/>
	<text transform="matrix(1 0 0 1 6.0537 194.5417)" fill="#FFFFFF" font-family="'ChambersSansOT-BoldItalic'" font-size="7.6825">2. Document Planning</text>
	<rect x="0.1" y="322.4" fill="#222222" stroke="#231F20" stroke-miterlimit="10" width="305.1" height="18.2"/>
	<text transform="matrix(1 0 0 1 5.6865 334.0662)" fill="#FFFFFF" font-family="'ChambersSansOT-BoldItalic'" font-size="7.6825">3. Micro Planning</text>
	<rect x="0" y="461.5" fill="#222222" stroke="#231F20" stroke-miterlimit="10" width="305.1" height="18.2"/>
	<text transform="matrix(1 0 0 1 5.5605 473.1345)" fill="#FFFFFF" font-family="'ChambersSansOT-BoldItalic'" font-size="7.6825">4. Realization</text>
	<g>
		<ellipse fill="none" stroke="#EC008B" stroke-width="2" stroke-miterlimit="10" cx="592.1" cy="106.2" rx="20.2" ry="20.7"/>
		<text transform="matrix(1 0 0 1 581.4736 108.8997)" fill="#231F20" font-family="'ChambersSansOT-BoldItalic'" font-size="9.47">Data</text>
	</g>
	<text transform="matrix(1 0 0 1 791.8047 53.8562)" fill="#231F20" font-family="'ChambersSansOT-BoldItalic'" font-size="9.4716">unique</text>
	<text transform="matrix(1 0 0 1 791.8047 65.2224)" fill="#231F20" font-family="'ChambersSansOT-BoldItalic'" font-size="9.4716">commenters</text>
	<line fill="none" stroke="#EC008B" stroke-width="4" stroke-miterlimit="10" x1="784" y1="46.9" x2="784" y2="66.5"/>
	<text transform="matrix(1 0 0 1 791.8047 85.0261)" fill="#231F20" font-family="'ChambersSansOT-BoldItalic'" font-size="9.4716">unique</text>
	<text transform="matrix(1 0 0 1 791.8047 96.3923)" fill="#231F20" font-family="'ChambersSansOT-BoldItalic'" font-size="9.4716">words</text>
	<line fill="none" stroke="#EC008B" stroke-width="4" stroke-miterlimit="10" x1="784" y1="78.1" x2="784" y2="97.6"/>
	
		<text transform="matrix(1 0 0 1 791.8047 116.1941)" fill="#231F20" font-family="'ChambersSansOT-BoldItalic'" font-size="9.4716">new</text>
	
		<text transform="matrix(1 0 0 1 791.8047 127.5603)" fill="#231F20" font-family="'ChambersSansOT-BoldItalic'" font-size="9.4716">followers</text>
	<line fill="none" stroke="#EC008B" stroke-width="4" stroke-miterlimit="10" x1="784" y1="109.3" x2="784" y2="128.8"/>
	<text transform="matrix(1 0 0 1 791.8047 148.364)" fill="#231F20" font-family="'ChambersSansOT-BoldItalic'" font-size="9.4716">cat</text>
	
		<text transform="matrix(1 0 0 1 791.8047 157.7302)" fill="#231F20" font-family="'ChambersSansOT-BoldItalic'" font-size="9.4716">extractor</text>
	
		<text transform="matrix(1 0 0 1 791.8047 181.3162)" fill="#231F20" font-family="'ChambersSansOT-BoldItalic'" font-size="9.4716">all cat</text>
	
		<text transform="matrix(1 0 0 1 791.8047 192.6824)" fill="#231F20" font-family="'ChambersSansOT-BoldItalic'" font-size="9.4716">tweets</text>
	<line fill="none" stroke="#EC008B" stroke-width="4" stroke-miterlimit="10" x1="784" y1="174.4" x2="784" y2="193.9"/>
	<g>
		
			<rect x="656.6" y="83.1" fill="#FFFFFF" stroke="#231F20" stroke-width="1.926" stroke-miterlimit="10" width="78.4" height="22.6"/>
		<rect x="656.6" y="64.7" stroke="#231F20" stroke-width="1.926" stroke-miterlimit="10" width="78.4" height="18.6"/>
		
			<rect x="656.6" y="105.7" fill="#FFFFFF" stroke="#231F20" stroke-width="1.926" stroke-miterlimit="10" width="78.4" height="22.8"/>
		
			<rect x="656.6" y="128.4" fill="#FFFFFF" stroke="#231F20" stroke-width="1.926" stroke-miterlimit="10" width="78.4" height="22.8"/>
		<g>
			<text transform="matrix(1 0 0 1 664.1914 75.9968)" fill="#FFFFFF" font-family="'ChambersSansOT-BoldItalic'" font-size="7">Message Queues</text>
			<text transform="matrix(1 0 0 1 664.1914 97.212)" fill="#EC008C" font-family="'ChambersSansOT-BoldItalic'" font-size="8.42">1. Reddit</text>
			
				<text transform="matrix(1 0 0 1 664.1914 119.8761)" fill="#EC008C" font-family="'ChambersSansOT-BoldItalic'" font-size="8.42">2. Twitter</text>
			
				<text transform="matrix(1 0 0 1 664.1914 142.6271)" fill="#EC008C" font-family="'ChambersSansOT-BoldItalic'" font-size="8.42">3. Cat Stream</text>
		</g>
	</g>
	<g>
		<g>
			<g>
				
					<rect x="645.9" y="91.8" transform="matrix(-0.9817 0.1904 -0.1904 -0.9817 1303.897 64.7111)" fill="none" width="5.9" height="6.3"/>
				<g>
					<polygon fill="#231F20" points="646.6,98.7 649.1,95 645.4,92.5 648,91.9 651.7,94.5 649.2,98.2 					"/>
				</g>
			</g>
			<g>
				
					<rect x="639.7" y="93" transform="matrix(-0.9817 0.1904 -0.1904 -0.9817 1291.778 68.2937)" fill="none" width="5.9" height="6.3"/>
				<g>
					<polygon fill="#231F20" points="640.3,99.9 642.8,96.2 639.1,93.7 641.8,93.1 645.5,95.7 643,99.4 					"/>
				</g>
			</g>
			<g>
				
					<rect x="633.4" y="94.3" transform="matrix(-0.9817 0.1904 -0.1904 -0.9817 1279.6588 71.8762)" fill="none" width="5.9" height="6.3"/>
				<g>
					<polygon fill="#231F20" points="634.1,101.1 636.6,97.4 632.9,94.9 635.5,94.4 639.3,96.9 636.7,100.6 					"/>
				</g>
			</g>
			<g>
				
					<rect x="627.2" y="95.5" transform="matrix(-0.9817 0.1904 -0.1904 -0.9817 1267.5397 75.4587)" fill="none" width="5.9" height="6.3"/>
				<g>
					<polygon fill="#231F20" points="627.9,102.3 630.4,98.6 626.7,96.1 629.3,95.6 633,98.1 630.5,101.8 					"/>
				</g>
			</g>
			<g>
				
					<rect x="621" y="96.7" transform="matrix(-0.9817 0.1904 -0.1904 -0.9817 1255.4208 79.0412)" fill="none" width="5.9" height="6.3"/>
				<g>
					<polygon fill="#231F20" points="621.6,103.5 624.1,99.8 620.4,97.3 623.1,96.8 626.8,99.3 624.3,103 					"/>
				</g>
			</g>
			<g>
				
					<rect x="614.7" y="97.9" transform="matrix(-0.9817 0.1904 -0.1904 -0.9817 1243.3016 82.6237)" fill="none" width="5.9" height="6.3"/>
				<g>
					<polygon fill="#231F20" points="615.4,104.7 617.9,101 614.2,98.5 616.8,98 620.6,100.5 618,104.2 					"/>
				</g>
			</g>
		</g>
	</g>
	<g>
		<g>
			<g>
				
					<rect x="646.3" y="113.5" transform="matrix(-0.9937 -0.1125 0.1125 -0.9937 1281.1897 305.6793)" fill="none" width="5.9" height="6.3"/>
				<g>
					<polygon fill="#231F20" points="645.9,119.5 649.5,116.7 646.7,113.2 649.3,113.5 652.1,117 648.6,119.8 					"/>
				</g>
			</g>
			<g>
				
					<rect x="640" y="112.8" transform="matrix(-0.9937 -0.1125 0.1125 -0.9937 1268.6949 303.5462)" fill="none" width="5.9" height="6.3"/>
				<g>
					<polygon fill="#231F20" points="639.6,118.8 643.2,116 640.4,112.5 643,112.8 645.8,116.3 642.3,119.1 					"/>
				</g>
			</g>
			<g>
				
					<rect x="633.7" y="112.1" transform="matrix(-0.9937 -0.1125 0.1125 -0.9937 1256.2001 301.4131)" fill="none" width="5.9" height="6.3"/>
				<g>
					<polygon fill="#231F20" points="633.3,118.1 636.8,115.3 634,111.8 636.7,112.1 639.5,115.6 636,118.4 					"/>
				</g>
			</g>
			<g>
				
					<rect x="627.4" y="111.4" transform="matrix(-0.9937 -0.1125 0.1125 -0.9937 1243.7052 299.28)" fill="none" width="5.9" height="6.3"/>
				<g>
					<polygon fill="#231F20" points="627,117.4 630.5,114.6 627.7,111.1 630.4,111.4 633.2,114.9 629.7,117.7 					"/>
				</g>
			</g>
			<g>
				
					<rect x="621.1" y="110.7" transform="matrix(-0.9937 -0.1125 0.1125 -0.9937 1231.2104 297.1469)" fill="none" width="5.9" height="6.3"/>
				<g>
					<polygon fill="#231F20" points="620.7,116.7 624.2,113.9 621.4,110.4 624.1,110.7 626.9,114.2 623.4,117 					"/>
				</g>
			</g>
			<g>
				
					<rect x="614.7" y="110" transform="matrix(-0.9937 -0.1125 0.1125 -0.9937 1218.7157 295.0138)" fill="none" width="5.9" height="6.3"/>
				<g>
					<polygon fill="#231F20" points="614.4,115.9 617.9,113.2 615.1,109.6 617.8,109.9 620.6,113.5 617.1,116.3 					"/>
				</g>
			</g>
		</g>
	</g>
	<line fill="none" stroke="#EC008B" stroke-width="4" stroke-miterlimit="10" x1="784" y1="140.4" x2="784" y2="160"/>
</g>
<g id="people">
</g>
<g id="arrow_test_1" display="none">
	<g display="inline">
		<g>
			<g>
				
					<rect x="763.7" y="146.9" transform="matrix(-0.8224 -0.5689 0.5689 -0.8224 1310.5411 706.9045)" fill="none" width="3.8" height="4.1"/>
				<g>
					<polygon fill="#231F20" points="762.9,149.5 765.7,149 765.2,146.1 766.6,147.1 767.2,150 764.3,150.5 					"/>
				</g>
			</g>
			<g>
				
					<rect x="759.8" y="144.1" transform="matrix(-0.8224 -0.5689 0.5689 -0.8224 1304.9427 699.7448)" fill="none" width="3.8" height="4.1"/>
				<g>
					<polygon fill="#231F20" points="758.9,146.8 761.8,146.3 761.3,143.4 762.7,144.4 763.3,147.3 760.4,147.8 					"/>
				</g>
			</g>
			<g>
				
					<rect x="755.9" y="141.4" transform="matrix(-0.8223 -0.569 0.569 -0.8223 1299.2371 692.6912)" fill="none" width="3.8" height="4.1"/>
				<g>
					<polygon fill="#231F20" points="755,144.1 757.9,143.6 757.4,140.7 758.8,141.7 759.3,144.6 756.5,145.1 					"/>
				</g>
			</g>
			<g>
				
					<rect x="751.9" y="138.7" transform="matrix(-0.8223 -0.5691 0.5691 -0.8223 1293.6317 685.5391)" fill="none" width="3.8" height="4.1"/>
				<g>
					<polygon fill="#231F20" points="751.1,141.4 754,140.9 753.5,138 754.9,139 755.4,141.9 752.6,142.4 					"/>
				</g>
			</g>
			<g>
				
					<rect x="748" y="136" transform="matrix(-0.8223 -0.569 0.569 -0.8223 1288.0585 678.355)" fill="none" width="3.8" height="4.1"/>
				<g>
					<polygon fill="#231F20" points="747.2,138.7 750.1,138.2 749.5,135.3 751,136.3 751.5,139.2 748.6,139.7 					"/>
				</g>
			</g>
			<g>
				
					<rect x="744.1" y="133.3" transform="matrix(-0.8223 -0.569 0.569 -0.8223 1282.4556 671.2006)" fill="none" width="3.8" height="4.1"/>
				<g>
					<polygon fill="#231F20" points="743.3,136 746.2,135.5 745.6,132.6 747.1,133.6 747.6,136.5 744.7,137 					"/>
				</g>
			</g>
			<g>
				
					<rect x="740.2" y="130.6" transform="matrix(-0.8223 -0.569 0.569 -0.8223 1276.8705 664.0283)" fill="none" width="3.8" height="4.1"/>
				<g>
					<polygon fill="#231F20" points="739.4,133.3 742.2,132.7 741.7,129.9 743.2,130.9 743.7,133.7 740.8,134.3 					"/>
				</g>
			</g>
			<g>
				
					<rect x="736.3" y="127.9" transform="matrix(-0.8223 -0.569 0.569 -0.8223 1271.2698 656.8718)" fill="none" width="3.8" height="4.1"/>
				<g>
					<polygon fill="#231F20" points="735.5,130.6 738.3,130 737.8,127.2 739.2,128.2 739.8,131 736.9,131.6 					"/>
				</g>
			</g>
			<g>
				
					<rect x="732.4" y="125.2" transform="matrix(-0.8223 -0.569 0.569 -0.8223 1265.6769 649.7073)" fill="none" width="3.8" height="4.1"/>
				<g>
					<polygon fill="#231F20" points="731.5,127.9 734.4,127.3 733.9,124.5 735.3,125.5 735.8,128.3 733,128.9 					"/>
				</g>
			</g>
			<g>
				
					<rect x="728.5" y="122.5" transform="matrix(-0.8223 -0.569 0.569 -0.8223 1260.0787 642.5484)" fill="none" width="3.8" height="4.1"/>
				<g>
					<polygon fill="#231F20" points="727.6,125.1 730.5,124.6 730,121.8 731.4,122.7 731.9,125.6 729.1,126.1 					"/>
				</g>
			</g>
			<g>
				
					<rect x="724.5" y="119.8" transform="matrix(-0.8223 -0.5691 0.5691 -0.8223 1254.4778 635.3928)" fill="none" width="3.8" height="4.1"/>
				<g>
					<polygon fill="#231F20" points="723.7,122.4 726.6,121.9 726.1,119 727.5,120 728,122.9 725.1,123.4 					"/>
				</g>
			</g>
			<g>
				
					<rect x="720.6" y="117.1" transform="matrix(-0.8223 -0.569 0.569 -0.8223 1248.9053 628.2072)" fill="none" width="3.8" height="4.1"/>
				<g>
					<polygon fill="#231F20" points="719.8,119.7 722.7,119.2 722.1,116.3 723.6,117.3 724.1,120.2 721.2,120.7 					"/>
				</g>
			</g>
		</g>
	</g>
	<g display="inline">
		<g>
			<g>
				
					<rect x="762.7" y="86.3" transform="matrix(-0.9824 0.1866 -0.1866 -0.9824 1532.3228 32.5879)" fill="none" width="3.8" height="4.1"/>
				<g>
					<polygon fill="#231F20" points="763.1,90.8 764.8,88.4 762.4,86.7 764.1,86.4 766.5,88 764.9,90.5 					"/>
				</g>
			</g>
			<g>
				
					<rect x="758" y="87.2" transform="matrix(-0.9824 0.1866 -0.1866 -0.9824 1523.2158 35.2198)" fill="none" width="3.8" height="4.1"/>
				<g>
					<polygon fill="#231F20" points="758.5,91.7 760.1,89.3 757.7,87.6 759.4,87.3 761.8,88.9 760.2,91.3 					"/>
				</g>
			</g>
			<g>
				
					<rect x="753.4" y="88.1" transform="matrix(-0.9825 0.1865 -0.1865 -0.9825 1514.1146 37.9318)" fill="none" width="3.8" height="4.1"/>
				<g>
					<polygon fill="#231F20" points="753.8,92.6 755.4,90.1 753,88.5 754.7,88.2 757.1,89.8 755.5,92.2 					"/>
				</g>
			</g>
			<g>
				
					<rect x="748.7" y="89" transform="matrix(-0.9824 0.1866 -0.1866 -0.9824 1505.0002 40.4521)" fill="none" width="3.8" height="4.1"/>
				<g>
					<polygon fill="#231F20" points="749.1,93.4 750.7,91 748.3,89.4 750.1,89.1 752.5,90.7 750.8,93.1 					"/>
				</g>
			</g>
			<g>
				
					<rect x="744" y="89.9" transform="matrix(-0.9824 0.1866 -0.1866 -0.9824 1495.8959 43.121)" fill="none" width="3.8" height="4.1"/>
				<g>
					<polygon fill="#231F20" points="744.4,94.3 746.1,91.9 743.7,90.3 745.4,90 747.8,91.6 746.1,94 					"/>
				</g>
			</g>
			<g>
				
					<rect x="739.3" y="90.8" transform="matrix(-0.9824 0.1866 -0.1866 -0.9824 1486.7882 45.7498)" fill="none" width="3.8" height="4.1"/>
				<g>
					<polygon fill="#231F20" points="739.8,95.2 741.4,92.8 739,91.2 740.7,90.8 743.1,92.5 741.5,94.9 					"/>
				</g>
			</g>
			<g>
				
					<rect x="734.7" y="91.7" transform="matrix(-0.9824 0.1867 -0.1867 -0.9824 1477.677 48.2933)" fill="none" width="3.8" height="4.1"/>
				<g>
					<polygon fill="#231F20" points="735.1,96.1 736.7,93.7 734.3,92.1 736,91.7 738.4,93.4 736.8,95.8 					"/>
				</g>
			</g>
			<g>
				
					<rect x="730" y="92.6" transform="matrix(-0.9824 0.1866 -0.1866 -0.9824 1468.5741 51.0033)" fill="none" width="3.8" height="4.1"/>
				<g>
					<polygon fill="#231F20" points="730.4,97 732,94.6 729.6,92.9 731.3,92.6 733.8,94.3 732.1,96.7 					"/>
				</g>
			</g>
			<g>
				
					<rect x="725.3" y="93.4" transform="matrix(-0.9824 0.1866 -0.1866 -0.9824 1459.4694 53.6541)" fill="none" width="3.8" height="4.1"/>
				<g>
					<polygon fill="#231F20" points="725.7,97.9 727.4,95.5 725,93.8 726.7,93.5 729.1,95.1 727.4,97.6 					"/>
				</g>
			</g>
			<g>
				
					<rect x="720.6" y="94.3" transform="matrix(-0.9824 0.1866 -0.1866 -0.9824 1450.3619 56.2899)" fill="none" width="3.8" height="4.1"/>
				<g>
					<polygon fill="#231F20" points="721,98.8 722.7,96.4 720.3,94.7 722,94.4 724.4,96 722.8,98.4 					"/>
				</g>
			</g>
		</g>
	</g>
	<g display="inline">
		<g>
			<g>
				
					<rect x="763.3" y="56.4" transform="matrix(-0.7475 0.6643 -0.6643 -0.7475 1376.058 -406.1983)" fill="none" width="3.8" height="4.1"/>
				<g>
					<polygon fill="#231F20" points="765.2,61.2 765.3,58.3 762.4,58.2 763.7,57 766.7,57.2 766.5,60.1 					"/>
				</g>
			</g>
			<g>
				
					<rect x="759.8" y="59.5" transform="matrix(-0.7473 0.6645 -0.6645 -0.7473 1371.8141 -398.4762)" fill="none" width="3.8" height="4.1"/>
				<g>
					<polygon fill="#231F20" points="761.6,64.4 761.8,61.5 758.9,61.3 760.2,60.2 763.1,60.3 762.9,63.2 					"/>
				</g>
			</g>
			<g>
				
					<rect x="756.2" y="62.7" transform="matrix(-0.7473 0.6645 -0.6645 -0.7473 1367.6978 -390.5847)" fill="none" width="3.8" height="4.1"/>
				<g>
					<polygon fill="#231F20" points="758.1,67.6 758.2,64.7 755.3,64.5 756.6,63.3 759.5,63.5 759.4,66.4 					"/>
				</g>
			</g>
			<g>
				
					<rect x="752.6" y="65.9" transform="matrix(-0.7474 0.6643 -0.6643 -0.7474 1363.661 -382.5873)" fill="none" width="3.8" height="4.1"/>
				<g>
					<polygon fill="#231F20" points="754.5,70.7 754.7,67.8 751.8,67.6 753.1,66.5 756,66.7 755.8,69.6 					"/>
				</g>
			</g>
			<g>
				
					<rect x="749.1" y="69" transform="matrix(-0.7473 0.6645 -0.6645 -0.7473 1359.4663 -374.8033)" fill="none" width="3.8" height="4.1"/>
				<g>
					<polygon fill="#231F20" points="750.9,73.9 751.1,71 748.2,70.8 749.5,69.7 752.4,69.8 752.3,72.7 					"/>
				</g>
			</g>
			<g>
				
					<rect x="745.5" y="72.2" transform="matrix(-0.7473 0.6645 -0.6645 -0.7473 1355.351 -366.9108)" fill="none" width="3.8" height="4.1"/>
				<g>
					<polygon fill="#231F20" points="747.4,77.1 747.6,74.1 744.6,74 746,72.8 748.9,73 748.7,75.9 					"/>
				</g>
			</g>
			<g>
				
					<rect x="742" y="75.4" transform="matrix(-0.7475 0.6643 -0.6643 -0.7475 1351.3539 -358.8551)" fill="none" width="3.8" height="4.1"/>
				<g>
					<polygon fill="#231F20" points="743.8,80.2 744,77.3 741.1,77.1 742.4,76 745.3,76.1 745.1,79.1 					"/>
				</g>
			</g>
			<g>
				
					<rect x="738.4" y="78.5" transform="matrix(-0.7474 0.6644 -0.6644 -0.7474 1347.1622 -351.0699)" fill="none" width="3.8" height="4.1"/>
				<g>
					<polygon fill="#231F20" points="740.3,83.4 740.4,80.5 737.5,80.3 738.8,79.1 741.7,79.3 741.6,82.2 					"/>
				</g>
			</g>
			<g>
				
					<rect x="734.9" y="81.7" transform="matrix(-0.7474 0.6644 -0.6644 -0.7474 1343.0455 -343.1784)" fill="none" width="3.8" height="4.1"/>
				<g>
					<polygon fill="#231F20" points="736.7,86.5 736.9,83.6 734,83.5 735.3,82.3 738.2,82.5 738,85.4 					"/>
				</g>
			</g>
			<g>
				
					<rect x="731.3" y="84.8" transform="matrix(-0.7475 0.6643 -0.6643 -0.7475 1339.0033 -335.1818)" fill="none" width="3.8" height="4.1"/>
				<g>
					<polygon fill="#231F20" points="733.2,89.7 733.3,86.8 730.4,86.6 731.7,85.5 734.6,85.6 734.5,88.5 					"/>
				</g>
			</g>
			<g>
				
					<rect x="727.7" y="88" transform="matrix(-0.7474 0.6644 -0.6644 -0.7474 1334.8209 -327.3858)" fill="none" width="3.8" height="4.1"/>
				<g>
					<polygon fill="#231F20" points="729.6,92.9 729.8,90 726.9,89.8 728.2,88.6 731.1,88.8 730.9,91.7 					"/>
				</g>
			</g>
			<g>
				
					<rect x="724.2" y="91.2" transform="matrix(-0.7474 0.6644 -0.6644 -0.7474 1330.6971 -319.5049)" fill="none" width="3.8" height="4.1"/>
				<g>
					<polygon fill="#231F20" points="726,96 726.2,93.1 723.3,93 724.6,91.8 727.5,92 727.3,94.9 					"/>
				</g>
			</g>
			<g>
				
					<rect x="720.6" y="94.3" transform="matrix(-0.7475 0.6643 -0.6643 -0.7475 1326.647 -311.5165)" fill="none" width="3.8" height="4.1"/>
				<g>
					<polygon fill="#231F20" points="722.5,99.2 722.6,96.3 719.7,96.1 721,95 724,95.1 723.8,98 					"/>
				</g>
			</g>
		</g>
	</g>
	<g display="inline">
		<g>
			<g>
				<rect x="763.5" y="117.1" fill="none" width="3.8" height="4.1"/>
				<g>
					<polygon fill="#231F20" points="763.5,121.2 765.5,119.1 763.5,117.1 765.2,117.1 767.3,119.1 765.2,121.2 					"/>
				</g>
			</g>
			<g>
				<rect x="758.7" y="117.1" fill="none" width="3.8" height="4.1"/>
				<g>
					<polygon fill="#231F20" points="758.7,121.2 760.8,119.1 758.7,117.1 760.5,117.1 762.5,119.1 760.5,121.2 					"/>
				</g>
			</g>
			<g>
				<rect x="754" y="117.1" fill="none" width="3.8" height="4.1"/>
				<g>
					<polygon fill="#231F20" points="754,121.2 756,119.1 754,117.1 755.7,117.1 757.8,119.1 755.7,121.2 					"/>
				</g>
			</g>
			<g>
				<rect x="749.2" y="117.1" fill="none" width="3.8" height="4.1"/>
				<g>
					<polygon fill="#231F20" points="749.2,121.2 751.3,119.1 749.2,117.1 750.9,117.1 753,119.1 750.9,121.2 					"/>
				</g>
			</g>
			<g>
				<rect x="744.4" y="117.1" fill="none" width="3.8" height="4.1"/>
				<g>
					<polygon fill="#231F20" points="744.4,121.2 746.5,119.1 744.4,117.1 746.2,117.1 748.2,119.1 746.2,121.2 					"/>
				</g>
			</g>
			<g>
				<rect x="739.7" y="117.1" fill="none" width="3.8" height="4.1"/>
				<g>
					<polygon fill="#231F20" points="739.7,121.2 741.7,119.1 739.7,117.1 741.4,117.1 743.5,119.1 741.4,121.2 					"/>
				</g>
			</g>
			<g>
				<rect x="734.9" y="117.1" fill="none" width="3.8" height="4.1"/>
				<g>
					<polygon fill="#231F20" points="734.9,121.2 737,119.1 734.9,117.1 736.7,117.1 738.7,119.1 736.7,121.2 					"/>
				</g>
			</g>
			<g>
				<rect x="730.1" y="117.1" fill="none" width="3.8" height="4.1"/>
				<g>
					<polygon fill="#231F20" points="730.1,121.2 732.2,119.1 730.1,117.1 731.9,117.1 734,119.1 731.9,121.2 					"/>
				</g>
			</g>
			<g>
				<rect x="725.4" y="117.1" fill="none" width="3.8" height="4.1"/>
				<g>
					<polygon fill="#231F20" points="725.4,121.2 727.4,119.1 725.4,117.1 727.1,117.1 729.2,119.1 727.1,121.2 					"/>
				</g>
			</g>
			<g>
				<rect x="720.6" y="117.1" fill="none" width="3.8" height="4.1"/>
				<g>
					<polygon fill="#231F20" points="720.6,121.2 722.7,119.1 720.6,117.1 722.4,117.1 724.4,119.1 722.4,121.2 					"/>
				</g>
			</g>
		</g>
	</g>
	<g display="inline">
		<g>
			<g>
				
					<rect x="764.9" y="183" transform="matrix(-0.7151 -0.699 0.699 -0.7151 1185.8062 853.3509)" fill="none" width="3.8" height="4.1"/>
				<g>
					<polygon fill="#231F20" points="764,185.2 766.9,185.2 766.9,182.2 768.1,183.5 768.2,186.4 765.2,186.4 					"/>
				</g>
			</g>
			<g>
				
					<rect x="761.5" y="179.7" transform="matrix(-0.7151 -0.699 0.699 -0.7151 1182.2905 845.2653)" fill="none" width="3.8" height="4.1"/>
				<g>
					<polygon fill="#231F20" points="760.6,181.9 763.5,181.8 763.5,178.9 764.7,180.1 764.7,183.1 761.8,183.1 					"/>
				</g>
			</g>
			<g>
				
					<rect x="758.1" y="176.3" transform="matrix(-0.7151 -0.699 0.699 -0.7151 1178.7803 837.1752)" fill="none" width="3.8" height="4.1"/>
				<g>
					<polygon fill="#231F20" points="757.2,178.5 760.1,178.5 760.1,175.6 761.3,176.8 761.3,179.7 758.4,179.8 					"/>
				</g>
			</g>
			<g>
				
					<rect x="754.7" y="173" transform="matrix(-0.7151 -0.699 0.699 -0.7151 1175.2584 829.0934)" fill="none" width="3.8" height="4.1"/>
				<g>
					<polygon fill="#231F20" points="753.8,175.2 756.7,175.2 756.7,172.3 757.9,173.5 757.9,176.4 755,176.4 					"/>
				</g>
			</g>
			<g>
				
					<rect x="751.3" y="169.7" transform="matrix(-0.7151 -0.699 0.699 -0.7151 1171.7551 820.9996)" fill="none" width="3.8" height="4.1"/>
				<g>
					<polygon fill="#231F20" points="750.4,171.9 753.3,171.8 753.2,168.9 754.5,170.1 754.5,173.1 751.6,173.1 					"/>
				</g>
			</g>
			<g>
				
					<rect x="747.9" y="166.3" transform="matrix(-0.7151 -0.699 0.699 -0.7151 1168.2426 812.9119)" fill="none" width="3.8" height="4.1"/>
				<g>
					<polygon fill="#231F20" points="747,168.5 749.9,168.5 749.8,165.6 751.1,166.8 751.1,169.7 748.2,169.8 					"/>
				</g>
			</g>
			<g>
				
					<rect x="744.5" y="163" transform="matrix(-0.7151 -0.699 0.699 -0.7151 1164.73 804.8242)" fill="none" width="3.8" height="4.1"/>
				<g>
					<polygon fill="#231F20" points="743.6,165.2 746.5,165.2 746.4,162.3 747.7,163.5 747.7,166.4 744.8,166.4 					"/>
				</g>
			</g>
			<g>
				
					<rect x="741.1" y="159.7" transform="matrix(-0.7151 -0.699 0.699 -0.7151 1161.2054 796.7443)" fill="none" width="3.8" height="4.1"/>
				<g>
					<polygon fill="#231F20" points="740.2,161.9 743.1,161.9 743,158.9 744.3,160.2 744.3,163.1 741.4,163.1 					"/>
				</g>
			</g>
			<g>
				
					<rect x="737.6" y="156.4" transform="matrix(-0.7151 -0.699 0.699 -0.7151 1157.6898 788.6579)" fill="none" width="3.8" height="4.1"/>
				<g>
					<polygon fill="#231F20" points="736.7,158.6 739.7,158.5 739.6,155.6 740.9,156.8 740.9,159.8 738,159.8 					"/>
				</g>
			</g>
			<g>
				
					<rect x="734.2" y="153" transform="matrix(-0.7151 -0.699 0.699 -0.7151 1154.1802 780.5683)" fill="none" width="3.8" height="4.1"/>
				<g>
					<polygon fill="#231F20" points="733.3,155.2 736.3,155.2 736.2,152.3 737.5,153.5 737.5,156.4 734.6,156.5 					"/>
				</g>
			</g>
			<g>
				
					<rect x="730.8" y="149.7" transform="matrix(-0.7151 -0.699 0.699 -0.7151 1150.6677 772.4806)" fill="none" width="3.8" height="4.1"/>
				<g>
					<polygon fill="#231F20" points="729.9,151.9 732.9,151.9 732.8,149 734.1,150.2 734.1,153.1 731.2,153.1 					"/>
				</g>
			</g>
			<g>
				
					<rect x="727.4" y="146.4" transform="matrix(-0.7151 -0.699 0.699 -0.7151 1147.1437 764.4007)" fill="none" width="3.8" height="4.1"/>
				<g>
					<polygon fill="#231F20" points="726.5,148.6 729.5,148.5 729.4,145.6 730.7,146.9 730.7,149.8 727.8,149.8 					"/>
				</g>
			</g>
			<g>
				
					<rect x="724" y="143" transform="matrix(-0.7151 -0.699 0.699 -0.7151 1143.6428 756.3051)" fill="none" width="3.8" height="4.1"/>
				<g>
					<polygon fill="#231F20" points="723.1,145.3 726,145.2 726,142.3 727.3,143.5 727.3,146.4 724.4,146.5 					"/>
				</g>
			</g>
			<g>
				
					<rect x="720.6" y="139.7" transform="matrix(-0.7151 -0.699 0.699 -0.7151 1140.1329 748.2155)" fill="none" width="3.8" height="4.1"/>
				<g>
					<polygon fill="#231F20" points="719.7,141.9 722.6,141.9 722.6,139 723.9,140.2 723.9,143.1 721,143.1 					"/>
				</g>
			</g>
		</g>
	</g>
</g>
<g id="arrow_test_1_copy">
	<g>
		<g>
			<g>
				
					<rect x="774.8" y="144.8" transform="matrix(-0.8039 -0.5948 0.5948 -0.8039 1314.8665 729.4743)" fill="none" width="5.9" height="6.3"/>
				<g>
					<polygon fill="#231F20" points="773.5,148.8 777.9,148.1 777.2,143.7 779.4,145.3 780.1,149.7 775.6,150.4 					"/>
				</g>
			</g>
		</g>
		<g>
			<line fill="none" stroke="#231F20" stroke-width="2" stroke-miterlimit="10" x1="777.7" y1="147.9" x2="775.3" y2="146.2"/>
			
				<line fill="none" stroke="#231F20" stroke-width="2" stroke-miterlimit="10" stroke-dasharray="6.5486,6.5486" x1="770" y1="142.3" x2="741.1" y2="120.8"/>
			<line fill="none" stroke="#231F20" stroke-width="2" stroke-miterlimit="10" x1="738.4" y1="118.9" x2="736" y2="117.1"/>
		</g>
	</g>
	<g>
		<g>
			<g>
				
					<rect x="774.8" y="85.3" transform="matrix(-0.99 0.1409 -0.1409 -0.99 1560.111 66.374)" fill="none" width="5.9" height="6.3"/>
				<g>
					<polygon fill="#231F20" points="775.2,92 777.9,88.4 774.4,85.7 777,85.3 780.6,88 777.9,91.6 					"/>
				</g>
			</g>
		</g>
		<g>
			<line fill="none" stroke="#231F20" stroke-width="2" stroke-miterlimit="10" x1="777.7" y1="88.4" x2="774.7" y2="88.9"/>
			
				<line fill="none" stroke="#231F20" stroke-width="2" stroke-miterlimit="10" stroke-dasharray="5.1562,5.1562" x1="769.6" y1="89.6" x2="741.6" y2="93.6"/>
			<line fill="none" stroke="#231F20" stroke-width="2" stroke-miterlimit="10" x1="739" y1="93.9" x2="736" y2="94.4"/>
		</g>
	</g>
	<g>
		<g>
			<g>
				
					<rect x="774.8" y="56.1" transform="matrix(-0.7654 0.6436 -0.6436 -0.7654 1411.1165 -395.7977)" fill="none" width="5.9" height="6.3"/>
				<g>
					<polygon fill="#231F20" points="777.5,63.6 777.9,59.2 773.4,58.8 775.5,57 780,57.4 779.6,61.9 					"/>
				</g>
			</g>
		</g>
		<g>
			<line fill="none" stroke="#231F20" stroke-width="2" stroke-miterlimit="10" x1="777.7" y1="59.3" x2="775.4" y2="61.3"/>
			
				<line fill="none" stroke="#231F20" stroke-width="2" stroke-miterlimit="10" stroke-dasharray="5.3831,5.3831" x1="771.3" y1="64.7" x2="740.4" y2="90.7"/>
			<line fill="none" stroke="#231F20" stroke-width="2" stroke-miterlimit="10" x1="738.3" y1="92.4" x2="736" y2="94.4"/>
		</g>
	</g>
	<g>
		<g>
			<g>
				
					<rect x="774.8" y="115.9" transform="matrix(-0.9988 -4.797658e-02 4.797658e-02 -0.9988 1548.7998 275.4064)" fill="none" width="5.9" height="6.3"/>
				<g>
					<polygon fill="#231F20" points="774.6,122.1 777.9,119.1 774.9,115.8 777.6,115.9 780.6,119.3 777.3,122.3 					"/>
				</g>
			</g>
		</g>
		<g>
			<line fill="none" stroke="#231F20" stroke-width="2" stroke-miterlimit="10" x1="777.7" y1="119.1" x2="774.7" y2="119"/>
			
				<line fill="none" stroke="#231F20" stroke-width="2" stroke-miterlimit="10" stroke-dasharray="5.1029,5.1029" x1="769.6" y1="118.7" x2="741.6" y2="117.4"/>
			<line fill="none" stroke="#231F20" stroke-width="2" stroke-miterlimit="10" x1="739" y1="117.3" x2="736" y2="117.1"/>
		</g>
	</g>
	<g>
		<g>
			<g>
				
					<rect x="774.8" y="179.1" transform="matrix(-0.6981 -0.716 0.716 -0.6981 1190.1062 866.3681)" fill="none" width="5.9" height="6.3"/>
				<g>
					<polygon fill="#231F20" points="773.4,182.4 777.9,182.5 777.9,178 779.8,179.9 779.8,184.4 775.3,184.3 					"/>
				</g>
			</g>
		</g>
		<g>
			<line fill="none" stroke="#231F20" stroke-width="2" stroke-miterlimit="10" x1="777.7" y1="182.3" x2="775.6" y2="180.1"/>
			
				<line fill="none" stroke="#231F20" stroke-width="2" stroke-miterlimit="10" stroke-dasharray="5.9661,5.9661" x1="771.4" y1="175.9" x2="740.2" y2="143.8"/>
			<line fill="none" stroke="#231F20" stroke-width="2" stroke-miterlimit="10" x1="738.1" y1="141.7" x2="736" y2="139.5"/>
		</g>
	</g>
</g>
</svg>
