<?xml version="1.0" encoding="utf-8"?>
<!-- Generator: Adobe Illustrator 16.0.0, SVG Export Plug-In . SVG Version: 6.00 Build 0)  -->
<!DOCTYPE svg PUBLIC "-//W3C//DTD SVG 1.1//EN" "http://www.w3.org/Graphics/SVG/1.1/DTD/svg11.dtd">
<svg version="1.1" id="Layer_1" xmlns="http://www.w3.org/2000/svg" xmlns:xlink="http://www.w3.org/1999/xlink" x="0px" y="0px"
	 width="360px" height="325px" viewBox="0 0 360 325" enable-background="new 0 0 360 325" xml:space="preserve">
<g>
	<g>
		<path fill="none" stroke="#231F20" stroke-width="2" stroke-miterlimit="10" d="M157.786,222.748c0-0.805-0.781-1.457-1.759-1.492
			c-0.603-6.279-4.956-11.15-10.239-11.15c-5.285,0-9.639,4.876-10.239,11.158c-0.054-0.004-0.105-0.014-0.16-0.014
			c-1.015,0-1.838,0.671-1.838,1.498c0,0.828,0.823,1.499,1.838,1.499c0.055,0,0.106-0.009,0.16-0.014
			c0.601,6.282,4.954,11.159,10.239,11.159c5.283,0,9.637-4.873,10.239-11.151C157.005,224.206,157.786,223.554,157.786,222.748z"/>
		<path fill="none" stroke="#231F20" stroke-width="2" stroke-miterlimit="10" d="M145.788,210.105
			c-1.433,0-2.793,0.367-4.031,1.016c-0.022,0.012-0.044,0.023-0.066,0.035c-0.107,0.059-0.217,0.114-0.322,0.176
			c0.001,0.004,0.002,0.008,0.004,0.012c-3.059,1.783-5.287,5.35-5.782,9.613c3.104-0.627,4.273-2.678,5.785-5.895
			c1.875,3.128,6.351,4.885,9.76,4.885c1.583,0,3.08-0.445,4.421-1.229C154.183,213.715,150.333,210.105,145.788,210.105z"/>
	</g>
	<g>
		<path fill="none" stroke="#231F20" stroke-width="2" stroke-miterlimit="10" d="M238.588,232.412c0-0.805-0.781-1.457-1.759-1.492
			c-0.603-6.279-4.955-11.151-10.238-11.151c-5.285,0-9.64,4.876-10.24,11.158c-0.054-0.003-0.105-0.014-0.16-0.014
			c-1.015,0-1.837,0.672-1.837,1.499c0,0.828,0.822,1.499,1.837,1.499c0.055,0,0.106-0.01,0.16-0.014
			c0.601,6.282,4.955,11.158,10.24,11.158c5.283,0,9.636-4.872,10.238-11.15C237.807,233.87,238.588,233.218,238.588,232.412z"/>
		<path fill="none" stroke="#231F20" stroke-width="2" stroke-miterlimit="10" d="M226.591,219.769
			c-1.433,0-2.793,0.368-4.032,1.017c-0.022,0.012-0.044,0.023-0.065,0.035c-0.108,0.058-0.217,0.114-0.323,0.176
			c0.002,0.004,0.003,0.007,0.004,0.011c-3.058,1.783-5.286,5.35-5.782,9.613c3.104-0.626,4.274-2.677,5.786-5.894
			c1.874,3.128,6.351,4.884,9.759,4.884c1.584,0,3.081-0.445,4.421-1.228C234.985,223.378,231.136,219.769,226.591,219.769z"/>
	</g>
	<g>
		<path fill="none" stroke="#231F20" stroke-width="2" stroke-miterlimit="10" d="M211.251,257.204c0-0.806-0.78-1.458-1.758-1.492
			c-0.603-6.279-4.956-11.151-10.239-11.151c-5.285,0-9.639,4.877-10.239,11.158c-0.055-0.004-0.105-0.014-0.16-0.014
			c-1.016,0-1.838,0.672-1.838,1.499s0.822,1.499,1.838,1.499c0.055,0,0.105-0.01,0.16-0.014
			c0.601,6.282,4.954,11.158,10.239,11.158c5.283,0,9.637-4.873,10.239-11.15C210.471,258.662,211.251,258.01,211.251,257.204z"/>
		<line fill="none" stroke="#231F20" stroke-width="2" stroke-miterlimit="10" x1="190.5" y1="252.5" x2="209.5" y2="252.5"/>
		<polyline fill="none" stroke="#231F20" stroke-width="2" stroke-miterlimit="10" points="189.5,259.5 189.5,270.5 209.5,270.5 
			209.5,258.5 		"/>
	</g>
	<g>
		<path fill="none" stroke="#231F20" stroke-width="2" stroke-miterlimit="10" d="M171.473,262.94
			c-0.008-0.086,0.126-11.44,0.126-11.44h-20.793c0,0,0.197,11.359,0.188,11.447c-0.054-0.004-0.105-0.063-0.159-0.063
			c-1.016,0-1.838,0.646-1.838,1.474c0,0.828,0.822,1.486,1.838,1.486c0.054,0,0.105-0.016,0.159-0.02
			c0.601,6.283,4.954,11.155,10.239,11.155c5.284,0,9.637-4.874,10.239-11.152c0.978-0.035,1.759-0.638,1.759-1.443
			S172.45,262.975,171.473,262.94z"/>
		<polygon fill="none" stroke="#231F20" stroke-width="2" stroke-miterlimit="10" points="150.806,251.5 150.994,262.947 
			153.183,263.679 154.519,255.5 167.886,255.5 169.333,263.629 171.473,263.1 171.599,251.5 		"/>
	</g>
	<g>
		<path fill="none" stroke="#231F20" stroke-width="2" stroke-miterlimit="10" d="M246.473,268.94
			c-0.008-0.086,0.126-11.44,0.126-11.44h-20.793c0,0,0.197,11.359,0.188,11.447c-0.054-0.004-0.105-0.063-0.159-0.063
			c-1.016,0-1.838,0.646-1.838,1.474c0,0.828,0.822,1.486,1.838,1.486c0.054,0,0.105-0.016,0.159-0.02
			c0.601,6.283,4.954,11.155,10.239,11.155c5.284,0,9.637-4.874,10.239-11.152c0.978-0.035,1.759-0.638,1.759-1.443
			S247.45,268.975,246.473,268.94z"/>
		<polygon fill="none" stroke="#231F20" stroke-width="2" stroke-miterlimit="10" points="225.806,257.5 225.994,268.947 
			228.183,269.679 229.519,261.5 242.886,261.5 244.333,269.629 246.473,269.1 246.599,257.5 		"/>
	</g>
	<g>
		<path fill="none" stroke="#231F20" stroke-width="2" stroke-miterlimit="10" d="M136.003,262.571c0-0.806-0.78-1.458-1.758-1.493
			c-0.603-6.278-4.955-11.15-10.239-11.15c-5.285,0-9.639,4.876-10.239,11.157c-0.055-0.003-0.105-0.013-0.16-0.013
			c-1.015,0-1.838,0.671-1.838,1.499c0,0.827,0.823,1.498,1.838,1.498c0.055,0,0.105-0.01,0.16-0.014
			c0.601,6.283,4.954,11.159,10.239,11.159c5.284,0,9.637-4.873,10.239-11.151C135.223,264.028,136.003,263.376,136.003,262.571z"/>
		<path fill="none" stroke="#231F20" stroke-width="2" stroke-miterlimit="10" d="M124.128,249.935
			c-0.041-0.001-0.08-0.007-0.122-0.007c-5.246,0-9.571,4.807-10.222,11.022c0.041,0,0.082,0.007,0.123,0.007
			C119.153,260.957,123.479,256.15,124.128,249.935z"/>
		<path fill="none" stroke="#231F20" stroke-width="2" stroke-miterlimit="10" d="M124.48,249.955
			c0.638,6.017,4.721,10.693,9.744,10.975C133.589,254.913,129.505,250.235,124.48,249.955z"/>
		<polyline fill="none" stroke="#231F20" stroke-width="2" stroke-miterlimit="10" points="113.5,264.5 113.5,279.5 117.5,279.5 
			117.5,273.5 		"/>
		<polyline fill="none" stroke="#231F20" stroke-width="2" stroke-miterlimit="10" points="134.5,264.5 134.5,279.5 130.5,279.5 
			130.5,273.5 		"/>
	</g>
	<g>
		<path fill="none" stroke="#231F20" stroke-width="2" stroke-miterlimit="10" d="M199.37,215.62c0-0.806-0.781-1.458-1.759-1.493
			c-0.602-6.278-4.955-11.15-10.238-11.15c-5.285,0-9.64,4.876-10.239,11.158c-0.055-0.004-0.106-0.014-0.16-0.014
			c-1.016,0-1.838,0.671-1.838,1.499c0,0.827,0.822,1.498,1.838,1.498c0.054,0,0.105-0.009,0.16-0.013
			c0.6,6.282,4.954,11.158,10.239,11.158c5.283,0,9.637-4.873,10.238-11.151C198.589,217.078,199.37,216.426,199.37,215.62z"/>
		<path fill="none" stroke="#231F20" stroke-width="2" stroke-miterlimit="10" d="M187.495,202.983
			c-0.041-0.001-0.081-0.007-0.122-0.007c-5.247,0-9.571,4.807-10.222,11.022c0.041,0.001,0.081,0.007,0.122,0.007
			C182.521,214.006,186.846,209.199,187.495,202.983z"/>
		<path fill="none" stroke="#231F20" stroke-width="2" stroke-miterlimit="10" d="M187.847,203.004
			c0.638,6.017,4.721,10.693,9.744,10.975C196.955,207.962,192.872,203.285,187.847,203.004z"/>
		<polyline fill="none" stroke="#231F20" stroke-width="2" stroke-miterlimit="10" points="177.5,217.5 177.5,232.5 181.5,232.5 
			181.5,226.5 		"/>
		<polyline fill="none" stroke="#231F20" stroke-width="2" stroke-miterlimit="10" points="197.5,217.5 197.5,232.5 193.5,232.5 
			193.5,226.5 		"/>
	</g>
</g>
<g>
	<polyline fill="none" stroke="#231F20" stroke-width="4" stroke-miterlimit="10" points="180.5,19.5 180.5,157.895 68.465,239.771 
			"/>
	
		<line fill="none" stroke="#231F20" stroke-width="4" stroke-miterlimit="10" x1="291.358" y1="240.364" x2="180.219" y2="157.895"/>
</g>
<g>
	<g>
		<path fill="none" stroke="#231F20" stroke-width="2" stroke-miterlimit="10" d="M91.969,56.749c0-0.805-0.781-1.458-1.758-1.492
			c-0.604-6.279-4.956-11.151-10.24-11.151c-5.285,0-9.639,4.876-10.238,11.158c-0.055-0.003-0.105-0.014-0.16-0.014
			c-1.016,0-1.838,0.671-1.838,1.499s0.822,1.499,1.838,1.499c0.055,0,0.105-0.009,0.16-0.014c0.6,6.283,4.953,11.159,10.238,11.159
			c5.284,0,9.637-4.873,10.24-11.151C91.188,58.206,91.969,57.554,91.969,56.749z"/>
		<path fill="none" stroke="#231F20" stroke-width="2" stroke-miterlimit="10" d="M79.971,44.105c-1.432,0-2.792,0.368-4.031,1.016
			c-0.021,0.012-0.043,0.024-0.066,0.036c-0.107,0.058-0.216,0.114-0.322,0.175c0.002,0.004,0.003,0.007,0.004,0.011
			c-3.059,1.783-5.287,5.35-5.781,9.613c3.104-0.626,4.273-2.677,5.785-5.894c1.875,3.128,6.351,4.884,9.76,4.884
			c1.583,0,3.08-0.445,4.42-1.228C88.365,47.714,84.517,44.105,79.971,44.105z"/>
	</g>
	<g>
		<path fill="none" stroke="#231F20" stroke-width="2" stroke-miterlimit="10" d="M131.771,130.412c0-0.805-0.781-1.457-1.76-1.492
			c-0.602-6.279-4.955-11.151-10.238-11.151c-5.285,0-9.639,4.876-10.239,11.158c-0.054-0.003-0.106-0.014-0.16-0.014
			c-1.015,0-1.837,0.672-1.837,1.499c0,0.828,0.822,1.499,1.837,1.499c0.054,0,0.106-0.01,0.16-0.014
			c0.601,6.282,4.954,11.158,10.239,11.158c5.283,0,9.637-4.872,10.238-11.15C130.99,131.87,131.771,131.218,131.771,130.412z"/>
		<path fill="none" stroke="#231F20" stroke-width="2" stroke-miterlimit="10" d="M119.773,117.769
			c-1.432,0-2.793,0.368-4.031,1.017c-0.023,0.012-0.045,0.023-0.066,0.035c-0.107,0.058-0.217,0.114-0.322,0.176
			c0.002,0.004,0.002,0.007,0.004,0.011c-3.059,1.783-5.287,5.35-5.782,9.613c3.104-0.626,4.274-2.677,5.786-5.894
			c1.873,3.128,6.35,4.884,9.758,4.884c1.584,0,3.082-0.445,4.422-1.228C128.168,121.378,124.318,117.769,119.773,117.769z"/>
	</g>
	<g>
		<path fill="none" stroke="#231F20" stroke-width="2" stroke-miterlimit="10" d="M68.801,90.016c0-0.805-0.781-1.458-1.76-1.492
			c-0.602-6.279-4.955-11.151-10.238-11.151c-5.285,0-9.639,4.876-10.239,11.158c-0.054-0.003-0.105-0.013-0.16-0.013
			c-1.015,0-1.837,0.671-1.837,1.499s0.822,1.499,1.837,1.499c0.055,0,0.106-0.009,0.16-0.014
			c0.601,6.282,4.954,11.159,10.239,11.159c5.283,0,9.637-4.873,10.238-11.151C68.02,91.474,68.801,90.821,68.801,90.016z"/>
		<line fill="none" stroke="#231F20" stroke-width="2" stroke-miterlimit="10" x1="47.5" y1="85.5" x2="66.5" y2="85.5"/>
		<polyline fill="none" stroke="#231F20" stroke-width="2" stroke-miterlimit="10" points="46.5,92.5 46.5,103.5 67.5,103.5 
			67.5,91.5 		"/>
	</g>
	<g>
		<path fill="none" stroke="#231F20" stroke-width="2" stroke-miterlimit="10" d="M145.434,91.204c0-0.805-0.779-1.458-1.758-1.492
			c-0.602-6.279-4.955-11.151-10.238-11.151c-5.285,0-9.639,4.876-10.24,11.158c-0.055-0.003-0.105-0.014-0.16-0.014
			c-1.016,0-1.838,0.671-1.838,1.499c0,0.827,0.822,1.499,1.838,1.499c0.055,0,0.105-0.01,0.16-0.014
			c0.602,6.282,4.955,11.158,10.24,11.158c5.283,0,9.637-4.873,10.238-11.15C144.654,92.662,145.434,92.01,145.434,91.204z"/>
		<line fill="none" stroke="#231F20" stroke-width="2" stroke-miterlimit="10" x1="124.5" y1="86.5" x2="143.5" y2="86.5"/>
		<polyline fill="none" stroke="#231F20" stroke-width="2" stroke-miterlimit="10" points="123.5,93.5 123.5,104.5 143.5,104.5 
			143.5,92.5 		"/>
	</g>
	<g>
		<path fill="none" stroke="#231F20" stroke-width="2" stroke-miterlimit="10" d="M105.656,96.94
			c-0.008-0.086,0.125-11.44,0.125-11.44H84.988c0,0,0.197,11.359,0.189,11.447c-0.055-0.004-0.105-0.063-0.16-0.063
			c-1.016,0-1.838,0.646-1.838,1.474c0,0.828,0.822,1.486,1.838,1.486c0.055,0,0.105-0.016,0.16-0.02
			c0.6,6.283,4.954,11.155,10.239,11.155c5.284,0,9.636-4.874,10.239-11.152c0.977-0.035,1.758-0.638,1.758-1.443
			S106.633,96.975,105.656,96.94z"/>
		<polygon fill="none" stroke="#231F20" stroke-width="2" stroke-miterlimit="10" points="84.988,85.5 85.178,96.947 87.365,97.679 
			88.701,89.5 102.068,89.5 103.516,97.629 105.656,97.1 105.781,85.5 		"/>
	</g>
	<g>
		<path fill="none" stroke="#231F20" stroke-width="2" stroke-miterlimit="10" d="M90.187,134.571c0-0.806-0.78-1.458-1.759-1.493
			c-0.602-6.278-4.955-11.15-10.238-11.15c-5.285,0-9.639,4.876-10.24,11.157c-0.054-0.003-0.105-0.013-0.16-0.013
			c-1.014,0-1.837,0.671-1.837,1.499c0,0.827,0.823,1.498,1.837,1.498c0.055,0,0.106-0.01,0.16-0.014
			c0.602,6.283,4.955,11.159,10.24,11.159c5.283,0,9.637-4.873,10.238-11.151C89.406,136.028,90.187,135.376,90.187,134.571z"/>
		<path fill="none" stroke="#231F20" stroke-width="2" stroke-miterlimit="10" d="M78.312,121.935
			c-0.041-0.001-0.081-0.007-0.122-0.007c-5.246,0-9.571,4.807-10.222,11.022c0.041,0,0.081,0.007,0.122,0.007
			C73.337,132.957,77.662,128.15,78.312,121.935z"/>
		<path fill="none" stroke="#231F20" stroke-width="2" stroke-miterlimit="10" d="M78.664,121.955
			c0.637,6.017,4.721,10.693,9.744,10.975C87.771,126.913,83.688,122.235,78.664,121.955z"/>
		<polyline fill="none" stroke="#231F20" stroke-width="2" stroke-miterlimit="10" points="67.5,136.5 67.5,151.5 71.5,151.5 
			71.5,145.5 		"/>
		<polyline fill="none" stroke="#231F20" stroke-width="2" stroke-miterlimit="10" points="88.5,136.5 88.5,151.5 84.5,151.5 
			84.5,145.5 		"/>
	</g>
	<g>
		<path fill="none" stroke="#231F20" stroke-width="2" stroke-miterlimit="10" d="M133.553,49.62c0-0.805-0.781-1.458-1.758-1.493
			c-0.602-6.279-4.955-11.151-10.238-11.151c-5.285,0-9.641,4.876-10.24,11.158c-0.055-0.003-0.105-0.013-0.16-0.013
			c-1.015,0-1.838,0.671-1.838,1.499c0,0.827,0.823,1.498,1.838,1.498c0.055,0,0.105-0.009,0.16-0.013
			c0.6,6.283,4.955,11.159,10.24,11.159c5.283,0,9.637-4.873,10.238-11.151C132.771,51.078,133.553,50.425,133.553,49.62z"/>
		<path fill="none" stroke="#231F20" stroke-width="2" stroke-miterlimit="10" d="M121.678,36.983c-0.041,0-0.08-0.007-0.121-0.007
			c-5.248,0-9.572,4.807-10.223,11.022c0.041,0,0.082,0.007,0.123,0.007C116.703,48.006,121.029,43.199,121.678,36.983z"/>
		<path fill="none" stroke="#231F20" stroke-width="2" stroke-miterlimit="10" d="M122.029,37.004
			c0.639,6.017,4.721,10.694,9.744,10.975C131.139,41.962,127.055,37.285,122.029,37.004z"/>
		<polyline fill="none" stroke="#231F20" stroke-width="2" stroke-miterlimit="10" points="111.5,51.5 111.5,66.5 115.5,66.5 
			115.5,60.5 		"/>
		<polyline fill="none" stroke="#231F20" stroke-width="2" stroke-miterlimit="10" points="131.5,51.5 131.5,66.5 127.5,66.5 
			127.5,60.5 		"/>
	</g>
</g>
<text transform="matrix(1 0 0 1 68.2241 176.3486)" fill="#EC008C" font-family="'ChambersSansOT-BoldItalic'" font-size="9.4716">population 1</text>
<g>
	<g>
		<g>
			<path fill="none" stroke="#231F20" stroke-width="2" stroke-miterlimit="10" d="M258.979,50.749c0-0.805-0.781-1.458-1.758-1.492
				c-0.604-6.279-4.957-11.151-10.24-11.151c-5.285,0-9.639,4.876-10.238,11.158c-0.055-0.003-0.105-0.014-0.16-0.014
				c-1.016,0-1.838,0.671-1.838,1.499s0.822,1.499,1.838,1.499c0.055,0,0.105-0.009,0.16-0.014
				c0.6,6.283,4.953,11.159,10.238,11.159c5.283,0,9.637-4.873,10.24-11.151C258.197,52.206,258.979,51.554,258.979,50.749z"/>
			<path fill="none" stroke="#231F20" stroke-width="2" stroke-miterlimit="10" d="M246.98,38.105c-1.432,0-2.793,0.368-4.031,1.016
				c-0.021,0.012-0.043,0.024-0.066,0.036c-0.107,0.058-0.217,0.114-0.322,0.175c0.002,0.004,0.002,0.007,0.004,0.011
				c-3.059,1.783-5.287,5.35-5.781,9.613c3.104-0.626,4.273-2.677,5.785-5.894c1.875,3.128,6.35,4.884,9.76,4.884
				c1.582,0,3.08-0.445,4.42-1.228C255.375,41.714,251.525,38.105,246.98,38.105z"/>
		</g>
		<g>
			<path fill="none" stroke="#231F20" stroke-width="2" stroke-miterlimit="10" d="M331.781,76.412c0-0.805-0.781-1.457-1.76-1.492
				c-0.602-6.279-4.955-11.151-10.238-11.151c-5.285,0-9.639,4.876-10.24,11.158c-0.053-0.003-0.105-0.014-0.16-0.014
				c-1.014,0-1.836,0.672-1.836,1.499c0,0.828,0.822,1.499,1.836,1.499c0.055,0,0.107-0.01,0.16-0.014
				c0.602,6.282,4.955,11.158,10.24,11.158c5.283,0,9.637-4.872,10.238-11.15C331,77.87,331.781,77.218,331.781,76.412z"/>
			<path fill="none" stroke="#231F20" stroke-width="2" stroke-miterlimit="10" d="M319.783,63.769
				c-1.432,0-2.793,0.368-4.031,1.017c-0.023,0.012-0.045,0.023-0.066,0.035c-0.107,0.058-0.217,0.114-0.322,0.176
				c0.002,0.004,0.002,0.007,0.004,0.011c-3.059,1.783-5.287,5.35-5.783,9.613c3.105-0.626,4.275-2.677,5.787-5.894
				c1.873,3.128,6.35,4.884,9.758,4.884c1.584,0,3.082-0.445,4.422-1.228C328.178,67.378,324.328,63.769,319.783,63.769z"/>
		</g>
		<g>
			<path fill="none" stroke="#231F20" stroke-width="2" stroke-miterlimit="10" d="M270.781,134.412c0-0.805-0.781-1.457-1.76-1.492
				c-0.602-6.279-4.955-11.151-10.238-11.151c-5.285,0-9.639,4.876-10.24,11.158c-0.053-0.003-0.105-0.014-0.16-0.014
				c-1.014,0-1.836,0.672-1.836,1.499c0,0.828,0.822,1.499,1.836,1.499c0.055,0,0.107-0.01,0.16-0.014
				c0.602,6.282,4.955,11.158,10.24,11.158c5.283,0,9.637-4.872,10.238-11.15C270,135.87,270.781,135.218,270.781,134.412z"/>
			<path fill="none" stroke="#231F20" stroke-width="2" stroke-miterlimit="10" d="M258.783,121.769
				c-1.432,0-2.793,0.368-4.031,1.017c-0.023,0.012-0.045,0.023-0.066,0.035c-0.107,0.058-0.217,0.114-0.322,0.176
				c0.002,0.004,0.002,0.007,0.004,0.011c-3.059,1.783-5.287,5.35-5.783,9.613c3.105-0.626,4.275-2.677,5.787-5.894
				c1.873,3.128,6.35,4.884,9.758,4.884c1.584,0,3.082-0.445,4.422-1.228C267.178,125.378,263.328,121.769,258.783,121.769z"/>
		</g>
		<g>
			<path fill="none" stroke="#231F20" stroke-width="2" stroke-miterlimit="10" d="M232.811,84.016c0-0.805-0.781-1.458-1.76-1.492
				c-0.602-6.279-4.955-11.151-10.238-11.151c-5.285,0-9.639,4.876-10.24,11.158c-0.053-0.003-0.105-0.013-0.16-0.013
				c-1.014,0-1.836,0.671-1.836,1.499s0.822,1.499,1.836,1.499c0.055,0,0.107-0.009,0.16-0.014
				c0.602,6.283,4.955,11.159,10.24,11.159c5.283,0,9.637-4.873,10.238-11.151C232.029,85.474,232.811,84.821,232.811,84.016z"/>
			<line fill="none" stroke="#231F20" stroke-width="2" stroke-miterlimit="10" x1="211.5" y1="79.5" x2="230.5" y2="79.5"/>
			<polyline fill="none" stroke="#231F20" stroke-width="2" stroke-miterlimit="10" points="210.5,86.5 210.5,97.5 231.5,97.5 
				231.5,85.5 			"/>
		</g>
		<g>
			<path fill="none" stroke="#231F20" stroke-width="2" stroke-miterlimit="10" d="M309.443,145.204
				c0-0.806-0.779-1.458-1.758-1.492c-0.602-6.279-4.955-11.151-10.238-11.151c-5.285,0-9.639,4.877-10.24,11.158
				c-0.055-0.004-0.105-0.014-0.16-0.014c-1.016,0-1.838,0.672-1.838,1.499s0.822,1.499,1.838,1.499c0.055,0,0.105-0.01,0.16-0.014
				c0.602,6.282,4.955,11.158,10.24,11.158c5.283,0,9.637-4.873,10.238-11.15C308.664,146.662,309.443,146.01,309.443,145.204z"/>
			<line fill="none" stroke="#231F20" stroke-width="2" stroke-miterlimit="10" x1="288.5" y1="140.5" x2="307.5" y2="140.5"/>
			<polyline fill="none" stroke="#231F20" stroke-width="2" stroke-miterlimit="10" points="287.5,147.5 287.5,158.5 307.5,158.5 
				307.5,146.5 			"/>
		</g>
		<g>
			<path fill="none" stroke="#231F20" stroke-width="2" stroke-miterlimit="10" d="M269.666,90.94
				c-0.008-0.086,0.125-11.44,0.125-11.44h-20.793c0,0,0.197,11.359,0.189,11.447c-0.055-0.003-0.105-0.063-0.16-0.063
				c-1.016,0-1.838,0.646-1.838,1.474c0,0.827,0.822,1.486,1.838,1.486c0.055,0,0.105-0.015,0.16-0.02
				c0.6,6.283,4.953,11.155,10.238,11.155s9.637-4.874,10.24-11.152c0.977-0.035,1.758-0.638,1.758-1.443
				S270.643,90.975,269.666,90.94z"/>
			<polygon fill="none" stroke="#231F20" stroke-width="2" stroke-miterlimit="10" points="248.998,79.5 249.188,90.947 
				251.375,91.679 252.711,83.5 266.078,83.5 267.525,91.629 269.666,91.099 269.791,79.5 			"/>
		</g>
		<g>
			<path fill="none" stroke="#231F20" stroke-width="2" stroke-miterlimit="10" d="M339.666,118.94
				c-0.008-0.086,0.125-11.44,0.125-11.44h-20.793c0,0,0.197,11.359,0.189,11.447c-0.055-0.004-0.105-0.063-0.16-0.063
				c-1.016,0-1.838,0.646-1.838,1.474c0,0.828,0.822,1.486,1.838,1.486c0.055,0,0.105-0.016,0.16-0.02
				c0.6,6.283,4.953,11.155,10.238,11.155s9.637-4.874,10.24-11.152c0.977-0.035,1.758-0.638,1.758-1.443
				S340.643,118.975,339.666,118.94z"/>
			<polygon fill="none" stroke="#231F20" stroke-width="2" stroke-miterlimit="10" points="318.998,107.5 319.188,118.947 
				321.375,119.679 322.711,111.5 336.078,111.5 337.525,119.629 339.666,119.1 339.791,107.5 			"/>
		</g>
		<g>
			<path fill="none" stroke="#231F20" stroke-width="2" stroke-miterlimit="10" d="M233.195,122.571
				c0-0.806-0.779-1.458-1.758-1.493c-0.602-6.278-4.955-11.15-10.238-11.15c-5.285,0-9.639,4.876-10.24,11.157
				c-0.055-0.003-0.105-0.013-0.16-0.013c-1.014,0-1.838,0.671-1.838,1.499c0,0.827,0.824,1.498,1.838,1.498
				c0.055,0,0.105-0.01,0.16-0.014c0.602,6.283,4.955,11.159,10.24,11.159c5.283,0,9.637-4.873,10.238-11.151
				C232.416,124.028,233.195,123.376,233.195,122.571z"/>
			<path fill="none" stroke="#231F20" stroke-width="2" stroke-miterlimit="10" d="M221.32,109.935
				c-0.041-0.001-0.08-0.007-0.121-0.007c-5.246,0-9.572,4.807-10.223,11.022c0.041,0,0.082,0.007,0.123,0.007
				C216.346,120.957,220.672,116.15,221.32,109.935z"/>
			<path fill="none" stroke="#231F20" stroke-width="2" stroke-miterlimit="10" d="M221.674,109.955
				c0.637,6.017,4.721,10.693,9.744,10.975C230.781,114.913,226.697,110.235,221.674,109.955z"/>
			<polyline fill="none" stroke="#231F20" stroke-width="2" stroke-miterlimit="10" points="210.5,124.5 210.5,139.5 214.5,139.5 
				214.5,133.5 			"/>
			<polyline fill="none" stroke="#231F20" stroke-width="2" stroke-miterlimit="10" points="231.5,124.5 231.5,139.5 227.5,139.5 
				227.5,133.5 			"/>
		</g>
		<g>
			<path fill="none" stroke="#231F20" stroke-width="2" stroke-miterlimit="10" d="M307.195,100.571
				c0-0.806-0.779-1.458-1.758-1.493c-0.602-6.278-4.955-11.15-10.238-11.15c-5.285,0-9.639,4.876-10.24,11.157
				c-0.055-0.003-0.105-0.013-0.16-0.013c-1.014,0-1.838,0.671-1.838,1.499c0,0.827,0.824,1.498,1.838,1.498
				c0.055,0,0.105-0.01,0.16-0.014c0.602,6.283,4.955,11.159,10.24,11.159c5.283,0,9.637-4.873,10.238-11.151
				C306.416,102.028,307.195,101.376,307.195,100.571z"/>
			<path fill="none" stroke="#231F20" stroke-width="2" stroke-miterlimit="10" d="M295.32,87.935
				c-0.041-0.001-0.08-0.007-0.121-0.007c-5.246,0-9.572,4.807-10.223,11.022c0.041,0,0.082,0.007,0.123,0.007
				C290.346,98.957,294.672,94.15,295.32,87.935z"/>
			<path fill="none" stroke="#231F20" stroke-width="2" stroke-miterlimit="10" d="M295.674,87.955
				c0.637,6.017,4.721,10.693,9.744,10.975C304.781,92.913,300.697,88.235,295.674,87.955z"/>
			<polyline fill="none" stroke="#231F20" stroke-width="2" stroke-miterlimit="10" points="284.5,102.5 284.5,117.5 288.5,117.5 
				288.5,111.5 			"/>
			<polyline fill="none" stroke="#231F20" stroke-width="2" stroke-miterlimit="10" points="305.5,102.5 305.5,117.5 301.5,117.5 
				301.5,111.5 			"/>
		</g>
		<g>
			<path fill="none" stroke="#231F20" stroke-width="2" stroke-miterlimit="10" d="M297.562,48.62c0-0.805-0.781-1.458-1.758-1.493
				c-0.602-6.279-4.955-11.151-10.238-11.151c-5.285,0-9.641,4.876-10.24,11.158c-0.055-0.003-0.105-0.013-0.16-0.013
				c-1.016,0-1.838,0.671-1.838,1.499c0,0.827,0.822,1.498,1.838,1.498c0.055,0,0.105-0.009,0.16-0.013
				c0.6,6.283,4.955,11.159,10.24,11.159c5.283,0,9.637-4.873,10.238-11.151C296.781,50.078,297.562,49.425,297.562,48.62z"/>
			<path fill="none" stroke="#231F20" stroke-width="2" stroke-miterlimit="10" d="M285.688,35.983c-0.041,0-0.08-0.007-0.121-0.007
				c-5.248,0-9.572,4.807-10.223,11.022c0.041,0,0.082,0.007,0.123,0.007C280.713,47.006,285.039,42.199,285.688,35.983z"/>
			<path fill="none" stroke="#231F20" stroke-width="2" stroke-miterlimit="10" d="M286.039,36.004
				c0.639,6.017,4.721,10.694,9.744,10.975C295.148,40.962,291.064,36.285,286.039,36.004z"/>
			<polyline fill="none" stroke="#231F20" stroke-width="2" stroke-miterlimit="10" points="275.5,50.5 275.5,65.5 279.5,65.5 
				279.5,59.5 			"/>
			<polyline fill="none" stroke="#231F20" stroke-width="2" stroke-miterlimit="10" points="295.5,50.5 295.5,65.5 291.5,65.5 
				291.5,59.5 			"/>
		</g>
	</g>
	
		<text transform="matrix(1 0 0 1 247.2305 185.3486)" fill="#EC008C" font-family="'ChambersSansOT-BoldItalic'" font-size="9.4716">population 2</text>
</g>
<text transform="matrix(1 0 0 1 152.4766 302.0469)" fill="#EC008C" font-family="'ChambersSansOT-BoldItalic'" font-size="9.4716">population 3</text>
</svg>
