<?xml version="1.0" encoding="utf-8"?>
<!-- Generator: Adobe Illustrator 18.0.0, SVG Export Plug-In . SVG Version: 6.00 Build 0)  -->
<!DOCTYPE svg PUBLIC "-//W3C//DTD SVG 1.1//EN" "http://www.w3.org/Graphics/SVG/1.1/DTD/svg11.dtd">
<svg version="1.1" id="Layer_1" xmlns="http://www.w3.org/2000/svg" xmlns:xlink="http://www.w3.org/1999/xlink" x="0px" y="0px"
	 viewBox="0 0 270 105" enable-background="new 0 0 270 105" xml:space="preserve">
<line fill="none" stroke="#010101" stroke-width="2" stroke-miterlimit="10" x1="168.3" y1="21.9" x2="204.2" y2="21.9"/>
<line fill="none" stroke="#010101" stroke-width="2" stroke-miterlimit="10" x1="40.6" y1="52.4" x2="93.8" y2="52.4"/>
<g>
	<g>
		<rect x="18.6" y="33.2" fill="#CF5AA1" width="7" height="46.6"/>
		<circle fill="#CF5AA1" cx="22.1" cy="80.7" r="7.2"/>
		<path fill="none" stroke="#010101" stroke-width="2" stroke-miterlimit="10" d="M25.6,73.8c0-0.1,0-0.2,0-0.4V23.2
			c0-1.9-1.6-3.5-3.5-3.5h0c-1.9,0-3.5,1.6-3.5,3.5v50.2c0,0.1,0,0.2,0,0.4c-2.3,1.2-3.9,3.7-3.9,6.5c0,4.1,3.3,7.4,7.4,7.4
			c4.1,0,7.4-3.3,7.4-7.4C29.5,77.5,27.9,75,25.6,73.8z"/>
	</g>
	<path fill="none" stroke="#010101" stroke-width="2" stroke-miterlimit="10" d="M35.5,95.5H8.8c-2.9,0-5.2-2.3-5.2-5.2V14.5
		c0-2.9,2.3-5.2,5.2-5.2h26.7c2.9,0,5.2,2.3,5.2,5.2v75.9C40.6,93.2,38.3,95.5,35.5,95.5z"/>
</g>
<g>
	<g>
		<g>
			<g>
				<line fill="#CF5AA1" stroke="#010101" stroke-width="2" stroke-miterlimit="10" x1="114.1" y1="7.2" x2="103.9" y2="7.2"/>
				<rect x="103.9" y="6.9" fill="#CF5AA1" stroke="#010101" stroke-width="2" stroke-miterlimit="10" width="10.2" height="10.2"/>
				<rect x="103.9" y="17" fill="#CF5AA1" stroke="#010101" stroke-width="2" stroke-miterlimit="10" width="10.2" height="10.2"/>
				<rect x="103.9" y="27" fill="#CF5AA1" stroke="#010101" stroke-width="2" stroke-miterlimit="10" width="10.2" height="10.2"/>
				<rect x="103.9" y="37" fill="#CF5AA1" stroke="#010101" stroke-width="2" stroke-miterlimit="10" width="10.2" height="10.2"/>
			</g>
			<g>
				
					<rect x="103.9" y="47.2" fill="#CF5AA1" stroke="#010101" stroke-width="2" stroke-miterlimit="10" width="10.2" height="10.2"/>
				
					<rect x="103.9" y="57.2" fill="#CF5AA1" stroke="#010101" stroke-width="2" stroke-miterlimit="10" width="10.2" height="10.2"/>
				
					<rect x="103.9" y="67.2" fill="#CF5AA1" stroke="#010101" stroke-width="2" stroke-miterlimit="10" width="10.2" height="10.2"/>
				
					<rect x="103.9" y="77.2" fill="#CF5AA1" stroke="#010101" stroke-width="2" stroke-miterlimit="10" width="10.2" height="10.2"/>
				
					<rect x="103.9" y="87.2" fill="#CF5AA1" stroke="#010101" stroke-width="2" stroke-miterlimit="10" width="10.2" height="10.2"/>
			</g>
		</g>
	</g>
	<g>
		<g>
			<g>
				<line fill="#FFFFFF" stroke="#010101" stroke-width="2" stroke-miterlimit="10" x1="104.1" y1="7.2" x2="93.8" y2="7.2"/>
				<rect x="93.8" y="6.9" fill="#FFFFFF" stroke="#010101" stroke-width="2" stroke-miterlimit="10" width="10.2" height="10.2"/>
				<rect x="93.8" y="17" fill="#FFFFFF" stroke="#010101" stroke-width="2" stroke-miterlimit="10" width="10.2" height="10.2"/>
				<rect x="93.8" y="27" fill="#FFFFFF" stroke="#010101" stroke-width="2" stroke-miterlimit="10" width="10.2" height="10.2"/>
				<rect x="93.8" y="37" fill="#FFFFFF" stroke="#010101" stroke-width="2" stroke-miterlimit="10" width="10.2" height="10.2"/>
			</g>
			<g>
				<rect x="93.8" y="47.2" fill="#FFFFFF" stroke="#010101" stroke-width="2" stroke-miterlimit="10" width="10.2" height="10.2"/>
				<rect x="93.8" y="57.2" fill="#FFFFFF" stroke="#010101" stroke-width="2" stroke-miterlimit="10" width="10.2" height="10.2"/>
				<rect x="93.8" y="67.2" fill="#CF5AA1" stroke="#010101" stroke-width="2" stroke-miterlimit="10" width="10.2" height="10.2"/>
				<rect x="93.8" y="77.2" fill="#CF5AA1" stroke="#010101" stroke-width="2" stroke-miterlimit="10" width="10.2" height="10.2"/>
				<rect x="93.8" y="87.2" fill="#CF5AA1" stroke="#010101" stroke-width="2" stroke-miterlimit="10" width="10.2" height="10.2"/>
			</g>
		</g>
	</g>
	<g>
		<g>
			<g>
				<line fill="#CF5AA1" stroke="#010101" stroke-width="2" stroke-miterlimit="10" x1="124.1" y1="7.2" x2="113.9" y2="7.2"/>
				<rect x="113.9" y="6.9" fill="#CF5AA1" stroke="#010101" stroke-width="2" stroke-miterlimit="10" width="10.2" height="10.2"/>
				<rect x="113.9" y="17" fill="#CF5AA1" stroke="#010101" stroke-width="2" stroke-miterlimit="10" width="10.2" height="10.2"/>
				<rect x="113.9" y="27" fill="#CF5AA1" stroke="#010101" stroke-width="2" stroke-miterlimit="10" width="10.2" height="10.2"/>
				<rect x="113.9" y="37" fill="#CF5AA1" stroke="#010101" stroke-width="2" stroke-miterlimit="10" width="10.2" height="10.2"/>
			</g>
			<g>
				
					<rect x="113.9" y="47.2" fill="#CF5AA1" stroke="#010101" stroke-width="2" stroke-miterlimit="10" width="10.2" height="10.2"/>
				
					<rect x="113.9" y="57.2" fill="#CF5AA1" stroke="#010101" stroke-width="2" stroke-miterlimit="10" width="10.2" height="10.2"/>
				
					<rect x="113.9" y="67.2" fill="#CF5AA1" stroke="#010101" stroke-width="2" stroke-miterlimit="10" width="10.2" height="10.2"/>
				
					<rect x="113.9" y="77.2" fill="#CF5AA1" stroke="#010101" stroke-width="2" stroke-miterlimit="10" width="10.2" height="10.2"/>
				
					<rect x="113.9" y="87.2" fill="#CF5AA1" stroke="#010101" stroke-width="2" stroke-miterlimit="10" width="10.2" height="10.2"/>
			</g>
		</g>
	</g>
	<g>
		<g>
			<g>
				<line fill="#CF5AA1" stroke="#010101" stroke-width="2" stroke-miterlimit="10" x1="134.1" y1="7.2" x2="123.9" y2="7.2"/>
				<rect x="123.9" y="6.9" fill="#CF5AA1" stroke="#010101" stroke-width="2" stroke-miterlimit="10" width="10.2" height="10.2"/>
				<rect x="123.9" y="17" fill="#CF5AA1" stroke="#010101" stroke-width="2" stroke-miterlimit="10" width="10.2" height="10.2"/>
				<rect x="123.9" y="27" fill="#CF5AA1" stroke="#010101" stroke-width="2" stroke-miterlimit="10" width="10.2" height="10.2"/>
				<rect x="123.9" y="37" fill="#CF5AA1" stroke="#010101" stroke-width="2" stroke-miterlimit="10" width="10.2" height="10.2"/>
			</g>
			<g>
				
					<rect x="123.9" y="47.2" fill="#CF5AA1" stroke="#010101" stroke-width="2" stroke-miterlimit="10" width="10.2" height="10.2"/>
				
					<rect x="123.9" y="57.2" fill="#CF5AA1" stroke="#010101" stroke-width="2" stroke-miterlimit="10" width="10.2" height="10.2"/>
				
					<rect x="123.9" y="67.2" fill="#CF5AA1" stroke="#010101" stroke-width="2" stroke-miterlimit="10" width="10.2" height="10.2"/>
				
					<rect x="123.9" y="77.2" fill="#CF5AA1" stroke="#010101" stroke-width="2" stroke-miterlimit="10" width="10.2" height="10.2"/>
				
					<rect x="123.9" y="87.2" fill="#CF5AA1" stroke="#010101" stroke-width="2" stroke-miterlimit="10" width="10.2" height="10.2"/>
			</g>
		</g>
	</g>
	<g>
		<g>
			<g>
				<line fill="#CF5AA1" stroke="#010101" stroke-width="2" stroke-miterlimit="10" x1="144.1" y1="7.2" x2="133.9" y2="7.2"/>
				<rect x="133.9" y="6.9" fill="#CF5AA1" stroke="#010101" stroke-width="2" stroke-miterlimit="10" width="10.2" height="10.2"/>
				<rect x="133.9" y="17" fill="#CF5AA1" stroke="#010101" stroke-width="2" stroke-miterlimit="10" width="10.2" height="10.2"/>
				<rect x="133.9" y="27" fill="#CF5AA1" stroke="#010101" stroke-width="2" stroke-miterlimit="10" width="10.2" height="10.2"/>
				<rect x="133.9" y="37" fill="#CF5AA1" stroke="#010101" stroke-width="2" stroke-miterlimit="10" width="10.2" height="10.2"/>
			</g>
			<g>
				
					<rect x="133.9" y="47.2" fill="#CF5AA1" stroke="#010101" stroke-width="2" stroke-miterlimit="10" width="10.2" height="10.2"/>
				
					<rect x="133.9" y="57.2" fill="#CF5AA1" stroke="#010101" stroke-width="2" stroke-miterlimit="10" width="10.2" height="10.2"/>
				
					<rect x="133.9" y="67.2" fill="#CF5AA1" stroke="#010101" stroke-width="2" stroke-miterlimit="10" width="10.2" height="10.2"/>
				
					<rect x="133.9" y="77.2" fill="#CF5AA1" stroke="#010101" stroke-width="2" stroke-miterlimit="10" width="10.2" height="10.2"/>
				
					<rect x="133.9" y="87.2" fill="#CF5AA1" stroke="#010101" stroke-width="2" stroke-miterlimit="10" width="10.2" height="10.2"/>
			</g>
		</g>
	</g>
	<g>
		<g>
			<g>
				<line fill="#CF5AA1" stroke="#010101" stroke-width="2" stroke-miterlimit="10" x1="154.1" y1="7.2" x2="143.9" y2="7.2"/>
				<rect x="143.9" y="6.9" fill="#CF5AA1" stroke="#010101" stroke-width="2" stroke-miterlimit="10" width="10.2" height="10.2"/>
				<rect x="143.9" y="17" fill="#CF5AA1" stroke="#010101" stroke-width="2" stroke-miterlimit="10" width="10.2" height="10.2"/>
				<rect x="143.9" y="27" fill="#CF5AA1" stroke="#010101" stroke-width="2" stroke-miterlimit="10" width="10.2" height="10.2"/>
				<rect x="143.9" y="37" fill="#CF5AA1" stroke="#010101" stroke-width="2" stroke-miterlimit="10" width="10.2" height="10.2"/>
			</g>
			<g>
				
					<rect x="143.9" y="47.2" fill="#CF5AA1" stroke="#010101" stroke-width="2" stroke-miterlimit="10" width="10.2" height="10.2"/>
				
					<rect x="143.9" y="57.2" fill="#CF5AA1" stroke="#010101" stroke-width="2" stroke-miterlimit="10" width="10.2" height="10.2"/>
				
					<rect x="143.9" y="67.2" fill="#CF5AA1" stroke="#010101" stroke-width="2" stroke-miterlimit="10" width="10.2" height="10.2"/>
				
					<rect x="143.9" y="77.2" fill="#CF5AA1" stroke="#010101" stroke-width="2" stroke-miterlimit="10" width="10.2" height="10.2"/>
				
					<rect x="143.9" y="87.2" fill="#CF5AA1" stroke="#010101" stroke-width="2" stroke-miterlimit="10" width="10.2" height="10.2"/>
			</g>
		</g>
	</g>
	<g>
		<g>
			<g>
				<line fill="#CF5AA1" stroke="#010101" stroke-width="2" stroke-miterlimit="10" x1="154.1" y1="7.2" x2="143.9" y2="7.2"/>
				<rect x="143.9" y="6.9" fill="#CF5AA1" stroke="#010101" stroke-width="2" stroke-miterlimit="10" width="10.2" height="10.2"/>
				<rect x="143.9" y="17" fill="#CF5AA1" stroke="#010101" stroke-width="2" stroke-miterlimit="10" width="10.2" height="10.2"/>
				<rect x="143.9" y="27" fill="#CF5AA1" stroke="#010101" stroke-width="2" stroke-miterlimit="10" width="10.2" height="10.2"/>
				<rect x="143.9" y="37" fill="#CF5AA1" stroke="#010101" stroke-width="2" stroke-miterlimit="10" width="10.2" height="10.2"/>
			</g>
			<g>
				
					<rect x="143.9" y="47.2" fill="#CF5AA1" stroke="#010101" stroke-width="2" stroke-miterlimit="10" width="10.2" height="10.2"/>
				
					<rect x="143.9" y="57.2" fill="#CF5AA1" stroke="#010101" stroke-width="2" stroke-miterlimit="10" width="10.2" height="10.2"/>
				
					<rect x="143.9" y="67.2" fill="#CF5AA1" stroke="#010101" stroke-width="2" stroke-miterlimit="10" width="10.2" height="10.2"/>
				
					<rect x="143.9" y="77.2" fill="#CF5AA1" stroke="#010101" stroke-width="2" stroke-miterlimit="10" width="10.2" height="10.2"/>
				
					<rect x="143.9" y="87.2" fill="#CF5AA1" stroke="#010101" stroke-width="2" stroke-miterlimit="10" width="10.2" height="10.2"/>
			</g>
		</g>
	</g>
	<g>
		<g>
			<g>
				<line fill="#CF5AA1" stroke="#010101" stroke-width="2" stroke-miterlimit="10" x1="164.1" y1="7.2" x2="153.9" y2="7.2"/>
				<rect x="153.9" y="6.9" fill="#CF5AA1" stroke="#010101" stroke-width="2" stroke-miterlimit="10" width="10.2" height="10.2"/>
				<rect x="153.9" y="17" fill="#CF5AA1" stroke="#010101" stroke-width="2" stroke-miterlimit="10" width="10.2" height="10.2"/>
				<rect x="153.9" y="27" fill="#CF5AA1" stroke="#010101" stroke-width="2" stroke-miterlimit="10" width="10.2" height="10.2"/>
				<rect x="153.9" y="37" fill="#CF5AA1" stroke="#010101" stroke-width="2" stroke-miterlimit="10" width="10.2" height="10.2"/>
			</g>
			<g>
				
					<rect x="153.9" y="47.2" fill="#CF5AA1" stroke="#010101" stroke-width="2" stroke-miterlimit="10" width="10.2" height="10.2"/>
				
					<rect x="153.9" y="57.2" fill="#CF5AA1" stroke="#010101" stroke-width="2" stroke-miterlimit="10" width="10.2" height="10.2"/>
				
					<rect x="153.9" y="67.2" fill="#CF5AA1" stroke="#010101" stroke-width="2" stroke-miterlimit="10" width="10.2" height="10.2"/>
				
					<rect x="153.9" y="77.2" fill="#CF5AA1" stroke="#010101" stroke-width="2" stroke-miterlimit="10" width="10.2" height="10.2"/>
				
					<rect x="153.9" y="87.2" fill="#CF5AA1" stroke="#010101" stroke-width="2" stroke-miterlimit="10" width="10.2" height="10.2"/>
			</g>
		</g>
	</g>
	<g>
		<g>
			<g>
				<line fill="#CF5AA1" stroke="#010101" stroke-width="2" stroke-miterlimit="10" x1="164.1" y1="7.2" x2="153.9" y2="7.2"/>
				<rect x="153.9" y="6.9" fill="#CF5AA1" stroke="#010101" stroke-width="2" stroke-miterlimit="10" width="10.2" height="10.2"/>
				<rect x="153.9" y="17" fill="#CF5AA1" stroke="#010101" stroke-width="2" stroke-miterlimit="10" width="10.2" height="10.2"/>
				<rect x="153.9" y="27" fill="#CF5AA1" stroke="#010101" stroke-width="2" stroke-miterlimit="10" width="10.2" height="10.2"/>
				<rect x="153.9" y="37" fill="#CF5AA1" stroke="#010101" stroke-width="2" stroke-miterlimit="10" width="10.2" height="10.2"/>
			</g>
			<g>
				
					<rect x="153.9" y="47.2" fill="#CF5AA1" stroke="#010101" stroke-width="2" stroke-miterlimit="10" width="10.2" height="10.2"/>
				
					<rect x="153.9" y="57.2" fill="#CF5AA1" stroke="#010101" stroke-width="2" stroke-miterlimit="10" width="10.2" height="10.2"/>
				
					<rect x="153.9" y="67.2" fill="#CF5AA1" stroke="#010101" stroke-width="2" stroke-miterlimit="10" width="10.2" height="10.2"/>
				
					<rect x="153.9" y="77.2" fill="#CF5AA1" stroke="#010101" stroke-width="2" stroke-miterlimit="10" width="10.2" height="10.2"/>
				
					<rect x="153.9" y="87.2" fill="#CF5AA1" stroke="#010101" stroke-width="2" stroke-miterlimit="10" width="10.2" height="10.2"/>
			</g>
		</g>
	</g>
	<g>
		<g>
			<g>
				<line fill="#CF5AA1" stroke="#010101" stroke-width="2" stroke-miterlimit="10" x1="164.1" y1="7.2" x2="153.9" y2="7.2"/>
				<rect x="153.9" y="6.9" fill="#CF5AA1" stroke="#010101" stroke-width="2" stroke-miterlimit="10" width="10.2" height="10.2"/>
				<rect x="153.9" y="17" fill="#CF5AA1" stroke="#010101" stroke-width="2" stroke-miterlimit="10" width="10.2" height="10.2"/>
				<rect x="153.9" y="27" fill="#CF5AA1" stroke="#010101" stroke-width="2" stroke-miterlimit="10" width="10.2" height="10.2"/>
				<rect x="153.9" y="37" fill="#CF5AA1" stroke="#010101" stroke-width="2" stroke-miterlimit="10" width="10.2" height="10.2"/>
			</g>
			<g>
				
					<rect x="153.9" y="47.2" fill="#CF5AA1" stroke="#010101" stroke-width="2" stroke-miterlimit="10" width="10.2" height="10.2"/>
				
					<rect x="153.9" y="57.2" fill="#CF5AA1" stroke="#010101" stroke-width="2" stroke-miterlimit="10" width="10.2" height="10.2"/>
				
					<rect x="153.9" y="67.2" fill="#CF5AA1" stroke="#010101" stroke-width="2" stroke-miterlimit="10" width="10.2" height="10.2"/>
				
					<rect x="153.9" y="77.2" fill="#CF5AA1" stroke="#010101" stroke-width="2" stroke-miterlimit="10" width="10.2" height="10.2"/>
				
					<rect x="153.9" y="87.2" fill="#CF5AA1" stroke="#010101" stroke-width="2" stroke-miterlimit="10" width="10.2" height="10.2"/>
			</g>
		</g>
	</g>
	<g>
		<g>
			<g>
				<line fill="#CF5AA1" stroke="#010101" stroke-width="2" stroke-miterlimit="10" x1="174.2" y1="7.2" x2="163.9" y2="7.2"/>
				<rect x="163.9" y="6.9" fill="#CF5AA1" stroke="#010101" stroke-width="2" stroke-miterlimit="10" width="10.2" height="10.2"/>
				<rect x="163.9" y="17" fill="#CF5AA1" stroke="#010101" stroke-width="2" stroke-miterlimit="10" width="10.2" height="10.2"/>
				<rect x="163.9" y="27" fill="#CF5AA1" stroke="#010101" stroke-width="2" stroke-miterlimit="10" width="10.2" height="10.2"/>
				<rect x="163.9" y="37" fill="#CF5AA1" stroke="#010101" stroke-width="2" stroke-miterlimit="10" width="10.2" height="10.2"/>
			</g>
			<g>
				
					<rect x="163.9" y="47.2" fill="#CF5AA1" stroke="#010101" stroke-width="2" stroke-miterlimit="10" width="10.2" height="10.2"/>
				
					<rect x="163.9" y="57.2" fill="#CF5AA1" stroke="#010101" stroke-width="2" stroke-miterlimit="10" width="10.2" height="10.2"/>
				
					<rect x="163.9" y="67.2" fill="#CF5AA1" stroke="#010101" stroke-width="2" stroke-miterlimit="10" width="10.2" height="10.2"/>
				
					<rect x="163.9" y="77.2" fill="#CF5AA1" stroke="#010101" stroke-width="2" stroke-miterlimit="10" width="10.2" height="10.2"/>
				
					<rect x="163.9" y="87.2" fill="#CF5AA1" stroke="#010101" stroke-width="2" stroke-miterlimit="10" width="10.2" height="10.2"/>
			</g>
		</g>
	</g>
</g>
<line fill="none" stroke="#010101" stroke-width="2" stroke-miterlimit="10" x1="228.9" y1="24.3" x2="228.9" y2="60.2"/>
<g>
	<g>
		<g>
			<rect x="197.6" y="6.9" fill="#FFFFFF" stroke="#010101" stroke-width="2" stroke-miterlimit="10" width="62.2" height="30"/>
		</g>
		<rect x="197.6" y="7.9" fill="#231F20" width="62.6" height="5.1"/>
	</g>
	<text transform="matrix(0.9772 0 0 1 203.1839 22.4806)" fill="#231F20" font-family="'InputMono-Bold'" font-size="6">&gt;calculate</text>
	<text transform="matrix(0.9772 0 0 1 203.1839 29.6798)" fill="#231F20" font-family="'InputMono-Bold'" font-size="6">Average</text>
</g>
<g>
	<g>
		<g>
			<path fill="#010101" stroke="#010101" stroke-width="2" stroke-miterlimit="10" d="M262.2,93.5h-66.6c-2,0-3.6-1.6-3.6-3.6V57.8
				c0-2,1.6-3.6,3.6-3.6h66.6c2,0,3.6,1.6,3.6,3.6v32.2C265.8,91.9,264.2,93.5,262.2,93.5z"/>
		</g>
	</g>
	<text transform="matrix(0.9772 0 0 1 196.3701 62.6735)" fill="#FFFFFF" font-family="'ChambersSansOT-Bold'" font-size="6">AVERAGE TEMPERATURE</text>
	<g>
		<path fill="#FFFFFF" d="M223,76.7c0,2-1.5,3.3-3.7,3.3h-0.7c-2,0-3.6-1.2-3.6-3.3v-5.1c0-2.2,1.5-3.5,3.7-3.5h3.5
			c0.1,0,0.2,0.1,0.2,0.2v1.2c0,0.1-0.1,0.2-0.2,0.2H219c-1.3,0-2.1,0.7-2.1,2v2.4l0.6-0.7c0.6-0.7,1.3-1.1,2.3-1.1h0.5
			c1.6,0,2.7,1.1,2.7,2.9V76.7z M221.2,75.4c0-0.9-0.4-1.4-1.2-1.4h-0.4c-0.6,0-1.1,0.3-1.5,0.8l-1.2,1.3v0.6c0,1.1,0.8,1.7,1.8,1.7
			h0.5c1.2,0,2-0.6,2-1.7V75.4z"/>
		<path fill="#FFFFFF" d="M233.6,76.8c0,2-1.5,3.1-3.5,3.1h-1.6c-2,0-3.5-1.1-3.5-3.1v-0.6c0-1.4,1.1-2.3,1.8-2.5
			c-0.7-0.3-1.5-1.1-1.5-2.3V71c0-2.1,1.5-3.1,3.6-3.1h0.8c2,0,3.6,1,3.6,3.1v0.4c0,1.2-0.7,2-1.5,2.3c0.7,0.2,1.8,1.1,1.8,2.5V76.8
			z M231.7,76.2c0-1-0.8-1.6-1.9-1.6h-1.1c-1.1,0-1.9,0.6-1.9,1.6v0.5c0,1.1,0.7,1.6,1.8,1.6h1.3c1.1,0,1.8-0.5,1.8-1.6V76.2z
			 M231.4,71.1c0-1-0.8-1.5-1.9-1.5h-0.4c-1.1,0-1.9,0.5-1.9,1.5v0.4c0,1,0.8,1.5,1.8,1.5h0.6c1,0,1.8-0.5,1.8-1.5V71.1z"/>
		<path fill="#FFFFFF" d="M239.8,73.9h-1.1c-1.6,0-2.9-1.1-2.9-2.9v-0.5c0-1.6,1.2-2.9,2.9-2.9h1.1c1.7,0,3,1.2,3,2.9v0.5
			C242.8,72.7,241.4,73.9,239.8,73.9z M241,70.7c0-0.9-0.6-1.6-1.5-1.6H239c-0.9,0-1.5,0.7-1.5,1.6v0.1c0,0.9,0.5,1.6,1.5,1.6h0.5
			c0.9,0,1.5-0.7,1.5-1.6V70.7z"/>
	</g>
	<text transform="matrix(1 0 0 1 202.8824 89.2057)" fill="#FFFFFF" font-family="'ChambersSansOT-Bold'" font-size="6">updated 1 min. ago</text>
</g>
<g>
	<rect x="48.2" y="48.4" fill="#CF5AA1" width="8" height="8"/>
	<rect x="61.2" y="48.4" fill="#CF5AA1" width="8" height="8"/>
	<rect x="74.2" y="48.4" fill="#CF5AA1" width="8" height="8"/>
</g>
<polyline fill="none" stroke="#010101" stroke-width="2" stroke-linejoin="bevel" stroke-miterlimit="10" points="192.6,17.9 
	196.6,21.9 192.6,25.9 "/>
<polyline fill="none" stroke="#010101" stroke-width="2" stroke-linejoin="bevel" stroke-miterlimit="10" points="88.8,48.5 
	92.8,52.5 88.8,56.5 "/>
<polyline fill="none" stroke="#010101" stroke-width="2" stroke-linejoin="bevel" stroke-miterlimit="10" points="232.7,49.2 
	228.7,53.2 224.7,49.2 "/>
</svg>
