<?xml version="1.0" encoding="utf-8"?>
<!-- Generator: Adobe Illustrator 18.0.0, SVG Export Plug-In . SVG Version: 6.00 Build 0)  -->
<!DOCTYPE svg PUBLIC "-//W3C//DTD SVG 1.1//EN" "http://www.w3.org/Graphics/SVG/1.1/DTD/svg11.dtd">
<svg version="1.1" id="Layer_1" xmlns="http://www.w3.org/2000/svg" xmlns:xlink="http://www.w3.org/1999/xlink" x="0px" y="0px"
	 viewBox="0 0 270 105" enable-background="new 0 0 270 105" xml:space="preserve">
<g>
	<g>
		<defs>
			<rect id="SVGID_1_" x="0.2" y="-28.6" width="269.8" height="137.8"/>
		</defs>
		<clipPath id="SVGID_2_">
			<use xlink:href="#SVGID_1_"  overflow="visible"/>
		</clipPath>
		<path clip-path="url(#SVGID_2_)" fill="none" stroke="#D25CA2" stroke-width="51" stroke-miterlimit="10" d="M-24,83.9
			c30.9-14,51.5-25.6,83.2-37.4c42.9-16,67.6-4.9,98.4,15.1c79.9,51.9,143.9-28.4,218.6-23.7"/>
		<path clip-path="url(#SVGID_2_)" fill="none" stroke="#FFFFFF" stroke-miterlimit="10" stroke-dasharray="18,4" d="M-26,82.9
			c30.9-14,51.5-25.6,83.2-37.4c42.9-16,67.6-4.9,98.4,15.1c79.9,51.9,143.9-28.4,218.6-23.7"/>
		<path clip-path="url(#SVGID_2_)" fill="none" stroke="#FFFFFF" stroke-miterlimit="10" stroke-dasharray="18,4" d="M-26,71.1
			c30.9-14,51.5-25.6,83.2-37.4c42.9-16,67.6-4.9,98.4,15.1c79.9,51.9,143.9-28.4,218.6-23.7"/>
		<path clip-path="url(#SVGID_2_)" fill="none" stroke="#FFFFFF" stroke-miterlimit="10" stroke-dasharray="18,4" d="M-25,95.8
			c30.9-14,51.5-25.6,83.2-37.4c42.9-16,67.6-4.9,98.4,15.1c79.9,51.9,143.9-28.4,218.6-23.7"/>
		<polygon clip-path="url(#SVGID_2_)" fill="#D25CA2" points="71.7,46.5 68.7,33.1 91.3,31.4 118.7,34.9 131.5,40.6 125.8,52.9 
			105.1,46.2 75.5,47 		"/>
		<g clip-path="url(#SVGID_2_)">
			<path id="SVGID_x5F_3_x5F_" fill="none" d="M-26.9,86C4,72,24.6,60.5,56.4,48.6c42.9-16,67.6-4.9,98.4,15.1
				c79.9,51.9,143.9-28.4,218.6-23.7"/>
			<text>			<textPath  xlink:href="#SVGID_x5F_3_x5F_" startOffset="38.1183%">
<tspan  fill="#FFFFFF" font-family="'ChambersSansOT-BoldItalic'" font-size="8.8925">Data Stream</tspan>			</textPath>
</text>
		</g>
	</g>
	<g>
		<g>
			<path fill="#010101" d="M212.7,72.2c0,0,0.6-0.3,1.6-0.7c1-0.4,2.6-0.9,4.4-1.4c0.9-0.3,1.9-0.5,3-0.8c1.1-0.3,2.2-0.5,3.3-0.8
				c2.3-0.5,4.8-1.1,7.2-1.6c2.5-0.5,5-1,7.3-1.3c2.3-0.4,4.5-0.7,6.4-0.8c3.8-0.4,6.3-0.4,6.3-0.4s-2.4,0.7-6.1,1.6
				c-1.8,0.4-4,0.9-6.3,1.4c-2.3,0.5-4.8,1-7.2,1.5c-2.5,0.5-5,1-7.3,1.3c-1.2,0.2-2.3,0.4-3.4,0.5c-1.1,0.2-2.1,0.3-3,0.4
				c-1.9,0.3-3.4,0.5-4.5,0.7C213.3,72,212.7,72.2,212.7,72.2z"/>
		</g>
		<g>
			<defs>
				<path id="SVGID_4_" d="M260.5,62.6c0,0-1.8,0.1-7.2,1.5c-5.4,1.4-14.9,4.9-21.3,5.5c-6.4,0.6-7.3,2-13.4,1.9
					c-6.1-0.1-8.6,1.3-8.6,1.3l-12.9-28l-0.7-36.7l35.2-7l30-2.9L260.5,62.6z"/>
			</defs>
			<clipPath id="SVGID_5_">
				<use xlink:href="#SVGID_4_"  overflow="visible"/>
			</clipPath>
			<g clip-path="url(#SVGID_5_)">
				<path stroke="#010101" stroke-width="2" stroke-miterlimit="10" d="M250.5,78.4l-19.4,3.4c-2.9,0.5-5.6-1.4-6.1-4.2l-9.6-53.9
					c-0.5-2.8,1.4-5.5,4.3-6l14.4-4.4c3,0.5,7.7,1.1,8.8,1.8c1.2,0.8,2.1,2,2.3,3.4l9.6,53.9C255.3,75.2,253.4,77.9,250.5,78.4z"/>
				<path fill="#FFFFFF" stroke="#010101" stroke-width="2" stroke-miterlimit="10" d="M244.7,77.5l-19.4,3.4
					c-2.8,0.5-5.6-1.4-6.1-4.2l-9.6-53.8c-0.5-2.9,1.4-5.6,4.3-6.1l19.4-3.4c2.8-0.5,5.6,1.4,6.1,4.2l9.6,53.8
					C249.5,74.3,247.6,77,244.7,77.5z"/>
				<g>
					<g>
						
							<line fill="none" stroke="#010101" stroke-width="2" stroke-linecap="round" stroke-miterlimit="10" x1="245.2" y1="69.7" x2="222.3" y2="73.6"/>
					</g>
					<circle fill="#231F20" stroke="#010101" stroke-width="2" stroke-miterlimit="10" cx="244.8" cy="72.2" r="0.3"/>
				</g>
				<g>
					<g>
						
							<line fill="none" stroke="#010101" stroke-width="2" stroke-linecap="round" stroke-miterlimit="10" x1="244.1" y1="63.8" x2="221.2" y2="67.8"/>
					</g>
					<circle fill="#231F20" stroke="#010101" stroke-width="2" stroke-miterlimit="10" cx="243.7" cy="66.3" r="0.3"/>
				</g>
				<g>
					<g>
						
							<line fill="none" stroke="#010101" stroke-width="2" stroke-linecap="round" stroke-miterlimit="10" x1="243.1" y1="57.9" x2="220.2" y2="61.9"/>
					</g>
					<circle fill="#231F20" stroke="#010101" stroke-width="2" stroke-miterlimit="10" cx="242.7" cy="60.5" r="0.3"/>
				</g>
				<g>
					<g>
						
							<line fill="none" stroke="#010101" stroke-width="2" stroke-linecap="round" stroke-miterlimit="10" x1="242" y1="52.1" x2="219.1" y2="56"/>
					</g>
					<circle fill="#231F20" stroke="#010101" stroke-width="2" stroke-miterlimit="10" cx="241.7" cy="54.6" r="0.3"/>
				</g>
				<g>
					<g>
						
							<line fill="none" stroke="#010101" stroke-width="2" stroke-linecap="round" stroke-miterlimit="10" x1="241" y1="46.2" x2="218.1" y2="50.2"/>
					</g>
					<circle fill="#231F20" stroke="#010101" stroke-width="2" stroke-miterlimit="10" cx="240.6" cy="48.7" r="0.3"/>
				</g>
				<g>
					<g>
						
							<line fill="none" stroke="#010101" stroke-width="2" stroke-linecap="round" stroke-miterlimit="10" x1="239.9" y1="40.3" x2="217" y2="44.3"/>
					</g>
					<circle fill="#231F20" stroke="#010101" stroke-width="2" stroke-miterlimit="10" cx="239.6" cy="42.9" r="0.3"/>
				</g>
				<g>
					<g>
						
							<line fill="none" stroke="#010101" stroke-width="2" stroke-linecap="round" stroke-miterlimit="10" x1="238.9" y1="34.5" x2="216" y2="38.4"/>
					</g>
					<circle fill="#231F20" stroke="#010101" stroke-width="2" stroke-miterlimit="10" cx="238.5" cy="37" r="0.3"/>
				</g>
				<g>
					<g>
						
							<line fill="none" stroke="#010101" stroke-width="2" stroke-linecap="round" stroke-miterlimit="10" x1="237.9" y1="28.6" x2="214.9" y2="32.6"/>
					</g>
					<circle fill="#231F20" stroke="#010101" stroke-width="2" stroke-miterlimit="10" cx="237.5" cy="31.1" r="0.3"/>
				</g>
				<path fill="none" stroke="#010101" stroke-width="2" stroke-miterlimit="10" d="M229.8,22.9c-0.1-0.4-0.3-0.7-0.7-0.8
					c0-0.1,0-0.1,0-0.2c-0.1-0.7-0.8-1.1-1.5-1c-0.2,0-0.3,0.1-0.5,0.2c-0.2-1.2-1.4-1.9-2.6-1.7c-0.7,0.1-1.3,0.6-1.6,1.3
					c-0.2,0-0.4,0-0.7,0c-1,0.2-1.6,1.1-1.5,2.1c0,0.1,0.1,0.3,0.1,0.4c-0.4,0.3-0.6,0.8-0.5,1.2c0.1,0.7,0.8,1.1,1.5,1l7-1.3l0,0
					C229.6,24,229.9,23.5,229.8,22.9z"/>
			</g>
		</g>
		<g>
			<path fill="#010101" d="M209.1,72.9c0,0,0.2-0.1,0.5-0.2c0.4-0.1,0.9-0.3,1.6-0.5c1.4-0.3,3.4-0.7,5.8-1c2.4-0.3,5.2-0.7,8.2-1.1
				c1.5-0.2,3-0.5,4.6-0.8c1.5-0.3,3.1-0.6,4.7-1c1.6-0.3,3.1-0.7,4.7-1c1.5-0.4,3.1-0.7,4.5-1.1c1.5-0.4,2.9-0.7,4.2-1.1
				c1.3-0.4,2.6-0.7,3.8-1c2.3-0.6,4.3-1.1,5.7-1.5c0.7-0.2,1.2-0.3,1.6-0.4c0.4-0.1,0.6-0.2,0.6-0.2s-0.7,0.4-2,1
				c-1.3,0.6-3.2,1.3-5.5,2.2c-2.3,0.9-5,1.8-7.9,2.7c-1.5,0.4-3,0.9-4.5,1.2c-1.6,0.4-3.1,0.8-4.7,1.1c-1.6,0.3-3.2,0.6-4.8,0.9
				c-1.6,0.3-3.2,0.4-4.7,0.6c-1.5,0.2-3,0.2-4.4,0.3c-1.4,0.1-2.7,0.1-3.9,0.2c-2.4,0.1-4.4,0.2-5.8,0.3
				C209.9,72.7,209.1,72.9,209.1,72.9z"/>
		</g>
	</g>
	<g>
		<g>
			<defs>
				<path id="SVGID_6_" d="M139.5,19.7l-11.3,46.8c0,0,4.6,3,6.7,4.1s9.7,4.5,12.3,5.3c2.6,0.8,13.9,6.8,16,7.4
					c2.1,0.6,12.2,4.7,13.9,5.5c1.7,0.7,11.9,3.5,13.5,4.2s10.5,2.6,11.8,3c1.4,0.5,8.5,2.4,10.2,2.6c1.7,0.3,4.4,1.8,5.7,1.8
					s5.1,0.7,5.1,0.7l14.2-36l-71.5-22.5l-9.3-18.1L139.5,19.7z"/>
			</defs>
			<clipPath id="SVGID_7_">
				<use xlink:href="#SVGID_6_"  overflow="visible"/>
			</clipPath>
			<g clip-path="url(#SVGID_7_)">
				<polygon fill="#FFFFFF" stroke="#010101" stroke-width="2" stroke-linecap="round" stroke-miterlimit="10" points="192.8,100.5 
					126.1,74.6 137.8,45.3 204.4,71.2 				"/>
				<polygon stroke="#010101" stroke-width="2" stroke-linecap="round" stroke-miterlimit="10" points="204.4,71.2 137.8,45.3 
					134.5,53.6 201.1,79.5 				"/>
				
					<text transform="matrix(0.9188 0.3573 -0.3701 0.929 134.5667 65.173)" fill="#231F20" font-family="'InputMono-Bold'" font-size="6.7356">&gt;batchAlgorithm</text>
			</g>
		</g>
		<g>
			<path fill="#010101" d="M120.5,60.8c0,0,0.3,0.2,0.8,0.7c0.6,0.4,1.4,1,2.4,1.8c2.1,1.5,5.2,3.5,9,5.7c1.9,1.1,4,2.2,6.3,3.2
				c2.3,1,4.8,1.9,7.4,3c2.6,1,5.2,2.2,7.9,3.3c2.7,1.1,5.4,2.3,8.1,3.5c2.7,1.2,5.4,2.3,8.1,3.4c2.7,1.1,5.3,2.1,7.9,3
				c2.6,0.9,5.1,1.8,7.5,2.5c2.4,0.8,4.7,1.5,6.8,2.1c2.1,0.6,4.1,1.2,5.8,1.6c1.7,0.5,3.2,0.9,4.5,1.3c0.6,0.2,1.2,0.3,1.7,0.4
				c0.1,0,0.2,0,0.3,0.1c0,0,0,0,0,0c0,0,0,0-0.1,0.1c0,0.1,0,0.1,0,0.1c0,0,0,0,0,0l-0.1-0.1c-0.2-0.1-0.4-0.2-0.5-0.2
				c-0.3-0.1-0.6-0.2-0.7-0.3c0,0-0.1,0-0.1,0c0,0,0,0,0.1,0c0,0,0.1,0,0.1,0s0,0-0.1,0c0,0-0.1,0-0.1-0.1c0,0,0.1,0,0.1,0
				c0.2,0,0.4,0.1,0.8,0.2c0.2,0,0.4,0.1,0.6,0.2l0.2,0.1c0,0,0.1,0,0.1,0.1c0,0,0.1,0.1,0,0.2c-0.1,0.1-0.1,0.1-0.1,0.1
				c0,0-0.1,0-0.1,0c-0.1,0-0.3,0-0.4,0c-0.5,0-1.1-0.1-1.7-0.2c-2.6-0.4-6.2-1-10.5-2.1c-2.2-0.5-4.5-1.1-6.9-1.8
				c-2.4-0.7-5-1.5-7.7-2.4c-2.6-0.9-5.3-1.9-8.1-3c-2.7-1.1-5.4-2.3-8.1-3.5c-2.7-1.2-5.4-2.4-8-3.6c-2.6-1.2-5.3-2.4-7.8-3.5
				c-2.5-1.2-5-2.1-7.3-3.3c-2.3-1.2-4.4-2.4-6.2-3.6c-3.8-2.4-6.7-4.6-8.7-6.3c-1-0.8-1.8-1.5-2.3-2
				C120.8,61.1,120.5,60.8,120.5,60.8z"/>
		</g>
	</g>
	<g>
		<g>
			<path fill="#010101" d="M65,49.8c0,0-0.6,0.2-1.6,0.6c-1,0.4-2.5,0.9-4.3,1.6c-0.9,0.3-1.8,0.7-2.8,1.1c-1,0.4-2.1,0.8-3.2,1.2
				c-2.2,0.8-4.6,1.6-7,2.4c-2.4,0.8-4.8,1.6-7,2.3c-2.3,0.7-4.4,1.3-6.2,1.9c-3.6,1.1-6.1,1.7-6.1,1.7s2.2-1.2,5.7-2.7
				c1.7-0.8,3.8-1.6,6-2.4c2.2-0.9,4.6-1.7,7-2.5c2.4-0.8,4.8-1.5,7.1-2.2c1.1-0.4,2.2-0.6,3.3-0.9c1-0.3,2-0.6,3-0.8
				c1.8-0.5,3.4-0.8,4.5-0.9C64.4,49.8,65,49.8,65,49.8z"/>
		</g>
		<g>
			<defs>
				<path id="SVGID_8_" d="M18.8,65.2c0,0,1.6-0.8,7-2.3c5.3-1.4,15.4-3.1,21.3-5.8s7.3-1.9,12.6-5s8.1-3.1,8.1-3.1l-3-30.6
					L46.8-13.6l-34,11.4l-27.4,12.4L18.8,65.2z"/>
			</defs>
			<clipPath id="SVGID_9_">
				<use xlink:href="#SVGID_8_"  overflow="visible"/>
			</clipPath>
			<g clip-path="url(#SVGID_9_)">
				<path stroke="#010101" stroke-width="2" stroke-miterlimit="10" d="M35.4,73.9L54,67.2c2.7-1,4.1-4,3.1-6.6l-19-51.4
					c-1-2.7-4-4.1-6.7-3.1L16.7,9.4c-2.4,2-6.1,4.8-6.7,5.9c-0.6,1.2-0.8,2.7-0.3,4.1l19,51.4C29.7,73.5,32.7,74.9,35.4,73.9z"/>
				<path fill="#FFFFFF" stroke="#010101" stroke-width="2" stroke-miterlimit="10" d="M39.9,70.3l18.5-6.7c2.7-1,4.1-4,3.1-6.7
					l-19-51.3c-1-2.7-4-4.1-6.7-3.1L17.4,9.1c-2.7,1-4.1,4-3.1,6.7l19,51.3C34.2,69.9,37.2,71.3,39.9,70.3z"/>
				<g>
					
						<line fill="none" stroke="#010101" stroke-width="2" stroke-linecap="round" stroke-miterlimit="10" x1="35.6" y1="63.7" x2="57.5" y2="55.8"/>
				</g>
				<circle fill="#231F20" stroke="#010101" stroke-width="2" stroke-miterlimit="10" cx="57.9" cy="58.4" r="0.3"/>
				<g>
					
						<line fill="none" stroke="#010101" stroke-width="2" stroke-linecap="round" stroke-miterlimit="10" x1="33.6" y1="58.1" x2="55.4" y2="50.2"/>
				</g>
				<circle fill="#231F20" stroke="#010101" stroke-width="2" stroke-miterlimit="10" cx="55.9" cy="52.8" r="0.3"/>
				<g>
					
						<line fill="none" stroke="#010101" stroke-width="2" stroke-linecap="round" stroke-miterlimit="10" x1="31.5" y1="52.5" x2="53.4" y2="44.6"/>
				</g>
				<circle fill="#231F20" stroke="#010101" stroke-width="2" stroke-miterlimit="10" cx="53.8" cy="47.2" r="0.3"/>
				<g>
					
						<line fill="none" stroke="#010101" stroke-width="2" stroke-linecap="round" stroke-miterlimit="10" x1="29.4" y1="46.9" x2="51.3" y2="39"/>
				</g>
				<circle fill="#231F20" stroke="#010101" stroke-width="2" stroke-miterlimit="10" cx="51.7" cy="41.6" r="0.3"/>
				<g>
					
						<line fill="none" stroke="#010101" stroke-width="2" stroke-linecap="round" stroke-miterlimit="10" x1="27.4" y1="41.3" x2="49.2" y2="33.4"/>
				</g>
				<circle fill="#231F20" stroke="#010101" stroke-width="2" stroke-miterlimit="10" cx="49.7" cy="36" r="0.3"/>
				<g>
					
						<line fill="none" stroke="#010101" stroke-width="2" stroke-linecap="round" stroke-miterlimit="10" x1="25.3" y1="35.7" x2="47.2" y2="27.8"/>
				</g>
				<circle fill="#231F20" stroke="#010101" stroke-width="2" stroke-miterlimit="10" cx="47.6" cy="30.4" r="0.3"/>
				<g>
					
						<line fill="none" stroke="#010101" stroke-width="2" stroke-linecap="round" stroke-miterlimit="10" x1="23.2" y1="30.1" x2="45.1" y2="22.2"/>
				</g>
				<circle fill="#231F20" stroke="#010101" stroke-width="2" stroke-miterlimit="10" cx="45.5" cy="24.9" r="0.3"/>
				<g>
					
						<line fill="none" stroke="#010101" stroke-width="2" stroke-linecap="round" stroke-miterlimit="10" x1="21.2" y1="24.5" x2="43" y2="16.6"/>
				</g>
				<circle fill="#231F20" stroke="#010101" stroke-width="2" stroke-miterlimit="10" cx="43.5" cy="19.3" r="0.3"/>
			</g>
		</g>
		<g>
			<path fill="#010101" d="M68.5,48.7c0,0-0.8,0.2-2.1,0.8c-1.3,0.6-3.1,1.5-5.2,2.6c-1.1,0.6-2.2,1.2-3.5,1.8
				c-1.3,0.6-2.6,1.3-4,1.9c-1.4,0.6-2.9,1.2-4.4,1.8c-1.5,0.6-3,1.1-4.6,1.6c-1.5,0.5-3.1,1-4.6,1.4c-1.5,0.4-3.1,0.8-4.6,1.2
				c-3,0.7-5.8,1.2-8.2,1.6C25,63.7,23,64,21.6,64.1c-1.4,0.2-2.2,0.2-2.2,0.2s0.2,0,0.6-0.1c0.4-0.1,0.9-0.2,1.6-0.4
				c1.4-0.4,3.3-0.9,5.7-1.5c2.3-0.6,5.1-1.3,8-2.2c1.4-0.4,2.9-0.9,4.5-1.3c1.5-0.5,3-1,4.6-1.4c1.5-0.5,3.1-1,4.6-1.5
				c1.5-0.5,2.9-1,4.3-1.6c2.8-1.1,5.4-2.2,7.7-3.1c2.3-0.9,4.2-1.6,5.5-2c0.7-0.2,1.2-0.3,1.6-0.4C68.3,48.7,68.5,48.7,68.5,48.7z"
				/>
		</g>
	</g>
</g>
<polygon fill="#D15AA1" points="6.3,91.2 14.8,82.8 10.6,61.7 14.8,54.2 7.7,46.8 0,50.2 0.2,92.9 "/>
<polygon fill="#D15AA1" points="261.5,49.8 258,53.2 263.3,60.8 259.6,66.3 259.6,75.6 261.5,78.7 263.3,86 270,86 270,46.8 "/>
<path fill="none" stroke="#010101" stroke-width="2" stroke-miterlimit="10" d="M34.9,12.7c-0.1-0.4-0.4-0.6-0.8-0.7
	c0-0.1,0-0.1,0-0.2c-0.2-0.7-1-1-1.6-0.8c-0.2,0.1-0.3,0.1-0.4,0.3c-0.4-1.1-1.6-1.7-2.8-1.3c-0.7,0.2-1.2,0.8-1.4,1.5
	c-0.2,0-0.4,0-0.7,0.1c-1,0.3-1.5,1.4-1.1,2.3c0,0.1,0.1,0.3,0.2,0.4c-0.3,0.3-0.4,0.8-0.3,1.3c0.2,0.7,1,1,1.6,0.8l6.7-2.3l0,0
	C34.8,13.8,35,13.3,34.9,12.7z"/>
</svg>
