<?xml version="1.0" encoding="utf-8"?>
<!-- Generator: Adobe Illustrator 18.0.0, SVG Export Plug-In . SVG Version: 6.00 Build 0)  -->
<!DOCTYPE svg PUBLIC "-//W3C//DTD SVG 1.1//EN" "http://www.w3.org/Graphics/SVG/1.1/DTD/svg11.dtd">
<svg version="1.1" id="Layer_1" xmlns="http://www.w3.org/2000/svg" xmlns:xlink="http://www.w3.org/1999/xlink" x="0px" y="0px"
	 viewBox="0 0 618 339" enable-background="new 0 0 618 339" xml:space="preserve">
<pattern  y="320" width="2" height="2" patternUnits="userSpaceOnUse" id="fill_0" viewBox="0 -2 2 2" overflow="visible">
	<g>
		<polygon fill="none" points="0,0 2,0 2,-2 0,-2 		"/>
		<polygon fill="#CF00AB" points="0,0 1,0 1,-1 0,-1 		"/>
	</g>
</pattern>
<pattern  y="320" width="2" height="2" patternUnits="userSpaceOnUse" id="fill_1" viewBox="0 -2 2 2" overflow="visible">
	<g>
		<polygon fill="none" points="0,0 2,0 2,-2 0,-2 		"/>
		<polygon fill="#CF00AB" points="0,0 1,0 1,-1 0,-1 		"/>
		<polygon fill="#CF00AB" points="1,-1 2,-1 2,-2 1,-2 		"/>
	</g>
</pattern>
<pattern  y="320" width="2" height="2" patternUnits="userSpaceOnUse" id="fill_2" viewBox="0 -2 2 2" overflow="visible">
	<g>
		<polygon fill="none" points="0,0 2,0 2,-2 0,-2 		"/>
		<polygon fill="#CF00AB" points="0,0 1,0 1,-1 0,-1 		"/>
		<polygon fill="#CF00AB" points="1,0 2,0 2,-1 1,-1 		"/>
		<polygon fill="#CF00AB" points="0,-1 1,-1 1,-2 0,-2 		"/>
	</g>
</pattern>
<pattern  id="SVGID_1_" xlink:href="#fill_1" patternTransform="matrix(1 0 0 -1 0 -16350)">
</pattern>
<rect fill="url(#SVGID_1_)" width="103" height="113"/>
<pattern  id="SVGID_2_" xlink:href="#fill_0" patternTransform="matrix(1 0 0 -1 0 -16350)">
</pattern>
<rect x="103" fill="url(#SVGID_2_)" width="103" height="113"/>
<rect x="206" fill="#FFFFFF" width="103" height="113"/>
<rect x="309" fill="#CF00AB" width="103" height="113"/>
<rect x="412" fill="#FFFFFF" width="103" height="113"/>
<rect x="515" fill="#FFFFFF" width="103" height="113"/>
<rect y="113" fill="#CF00AB" width="103" height="113"/>
<pattern  id="SVGID_3_" xlink:href="#fill_0" patternTransform="matrix(1 0 0 -1 0 -16350)">
</pattern>
<rect x="103" y="113" fill="url(#SVGID_3_)" width="103" height="113"/>
<pattern  id="SVGID_4_" xlink:href="#fill_1" patternTransform="matrix(1 0 0 -1 0 -16350)">
</pattern>
<rect x="206" y="113" fill="url(#SVGID_4_)" width="103" height="113"/>
<pattern  id="SVGID_5_" xlink:href="#fill_2" patternTransform="matrix(1 0 0 -1 0 -16350)">
</pattern>
<rect x="309" y="113" fill="url(#SVGID_5_)" width="103" height="113"/>
<rect x="412" y="113" fill="#CF00AB" width="103" height="113"/>
<pattern  id="SVGID_6_" xlink:href="#fill_2" patternTransform="matrix(1 0 0 -1 0 -16350)">
</pattern>
<rect x="515" y="113" fill="url(#SVGID_6_)" width="103" height="113"/>
<rect y="226" fill="#FFFFFF" width="103" height="113"/>
<rect x="103" y="226" fill="#CF00AB" width="103" height="113"/>
<pattern  id="SVGID_7_" xlink:href="#fill_1" patternTransform="matrix(1 0 0 -1 0 -16350)">
</pattern>
<rect x="206" y="226" fill="url(#SVGID_7_)" width="103" height="113"/>
<pattern  id="SVGID_8_" xlink:href="#fill_0" patternTransform="matrix(1 0 0 -1 0 -16350)">
</pattern>
<rect x="309" y="226" fill="url(#SVGID_8_)" width="103" height="113"/>
<rect x="412" y="226" fill="#CF00AB" width="103" height="113"/>
<pattern  id="SVGID_9_" xlink:href="#fill_2" patternTransform="matrix(1 0 0 -1 0 -16350)">
</pattern>
<rect x="515" y="226" fill="url(#SVGID_9_)" width="103" height="113"/>
</svg>
