<?xml version="1.0" encoding="utf-8"?>
<!-- Generator: Adobe Illustrator 18.0.0, SVG Export Plug-In . SVG Version: 6.00 Build 0)  -->
<!DOCTYPE svg PUBLIC "-//W3C//DTD SVG 1.1//EN" "http://www.w3.org/Graphics/SVG/1.1/DTD/svg11.dtd">
<svg version="1.1" id="Layer_1" xmlns="http://www.w3.org/2000/svg" xmlns:xlink="http://www.w3.org/1999/xlink" x="0px" y="0px"
	 viewBox="0 0 288 99.5" enable-background="new 0 0 288 99.5" xml:space="preserve">
<ellipse cx="111.5" cy="49.3" rx="5.5" ry="5.2"/>
<ellipse cx="79.5" cy="24.3" rx="5.5" ry="5.2"/>
<ellipse cx="135.5" cy="24.3" rx="5.5" ry="5.2"/>
<ellipse cx="26.5" cy="70.3" rx="5.5" ry="5.2"/>
<ellipse cx="19.5" cy="37.3" rx="5.5" ry="5.2"/>
<ellipse cx="206.5" cy="25.3" rx="5.5" ry="5.2"/>
<ellipse cx="182.5" cy="59.3" rx="5.5" ry="5.2"/>
<ellipse cx="136.5" cy="73.3" rx="5.5" ry="5.2"/>
<ellipse cx="236.5" cy="73.3" rx="5.5" ry="5.2"/>
<ellipse cx="73.5" cy="71.3" rx="5.5" ry="5.2"/>
<ellipse cx="269.5" cy="69.3" rx="5.5" ry="5.2"/>
<ellipse cx="258.5" cy="23.3" rx="5.5" ry="5.2"/>
<line fill="none" stroke="#000000" stroke-width="2" stroke-miterlimit="10" x1="19.5" y1="37.3" x2="26.5" y2="70.3"/>
<line fill="none" stroke="#000000" stroke-width="2" stroke-miterlimit="10" x1="26.5" y1="70.3" x2="73.5" y2="71.3"/>
<line fill="none" stroke="#000000" stroke-width="2" stroke-miterlimit="10" x1="73.5" y1="71.3" x2="79.5" y2="24.3"/>
<line fill="none" stroke="#000000" stroke-width="2" stroke-miterlimit="10" x1="79.5" y1="24.3" x2="111.5" y2="49.3"/>
<line fill="none" stroke="#000000" stroke-width="2" stroke-miterlimit="10" x1="79.5" y1="24.3" x2="26.5" y2="70.3"/>
<line fill="none" stroke="#000000" stroke-width="2" stroke-miterlimit="10" x1="111.5" y1="49.3" x2="135.5" y2="24.3"/>
<line fill="none" stroke="#000000" stroke-width="2" stroke-miterlimit="10" x1="19.3" y1="37.5" x2="73.5" y2="71.3"/>
<line fill="none" stroke="#000000" stroke-width="2" stroke-miterlimit="10" x1="135.5" y1="24.3" x2="136.5" y2="73.3"/>
<line fill="none" stroke="#000000" stroke-width="2" stroke-miterlimit="10" x1="136.5" y1="73.3" x2="206.5" y2="25.3"/>
<line fill="none" stroke="#000000" stroke-width="2" stroke-miterlimit="10" x1="182.5" y1="59.3" x2="135.5" y2="24.3"/>
<line fill="none" stroke="#000000" stroke-width="2" stroke-miterlimit="10" x1="206.5" y1="25.3" x2="258.5" y2="23.3"/>
<line fill="none" stroke="#000000" stroke-width="2" stroke-miterlimit="10" x1="258.5" y1="23.3" x2="236.5" y2="73.3"/>
<line fill="none" stroke="#000000" stroke-width="2" stroke-miterlimit="10" x1="258.5" y1="23.3" x2="269.5" y2="69.3"/>
<line fill="none" stroke="#000000" stroke-width="2" stroke-miterlimit="10" x1="269.5" y1="69.3" x2="206.5" y2="25.3"/>
<line fill="none" stroke="#000000" stroke-width="2" stroke-miterlimit="10" x1="111.5" y1="49.3" x2="136.5" y2="74.5"/>
<g>
	<path fill="none" stroke="#CE59A0" stroke-width="2" stroke-miterlimit="10" stroke-dasharray="6.0956,6.0956" d="M164.7,22.5
		c16.3,12.6,44.6,34.6,18.7,54.3c-20.4,15.5-50.7,21.1-72.9,5.4c-15.1-10.7-13.5-51-4.7-65C116.6-0.2,151.2,16.5,164.7,22.5z"/>
</g>
<g>
	<path fill="none" stroke="#CE59A0" stroke-width="2" stroke-miterlimit="10" stroke-dasharray="5.9777,5.9777" d="M9.6,76.8
		C2.8,50-2.5,25,30.1,15.5C41.7,12.2,90-0.6,90,16.2c0,17.7,7.2,65.4-13,70.2C55,91.6,26.1,96.1,9.6,76.8z"/>
</g>
<g>
	<path fill="none" stroke="#CE59A0" stroke-width="2" stroke-miterlimit="10" stroke-dasharray="6.1163,6.1163" d="M188.7,19.5
		c0.7,9.2,12.1,18.8,17,26c7.6,11.1,9.3,26.8,17.4,37.2c17.9,23.1,54.1,5.7,59.5-17.9c6.4-27.6-2-53.7-31-57.4
		C241.6,6.2,187-1.5,188.7,19.5z"/>
</g>
<line fill="none" stroke="#000000" stroke-width="2" stroke-miterlimit="10" x1="18.3" y1="36.8" x2="79" y2="24.2"/>
</svg>
