<?xml version="1.0" encoding="utf-8"?>
<!-- Generator: Adobe Illustrator 18.0.0, SVG Export Plug-In . SVG Version: 6.00 Build 0)  -->
<!DOCTYPE svg PUBLIC "-//W3C//DTD SVG 1.1//EN" "http://www.w3.org/Graphics/SVG/1.1/DTD/svg11.dtd">
<svg version="1.1" id="Layer_1" xmlns="http://www.w3.org/2000/svg" xmlns:xlink="http://www.w3.org/1999/xlink" x="0px" y="0px"
	 viewBox="0 0 270 90" enable-background="new 0 0 270 90" xml:space="preserve">
<g>
	<line fill="none" stroke="#231F20" stroke-width="2" stroke-miterlimit="10" x1="156.2" y1="45" x2="192.9" y2="45.1"/>
	<g>
		<rect x="169.9" y="30" fill="#CF5AA1" stroke="#010101" stroke-width="2" stroke-miterlimit="10" width="10.2" height="10.2"/>
		<rect x="169.9" y="40" fill="#CF5AA1" stroke="#010101" stroke-width="2" stroke-miterlimit="10" width="10.2" height="10.2"/>
		<rect x="169.9" y="50" fill="#CF5AA1" stroke="#010101" stroke-width="2" stroke-miterlimit="10" width="10.2" height="10.2"/>
	</g>
	<g>
		<g>
			<g>
				<rect x="93.6" y="30.1" fill="#FFFFFF" stroke="#010101" stroke-width="2" stroke-miterlimit="10" width="62.2" height="30"/>
			</g>
			<rect x="93.6" y="31" fill="#231F20" width="62.6" height="5.1"/>
		</g>
		<text transform="matrix(0.9772 0 0 1 99.1922 45.6432)" fill="#231F20" font-family="'InputMono-Bold'" font-size="6">&gt;calculate</text>
		<text transform="matrix(0.9772 0 0 1 99.1922 52.8424)" fill="#231F20" font-family="'InputMono-Bold'" font-size="6">Average</text>
	</g>
	<g>
		<g>
			<rect x="18.4" y="25.9" fill="#CF5AA1" width="7" height="46.6"/>
			<circle fill="#CF5AA1" cx="21.9" cy="73.4" r="7.2"/>
			<path fill="none" stroke="#010101" stroke-width="2" stroke-miterlimit="10" d="M25.4,66.5c0-0.1,0-0.2,0-0.4V15.9
				c0-1.9-1.6-3.5-3.5-3.5h0c-1.9,0-3.5,1.6-3.5,3.5v50.2c0,0.1,0,0.2,0,0.4c-2.3,1.2-3.9,3.7-3.9,6.5c0,4.1,3.3,7.4,7.4,7.4
				c4.1,0,7.4-3.3,7.4-7.4C29.3,70.1,27.7,67.7,25.4,66.5z"/>
		</g>
		<path fill="none" stroke="#010101" stroke-width="2" stroke-miterlimit="10" d="M35.3,88.2H8.6c-2.9,0-5.2-2.3-5.2-5.2V7.2
			C3.4,4.3,5.7,2,8.6,2h26.7c2.9,0,5.2,2.3,5.2,5.2V83C40.4,85.9,38.1,88.2,35.3,88.2z"/>
	</g>
	<g>
		<g>
			<g>
				<path fill="#010101" stroke="#010101" stroke-width="2" stroke-miterlimit="10" d="M263,64.7h-66.6c-2,0-3.6-1.6-3.6-3.6V29
					c0-2,1.6-3.6,3.6-3.6H263c2,0,3.6,1.6,3.6,3.6v32.2C266.6,63.2,265,64.7,263,64.7z"/>
			</g>
		</g>
		<text transform="matrix(0.9772 0 0 1 197.1734 33.9212)" fill="#FFFFFF" font-family="'ChambersSansOT-Bold'" font-size="6">AVERAGE TEMPERATURE</text>
		<g>
			<path fill="#FFFFFF" d="M223.8,48c0,2-1.5,3.3-3.7,3.3h-0.7c-2,0-3.6-1.2-3.6-3.3v-5.1c0-2.2,1.5-3.5,3.7-3.5h3.5
				c0.1,0,0.2,0.1,0.2,0.2v1.2c0,0.1-0.1,0.2-0.2,0.2h-3.3c-1.3,0-2.1,0.7-2.1,2v2.4l0.6-0.7c0.6-0.7,1.3-1.1,2.3-1.1h0.5
				c1.6,0,2.7,1.1,2.7,2.9V48z M222,46.6c0-0.9-0.4-1.4-1.2-1.4h-0.4c-0.6,0-1.1,0.3-1.5,0.8l-1.2,1.3v0.6c0,1.1,0.8,1.7,1.8,1.7
				h0.5c1.2,0,2-0.6,2-1.7V46.6z"/>
			<path fill="#FFFFFF" d="M234.4,48.1c0,2-1.5,3.1-3.5,3.1h-1.6c-2,0-3.5-1.1-3.5-3.1v-0.6c0-1.4,1.1-2.3,1.8-2.5
				c-0.7-0.3-1.5-1.1-1.5-2.3v-0.4c0-2.1,1.5-3.1,3.6-3.1h0.8c2,0,3.6,1,3.6,3.1v0.4c0,1.2-0.7,2-1.5,2.3c0.7,0.2,1.8,1.1,1.8,2.5
				V48.1z M232.5,47.5c0-1-0.8-1.6-1.9-1.6h-1.1c-1.1,0-1.9,0.6-1.9,1.6V48c0,1.1,0.7,1.6,1.8,1.6h1.3c1.1,0,1.8-0.5,1.8-1.6V47.5z
				 M232.2,42.3c0-1-0.8-1.5-1.9-1.5h-0.4c-1.1,0-1.9,0.5-1.9,1.5v0.4c0,1,0.8,1.5,1.8,1.5h0.6c1,0,1.8-0.5,1.8-1.5V42.3z"/>
			<path fill="#FFFFFF" d="M240.6,45.2h-1.1c-1.6,0-2.9-1.1-2.9-2.9v-0.5c0-1.6,1.2-2.9,2.9-2.9h1.1c1.7,0,3,1.2,3,2.9v0.5
				C243.6,44,242.2,45.2,240.6,45.2z M241.8,42c0-0.9-0.6-1.6-1.5-1.6h-0.5c-0.9,0-1.5,0.7-1.5,1.6v0.1c0,0.9,0.5,1.6,1.5,1.6h0.5
				c0.9,0,1.5-0.7,1.5-1.6V42z"/>
		</g>
		<text transform="matrix(1 0 0 1 200.3105 60.4535)" fill="#FFFFFF" font-family="'ChambersSansOT-Bold'" font-size="6">continuously updated</text>
	</g>
</g>
<g>
	<line fill="none" stroke="#010101" stroke-width="2" stroke-miterlimit="10" x1="40.4" y1="45" x2="93.6" y2="45"/>
	<g>
		<rect x="48" y="41" fill="#CF5AA1" width="8" height="8"/>
		<rect x="61" y="41" fill="#CF5AA1" width="8" height="8"/>
		<rect x="74" y="41" fill="#CF5AA1" width="8" height="8"/>
	</g>
	<polyline fill="none" stroke="#010101" stroke-width="2" stroke-linejoin="bevel" stroke-miterlimit="10" points="88.6,41.1 
		92.6,45.1 88.6,49.1 	"/>
</g>
<polyline fill="none" stroke="#010101" stroke-width="2" stroke-linejoin="bevel" stroke-miterlimit="10" points="164.9,41 
	168.9,45 164.9,49 "/>
<polyline fill="none" stroke="#010101" stroke-width="2" stroke-linejoin="bevel" stroke-miterlimit="10" points="187.9,41 
	191.9,45 187.9,49 "/>
</svg>
