<?xml version="1.0" encoding="utf-8"?>
<!-- Generator: Adobe Illustrator 18.0.0, SVG Export Plug-In . SVG Version: 6.00 Build 0)  -->
<!DOCTYPE svg PUBLIC "-//W3C//DTD SVG 1.1//EN" "http://www.w3.org/Graphics/SVG/1.1/DTD/svg11.dtd">
<svg version="1.1" id="Layer_1" xmlns="http://www.w3.org/2000/svg" xmlns:xlink="http://www.w3.org/1999/xlink" x="0px" y="0px"
	 viewBox="0 0 135 120" enable-background="new 0 0 135 120" xml:space="preserve">
<g>
	<circle fill="none" stroke="#D058A1" stroke-width="3" stroke-miterlimit="10" stroke-dasharray="4" cx="67.5" cy="60" r="40.7"/>
	<g>
		<g>
			<g>
				<path fill="#FFFFFF" stroke="#231F20" stroke-width="2" stroke-miterlimit="10" d="M91.4,20.2c-16,0-32.1,0-48.1,0
					c-1.1,0-1.6-0.8-1.2-1.8c0.9-2.5,1.8-4.9,2.7-7.4c0.4-1,1.4-1.8,2.3-1.8c13.5,0,27.1,0,40.6,0c0.9,0,1.9,0.8,2.3,1.8
					c0.9,2.5,1.8,4.9,2.7,7.4C93,19.4,92.5,20.2,91.4,20.2z"/>
				<path fill="#231F20" stroke="#231F20" stroke-miterlimit="10" d="M53.2,15.2c-1.7,0-3.4,0-5,0c-0.8,0-1.2-0.6-1-1.4
					c0.1-0.2,0.1-0.5,0.2-0.7c0.3-0.8,1.1-1.4,1.8-1.4c1.6,0,3.2,0,4.8,0c0.8,0,1.2,0.6,1.1,1.4c0,0.2-0.1,0.5-0.1,0.7
					C54.8,14.5,54,15.2,53.2,15.2z"/>
				<path fill="#D058A1" d="M48.7,14.7C48.7,14.7,48.6,14.7,48.7,14.7c-0.5,0-0.8-0.4-0.6-0.8c0.1-0.3,0.2-0.5,0.2-0.8
					c0.1-0.5,0.6-0.8,1.1-0.8c0,0,0,0,0.1,0c0.4,0,0.7,0.4,0.6,0.8c-0.1,0.3-0.1,0.5-0.2,0.8C49.6,14.3,49.1,14.7,48.7,14.7z"/>
			</g>
		</g>
		<g>
			<g>
				<path fill="#FFFFFF" stroke="#231F20" stroke-width="2.1945" stroke-miterlimit="10" d="M94.2,110.7H40.8c-2,0-3.7-1.5-3.7-3.3
					V98c0-1.8,1.6-0.6,3.7-0.6h52.9c2,0,4-1.6,4,0.3v9.8C97.8,109.3,96.2,110.7,94.2,110.7z"/>
				<path fill="#D058A1" d="M49.2,106.8h-7c-0.8,0-1.4-0.6-1.4-1.4v-2.9c0-0.8,0.6-1.4,1.4-1.4h7c0.8,0,1.4,0.6,1.4,1.4v2.9
					C50.7,106.1,50,106.8,49.2,106.8z"/>
			</g>
			<g>
				<g>
					<path fill="#FFFFFF" stroke="#231F20" stroke-width="2.1945" stroke-miterlimit="10" d="M96,97.8c-19.1,0-38.1,0-57.2,0
						c-1.3,0-2.1-1-1.8-2.2c1.3-4.6,2.6-9.3,3.9-13.9c0.3-1.2,1.5-2.2,2.6-2.2c15.9,0,31.9,0,47.8,0c1.1,0,2.2,1,2.6,2.2
						c1.3,4.6,2.6,9.3,3.9,13.9C98.1,96.9,97.3,97.8,96,97.8z"/>
					<path fill="#D058A1" d="M90.4,94.8c-15.3,0-30.7,0-46,0c-2.2,0-3.5-1.7-3-3.7c0.4-1.6,0.8-3.3,1.2-4.9c0.5-2,2.5-3.7,4.4-3.7
						c13.6,0,27.2,0,40.8,0c1.9,0,3.9,1.7,4.4,3.7c0.4,1.6,0.8,3.3,1.2,4.9C93.9,93.2,92.6,94.8,90.4,94.8z"/>
					<path fill="#FFFFFF" d="M51.1,88.6c-1.2,0-2.5,0-3.7,0c-1.3,0-2.2-1.1-1.9-2.4c0-0.1,0-0.1,0-0.2c0.3-1.3,1.5-2.4,2.8-2.4
						c1.2,0,2.3,0,3.5,0c1.2,0,2.1,1.1,1.9,2.4c0,0.1,0,0.1,0,0.2C53.6,87.6,52.4,88.6,51.1,88.6z"/>
					<path fill="#FFFFFF" d="M73.2,88.6c-5.1,0-10.2,0-15.3,0c-1.3,0-2.3-1.1-2.1-2.4c0-0.1,0-0.1,0-0.2c0.2-1.3,1.3-2.4,2.5-2.4
						c4.9,0,9.7,0,14.6,0c1.2,0,2.3,1.1,2.5,2.4c0,0.1,0,0.1,0,0.2C75.5,87.6,74.5,88.6,73.2,88.6z"/>
					<path fill="#231F20" d="M88.1,88.6c-2.5,0-5,0-7.6,0c-1.3,0-2.5-1.1-2.6-2.4c0-0.1,0-0.1,0-0.2c-0.1-1.3,0.8-2.4,2-2.4
						c2.4,0,4.8,0,7.2,0c1.2,0,2.5,1.1,2.8,2.4c0,0.1,0,0.1,0,0.2C90.2,87.6,89.4,88.6,88.1,88.6z"/>
					<g>
						<path fill="#FFFFFF" d="M48.2,93.1c-0.9,0-1.8,0-2.8,0c-1,0-1.6-0.8-1.4-1.7c0,0,0-0.1,0-0.1c0.2-0.9,1.1-1.7,2.1-1.7
							c0.9,0,1.8,0,2.7,0c0.9,0,1.6,0.8,1.4,1.7c0,0,0,0.1,0,0.1C50,92.4,49.1,93.1,48.2,93.1z"/>
						<path fill="#FFFFFF" d="M55.9,93.1c-0.9,0-1.8,0-2.8,0c-1,0-1.6-0.8-1.5-1.7c0,0,0-0.1,0-0.1c0.1-0.9,1-1.7,2-1.7
							c0.9,0,1.8,0,2.7,0c0.9,0,1.6,0.8,1.5,1.7c0,0,0,0.1,0,0.1C57.7,92.4,56.9,93.1,55.9,93.1z"/>
					</g>
					<g>
						<path fill="#FFFFFF" d="M82.1,93.2c-0.9,0-1.8,0-2.8,0c-1,0-1.8-0.8-1.9-1.7c0,0,0-0.1,0-0.1c-0.1-0.9,0.6-1.7,1.5-1.7
							c0.9,0,1.8,0,2.7,0c0.9,0,1.8,0.8,2,1.7c0,0,0,0.1,0,0.1C83.7,92.4,83,93.2,82.1,93.2z"/>
						<path fill="#FFFFFF" d="M89.6,93.1c-0.9,0-1.8,0-2.8,0c-1,0-1.9-0.8-2-1.7c0,0,0-0.1,0-0.1c-0.2-0.9,0.5-1.7,1.4-1.7
							c0.9,0,1.8,0,2.7,0c0.9,0,1.9,0.8,2.1,1.7c0,0,0,0.1,0,0.1C91.2,92.4,90.6,93.1,89.6,93.1z"/>
					</g>
				</g>
			</g>
		</g>
		<g>
			<path fill="#231F20" d="M72.7,105.6c-0.4,0-0.7-0.2-0.7-0.6c0-0.1,0-0.2,0-0.3l0.1-0.8l-0.5-0.1c0,0,0,0,0,0l0-0.4
				c0,0,0-0.1,0.1-0.1h0.5l0-0.2c0,0,0-0.1,0.1-0.1l0.5-0.2c0,0,0,0,0,0c0,0,0.1,0,0.1,0.1l-0.1,0.5h0.6c0,0,0.1,0,0.1,0.1l0,0.5
				c0,0,0,0.1-0.1,0.1h-0.6l-0.1,0.7c0,0.1,0,0.3,0,0.3c0,0.1,0.1,0.2,0.2,0.2h0.4c0,0,0,0,0,0.1l0,0.4c0,0,0,0.1-0.1,0.1H72.7z"/>
			<path fill="#231F20" d="M73.8,105.6C73.8,105.6,73.8,105.6,73.8,105.6l0.2-2.2c0,0,0-0.1,0.1-0.1h0.5c0,0,0.1,0,0.1,0.1l0,0.5
				l0.2-0.3c0.1-0.2,0.3-0.3,0.5-0.3h0.1c0.3,0,0.4,0.2,0.5,0.4c0,0,0,0,0,0c0,0,0,0,0,0l-0.4,0.3c0,0,0,0,0,0c0,0,0,0,0,0
				c-0.1-0.1-0.1-0.2-0.2-0.2h0c-0.1,0-0.1,0.1-0.2,0.2l-0.5,0.6l-0.1,0.9c0,0,0,0.1-0.1,0.1H73.8z"/>
			<path fill="#231F20" d="M76.5,105.6C76.5,105.6,76.5,105.6,76.5,105.6l0.1-1.7l-0.5-0.1c0,0,0,0,0-0.1l0-0.4c0,0,0-0.1,0.1-0.1
				h1.1c0,0,0.1,0,0.1,0.1l-0.2,2.2c0,0,0,0.1-0.1,0.1H76.5z M76.8,102.8C76.7,102.8,76.7,102.8,76.8,102.8l0-0.6c0,0,0-0.1,0.1-0.1
				h0.7c0,0,0,0,0,0.1l-0.1,0.5c0,0,0,0.1-0.1,0.1H76.8z"/>
			<path fill="#231F20" d="M78.6,105.6c-0.5,0-0.8-0.3-0.8-0.8c0,0,0,0,0-0.1l0-0.3c0.1-0.7,0.5-1.1,1.2-1.1h0.2
				c0.5,0,0.9,0.2,0.9,0.7c0,0,0,0.1,0,0.2c0,0,0,0.1-0.1,0.1h-0.5c0,0,0,0,0,0c0,0,0-0.1,0-0.1c0-0.1-0.1-0.2-0.3-0.2H79
				c-0.3,0-0.5,0.2-0.5,0.5l0,0.3c0,0,0,0.1,0,0.1c0,0.2,0.1,0.3,0.3,0.3h1.1c0,0,0,0,0,0c0,0,0,0,0,0.5c0,0,0,0.1-0.1,0.1H78.6z"/>
			<path fill="#231F20" d="M81.2,105.6c-0.5,0-0.8-0.3-0.8-0.8c0,0,0-0.1,0-0.1l0-0.4c0.1-0.7,0.5-1.1,1.2-1.1h0.3
				c0.5,0,0.8,0.3,0.8,0.8c0,0,0,0.1,0,0.1l0,0.4c-0.1,0.7-0.5,1.1-1.2,1.1H81.2z M82,104.2c0,0,0-0.1,0-0.1c0-0.2-0.1-0.3-0.3-0.3
				h-0.2c-0.3,0-0.5,0.2-0.5,0.5l0,0.4c0,0.1,0,0.1,0,0.1c0,0.2,0.1,0.3,0.3,0.3h0.2c0.3,0,0.5-0.2,0.5-0.5L82,104.2z"/>
			<path fill="#231F20" d="M83.2,105.6C83.1,105.6,83.1,105.6,83.2,105.6l0.2-2.2c0,0,0-0.1,0.1-0.1h0.5c0,0,0.1,0,0.1,0.1l0,0.5
				l0.2-0.3c0.1-0.2,0.3-0.3,0.5-0.3h0.1c0.3,0,0.4,0.2,0.5,0.4c0,0,0,0,0,0c0,0,0,0,0,0l-0.4,0.3c0,0,0,0,0,0c0,0,0,0,0,0
				c-0.1-0.1-0.1-0.2-0.2-0.2h0c-0.1,0-0.1,0.1-0.2,0.2l-0.5,0.6l-0.1,0.9c0,0,0,0.1-0.1,0.1H83.2z"/>
			<path fill="#231F20" d="M86.9,105.6C86.9,105.6,86.9,105.6,86.9,105.6l0-0.5l-0.1,0.2c-0.2,0.2-0.3,0.4-0.6,0.4H86
				c-0.4,0-0.6-0.2-0.6-0.7c0,0,0-0.1,0-0.1l0.1-0.6c0.1-0.7,0.5-1.1,1-1.1h0c0.2,0,0.5,0.1,0.6,0.2l0.1-1.1c0,0,0-0.1,0.1-0.1h0.5
				c0,0,0,0,0,0c0,0,0,0.2,0,0.3l-0.3,2.9c0,0,0,0.1-0.1,0.1H86.9z M87,104.3l0-0.4c-0.1-0.1-0.3-0.1-0.4-0.1h-0.1
				c-0.3,0-0.5,0.2-0.5,0.5l0,0.5c0,0,0,0.1,0,0.1c0,0.1,0.1,0.2,0.2,0.2h0c0.2,0,0.3-0.1,0.4-0.3L87,104.3z"/>
			<path fill="#231F20" d="M89,105.6c-0.5,0-0.8-0.3-0.8-0.8c0,0,0-0.1,0-0.1l0-0.4c0.1-0.7,0.5-1.1,1.2-1.1h0.4
				c0.4,0,0.7,0.3,0.7,0.6c0,0.1,0,0.1,0,0.2c0,0.4-0.3,0.5-0.8,0.6l-0.8,0.2c0,0.1,0.1,0.2,0.3,0.2h1.1c0,0,0,0,0,0c0,0,0,0,0,0.5
				c0,0,0,0.1-0.1,0.1H89z M89.3,103.8c-0.3,0-0.5,0.2-0.5,0.5l0,0.1l0.6-0.2c0.2-0.1,0.4-0.1,0.4-0.2c0-0.1-0.1-0.2-0.2-0.2H89.3z"
				/>
			<path fill="#231F20" d="M90.8,105.6C90.7,105.6,90.7,105.6,90.8,105.6l0.2-2.2c0,0,0-0.1,0.1-0.1h0.5c0,0,0.1,0,0.1,0.1l0,0.5
				l0.2-0.3c0.1-0.2,0.3-0.3,0.5-0.3h0.1c0.3,0,0.4,0.2,0.5,0.4c0,0,0,0,0,0c0,0,0,0,0,0l-0.4,0.3c0,0,0,0,0,0c0,0,0,0,0,0
				c-0.1-0.1-0.1-0.2-0.2-0.2h0c-0.1,0-0.1,0.1-0.2,0.2l-0.5,0.6l-0.1,0.9c0,0,0,0.1-0.1,0.1H90.8z"/>
		</g>
		<g>
			<g>
				<path fill="#FFFFFF" stroke="#231F20" stroke-width="2.0218" stroke-miterlimit="10" d="M90.7,79.8c-15.6,0-31.1,0-46.7,0
					c-1.6,0-2.8-1.3-2.8-2.8c0.3-18.9,0.6-37.7,0.9-56.6c0-1.5,1.3-2.8,2.8-2.8c15,0,29.9,0,44.9,0c1.5,0,2.8,1.3,2.8,2.8
					c0.3,18.9,0.6,37.7,0.9,56.6C93.5,78.5,92.2,79.8,90.7,79.8z"/>
				<path fill="#D058A1" d="M90.1,36.6c-0.1-4.1-0.1-8.2-0.2-12.3c0-1.8-1.4-3.2-3.2-3.2c-13,0-26,0-38.9,0c-1.7,0-3.1,1.4-3.2,3.2
					c-0.2,16.4-0.5,32.7-0.7,49.1c0,1.8,1.4,3.2,3.2,3.2c13.4,0,26.9,0,40.3,0c1.8,0,3.2-1.4,3.2-3.2c-0.1-3.9-0.1-7.8-0.2-11.7
					c-11.5,0-23.1,0-34.6,0c0.1-8.4,0.1-16.7,0.2-25.1C67.4,36.6,78.8,36.6,90.1,36.6z"/>
				<path fill="#231F20" stroke="#231F20" stroke-width="2" stroke-miterlimit="10" d="M87.9,58.3c-8.8,0-17.6,0-26.4,0
					c-0.8,0-1.4-0.6-1.4-1.4c0-4.7,0-9.4,0.1-14c0-0.8,0.7-1.4,1.4-1.4c8.7,0,17.4,0,26.1,0c0.8,0,1.4,0.6,1.5,1.4
					c0.1,4.7,0.1,9.4,0.2,14C89.4,57.7,88.7,58.3,87.9,58.3z"/>
				<path fill="#FFFFFF" d="M50.4,31.5c-0.1,0-0.2,0-0.2,0c-2,0-3.6-1.7-3.6-3.7c0-0.1,0-0.2,0-0.3c0-2,1.7-3.7,3.7-3.7
					c0.1,0,0.2,0,0.2,0c2,0,3.6,1.7,3.6,3.7c0,0.1,0,0.2,0,0.3C54,29.9,52.4,31.5,50.4,31.5z"/>
				<path fill="#FFFFFF" d="M53.8,47.9c-2.6,0-5.1,0-7.7,0c0-0.9,0-1.8,0-2.6c2.5,0,5.1,0,7.6,0C53.8,46.2,53.8,47.1,53.8,47.9z"/>
				<path fill="#FFFFFF" d="M53.8,52.8c-2.6,0-5.1,0-7.7,0c0-0.9,0-1.8,0-2.6c2.6,0,5.1,0,7.7,0C53.8,51.1,53.8,52,53.8,52.8z"/>
				<path fill="#FFFFFF" d="M53.9,43.1c-2.5,0-5.1,0-7.6,0c0-0.9,0-1.8,0-2.6c2.5,0,5.1,0,7.6,0C53.9,41.3,53.9,42.2,53.9,43.1z"/>
				<path fill="#FFFFFF" d="M53.9,38.2c-2.5,0-5.1,0-7.6,0c0-0.9,0-1.8,0-2.6c2.5,0,5.1,0,7.6,0C53.9,36.4,53.9,37.3,53.9,38.2z"/>
				<path fill="#FFFFFF" d="M53.7,57.7c-2.6,0-5.1,0-7.7,0c0-0.9,0-1.8,0-2.6c2.6,0,5.1,0,7.7,0C53.7,56,53.7,56.8,53.7,57.7z"/>
				<path fill="#FFFFFF" d="M53.7,62.6c-2.6,0-5.2,0-7.7,0c0-0.9,0-1.8,0-2.6c2.6,0,5.1,0,7.7,0C53.7,60.9,53.7,61.7,53.7,62.6z"/>
				<path fill="#FFFFFF" d="M49.8,74.7c-0.1,0-0.2,0-0.3,0c-2.1,0-3.7-1.7-3.7-3.7c0-0.2,0-0.4,0-0.7c0-2,1.7-3.7,3.8-3.7
					c0.1,0,0.2,0,0.3,0c2.1,0,3.7,1.7,3.7,3.7c0,0.2,0,0.4,0,0.7C53.6,73.1,51.9,74.7,49.8,74.7z"/>
				<path fill="#FFFFFF" d="M61.6,31.5c-0.1,0-0.2,0-0.2,0c-2,0-3.7-1.7-3.6-3.7c0-0.1,0-0.2,0-0.3c0-2,1.7-3.7,3.7-3.7
					c0.1,0,0.2,0,0.2,0c2,0,3.6,1.7,3.6,3.7c0,0.1,0,0.2,0,0.3C65.2,29.9,63.6,31.5,61.6,31.5z"/>
				<path fill="#FFFFFF" d="M75.6,31.5c-0.1,0-0.2,0-0.2,0c-2,0-3.7-1.7-3.7-3.7c0-0.1,0-0.2,0-0.3c0-2,1.6-3.7,3.6-3.7
					c0.1,0,0.2,0,0.2,0c2,0,3.7,1.7,3.7,3.7c0,0.1,0,0.2,0,0.3C79.3,29.9,77.7,31.5,75.6,31.5z"/>
				<path fill="#FFFFFF" d="M84.5,31.5c-0.1,0-0.2,0-0.2,0c-2,0-3.7-1.7-3.7-3.7c0-0.1,0-0.2,0-0.3c0-2,1.6-3.7,3.6-3.7
					c0.1,0,0.2,0,0.2,0c2,0,3.7,1.7,3.7,3.7c0,0.1,0,0.2,0,0.3C88.1,29.9,86.5,31.5,84.5,31.5z"/>
				<path fill="#FFFFFF" d="M65.7,74.7c-0.5,0-1.1,0-1.6,0c-1.7,0-3.1-1.4-3.1-3.1c0-0.1,0-0.1,0-0.2c0-1.7,1.4-3.1,3.1-3.1
					c0.5,0,1,0,1.6,0c1.7,0,3.1,1.4,3.1,3.1c0,0.1,0,0.1,0,0.2C68.8,73.3,67.4,74.7,65.7,74.7z"/>
				<path fill="#FFFFFF" d="M75.3,74.7c-0.5,0-1.1,0-1.6,0c-1.7,0-3.1-1.4-3.1-3.1c0-0.1,0-0.1,0-0.2c0-1.7,1.4-3.1,3.1-3.1
					c0.5,0,1,0,1.6,0c1.7,0,3.1,1.4,3.1,3.1c0,0.1,0,0.1,0,0.2C78.4,73.3,77,74.7,75.3,74.7z"/>
				<path fill="#FFFFFF" d="M84.9,74.7c-0.5,0-1.1,0-1.6,0c-1.7,0-3.1-1.4-3.1-3.1c0-0.1,0-0.1,0-0.2c0-1.7,1.4-3.1,3.1-3.1
					c0.5,0,1,0,1.6,0c1.7,0,3.1,1.4,3.1,3.1c0,0.1,0,0.1,0,0.2C88,73.3,86.6,74.7,84.9,74.7z"/>
				<path fill="#231F20" d="M49.7,72.7C49.7,72.7,49.7,72.7,49.7,72.7c-0.6,0-1-0.4-1-0.9c0-0.8,0-1.5,0-2.3c0-0.5,0.4-0.9,0.9-0.9
					c0,0,0,0,0.1,0c0.5,0,0.9,0.4,0.9,0.9c0,0.8,0,1.5,0,2.3C50.7,72.3,50.2,72.7,49.7,72.7z"/>
				<g>
					<path fill="#D058A1" d="M48.4,26.1C48.4,26,48.4,26,48.4,26.1c0-0.6,0.4-1,0.9-1c0.7,0,1.4,0,2.1,0c0.5,0,0.9,0.4,0.9,0.9
						c0,0,0,0,0,0.1c0,0.5-0.4,0.9-0.9,0.9c-0.7,0-1.4,0-2.1,0C48.7,27,48.3,26.6,48.4,26.1z"/>
					<path fill="#D058A1" d="M48.3,28.7C48.3,28.6,48.3,28.6,48.3,28.7c0-0.6,0.4-1,0.9-1c0.7,0,1.4,0,2.1,0c0.5,0,0.9,0.4,0.9,0.9
						c0,0,0,0,0,0.1c0,0.5-0.4,0.9-0.9,0.9c-0.7,0-1.4,0-2.1,0C48.7,29.6,48.3,29.2,48.3,28.7z"/>
				</g>
				<g>
					<path fill="#D058A1" stroke="#D058A1" stroke-width="1.2828" stroke-miterlimit="10" d="M84.4,46.1c-6.6,0-13.1,0-19.7,0
						c-0.5,0-0.8-0.4-0.8-0.8c0,0,0,0,0-0.1c0-0.5,0.4-0.8,0.8-0.8c6.6,0,13.1,0,19.7,0c0.5,0,0.8,0.4,0.8,0.8c0,0,0,0,0,0.1
						C85.2,45.7,84.9,46.1,84.4,46.1z"/>
					<g>
						<path fill="#D058A1" stroke="#D058A1" stroke-width="1.2828" stroke-miterlimit="10" d="M65.6,55.4c-0.1,0-0.2,0-0.4,0
							c-0.8,0-1.4-0.6-1.4-1.4c0-2.7,0-5.4,0-8.2c0-0.8,0.6-1.4,1.4-1.4c0.1,0,0.2,0,0.3,0c0.8,0,1.4,0.6,1.4,1.4c0,2.7,0,5.4,0,8.2
							C67.1,54.7,66.4,55.4,65.6,55.4z"/>
						<g>
							<path fill="#FFFFFF" d="M70.8,53c-0.2,0-0.3,0-0.5,0c-0.8,0-1.4-0.6-1.4-1.4c0-0.7,0-1.3,0-2c0-0.8,0.6-1.4,1.4-1.4
								c0.2,0,0.3,0,0.5,0c0.8,0,1.4,0.6,1.4,1.4c0,0.7,0,1.3,0,2C72.3,52.4,71.6,53,70.8,53z"/>
							<path fill="#FFFFFF" d="M75.1,53c-0.2,0-0.3,0-0.5,0c-0.8,0-1.4-0.6-1.4-1.4c0-0.7,0-1.3,0-2c0-0.8,0.6-1.4,1.4-1.4
								c0.2,0,0.3,0,0.5,0c0.8,0,1.4,0.6,1.4,1.4c0,0.7,0,1.3,0,2C76.5,52.4,75.9,53,75.1,53z"/>
						</g>
						<g>
							<g>
								<path fill="#FFFFFF" d="M80.5,48.9C80.5,48.9,80.5,48.9,80.5,48.9c0-0.4,0.3-0.7,0.7-0.7c1.2,0,2.4,0,3.6,0
									c0.4,0,0.7,0.3,0.7,0.7c0,0,0,0,0,0c0,0.4-0.3,0.7-0.7,0.7c-1.2,0-2.4,0-3.6,0C80.8,49.6,80.5,49.3,80.5,48.9z"/>
								<path fill="#FFFFFF" d="M80.5,50.7C80.5,50.7,80.5,50.7,80.5,50.7c0-0.4,0.3-0.7,0.7-0.7c1.2,0,2.4,0,3.6,0
									c0.4,0,0.7,0.3,0.7,0.7c0,0,0,0,0,0c0,0.4-0.3,0.7-0.7,0.7c-1.2,0-2.4,0-3.7,0C80.9,51.4,80.5,51.1,80.5,50.7z"/>
							</g>
							<g>
								<path fill="#FFFFFF" d="M80.6,52.5C80.6,52.5,80.6,52.5,80.6,52.5c0-0.4,0.3-0.7,0.7-0.7c1.2,0,2.4,0,3.7,0
									c0.4,0,0.7,0.3,0.7,0.7c0,0,0,0,0,0c0,0.4-0.3,0.7-0.7,0.7c-1.2,0-2.4,0-3.7,0C80.9,53.2,80.6,52.9,80.6,52.5z"/>
								<path fill="#FFFFFF" d="M80.6,54.3C80.6,54.3,80.6,54.2,80.6,54.3c0-0.4,0.3-0.7,0.7-0.7c1.2,0,2.4,0,3.7,0
									c0.4,0,0.7,0.3,0.7,0.7c0,0,0,0,0,0c0,0.4-0.3,0.7-0.7,0.7c-1.2,0-2.4,0-3.7,0C80.9,55,80.6,54.7,80.6,54.3z"/>
							</g>
						</g>
					</g>
				</g>
			</g>
		</g>
		<g>
			<path fill="#231F20" stroke="#231F20" stroke-miterlimit="10" d="M61.3,81h-9.5c-0.7,0-1.2-0.6-1.2-1.2v-0.1
				c0-0.7,0.6-1.2,1.2-1.2h9.5c0.7,0,1.2,0.6,1.2,1.2v0.1C62.5,80.5,62,81,61.3,81z"/>
			<path fill="#231F20" stroke="#231F20" stroke-miterlimit="10" d="M82.9,81h-9.5c-0.7,0-1.2-0.6-1.2-1.2v-0.1
				c0-0.7,0.6-1.2,1.2-1.2h9.5c0.7,0,1.2,0.6,1.2,1.2v0.1C84.1,80.5,83.5,81,82.9,81z"/>
		</g>
	</g>
</g>
</svg>
