<svg width="270" height="156" viewBox="0 0 270 156" fill="none" xmlns="http://www.w3.org/2000/svg">
<g clip-path="url(#clip0)">
<rect width="270" height="156" fill="white"/>
<path d="M78 108V5.89091L75 0H0V104L4.875 108H78Z" transform="translate(30 24)" fill="#EFEFEF" stroke="black"/>
<rect width="75" height="104" transform="translate(30 24)" fill="#8DD4FF" stroke="black"/>
<path d="M3.42774 8.17434H3.35268C3.30264 8.29666 3.24148 8.41342 3.1692 8.52462C3.09692 8.63582 3.00796 8.7359 2.90232 8.82486C2.79668 8.90826 2.67158 8.97498 2.52702 9.02502C2.38802 9.07506 2.22956 9.10008 2.05164 9.10008C1.76808 9.10008 1.5151 9.03336 1.2927 8.89992C1.07586 8.76648 0.89238 8.57188 0.74226 8.31612C0.59214 8.06036 0.47816 7.749 0.40032 7.38204C0.32804 7.01508 0.2919 6.60086 0.2919 6.13938C0.2919 5.1497 0.4726 4.39354 0.834 3.8709C1.1954 3.3427 1.75418 3.0786 2.51034 3.0786C2.81058 3.0786 3.07468 3.1203 3.30264 3.2037C3.5306 3.28154 3.7252 3.39552 3.88644 3.54564C4.05324 3.6902 4.18946 3.86534 4.2951 4.07106C4.40074 4.27678 4.48414 4.50474 4.5453 4.75494L3.3777 5.0385C3.34434 4.91618 3.30542 4.79942 3.26094 4.68822C3.22202 4.57146 3.1692 4.4686 3.10248 4.37964C3.03576 4.29068 2.95236 4.22118 2.85228 4.17114C2.7522 4.11554 2.62988 4.08774 2.48532 4.08774C2.1684 4.08774 1.94322 4.2184 1.80978 4.47972C1.6819 4.74104 1.61796 5.108 1.61796 5.5806V6.53136C1.61796 7.00396 1.68746 7.38204 1.82646 7.6656C1.97102 7.94916 2.224 8.09094 2.5854 8.09094C2.86896 8.09094 3.08024 8.00754 3.21924 7.84074C3.35824 7.67394 3.42774 7.45988 3.42774 7.19856V6.77322H2.43528V5.88918H4.5453V9H3.42774V8.17434ZM7.6195 9.10008C6.8967 9.10008 6.34904 8.89992 5.97652 8.4996C5.604 8.09928 5.41774 7.5544 5.41774 6.86496C5.41774 6.51468 5.465 6.20054 5.55952 5.92254C5.6596 5.63898 5.7986 5.3999 5.97652 5.2053C6.16 5.00514 6.37962 4.85502 6.63538 4.75494C6.8967 4.6493 7.1886 4.59648 7.51108 4.59648C7.83356 4.59648 8.12268 4.6493 8.37844 4.75494C8.6342 4.85502 8.85104 4.99958 9.02896 5.18862C9.20688 5.37766 9.3431 5.6084 9.43762 5.88084C9.5377 6.14772 9.58774 6.44796 9.58774 6.78156V7.14852H6.64372V7.22358C6.64372 7.50158 6.7299 7.72676 6.90226 7.89912C7.07462 8.06592 7.3276 8.14932 7.6612 8.14932C7.91696 8.14932 8.13658 8.10206 8.32006 8.00754C8.50354 7.90746 8.662 7.7768 8.79544 7.61556L9.46264 8.34114C9.29584 8.54686 9.06232 8.72478 8.76208 8.8749C8.46184 9.02502 8.08098 9.10008 7.6195 9.10008ZM7.51942 5.48052C7.25254 5.48052 7.03848 5.56392 6.87724 5.73072C6.72156 5.89196 6.64372 6.11158 6.64372 6.38958V6.4563H8.37844V6.38958C8.37844 6.10602 8.3006 5.88362 8.14492 5.72238C7.9948 5.56114 7.7863 5.48052 7.51942 5.48052ZM10.6186 8.0409H11.6111V5.65566H10.6186V4.69656H12.8454V5.9142H12.9038C12.9427 5.75852 12.9955 5.6084 13.0623 5.46384C13.1345 5.31372 13.2235 5.18306 13.3291 5.07186C13.4403 4.9551 13.5738 4.86336 13.7295 4.79664C13.8851 4.72992 14.0686 4.69656 14.2799 4.69656H14.6886V5.8308H13.7712C13.4654 5.8308 13.2346 5.92254 13.0789 6.10602C12.9233 6.28394 12.8454 6.50356 12.8454 6.76488V8.0409H14.2632V9H10.6186V8.0409ZM15.2524 9V4.69656H16.2449V5.3304H16.3033C16.37 5.13024 16.4645 4.95788 16.5868 4.81332C16.7147 4.66876 16.8926 4.59648 17.1206 4.59648C17.5376 4.59648 17.7933 4.84112 17.8879 5.3304H17.9379C17.9713 5.23032 18.013 5.1358 18.063 5.04684C18.113 4.95788 18.1742 4.88004 18.2465 4.81332C18.3188 4.7466 18.4049 4.69378 18.505 4.65486C18.6051 4.61594 18.7219 4.59648 18.8553 4.59648C19.4558 4.59648 19.756 5.0385 19.756 5.92254V9H18.7636V6.04764C18.7636 5.84748 18.7274 5.70848 18.6551 5.63064C18.5884 5.54724 18.4995 5.50554 18.3883 5.50554C18.2826 5.50554 18.1909 5.54168 18.113 5.61396C18.0408 5.68068 18.0046 5.78632 18.0046 5.93088V9H17.0038V6.04764C17.0038 5.84748 16.9705 5.70848 16.9037 5.63064C16.8426 5.54724 16.7564 5.50554 16.6452 5.50554C16.534 5.50554 16.4395 5.54168 16.3616 5.61396C16.2838 5.68068 16.2449 5.78632 16.2449 5.93088V9H15.2524ZM24.0645 9C23.8088 9 23.6031 8.93606 23.4474 8.80818C23.2917 8.67474 23.2 8.4857 23.1722 8.24106H23.1305C23.0526 8.52462 22.8969 8.73868 22.6634 8.88324C22.4355 9.0278 22.1547 9.10008 21.8211 9.10008C21.4041 9.10008 21.0677 8.98888 20.8119 8.76648C20.5617 8.53852 20.4366 8.2216 20.4366 7.81572C20.4366 7.36536 20.6007 7.03176 20.9287 6.81492C21.2567 6.59808 21.7377 6.48966 22.3715 6.48966H23.0637V6.27282C23.0637 6.01706 23.0026 5.82524 22.8803 5.69736C22.7635 5.56392 22.5633 5.4972 22.2798 5.4972C22.0185 5.4972 21.8072 5.54724 21.6459 5.64732C21.4847 5.7474 21.3457 5.87806 21.2289 6.0393L20.5534 5.43882C20.698 5.19418 20.9231 4.99402 21.2289 4.83834C21.5403 4.6771 21.9378 4.59648 22.4216 4.59648C23.0109 4.59648 23.4696 4.7327 23.7977 5.00514C24.1313 5.27202 24.2981 5.6779 24.2981 6.22278V8.10762H24.7735V9H24.0645ZM22.2881 8.2911C22.505 8.2911 22.6884 8.23828 22.8386 8.13264C22.9887 8.027 23.0637 7.8741 23.0637 7.67394V7.15686H22.4049C21.8989 7.15686 21.6459 7.32644 21.6459 7.6656V7.8324C21.6459 7.98252 21.7043 8.0965 21.8211 8.17434C21.9378 8.25218 22.0935 8.2911 22.2881 8.2911ZM25.5458 9V4.69656H26.7801V5.48052H26.8302C26.8802 5.3582 26.9414 5.24422 27.0137 5.13858C27.0859 5.03294 27.1721 4.9412 27.2722 4.86336C27.3778 4.77996 27.4974 4.71602 27.6308 4.67154C27.7698 4.6215 27.9255 4.59648 28.0979 4.59648C28.3036 4.59648 28.4926 4.63262 28.665 4.7049C28.8373 4.77162 28.9847 4.87448 29.107 5.01348C29.2293 5.15248 29.3238 5.32206 29.3906 5.52222C29.4628 5.72238 29.499 5.95312 29.499 6.21444V9H28.2647V6.38124C28.2647 5.82524 28.0228 5.54724 27.5391 5.54724C27.4446 5.54724 27.35 5.56114 27.2555 5.58894C27.1666 5.61118 27.0859 5.6501 27.0137 5.7057C26.9414 5.75574 26.883 5.81968 26.8385 5.89752C26.7996 5.97536 26.7801 6.0671 26.7801 6.17274V9H25.5458ZM35.5973 8.0409H36.865V5.65566H35.5139V4.69656H36.865V4.07106C36.865 3.7041 36.9707 3.40664 37.1819 3.17868C37.3988 2.94516 37.7324 2.8284 38.1827 2.8284H39.6422V3.7875H38.0993V4.69656H39.6422V5.65566H38.0993V8.0409H39.4504V9H35.5973V8.0409ZM42.5079 9.10008C42.1743 9.10008 41.8741 9.05004 41.6072 8.94996C41.3403 8.84432 41.1124 8.6942 40.9233 8.4996C40.7399 8.305 40.5981 8.0687 40.498 7.7907C40.3979 7.5127 40.3479 7.19856 40.3479 6.84828C40.3479 6.498 40.3979 6.18386 40.498 5.90586C40.5981 5.62786 40.7399 5.39156 40.9233 5.19696C41.1124 5.00236 41.3403 4.85502 41.6072 4.75494C41.8741 4.6493 42.1743 4.59648 42.5079 4.59648C42.8415 4.59648 43.1418 4.6493 43.4087 4.75494C43.6755 4.85502 43.9007 5.00236 44.0842 5.19696C44.2732 5.39156 44.4178 5.62786 44.5179 5.90586C44.618 6.18386 44.668 6.498 44.668 6.84828C44.668 7.19856 44.618 7.5127 44.5179 7.7907C44.4178 8.0687 44.2732 8.305 44.0842 8.4996C43.9007 8.6942 43.6755 8.84432 43.4087 8.94996C43.1418 9.05004 42.8415 9.10008 42.5079 9.10008ZM42.5079 8.18268C42.7859 8.18268 43.0028 8.0965 43.1585 7.92414C43.3141 7.75178 43.392 7.50714 43.392 7.19022V6.50634C43.392 6.18942 43.3141 5.94478 43.1585 5.77242C43.0028 5.60006 42.7859 5.51388 42.5079 5.51388C42.2299 5.51388 42.0131 5.60006 41.8574 5.77242C41.7017 5.94478 41.6239 6.18942 41.6239 6.50634V7.19022C41.6239 7.50714 41.7017 7.75178 41.8574 7.92414C42.0131 8.0965 42.2299 8.18268 42.5079 8.18268ZM45.6238 8.0409H46.6163V5.65566H45.6238V4.69656H47.8506V5.9142H47.909C47.9479 5.75852 48.0007 5.6084 48.0675 5.46384C48.1397 5.31372 48.2287 5.18306 48.3343 5.07186C48.4455 4.9551 48.579 4.86336 48.7347 4.79664C48.8903 4.72992 49.0738 4.69656 49.2851 4.69656H49.6938V5.8308H48.7764C48.4706 5.8308 48.2398 5.92254 48.0841 6.10602C47.9285 6.28394 47.8506 6.50356 47.8506 6.76488V8.0409H49.2684V9H45.6238V8.0409ZM0.53376 16.1787H2.41026C3.19422 16.1787 3.77524 16.4289 4.15332 16.9293C4.5314 17.4297 4.72044 18.1497 4.72044 19.0893C4.72044 20.029 4.5314 20.749 4.15332 21.2494C3.77524 21.7498 3.19422 22 2.41026 22H0.53376V16.1787ZM2.32686 21.0159C2.69938 21.0159 2.97182 20.8963 3.14418 20.6573C3.31654 20.4182 3.40272 20.0707 3.40272 19.6148V18.5556C3.40272 18.1052 3.31654 17.7605 3.14418 17.5214C2.97182 17.2823 2.69938 17.1628 2.32686 17.1628H1.76808V21.0159H2.32686ZM8.22832 21.216H8.17828C8.08376 21.4607 7.93364 21.6692 7.72792 21.8415C7.52776 22.0139 7.25532 22.1001 6.9106 22.1001C6.70488 22.1001 6.51584 22.0667 6.34348 22C6.17112 21.9277 6.02378 21.8221 5.90146 21.6831C5.77914 21.5441 5.68184 21.3745 5.60956 21.1743C5.54284 20.9742 5.50948 20.7434 5.50948 20.4821V17.6966H6.7438V20.3153C6.7438 20.8713 6.98566 21.1493 7.46938 21.1493C7.5639 21.1493 7.65564 21.1382 7.7446 21.116C7.83912 21.0882 7.91974 21.0492 7.98646 20.9992C8.05874 20.9436 8.11712 20.8769 8.1616 20.799C8.20608 20.7212 8.22832 20.6295 8.22832 20.5238V17.6966H9.46264V22H8.22832V21.216ZM12.8371 22C12.3923 22 12.0615 21.8832 11.8446 21.6497C11.6278 21.4162 11.5194 21.1187 11.5194 20.7573V18.6557H10.3518V17.6966H11.1107C11.2942 17.6966 11.4248 17.6604 11.5027 17.5881C11.5805 17.5159 11.6194 17.3824 11.6194 17.1878V16.1787H12.7537V17.6966H14.43V18.6557H12.7537V21.0409H14.43V22H12.8371ZM17.6794 22.1001C17.3402 22.1001 17.0344 22.05 16.762 21.95C16.4951 21.8443 16.2671 21.6942 16.0781 21.4996C15.8946 21.305 15.7528 21.0687 15.6527 20.7907C15.5527 20.5127 15.5026 20.1986 15.5026 19.8483C15.5026 19.498 15.5527 19.1839 15.6527 18.9059C15.7528 18.6279 15.8946 18.3916 16.0781 18.197C16.2671 18.0024 16.4951 17.855 16.762 17.7549C17.0344 17.6493 17.3374 17.5965 17.671 17.5965C18.1436 17.5965 18.5217 17.6938 18.8053 17.8884C19.0944 18.0774 19.314 18.3304 19.4641 18.6473L18.5134 19.1644C18.4355 18.9976 18.3327 18.8586 18.2048 18.7474C18.0825 18.6362 17.9045 18.5806 17.671 18.5806C17.3875 18.5806 17.1678 18.664 17.0122 18.8308C16.862 18.992 16.787 19.2144 16.787 19.498V20.1986C16.787 20.4821 16.862 20.7073 17.0122 20.8741C17.1678 21.0353 17.393 21.116 17.6877 21.116C17.9268 21.116 18.113 21.0604 18.2465 20.9492C18.3855 20.838 18.5022 20.6934 18.5968 20.5155L19.5308 21.0492C19.3752 21.3662 19.1472 21.6219 18.847 21.8165C18.5523 22.0056 18.1631 22.1001 17.6794 22.1001ZM20.5451 15.8284H21.7794V18.4805H21.8294C21.8795 18.3582 21.9406 18.2442 22.0129 18.1386C22.0852 18.0329 22.1714 17.9412 22.2714 17.8634C22.3771 17.78 22.4966 17.716 22.6301 17.6715C22.7691 17.6215 22.9247 17.5965 23.0971 17.5965C23.3028 17.5965 23.4919 17.6326 23.6642 17.7049C23.8366 17.7716 23.9839 17.8745 24.1062 18.0135C24.2286 18.1525 24.3231 18.3221 24.3898 18.5222C24.4621 18.7224 24.4982 18.9531 24.4982 19.2144V22H23.2639V19.3812C23.2639 18.8252 23.0221 18.5472 22.5383 18.5472C22.4438 18.5472 22.3493 18.5611 22.2548 18.5889C22.1658 18.6112 22.0852 18.6501 22.0129 18.7057C21.9406 18.7557 21.8822 18.8197 21.8378 18.8975C21.7988 18.9754 21.7794 19.0671 21.7794 19.1727V22H20.5451V15.8284ZM2.45196 35.1001C1.9738 35.1001 1.5568 35.0278 1.20096 34.8832C0.85068 34.7387 0.58658 34.5413 0.40866 34.2911L1.10088 33.6489C1.26768 33.8324 1.46228 33.977 1.68468 34.0826C1.91264 34.1827 2.17118 34.2327 2.4603 34.2327C2.70494 34.2327 2.89676 34.1966 3.03576 34.1243C3.17476 34.0465 3.24426 33.9297 3.24426 33.774C3.24426 33.6517 3.197 33.5683 3.10248 33.5238C3.00796 33.4738 2.8773 33.4349 2.7105 33.4071L2.01828 33.2986C1.82368 33.2708 1.64298 33.2291 1.47618 33.1735C1.30938 33.1124 1.16482 33.0318 1.0425 32.9317C0.92018 32.8316 0.82288 32.7093 0.7506 32.5647C0.67832 32.4202 0.64218 32.245 0.64218 32.0393C0.64218 31.5889 0.81454 31.2359 1.15926 30.9801C1.50398 30.7244 1.9877 30.5965 2.61042 30.5965C3.03298 30.5965 3.3916 30.6549 3.68628 30.7716C3.98652 30.8828 4.2256 31.0441 4.40352 31.2553L3.78636 31.9559C3.65848 31.8169 3.49446 31.7001 3.2943 31.6056C3.09414 31.5111 2.85228 31.4638 2.56872 31.4638C2.09056 31.4638 1.85148 31.6084 1.85148 31.8975C1.85148 32.0254 1.89874 32.1144 1.99326 32.1644C2.08778 32.2089 2.21844 32.245 2.38524 32.2728L3.06912 32.3812C3.26372 32.409 3.44442 32.4535 3.61122 32.5147C3.77802 32.5703 3.92258 32.6481 4.0449 32.7482C4.17278 32.8483 4.27286 32.9706 4.34514 33.1152C4.41742 33.2597 4.45356 33.4349 4.45356 33.6406C4.45356 34.0909 4.27842 34.4468 3.92814 34.7081C3.58342 34.9694 3.09136 35.1001 2.45196 35.1001ZM5.4928 30.6966H6.72712V31.4805H6.7855C6.89114 31.2248 7.04404 31.0135 7.2442 30.8467C7.44436 30.6799 7.7168 30.5965 8.06152 30.5965C8.3006 30.5965 8.51744 30.641 8.71204 30.7299C8.9122 30.8189 9.08178 30.9551 9.22078 31.1386C9.36534 31.3221 9.47654 31.5556 9.55438 31.8391C9.63778 32.1227 9.67948 32.4591 9.67948 32.8483C9.67948 33.2375 9.63778 33.5739 9.55438 33.8574C9.47654 34.141 9.36534 34.3745 9.22078 34.558C9.08178 34.7415 8.9122 34.8777 8.71204 34.9666C8.51744 35.0556 8.3006 35.1001 8.06152 35.1001C7.7168 35.1001 7.44436 35.0195 7.2442 34.8582C7.04404 34.6914 6.89114 34.4774 6.7855 34.216H6.72712V36.668H5.4928V30.6966ZM7.52776 34.141C7.80576 34.141 8.01982 34.0576 8.16994 33.8908C8.32006 33.7184 8.39512 33.4821 8.39512 33.1819V32.5147C8.39512 32.2144 8.32006 31.9809 8.16994 31.8141C8.01982 31.6418 7.80576 31.5556 7.52776 31.5556C7.31092 31.5556 7.12188 31.6084 6.96064 31.714C6.80496 31.8197 6.72712 31.9865 6.72712 32.2144V33.4821C6.72712 33.7101 6.80496 33.8769 6.96064 33.9825C7.12188 34.0882 7.31092 34.141 7.52776 34.141ZM12.6202 35.1001C11.8974 35.1001 11.3498 34.8999 10.9773 34.4996C10.6047 34.0993 10.4185 33.5544 10.4185 32.865C10.4185 32.5147 10.4657 32.2005 10.5603 31.9225C10.6603 31.639 10.7993 31.3999 10.9773 31.2053C11.1607 31.0051 11.3804 30.855 11.6361 30.7549C11.8974 30.6493 12.1893 30.5965 12.5118 30.5965C12.8343 30.5965 13.1234 30.6493 13.3792 30.7549C13.6349 30.855 13.8518 30.9996 14.0297 31.1886C14.2076 31.3777 14.3438 31.6084 14.4384 31.8808C14.5384 32.1477 14.5885 32.448 14.5885 32.7816V33.1485H11.6445V33.2236C11.6445 33.5016 11.7306 33.7268 11.903 33.8991C12.0754 34.0659 12.3283 34.1493 12.6619 34.1493C12.9177 34.1493 13.1373 34.1021 13.3208 34.0075C13.5043 33.9075 13.6627 33.7768 13.7962 33.6156L14.4634 34.3411C14.2966 34.5469 14.0631 34.7248 13.7628 34.8749C13.4626 35.025 13.0817 35.1001 12.6202 35.1001ZM12.5202 31.4805C12.2533 31.4805 12.0392 31.5639 11.878 31.7307C11.7223 31.892 11.6445 32.1116 11.6445 32.3896V32.4563H13.3792V32.3896C13.3792 32.106 13.3013 31.8836 13.1457 31.7224C12.9955 31.5611 12.787 31.4805 12.5202 31.4805ZM19.0638 35C18.808 35 18.6023 34.9361 18.4466 34.8082C18.291 34.6747 18.1992 34.4857 18.1714 34.2411H18.1297C18.0519 34.5246 17.8962 34.7387 17.6627 34.8832C17.4347 35.0278 17.1539 35.1001 16.8203 35.1001C16.4033 35.1001 16.067 34.9889 15.8112 34.7665C15.561 34.5385 15.4359 34.2216 15.4359 33.8157C15.4359 33.3654 15.5999 33.0318 15.928 32.8149C16.256 32.5981 16.7369 32.4897 17.3708 32.4897H18.063V32.2728C18.063 32.0171 18.0018 31.8252 17.8795 31.6974C17.7628 31.5639 17.5626 31.4972 17.279 31.4972C17.0177 31.4972 16.8064 31.5472 16.6452 31.6473C16.484 31.7474 16.345 31.8781 16.2282 32.0393L15.5527 31.4388C15.6972 31.1942 15.9224 30.994 16.2282 30.8383C16.5396 30.6771 16.9371 30.5965 17.4208 30.5965C18.0102 30.5965 18.4689 30.7327 18.7969 31.0051C19.1305 31.272 19.2973 31.6779 19.2973 32.2228V34.1076H19.7727V35H19.0638ZM17.2874 34.2911C17.5042 34.2911 17.6877 34.2383 17.8378 34.1326C17.9879 34.027 18.063 33.8741 18.063 33.6739V33.1569H17.4041C16.8982 33.1569 16.6452 33.3264 16.6452 33.6656V33.8324C16.6452 33.9825 16.7036 34.0965 16.8203 34.1743C16.9371 34.2522 17.0928 34.2911 17.2874 34.2911ZM20.5451 28.8284H21.7794V32.3312H21.8378L22.4132 31.6557L23.3139 30.6966H24.7318L23.0637 32.3979L24.9069 35H23.4391L22.188 33.0985L21.7794 33.5071V35H20.5451V28.8284ZM27.6225 35.1001C26.8997 35.1001 26.352 34.8999 25.9795 34.4996C25.607 34.0993 25.4207 33.5544 25.4207 32.865C25.4207 32.5147 25.468 32.2005 25.5625 31.9225C25.6626 31.639 25.8016 31.3999 25.9795 31.2053C26.163 31.0051 26.3826 30.855 26.6384 30.7549C26.8997 30.6493 27.1916 30.5965 27.5141 30.5965C27.8365 30.5965 28.1257 30.6493 28.3814 30.7549C28.6372 30.855 28.854 30.9996 29.0319 31.1886C29.2099 31.3777 29.3461 31.6084 29.4406 31.8808C29.5407 32.1477 29.5907 32.448 29.5907 32.7816V33.1485H26.6467V33.2236C26.6467 33.5016 26.7329 33.7268 26.9052 33.8991C27.0776 34.0659 27.3306 34.1493 27.6642 34.1493C27.9199 34.1493 28.1396 34.1021 28.323 34.0075C28.5065 33.9075 28.665 33.7768 28.7984 33.6156L29.4656 34.3411C29.2988 34.5469 29.0653 34.7248 28.7651 34.8749C28.4648 35.025 28.084 35.1001 27.6225 35.1001ZM27.5224 31.4805C27.2555 31.4805 27.0415 31.5639 26.8802 31.7307C26.7245 31.892 26.6467 32.1116 26.6467 32.3896V32.4563H28.3814V32.3896C28.3814 32.106 28.3036 31.8836 28.1479 31.7224C27.9978 31.5611 27.7893 31.4805 27.5224 31.4805ZM30.6216 34.0409H31.6141V31.6557H30.6216V30.6966H32.8484V31.9142H32.9068C32.9457 31.7585 32.9985 31.6084 33.0652 31.4638C33.1375 31.3137 33.2265 31.1831 33.3321 31.0719C33.4433 30.9551 33.5768 30.8634 33.7324 30.7966C33.8881 30.7299 34.0716 30.6966 34.2829 30.6966H34.6915V31.8308H33.7741C33.4683 31.8308 33.2376 31.9225 33.0819 32.106C32.9262 32.2839 32.8484 32.5036 32.8484 32.7649V34.0409H34.2662V35H30.6216V34.0409ZM37.4572 35.1001C36.979 35.1001 36.562 35.0278 36.2062 34.8832C35.8559 34.7387 35.5918 34.5413 35.4139 34.2911L36.1061 33.6489C36.2729 33.8324 36.4675 33.977 36.6899 34.0826C36.9178 34.1827 37.1764 34.2327 37.4655 34.2327C37.7101 34.2327 37.902 34.1966 38.041 34.1243C38.18 34.0465 38.2495 33.9297 38.2495 33.774C38.2495 33.6517 38.2022 33.5683 38.1077 33.5238C38.0132 33.4738 37.8825 33.4349 37.7157 33.4071L37.0235 33.2986C36.8289 33.2708 36.6482 33.2291 36.4814 33.1735C36.3146 33.1124 36.17 33.0318 36.0477 32.9317C35.9254 32.8316 35.8281 32.7093 35.7558 32.5647C35.6835 32.4202 35.6474 32.245 35.6474 32.0393C35.6474 31.5889 35.8197 31.2359 36.1645 30.9801C36.5092 30.7244 36.9929 30.5965 37.6156 30.5965C38.0382 30.5965 38.3968 30.6549 38.6915 30.7716C38.9917 30.8828 39.2308 31.0441 39.4087 31.2553L38.7916 31.9559C38.6637 31.8169 38.4997 31.7001 38.2995 31.6056C38.0993 31.5111 37.8575 31.4638 37.5739 31.4638C37.0958 31.4638 36.8567 31.6084 36.8567 31.8975C36.8567 32.0254 36.9039 32.1144 36.9985 32.1644C37.093 32.2089 37.2236 32.245 37.3904 32.2728L38.0743 32.3812C38.2689 32.409 38.4496 32.4535 38.6164 32.5147C38.7832 32.5703 38.9278 32.6481 39.0501 32.7482C39.178 32.8483 39.2781 32.9706 39.3503 33.1152C39.4226 33.2597 39.4588 33.4349 39.4588 33.6406C39.4588 34.0909 39.2836 34.4468 38.9333 34.7081C38.5886 34.9694 38.0966 35.1001 37.4572 35.1001Z" transform="translate(40 34)" fill="black"/>
<path d="M1.73472 10.7681C1.04528 10.7681 0.5421 10.5707 0.22518 10.1759L0.67554 9.74226C0.78674 9.88682 0.9313 9.99802 1.10922 10.0759C1.28714 10.1537 1.50954 10.1926 1.77642 10.1926C2.17674 10.1926 2.49088 10.0898 2.71884 9.88404C2.95236 9.68388 3.10804 9.3475 3.18588 8.8749L3.35268 7.85742H3.32766C3.16642 8.20214 2.97182 8.47458 2.74386 8.67474C2.52146 8.8749 2.23512 8.97498 1.88484 8.97498C1.52344 8.97498 1.2371 8.86656 1.02582 8.64972C0.81454 8.43288 0.7089 8.12708 0.7089 7.73232C0.7089 7.65448 0.71168 7.57386 0.71724 7.49046C0.72836 7.40706 0.74226 7.30976 0.75894 7.19856L1.17594 4.69656H1.82646L1.4178 7.14018C1.40112 7.2347 1.39 7.32088 1.38444 7.39872C1.37888 7.471 1.3761 7.52938 1.3761 7.57386C1.3761 7.82962 1.43448 8.03256 1.55124 8.18268C1.67356 8.32724 1.85704 8.39952 2.10168 8.39952C2.29072 8.39952 2.45752 8.35782 2.60208 8.27442C2.7522 8.19102 2.88842 8.07704 3.01074 7.93248C3.03298 7.90468 3.06634 7.86298 3.11082 7.80738C3.16086 7.74622 3.2109 7.67394 3.26094 7.59054C3.31098 7.50158 3.35824 7.40428 3.40272 7.29864C3.4472 7.18744 3.48056 7.07068 3.5028 6.94836L3.8781 4.69656H4.52862L3.81138 9C3.70018 9.63384 3.4611 10.087 3.09414 10.3594C2.72718 10.6319 2.27404 10.7681 1.73472 10.7681ZM7.21084 9.10008C6.93284 9.10008 6.6882 9.0556 6.47692 8.96664C6.2712 8.87768 6.09884 8.75536 5.95984 8.59968C5.82084 8.43844 5.7152 8.24662 5.64292 8.02422C5.57064 7.79626 5.5345 7.54884 5.5345 7.28196C5.5345 6.87052 5.59288 6.50078 5.70964 6.17274C5.8264 5.83914 5.98486 5.55558 6.18502 5.32206C6.39074 5.08854 6.62982 4.91062 6.90226 4.7883C7.1747 4.66042 7.46938 4.59648 7.7863 4.59648C8.0643 4.59648 8.30894 4.64096 8.52022 4.72992C8.7315 4.81888 8.90664 4.94398 9.04564 5.10522C9.1902 5.2609 9.29584 5.45272 9.36256 5.68068C9.43484 5.90308 9.47098 6.14772 9.47098 6.4146C9.47098 6.82604 9.4126 7.19856 9.29584 7.53216C9.17908 7.8602 9.01784 8.14098 8.81212 8.3745C8.61196 8.60802 8.37288 8.78872 8.09488 8.9166C7.82244 9.03892 7.52776 9.10008 7.21084 9.10008ZM7.2442 8.53296C7.65008 8.53296 7.97256 8.41064 8.21164 8.166C8.45628 7.9158 8.61474 7.57664 8.68702 7.14852L8.77042 6.64812C8.7871 6.54804 8.79822 6.46464 8.80378 6.39792C8.80934 6.3312 8.81212 6.27282 8.81212 6.22278C8.81212 5.85582 8.7176 5.58894 8.52856 5.42214C8.33952 5.24978 8.08376 5.1636 7.76128 5.1636C7.3554 5.1636 7.03014 5.2887 6.7855 5.5389C6.54642 5.78354 6.39074 6.11992 6.31846 6.54804L6.23506 7.04844C6.21838 7.14852 6.20726 7.23192 6.2017 7.29864C6.19614 7.36536 6.19336 7.42374 6.19336 7.47378C6.19336 7.84074 6.28788 8.1104 6.47692 8.28276C6.66596 8.44956 6.92172 8.53296 7.2442 8.53296ZM13.3291 7.98252H13.2958C13.1345 8.32724 12.9427 8.59968 12.7203 8.79984C12.4979 9 12.2116 9.10008 11.8613 9.10008C11.4999 9.10008 11.2136 8.99166 11.0023 8.77482C10.7966 8.55798 10.6937 8.25218 10.6937 7.85742C10.6937 7.6795 10.7104 7.49324 10.7437 7.29864L11.1774 4.69656H11.8279L11.4026 7.24026C11.3859 7.34034 11.3748 7.43208 11.3692 7.51548C11.3637 7.59332 11.3609 7.65448 11.3609 7.69896C11.3609 7.95472 11.4193 8.15766 11.536 8.30778C11.6528 8.45234 11.8335 8.52462 12.0781 8.52462C12.2672 8.52462 12.434 8.48292 12.5785 8.39952C12.7287 8.31612 12.8649 8.20214 12.9872 8.05758C13.0094 8.02978 13.0428 7.98808 13.0873 7.93248C13.1373 7.87132 13.1874 7.79904 13.2374 7.71564C13.2874 7.62668 13.3347 7.52938 13.3792 7.42374C13.4237 7.31254 13.457 7.19578 13.4793 7.07346L13.8796 4.69656H14.5301L13.8129 9H13.1623L13.3291 7.98252ZM21.5292 2.8284H22.1797L21.696 5.71404H21.7293C21.885 5.38044 22.0796 5.11078 22.3131 4.90506C22.5467 4.69934 22.8441 4.59648 23.2055 4.59648C23.5502 4.59648 23.8227 4.69378 24.0229 4.88838C24.2286 5.07742 24.3314 5.33318 24.3314 5.65566C24.3314 5.78354 24.3092 5.92254 24.2647 6.07266C24.2202 6.21722 24.134 6.36178 24.0062 6.50634C23.8783 6.64534 23.7004 6.77878 23.4724 6.90666C23.25 7.02898 22.9553 7.13462 22.5884 7.22358L23.1805 8.51628L23.2889 8.53296L24.3981 7.51548L24.7568 7.89078L24.1646 8.48292C23.9478 8.69976 23.7671 8.85822 23.6225 8.9583C23.478 9.05282 23.3251 9.10008 23.1638 9.10008C23.0193 9.10008 22.8969 9.06116 22.7969 8.98332C22.7023 8.90548 22.6106 8.76926 22.5216 8.57466L21.8461 7.10682C22.1964 7.02342 22.4855 6.93168 22.7135 6.8316C22.947 6.72596 23.1332 6.61754 23.2722 6.50634C23.4168 6.39514 23.5169 6.27838 23.5725 6.15606C23.6336 6.03374 23.6642 5.90864 23.6642 5.78076C23.6642 5.58616 23.6031 5.43326 23.4808 5.32206C23.364 5.21086 23.1916 5.15526 22.9637 5.15526C22.7524 5.15526 22.5717 5.20252 22.4216 5.29704C22.2714 5.386 22.138 5.50276 22.0212 5.64732C21.8989 5.79744 21.7961 5.95312 21.7127 6.11436C21.6293 6.2756 21.5737 6.44518 21.5459 6.6231L21.1455 9H20.495L21.5292 2.8284ZM25.4958 9L26.213 4.69656H26.8635L26.6967 5.71404H26.7301C26.8913 5.36932 27.0832 5.09688 27.3056 4.89672C27.528 4.69656 27.8143 4.59648 28.1646 4.59648C28.526 4.59648 28.8095 4.7049 29.0153 4.92174C29.2265 5.13858 29.3322 5.44438 29.3322 5.83914C29.3322 5.92254 29.3266 6.01428 29.3155 6.11436C29.3099 6.20888 29.2988 6.3034 29.2821 6.39792L28.8485 9H28.1979L28.6233 6.4563C28.64 6.35622 28.6511 6.26726 28.6566 6.18942C28.6622 6.10602 28.665 6.04208 28.665 5.9976C28.665 5.74184 28.6066 5.54168 28.4898 5.39712C28.3731 5.247 28.1924 5.17194 27.9477 5.17194C27.7587 5.17194 27.5891 5.21364 27.439 5.29704C27.2944 5.38044 27.161 5.49442 27.0387 5.63898C27.0164 5.66678 26.9803 5.71126 26.9303 5.77242C26.8858 5.82802 26.8385 5.9003 26.7885 5.98926C26.7384 6.07266 26.6912 6.16996 26.6467 6.28116C26.6022 6.3868 26.5689 6.50078 26.5466 6.6231L26.1463 9H25.4958ZM32.2146 9.10008C31.9366 9.10008 31.6919 9.0556 31.4806 8.96664C31.2749 8.87768 31.1026 8.75536 30.9636 8.59968C30.8246 8.43844 30.7189 8.24662 30.6466 8.02422C30.5744 7.79626 30.5382 7.54884 30.5382 7.28196C30.5382 6.87052 30.5966 6.50078 30.7134 6.17274C30.8301 5.83914 30.9886 5.55558 31.1887 5.32206C31.3945 5.08854 31.6335 4.91062 31.906 4.7883C32.1784 4.66042 32.4731 4.59648 32.79 4.59648C33.068 4.59648 33.3127 4.64096 33.5239 4.72992C33.7352 4.81888 33.9104 4.94398 34.0494 5.10522C34.1939 5.2609 34.2996 5.45272 34.3663 5.68068C34.4386 5.90308 34.4747 6.14772 34.4747 6.4146C34.4747 6.82604 34.4163 7.19856 34.2996 7.53216C34.1828 7.8602 34.0216 8.14098 33.8158 8.3745C33.6157 8.60802 33.3766 8.78872 33.0986 8.9166C32.8262 9.03892 32.5315 9.10008 32.2146 9.10008ZM32.2479 8.53296C32.6538 8.53296 32.9763 8.41064 33.2154 8.166C33.46 7.9158 33.6185 7.57664 33.6907 7.14852L33.7741 6.64812C33.7908 6.54804 33.8019 6.46464 33.8075 6.39792C33.8131 6.3312 33.8158 6.27282 33.8158 6.22278C33.8158 5.85582 33.7213 5.58894 33.5323 5.42214C33.3432 5.24978 33.0875 5.1636 32.765 5.1636C32.3591 5.1636 32.0339 5.2887 31.7892 5.5389C31.5501 5.78354 31.3945 6.11992 31.3222 6.54804L31.2388 7.04844C31.2221 7.14852 31.211 7.23192 31.2054 7.29864C31.1999 7.36536 31.1971 7.42374 31.1971 7.47378C31.1971 7.84074 31.2916 8.1104 31.4806 8.28276C31.6697 8.44956 31.9254 8.53296 32.2479 8.53296ZM36.1144 9.0834C35.8642 9.0834 35.6752 9.00834 35.5473 8.85822C35.425 8.70254 35.3638 8.49404 35.3638 8.23272C35.3638 8.14376 35.3666 8.05758 35.3722 7.97418C35.3833 7.88522 35.3972 7.78514 35.4139 7.67394L35.9059 4.69656H36.4897L36.0227 7.55718C35.9893 7.75178 35.9726 7.92414 35.9726 8.07426C35.9726 8.24106 36.0032 8.36338 36.0644 8.44122C36.1311 8.5135 36.2256 8.54964 36.3479 8.54964C36.4591 8.54964 36.5564 8.51906 36.6398 8.4579C36.7232 8.39674 36.8039 8.31612 36.8817 8.21604C36.9595 8.10484 37.0179 7.97696 37.0568 7.8324C37.1013 7.68784 37.1347 7.55996 37.1569 7.44876L37.6323 4.69656H38.1994L37.7324 7.55718C37.7157 7.66282 37.7046 7.75734 37.699 7.84074C37.6935 7.91858 37.6907 7.99364 37.6907 8.06592C37.6907 8.23828 37.7185 8.36338 37.7741 8.44122C37.8352 8.5135 37.9298 8.54964 38.0576 8.54964C38.2133 8.54964 38.3579 8.4718 38.4913 8.31612C38.6248 8.16044 38.7387 7.9575 38.8333 7.7073C38.9333 7.4571 39.0112 7.17632 39.0668 6.86496C39.1224 6.5536 39.1502 6.24502 39.1502 5.93922C39.1502 5.72794 39.1335 5.52222 39.1001 5.32206C39.0668 5.1219 39.0195 4.9551 38.9584 4.82166L39.5088 4.65486C39.5755 4.79942 39.6283 4.98012 39.6673 5.19696C39.7117 5.4138 39.734 5.6501 39.734 5.90586C39.734 6.41182 39.6784 6.88998 39.5672 7.34034C39.456 7.78514 39.2947 8.15488 39.0835 8.44956C38.7777 8.87212 38.3912 9.0834 37.9242 9.0834C37.813 9.0834 37.7101 9.06672 37.6156 9.03336C37.5267 9.00556 37.4488 8.9583 37.3821 8.89158C37.3209 8.8193 37.2737 8.72756 37.2403 8.61636C37.2125 8.50516 37.2042 8.36894 37.2153 8.2077H37.1736C37.0513 8.48014 36.9095 8.6942 36.7483 8.84988C36.5926 9.00556 36.3813 9.0834 36.1144 9.0834ZM0.10008 22L0.81732 17.6966H1.4178L1.30938 18.3721H1.34274C1.44282 18.1553 1.56236 17.9718 1.70136 17.8217C1.84592 17.6715 2.03774 17.5965 2.27682 17.5965C2.52146 17.5965 2.6966 17.6743 2.80224 17.83C2.90788 17.9857 2.95236 18.1803 2.93568 18.4138H2.9607C3.0719 18.1636 3.2109 17.9662 3.3777 17.8217C3.5445 17.6715 3.753 17.5965 4.0032 17.5965C4.24228 17.5965 4.42298 17.6688 4.5453 17.8133C4.67318 17.9523 4.73712 18.1553 4.73712 18.4221C4.73712 18.5 4.73156 18.5917 4.72044 18.6974C4.70932 18.803 4.69542 18.9059 4.67874 19.0059L4.17834 22H3.57786L4.06158 19.1144C4.07826 19.0143 4.09216 18.9198 4.10328 18.8308C4.1144 18.7363 4.11996 18.6584 4.11996 18.5973C4.11996 18.2859 3.99764 18.1302 3.753 18.1302C3.63624 18.1302 3.53338 18.1636 3.44442 18.2303C3.36102 18.2915 3.28318 18.3693 3.2109 18.4638C3.13306 18.575 3.06912 18.6974 3.01908 18.8308C2.96904 18.9587 2.9329 19.0866 2.91066 19.2144L2.44362 22H1.84314L2.32686 19.1144C2.36022 18.9142 2.3769 18.7502 2.3769 18.6223C2.3769 18.4444 2.34632 18.3193 2.28516 18.247C2.22956 18.1692 2.14338 18.1302 2.02662 18.1302C1.90986 18.1302 1.80422 18.1636 1.7097 18.2303C1.61518 18.2915 1.53456 18.3693 1.46784 18.4638C1.39 18.575 1.32606 18.6974 1.27602 18.8308C1.22598 18.9587 1.18984 19.0866 1.1676 19.2144L0.70056 22H0.10008ZM7.21084 22.1001C6.93284 22.1001 6.6882 22.0556 6.47692 21.9666C6.2712 21.8777 6.09884 21.7554 5.95984 21.5997C5.82084 21.4384 5.7152 21.2466 5.64292 21.0242C5.57064 20.7963 5.5345 20.5488 5.5345 20.282C5.5345 19.8705 5.59288 19.5008 5.70964 19.1727C5.8264 18.8391 5.98486 18.5556 6.18502 18.3221C6.39074 18.0885 6.62982 17.9106 6.90226 17.7883C7.1747 17.6604 7.46938 17.5965 7.7863 17.5965C8.0643 17.5965 8.30894 17.641 8.52022 17.7299C8.7315 17.8189 8.90664 17.944 9.04564 18.1052C9.1902 18.2609 9.29584 18.4527 9.36256 18.6807C9.43484 18.9031 9.47098 19.1477 9.47098 19.4146C9.47098 19.826 9.4126 20.1986 9.29584 20.5322C9.17908 20.8602 9.01784 21.141 8.81212 21.3745C8.61196 21.608 8.37288 21.7887 8.09488 21.9166C7.82244 22.0389 7.52776 22.1001 7.21084 22.1001ZM7.2442 21.533C7.65008 21.533 7.97256 21.4106 8.21164 21.166C8.45628 20.9158 8.61474 20.5766 8.68702 20.1485L8.77042 19.6481C8.7871 19.548 8.79822 19.4646 8.80378 19.3979C8.80934 19.3312 8.81212 19.2728 8.81212 19.2228C8.81212 18.8558 8.7176 18.5889 8.52856 18.4221C8.33952 18.2498 8.08376 18.1636 7.76128 18.1636C7.3554 18.1636 7.03014 18.2887 6.7855 18.5389C6.54642 18.7835 6.39074 19.1199 6.31846 19.548L6.23506 20.0484C6.21838 20.1485 6.20726 20.2319 6.2017 20.2986C6.19614 20.3654 6.19336 20.4237 6.19336 20.4738C6.19336 20.8407 6.28788 21.1104 6.47692 21.2828C6.66596 21.4496 6.92172 21.533 7.2442 21.533ZM12.2366 22.1001C11.8196 22.1001 11.4554 22.0306 11.1441 21.8916C10.8383 21.7526 10.5908 21.5524 10.4018 21.2911L10.8855 20.9075C11.0523 21.1187 11.2469 21.28 11.4693 21.3912C11.6917 21.4968 11.9669 21.5496 12.295 21.5496C12.6786 21.5496 12.9789 21.4774 13.1957 21.3328C13.4125 21.1882 13.521 20.9853 13.521 20.724C13.521 20.5238 13.4598 20.3876 13.3375 20.3153C13.2207 20.2375 13.0734 20.1847 12.8955 20.1569L12.27 20.0651C12.1143 20.0429 11.9586 20.0123 11.8029 19.9734C11.6528 19.9289 11.5166 19.865 11.3943 19.7816C11.2775 19.6982 11.1802 19.5925 11.1024 19.4646C11.0301 19.3312 10.9939 19.1644 10.9939 18.9642C10.9939 18.7363 11.0412 18.5389 11.1357 18.3721C11.2358 18.1997 11.3692 18.058 11.536 17.9468C11.7028 17.83 11.8974 17.7438 12.1198 17.6882C12.3422 17.6271 12.5813 17.5965 12.8371 17.5965C13.2152 17.5965 13.5376 17.6549 13.8045 17.7716C14.0714 17.8884 14.2855 18.0496 14.4467 18.2553L13.988 18.6557C13.9491 18.6001 13.8963 18.5417 13.8295 18.4805C13.7684 18.4194 13.6878 18.3638 13.5877 18.3137C13.4932 18.2637 13.3764 18.2248 13.2374 18.197C13.104 18.1636 12.9455 18.1469 12.762 18.1469C12.3895 18.1469 12.1059 18.2164 11.9113 18.3554C11.7223 18.4944 11.6278 18.6807 11.6278 18.9142C11.6278 19.0198 11.6445 19.106 11.6778 19.1727C11.7167 19.2395 11.7668 19.2951 11.8279 19.3395C11.8891 19.3785 11.9586 19.409 12.0364 19.4313C12.1198 19.448 12.206 19.4646 12.295 19.4813L12.9038 19.5814C13.0428 19.6036 13.1846 19.6342 13.3291 19.6731C13.4793 19.7065 13.6155 19.7621 13.7378 19.8399C13.8601 19.9122 13.9602 20.0151 14.038 20.1485C14.1214 20.2764 14.1631 20.446 14.1631 20.6573C14.1631 20.8797 14.1159 21.0798 14.0214 21.2577C13.9324 21.4357 13.8017 21.5886 13.6294 21.7164C13.4626 21.8388 13.2596 21.9333 13.0206 22C12.787 22.0667 12.5257 22.1001 12.2366 22.1001ZM16.9955 22.1001C16.8009 22.1001 16.648 22.0473 16.5368 21.9416C16.4311 21.836 16.3783 21.6831 16.3783 21.4829C16.3783 21.444 16.3783 21.3912 16.3783 21.3245C16.3839 21.2577 16.3922 21.2021 16.4033 21.1577L16.9037 18.2553H15.6611L15.7528 17.6966H16.6285C16.7731 17.6966 16.8787 17.6688 16.9454 17.6132C17.0177 17.552 17.0678 17.4491 17.0956 17.3046L17.2874 16.1787H17.9045L17.646 17.6966H19.4224L19.3307 18.2553H17.5543L17.0205 21.4412L17.1873 21.5413L19.0638 20.2903L19.3891 20.7073L18.4466 21.3745C18.252 21.5135 18.0825 21.6303 17.9379 21.7248C17.7989 21.8137 17.671 21.886 17.5543 21.9416C17.4431 21.9972 17.343 22.0361 17.254 22.0584C17.1651 22.0862 17.0789 22.1001 16.9955 22.1001ZM27.2138 22.1001C26.9358 22.1001 26.6912 22.0556 26.4799 21.9666C26.2742 21.8777 26.1018 21.7554 25.9628 21.5997C25.8238 21.4384 25.7182 21.2466 25.6459 21.0242C25.5736 20.7963 25.5375 20.5488 25.5375 20.282C25.5375 19.8705 25.5959 19.5008 25.7126 19.1727C25.8294 18.8391 25.9878 18.5556 26.188 18.3221C26.3937 18.0885 26.6328 17.9106 26.9052 17.7883C27.1777 17.6604 27.4724 17.5965 27.7893 17.5965C28.0673 17.5965 28.3119 17.641 28.5232 17.7299C28.7345 17.8189 28.9096 17.944 29.0486 18.1052C29.1932 18.2609 29.2988 18.4527 29.3655 18.6807C29.4378 18.9031 29.474 19.1477 29.474 19.4146C29.474 19.826 29.4156 20.1986 29.2988 20.5322C29.1821 20.8602 29.0208 21.141 28.8151 21.3745C28.6149 21.608 28.3759 21.7887 28.0979 21.9166C27.8254 22.0389 27.5307 22.1001 27.2138 22.1001ZM27.2472 21.533C27.6531 21.533 27.9755 21.4106 28.2146 21.166C28.4593 20.9158 28.6177 20.5766 28.69 20.1485L28.7734 19.6481C28.7901 19.548 28.8012 19.4646 28.8068 19.3979C28.8123 19.3312 28.8151 19.2728 28.8151 19.2228C28.8151 18.8558 28.7206 18.5889 28.5315 18.4221C28.3425 18.2498 28.0867 18.1636 27.7643 18.1636C27.3584 18.1636 27.0331 18.2887 26.7885 18.5389C26.5494 18.7835 26.3937 19.1199 26.3214 19.548L26.238 20.0484C26.2214 20.1485 26.2102 20.2319 26.2047 20.2986C26.1991 20.3654 26.1963 20.4237 26.1963 20.4738C26.1963 20.8407 26.2909 21.1104 26.4799 21.2828C26.6689 21.4496 26.9247 21.533 27.2472 21.533ZM31.6391 23.7681C31.5501 23.7681 31.4667 23.7486 31.3889 23.7097C31.3111 23.6763 31.2249 23.6207 31.1304 23.5429C31.0358 23.4651 30.9274 23.3622 30.8051 23.2343C30.6883 23.112 30.5466 22.9591 30.3798 22.7756L29.871 22.2168L30.313 21.8165L31.5974 23.1843L31.7475 23.1509L32.5648 18.2553H31.0303L31.122 17.6966H32.6566L32.8067 16.8042C32.8512 16.5206 32.9652 16.2871 33.1486 16.1036C33.3321 15.9201 33.5851 15.8284 33.9076 15.8284H35.3504L35.2587 16.3872H33.5239L33.3071 17.6966H35.0502L34.9584 18.2553H33.2154L32.4397 22.8924C32.4231 23.0091 32.3953 23.1203 32.3563 23.226C32.3174 23.3316 32.2646 23.4234 32.1979 23.5012C32.1367 23.5846 32.0589 23.6485 31.9644 23.693C31.8698 23.7431 31.7614 23.7681 31.6391 23.7681ZM42.8415 16.7375C42.6636 16.7375 42.5385 16.7041 42.4662 16.6374C42.394 16.5707 42.3578 16.4928 42.3578 16.4039C42.3578 16.3705 42.3606 16.3344 42.3662 16.2954C42.3717 16.2565 42.3801 16.212 42.3912 16.162C42.4134 16.0341 42.469 15.9368 42.558 15.8701C42.6469 15.7978 42.7748 15.7617 42.9416 15.7617C43.1195 15.7617 43.2446 15.795 43.3169 15.8618C43.3892 15.9285 43.4253 16.0063 43.4253 16.0953C43.4253 16.1286 43.4226 16.1648 43.417 16.2037C43.4114 16.2426 43.4031 16.2871 43.392 16.3371C43.3697 16.465 43.3141 16.5651 43.2252 16.6374C43.1362 16.7041 43.0083 16.7375 42.8415 16.7375ZM42.2744 22.1001C42.0631 22.1001 41.9019 22.0473 41.7907 21.9416C41.6851 21.8304 41.6322 21.6914 41.6322 21.5246C41.6322 21.469 41.635 21.4134 41.6406 21.3578C41.6517 21.2967 41.6628 21.2411 41.6739 21.191L42.2411 18.2553H40.6898L40.7816 17.6966H43L42.2744 21.4496L42.4662 21.5246L44.1092 20.1068L44.5012 20.4738L43.7423 21.1743C43.5477 21.3578 43.3781 21.5079 43.2335 21.6247C43.0945 21.7415 42.9694 21.836 42.8582 21.9083C42.747 21.9805 42.6442 22.0306 42.5496 22.0584C42.4607 22.0862 42.3689 22.1001 42.2744 22.1001ZM46.9999 22.1001C46.8053 22.1001 46.6524 22.0473 46.5412 21.9416C46.4356 21.836 46.3828 21.6831 46.3828 21.4829C46.3828 21.444 46.3828 21.3912 46.3828 21.3245C46.3883 21.2577 46.3967 21.2021 46.4078 21.1577L46.9082 18.2553H45.6655L45.7573 17.6966H46.633C46.7775 17.6966 46.8832 17.6688 46.9499 17.6132C47.0222 17.552 47.0722 17.4491 47.1 17.3046L47.2918 16.1787H47.909L47.6505 17.6966H49.4269L49.3351 18.2553H47.5587L47.025 21.4412L47.1918 21.5413L49.0683 20.2903L49.3935 20.7073L48.4511 21.3745C48.2565 21.5135 48.0869 21.6303 47.9424 21.7248C47.8034 21.8137 47.6755 21.886 47.5587 21.9416C47.4475 21.9972 47.3474 22.0361 47.2585 22.0584C47.1695 22.0862 47.0833 22.1001 46.9999 22.1001ZM3.19422 35L3.36102 33.9825H3.336C3.1692 34.3217 2.96626 34.5941 2.72718 34.7998C2.49366 35 2.18786 35.1001 1.80978 35.1001C1.3761 35.1001 1.0425 34.9611 0.80898 34.6831C0.58102 34.4051 0.46704 33.9881 0.46704 33.4321C0.46704 33.143 0.5004 32.8344 0.56712 32.5063C0.6394 32.1727 0.75338 31.8642 0.90906 31.5806C1.0703 31.297 1.28158 31.0635 1.5429 30.88C1.80422 30.691 2.12392 30.5965 2.502 30.5965C2.81892 30.5965 3.08302 30.6688 3.2943 30.8133C3.51114 30.9523 3.66682 31.1636 3.76134 31.4472H3.78636L3.91146 30.6966H4.56198L3.84474 35H3.19422ZM2.03496 34.5246C2.21288 34.5246 2.38802 34.4885 2.56038 34.4162C2.73274 34.3384 2.89398 34.216 3.0441 34.0492C3.1553 33.9269 3.2526 33.7824 3.336 33.6156C3.42496 33.4488 3.48612 33.2653 3.51948 33.0651L3.67794 32.1144C3.72798 31.8141 3.6557 31.5834 3.4611 31.4221C3.27206 31.2553 3.0163 31.1719 2.69382 31.1719C2.27682 31.1719 1.94878 31.297 1.7097 31.5472C1.47618 31.7974 1.32606 32.1227 1.25934 32.523L1.15926 33.1235C1.14814 33.2013 1.1398 33.2708 1.13424 33.332C1.12868 33.3876 1.1259 33.4432 1.1259 33.4988C1.1259 33.8213 1.20096 34.0743 1.35108 34.2577C1.50676 34.4357 1.73472 34.5246 2.03496 34.5246ZM7.0774 35.1001C6.84944 35.1001 6.6882 35.0445 6.59368 34.9333C6.49916 34.8221 6.4519 34.6803 6.4519 34.5079C6.4519 34.469 6.4519 34.4245 6.4519 34.3745C6.45746 34.3245 6.4658 34.28 6.47692 34.2411L7.411 29.3872H5.89312L5.98486 28.8284H8.17828L7.09408 34.4579L7.30258 34.5246L9.01228 33.0735L9.38758 33.4404L8.52022 34.2244C8.32006 34.4079 8.1477 34.558 8.00314 34.6747C7.85858 34.7859 7.7307 34.8749 7.6195 34.9416C7.51386 35.0028 7.41656 35.0445 7.3276 35.0667C7.2442 35.089 7.1608 35.1001 7.0774 35.1001ZM11.486 35L12.1115 31.2553H10.9022L10.9939 30.6966H12.8538L12.6619 31.8475H12.7036C12.7759 31.6751 12.8593 31.5194 12.9538 31.3804C13.0484 31.2359 13.1568 31.1136 13.2791 31.0135C13.407 30.9134 13.5515 30.8356 13.7128 30.78C13.874 30.7244 14.0575 30.6966 14.2632 30.6966H14.9137L14.8053 31.3471H14.0714C13.8212 31.3471 13.6127 31.3832 13.4459 31.4555C13.2791 31.5222 13.1318 31.6306 13.0039 31.7808C12.9761 31.8141 12.9372 31.8614 12.8871 31.9225C12.8426 31.9781 12.7954 32.0476 12.7453 32.131C12.6953 32.2144 12.648 32.309 12.6036 32.4146C12.5646 32.5202 12.5341 32.6342 12.5118 32.7565L12.1365 35H11.486ZM17.3124 35.1001C16.7675 35.1001 16.3477 34.95 16.0531 34.6497C15.7584 34.3439 15.611 33.8797 15.611 33.2569C15.611 32.8677 15.6694 32.5119 15.7862 32.1894C15.9029 31.8614 16.0642 31.5806 16.2699 31.3471C16.4812 31.108 16.7314 30.9245 17.0205 30.7966C17.3152 30.6632 17.6349 30.5965 17.9796 30.5965C18.1909 30.5965 18.3855 30.6215 18.5634 30.6715C18.7413 30.7216 18.8942 30.7966 19.0221 30.8967C19.1555 30.9912 19.2584 31.1108 19.3307 31.2553C19.403 31.3999 19.4391 31.5667 19.4391 31.7557C19.4391 31.9059 19.403 32.0615 19.3307 32.2228C19.264 32.384 19.1194 32.5341 18.897 32.6731C18.6802 32.8121 18.3632 32.9289 17.9462 33.0234C17.5348 33.1179 16.9871 33.1735 16.3033 33.1902C16.2977 33.2347 16.2949 33.2764 16.2949 33.3153C16.2949 33.3487 16.2949 33.3709 16.2949 33.382C16.2949 33.5322 16.3088 33.6767 16.3366 33.8157C16.3644 33.9547 16.4172 34.0798 16.4951 34.191C16.5729 34.2967 16.6813 34.3828 16.8203 34.4496C16.9593 34.5107 17.1428 34.5413 17.3708 34.5413C17.5265 34.5413 17.6655 34.5246 17.7878 34.4913C17.9157 34.4523 18.0352 34.3967 18.1464 34.3245C18.2632 34.2466 18.3744 34.1493 18.48 34.0326C18.5912 33.9102 18.708 33.7629 18.8303 33.5905L19.289 33.8741C19.0443 34.2744 18.7663 34.5802 18.455 34.7915C18.1492 34.9972 17.7683 35.1001 17.3124 35.1001ZM17.9212 31.1386C17.4875 31.1386 17.1345 31.2692 16.862 31.5306C16.5896 31.7919 16.4228 32.1672 16.3616 32.6565L16.3533 32.7399C16.8759 32.7232 17.2957 32.6843 17.6126 32.6231C17.9351 32.5564 18.1798 32.4785 18.3466 32.3896C18.5189 32.3006 18.6329 32.2033 18.6885 32.0977C18.7441 31.992 18.7719 31.8864 18.7719 31.7808C18.7719 31.6918 18.7552 31.6084 18.7219 31.5306C18.6941 31.4527 18.6468 31.386 18.5801 31.3304C18.5134 31.2692 18.4244 31.222 18.3132 31.1886C18.2076 31.1553 18.0769 31.1386 17.9212 31.1386ZM23.1972 35L23.364 33.9825H23.339C23.1722 34.3217 22.9692 34.5941 22.7301 34.7998C22.4966 35 22.1908 35.1001 21.8127 35.1001C21.3791 35.1001 21.0455 34.9611 20.8119 34.6831C20.584 34.4051 20.47 33.9881 20.47 33.4321C20.47 33.143 20.5034 32.8344 20.5701 32.5063C20.6424 32.1727 20.7563 31.8642 20.912 31.5806C21.0733 31.297 21.2845 31.0635 21.5459 30.88C21.8072 30.691 22.1269 30.5965 22.505 30.5965C22.8219 30.5965 23.086 30.6688 23.2973 30.8133C23.5141 30.9523 23.6698 31.1636 23.7643 31.4472H23.7893L23.9144 30.6966H24.565L23.8477 35H23.1972ZM22.0379 34.5246C22.2158 34.5246 22.391 34.4885 22.5633 34.4162C22.7357 34.3384 22.8969 34.216 23.0471 34.0492C23.1583 33.9269 23.2556 33.7824 23.339 33.6156C23.4279 33.4488 23.4891 33.2653 23.5224 33.0651L23.6809 32.1144C23.7309 31.8141 23.6587 31.5834 23.4641 31.4221C23.275 31.2553 23.0193 31.1719 22.6968 31.1719C22.2798 31.1719 21.9517 31.297 21.7127 31.5472C21.4791 31.7974 21.329 32.1227 21.2623 32.523L21.1622 33.1235C21.1511 33.2013 21.1428 33.2708 21.1372 33.332C21.1316 33.3876 21.1289 33.4432 21.1289 33.4988C21.1289 33.8213 21.2039 34.0743 21.354 34.2577C21.5097 34.4357 21.7377 34.5246 22.0379 34.5246ZM28.3647 33.9825H28.3397C28.1729 34.3217 27.97 34.5941 27.7309 34.7998C27.4974 35 27.1916 35.1001 26.8135 35.1001C26.3798 35.1001 26.0462 34.9611 25.8127 34.6831C25.5847 34.4051 25.4708 33.9881 25.4708 33.4321C25.4708 33.143 25.5041 32.8344 25.5708 32.5063C25.6431 32.1727 25.7571 31.8642 25.9128 31.5806C26.074 31.297 26.2853 31.0635 26.5466 30.88C26.8079 30.691 27.1276 30.5965 27.5057 30.5965C27.8226 30.5965 28.0867 30.6688 28.298 30.8133C28.5149 30.9523 28.6705 31.1636 28.7651 31.4472H28.7901L29.2321 28.8284H29.8826L28.8485 35H28.1979L28.3647 33.9825ZM27.0387 34.5246C27.2166 34.5246 27.3917 34.4885 27.5641 34.4162C27.7365 34.3384 27.8977 34.216 28.0478 34.0492C28.159 33.9269 28.2563 33.7824 28.3397 33.6156C28.4287 33.4488 28.4898 33.2653 28.5232 33.0651L28.6817 32.1144C28.7317 31.8141 28.6594 31.5834 28.4648 31.4221C28.2758 31.2553 28.02 31.1719 27.6975 31.1719C27.2805 31.1719 26.9525 31.297 26.7134 31.5472C26.4799 31.7974 26.3298 32.1227 26.2631 32.523L26.163 33.1235C26.1519 33.2013 26.1435 33.2708 26.138 33.332C26.1324 33.3876 26.1296 33.4432 26.1296 33.4988C26.1296 33.8213 26.2047 34.0743 26.3548 34.2577C26.5105 34.4357 26.7384 34.5246 27.0387 34.5246ZM31.7392 36.7681C31.0497 36.7681 30.5466 36.5707 30.2296 36.1759L30.68 35.7423C30.7912 35.8868 30.9358 35.998 31.1137 36.0759C31.2916 36.1537 31.514 36.1926 31.7809 36.1926C32.1812 36.1926 32.4953 36.0898 32.7233 35.884C32.9568 35.6839 33.1125 35.3475 33.1903 34.8749L33.3571 33.8574H33.3321C33.1709 34.2021 32.9763 34.4746 32.7483 34.6747C32.5259 34.8749 32.2396 34.975 31.8893 34.975C31.5279 34.975 31.2416 34.8666 31.0303 34.6497C30.819 34.4329 30.7134 34.1271 30.7134 33.7323C30.7134 33.6545 30.7161 33.5739 30.7217 33.4905C30.7328 33.4071 30.7467 33.3098 30.7634 33.1986L31.1804 30.6966H31.8309L31.4223 33.1402C31.4056 33.2347 31.3945 33.3209 31.3889 33.3987C31.3833 33.471 31.3806 33.5294 31.3806 33.5739C31.3806 33.8296 31.4389 34.0326 31.5557 34.1827C31.678 34.3272 31.8615 34.3995 32.1061 34.3995C32.2952 34.3995 32.462 34.3578 32.6065 34.2744C32.7567 34.191 32.8929 34.077 33.0152 33.9325C33.0374 33.9047 33.0708 33.863 33.1153 33.8074C33.1653 33.7462 33.2154 33.6739 33.2654 33.5905C33.3154 33.5016 33.3627 33.4043 33.4072 33.2986C33.4517 33.1874 33.485 33.0707 33.5073 32.9484L33.8826 30.6966H34.5331L33.8158 35C33.7046 35.6338 33.4656 36.087 33.0986 36.3594C32.7316 36.6319 32.2785 36.7681 31.7392 36.7681ZM37.3404 33.0568L37.4822 30.8717L37.7657 29.1787H38.483L38.1994 30.8717L37.5989 33.0568H37.3404ZM37.1486 35.0751C36.954 35.0751 36.815 35.0417 36.7316 34.975C36.6482 34.9027 36.6065 34.8137 36.6065 34.7081C36.6065 34.6803 36.6093 34.6469 36.6148 34.608C36.6204 34.5691 36.6287 34.5107 36.6398 34.4329C36.6676 34.2828 36.7316 34.1632 36.8317 34.0743C36.9317 33.9853 37.093 33.9408 37.3154 33.9408C37.51 33.9408 37.649 33.977 37.7324 34.0492C37.8158 34.116 37.8575 34.2021 37.8575 34.3078C37.8575 34.3356 37.8547 34.3689 37.8491 34.4079C37.8436 34.4468 37.8352 34.5052 37.8241 34.583C37.7963 34.7331 37.7324 34.8527 37.6323 34.9416C37.5322 35.0306 37.371 35.0751 37.1486 35.0751Z" transform="translate(40 79)" fill="black"/>
<path d="M0 0H103V73.5" transform="translate(106.5 27) rotate(90)" stroke="black" stroke-width="0.5"/>
<path d="M83 114V10L75 0H0V104L8 114H83Z" transform="translate(155 21)" fill="#EFEFEF" stroke="black"/>
<rect width="75" height="104" transform="translate(155 21)" fill="#F17C8F" stroke="black"/>
<path d="M3.42774 8.17434H3.35268C3.30264 8.29666 3.24148 8.41342 3.1692 8.52462C3.09692 8.63582 3.00796 8.7359 2.90232 8.82486C2.79668 8.90826 2.67158 8.97498 2.52702 9.02502C2.38802 9.07506 2.22956 9.10008 2.05164 9.10008C1.76808 9.10008 1.5151 9.03336 1.2927 8.89992C1.07586 8.76648 0.89238 8.57188 0.74226 8.31612C0.59214 8.06036 0.47816 7.749 0.40032 7.38204C0.32804 7.01508 0.2919 6.60086 0.2919 6.13938C0.2919 5.1497 0.4726 4.39354 0.834 3.8709C1.1954 3.3427 1.75418 3.0786 2.51034 3.0786C2.81058 3.0786 3.07468 3.1203 3.30264 3.2037C3.5306 3.28154 3.7252 3.39552 3.88644 3.54564C4.05324 3.6902 4.18946 3.86534 4.2951 4.07106C4.40074 4.27678 4.48414 4.50474 4.5453 4.75494L3.3777 5.0385C3.34434 4.91618 3.30542 4.79942 3.26094 4.68822C3.22202 4.57146 3.1692 4.4686 3.10248 4.37964C3.03576 4.29068 2.95236 4.22118 2.85228 4.17114C2.7522 4.11554 2.62988 4.08774 2.48532 4.08774C2.1684 4.08774 1.94322 4.2184 1.80978 4.47972C1.6819 4.74104 1.61796 5.108 1.61796 5.5806V6.53136C1.61796 7.00396 1.68746 7.38204 1.82646 7.6656C1.97102 7.94916 2.224 8.09094 2.5854 8.09094C2.86896 8.09094 3.08024 8.00754 3.21924 7.84074C3.35824 7.67394 3.42774 7.45988 3.42774 7.19856V6.77322H2.43528V5.88918H4.5453V9H3.42774V8.17434ZM7.6195 9.10008C6.8967 9.10008 6.34904 8.89992 5.97652 8.4996C5.604 8.09928 5.41774 7.5544 5.41774 6.86496C5.41774 6.51468 5.465 6.20054 5.55952 5.92254C5.6596 5.63898 5.7986 5.3999 5.97652 5.2053C6.16 5.00514 6.37962 4.85502 6.63538 4.75494C6.8967 4.6493 7.1886 4.59648 7.51108 4.59648C7.83356 4.59648 8.12268 4.6493 8.37844 4.75494C8.6342 4.85502 8.85104 4.99958 9.02896 5.18862C9.20688 5.37766 9.3431 5.6084 9.43762 5.88084C9.5377 6.14772 9.58774 6.44796 9.58774 6.78156V7.14852H6.64372V7.22358C6.64372 7.50158 6.7299 7.72676 6.90226 7.89912C7.07462 8.06592 7.3276 8.14932 7.6612 8.14932C7.91696 8.14932 8.13658 8.10206 8.32006 8.00754C8.50354 7.90746 8.662 7.7768 8.79544 7.61556L9.46264 8.34114C9.29584 8.54686 9.06232 8.72478 8.76208 8.8749C8.46184 9.02502 8.08098 9.10008 7.6195 9.10008ZM7.51942 5.48052C7.25254 5.48052 7.03848 5.56392 6.87724 5.73072C6.72156 5.89196 6.64372 6.11158 6.64372 6.38958V6.4563H8.37844V6.38958C8.37844 6.10602 8.3006 5.88362 8.14492 5.72238C7.9948 5.56114 7.7863 5.48052 7.51942 5.48052ZM10.6186 8.0409H11.6111V5.65566H10.6186V4.69656H12.8454V5.9142H12.9038C12.9427 5.75852 12.9955 5.6084 13.0623 5.46384C13.1345 5.31372 13.2235 5.18306 13.3291 5.07186C13.4403 4.9551 13.5738 4.86336 13.7295 4.79664C13.8851 4.72992 14.0686 4.69656 14.2799 4.69656H14.6886V5.8308H13.7712C13.4654 5.8308 13.2346 5.92254 13.0789 6.10602C12.9233 6.28394 12.8454 6.50356 12.8454 6.76488V8.0409H14.2632V9H10.6186V8.0409ZM15.2524 9V4.69656H16.2449V5.3304H16.3033C16.37 5.13024 16.4645 4.95788 16.5868 4.81332C16.7147 4.66876 16.8926 4.59648 17.1206 4.59648C17.5376 4.59648 17.7933 4.84112 17.8879 5.3304H17.9379C17.9713 5.23032 18.013 5.1358 18.063 5.04684C18.113 4.95788 18.1742 4.88004 18.2465 4.81332C18.3188 4.7466 18.4049 4.69378 18.505 4.65486C18.6051 4.61594 18.7219 4.59648 18.8553 4.59648C19.4558 4.59648 19.756 5.0385 19.756 5.92254V9H18.7636V6.04764C18.7636 5.84748 18.7274 5.70848 18.6551 5.63064C18.5884 5.54724 18.4995 5.50554 18.3883 5.50554C18.2826 5.50554 18.1909 5.54168 18.113 5.61396C18.0408 5.68068 18.0046 5.78632 18.0046 5.93088V9H17.0038V6.04764C17.0038 5.84748 16.9705 5.70848 16.9037 5.63064C16.8426 5.54724 16.7564 5.50554 16.6452 5.50554C16.534 5.50554 16.4395 5.54168 16.3616 5.61396C16.2838 5.68068 16.2449 5.78632 16.2449 5.93088V9H15.2524ZM24.0645 9C23.8088 9 23.6031 8.93606 23.4474 8.80818C23.2917 8.67474 23.2 8.4857 23.1722 8.24106H23.1305C23.0526 8.52462 22.8969 8.73868 22.6634 8.88324C22.4355 9.0278 22.1547 9.10008 21.8211 9.10008C21.4041 9.10008 21.0677 8.98888 20.8119 8.76648C20.5617 8.53852 20.4366 8.2216 20.4366 7.81572C20.4366 7.36536 20.6007 7.03176 20.9287 6.81492C21.2567 6.59808 21.7377 6.48966 22.3715 6.48966H23.0637V6.27282C23.0637 6.01706 23.0026 5.82524 22.8803 5.69736C22.7635 5.56392 22.5633 5.4972 22.2798 5.4972C22.0185 5.4972 21.8072 5.54724 21.6459 5.64732C21.4847 5.7474 21.3457 5.87806 21.2289 6.0393L20.5534 5.43882C20.698 5.19418 20.9231 4.99402 21.2289 4.83834C21.5403 4.6771 21.9378 4.59648 22.4216 4.59648C23.0109 4.59648 23.4696 4.7327 23.7977 5.00514C24.1313 5.27202 24.2981 5.6779 24.2981 6.22278V8.10762H24.7735V9H24.0645ZM22.2881 8.2911C22.505 8.2911 22.6884 8.23828 22.8386 8.13264C22.9887 8.027 23.0637 7.8741 23.0637 7.67394V7.15686H22.4049C21.8989 7.15686 21.6459 7.32644 21.6459 7.6656V7.8324C21.6459 7.98252 21.7043 8.0965 21.8211 8.17434C21.9378 8.25218 22.0935 8.2911 22.2881 8.2911ZM25.5458 9V4.69656H26.7801V5.48052H26.8302C26.8802 5.3582 26.9414 5.24422 27.0137 5.13858C27.0859 5.03294 27.1721 4.9412 27.2722 4.86336C27.3778 4.77996 27.4974 4.71602 27.6308 4.67154C27.7698 4.6215 27.9255 4.59648 28.0979 4.59648C28.3036 4.59648 28.4926 4.63262 28.665 4.7049C28.8373 4.77162 28.9847 4.87448 29.107 5.01348C29.2293 5.15248 29.3238 5.32206 29.3906 5.52222C29.4628 5.72238 29.499 5.95312 29.499 6.21444V9H28.2647V6.38124C28.2647 5.82524 28.0228 5.54724 27.5391 5.54724C27.4446 5.54724 27.35 5.56114 27.2555 5.58894C27.1666 5.61118 27.0859 5.6501 27.0137 5.7057C26.9414 5.75574 26.883 5.81968 26.8385 5.89752C26.7996 5.97536 26.7801 6.0671 26.7801 6.17274V9H25.5458ZM35.5973 8.0409H36.865V5.65566H35.5139V4.69656H36.865V4.07106C36.865 3.7041 36.9707 3.40664 37.1819 3.17868C37.3988 2.94516 37.7324 2.8284 38.1827 2.8284H39.6422V3.7875H38.0993V4.69656H39.6422V5.65566H38.0993V8.0409H39.4504V9H35.5973V8.0409ZM42.5079 9.10008C42.1743 9.10008 41.8741 9.05004 41.6072 8.94996C41.3403 8.84432 41.1124 8.6942 40.9233 8.4996C40.7399 8.305 40.5981 8.0687 40.498 7.7907C40.3979 7.5127 40.3479 7.19856 40.3479 6.84828C40.3479 6.498 40.3979 6.18386 40.498 5.90586C40.5981 5.62786 40.7399 5.39156 40.9233 5.19696C41.1124 5.00236 41.3403 4.85502 41.6072 4.75494C41.8741 4.6493 42.1743 4.59648 42.5079 4.59648C42.8415 4.59648 43.1418 4.6493 43.4087 4.75494C43.6755 4.85502 43.9007 5.00236 44.0842 5.19696C44.2732 5.39156 44.4178 5.62786 44.5179 5.90586C44.618 6.18386 44.668 6.498 44.668 6.84828C44.668 7.19856 44.618 7.5127 44.5179 7.7907C44.4178 8.0687 44.2732 8.305 44.0842 8.4996C43.9007 8.6942 43.6755 8.84432 43.4087 8.94996C43.1418 9.05004 42.8415 9.10008 42.5079 9.10008ZM42.5079 8.18268C42.7859 8.18268 43.0028 8.0965 43.1585 7.92414C43.3141 7.75178 43.392 7.50714 43.392 7.19022V6.50634C43.392 6.18942 43.3141 5.94478 43.1585 5.77242C43.0028 5.60006 42.7859 5.51388 42.5079 5.51388C42.2299 5.51388 42.0131 5.60006 41.8574 5.77242C41.7017 5.94478 41.6239 6.18942 41.6239 6.50634V7.19022C41.6239 7.50714 41.7017 7.75178 41.8574 7.92414C42.0131 8.0965 42.2299 8.18268 42.5079 8.18268ZM45.6238 8.0409H46.6163V5.65566H45.6238V4.69656H47.8506V5.9142H47.909C47.9479 5.75852 48.0007 5.6084 48.0675 5.46384C48.1397 5.31372 48.2287 5.18306 48.3343 5.07186C48.4455 4.9551 48.579 4.86336 48.7347 4.79664C48.8903 4.72992 49.0738 4.69656 49.2851 4.69656H49.6938V5.8308H48.7764C48.4706 5.8308 48.2398 5.92254 48.0841 6.10602C47.9285 6.28394 47.8506 6.50356 47.8506 6.76488V8.0409H49.2684V9H45.6238V8.0409ZM0.6672 22V16.1787H4.52862V17.2045H1.9182V18.5389H4.2534V19.5647H1.9182V22H0.6672ZM7.76962 17.1461C7.49162 17.1461 7.29702 17.0905 7.18582 16.9793C7.08018 16.8626 7.02736 16.7236 7.02736 16.5623V16.3205C7.02736 16.1537 7.08018 16.0147 7.18582 15.9035C7.29702 15.7923 7.49162 15.7367 7.76962 15.7367C8.04762 15.7367 8.23944 15.7923 8.34508 15.9035C8.45628 16.0147 8.51188 16.1537 8.51188 16.3205V16.5623C8.51188 16.7236 8.45628 16.8626 8.34508 16.9793C8.23944 17.0905 8.04762 17.1461 7.76962 17.1461ZM5.7847 21.0409H7.15246V18.6557H5.7847V17.6966H8.38678V21.0409H9.65446V22H5.7847V21.0409ZM10.5436 22V17.6966H11.7779V18.4805H11.8279C11.878 18.3582 11.9391 18.2442 12.0114 18.1386C12.0837 18.0329 12.1699 17.9412 12.27 17.8634C12.3756 17.78 12.4951 17.716 12.6286 17.6715C12.7676 17.6215 12.9233 17.5965 13.0956 17.5965C13.3013 17.5965 13.4904 17.6326 13.6627 17.7049C13.8351 17.7716 13.9824 17.8745 14.1048 18.0135C14.2271 18.1525 14.3216 18.3221 14.3883 18.5222C14.4606 18.7224 14.4967 18.9531 14.4967 19.2144V22H13.2624V19.3812C13.2624 18.8252 13.0206 18.5472 12.5368 18.5472C12.4423 18.5472 12.3478 18.5611 12.2533 18.5889C12.1643 18.6112 12.0837 18.6501 12.0114 18.7057C11.9391 18.7557 11.8808 18.8197 11.8363 18.8975C11.7974 18.9754 11.7779 19.0671 11.7779 19.1727V22H10.5436ZM15.5443 22V17.6966H16.7786V18.4805H16.8287C16.8787 18.3582 16.9399 18.2442 17.0122 18.1386C17.0844 18.0329 17.1706 17.9412 17.2707 17.8634C17.3763 17.78 17.4959 17.716 17.6293 17.6715C17.7683 17.6215 17.924 17.5965 18.0964 17.5965C18.3021 17.5965 18.4911 17.6326 18.6635 17.7049C18.8358 17.7716 18.9832 17.8745 19.1055 18.0135C19.2278 18.1525 19.3223 18.3221 19.3891 18.5222C19.4613 18.7224 19.4975 18.9531 19.4975 19.2144V22H18.2632V19.3812C18.2632 18.8252 18.0213 18.5472 17.5376 18.5472C17.4431 18.5472 17.3485 18.5611 17.254 18.5889C17.1651 18.6112 17.0844 18.6501 17.0122 18.7057C16.9399 18.7557 16.8815 18.8197 16.837 18.8975C16.7981 18.9754 16.7786 19.0671 16.7786 19.1727V22H15.5443ZM22.7718 17.1461C22.4938 17.1461 22.2992 17.0905 22.188 16.9793C22.0824 16.8626 22.0296 16.7236 22.0296 16.5623V16.3205C22.0296 16.1537 22.0824 16.0147 22.188 15.9035C22.2992 15.7923 22.4938 15.7367 22.7718 15.7367C23.0499 15.7367 23.2417 15.7923 23.3473 15.9035C23.4585 16.0147 23.5141 16.1537 23.5141 16.3205V16.5623C23.5141 16.7236 23.4585 16.8626 23.3473 16.9793C23.2417 17.0905 23.0499 17.1461 22.7718 17.1461ZM20.7869 21.0409H22.1547V18.6557H20.7869V17.6966H23.389V21.0409H24.6567V22H20.7869V21.0409ZM27.4557 22.1001C26.9775 22.1001 26.5605 22.0278 26.2047 21.8832C25.8544 21.7387 25.5903 21.5413 25.4124 21.2911L26.1046 20.6489C26.2714 20.8324 26.466 20.977 26.6884 21.0826C26.9164 21.1827 27.1749 21.2327 27.464 21.2327C27.7087 21.2327 27.9005 21.1966 28.0395 21.1243C28.1785 21.0465 28.248 20.9297 28.248 20.774C28.248 20.6517 28.2007 20.5683 28.1062 20.5238C28.0117 20.4738 27.881 20.4349 27.7142 20.4071L27.022 20.2986C26.8274 20.2708 26.6467 20.2291 26.4799 20.1735C26.3131 20.1124 26.1685 20.0318 26.0462 19.9317C25.9239 19.8316 25.8266 19.7093 25.7543 19.5647C25.682 19.4202 25.6459 19.245 25.6459 19.0393C25.6459 18.5889 25.8183 18.2359 26.163 17.9801C26.5077 17.7244 26.9914 17.5965 27.6141 17.5965C28.0367 17.5965 28.3953 17.6549 28.69 17.7716C28.9902 17.8828 29.2293 18.0441 29.4072 18.2553L28.7901 18.9559C28.6622 18.8169 28.4982 18.7001 28.298 18.6056C28.0979 18.5111 27.856 18.4638 27.5724 18.4638C27.0943 18.4638 26.8552 18.6084 26.8552 18.8975C26.8552 19.0254 26.9025 19.1144 26.997 19.1644C27.0915 19.2089 27.2222 19.245 27.389 19.2728L28.0728 19.3812C28.2674 19.409 28.4481 19.4535 28.6149 19.5147C28.7817 19.5703 28.9263 19.6481 29.0486 19.7482C29.1765 19.8483 29.2766 19.9706 29.3489 20.1152C29.4211 20.2597 29.4573 20.4349 29.4573 20.6406C29.4573 21.0909 29.2821 21.4468 28.9319 21.7081C28.5871 21.9694 28.0951 22.1001 27.4557 22.1001ZM30.5466 15.8284H31.7809V18.4805H31.8309C31.881 18.3582 31.9421 18.2442 32.0144 18.1386C32.0867 18.0329 32.1729 17.9412 32.2729 17.8634C32.3786 17.78 32.4981 17.716 32.6316 17.6715C32.7706 17.6215 32.9262 17.5965 33.0986 17.5965C33.3043 17.5965 33.4934 17.6326 33.6657 17.7049C33.8381 17.7716 33.9854 17.8745 34.1077 18.0135C34.2301 18.1525 34.3246 18.3221 34.3913 18.5222C34.4636 18.7224 34.4997 18.9531 34.4997 19.2144V22H33.2654V19.3812C33.2654 18.8252 33.0235 18.5472 32.5398 18.5472C32.4453 18.5472 32.3508 18.5611 32.2563 18.5889C32.1673 18.6112 32.0867 18.6501 32.0144 18.7057C31.9421 18.7557 31.8837 18.8197 31.8393 18.8975C31.8003 18.9754 31.7809 19.0671 31.7809 19.1727V22H30.5466V15.8284ZM2.45196 35.1001C1.9738 35.1001 1.5568 35.0278 1.20096 34.8832C0.85068 34.7387 0.58658 34.5413 0.40866 34.2911L1.10088 33.6489C1.26768 33.8324 1.46228 33.977 1.68468 34.0826C1.91264 34.1827 2.17118 34.2327 2.4603 34.2327C2.70494 34.2327 2.89676 34.1966 3.03576 34.1243C3.17476 34.0465 3.24426 33.9297 3.24426 33.774C3.24426 33.6517 3.197 33.5683 3.10248 33.5238C3.00796 33.4738 2.8773 33.4349 2.7105 33.4071L2.01828 33.2986C1.82368 33.2708 1.64298 33.2291 1.47618 33.1735C1.30938 33.1124 1.16482 33.0318 1.0425 32.9317C0.92018 32.8316 0.82288 32.7093 0.7506 32.5647C0.67832 32.4202 0.64218 32.245 0.64218 32.0393C0.64218 31.5889 0.81454 31.2359 1.15926 30.9801C1.50398 30.7244 1.9877 30.5965 2.61042 30.5965C3.03298 30.5965 3.3916 30.6549 3.68628 30.7716C3.98652 30.8828 4.2256 31.0441 4.40352 31.2553L3.78636 31.9559C3.65848 31.8169 3.49446 31.7001 3.2943 31.6056C3.09414 31.5111 2.85228 31.4638 2.56872 31.4638C2.09056 31.4638 1.85148 31.6084 1.85148 31.8975C1.85148 32.0254 1.89874 32.1144 1.99326 32.1644C2.08778 32.2089 2.21844 32.245 2.38524 32.2728L3.06912 32.3812C3.26372 32.409 3.44442 32.4535 3.61122 32.5147C3.77802 32.5703 3.92258 32.6481 4.0449 32.7482C4.17278 32.8483 4.27286 32.9706 4.34514 33.1152C4.41742 33.2597 4.45356 33.4349 4.45356 33.6406C4.45356 34.0909 4.27842 34.4468 3.92814 34.7081C3.58342 34.9694 3.09136 35.1001 2.45196 35.1001ZM5.4928 30.6966H6.72712V31.4805H6.7855C6.89114 31.2248 7.04404 31.0135 7.2442 30.8467C7.44436 30.6799 7.7168 30.5965 8.06152 30.5965C8.3006 30.5965 8.51744 30.641 8.71204 30.7299C8.9122 30.8189 9.08178 30.9551 9.22078 31.1386C9.36534 31.3221 9.47654 31.5556 9.55438 31.8391C9.63778 32.1227 9.67948 32.4591 9.67948 32.8483C9.67948 33.2375 9.63778 33.5739 9.55438 33.8574C9.47654 34.141 9.36534 34.3745 9.22078 34.558C9.08178 34.7415 8.9122 34.8777 8.71204 34.9666C8.51744 35.0556 8.3006 35.1001 8.06152 35.1001C7.7168 35.1001 7.44436 35.0195 7.2442 34.8582C7.04404 34.6914 6.89114 34.4774 6.7855 34.216H6.72712V36.668H5.4928V30.6966ZM7.52776 34.141C7.80576 34.141 8.01982 34.0576 8.16994 33.8908C8.32006 33.7184 8.39512 33.4821 8.39512 33.1819V32.5147C8.39512 32.2144 8.32006 31.9809 8.16994 31.8141C8.01982 31.6418 7.80576 31.5556 7.52776 31.5556C7.31092 31.5556 7.12188 31.6084 6.96064 31.714C6.80496 31.8197 6.72712 31.9865 6.72712 32.2144V33.4821C6.72712 33.7101 6.80496 33.8769 6.96064 33.9825C7.12188 34.0882 7.31092 34.141 7.52776 34.141ZM12.6202 35.1001C11.8974 35.1001 11.3498 34.8999 10.9773 34.4996C10.6047 34.0993 10.4185 33.5544 10.4185 32.865C10.4185 32.5147 10.4657 32.2005 10.5603 31.9225C10.6603 31.639 10.7993 31.3999 10.9773 31.2053C11.1607 31.0051 11.3804 30.855 11.6361 30.7549C11.8974 30.6493 12.1893 30.5965 12.5118 30.5965C12.8343 30.5965 13.1234 30.6493 13.3792 30.7549C13.6349 30.855 13.8518 30.9996 14.0297 31.1886C14.2076 31.3777 14.3438 31.6084 14.4384 31.8808C14.5384 32.1477 14.5885 32.448 14.5885 32.7816V33.1485H11.6445V33.2236C11.6445 33.5016 11.7306 33.7268 11.903 33.8991C12.0754 34.0659 12.3283 34.1493 12.6619 34.1493C12.9177 34.1493 13.1373 34.1021 13.3208 34.0075C13.5043 33.9075 13.6627 33.7768 13.7962 33.6156L14.4634 34.3411C14.2966 34.5469 14.0631 34.7248 13.7628 34.8749C13.4626 35.025 13.0817 35.1001 12.6202 35.1001ZM12.5202 31.4805C12.2533 31.4805 12.0392 31.5639 11.878 31.7307C11.7223 31.892 11.6445 32.1116 11.6445 32.3896V32.4563H13.3792V32.3896C13.3792 32.106 13.3013 31.8836 13.1457 31.7224C12.9955 31.5611 12.787 31.4805 12.5202 31.4805ZM19.0638 35C18.808 35 18.6023 34.9361 18.4466 34.8082C18.291 34.6747 18.1992 34.4857 18.1714 34.2411H18.1297C18.0519 34.5246 17.8962 34.7387 17.6627 34.8832C17.4347 35.0278 17.1539 35.1001 16.8203 35.1001C16.4033 35.1001 16.067 34.9889 15.8112 34.7665C15.561 34.5385 15.4359 34.2216 15.4359 33.8157C15.4359 33.3654 15.5999 33.0318 15.928 32.8149C16.256 32.5981 16.7369 32.4897 17.3708 32.4897H18.063V32.2728C18.063 32.0171 18.0018 31.8252 17.8795 31.6974C17.7628 31.5639 17.5626 31.4972 17.279 31.4972C17.0177 31.4972 16.8064 31.5472 16.6452 31.6473C16.484 31.7474 16.345 31.8781 16.2282 32.0393L15.5527 31.4388C15.6972 31.1942 15.9224 30.994 16.2282 30.8383C16.5396 30.6771 16.9371 30.5965 17.4208 30.5965C18.0102 30.5965 18.4689 30.7327 18.7969 31.0051C19.1305 31.272 19.2973 31.6779 19.2973 32.2228V34.1076H19.7727V35H19.0638ZM17.2874 34.2911C17.5042 34.2911 17.6877 34.2383 17.8378 34.1326C17.9879 34.027 18.063 33.8741 18.063 33.6739V33.1569H17.4041C16.8982 33.1569 16.6452 33.3264 16.6452 33.6656V33.8324C16.6452 33.9825 16.7036 34.0965 16.8203 34.1743C16.9371 34.2522 17.0928 34.2911 17.2874 34.2911ZM20.5451 28.8284H21.7794V32.3312H21.8378L22.4132 31.6557L23.3139 30.6966H24.7318L23.0637 32.3979L24.9069 35H23.4391L22.188 33.0985L21.7794 33.5071V35H20.5451V28.8284ZM27.6225 35.1001C26.8997 35.1001 26.352 34.8999 25.9795 34.4996C25.607 34.0993 25.4207 33.5544 25.4207 32.865C25.4207 32.5147 25.468 32.2005 25.5625 31.9225C25.6626 31.639 25.8016 31.3999 25.9795 31.2053C26.163 31.0051 26.3826 30.855 26.6384 30.7549C26.8997 30.6493 27.1916 30.5965 27.5141 30.5965C27.8365 30.5965 28.1257 30.6493 28.3814 30.7549C28.6372 30.855 28.854 30.9996 29.0319 31.1886C29.2099 31.3777 29.3461 31.6084 29.4406 31.8808C29.5407 32.1477 29.5907 32.448 29.5907 32.7816V33.1485H26.6467V33.2236C26.6467 33.5016 26.7329 33.7268 26.9052 33.8991C27.0776 34.0659 27.3306 34.1493 27.6642 34.1493C27.9199 34.1493 28.1396 34.1021 28.323 34.0075C28.5065 33.9075 28.665 33.7768 28.7984 33.6156L29.4656 34.3411C29.2988 34.5469 29.0653 34.7248 28.7651 34.8749C28.4648 35.025 28.084 35.1001 27.6225 35.1001ZM27.5224 31.4805C27.2555 31.4805 27.0415 31.5639 26.8802 31.7307C26.7245 31.892 26.6467 32.1116 26.6467 32.3896V32.4563H28.3814V32.3896C28.3814 32.106 28.3036 31.8836 28.1479 31.7224C27.9978 31.5611 27.7893 31.4805 27.5224 31.4805ZM30.6216 34.0409H31.6141V31.6557H30.6216V30.6966H32.8484V31.9142H32.9068C32.9457 31.7585 32.9985 31.6084 33.0652 31.4638C33.1375 31.3137 33.2265 31.1831 33.3321 31.0719C33.4433 30.9551 33.5768 30.8634 33.7324 30.7966C33.8881 30.7299 34.0716 30.6966 34.2829 30.6966H34.6915V31.8308H33.7741C33.4683 31.8308 33.2376 31.9225 33.0819 32.106C32.9262 32.2839 32.8484 32.5036 32.8484 32.7649V34.0409H34.2662V35H30.6216V34.0409ZM37.4572 35.1001C36.979 35.1001 36.562 35.0278 36.2062 34.8832C35.8559 34.7387 35.5918 34.5413 35.4139 34.2911L36.1061 33.6489C36.2729 33.8324 36.4675 33.977 36.6899 34.0826C36.9178 34.1827 37.1764 34.2327 37.4655 34.2327C37.7101 34.2327 37.902 34.1966 38.041 34.1243C38.18 34.0465 38.2495 33.9297 38.2495 33.774C38.2495 33.6517 38.2022 33.5683 38.1077 33.5238C38.0132 33.4738 37.8825 33.4349 37.7157 33.4071L37.0235 33.2986C36.8289 33.2708 36.6482 33.2291 36.4814 33.1735C36.3146 33.1124 36.17 33.0318 36.0477 32.9317C35.9254 32.8316 35.8281 32.7093 35.7558 32.5647C35.6835 32.4202 35.6474 32.245 35.6474 32.0393C35.6474 31.5889 35.8197 31.2359 36.1645 30.9801C36.5092 30.7244 36.9929 30.5965 37.6156 30.5965C38.0382 30.5965 38.3968 30.6549 38.6915 30.7716C38.9917 30.8828 39.2308 31.0441 39.4087 31.2553L38.7916 31.9559C38.6637 31.8169 38.4997 31.7001 38.2995 31.6056C38.0993 31.5111 37.8575 31.4638 37.5739 31.4638C37.0958 31.4638 36.8567 31.6084 36.8567 31.8975C36.8567 32.0254 36.9039 32.1144 36.9985 32.1644C37.093 32.2089 37.2236 32.245 37.3904 32.2728L38.0743 32.3812C38.2689 32.409 38.4496 32.4535 38.6164 32.5147C38.7832 32.5703 38.9278 32.6481 39.0501 32.7482C39.178 32.8483 39.2781 32.9706 39.3503 33.1152C39.4226 33.2597 39.4588 33.4349 39.4588 33.6406C39.4588 34.0909 39.2836 34.4468 38.9333 34.7081C38.5886 34.9694 38.0966 35.1001 37.4572 35.1001Z" transform="translate(165 31)" fill="black"/>
<path d="M1.99326 9.10008C1.79866 9.10008 1.64576 9.04726 1.53456 8.94162C1.42892 8.83598 1.3761 8.68308 1.3761 8.48292C1.3761 8.444 1.3761 8.39118 1.3761 8.32446C1.38166 8.25774 1.39 8.20214 1.40112 8.15766L1.90152 5.25534H0.65886L0.7506 4.69656H1.6263C1.77086 4.69656 1.8765 4.66876 1.94322 4.61316C2.0155 4.552 2.06554 4.44914 2.09334 4.30458L2.28516 3.17868H2.90232L2.64378 4.69656H4.4202L4.32846 5.25534H2.55204L2.01828 8.44122L2.18508 8.5413L4.06158 7.2903L4.38684 7.7073L3.44442 8.3745C3.24982 8.5135 3.08024 8.63026 2.93568 8.72478C2.79668 8.81374 2.6688 8.88602 2.55204 8.94162C2.44084 8.99722 2.34076 9.03614 2.2518 9.05838C2.16284 9.08618 2.07666 9.10008 1.99326 9.10008ZM6.52696 2.8284H7.17748L6.69376 5.71404H6.72712C6.88836 5.36932 7.08018 5.09688 7.30258 4.89672C7.52498 4.69656 7.81132 4.59648 8.1616 4.59648C8.523 4.59648 8.80656 4.7049 9.01228 4.92174C9.22356 5.13858 9.3292 5.44438 9.3292 5.83914C9.3292 5.92254 9.32364 6.01428 9.31252 6.11436C9.30696 6.20888 9.29584 6.3034 9.27916 6.39792L8.84548 9H8.19496L8.6203 6.4563C8.63698 6.35622 8.6481 6.26726 8.65366 6.18942C8.65922 6.10602 8.662 6.04208 8.662 5.9976C8.662 5.74184 8.60362 5.54168 8.48686 5.39712C8.3701 5.247 8.1894 5.17194 7.94476 5.17194C7.75572 5.17194 7.58614 5.21364 7.43602 5.29704C7.29146 5.38044 7.15802 5.49442 7.0357 5.63898C7.01346 5.66678 6.97732 5.71126 6.92728 5.77242C6.8828 5.82802 6.83554 5.9003 6.7855 5.98926C6.73546 6.07266 6.6882 6.16996 6.64372 6.28116C6.59924 6.3868 6.56588 6.50078 6.54364 6.6231L6.14332 9H5.4928L6.52696 2.8284ZM12.8371 3.73746C12.6592 3.73746 12.5341 3.7041 12.4618 3.63738C12.3895 3.57066 12.3534 3.49282 12.3534 3.40386C12.3534 3.3705 12.3561 3.33436 12.3617 3.29544C12.3673 3.25652 12.3756 3.21204 12.3867 3.162C12.409 3.03412 12.4646 2.93682 12.5535 2.8701C12.6425 2.79782 12.7704 2.76168 12.9372 2.76168C13.1151 2.76168 13.2402 2.79504 13.3125 2.86176C13.3847 2.92848 13.4209 3.00632 13.4209 3.09528C13.4209 3.12864 13.4181 3.16478 13.4125 3.2037C13.407 3.24262 13.3986 3.2871 13.3875 3.33714C13.3653 3.46502 13.3097 3.5651 13.2207 3.63738C13.1318 3.7041 13.0039 3.73746 12.8371 3.73746ZM12.27 9.10008C12.0587 9.10008 11.8974 9.04726 11.7862 8.94162C11.6806 8.83042 11.6278 8.69142 11.6278 8.52462C11.6278 8.46902 11.6306 8.41342 11.6361 8.35782C11.6472 8.29666 11.6584 8.24106 11.6695 8.19102L12.2366 5.25534H10.6854L10.7771 4.69656H12.9955L12.27 8.44956L12.4618 8.52462L14.1048 7.10682L14.4967 7.47378L13.7378 8.17434C13.5432 8.35782 13.3736 8.50794 13.2291 8.6247C13.0901 8.74146 12.965 8.83598 12.8538 8.90826C12.7426 8.98054 12.6397 9.03058 12.5452 9.05838C12.4562 9.08618 12.3645 9.10008 12.27 9.10008ZM17.2373 9.10008C16.8203 9.10008 16.4562 9.03058 16.1448 8.89158C15.839 8.75258 15.5916 8.55242 15.4025 8.2911L15.8863 7.90746C16.0531 8.11874 16.2477 8.27998 16.4701 8.39118C16.6925 8.49682 16.9677 8.54964 17.2957 8.54964C17.6794 8.54964 17.9796 8.47736 18.1964 8.3328C18.4133 8.18824 18.5217 7.9853 18.5217 7.72398C18.5217 7.52382 18.4605 7.3876 18.3382 7.31532C18.2215 7.23748 18.0741 7.18466 17.8962 7.15686L17.2707 7.06512C17.115 7.04288 16.9593 7.0123 16.8037 6.97338C16.6535 6.9289 16.5173 6.86496 16.395 6.78156C16.2782 6.69816 16.1809 6.59252 16.1031 6.46464C16.0308 6.3312 15.9947 6.1644 15.9947 5.96424C15.9947 5.73628 16.0419 5.5389 16.1365 5.3721C16.2365 5.19974 16.37 5.05796 16.5368 4.94676C16.7036 4.83 16.8982 4.74382 17.1206 4.68822C17.343 4.62706 17.5821 4.59648 17.8378 4.59648C18.2159 4.59648 18.5384 4.65486 18.8053 4.77162C19.0721 4.88838 19.2862 5.04962 19.4474 5.25534L18.9887 5.65566C18.9498 5.60006 18.897 5.54168 18.8303 5.48052C18.7691 5.41936 18.6885 5.36376 18.5884 5.31372C18.4939 5.26368 18.3771 5.22476 18.2381 5.19696C18.1047 5.1636 17.9462 5.14692 17.7628 5.14692C17.3902 5.14692 17.1067 5.21642 16.9121 5.35542C16.723 5.49442 16.6285 5.68068 16.6285 5.9142C16.6285 6.01984 16.6452 6.10602 16.6786 6.17274C16.7175 6.23946 16.7675 6.29506 16.8287 6.33954C16.8898 6.37846 16.9593 6.40904 17.0372 6.43128C17.1206 6.44796 17.2068 6.46464 17.2957 6.48132L17.9045 6.5814C18.0435 6.60364 18.1853 6.63422 18.3299 6.67314C18.48 6.7065 18.6162 6.7621 18.7385 6.83994C18.8609 6.91222 18.9609 7.01508 19.0388 7.14852C19.1222 7.2764 19.1639 7.44598 19.1639 7.65726C19.1639 7.87966 19.1166 8.07982 19.0221 8.25774C18.9331 8.43566 18.8025 8.58856 18.6301 8.71644C18.4633 8.83876 18.2604 8.93328 18.0213 9C17.7878 9.06672 17.5265 9.10008 17.2373 9.10008ZM27.8393 3.73746C27.6614 3.73746 27.5363 3.7041 27.464 3.63738C27.3917 3.57066 27.3556 3.49282 27.3556 3.40386C27.3556 3.3705 27.3584 3.33436 27.3639 3.29544C27.3695 3.25652 27.3778 3.21204 27.389 3.162C27.4112 3.03412 27.4668 2.93682 27.5558 2.8701C27.6447 2.79782 27.7726 2.76168 27.9394 2.76168C28.1173 2.76168 28.2424 2.79504 28.3147 2.86176C28.387 2.92848 28.4231 3.00632 28.4231 3.09528C28.4231 3.12864 28.4203 3.16478 28.4148 3.2037C28.4092 3.24262 28.4009 3.2871 28.3898 3.33714C28.3675 3.46502 28.3119 3.5651 28.223 3.63738C28.134 3.7041 28.0061 3.73746 27.8393 3.73746ZM27.2722 9.10008C27.0609 9.10008 26.8997 9.04726 26.7885 8.94162C26.6828 8.83042 26.63 8.69142 26.63 8.52462C26.63 8.46902 26.6328 8.41342 26.6384 8.35782C26.6495 8.29666 26.6606 8.24106 26.6717 8.19102L27.2388 5.25534H25.6876L25.7793 4.69656H27.9978L27.2722 8.44956L27.464 8.52462L29.107 7.10682L29.499 7.47378L28.74 8.17434C28.5454 8.35782 28.3759 8.50794 28.2313 8.6247C28.0923 8.74146 27.9672 8.83598 27.856 8.90826C27.7448 8.98054 27.6419 9.03058 27.5474 9.05838C27.4585 9.08618 27.3667 9.10008 27.2722 9.10008ZM32.2396 9.10008C31.8226 9.10008 31.4584 9.03058 31.147 8.89158C30.8412 8.75258 30.5938 8.55242 30.4048 8.2911L30.8885 7.90746C31.0553 8.11874 31.2499 8.27998 31.4723 8.39118C31.6947 8.49682 31.9699 8.54964 32.298 8.54964C32.6816 8.54964 32.9818 8.47736 33.1987 8.3328C33.4155 8.18824 33.5239 7.9853 33.5239 7.72398C33.5239 7.52382 33.4628 7.3876 33.3405 7.31532C33.2237 7.23748 33.0764 7.18466 32.8984 7.15686L32.2729 7.06512C32.1173 7.04288 31.9616 7.0123 31.8059 6.97338C31.6558 6.9289 31.5196 6.86496 31.3972 6.78156C31.2805 6.69816 31.1832 6.59252 31.1053 6.46464C31.0331 6.3312 30.9969 6.1644 30.9969 5.96424C30.9969 5.73628 31.0442 5.5389 31.1387 5.3721C31.2388 5.19974 31.3722 5.05796 31.539 4.94676C31.7058 4.83 31.9004 4.74382 32.1228 4.68822C32.3452 4.62706 32.5843 4.59648 32.8401 4.59648C33.2181 4.59648 33.5406 4.65486 33.8075 4.77162C34.0744 4.88838 34.2884 5.04962 34.4497 5.25534L33.991 5.65566C33.9521 5.60006 33.8992 5.54168 33.8325 5.48052C33.7714 5.41936 33.6907 5.36376 33.5907 5.31372C33.4961 5.26368 33.3794 5.22476 33.2404 5.19696C33.1069 5.1636 32.9485 5.14692 32.765 5.14692C32.3925 5.14692 32.1089 5.21642 31.9143 5.35542C31.7253 5.49442 31.6308 5.68068 31.6308 5.9142C31.6308 6.01984 31.6474 6.10602 31.6808 6.17274C31.7197 6.23946 31.7698 6.29506 31.8309 6.33954C31.8921 6.37846 31.9616 6.40904 32.0394 6.43128C32.1228 6.44796 32.209 6.46464 32.298 6.48132L32.9068 6.5814C33.0458 6.60364 33.1876 6.63422 33.3321 6.67314C33.4822 6.7065 33.6185 6.7621 33.7408 6.83994C33.8631 6.91222 33.9632 7.01508 34.041 7.14852C34.1244 7.2764 34.1661 7.44598 34.1661 7.65726C34.1661 7.87966 34.1189 8.07982 34.0243 8.25774C33.9354 8.43566 33.8047 8.58856 33.6324 8.71644C33.4656 8.83876 33.2626 8.93328 33.0235 9C32.79 9.06672 32.5287 9.10008 32.2396 9.10008ZM1.76808 23.7681C1.07864 23.7681 0.57546 23.5707 0.25854 23.1759L0.7089 22.7423C0.8201 22.8868 0.96466 22.998 1.14258 23.0759C1.3205 23.1537 1.5429 23.1926 1.80978 23.1926C2.20454 23.1926 2.51868 23.0925 2.7522 22.8924C2.98572 22.6922 3.1414 22.3531 3.21924 21.8749L3.39438 20.8407H3.36102C3.19978 21.1855 2.99684 21.4579 2.7522 21.6581C2.51312 21.8582 2.20454 21.9583 1.82646 21.9583C1.38166 21.9583 1.04528 21.8193 0.81732 21.5413C0.58936 21.2577 0.47538 20.8519 0.47538 20.3237C0.47538 20.0457 0.51152 19.7482 0.5838 19.4313C0.65608 19.1088 0.77284 18.8141 0.93408 18.5472C1.09532 18.2748 1.30382 18.0496 1.55958 17.8717C1.81534 17.6882 2.12948 17.5965 2.502 17.5965C2.81892 17.5965 3.08302 17.6688 3.2943 17.8133C3.51114 17.9523 3.66682 18.1636 3.76134 18.4472H3.78636L3.91146 17.6966H4.56198L3.84474 22C3.73354 22.6338 3.49446 23.087 3.1275 23.3594C2.76054 23.6319 2.3074 23.7681 1.76808 23.7681ZM2.05164 21.3828C2.22956 21.3828 2.4047 21.3467 2.57706 21.2744C2.74942 21.2021 2.91344 21.0798 3.06912 20.9075C3.14696 20.8185 3.23592 20.6934 3.336 20.5322C3.43608 20.3654 3.50558 20.1652 3.5445 19.9317L3.67794 19.1144C3.72798 18.8141 3.6557 18.5834 3.4611 18.4221C3.27206 18.2553 3.0163 18.1719 2.69382 18.1719C2.28794 18.1719 1.96268 18.2943 1.71804 18.5389C1.47896 18.7835 1.32606 19.106 1.25934 19.5063L1.18428 19.9567C1.17316 20.0345 1.16204 20.1013 1.15092 20.1569C1.14536 20.2069 1.14258 20.2625 1.14258 20.3237C1.14258 20.6684 1.21764 20.9325 1.36776 21.116C1.52344 21.2939 1.7514 21.3828 2.05164 21.3828ZM7.21084 22.1001C6.93284 22.1001 6.6882 22.0556 6.47692 21.9666C6.2712 21.8777 6.09884 21.7554 5.95984 21.5997C5.82084 21.4384 5.7152 21.2466 5.64292 21.0242C5.57064 20.7963 5.5345 20.5488 5.5345 20.282C5.5345 19.8705 5.59288 19.5008 5.70964 19.1727C5.8264 18.8391 5.98486 18.5556 6.18502 18.3221C6.39074 18.0885 6.62982 17.9106 6.90226 17.7883C7.1747 17.6604 7.46938 17.5965 7.7863 17.5965C8.0643 17.5965 8.30894 17.641 8.52022 17.7299C8.7315 17.8189 8.90664 17.944 9.04564 18.1052C9.1902 18.2609 9.29584 18.4527 9.36256 18.6807C9.43484 18.9031 9.47098 19.1477 9.47098 19.4146C9.47098 19.826 9.4126 20.1986 9.29584 20.5322C9.17908 20.8602 9.01784 21.141 8.81212 21.3745C8.61196 21.608 8.37288 21.7887 8.09488 21.9166C7.82244 22.0389 7.52776 22.1001 7.21084 22.1001ZM7.2442 21.533C7.65008 21.533 7.97256 21.4106 8.21164 21.166C8.45628 20.9158 8.61474 20.5766 8.68702 20.1485L8.77042 19.6481C8.7871 19.548 8.79822 19.4646 8.80378 19.3979C8.80934 19.3312 8.81212 19.2728 8.81212 19.2228C8.81212 18.8558 8.7176 18.5889 8.52856 18.4221C8.33952 18.2498 8.08376 18.1636 7.76128 18.1636C7.3554 18.1636 7.03014 18.2887 6.7855 18.5389C6.54642 18.7835 6.39074 19.1199 6.31846 19.548L6.23506 20.0484C6.21838 20.1485 6.20726 20.2319 6.2017 20.2986C6.19614 20.3654 6.19336 20.4237 6.19336 20.4738C6.19336 20.8407 6.28788 21.1104 6.47692 21.2828C6.66596 21.4496 6.92172 21.533 7.2442 21.533ZM12.8371 16.7375C12.6592 16.7375 12.5341 16.7041 12.4618 16.6374C12.3895 16.5707 12.3534 16.4928 12.3534 16.4039C12.3534 16.3705 12.3561 16.3344 12.3617 16.2954C12.3673 16.2565 12.3756 16.212 12.3867 16.162C12.409 16.0341 12.4646 15.9368 12.5535 15.8701C12.6425 15.7978 12.7704 15.7617 12.9372 15.7617C13.1151 15.7617 13.2402 15.795 13.3125 15.8618C13.3847 15.9285 13.4209 16.0063 13.4209 16.0953C13.4209 16.1286 13.4181 16.1648 13.4125 16.2037C13.407 16.2426 13.3986 16.2871 13.3875 16.3371C13.3653 16.465 13.3097 16.5651 13.2207 16.6374C13.1318 16.7041 13.0039 16.7375 12.8371 16.7375ZM12.27 22.1001C12.0587 22.1001 11.8974 22.0473 11.7862 21.9416C11.6806 21.8304 11.6278 21.6914 11.6278 21.5246C11.6278 21.469 11.6306 21.4134 11.6361 21.3578C11.6472 21.2967 11.6584 21.2411 11.6695 21.191L12.2366 18.2553H10.6854L10.7771 17.6966H12.9955L12.27 21.4496L12.4618 21.5246L14.1048 20.1068L14.4967 20.4738L13.7378 21.1743C13.5432 21.3578 13.3736 21.5079 13.2291 21.6247C13.0901 21.7415 12.965 21.836 12.8538 21.9083C12.7426 21.9805 12.6397 22.0306 12.5452 22.0584C12.4562 22.0862 12.3645 22.1001 12.27 22.1001ZM15.4943 22L16.2115 17.6966H16.862L16.6952 18.714H16.7286C16.8898 18.3693 17.0817 18.0969 17.3041 17.8967C17.5265 17.6966 17.8128 17.5965 18.1631 17.5965C18.5245 17.5965 18.808 17.7049 19.0138 17.9217C19.225 18.1386 19.3307 18.4444 19.3307 18.8391C19.3307 18.9225 19.3251 19.0143 19.314 19.1144C19.3084 19.2089 19.2973 19.3034 19.2806 19.3979L18.847 22H18.1964L18.6218 19.4563C18.6385 19.3562 18.6496 19.2673 18.6551 19.1894C18.6607 19.106 18.6635 19.0421 18.6635 18.9976C18.6635 18.7418 18.6051 18.5417 18.4883 18.3971C18.3716 18.247 18.1909 18.1719 17.9462 18.1719C17.7572 18.1719 17.5876 18.2136 17.4375 18.297C17.2929 18.3804 17.1595 18.4944 17.0372 18.639C17.0149 18.6668 16.9788 18.7113 16.9288 18.7724C16.8843 18.828 16.837 18.9003 16.787 18.9893C16.7369 19.0727 16.6897 19.17 16.6452 19.2812C16.6007 19.3868 16.5674 19.5008 16.5451 19.6231L16.1448 22H15.4943ZM21.771 23.7681C21.0816 23.7681 20.5784 23.5707 20.2615 23.1759L20.7119 22.7423C20.8231 22.8868 20.9676 22.998 21.1455 23.0759C21.3235 23.1537 21.5459 23.1926 21.8127 23.1926C22.2075 23.1926 22.5216 23.0925 22.7552 22.8924C22.9887 22.6922 23.1444 22.3531 23.2222 21.8749L23.3973 20.8407H23.364C23.2027 21.1855 22.9998 21.4579 22.7552 21.6581C22.5161 21.8582 22.2075 21.9583 21.8294 21.9583C21.3846 21.9583 21.0482 21.8193 20.8203 21.5413C20.5923 21.2577 20.4783 20.8519 20.4783 20.3237C20.4783 20.0457 20.5145 19.7482 20.5868 19.4313C20.659 19.1088 20.7758 18.8141 20.937 18.5472C21.0983 18.2748 21.3068 18.0496 21.5625 17.8717C21.8183 17.6882 22.1324 17.5965 22.505 17.5965C22.8219 17.5965 23.086 17.6688 23.2973 17.8133C23.5141 17.9523 23.6698 18.1636 23.7643 18.4472H23.7893L23.9144 17.6966H24.565L23.8477 22C23.7365 22.6338 23.4974 23.087 23.1305 23.3594C22.7635 23.6319 22.3104 23.7681 21.771 23.7681ZM22.0546 21.3828C22.2325 21.3828 22.4077 21.3467 22.58 21.2744C22.7524 21.2021 22.9164 21.0798 23.0721 20.9075C23.1499 20.8185 23.2389 20.6934 23.339 20.5322C23.439 20.3654 23.5085 20.1652 23.5475 19.9317L23.6809 19.1144C23.7309 18.8141 23.6587 18.5834 23.4641 18.4221C23.275 18.2553 23.0193 18.1719 22.6968 18.1719C22.2909 18.1719 21.9656 18.2943 21.721 18.5389C21.4819 18.7835 21.329 19.106 21.2623 19.5063L21.1872 19.9567C21.1761 20.0345 21.165 20.1013 21.1539 20.1569C21.1483 20.2069 21.1455 20.2625 21.1455 20.3237C21.1455 20.6684 21.2206 20.9325 21.3707 21.116C21.5264 21.2939 21.7544 21.3828 22.0546 21.3828ZM31.9977 22.1001C31.8031 22.1001 31.6502 22.0473 31.539 21.9416C31.4334 21.836 31.3806 21.6831 31.3806 21.4829C31.3806 21.444 31.3806 21.3912 31.3806 21.3245C31.3861 21.2577 31.3945 21.2021 31.4056 21.1577L31.906 18.2553H30.6633L30.7551 17.6966H31.6308C31.7753 17.6966 31.881 17.6688 31.9477 17.6132C32.02 17.552 32.07 17.4491 32.0978 17.3046L32.2896 16.1787H32.9068L32.6482 17.6966H34.4247L34.3329 18.2553H32.5565L32.0227 21.4412L32.1895 21.5413L34.066 20.2903L34.3913 20.7073L33.4489 21.3745C33.2543 21.5135 33.0847 21.6303 32.9401 21.7248C32.8011 21.8137 32.6733 21.886 32.5565 21.9416C32.4453 21.9972 32.3452 22.0361 32.2563 22.0584C32.1673 22.0862 32.0811 22.1001 31.9977 22.1001ZM37.2153 22.1001C36.9373 22.1001 36.6927 22.0556 36.4814 21.9666C36.2757 21.8777 36.1033 21.7554 35.9643 21.5997C35.8253 21.4384 35.7197 21.2466 35.6474 21.0242C35.5751 20.7963 35.539 20.5488 35.539 20.282C35.539 19.8705 35.5973 19.5008 35.7141 19.1727C35.8309 18.8391 35.9893 18.5556 36.1895 18.3221C36.3952 18.0885 36.6343 17.9106 36.9067 17.7883C37.1792 17.6604 37.4738 17.5965 37.7908 17.5965C38.0688 17.5965 38.3134 17.641 38.5247 17.7299C38.736 17.8189 38.9111 17.944 39.0501 18.1052C39.1947 18.2609 39.3003 18.4527 39.367 18.6807C39.4393 18.9031 39.4754 19.1477 39.4754 19.4146C39.4754 19.826 39.4171 20.1986 39.3003 20.5322C39.1835 20.8602 39.0223 21.141 38.8166 21.3745C38.6164 21.608 38.3773 21.7887 38.0993 21.9166C37.8269 22.0389 37.5322 22.1001 37.2153 22.1001ZM37.2487 21.533C37.6545 21.533 37.977 21.4106 38.2161 21.166C38.4607 20.9158 38.6192 20.5766 38.6915 20.1485L38.7749 19.6481C38.7916 19.548 38.8027 19.4646 38.8082 19.3979C38.8138 19.3312 38.8166 19.2728 38.8166 19.2228C38.8166 18.8558 38.7221 18.5889 38.533 18.4221C38.344 18.2498 38.0882 18.1636 37.7657 18.1636C37.3599 18.1636 37.0346 18.2887 36.79 18.5389C36.5509 18.7835 36.3952 19.1199 36.3229 19.548L36.2395 20.0484C36.2228 20.1485 36.2117 20.2319 36.2062 20.2986C36.2006 20.3654 36.1978 20.4237 36.1978 20.4738C36.1978 20.8407 36.2923 21.1104 36.4814 21.2828C36.6704 21.4496 36.9262 21.533 37.2487 21.533ZM1.99326 35.1001C1.79866 35.1001 1.64576 35.0473 1.53456 34.9416C1.42892 34.836 1.3761 34.6831 1.3761 34.4829C1.3761 34.444 1.3761 34.3912 1.3761 34.3245C1.38166 34.2577 1.39 34.2021 1.40112 34.1577L1.90152 31.2553H0.65886L0.7506 30.6966H1.6263C1.77086 30.6966 1.8765 30.6688 1.94322 30.6132C2.0155 30.552 2.06554 30.4491 2.09334 30.3046L2.28516 29.1787H2.90232L2.64378 30.6966H4.4202L4.32846 31.2553H2.55204L2.01828 34.4412L2.18508 34.5413L4.06158 33.2903L4.38684 33.7073L3.44442 34.3745C3.24982 34.5135 3.08024 34.6303 2.93568 34.7248C2.79668 34.8137 2.6688 34.886 2.55204 34.9416C2.44084 34.9972 2.34076 35.0361 2.2518 35.0584C2.16284 35.0862 2.07666 35.1001 1.99326 35.1001ZM8.19496 35L8.36176 33.9825H8.33674C8.16994 34.3217 7.967 34.5941 7.72792 34.7998C7.4944 35 7.1886 35.1001 6.81052 35.1001C6.37684 35.1001 6.04324 34.9611 5.80972 34.6831C5.58176 34.4051 5.46778 33.9881 5.46778 33.4321C5.46778 33.143 5.50114 32.8344 5.56786 32.5063C5.64014 32.1727 5.75412 31.8642 5.9098 31.5806C6.07104 31.297 6.28232 31.0635 6.54364 30.88C6.80496 30.691 7.12466 30.5965 7.50274 30.5965C7.81966 30.5965 8.08376 30.6688 8.29504 30.8133C8.51188 30.9523 8.66756 31.1636 8.76208 31.4472H8.7871L8.9122 30.6966H9.56272L8.84548 35H8.19496ZM7.0357 34.5246C7.21362 34.5246 7.38876 34.4885 7.56112 34.4162C7.73348 34.3384 7.89472 34.216 8.04484 34.0492C8.15604 33.9269 8.25334 33.7824 8.33674 33.6156C8.4257 33.4488 8.48686 33.2653 8.52022 33.0651L8.67868 32.1144C8.72872 31.8141 8.65644 31.5834 8.46184 31.4221C8.2728 31.2553 8.01704 31.1719 7.69456 31.1719C7.27756 31.1719 6.94952 31.297 6.71044 31.5472C6.47692 31.7974 6.3268 32.1227 6.26008 32.523L6.16 33.1235C6.14888 33.2013 6.14054 33.2708 6.13498 33.332C6.12942 33.3876 6.12664 33.4432 6.12664 33.4988C6.12664 33.8213 6.2017 34.0743 6.35182 34.2577C6.5075 34.4357 6.73546 34.5246 7.0357 34.5246ZM11.5277 28.8284H12.1782L11.6945 31.714H11.7279C11.8835 31.3804 12.0781 31.1108 12.3117 30.9051C12.5452 30.6993 12.8426 30.5965 13.204 30.5965C13.5488 30.5965 13.8212 30.6938 14.0214 30.8884C14.2271 31.0774 14.3299 31.3332 14.3299 31.6557C14.3299 31.7835 14.3077 31.9225 14.2632 32.0727C14.2187 32.2172 14.1326 32.3618 14.0047 32.5063C13.8768 32.6453 13.6989 32.7788 13.4709 32.9067C13.2485 33.029 12.9538 33.1346 12.5869 33.2236L13.179 34.5163L13.2874 34.533L14.3967 33.5155L14.7553 33.8908L14.1631 34.4829C13.9463 34.6998 13.7656 34.8582 13.621 34.9583C13.4765 35.0528 13.3236 35.1001 13.1623 35.1001C13.0178 35.1001 12.8955 35.0612 12.7954 34.9833C12.7009 34.9055 12.6091 34.7693 12.5202 34.5747L11.8446 33.1068C12.1949 33.0234 12.484 32.9317 12.712 32.8316C12.9455 32.726 13.1318 32.6175 13.2708 32.5063C13.4153 32.3951 13.5154 32.2784 13.571 32.1561C13.6322 32.0337 13.6627 31.9086 13.6627 31.7808C13.6627 31.5862 13.6016 31.4333 13.4793 31.3221C13.3625 31.2109 13.1901 31.1553 12.9622 31.1553C12.7509 31.1553 12.5702 31.2025 12.4201 31.297C12.27 31.386 12.1365 31.5028 12.0198 31.6473C11.8974 31.7974 11.7946 31.9531 11.7112 32.1144C11.6278 32.2756 11.5722 32.4452 11.5444 32.6231L11.1441 35H10.4935L11.5277 28.8284ZM17.3124 35.1001C16.7675 35.1001 16.3477 34.95 16.0531 34.6497C15.7584 34.3439 15.611 33.8797 15.611 33.2569C15.611 32.8677 15.6694 32.5119 15.7862 32.1894C15.9029 31.8614 16.0642 31.5806 16.2699 31.3471C16.4812 31.108 16.7314 30.9245 17.0205 30.7966C17.3152 30.6632 17.6349 30.5965 17.9796 30.5965C18.1909 30.5965 18.3855 30.6215 18.5634 30.6715C18.7413 30.7216 18.8942 30.7966 19.0221 30.8967C19.1555 30.9912 19.2584 31.1108 19.3307 31.2553C19.403 31.3999 19.4391 31.5667 19.4391 31.7557C19.4391 31.9059 19.403 32.0615 19.3307 32.2228C19.264 32.384 19.1194 32.5341 18.897 32.6731C18.6802 32.8121 18.3632 32.9289 17.9462 33.0234C17.5348 33.1179 16.9871 33.1735 16.3033 33.1902C16.2977 33.2347 16.2949 33.2764 16.2949 33.3153C16.2949 33.3487 16.2949 33.3709 16.2949 33.382C16.2949 33.5322 16.3088 33.6767 16.3366 33.8157C16.3644 33.9547 16.4172 34.0798 16.4951 34.191C16.5729 34.2967 16.6813 34.3828 16.8203 34.4496C16.9593 34.5107 17.1428 34.5413 17.3708 34.5413C17.5265 34.5413 17.6655 34.5246 17.7878 34.4913C17.9157 34.4523 18.0352 34.3967 18.1464 34.3245C18.2632 34.2466 18.3744 34.1493 18.48 34.0326C18.5912 33.9102 18.708 33.7629 18.8303 33.5905L19.289 33.8741C19.0443 34.2744 18.7663 34.5802 18.455 34.7915C18.1492 34.9972 17.7683 35.1001 17.3124 35.1001ZM17.9212 31.1386C17.4875 31.1386 17.1345 31.2692 16.862 31.5306C16.5896 31.7919 16.4228 32.1672 16.3616 32.6565L16.3533 32.7399C16.8759 32.7232 17.2957 32.6843 17.6126 32.6231C17.9351 32.5564 18.1798 32.4785 18.3466 32.3896C18.5189 32.3006 18.6329 32.2033 18.6885 32.0977C18.7441 31.992 18.7719 31.8864 18.7719 31.7808C18.7719 31.6918 18.7552 31.6084 18.7219 31.5306C18.6941 31.4527 18.6468 31.386 18.5801 31.3304C18.5134 31.2692 18.4244 31.222 18.3132 31.1886C18.2076 31.1553 18.0769 31.1386 17.9212 31.1386ZM28.1979 35L28.3647 33.9825H28.3397C28.1729 34.3217 27.97 34.5941 27.7309 34.7998C27.4974 35 27.1916 35.1001 26.8135 35.1001C26.3798 35.1001 26.0462 34.9611 25.8127 34.6831C25.5847 34.4051 25.4708 33.9881 25.4708 33.4321C25.4708 33.143 25.5041 32.8344 25.5708 32.5063C25.6431 32.1727 25.7571 31.8642 25.9128 31.5806C26.074 31.297 26.2853 31.0635 26.5466 30.88C26.8079 30.691 27.1276 30.5965 27.5057 30.5965C27.8226 30.5965 28.0867 30.6688 28.298 30.8133C28.5149 30.9523 28.6705 31.1636 28.7651 31.4472H28.7901L28.9152 30.6966H29.5657L28.8485 35H28.1979ZM27.0387 34.5246C27.2166 34.5246 27.3917 34.4885 27.5641 34.4162C27.7365 34.3384 27.8977 34.216 28.0478 34.0492C28.159 33.9269 28.2563 33.7824 28.3397 33.6156C28.4287 33.4488 28.4898 33.2653 28.5232 33.0651L28.6817 32.1144C28.7317 31.8141 28.6594 31.5834 28.4648 31.4221C28.2758 31.2553 28.02 31.1719 27.6975 31.1719C27.2805 31.1719 26.9525 31.297 26.7134 31.5472C26.4799 31.7974 26.3298 32.1227 26.2631 32.523L26.163 33.1235C26.1519 33.2013 26.1435 33.2708 26.138 33.332C26.1324 33.3876 26.1296 33.4432 26.1296 33.4988C26.1296 33.8213 26.2047 34.0743 26.3548 34.2577C26.5105 34.4357 26.7384 34.5246 27.0387 34.5246ZM36.4814 28.8284H37.1319L36.6482 31.714H36.6732C36.84 31.3749 37.0402 31.1052 37.2737 30.9051C37.5128 30.6993 37.8213 30.5965 38.1994 30.5965C38.6331 30.5965 38.9639 30.7355 39.1919 31.0135C39.4254 31.2915 39.5422 31.7085 39.5422 32.2645C39.5422 32.5536 39.506 32.865 39.4337 33.1986C39.367 33.5266 39.253 33.8324 39.0918 34.116C38.9361 34.3995 38.7276 34.6358 38.4663 34.8249C38.205 35.0083 37.8853 35.1001 37.5072 35.1001C37.1903 35.1001 36.9234 35.0306 36.7066 34.8916C36.4953 34.747 36.3424 34.533 36.2479 34.2494H36.2228L36.0977 35H35.4472L36.4814 28.8284ZM37.307 34.5246C37.724 34.5246 38.0521 34.3995 38.2912 34.1493C38.5302 33.8991 38.6831 33.5739 38.7499 33.1735L38.8499 32.5731C38.8611 32.4952 38.8694 32.4285 38.875 32.3729C38.8805 32.3117 38.8833 32.2534 38.8833 32.1978C38.8833 31.8753 38.8055 31.6251 38.6498 31.4472C38.4997 31.2637 38.2745 31.1719 37.9742 31.1719C37.7963 31.1719 37.6212 31.2109 37.4488 31.2887C37.2765 31.361 37.1152 31.4805 36.9651 31.6473C36.8539 31.7696 36.7538 31.9142 36.6649 32.081C36.5815 32.2478 36.5231 32.4313 36.4897 32.6314L36.3313 33.5822C36.2812 33.8824 36.3507 34.116 36.5398 34.2828C36.7288 34.444 36.9846 34.5246 37.307 34.5246ZM42.8415 29.7375C42.6636 29.7375 42.5385 29.7041 42.4662 29.6374C42.394 29.5707 42.3578 29.4928 42.3578 29.4039C42.3578 29.3705 42.3606 29.3344 42.3662 29.2954C42.3717 29.2565 42.3801 29.212 42.3912 29.162C42.4134 29.0341 42.469 28.9368 42.558 28.8701C42.6469 28.7978 42.7748 28.7617 42.9416 28.7617C43.1195 28.7617 43.2446 28.795 43.3169 28.8618C43.3892 28.9285 43.4253 29.0063 43.4253 29.0953C43.4253 29.1286 43.4226 29.1648 43.417 29.2037C43.4114 29.2426 43.4031 29.2871 43.392 29.3371C43.3697 29.465 43.3141 29.5651 43.2252 29.6374C43.1362 29.7041 43.0083 29.7375 42.8415 29.7375ZM42.2744 35.1001C42.0631 35.1001 41.9019 35.0473 41.7907 34.9416C41.6851 34.8304 41.6322 34.6914 41.6322 34.5246C41.6322 34.469 41.635 34.4134 41.6406 34.3578C41.6517 34.2967 41.6628 34.2411 41.6739 34.191L42.2411 31.2553H40.6898L40.7816 30.6966H43L42.2744 34.4496L42.4662 34.5246L44.1092 33.1068L44.5012 33.4738L43.7423 34.1743C43.5477 34.3578 43.3781 34.5079 43.2335 34.6247C43.0945 34.7415 42.9694 34.836 42.8582 34.9083C42.747 34.9805 42.6442 35.0306 42.5496 35.0584C42.4607 35.0862 42.3689 35.1001 42.2744 35.1001ZM46.9999 35.1001C46.8053 35.1001 46.6524 35.0473 46.5412 34.9416C46.4356 34.836 46.3828 34.6831 46.3828 34.4829C46.3828 34.444 46.3828 34.3912 46.3828 34.3245C46.3883 34.2577 46.3967 34.2021 46.4078 34.1577L46.9082 31.2553H45.6655L45.7573 30.6966H46.633C46.7775 30.6966 46.8832 30.6688 46.9499 30.6132C47.0222 30.552 47.0722 30.4491 47.1 30.3046L47.2918 29.1787H47.909L47.6505 30.6966H49.4269L49.3351 31.2553H47.5587L47.025 34.4412L47.1918 34.5413L49.0683 33.2903L49.3935 33.7073L48.4511 34.3745C48.2565 34.5135 48.0869 34.6303 47.9424 34.7248C47.8034 34.8137 47.6755 34.886 47.5587 34.9416C47.4475 34.9972 47.3474 35.0361 47.2585 35.0584C47.1695 35.0862 47.0833 35.1001 46.9999 35.1001Z" transform="translate(165 76)" fill="black"/>
<path d="M0 0H104" transform="translate(232 24) rotate(90)" stroke="black" stroke-width="0.5"/>
<path d="M0 0H104.25V74.5" transform="translate(234 26) rotate(90)" stroke="black" stroke-width="0.5"/>
<path d="M0 0H104" transform="translate(236 29) rotate(90)" stroke="black" stroke-width="0.5"/>
<line y1="-0.25" x2="75" y2="-0.25" transform="translate(157 128)" stroke="black" stroke-width="0.5"/>
<line y1="-0.25" x2="75" y2="-0.25" transform="translate(161 133)" stroke="black" stroke-width="0.5"/>
</g>
<defs>
<clipPath id="clip0">
<rect width="270" height="156" fill="white"/>
</clipPath>
</defs>
</svg>
