<?xml version="1.0" encoding="utf-8"?>
<!-- Generator: Adobe Illustrator 18.0.0, SVG Export Plug-In . SVG Version: 6.00 Build 0)  -->
<!DOCTYPE svg PUBLIC "-//W3C//DTD SVG 1.1//EN" "http://www.w3.org/Graphics/SVG/1.1/DTD/svg11.dtd">
<svg version="1.1" id="Layer_1" xmlns="http://www.w3.org/2000/svg" xmlns:xlink="http://www.w3.org/1999/xlink" x="0px" y="0px"
	 viewBox="0 245 700 700" enable-background="new 0 245 700 700" xml:space="preserve">
<g>
	<g>
		<polygon points="101.5,433.8 101.5,467.1 101.5,645.6 101.5,804.8 155.8,829.7 210,804.8 210,692.8 318.5,643.8 318.5,563.3 
			210,612.8 210,514.3 318.5,465.3 318.5,385 264.2,360.3 		"/>
		<polygon fill="#3767B1" points="210,514.3 210,563.3 210,612.8 318.5,563.3 		"/>
	</g>
	<g>
		<polygon points="388.5,433.8 388.5,467.1 388.5,645.6 388.5,804.8 442.8,829.7 497,804.8 497,692.8 605.5,643.8 605.5,563.3 
			497,612.8 497,514.3 605.5,465.3 605.5,385 551.2,360.3 		"/>
		<polygon fill="#3767B1" points="497,514.3 497,563.3 497,612.8 605.5,563.3 		"/>
	</g>
</g>
</svg>
