<?xml version="1.0" encoding="utf-8"?>
<!-- Generator: Adobe Illustrator 18.1.1, SVG Export Plug-In . SVG Version: 6.00 Build 0)  -->
<!DOCTYPE svg PUBLIC "-//W3C//DTD SVG 1.1//EN" "http://www.w3.org/Graphics/SVG/1.1/DTD/svg11.dtd">
<svg version="1.1" id="Layer_1" xmlns="http://www.w3.org/2000/svg" xmlns:xlink="http://www.w3.org/1999/xlink" x="0px" y="0px"
	 viewBox="145.5 7 286 286" enable-background="new 145.5 7 286 286" xml:space="preserve">
<g>
	<g>
		<polygon points="180.5,80.9 180.5,95.2 180.5,171.7 180.5,239.9 203.8,250.6 227,239.9 227,191.9 273.5,170.9 273.5,136.4 
			227,157.6 227,115.4 273.5,94.4 273.5,60 250.2,49.4 		"/>
		<polygon fill="#00C471" points="227,115.4 227,136.4 227,157.6 273.5,136.4 		"/>
	</g>
	<g>
		<polygon points="303.5,80.9 303.5,95.2 303.5,171.7 303.5,239.9 326.8,250.6 350,239.9 350,191.9 396.5,170.9 396.5,136.4 
			350,157.6 350,115.4 396.5,94.4 396.5,60 373.2,49.4 		"/>
		<polygon fill="#00C471" points="350,115.4 350,136.4 350,157.6 396.5,136.4 		"/>
	</g>
</g>
</svg>
